<svg version="1.1" xmlns="http://www.w3.org/2000/svg" xmlns:xlink="http://www.w3.org/1999/xlink" width="147.2436" height="249.84289" viewBox="0,0,147.2436,249.84289"><defs><linearGradient x1="226.20749" y1="37.53602" x2="226.20749" y2="66.49013" gradientUnits="userSpaceOnUse" id="color-1"><stop offset="0" stop-color="#6b6b6b"/><stop offset="1" stop-color="#434343"/></linearGradient><linearGradient x1="241.00007" y1="97.85214" x2="241.00007" y2="273.58811" gradientUnits="userSpaceOnUse" id="color-2"><stop offset="0" stop-color="#89a49a"/><stop offset="1" stop-color="#586862"/></linearGradient><linearGradient x1="247.00007" y1="102.85214" x2="247.00007" y2="278.58811" gradientUnits="userSpaceOnUse" id="color-3"><stop offset="0" stop-color="#89a49a"/><stop offset="1" stop-color="#586862"/></linearGradient><linearGradient x1="247.00007" y1="102.85214" x2="247.00007" y2="278.58811" gradientUnits="userSpaceOnUse" id="color-4"><stop offset="0" stop-color="#89a49a"/><stop offset="1" stop-color="#586862"/></linearGradient><linearGradient x1="247.00007" y1="102.85214" x2="247.00007" y2="278.58811" gradientUnits="userSpaceOnUse" id="color-5"><stop offset="0" stop-color="#89a49a"/><stop offset="1" stop-color="#586862"/></linearGradient><linearGradient x1="247.00007" y1="102.85214" x2="247.00007" y2="278.58811" gradientUnits="userSpaceOnUse" id="color-6"><stop offset="0" stop-color="#89a49a"/><stop offset="1" stop-color="#586862"/></linearGradient><linearGradient x1="247.00007" y1="102.85214" x2="247.00007" y2="278.58811" gradientUnits="userSpaceOnUse" id="color-7"><stop offset="0" stop-color="#89a49a"/><stop offset="1" stop-color="#586862"/></linearGradient><linearGradient x1="247.00007" y1="102.85214" x2="247.00007" y2="278.58811" gradientUnits="userSpaceOnUse" id="color-8"><stop offset="0" stop-color="#89a49a"/><stop offset="1" stop-color="#586862"/></linearGradient><linearGradient x1="207.12047" y1="138.04463" x2="207.12047" y2="172.37933" gradientUnits="userSpaceOnUse" id="color-9"><stop offset="0" stop-color="#a58989"/><stop offset="1" stop-color="#a2a2a2"/></linearGradient><linearGradient x1="270.76455" y1="135.79955" x2="270.76455" y2="176.97722" gradientUnits="userSpaceOnUse" id="color-10"><stop offset="0" stop-color="#a58989"/><stop offset="1" stop-color="#a2a2a2"/></linearGradient></defs><g transform="translate(-169.10681,-23.7452)"><g data-paper-data="{&quot;isPaintingLayer&quot;:true}" fill-rule="nonzero" stroke="none" stroke-linecap="butt" stroke-linejoin="miter" stroke-miterlimit="10" stroke-dasharray="" stroke-dashoffset="0" style="mix-blend-mode: normal"><g stroke-width="0.5"><path d="M230.78791,63.89796c0,-1.03031 1.03031,-1.0303 1.03031,-1.0303l1.89327,0.70449c0.56026,1.81755 2.14557,2.77422 3.1044,4.36329c1.1581,1.91932 1.89012,4.19601 2.5451,6.3535c1.93993,8.26914 1.98509,17.55217 -0.19683,25.81092c-0.80615,3.05134 -2.28835,9.08208 -6.24282,5.73897c0,0 -0.72854,-0.72854 0,-1.45708c0.72854,-0.72854 1.45708,0 1.45708,0c1.31866,1.99543 3.06585,-5.64201 3.2839,-6.74309c1.47327,-7.44007 1.433,-15.45283 -0.2913,-22.8148c-1.25233,-4.11872 -4.26806,-6.77102 -5.6144,-10.60008l0.06161,0.7045c0,0 -1.03031,0 -1.03031,-1.03031z" fill="#000000"/><g><g fill="url(#color-1)"><path d="M235.93131,38.34452c1.60947,-0.5551 3.39001,-0.78639 5.24337,-0.80699c0.21481,3.53233 -0.03504,7.34646 -0.03635,10.56736v1.16667c0,0 0,1.25 1.25,1.25c1.25,0 1.25,-1.25 1.25,-1.25v-1.16667c-0.00127,-3.24238 0.1953,-6.96152 0.00614,-10.4826c3.92376,0.29417 7.97467,1.27676 11.28502,1.94878c3.93926,1.30582 7.19987,2.85681 7.91776,6.704c-4.96608,0.78716 -9.84638,2.08649 -14.95891,2.07982h-0.16667c0,0 -1.25,0 -1.25,1.25c0,1.25 1.25,1.25 1.25,1.25h0.16667c5.16676,-0.00628 10.09749,-1.32596 15.11189,-2.10624c0.00361,1.2085 -0.05432,2.86181 -0.71185,3.62156c-1.49848,1.73147 -3.88507,2.18988 -5.92523,2.86077c-3.73576,1.22847 -7.46384,2.61179 -11.0414,4.23794c-0.7807,0.35553 -1.5634,0.69736 -2.34814,1.02554c-0.00648,-0.00566 -0.01295,-0.01132 -0.01944,-0.01697c0.03403,-0.03759 0.06768,-0.07838 0.10084,-0.12259c0.75,-1 -0.25,-1.75 -0.25,-1.75c-1.59896,-1.16724 -2.70611,-1.44681 -4.59727,-1.9073l-2.48606,-0.00937c0,0 -1.25,0 -1.25,1.25c0,1.25 1.25,1.25 1.25,1.25l2.1806,-0.00937c0.69407,0.17918 1.22752,0.29898 1.72734,0.47808c-0.5687,0.93155 0.34206,1.61462 0.34206,1.61462c0.12095,0.09034 0.24054,0.18161 0.35886,0.27376c-5.30948,2.00231 -10.71207,3.38911 -16.21489,4.17386c0.53362,-0.91789 1.03668,-1.84991 1.50876,-2.79134l0.54863,-1.09727c0,0 0.55902,-1.11803 -0.55902,-1.67705c-1.11803,-0.55902 -1.67705,0.55902 -1.67705,0.55902l-0.54863,1.09727c-0.72709,1.45872 -1.53551,2.89648 -2.42279,4.29183c-4.73648,0.47549 -9.54718,0.51297 -14.43655,0.12087c0.04946,-0.03996 0.07656,-0.06707 0.07656,-0.06707c3.04661,-3.04661 5.59779,-5.10662 9.66555,-6.6527l1.11723,0.01882c0,0 1.25,0 1.25,-1.25c0,-1.25 -1.25,-1.25 -1.25,-1.25l-1.54943,0.01882c-4.61631,1.61198 -7.58975,3.93592 -11.00112,7.3473c0,0 -0.65531,0.65531 -0.27317,1.40168c-6.58171,-1.65162 -17.91377,-5.71839 -14.53428,-12.99577c2.71544,1.17946 5.42571,2.38028 8.00881,3.81427l-0.10923,0.19419l2.15943,1.21468c0.18551,0.109 0.40162,0.1715 0.63233,0.1715c0.69036,0 1.25,-0.55964 1.25,-1.25c0,-0.41416 -0.20142,-0.78127 -0.51164,-1.00873l-0.56064,-0.42048c0.46524,-0.06622 0.84796,-0.38861 1.00078,-0.81977l0.9976,0.39904c0.15061,0.06433 0.31643,0.09993 0.49056,0.09993c0.69036,0 1.25,-0.55964 1.25,-1.25c0,-0.44077 -0.22813,-0.82825 -0.57276,-1.05082l-2.06399,-1.376l-0.16228,0.24342c-0.58248,-0.52975 -1.18758,-1.03906 -1.81176,-1.52992c0.13388,-0.21213 0.25471,-0.39533 0.36079,-0.53668c0,0 0.75,-1 -0.25,-1.75c-1,-0.75 -1.75,0.25 -1.75,0.25c-0.05065,0.06758 -0.20979,0.25949 -0.42246,0.52405c-0.64353,-0.44182 -1.30155,-0.86818 -1.9708,-1.28094c1.32014,-0.75535 2.67634,-1.42362 4.06758,-2.03548c4.93468,1.41109 9.77724,3.1033 14.62773,4.94759l1.8765,0.74589c0.14996,0.06367 0.31493,0.09889 0.48812,0.09889c0.69036,0 1.25,-0.55964 1.25,-1.25c0,-0.51134 -0.30704,-0.95097 -0.74681,-1.14459l-2.24005,-1.04535l-0.06317,0.13537c-0.3276,-0.12439 -0.65537,-0.24856 -0.98335,-0.37241c-2.52565,-1.49618 -5.2228,-2.52394 -8.16001,-3.77313c-0.29443,-0.12522 -0.58903,-0.24983 -0.88381,-0.37385c8.70579,-3.12025 18.06113,-5.07433 27.28571,-5.38592c-0.36808,2.36122 -0.69914,4.90353 -0.69914,7.14048l-0.30538,1.18289c0,0 -0.30317,1.21268 0.90951,1.51585c1.21268,0.30317 1.51585,-0.90951 1.51585,-0.90951l0.36129,-1.48377c0,-2.13232 0.2887,-4.50345 0.63449,-6.74832z" data-paper-data="{&quot;noHover&quot;:false,&quot;origItem&quot;:[&quot;Path&quot;,{&quot;applyMatrix&quot;:true,&quot;segments&quot;:[[[235.78849,68.73716],[0.23717,0.71151],[-0.01582,-0.04746]],[[235.7532,68.60103],[0.00787,0.04331],[-7.7352,0.19316]],[[213.0525,73.4201],[7.15525,-2.86262],[-1.82816,0.73062]],[[207.80957,76.0191],[1.66696,-1.04875],[-0.48151,0.30294]],[[205.56681,77.58945],[0.39686,-0.47024],[-5.89864,6.98912]],[[216.27705,89.09149],[-4.78467,-1.0375],[9.87272,0.81203]],[[244.5552,84.19651],[-9.06055,4.12615],[2.60424,-1.18375]],[[252.58951,81.12441],[-2.7194,0.89425],[1.48511,-0.48837]],[[256.90244,79.04676],[-1.0908,1.2604],[0.59812,-0.69112]],[[257.41667,75.83332],[0.00074,0.82143],[-0.00338,-3.71266]],[[251.54975,69.75015],[3.25121,1.07774],[-4.08632,-0.82955]],[[237.73717,68.87817],[4.10659,-1.41635],[0,0]],[236.73717,69.2115]],&quot;closed&quot;:true}]}"/></g><path d="M227.30048,26.68319c-0.84285,0.59257 -1.43541,-0.25028 -1.43541,-0.25028l-0.47884,-0.87021c-1.28226,0.06877 -2.32385,0.969 -3.24257,1.99237c3.24855,3.54174 4.46371,11.30958 4.92051,15.08135c0.40786,3.36779 2.4873,5.08145 0.80295,8.47397c0,0 -0.48888,0.90695 -1.3958,0.41807c-0.90695,-0.48888 -0.41807,-1.39581 -0.41807,-1.39581c1.20424,-1.98645 0.03678,-3.57409 -0.60349,-5.75092c-1.1824,-4.02004 -2.02658,-8.29653 -3.2402,-12.41388c-0.19504,-0.66174 -0.58664,-1.67064 -1.10826,-2.53291c-0.11372,0.10842 -0.25403,0.19237 -0.41487,0.24055c-0.5451,0.16327 -1.11934,-0.14626 -1.28261,-0.69137l-0.36176,-1.20781c-0.01724,0.0007 -0.03451,0.00177 -0.0518,0.00324c-0.40945,0.08779 -0.84359,0.34845 -1.03981,0.71953l-0.03838,1.24844c-0.00324,0.44046 -0.29094,0.84608 -0.73493,0.97906c-0.5451,0.16327 -1.11934,-0.14626 -1.28261,-0.69136l-0.39417,-1.31598l0.0656,-0.01965c-0.04646,-0.12231 -0.08195,-0.24878 -0.10359,-0.38055c-0.27663,-1.68393 3.27806,-3.83613 4.62898,-3.16945c0.25289,0.1248 0.3987,0.35409 0.50141,0.62539c1.19287,-1.38812 4.68664,-2.08667 5.77123,-2.02615l1.1868,1.49897c0,0 0.59256,0.84285 -0.25028,1.43541z" fill="#000000"/></g></g><path d="M196.54697,103.65671c28.63167,0 57.21742,-4.00579 85.70989,-4.03343c4.62386,0 17.01049,-3.03715 20.48353,-1.15713c0.8546,0.46261 1.44553,1.2536 1.84752,2.24264c-0.93171,0.09955 -1.60561,0.77345 -1.60561,0.77345c-1.86328,1.88335 -3.54496,3.97574 -5.15075,6.15588c-0.56448,0.41789 -0.84379,1.03697 -0.94245,1.29979c-0.10472,0.14648 -0.2092,0.29324 -0.31347,0.44025c-3.49923,3.24567 -6.98802,6.50483 -10.52425,9.70345l-2.57906,1.51959c0,0 -2.1488,1.27775 -0.87105,3.42655c0.97877,1.64602 2.46867,1.2814 3.1123,1.02066c0.0476,0.5244 0.29848,1.09644 0.94595,1.63037c1.92877,1.59054 3.51932,-0.33823 3.51932,-0.33823l1.07582,-1.30459c0.07308,-0.0297 0.11373,-0.05003 0.11373,-0.05003l1.3052,-0.65281c-0.11313,0.4245 -0.22621,0.84897 -0.33929,1.2734l-0.08423,1.14348c0,0 0,2.5 2.5,2.5c2.5,0 2.5,-2.5 2.5,-2.5l-0.08423,0.14348c0.05597,-0.21014 0.11193,-0.4203 0.1679,-0.63046l3.32154,-2.8017c0.97672,-0.90884 1.97154,-1.83876 2.96967,-2.78816c0.4912,-0.27134 0.98434,-0.54533 1.47731,-0.82285c0.13049,12.62521 0.75757,25.93707 3.45936,37.93377c1.84967,14.91633 4.18935,30.10968 5.57099,45.22633c-3.21169,0.18139 -6.09412,2.70117 -8.38255,4.9896c-0.19072,0.19072 -0.82533,2.90958 -1.37466,5.40242c-0.56243,1.25051 -0.87534,2.6375 -0.87534,4.09758c0,0.04481 0.00029,0.08956 0.00088,0.13424c-1.63245,1.45937 -3.16875,3.05715 -4.62018,4.72209c-0.54369,0.39554 -1.08486,0.79844 -1.62347,1.21004l-3.52637,2.69814c0,0 -1.90764,1.45959 -0.55249,3.38726c-0.15531,0.21563 -0.30953,0.43072 -0.46268,0.64513l-0.24472,0.78186c-0.13085,0.18204 -0.26124,0.36422 -0.39119,0.54647c-0.08499,0.09507 -0.16993,0.19018 -0.25481,0.28535c-2.68099,1.23349 -4.7228,3.61823 -5.49202,6.52085l-1.22666,2.03233c0,0 -0.22275,0.37125 -0.32836,0.89746c-2.14193,1.48287 -4.88569,2.41348 -5.79181,5.13185c-0.35827,1.0748 0.37153,2.26623 0.23385,3.39077c-0.1314,1.07325 -1.10017,1.99862 -1.02578,3.07733c0.04694,0.68074 1.08334,0.91323 1.34446,1.54364c0.26112,0.63041 -0.30732,1.52765 0.14084,2.0422c0.71015,0.81536 2.04952,0.78468 2.90133,1.45066c0.89253,0.69781 1.21895,2.05633 2.23229,2.563c1.7165,0.85825 5.38243,0.26866 7.24863,-0.10458c6.32133,-1.26427 13.93743,-9.07543 16.88253,-13.98394c1.05153,-1.75254 -0.006,-1.98006 0.21729,-3.87805c0.1448,-1.2308 3.77904,-5.28718 5.71616,-7.31507c-0.33652,8.41539 -0.61322,16.86245 0.75564,24.9385c0.10789,0.97089 1.11647,8.62723 0.54044,9.46501c-2.83857,4.12832 -15.35419,3.12513 -19.29587,3.12513c-17.47901,0 -34.93815,-0.52839 -52.43428,-0.50419c-16.96551,0 -33.53759,2.00623 -50.56396,1.00432c-4.35631,-0.25633 -16.03439,1.05334 -19.37142,-2.28373c-2.0249,-2.0249 -1.77715,-8.58083 -1.77849,-11.28652c-0.70056,-5.60451 -1.21673,-11.24644 -1.59538,-16.91191c3.15231,0.2551 6.22611,0.59626 9.30048,0.84496c0.27166,0.67942 1.01617,1.88869 2.80543,1.53084c0.98332,-0.19666 1.49332,-0.70887 1.75152,-1.25183c2.19712,0.08104 4.41418,0.07108 6.6795,-0.09382l4.26399,-1.20156c0,0 2.40424,-0.68529 1.71895,-3.08953c-0.43564,-1.52835 -1.5659,-1.80822 -2.33161,-1.80929c-0.71147,-0.50542 -1.57263,-0.50542 -1.57263,-0.50542l-4.28194,0.00953c-0.34428,-0.06175 -0.68845,-0.12485 -1.03252,-0.18919l-0.41949,-1.87629c-0.01036,-0.01346 -0.02073,-0.02691 -0.0311,-0.04035c0.14718,-0.05269 0.29959,-0.12075 0.45717,-0.20623c2.19746,-1.19212 1.00534,-3.38959 1.00534,-3.38959l-0.58022,-1.06954c-0.41657,-0.75908 -0.85023,-1.48581 -1.30127,-2.18268c0.267,-0.52301 0.36099,-1.22032 -0.04561,-2.1023c-0.66975,-1.45281 -1.84058,-1.54739 -2.59696,-1.42712c-3.61611,-4.18328 -8.11258,-7.11807 -13.58481,-9.6593c-0.39384,-0.18289 -0.78138,-0.38489 -1.16723,-0.59215c-0.10324,-11.40401 0.03238,-22.81009 0.03238,-34.10729c0.02537,-16.68553 -0.01546,-34.1196 -1.09701,-51.17518c0.09039,0.00769 0.14327,0.00769 0.14327,0.00769l2.95309,-0.46567c1.51795,-1.09642 2.91492,-2.26731 4.19108,-3.51668c0.22261,0.04221 0.43251,0.04745 0.62871,0.02552c2.70724,1.2651 5.44043,2.70604 7.72711,4.45683l2.38197,1.23607c0,0 2.23607,1.11803 3.35411,-1.11804c0.59293,-1.18585 0.24251,-2.05725 -0.21743,-2.61421c0.57056,0.4132 1.90984,1.10322 3.24912,-0.23606c1.76776,-1.76776 0,-3.53553 0,-3.53553l-0.98153,-0.87597c-0.29478,-0.17682 -0.58989,-0.35072 -0.88533,-0.52183c-0.00749,-0.02688 -0.01507,-0.05282 -0.02266,-0.07773c0.12176,-0.4233 0.12176,-0.75671 0.12176,-0.75671l-1.38197,-2.73607c-2.41671,-1.20664 -4.66235,-2.42374 -6.91548,-3.5474c0.04283,-0.10031 0.08522,-0.20095 0.12715,-0.30192c0.04253,-0.09712 0.08258,-0.19511 0.12042,-0.29388c0.57025,-1.41074 1.0543,-2.88491 1.45225,-4.42496c0.08585,-0.14471 0.17153,-0.29007 0.25708,-0.43609c0,0 1.25968,-2.15945 -0.89977,-3.41913c-0.45303,-0.26427 -0.86647,-0.37806 -1.23698,-0.39287c-0.13751,-0.19366 -0.31439,-0.37498 -0.54169,-0.52651c4.57815,-0.75369 9.15881,-1.50802 13.8159,-1.51447z" fill="url(#color-2)" stroke-width="0.5"/><path d="" fill="url(#color-3)" stroke-width="0.5"/><path d="" fill="url(#color-4)" stroke-width="0.5"/><path d="" fill="url(#color-5)" stroke-width="0.5"/><path d="" fill="url(#color-6)" stroke-width="0.5"/><path d="" fill="url(#color-7)" stroke-width="0.5"/><path d="" fill="url(#color-8)" stroke-width="0.5"/><path d="M210.43184,171.3454c-15.75203,3.23311 -30.00413,-1.36913 -31.83298,-10.27939c-1.82884,-8.91022 9.45819,-18.75435 25.21021,-21.98746c15.75203,-3.23311 30.00412,1.36913 31.83298,10.27938c1.82884,8.91022 -9.45819,18.75436 -25.21022,21.98747z" fill="url(#color-9)" stroke-width="0"/><path d="M245.79895,141.40614c4.68049,-7.79935 19.65228,-7.41418 33.44045,0.86028c13.78812,8.27448 21.17131,21.30488 16.49083,29.10423c-4.68049,7.79935 -19.6523,7.41417 -33.44046,-0.86029c-13.78812,-8.27448 -21.17131,-21.30491 -16.49081,-29.10422z" data-paper-data="{&quot;index&quot;:null}" fill="url(#color-10)" stroke-width="0"/><g stroke-width="0.5"><path d="M218.95996,206.39173c-0.51521,-0.9433 -1.61097,-0.58301 -1.61097,-0.58301c-0.5058,0.20125 -0.94717,0.43443 -1.33265,0.69521c-5.50902,0.21357 -11.02534,0.38713 -16.54907,0.43066c0.72356,-1.92352 1.51142,-3.85878 2.452,-5.87342c1.13678,-2.43487 5.12699,-4.6815 6.67115,-7.28123c0.53435,-0.89963 0.41748,-2.13172 0.84248,-3.06554c0.12557,0.03352 0.26794,0.05241 0.42928,0.05241c0.64532,0 0.9873,-0.30664 1.16787,-0.62822c3.52743,-0.09768 6.86261,-0.60652 10.40693,-0.60652c1.68358,-0.00063 3.37192,-0.03759 5.05311,-0.08183c0.42955,0.14309 0.76648,0.09372 1.02236,-0.03228c12.39449,-0.38093 24.89824,-1.70728 37.3254,-1.70728c0,0 0.49185,0.00008 0.88612,-0.29459c1.19586,0.92029 2.53213,1.33276 3.62813,2.33859c0.81988,0.75242 0.41644,2.22739 0.9226,3.21841c0.56592,1.10805 0.90258,2.53074 1.96001,3.18638c0.91296,0.56606 2.46746,-1.07477 3.20891,-0.29748c1.49108,1.56317 -1.80229,3.58566 -1.61939,4.52296c0.4525,2.31897 2.68142,2.88228 4.15407,4.11278c0.12023,0.10046 0.24061,0.20217 0.36131,0.30403c-0.31214,0.10405 -0.62448,0.20918 -0.93662,0.31323c-2.79271,0.00671 -5.58761,0.05136 -8.383,0.10732c-0.29392,-0.13727 -0.70503,-0.22064 -1.14067,0.02463c-3.72707,0.08015 -7.46267,0.19992 -11.1979,0.29171c-0.26504,-0.29811 -0.71429,-0.56584 -1.41405,-0.33259c-0.28208,0.09403 -0.48399,0.23172 -0.62497,0.38523c-1.74739,0.04001 -32.66771,0.68019 -35.68244,0.80044z" data-paper-data="{&quot;noHover&quot;:false,&quot;origItem&quot;:[&quot;Path&quot;,{&quot;applyMatrix&quot;:true,&quot;segments&quot;:[[[356.75973,178.18604],[-6.06131,0.94539],[6.46661,-1.00861]],[[372.09951,190.77453],[2.68762,-6.97508],[1.91588,-0.02956]],[[377.84298,190.66232],[-1.91317,0.0438],[0.15435,-0.16808]],[[378.52566,190.24364],[-0.30885,0.10295],[0.76615,-0.25538]],[[380.07315,190.60926],[-0.29019,-0.3264],[4.08961,-0.1005]],[[392.32763,190.30561],[-4.08068,0.08776],[0.47697,-0.26854]],[[393.57625,190.27966],[-0.3218,-0.1503],[3.06061,-0.06127]],[[402.75327,190.16777],[-3.05767,0.00734],[0.34175,-0.11392]],[[403.77851,189.82603],[-0.34175,0.11392],[-0.13215,-0.11153]],[[403.38281,189.49372],[0.13163,0.10999],[-1.61236,-1.34725]],[[398.83333,185],[0.49543,2.53899],[-0.20025,-1.02623]],[[400.60601,180.06066],[1.63255,1.71148],[-0.81179,-0.85104]],[[397.09264,180.38582],[0.99958,0.61976],[-1.15776,-0.71784]],[[394.94751,176.90736],[0.61962,1.21317],[-0.55418,-1.08505]],[[393.93934,173.39399],[0.89766,0.82381],[-1.19999,-1.10126]],[[389.97016,170.84405],[1.30932,1.0076],[-0.43169,0.32262]],[[389,171.16667],[0,0],[-13.60621,0]],[[348.30986,173.05794],[13.57044,-0.41707],[-0.28015,0.13795]],[[347.19275,173.08983],[0.47031,0.15666],[-1.84069,0.04843]],[[341.66693,173.16667],[1.84331,-0.00069],[-3.88059,0]],[[330.27798,173.81511],[3.8621,-0.10695],[-0.1977,0.35209]],[[329,174.5],[0.70654,0],[-0.17664,0]],[[328.53003,174.44249],[0.13749,0.0367],[-0.46532,1.02241]],[[327.60931,177.7886],[0.58505,-0.98499],[-1.69066,2.84638]],[[320.3053,185.73905],[1.24463,-2.66588],[-1.02982,2.20578]],[[317.61828,192.15616],[0.79221,-2.10602],[6.0478,-0.04766]],[[335.73301,191.67092],[-6.03169,0.23384],[0.42206,-0.28552]],[[337.19233,190.91031],[-0.55379,0.22034],[0,0]],[[338.95408,191.54388],[-0.56409,-1.03279],[3.30075,-0.13166]],[[348.85607,191.16268],[-3.30107,0.11559],[0.20311,-5.21504]]],&quot;closed&quot;:true}]}" fill="#4b3232"/><path d="M257.95216,189.74221c2.08522,0.27169 4.37597,-0.50522 6.65427,-1.26336c1.4221,-1.09571 1.62602,2.63721 2.29928,4.72584c-3.78983,0.02009 -7.74015,0.16461 -11.51882,0.35899l0.02605,-0.05426c0.95386,-1.44087 1.83056,-2.45912 2.53922,-3.76721z" data-paper-data="{&quot;noHover&quot;:false,&quot;origItem&quot;:[&quot;Path&quot;,{&quot;applyMatrix&quot;:true,&quot;segments&quot;:[[[375.58141,168.49872],[1.04436,-1.57757],[0,0]],[[375.55263,168.55757],[0,0],[4.13718,-0.21282]],[[387.98039,168.16939],[-4.14939,0.022],[-0.73713,-2.2868]],[[385.47434,163.08969],[1.55702,-1.19966],[-2.49445,0.83007]],[[378.36411,164.44997],[2.28306,0.29747],[-0.7759,1.4322]]],&quot;closed&quot;:true}]}" fill="#707070"/><path d="M250.41626,196.86759c-1.51194,0.08766 -3.09748,0.1612 -4.60883,0.25635c0.77874,-2.46463 1.55459,-5.63321 1.74144,-8.27911c1.29866,-0.48361 2.5329,-0.98456 2.54449,-0.97805c1.25142,0.70306 1.5813,2.57398 2.69779,3.47608c0.25559,0.20651 0.51573,0.40694 0.77123,0.5671c-0.62169,1.07337 -1.4954,2.00642 -2.29829,3.20332l-0.72246,1.37635c0,0 -0.08047,0.15346 -0.12536,0.37796z" data-paper-data="{&quot;noHover&quot;:false,&quot;origItem&quot;:[&quot;Path&quot;,{&quot;applyMatrix&quot;:true,&quot;segments&quot;:[[372.32503,168.32918],[[373.08526,166.83462],[0,0],[0.87907,-1.31046]],[[375.55494,163.42781],[-0.68067,1.17521],[-0.27974,-0.17536]],[[374.71568,162.82668],[0.27984,0.22611],[-1.22242,-0.98769]],[[371.84653,159.08548],[1.37015,0.76976],[-0.01268,-0.00712]],[[369.11986,160.14328],[1.42187,-0.52949],[-0.20457,2.89694]],[[367.22723,169.04464],[0.85263,-2.69847],[1.65474,-0.10417]],[[372.1923,168.74212],[-1.65539,0.09597],[0.04915,-0.2458]]],&quot;closed&quot;:true}]}" fill="#707070"/><path d="M240.62874,197.89809c-1.53102,0.09682 -3.14056,0.18533 -4.67178,0.27585l-0.01516,-1.72836c0,-2.78571 0.08326,-5.45107 -0.44672,-8.12817c2.09969,0.71531 4.68407,2.07072 6.51262,2.06244c0.09017,-0.00041 0.20802,-0.01126 0.34314,-0.03655c-0.27132,2.28462 -1.00442,4.96483 -1.67305,6.90348z" data-paper-data="{&quot;noHover&quot;:false,&quot;origItem&quot;:[&quot;Path&quot;,{&quot;applyMatrix&quot;:true,&quot;segments&quot;:[[[364.24364,168.52566],[0,0],[0.73207,-2.12258]],[[366.03932,161.12321],[-0.29707,2.50138],[-0.14794,0.02769]],[[365.66667,161.16667],[0.09873,-0.00045],[-2.00204,0.00906]],[[358.66654,158.92276],[2.2989,0.78317],[0.58026,2.9311]],[[359.16667,167.66667],[0,-3.05001],[0,0]],[[359.16667,169.54654],[0,0],[1.6765,-0.09911]],[[364.19569,169.23645],[-1.67628,0.10601],[0,0]]],&quot;closed&quot;:true}]}" fill="#707070"/><path d="M231.82295,198.82203c-1.94395,0.10485 -3.97628,0.21177 -5.92198,0.28204l0.03017,-0.09322c-0.04071,-2.4202 -0.80035,-4.21712 -2.23155,-5.45127c0.69332,-0.26282 1.4114,-0.6173 2.13374,-1.02814c1.41651,-0.80565 3.77108,-3.46939 5.39259,-4.03085c0.00965,0.06868 0.02074,0.10983 0.02074,0.10983c0.70357,2.76277 0.58949,5.47785 0.58949,8.32412l-0.01469,1.84172c0,0 -0.0003,0.01661 0.00149,0.04577z" data-paper-data="{&quot;noHover&quot;:false,&quot;origItem&quot;:[&quot;Path&quot;,{&quot;applyMatrix&quot;:true,&quot;segments&quot;:[[356.16667,169.66667],[[356.16667,167.66667],[0,0],[0,-3.11632]],[[355.54479,158.69714],[0.77032,3.02489],[0,0]],[[355.52313,158.57757],[0.01056,0.07519],[-1.77535,0.61473]],[[349.75727,162.96148],[1.5509,-0.88209],[-0.79088,0.44982]],[[347.43705,164.03852],[0.7591,-0.28776],[1.56698,1.35125]],[[349.81396,169.90694],[-0.04457,-2.64982],[0,0]],[[349.78088,170.00899],[0,0],[2.1303,-0.07693]],[[356.16863,169.71651],[-2.12838,0.11479],[-0.00196,-0.03192]]],&quot;closed&quot;:true}]}" fill="#707070"/><path d="M220.71363,193.88349c-1.50684,0.03601 -3.0478,0.10202 -4.55655,0.1025c-2.61873,0 -5.24443,0.22732 -7.77993,0.40771c2.23414,-1.18306 4.85914,-2.31369 6.69363,-3.53669c1.02199,-0.68318 2.05023,-1.09472 3.03012,-1.45497c1.70587,0.64386 2.89785,1.81929 2.82879,3.853z" data-paper-data="{&quot;noHover&quot;:false,&quot;origItem&quot;:[&quot;Path&quot;,{&quot;applyMatrix&quot;:true,&quot;segments&quot;:[[[346.8527,169.42639],[0,0],[0.07561,-2.22666]],[[343.7724,165.2876],[1.86772,0.70494],[-1.07286,0.39443]],[[340.49872,166.91474],[1.11895,-0.748],[-2.00854,1.33903]],[[333.29996,170.65723],[2.44611,-1.29531],[2.77606,-0.19751]],[[341.66641,170.16667],[-2.86718,0],[1.6519,-0.00052]],[[346.61884,170.10446],[-1.64981,0.03943],[0,0]]],&quot;closed&quot;:true}]}" fill="#707070"/><path d="M209.02457,200.94671c0,2.29459 0.00017,4.99692 0.00017,7.17907c-2.34525,0.01189 -4.81497,0.01732 -7.14891,0.01929c0,-0.48467 -0.01421,-0.98758 -0.01421,-1.47224c0.64524,-1.93571 1.28718,-3.89114 1.91203,-5.6798c1.71693,-0.00809 3.53605,-0.01281 5.25092,-0.04631z" data-paper-data="{&quot;noHover&quot;:false,&quot;origItem&quot;:[&quot;Path&quot;,{&quot;applyMatrix&quot;:true,&quot;segments&quot;:[[[316.53071,195.16302],[1.87982,-0.00886],[-0.68413,1.95836]],[[314.48063,201.24027],[0.70646,-2.11937],[0,0.53065]],[[314.48063,202.83224],[0,-0.53065],[2.55537,-0.00215]],[[322.16667,202.81131],[-2.56776,0.01302],[0,-2.38918]],[[322.16667,195.09283],[0,2.5123],[-1.87757,0.03668]]],&quot;closed&quot;:true}]}" fill="#707070"/><path d="M212.21423,200.13969c2.51424,-0.06486 5.15958,-0.15562 7.67127,-0.24892c-0.5585,1.65199 -0.52394,3.75062 -0.52394,5.81715l0.97983,1.55192c-2.66533,0.04513 -5.46511,0.07609 -8.12509,0.09599l-0.00359,-0.42361c0,-2.22514 0.00153,-4.56739 0.00153,-6.79253z" data-paper-data="{&quot;noHover&quot;:false,&quot;origItem&quot;:[&quot;Path&quot;,{&quot;applyMatrix&quot;:true,&quot;segments&quot;:[[[325.16667,202.33333],[0,-2.43626],[0,0]],[[325.16667,202.79259],[0,0],[2.91235,-0.02178]],[[333.91446,202.68847],[-2.91821,0.04941],[0,0]],[[332.83333,201],[0,0],[0,-2.2626]],[[333.42038,194.75884],[-0.61149,1.80873],[-2.74998,0.10215]],[[325.16667,195.02455],[2.75278,-0.07102],[0,2.43626]]],&quot;closed&quot;:true}]}" fill="#707070"/><path d="M240.54269,203.40978c-0.30558,-1.13583 -0.04263,-2.28636 0.87897,-3.35018c2.29765,-0.0503 4.71751,-0.10364 7.01795,-0.10844c0.08822,0.13089 0.16883,0.21002 0.16883,0.21002c1.59106,1.47857 2.45196,4.68027 3.17052,6.9542c-0.0051,-0.00006 -0.16613,-0.09526 -0.17122,-0.09532l0.07117,-0.15198c0,0 -0.09217,0.09363 -0.1898,0.24601c-1.66678,-0.01771 -3.40423,0.00867 -5.0747,0.00961c-1.24194,0.09158 -2.55712,0.1517 -3.80344,0.23007l-0.33336,-0.94649c0.00052,-0.04762 -0.00026,-0.09714 0.00026,-0.14476c0.0105,-0.07682 0.0139,-0.1623 0.0139,-0.24998c0,-0.0726 -0.00579,-0.14467 -0.01308,-0.20977c0.00371,-0.33712 -0.0006,-0.69333 0.00312,-1.03045c0,0 -0.00352,-1.4006 -1.37353,-1.4006c-0.13465,0 -0.2561,0.01418 -0.36558,0.03805z" data-paper-data="{&quot;noHover&quot;:false,&quot;origItem&quot;:[&quot;Path&quot;,{&quot;applyMatrix&quot;:true,&quot;segments&quot;:[[[356.33333,197.5],[-0.14742,0],[1.5,0]],[[357.83333,199],[0,0],[-0.00406,0.3691]],[[357.82115,200.1073],[0.00406,-0.3691],[0.00798,0.07128]],[[357.83333,200.33333],[0,-0.07948],[0,0.096]],[[357.81569,200.60331],[0.0115,-0.08411],[-0.00057,0.05214]],[[357.81396,200.75973],[0.00057,-0.05214],[0,0]],[[358.16643,201.78168],[0,0],[1.36456,-0.08581]],[[362.25313,201.50285],[-1.35977,0.10027],[1.82896,-0.00103]],[[367.73405,201.53791],[-1.82492,-0.01939],[0.10689,-0.16683]],[367.93934,201.27267],[[368.03341,201.54112],[0,0],[0.00558,0.00006]],[[368.05016,201.5413],[-0.00558,-0.00006],[-0.78673,-2.48967]],[[364.60601,194.06066],[1.74201,1.61885],[0,0]],[[364.42608,193.83402],[0.09659,0.14331],[-2.5187,0.00525]],[[356.87488,193.92906],[2.51565,-0.05507],[-1.00904,1.16475]],[[355.93311,197.54062],[-0.33457,-1.24359],[0.11987,-0.02613]]],&quot;closed&quot;:true}]}" fill="#707070"/><path d="M269.2607,205.69534c-2.81089,0.07154 -5.76316,0.08108 -8.58681,0.05402l0.16032,-0.34761c-0.7362,-2.19612 -1.48592,-4.82342 -2.71046,-6.85073c3.0533,-0.02341 6.24443,-0.0964 9.29009,-0.16697c0.84792,2.00768 1.87872,3.91612 1.85357,6.20138z" data-paper-data="{&quot;noHover&quot;:false,&quot;origItem&quot;:[&quot;Path&quot;,{&quot;applyMatrix&quot;:true,&quot;segments&quot;:[[[380.16667,200.33333],[0,0],[0.02754,-2.50207]],[[378.1574,193.65508],[0.92837,2.19816],[-3.33463,0.07727]],[[368.14142,193.82094],[3.34299,-0.02563],[1.34072,2.21965]],[[371.08969,201.19233],[-0.80605,-2.40448],[0,0]],[[370.91247,201.57151],[0,0],[3.09155,0.02963]],[[380.16667,201.53512],[-3.07758,0.07833],[0,0]]],&quot;closed&quot;:true}]}" fill="#707070"/><path d="M220.75194,200.17097c3.4036,-0.08584 6.94428,-0.2092 10.34113,-0.28159c1.66057,1.73283 3.17845,3.77735 3.94842,6.01848c-4.1311,0.87634 -8.44342,1.32786 -12.60914,1.52448l-0.00637,-1.01004c-0.02044,-2.36381 -0.84828,-4.26502 -1.67404,-6.25132z" data-paper-data="{&quot;noHover&quot;:false,&quot;origItem&quot;:[&quot;Path&quot;,{&quot;applyMatrix&quot;:true,&quot;segments&quot;:[[[383.16667,200.33333],[-0.02238,-2.58808],[0,0]],[[383.16667,201.42743],[0,0],[4.56095,-0.21527]],[[396.79434,199.78516],[-4.52304,0.95949],[-0.84303,-2.45376]],[[392.50214,193.30189],[1.81812,1.89724],[-3.71913,0.07926]],[[381.33428,193.57785],[3.72652,-0.09398],[0.9041,2.17476]]],&quot;closed&quot;:true}]}" fill="#707070"/></g><path d="" fill="#60726b" stroke-width="0.5"/></g></g></svg>