<svg version="1.1" xmlns="http://www.w3.org/2000/svg" xmlns:xlink="http://www.w3.org/1999/xlink" width="298.65399" height="261.71648" viewBox="0,0,298.65399,261.71648"><defs><linearGradient x1="240.85478" y1="67.89758" x2="240.85478" y2="80.73083" gradientUnits="userSpaceOnUse" id="color-1"><stop offset="0" stop-color="#35ff00"/><stop offset="1" stop-color="#1db300"/></linearGradient><linearGradient x1="240.85478" y1="67.89758" x2="240.85478" y2="80.73083" gradientUnits="userSpaceOnUse" id="color-2"><stop offset="0" stop-color="#00ff21"/><stop offset="1" stop-color="#00b317"/></linearGradient></defs><g transform="translate(-47.673,-62.50132)"><g data-paper-data="{&quot;isPaintingLayer&quot;:true}" fill-rule="nonzero" stroke-linejoin="miter" stroke-miterlimit="10" stroke-dasharray="" stroke-dashoffset="0" style="mix-blend-mode: normal"><g data-paper-data="{&quot;index&quot;:null}" stroke="#000000" stroke-width="1.5" stroke-linecap="round"><path d="M296.8045,94.02873l23.06833,13.45653l-5.60688,1.28158l28.67522,23.70912c0,0 -12.93408,3.70752 -19.65262,4.36879c-6.84252,0.67347 -21.51794,0.27691 -21.51794,0.27691c0,0 0.25841,-13.04871 -0.53626,-19.94433c-0.85612,-7.42892 -4.42984,-23.14859 -4.42984,-23.14859z" fill="#2650ff"/><path d="M323.92016,136.33682c-6.53265,0.82301 -22.46994,0.30429 -22.46994,0.30429l-4.48551,-29.15581l45.17548,24.02951c0,0 -11.22148,3.9403 -18.22004,4.822z" fill="#006bff"/></g><path d="M210.08367,260.06917c0,0 -39.45725,-3.35824 -64.73607,-37.02308c-25.37964,-33.79912 -37.9039,-97.61672 -52.3103,-115.21798c-16.282,-19.8928 -42.78133,-35.08736 -42.78133,-35.08736c0,0 42.62996,-2.21991 60.94221,1.7207c15.17347,3.2652 41.29578,20.27987 41.29578,20.27987l-5.17662,-12.94152c0,0 9.21935,5.68713 17.31416,14.80759c8.76672,9.87752 16.662,23.61414 22.29864,33.93988c4.63921,8.49856 10.40312,21.37723 15.97969,34.64569c4.56346,10.85798 -3.94003,14.85914 6.12425,30.19952c7.31399,11.14828 14.63822,22.29322 14.63822,22.29322z" fill="#2650ff" stroke="#000000" stroke-width="1.5" stroke-linecap="round"/><path d="M309.58635,164.04339c0,3.3022 3.67696,26.25143 7.22999,28.53556c10.19926,6.55678 28.65621,-11.02907 28.65621,-11.02907c0,0 -1.67906,30.07752 -23.4905,48.85944c-18.14864,15.62786 -54.72085,18.81457 -79.67833,18.53835c-101.21518,-1.1202 -94.19569,-69.0448 -94.19569,-69.0448c0,0 17.27723,13.36951 31.59655,0.34601c4.65435,-4.23315 5.35389,-12.03251 5.61141,-18.11249c0.58587,-13.83242 2.58759,-36.14087 12.80712,-45.96953c6.17545,-5.93926 42.14318,-4.50781 48.34572,-4.50781c34.85884,0 63.11753,23.45327 63.11753,52.38434z" fill="#383838" stroke="#000000" stroke-width="1.5" stroke-linecap="butt"/><path d="M290.21204,142.1554c0,0.3788 -0.23877,6.68928 -0.23877,6.68928l14.86063,-6.44945c0,0 -0.65325,6.75152 -2.16191,9.7145c-1.43311,2.81461 -6.67506,7.64113 -6.67506,7.64113c0,0 3.52987,-0.49015 5.37759,-1.32593c2.27481,-1.02896 7.25837,-4.38968 7.25837,-4.38968c0,0 -0.00779,12.66047 -17.74268,19.79373c-11.40492,4.58724 -42.50939,4.33517 -47.09339,4.33517c-6.03494,0 -23.15231,0.82643 -36.62321,-1.0128c-5.69393,-0.77741 -9.3766,-2.8081 -13.4969,-4.32081c-6.15321,-2.25905 -11.28118,-15.24224 -11.28118,-15.24224c0,0 15.34188,6.2672 13.13381,4.44486c-4.97281,-4.10411 -10.32805,-17.15789 -10.32805,-17.15789c0,0 7.03111,4.44916 10.0273,5.61177c2.24203,0.86998 6.35261,0.74415 6.35261,0.74415c0,0 -9.52623,-34.81463 3.95415,-52.26512c5.89924,-7.63663 16.9693,-4.49041 33.88602,-6.18229c8.95641,-0.89575 40.3989,-4.29801 47.12438,2.2565c10.32981,10.0672 3.6663,35.46575 3.6663,47.11511z" fill="#2650ff" stroke="#000000" stroke-width="1.5" stroke-linecap="butt"/><g stroke="#000000" stroke-width="1.5" stroke-linecap="round"><path d="M202.73512,96.39779c0,0 -3.57373,15.71967 -4.42985,23.14859c-0.79467,6.89562 -0.53626,19.94433 -0.53626,19.94433c0,0 -14.67542,0.39656 -21.51794,-0.27691c-6.71854,-0.66127 -19.65262,-4.36879 -19.65262,-4.36879l28.67522,-23.70912l-5.60689,-1.28158l23.06833,-13.45653z" fill="#2650ff"/><path d="M157.39943,133.88384l41.33076,-22.74794l-0.64078,27.87424c0,0 -15.93729,0.51872 -22.46994,-0.30429c-6.99855,-0.88171 -18.22004,-4.822 -18.22004,-4.822z" fill="#006bff"/></g><path d="M255.05908,149.21423c1.05604,0.99966 -7.60383,5.67264 -8.90341,5.41188c-1.56792,0.57408 -9.22806,-4.38498 -8.03054,-5.76103c0.88467,-1.01655 3.84659,-0.99274 6.98901,-0.93513c4.37025,0.08013 9.17116,0.55181 9.94494,1.28428z" fill="#006bff" stroke="#0043ff" stroke-width="1.5" stroke-linecap="round"/><path d="M297.27183,108.19845c0,3.27305 3.39905,6.46417 3.76924,9.49659c1.68373,13.79227 3.16637,24.30166 2.99149,24.30609c-16.76745,0.42421 -54.53154,-27.49467 -76.24286,-29.53113c-7.18949,-0.67436 -19.99839,-0.9463 -25.59385,-1.03659c-1.70698,-0.02754 -2.74265,-0.03819 -2.74265,-0.03819c0,0 2.18054,-14.07251 5.94446,-25.04338c1.23239,-3.5921 0.91825,-7.00611 3.0163,-9.28114c0.68857,-0.74666 3.02138,7.20173 3.79681,6.5624c8.4144,-6.93752 27.60835,-11.96931 38.10811,-11.96931c10.35698,0 32.92919,2.10968 43.49602,11.06074c10.28408,8.71154 8.7053,24.27094 8.7053,24.27094c0,0 -5.24838,-1.11017 -5.24838,1.20298z" fill="#383838" stroke="#000000" stroke-width="1.5" stroke-linecap="butt"/><g stroke="#000000" stroke-width="1.5" stroke-linecap="round"><path d="M239.57239,162.694c0,0 -3.29899,1.31403 -18.84001,-2.48354c-4.28699,-1.04756 -10.80954,-6.40739 -10.80954,-6.40739" fill="none"/><path d="M217.17424,159.03141c0,0 -2.90079,1.98088 -4.14014,3.14468c-1.14586,1.07601 -3.03751,3.59542 -3.03751,3.59542c0,0 -0.74221,-4.28984 -0.81786,-6.29442c-0.07342,-1.94544 0.37049,-5.56097 0.37049,-5.56097z" fill="#ffffff"/></g><path d="M205.3047,151.04732c0,0 -9.06753,-39.67472 19.90176,-41.46199c23.93312,-1.47655 19.81446,37.70859 19.81446,37.70859c0,0 -12.0759,3.14887 -18.44286,3.75059c-6.83811,0.64624 -21.27336,0.00282 -21.27336,0.00282z" fill="#000000" stroke="#000000" stroke-width="1.5" stroke-linecap="round"/><g stroke-linecap="butt"><path d="M226.9388,139.10563c0,-4.05492 1.81968,-7.34207 4.06437,-7.34207c2.24469,0 4.06437,3.28715 4.06437,7.34207c0,4.05492 -1.81968,7.34208 -4.06437,7.34208c-2.24469,0 -4.06437,-3.28716 -4.06437,-7.34208z" fill="#000ea2" stroke="#0017ff" stroke-width="2"/><path d="M232.79498,134.21091c0,0.72409 -0.4109,1.31108 -0.91776,1.31108c-0.50687,0 -0.91776,-0.587 -0.91776,-1.31108c0,-0.72409 0.41089,-1.31108 0.91776,-1.31108c0.50687,0 0.91776,0.58699 0.91776,1.31108z" fill="#ffffff" stroke="none" stroke-width="0"/></g><path d="M201.93042,265.48875c0,0 11.19629,-19.01337 14.07696,-33.39866c2.96194,-14.79109 6.2878,-53.6498 6.2878,-53.6498l49.49094,-0.423c0,0 2.46996,43.29564 4.98167,57.01858c2.87049,15.6832 14.13925,29.92908 14.13925,29.92908c0,0 -1.49358,1.88977 -7.24913,3.46629c-6.97258,1.90988 -19.59853,3.60065 -35.6526,4.01433c-15.43777,0.39781 -31.60507,-1.94403 -40.10119,-4.13475c-3.97862,-1.02588 -5.97371,-2.82208 -5.97371,-2.82208z" fill="#ff0000" stroke="#000000" stroke-width="1.5" stroke-linecap="round"/><path d="M288.17532,150.76079c0,0 -14.43525,0.64342 -21.27336,-0.00282c-6.36696,-0.60172 -18.44286,-3.75059 -18.44286,-3.75059c0,0 -4.11866,-39.18514 19.81446,-37.70859c28.96929,1.78727 19.90176,41.46199 19.90176,41.46199z" fill="#000000" stroke="#000000" stroke-width="1.5" stroke-linecap="round"/><g data-paper-data="{&quot;index&quot;:null}" stroke-linecap="butt"><path d="M258.70257,145.93392c-2.24469,0 -4.06437,-3.28716 -4.06437,-7.34208c0,-4.05492 1.81968,-7.34207 4.06437,-7.34207c2.24469,0 4.06437,3.28715 4.06437,7.34207c0,4.05492 -1.81968,7.34208 -4.06437,7.34208z" fill="#000ea2" stroke="#0017ff" stroke-width="2"/><path d="M257.82852,132.38604c0.50687,0 0.91776,0.58699 0.91776,1.31108c0,0.72408 -0.41089,1.31108 -0.91776,1.31108c-0.50686,0 -0.91776,-0.58699 -0.91776,-1.31108c0,-0.72409 0.41089,-1.31108 0.91776,-1.31108z" fill="#ffffff" stroke="none" stroke-width="0"/></g><path d="M203.01181,265.44791c0,0 4.10121,-7.59041 6.00494,-11.55098c2.06327,-4.29249 3.36174,-7.49949 3.36174,-7.49949c0,0 4.61335,19.02668 35.39146,18.02914c32.31601,-0.95546 30.67026,-20.33841 30.67026,-20.33841c0,0 1.97104,4.74614 4.02541,8.80408c2.20311,4.35174 7.36315,12.24138 7.36315,12.24138c0,0 -11.10199,5.53772 -41.17806,6.45632c-28.04158,0.85646 -45.63889,-6.14203 -45.63889,-6.14203z" fill="#8d0000" stroke="none" stroke-width="0" stroke-linecap="round"/><g data-paper-data="{&quot;index&quot;:null}" stroke-linecap="butt"><g data-paper-data="{&quot;origPos&quot;:null}"><path d="M211.78109,64.16046h75.83147v28.05766h-75.83147z" fill="#00ff08" stroke="#00e61e" stroke-width="3.31828"/><path d="M210.80859,86.20742h120.00162v10.61642h-120.00162z" fill="#00ff2d" stroke="#1ae600" stroke-width="2.84811"/></g><g data-paper-data="{&quot;origPos&quot;:null}"><path d="M249.97673,67.89758c2.51663,0 4.7975,0.71867 6.44847,1.87995c1.65097,1.16256 2.67349,2.76636 2.67349,4.53671c0,1.77026 -1.02252,3.37405 -2.67349,4.53671c-1.65097,1.16119 -3.93184,1.87986 -6.44847,1.87986c-2.51672,0 -4.79759,-0.71867 -6.44856,-1.87986c-1.65097,-1.16265 -2.6734,-2.76645 -2.6734,-4.53671c0,-1.77035 1.02243,-3.37414 2.6734,-4.53671c1.65097,-1.16128 3.93184,-1.87995 6.44856,-1.87995z" data-paper-data="{&quot;origPos&quot;:null}" fill="url(#color-1)" stroke="url(#color-2)" stroke-width="3.03547"/><path d="M248.22704,70.37093l5.58117,1.3569l-1.24382,5.11607l-5.58117,-1.3569z" data-paper-data="{&quot;origPos&quot;:null}" fill="none" stroke="#2900ff" stroke-width="3"/></g></g><path d="M219.50001,231.04178v-22.5h54.28226v22.5z" fill="#003aff" stroke="#000000" stroke-width="2.31561" stroke-linecap="butt"/><g><g fill="#0045ff" stroke="#000000" stroke-width="1"><path d="M246.36385,271.82192c3.63074,25.34461 -11.09539,48.42172 -32.89174,51.54416c-21.79635,3.12246 -42.40915,-14.89217 -46.03989,-40.23678c-3.63075,-25.34461 11.0954,-48.42173 32.89175,-51.54417c21.79635,-3.12245 42.40914,14.89219 46.03989,40.2368z" stroke-linecap="butt"/><path d="M185.25957,269.33565c0,0 -2.66396,-8.27943 -3.49502,-12.58215c-0.89153,-4.61594 -1.68547,-14.23983 -1.68547,-14.23983" stroke-linecap="round"/><path d="M211.51736,258.3486c0,0 -2.66399,-8.27941 -3.49503,-12.58215c-0.89152,-4.61594 -1.68543,-14.23984 -1.68543,-14.23984" stroke-linecap="round"/></g><path d="M187.34606,251.09505c-0.69157,-4.82756 2.66131,-9.30168 7.48885,-9.99326c4.82756,-0.69157 9.30169,2.6613 9.99327,7.48885c0.69157,4.82756 -2.6613,9.30169 -7.48885,9.99326c-4.82756,0.69157 -9.3017,-2.66131 -9.99327,-7.48885z" fill="#006bff" stroke="#4a004f" stroke-width="0" stroke-linecap="butt"/><path d="M213.57041,250.46045c-0.6224,-4.34478 2.39517,-8.37152 6.73997,-8.99392c4.34478,-0.6224 8.3715,2.39517 8.99391,6.73997c0.6224,4.34478 -2.39516,8.3715 -6.73995,8.99391c-4.34478,0.6224 -8.37151,-2.39516 -8.99392,-6.73995z" fill="#006bff" stroke="none" stroke-width="0" stroke-linecap="butt"/><path d="M170.11928,267.83556c-0.4841,-3.37927 1.86292,-6.51117 5.2422,-6.99528c3.37928,-0.4841 6.51118,1.86291 6.99529,5.24218c0.4841,3.37927 -1.86293,6.51117 -5.2422,6.99527c-3.37928,0.4841 -6.51117,-1.8629 -6.99529,-5.24218z" fill="#006bff" stroke="none" stroke-width="0" stroke-linecap="butt"/><path d="M184.92742,293.36757c-1.86726,-13.03437 7.18551,-25.11449 20.21988,-26.98176c13.03437,-1.86726 25.1145,7.18549 26.98176,20.21987c1.86726,13.03437 -7.1855,25.1145 -20.21987,26.98177c-13.03437,1.86726 -25.1145,-7.18551 -26.98177,-20.21988z" fill="#006bff" stroke="none" stroke-width="0" stroke-linecap="butt"/></g><g><g fill="#0045ff" stroke="#000000" stroke-width="1"><path d="M295.09291,231.18307c21.64452,4.0429 35.37993,27.72309 30.67886,52.89116c-4.70106,25.16806 -26.05844,42.29339 -47.70296,38.25047c-21.64452,-4.04289 -35.37992,-27.72308 -30.67886,-52.89115c4.70106,-25.16806 26.05842,-42.2934 47.70295,-38.25048z" stroke-linecap="butt"/><path d="M314.85669,242.95939c0,0 -1.20088,9.58163 -2.28714,14.15565c-1.01256,4.26364 -4.02484,12.42281 -4.02484,12.42281" stroke-linecap="round"/><path d="M289.08786,230.86987c0,0 -1.20087,9.58164 -2.28712,14.15566c-1.01256,4.26367 -4.02484,12.4228 -4.02484,12.4228" stroke-linecap="round"/></g><path d="M296.93126,258.28403c-4.7939,-0.89544 -7.95426,-5.50757 -7.05881,-10.30151c0.89543,-4.79392 5.50757,-7.95426 10.30151,-7.05881c4.7939,0.89544 7.95427,5.50757 7.05883,10.30151c-0.89543,4.79391 -5.50759,7.95427 -10.30152,7.05881z" fill="#006bff" stroke="#4a004f" stroke-width="0" stroke-linecap="butt"/><path d="M271.78749,255.83325c-4.31453,-0.8059 -7.15883,-4.95682 -6.35294,-9.27134c0.8059,-4.31453 4.95683,-7.15885 9.27135,-6.35295c4.31453,0.8059 7.15883,4.95683 6.35294,9.27135c-0.8059,4.31453 -4.95683,7.15882 -9.27135,6.35294z" fill="#006bff" stroke="none" stroke-width="0" stroke-linecap="butt"/><path d="M316.52392,273.62156c-3.35573,-0.62681 -5.56798,-3.85533 -4.94117,-7.21105c0.62681,-3.35573 3.85532,-5.56798 7.21105,-4.94117c3.35573,0.62681 5.56798,3.85532 4.94117,7.21105c-0.62681,3.35573 -3.85532,5.56797 -7.21104,4.94116z" fill="#006bff" stroke="none" stroke-width="0" stroke-linecap="butt"/><path d="M280.04458,312.621c-12.94359,-2.41771 -21.4765,-14.87044 -19.05881,-27.81404c2.41771,-12.94359 14.87046,-21.47648 27.81404,-19.0588c12.94359,2.41771 21.4765,14.87046 19.0588,27.81405c-2.41771,12.94359 -14.87046,21.47649 -27.81404,19.05879z" fill="#006bff" stroke="none" stroke-width="0" stroke-linecap="butt"/></g><g stroke-linecap="round"><path d="M220.83912,234.24744c0,0 0.74329,3.2607 0.27532,6.93359c-0.5404,4.24142 -2.69604,9.03253 -9.47686,9.9867c-0.97916,0.13778 -3.5347,0.07723 -4.37727,-0.05361c-9.28423,-1.44175 -8.93323,-17.72218 -8.93323,-17.72218z" fill="#0069ff" stroke="#000000" stroke-width="1.5"/><path d="M213.52192,250.23352l0.3644,-4.2935" fill="none" stroke="#000000" stroke-width="1.5"/><path d="M206.26325,245.86554l0.17825,4.71039" fill="none" stroke="#000000" stroke-width="1.5"/><path d="M223.42197,234.59207l-26.77177,-0.58992c0,0 14.99061,-57.39124 20.53834,-58.13084c3.79766,-0.50629 6.23344,58.72076 6.23344,58.72076z" fill="#0069ff" stroke="#2650ff" stroke-width="1.5"/><path d="M221.75255,228.61083l-21.75221,-1.44081" fill="none" stroke="#2650ff" stroke-width="1.5"/><path d="M222.1212,232.85932l-23.74058,-0.54806" fill="none" stroke="#2650ff" stroke-width="2.5"/></g><g data-paper-data="{&quot;index&quot;:null}" stroke-linecap="round"><path d="M302.84834,227.97481c0,0 3.78784,15.83755 -4.98112,19.21111c-0.79581,0.30615 -3.28069,0.90607 -4.26683,0.97859c-12.74297,0.93705 -12.57337,-14.59022 -12.57337,-14.59022z" fill="#0069ff" stroke="#000000" stroke-width="1.5"/><path d="M290.2964,243.53097l1.26462,4.11918" fill="none" stroke="#000000" stroke-width="1.5"/><path d="M297.73115,241.84521l0.82246,4.64145" fill="none" stroke="#000000" stroke-width="1.5"/><path d="M272.24312,175.74742c5.57861,-0.45099 32.37325,52.46895 32.37325,52.46895l-26.0408,6.24122c0,0 -10.15126,-58.40144 -6.33245,-58.71016z" fill="#0069ff" stroke="#2650ff" stroke-width="1.5"/><path d="M278.9416,228.25855l20.95484,-6.01075" fill="none" stroke="#2650ff" stroke-width="1.5"/><path d="M302.56735,226.92996l-23.0871,5.55893" fill="none" stroke="#2650ff" stroke-width="2.5"/></g></g></g></svg>