<svg version="1.1" xmlns="http://www.w3.org/2000/svg" xmlns:xlink="http://www.w3.org/1999/xlink" width="483.00927" height="383.06971" viewBox="0,0,483.00927,383.06971"><defs><radialGradient cx="242.2717" cy="135.5686" r="2.6824" gradientUnits="userSpaceOnUse" id="color-1"><stop offset="0" stop-color="#ff84c0"/><stop offset="1" stop-color="#ff84c0" stop-opacity="0"/></radialGradient><radialGradient cx="229.69776" cy="142.4342" r="2.30252" gradientUnits="userSpaceOnUse" id="color-2"><stop offset="0" stop-color="#ff84c0"/><stop offset="1" stop-color="#ff84c0" stop-opacity="0"/></radialGradient></defs><g transform="translate(1.50463,11.53485)"><g data-paper-data="{&quot;isPaintingLayer&quot;:true}" stroke-miterlimit="10" stroke-dasharray="" stroke-dashoffset="0" style="mix-blend-mode: normal"><g data-paper-data="{&quot;index&quot;:null}" fill="#0005ff" stroke="#000000" stroke-width="1.5" stroke-linecap="butt" stroke-linejoin="miter"><path d="M267.94953,115.9594c3.19993,17.42504 9.15866,34.20641 17.64906,49.70262c14.38884,21.25127 30.56197,41.21352 48.34143,59.66843l-42.17362,13.11291c-17.95641,-14.07458 -32.62858,-31.94841 -42.98796,-52.37049c-10.40097,-21.85422 -17.90592,-45.00271 -22.32201,-68.85156z" fill-rule="nonzero"/><path d="M257.0946,116.09665c-3.42316,24.03996 -9.95473,47.53753 -19.42774,69.89248c-10.21271,22.0396 -24.72086,41.79475 -42.65652,58.08539l-49.77923,-7.70445c0,0 36.71263,-35.04932 53.6046,-68.33385c7.71467,-16.16397 13.38495,-33.23394 16.87603,-50.8077z" fill-rule="nonzero"/><path d="M341.23748,103.88198c0.60092,27.40854 -0.90822,63.01429 -8.24165,61.19639c-32.32398,-8.40624 -73.82972,-43.51939 -73.82972,-43.51939l-0.29103,-15.78399l-0.29119,-15.78338c0,0 40.0318,-37.13262 71.95486,-47.20906c7.42624,-2.32257 10.09783,33.69089 10.69874,61.09944z" fill-rule="nonzero"/><path d="M147.31326,47.4039c32.30577,8.47974 73.8115,43.59287 73.8115,43.59287l0.21757,15.76578l0.29119,15.78338c0,0 -40.34357,37.13402 -71.95549,47.2089c-7.35274,2.34079 -10.1891,-33.32018 -10.71697,-60.71127c-0.52741,-27.39032 0.89012,-63.56815 8.35219,-61.63969z" fill-rule="nonzero"/><path d="M196.73805,94.84981l18.18786,5.45135" fill-rule="evenodd"/><path d="M215.1804,113.09063l-18.15251,6.02713" fill-rule="evenodd"/><path d="M267.80494,98.95503l19.03341,-7.06548" fill-rule="evenodd"/><path d="M286.83452,116.71274l-18.77446,-4.96805" fill-rule="evenodd"/><path d="M226.07904,126.68748c-8.02784,0.17257 -14.53575,0.31247 -14.53575,0.31247l-0.96816,-45.03702c0,0 6.5079,-0.13988 14.53575,-0.31245l23.4457,-0.50403c8.02785,-0.17257 14.53575,-0.31249 14.53575,-0.31249l0.96817,45.037c0,0 -6.50791,0.13993 -14.53576,0.3125z" fill-rule="nonzero"/></g><g data-paper-data="{&quot;index&quot;:null}" fill-rule="nonzero" stroke-width="1.5" stroke-linecap="butt" stroke-linejoin="miter"><g stroke="none"><path d="M187.88192,15.94025c0,0 0.15414,-0.05866 0.39249,-0.0953c0.19583,-0.06066 0.39741,-0.12478 0.60543,-0.19324c10.21584,-3.36262 19.62343,-4.07767 29.75846,-0.18687c2.53628,0.97368 4.54508,2.45013 6.99387,3.63219c0.99192,0.7164 3.04166,2.17662 3.90813,2.9706c1.20042,0.51174 4.01722,2.64782 5.2432,3.63919c10.2326,8.38934 19.18585,18.48064 24.74123,32.1753c1.27741,3.14898 1.74909,6.87234 2.51433,10.21833c0.83879,3.66759 1.348,5.9853 1.28138,8.5853l0.07671,-0.02173l0.10488,0.51469l0.3568,-0.03984l0.24257,3.05657c0.02885,0.28984 0.01628,0.59045 -0.04332,0.89123c-0.27719,1.39863 -2.1287,2.33655 -3.31891,2.0136c-0.86031,-0.23342 -2.62342,-5.33277 -3.57662,-6.55696c-0.0302,2.09085 0.09233,3.35194 0.09802,3.56284c0.1028,3.81415 0.09776,3.99592 -0.21092,7.85828c-0.53201,6.65682 -2.67513,13.60849 -3.96844,20.13391c-1.1159,5.63042 -3.00092,10.08401 -4.80331,15.37055c-0.55792,1.63645 -2.13683,6.37659 -3.26385,7.10244c-5.86049,3.77449 -5.83175,-2.36798 -6.38039,-6.59465c-0.0022,-0.01701 -0.07328,-0.41856 -0.16278,-0.99775c-0.04082,0.12622 -0.08063,0.24604 -0.11843,0.35782c-2.23572,6.6111 -5.80165,13.91612 -9.63819,19.39943c-3.59276,6.06036 -8.99673,17.15021 -16.56545,16.8332c-6.43353,-0.26947 -5.1584,-3.04761 -5.04563,-8.15604c0.02176,-0.98581 0.0864,-1.97021 0.15978,-2.95269c0.00122,-0.01631 0.00252,-0.03306 0.00388,-0.05024c-1.3156,1.44066 -3.46974,2.84057 -4.0765,3.33607c-4.90552,4.00604 -12.11324,7.13781 -18.0494,7.5483c-5.283,0.8249 -11.11558,3.27154 -16.46464,2.74871c-3.04518,-0.29763 -6.39373,-1.70033 -9.38253,-2.5113c-11.95225,-3.24302 -25.4434,-8.0497 -32.27605,-21.04837c-0.13493,-2.37986 -1.54315,-5.16162 -0.40477,-7.13958c0.84723,-1.47206 3.02825,-0.18218 4.53425,-0.03537c2.55115,0.24871 4.14973,1.19207 6.74877,0.54041c1.96797,-0.49343 3.91495,-1.13981 5.91,-1.44625c0.67706,-0.104 2.71488,-0.2145 2.03457,-0.27957c-3.20941,-0.30692 -8.37202,-4.31718 -9.05678,-8.36965c-0.36053,-2.13379 -1.19777,-4.84674 -0.01917,-6.52847c0.96417,-1.37575 3.03137,0.11887 4.54652,0.06851c4.33226,-0.14401 8.22868,-0.0411 12.14175,-2.40447c4.74515,-1.36498 7.81366,-3.36461 10.69634,-8.08497c0.4681,-0.76654 0.78193,-1.73596 1.05813,-2.73113c-1.94257,0.98307 -4.17861,1.49626 -4.45499,1.3447c-2.21979,-1.21726 -1.39943,-6.68187 -1.25395,-8.6429c0.56302,-7.59041 -0.06594,-15.36793 0.69492,-22.95026c-0.66842,-6.24724 0.64395,-12.29351 1.8573,-18.41563c2.41051,-12.1625 7.97239,-26.40272 17.14986,-33.81998c0.43019,-0.83238 1.23079,-1.09814 1.56897,-1.17553c0.60006,-0.4151 1.21442,-0.80151 1.84314,-1.15702c0,0 0.85033,-0.47936 1.70638,-0.1611c1.00865,-0.4256 2.02834,-0.68027 3.27704,-1.04633l0.28596,-0.10883z" fill="#0004ff"/><path d="M159.49834,94.7748c0.04955,-0.66801 0.08986,-1.33745 0.1227,-2.00808c0.44153,0.82037 0.91313,1.61192 1.51091,2.35445l-0.04749,0.03421l0.77798,1.26132c0.21051,0.3523 0.57699,0.58549 0.99386,0.58549c0.53183,0 0.98163,-0.37955 1.13021,-0.90169l0.34782,-1.12778c0.95467,-1.53931 2.5367,-4.41342 4.26946,-4.51077c2.87701,7.21926 3.71051,14.78389 3.71051,22.72574c0,3.72853 0.12683,7.35306 -1.16093,10.83264c0.02771,4.88002 2.91863,4.98988 6.14594,2.82567c3.66178,-2.45556 6.94045,-5.74253 10.38424,-8.54712c0.92013,-0.74935 1.65616,-2.05735 2.80199,-2.18718c0.57831,-0.06552 0.20844,1.24813 0.44066,1.82431c1.19941,2.97613 0.69819,6.46025 0.69819,9.73344c0,2.79606 -2.40827,9.45841 -0.69126,11.68498c0.85974,1.11487 5.60971,-1.66306 6.29867,-2.00061c1.92686,-0.94404 4.64408,-0.82904 6.37888,-1.74279c0.47851,-0.25203 0.54127,-1.01773 0.94793,-1.38893c0.71785,-0.65524 1.8865,-0.3503 2.70945,-0.84035c2.68985,-1.60175 5.63376,-4.41803 7.89344,-6.62339c1.74877,-1.71621 3.24366,-4.10954 5.231,-5.47788c0.33237,-0.22883 0.02122,0.85249 0,1.2778c-0.0283,0.5671 -0.00272,1.13582 0,1.70374c0.0062,1.29302 0.72441,6.16743 1.93819,6.72898c0.68805,0.3183 3.27148,-1.70161 3.84375,-2.11852c2.85271,-2.07835 3.73208,-4.9839 6.06488,-7.51561c1.00329,-1.08884 2.77537,-2.02811 3.903,-2.94449c2.17981,-2.34803 4.30256,-4.31875 6.10176,-7.04224c0.07556,-0.11436 1.23977,-1.71762 1.57201,-2.66843c0.29121,0.34831 0.68476,0.75074 0.86595,1.01307c0.63951,0.92585 0.99224,2.04932 1.41594,3.1101c1.02234,2.55956 1.95387,5.23472 3.21945,7.68168c-0.34553,0.96622 -0.69402,1.94888 -1.03949,2.96214c-0.55792,1.63643 -2.13683,6.37659 -3.26385,7.10244c-5.86049,3.77449 -5.83175,-2.36798 -6.38039,-6.59465c-0.0022,-0.01701 -0.07328,-0.41856 -0.16278,-0.99775c-0.04082,0.12622 -0.08063,0.24604 -0.11843,0.35782c-2.23573,6.6111 -5.80165,13.91612 -9.63819,19.39943c-3.59275,6.06036 -8.99673,17.15021 -16.56545,16.8332c-6.43353,-0.26947 -5.1584,-3.04761 -5.04563,-8.15604c0.02176,-0.98583 0.0864,-1.97022 0.15978,-2.95271c0.00122,-0.01631 0.00252,-0.03306 0.00388,-0.05024c-1.3156,1.44067 -3.46974,2.84058 -4.0765,3.33608c-4.90552,4.00604 -12.11324,7.13781 -18.0494,7.5483c-5.28301,0.8249 -11.11558,3.27154 -16.46464,2.74871c-3.04518,-0.29763 -6.39374,-1.70033 -9.38253,-2.5113c-11.95225,-3.24301 -25.4434,-8.0497 -32.27604,-21.04837c-0.13493,-2.37986 -1.54315,-5.16162 -0.40477,-7.13958c0.84722,-1.47204 3.02825,-0.18217 4.53424,-0.03536c2.55115,0.24871 4.14973,1.19207 6.74877,0.54041c1.96797,-0.49343 3.91495,-1.13981 5.91,-1.44625c0.67706,-0.104 2.71488,-0.2145 2.03457,-0.27957c-3.20941,-0.30692 -8.37203,-4.31718 -9.0568,-8.36965c-0.36053,-2.13379 -1.19777,-4.84674 -0.01917,-6.52847c0.96417,-1.37575 3.03137,0.11887 4.54652,0.06851c4.33226,-0.14401 8.22868,-0.0411 12.14175,-2.40447c4.74515,-1.36496 7.81366,-3.36461 10.69634,-8.08497c0.46811,-0.76654 0.78192,-1.73596 1.05813,-2.73113c-1.94256,0.98307 -4.17861,1.49626 -4.45498,1.3447c-2.21979,-1.21726 -1.39942,-6.68187 -1.25395,-8.6429z" fill="#3573ff"/></g><path d="M187.68489,15.51437c0,0 0.15414,-0.05866 0.39249,-0.0953c0.19583,-0.06066 0.39741,-0.12478 0.60543,-0.19324c10.21584,-3.36262 19.62343,-4.07767 29.75846,-0.18687c2.53628,0.97368 4.54508,2.45013 6.99387,3.63219c0.99191,0.7164 3.04165,2.17662 3.90812,2.9706c1.20042,0.51173 4.01722,2.64782 5.2432,3.63919c10.2326,8.38934 19.18585,18.48064 24.74123,32.1753c1.27741,3.14898 1.74909,6.87233 2.51433,10.21832c0.83879,3.66759 1.348,5.9853 1.28138,8.5853l0.07671,-0.02173l0.10488,0.51468l0.3568,-0.03984l0.24258,3.05657c0.02886,0.28984 0.01628,0.59045 -0.04332,0.89123c-0.27719,1.39863 -2.1287,2.33655 -3.31891,2.0136c-0.86031,-0.23342 -2.62342,-5.33277 -3.57662,-6.55696c-0.0302,2.09086 0.09233,3.35194 0.09802,3.56284c0.1028,3.81416 0.09776,3.99593 -0.21092,7.85829c-0.53201,6.6568 -2.67513,13.60848 -3.96844,20.1339c-1.1159,5.63042 -3.00092,10.08401 -4.80331,15.37055c-0.55792,1.63645 -2.13683,6.37659 -3.26385,7.10244c-5.86049,3.77449 -5.83175,-2.36798 -6.38039,-6.59465c-0.0022,-0.01701 -0.07328,-0.41856 -0.16278,-0.99775c-0.04082,0.12622 -0.08063,0.24604 -0.11843,0.35782c-2.23572,6.6111 -5.80165,13.91612 -9.63819,19.39943c-3.59276,6.06035 -8.99673,17.15018 -16.56545,16.83319c-6.43353,-0.26947 -5.1584,-3.04761 -5.04563,-8.15604c0.02176,-0.98581 0.08641,-1.97021 0.15979,-2.95269c0.00122,-0.01631 0.00251,-0.03306 0.00388,-0.05024c-1.3156,1.44067 -3.46974,2.84058 -4.0765,3.33608c-4.90553,4.00604 -12.11324,7.13781 -18.0494,7.5483c-5.283,0.8249 -11.11558,3.27154 -16.46464,2.74871c-3.04518,-0.29763 -6.39374,-1.70033 -9.38253,-2.5113c-11.95225,-3.24301 -25.4434,-8.0497 -32.27605,-21.04837c-0.13493,-2.37986 -1.54315,-5.16162 -0.40477,-7.13958c0.84723,-1.47204 3.02825,-0.18218 4.53425,-0.03537c2.55115,0.24871 4.14973,1.19207 6.74877,0.54041c1.96797,-0.49343 3.91495,-1.13981 5.91,-1.44625c0.67706,-0.104 2.71488,-0.21449 2.03457,-0.27956c-3.20941,-0.30692 -8.37202,-4.31719 -9.05678,-8.36965c-0.36053,-2.13379 -1.19777,-4.84674 -0.01917,-6.52847c0.96417,-1.37575 3.03137,0.11887 4.54652,0.06851c4.33226,-0.14401 8.22868,-0.0411 12.14175,-2.40447c4.74515,-1.36496 7.81366,-3.36461 10.69634,-8.08497c0.4681,-0.76654 0.78193,-1.73596 1.05813,-2.73113c-1.94257,0.98307 -4.17861,1.49626 -4.45499,1.3447c-2.21979,-1.21726 -1.39943,-6.68187 -1.25395,-8.6429c0.56302,-7.59041 -0.06594,-15.36793 0.69492,-22.95026c-0.66841,-6.24724 0.64396,-12.29351 1.85732,-18.41563c2.41051,-12.16251 7.97239,-26.40272 17.14986,-33.81998c0.43019,-0.83238 1.23079,-1.09814 1.56897,-1.17553c0.60006,-0.4151 1.21442,-0.80151 1.84314,-1.15702c0,0 0.85033,-0.47939 1.70638,-0.16113c1.00865,-0.4256 2.02834,-0.68027 3.27704,-1.04633l0.28596,-0.10883z" fill="none" stroke="#000000"/></g><g fill-rule="nonzero" stroke-linejoin="miter"><g data-paper-data="{&quot;index&quot;:null}"><path d="M259.06397,189.31456c0,0 41.30842,27.58027 51.42016,9.80811c10.11174,-17.77216 -24.26966,-82.94086 6.71782,-116.7223c30.98749,-33.78145 95.72908,5.03837 95.72908,5.03837c0,0 -10.30967,-0.78718 -16.55007,0.14224c-9.1622,1.36458 -22.91718,5.73585 -22.91718,5.73585c0,0 19.25448,-2.00176 31.93664,-1.13312c11.24103,0.76993 29.36355,5.33177 29.36355,5.33177c0,0 -12.60884,3.76327 -19.96251,6.88859c-5.75492,2.44584 -13.62664,7.38681 -13.62664,7.38681c0,0 8.65186,-1.97036 12.57709,-1.43992c8.20022,1.10814 18.49287,5.63856 18.49287,5.63856c0,0 -14.40978,2.77489 -23.4536,5.08843c-5.04791,1.29132 -12.65474,4.14859 -12.65474,4.14859c0,0 7.16521,0.14292 10.49722,1.13018c5.51629,1.63446 12.17545,5.58764 12.17545,5.58764c0,0 -41.40591,-0.11776 -55.42209,19.31376c-14.01618,19.43152 14.61637,57.94929 -18.47403,83.13313c-33.0904,25.18385 -103.79341,-31.08914 -103.79341,-31.08914" fill="#0004ff" stroke="#000000" stroke-width="1.5" stroke-linecap="round"/><g fill="none" stroke="none" stroke-width="1" stroke-linecap="butt" font-family="sans-serif" font-weight="normal" font-size="12" text-anchor="start"><g><g/></g></g></g><g stroke="#000000" stroke-width="1.5" stroke-linecap="butt"><g fill="#0004ff"><path d="M343.65171,81.96529c0,0 -2.93489,-3.83095 0.23537,-12.79132c3.08617,-8.72269 8.23476,-10.91207 8.23476,-10.91207c0,0 4.27701,2.22206 7.91762,5.40132c4.41683,3.85711 7.78015,8.14834 7.78015,8.14834l-3.64382,10.18579c0,0 -6.77306,1.73725 -10.94281,1.61868c-5.02508,-0.14288 -9.58125,-1.65075 -9.58125,-1.65075z"/><path d="M380.50431,91.99874c-3.31615,-2.54482 -7.49577,-8.17889 -7.49577,-8.17889l3.53681,-10.22386c0,0 5.29858,-1.20944 11.14482,-1.41509c4.81879,-0.16952 9.53379,0.80766 9.53379,0.80766c0,0 2.63383,4.95828 -0.42158,13.69191c-3.13867,8.97159 -7.81631,10.09413 -7.81631,10.09413c0,0 -4.48543,-1.709 -8.48178,-4.77584z" data-paper-data="{&quot;index&quot;:null}"/></g><path d="M368.87661,82.68328l-9.14794,1.82469l4.11645,-8.37059l-4.5612,-8.13623l9.23212,1.32841l6.3275,-6.85427l1.59184,9.19271l8.47085,3.90057l-8.24843,4.35286l-1.09504,9.2625z" fill="#00039b"/></g></g><g data-paper-data="{&quot;index&quot;:null}" fill-rule="nonzero" stroke="#000000" stroke-width="1.5" stroke-linejoin="miter"><path d="M234.36476,125.46401c0,0 -1.28916,22.03294 -8.97386,34.95563c-10.85483,18.25361 -27.79237,27.54685 -27.79237,27.54685l14.53751,-55.77279z" fill="#232323" stroke-linecap="butt"/><path d="M219.5531,141.35065c0,0 -11.98865,29.54367 -22.83138,40.08249c-15.31562,14.88637 -34.08613,19.53062 -34.08613,19.53062l31.45388,-64.55975l25.46364,4.94665z" fill="#232323" stroke-linecap="butt"/><path d="M164.78697,189.11987c-19.34402,11.87599 -39.76442,12.83951 -39.76442,12.83951l47.94194,-58.35537l24.98344,9.93255c0,0 -19.46632,27.17572 -33.16094,35.58334z" fill="#6265ff" stroke-linecap="butt"/><path d="M137.0047,187.69581c-24.99068,7.57856 -48.00619,4.2044 -48.00619,4.2044l75.23427,-52.60186l20.0404,20.44275c0,0 -29.57626,22.58952 -47.26843,27.95474z" fill="#6265ff" stroke-linecap="butt"/><path d="M106.19789,178.51564c-29.75377,5.44809 -55.37054,0.04743 -55.37054,0.04743l94.70999,-46.37346l19.28689,22.31621c0,0 -37.56211,20.15286 -58.62631,24.00983z" fill="#6265ff" stroke-linecap="butt"/><path d="M79.39509,163.72114c-37.36956,5.1412 -67.59191,-0.8188 -67.59191,-0.8188l124.56582,-46.24573l19.2254,23.27114c0,0 -49.74346,20.15373 -76.19931,23.79344z" fill="#6265ff" stroke-linecap="butt"/><path d="M67.8027,141.30633c-37.39329,2.37909 -66.58951,-5.8749 -66.58951,-5.8749l127.65227,-37.21147l16.5601,24.84605c0,0 -51.15019,16.55603 -77.62285,18.24029z" fill="#6265ff" stroke-linecap="butt"/><g><path d="M168.96719,165.46222l-38.16082,-57.12014l-72.05349,10.6902l79.04642,-35.48343l39.1165,59.12284l59.87102,-21.90651l-5.51369,23.64114z" fill="#0005ff" stroke-linecap="butt"/><path d="M169.59869,162.641l7.37441,-20.51156" fill="#ffffff" stroke-linecap="round"/><path d="M131.81567,106.90668l5.59879,-22.70417" fill="#ffffff" stroke-linecap="round"/></g></g><g data-paper-data="{&quot;index&quot;:null}" fill-rule="nonzero" stroke="#000000" stroke-width="1.5" stroke-linejoin="miter"><path d="M245.63526,128.46401l22.22872,6.72969l14.53751,55.77279c0,0 -16.93754,-9.29324 -27.79237,-27.54685c-7.6847,-12.92269 -8.97386,-34.95562 -8.97386,-34.95562z" fill="#232323" stroke-linecap="butt"/><path d="M260.44692,144.35065l25.46364,-4.94665l31.45388,64.55976c0,0 -18.77052,-4.64425 -34.08613,-19.53062c-10.84274,-10.53883 -22.83139,-40.08249 -22.83139,-40.08249z" fill="#232323" stroke-linecap="butt"/><path d="M315.21303,192.11989c-13.69463,-8.40762 -33.16095,-35.58334 -33.16095,-35.58334l24.98344,-9.93255l47.94194,58.35537c0,0 -20.42039,-0.96352 -39.76442,-12.83951z" fill="#6265ff" stroke-linecap="butt"/><path d="M342.99528,190.69583c-17.69218,-5.36522 -47.26844,-27.95473 -47.26844,-27.95473l20.0404,-20.44275l75.23427,52.60186c0,0 -23.01551,3.37417 -48.00619,-4.2044z" fill="#6265ff" stroke-linecap="butt"/><path d="M373.80212,181.51565c-21.06419,-3.85698 -58.62631,-24.00983 -58.62631,-24.00983l19.28689,-22.31621l94.70999,46.37346c0,0 -25.61678,5.40067 -55.37055,-0.04743z" fill="#6265ff" stroke-linecap="butt"/><path d="M400.60494,166.72119c-26.45585,-3.63971 -76.19931,-23.79344 -76.19931,-23.79344l19.2254,-23.27114l124.56581,46.24573c0,0 -30.22235,5.96 -67.5919,0.8188z" fill="#6265ff" stroke-linecap="butt"/><path d="M412.19729,144.30624c-26.47265,-1.68426 -77.62284,-18.24028 -77.62284,-18.24028l16.5601,-24.84605l127.65227,37.21147c0,0 -29.19621,8.25399 -66.58951,5.8749z" fill="#6265ff" stroke-linecap="butt"/><g><path d="M248.7269,147.40633l-5.51369,-23.64114l59.87102,21.90651l39.1165,-59.12284l79.04642,35.48344l-72.05349,-10.6902l-38.16082,57.12014z" fill="#0005ff" stroke-linecap="butt"/><path d="M303.02689,145.12946l7.37441,20.51156" fill="#ffffff" stroke-linecap="round"/><path d="M348.18435,109.90667l-5.59879,-22.70417" fill="#ffffff" stroke-linecap="round"/></g></g><path d="M240.20647,122.33651c1.02117,-11.83013 25.26697,-19.39891 54.15449,-16.90534c28.88753,2.49357 51.47767,14.10522 50.45649,25.93535c-1.02118,11.83013 -25.26698,19.39891 -54.1545,16.90534c-28.88753,-2.49357 -51.47766,-14.10523 -50.45649,-25.93536z" fill="#00039b" fill-rule="nonzero" stroke="#000000" stroke-width="1.5" stroke-linecap="butt" stroke-linejoin="miter"/><g data-paper-data="{&quot;index&quot;:null}" fill="#0005ff" stroke="#00026f" stroke-width="1.5" stroke-linecap="butt" stroke-linejoin="miter"><path d="M306.6819,35.21796c0.39272,17.91237 -0.59355,41.18188 -5.38619,39.99383c-21.12477,-5.49375 -48.25011,-28.44133 -48.25011,-28.44133l-0.1902,-10.31535l-0.1903,-10.31495c0,0 26.16208,-24.26737 47.02483,-30.85265c4.85329,-1.51787 6.59926,22.01809 6.99198,39.93046z" fill-rule="nonzero"/><path d="M179.94615,-1.69227c21.11287,5.54178 48.23821,28.48935 48.23821,28.48935l0.14218,10.30345l0.1903,10.31495c0,0 -26.36583,24.26828 -47.02524,30.85255c-4.80525,1.52978 -6.6589,-21.77582 -7.00388,-39.67678c-0.34468,-17.90046 0.58173,-41.54384 5.45843,-40.28353z" fill-rule="nonzero"/><path d="M212.24686,29.31517l11.88635,3.56263" fill-rule="evenodd"/><path d="M212.43627,45.17504l11.86326,-3.93892" fill-rule="evenodd"/><path d="M271.13032,27.38054l-12.43895,4.61752" fill-rule="evenodd"/><path d="M258.85809,40.35648l12.26971,3.24679" fill-rule="evenodd"/><path d="M231.42213,50.12211c-5.24646,0.11278 -9.49958,0.20421 -9.49958,0.20421l-0.63272,-29.43315c0,0 4.25312,-0.09142 9.49958,-0.2042l15.32252,-0.3294c5.24646,-0.11278 9.49958,-0.20422 9.49958,-0.20422l0.63273,29.43314c0,0 -4.25313,0.09145 -9.49959,0.20423z" fill-rule="nonzero"/></g><g fill="#0080ff" fill-rule="nonzero" stroke="#000000" stroke-width="1.5" stroke-linejoin="miter"><path d="M288.00505,228.93782l-12.19654,20.31071c0,0 -18.59344,-36.09082 -23.49317,-72.98876c-2.68642,-20.23046 -7.96627,-64.22791 -7.96627,-64.22791c0,0 7.66151,-0.99414 11.13034,-1.50655c3.61304,-0.53371 10.13291,-1.63439 10.13291,-1.63439c0,0 3.18773,21.69778 14.90868,54.57819c14.27234,40.0378 38.70398,69.94774 38.70398,69.94774z" data-paper-data="{&quot;index&quot;:null}" stroke-linecap="butt"/><path d="M154.48109,232.03427c0,0 24.43164,-29.90993 38.70398,-69.94774c11.72093,-32.88041 14.90868,-54.57817 14.90868,-54.57817c0,0 6.51987,1.10068 10.13291,1.63439c3.46883,0.5124 11.13034,1.50653 11.13034,1.50653c0,0 -5.27985,43.99745 -7.96627,64.22791c-4.89973,36.89796 -23.49317,72.98876 -23.49317,72.98876l-12.19654,-20.3107z" data-paper-data="{&quot;index&quot;:null}" stroke-linecap="butt"/><path d="M238.93515,111.10898c0,0 27.76309,-39.76431 39.75854,-28.0962c11.99546,11.66812 15.28247,40.43021 -3.05834,57.06135c-18.34082,16.63114 -36.70019,-28.96515 -36.70019,-28.96515z" data-paper-data="{&quot;index&quot;:null}" stroke-linecap="round"/><path d="M239.78468,110.81931c0,0 7.59287,-2.65726 20.68098,-1.80524c9.57313,0.62321 17.7183,4.4121 17.7183,4.4121" data-paper-data="{&quot;index&quot;:null}" stroke-linecap="round"/><path d="M238.58773,111.68829c0,0 -18.35936,45.5963 -36.70019,28.96515c-18.34081,-16.63114 -15.0538,-45.39324 -3.05834,-57.06135c11.99546,-11.66812 39.75854,28.0962 39.75854,28.0962z" stroke-linecap="round"/><path d="M199.33893,114.00547c0,0 8.14517,-3.78891 17.7183,-4.4121c13.08809,-0.85202 20.68098,1.80524 20.68098,1.80524" stroke-linecap="round"/></g><g fill="#ffffff" fill-rule="nonzero" stroke="#000000" stroke-width="1.5" stroke-linecap="butt" stroke-linejoin="miter"><g data-paper-data="{&quot;index&quot;:null}"><path d="M195.05157,216.10716c-1.5649,-7.33316 1.51627,-14.20611 6.882,-15.35116c5.36573,-1.14505 10.98412,3.8714 12.54901,11.20456c1.5649,7.33316 -1.51628,14.20611 -6.88201,15.35116c-5.36573,1.14505 -10.9841,-3.87141 -12.549,-11.20456z"/><path d="M177.08524,211.62746c1.89205,-7.25564 7.72966,-12.0152 13.03866,-10.63076c5.30901,1.38443 8.07899,8.38858 6.18694,15.64422c-1.89205,7.25564 -7.72967,12.0152 -13.03867,10.63076c-5.30901,-1.38443 -8.07898,-8.38858 -6.18693,-15.64422z"/><path d="M163.03715,198.29533c4.98438,-5.60179 12.34781,-7.18637 16.44669,-3.53927c4.09887,3.64711 3.38103,11.14483 -1.60335,16.74662c-4.98438,5.60179 -12.34782,7.18637 -16.4467,3.53927c-4.09887,-3.64711 -3.38102,-11.14482 1.60336,-16.74661z"/><path d="M166.66078,181.83614c5.31125,-1.95873 10.77872,-0.39614 12.21194,3.49014c1.43322,3.88628 -1.71054,8.62459 -7.02179,10.58333c-5.31125,1.95873 -10.77872,0.39614 -12.21194,-3.49014c-1.43322,-3.88628 1.71054,-8.62459 7.02179,-10.58333z"/><path d="M191.44689,158.42277c0.27991,0.06837 0.56003,0.13748 0.84035,0.20766c3.27042,0.81768 6.95697,1.47826 9.91307,3.16484c3.0773,1.74785 6.20629,2.87847 9.45991,4.37677c2.47406,1.1393 5.52214,3.12184 8.25592,3.6825c-1.74221,14.42409 -3.44827,27.06615 -4.52622,31.3568c-2.99418,11.91798 -16.05985,18.90669 -29.18302,15.60973c-13.12316,-3.29695 -21.33433,-15.63109 -18.34016,-27.54907c0.00262,-0.01042 11.07912,-14.49924 23.58015,-30.84923z"/></g><path d="M225.51567,119.73765c-1.10621,10.51174 -3.34444,31.40121 -5.53674,49.5963c-2.71884,-0.60583 -5.60089,-2.46087 -8.10958,-3.61612c-3.24381,-1.49377 -6.3572,-2.61657 -9.42211,-4.35737c-3.00881,-1.70189 -6.71581,-2.38434 -10.03873,-3.21515c-0.21024,-0.05249 -0.42036,-0.10441 -0.63035,-0.15586c10.656,-13.93686 22.28143,-29.1402 28.93466,-37.84092c3.40818,-4.45703 5.24951,-4.65526 4.80285,-0.41088z" data-paper-data="{&quot;index&quot;:null}"/><path d="M203.45729,153.22773c8.97463,0 16.25,6.82766 16.25,15.25c0,8.42234 -7.27537,15.25 -16.25,15.25c-8.97463,0 -16.25,-6.82766 -16.25,-15.25c0,-8.42234 7.27537,-15.25 16.25,-15.25z" data-paper-data="{&quot;index&quot;:null}"/></g><g fill-rule="nonzero" stroke-width="1.5" stroke-linejoin="miter"><g stroke="#000000"><path d="M270.14223,100.54592c0,0 0.19464,-21.38429 -3.9615,-40.13391c-3.25741,-14.6952 -11.24019,-37.54057 -11.24019,-37.54057l104.47361,-20.67903c0,0 -6.17499,40.92597 -30.43723,68.26611c-23.96476,27.0049 -58.8347,30.0874 -58.8347,30.0874z" fill="#ffffff" stroke-linecap="butt"/><g data-paper-data="{&quot;index&quot;:null}" fill="#0004ff" stroke-linecap="butt"><path d="M270.59672,100.50395c0,0 0.18101,-21.38161 -3.97361,-40.13151c-1.37626,-6.21111 -5.698,-20.66158 -5.698,-20.66158c0,0 18.25467,1.57353 51.21121,-4.94974c24.15789,-4.78171 41.83912,-13.46823 42.89612,-13.67746c-4.29531,14.27496 -12.18651,33.98117 -25.80255,49.37277c-23.87369,26.98689 -58.63317,30.04752 -58.63317,30.04752z"/></g><path d="M302.07257,14.21465c0,0 7.14346,15.33187 10.26883,30.1737c4.23429,20.1079 3.36307,37.82211 3.36307,37.82211" fill="none" stroke-linecap="round"/></g><g stroke-linecap="butt"><path d="M351.87117,17.69179l-10.75048,5.74445l1.98021,-12.0269l-8.78401,-8.44944l12.04917,-1.83281l5.31941,-10.96733l5.47018,10.8946l12.07059,1.67225l-8.66863,8.56592l2.13616,11.99885z" fill="#002aea" stroke="#000000"/><path d="M351.97172,14.77641l-7.2882,3.89441l1.34245,-8.15353l-5.95504,-5.72821l8.16863,-1.24252l3.60623,-7.43517l3.70846,7.3859l8.18315,1.1337l-5.87681,5.80718l1.4482,8.1345z" fill="#0003a5" stroke="none"/></g></g><g data-paper-data="{&quot;index&quot;:null}" fill-rule="nonzero" stroke="#000000" stroke-width="1.5" stroke-linejoin="miter"><path d="M211.7125,100.04592c0,0 -34.86994,-3.0825 -58.8347,-30.0874c-24.26225,-27.34014 -30.43723,-68.26611 -30.43723,-68.26611l104.47361,20.67904c0,0 -7.98279,22.84537 -11.24019,37.54057c-4.15613,18.74962 -3.96149,40.13391 -3.96149,40.13391z" fill="#ffffff" stroke-linecap="butt"/><g data-paper-data="{&quot;index&quot;:null}" fill="#0004ff" stroke-linecap="butt"><path d="M211.25802,100.00395c0,0 -34.75948,-3.06063 -58.63317,-30.04752c-13.61604,-15.3916 -21.50724,-35.09781 -25.80255,-49.37277c1.057,0.20922 18.73823,8.89575 42.89612,13.67746c32.95655,6.52327 51.21121,4.94974 51.21121,4.94974c0,0 -4.32175,14.45047 -5.698,20.66158c-4.15462,18.7499 -3.9736,40.13151 -3.9736,40.13151z"/></g><path d="M166.15024,81.71053c0,0 -0.87123,-17.71422 3.36306,-37.82211c3.12537,-14.84183 10.26884,-30.17369 10.26884,-30.17369" fill="none" stroke-linecap="round"/></g><g fill="#ffffff" fill-rule="nonzero" stroke="#000000" stroke-width="1.5" stroke-linecap="butt" stroke-linejoin="miter"><g><path d="M273.75496,229.31173c-5.36573,-1.14505 -8.44691,-8.018 -6.88201,-15.35116c1.5649,-7.33316 7.18329,-12.34961 12.54901,-11.20456c5.36573,1.14505 8.4469,8.018 6.882,15.35116c-1.5649,7.33316 -7.18328,12.34961 -12.54901,11.20456z"/><path d="M298.0834,229.27168c-5.30901,1.38443 -11.14663,-3.37513 -13.03868,-10.63076c-1.89205,-7.25564 0.87794,-14.25979 6.18695,-15.64422c5.30901,-1.38443 11.14661,3.37513 13.03866,10.63076c1.89205,7.25564 -0.87793,14.25979 -6.18693,15.64422z"/><path d="M319.9217,217.04195c-4.09888,3.64711 -11.46231,2.06252 -16.44669,-3.53927c-4.98438,-5.60179 -5.70222,-13.09951 -1.60335,-16.74662c4.09888,-3.64711 11.46231,-2.06252 16.44669,3.53927c4.98438,5.60179 5.70223,13.09951 1.60336,16.74661z"/><path d="M321.71655,194.41947c-1.43322,3.88628 -6.90069,5.44887 -12.21194,3.49014c-5.31125,-1.95873 -8.45502,-6.69705 -7.02179,-10.58333c1.43322,-3.88628 6.90069,-5.44887 12.21194,-3.49014c5.31125,1.95873 8.45502,6.69705 7.02179,10.58333z"/><path d="M314.10084,196.64417c-0.19821,10.05069 -7.80224,19.37568 -18.95216,22.17689c-13.12316,3.29695 -26.18885,-3.69176 -29.18302,-15.60973c-1.07795,-4.29065 -2.78401,-16.93271 -4.52622,-31.3568c2.73377,-0.56066 5.78186,-2.5432 8.25592,-3.6825c3.25362,-1.4983 6.3826,-2.62892 9.45991,-4.37677c2.9561,-1.68658 6.64265,-2.34716 9.91307,-3.16484c0.28032,-0.07018 0.56043,-0.13929 0.84035,-0.20766c8.99506,11.76455 17.25256,22.56548 21.17775,27.70238c1.52991,2.0022 2.40166,3.14392 2.4024,3.14685c0,0 0.64707,3.59347 0.612,5.37218z"/></g><path d="M260.64275,122.14847c6.65323,8.70073 18.27866,23.90407 28.93466,37.84093c-0.20999,0.05145 -0.4201,0.10336 -0.63035,0.15586c-3.32292,0.8308 -7.02992,1.51326 -10.03873,3.21515c-3.06491,1.7408 -6.1783,2.8636 -9.42211,4.35737c-2.50869,1.15525 -5.39074,3.01029 -8.10958,3.61612c-2.1923,-18.19509 -4.43054,-39.08455 -5.53674,-49.59629c-0.44666,-4.24438 1.39467,-4.04615 4.80285,0.41088z"/><path d="M294.14824,170.47773c0,8.42234 -7.27537,15.25 -16.25,15.25c-8.97463,0 -16.25,-6.82766 -16.25,-15.25c0,-8.42234 7.27537,-15.25 16.25,-15.25c8.97463,0 16.25,6.82766 16.25,15.25z"/></g><g data-paper-data="{&quot;index&quot;:null}" fill="#ffffff" fill-rule="nonzero" stroke="#000000" stroke-width="1.5" stroke-linejoin="miter"><g data-paper-data="{&quot;index&quot;:null}"><path d="M192.16528,272.43494c0.39417,0.0217 0.7375,0.03829 0.9965,0.03829c4.70256,0 9.40512,0 14.10768,0c3.97619,0 10.56855,0.92557 14.18387,-0.31158c1.08813,-0.39324 2.6393,-0.21072 3.85692,-0.33155c3.27913,-0.32541 6.64753,-0.85687 9.95591,-0.85687c0.72893,0 17.58096,-8.33334 18.30991,-8.33334c5.47645,23.28997 2.05435,71.54998 -2.32563,81.50006c-4.37998,9.95008 -8.00601,24.28604 -30.06313,25.05194c-22.05712,0.7659 -27.63533,-3.24075 -31.77832,-10.52589c-17.16325,-30.18027 -16.783,-69.27987 -15.60609,-93.23105z" stroke-linecap="butt"/><path d="M231.81577,357.25642l0.46041,9.43876" stroke-linecap="round"/><path d="M211.27292,359.91278l0.83423,7.91303" stroke-linecap="round"/></g><path d="M235.26618,270.47326c-3.759,0 -10.74364,0.09564 -14.09833,1.23582c-3.40558,1.21983 -10.11334,0.26418 -13.89837,0.26418c-4.70256,0 -30.84308,0.32029 -31.20304,0.30246c-9.0416,-18.93225 -2.3163,-51.56918 -2.3163,-51.56918c0,0 1.22549,-16.80821 14.5294,-23.42852c13.30391,-6.62031 31.05043,-6.90653 40.21589,-3.81391c6.31503,2.13082 17.37548,7.49297 21.17174,27.08651c3.79625,19.59354 7.34418,28.70753 3.34344,49.92264c0,0 -17.0547,0.00001 -17.74444,0.00001z" data-paper-data="{&quot;index&quot;:null}" stroke-linecap="butt"/><path d="M214.66446,257.22326c21.14825,0 38.29228,6.82766 38.29228,15.25c0,8.42234 -17.14403,15.25 -38.29228,15.25c-21.14825,0 -38.29228,-6.82766 -38.29228,-15.25c0,-8.42234 17.14403,-15.25 38.29228,-15.25z" data-paper-data="{&quot;index&quot;:null}" stroke-linecap="butt"/></g><g fill="#ffffff" fill-rule="nonzero" stroke="#000000" stroke-width="1.5" stroke-linejoin="miter"><g data-paper-data="{&quot;index&quot;:null}"><path d="M308.35992,266.93494c1.17691,23.95118 1.55715,63.05078 -15.60609,93.23105c-4.143,7.28514 -9.7212,11.29179 -31.77832,10.52589c-22.05712,-0.7659 -25.68316,-15.10185 -30.06314,-25.05194c-4.37998,-9.95008 -7.80207,-58.21009 -2.32563,-81.50006c0.72895,0 17.58097,8.33334 18.3099,8.33334c3.30838,0 6.67678,0.53146 9.95592,0.85687c1.21762,0.12083 2.76879,-0.06169 3.85692,0.33155c3.61532,1.23715 10.20767,0.31158 14.18386,0.31158c4.70256,0 9.40513,0 14.10769,0c0.25901,0 0.60233,-0.01659 0.9965,-0.03829z" stroke-linecap="butt"/><path d="M249.8868,368.19518l0.46041,-9.43876" stroke-linecap="round"/><path d="M270.88996,361.41278l-0.83423,7.91303" stroke-linecap="round"/></g><path d="M229.15235,271.97326c-4.00072,-21.21512 -0.45281,-30.3291 3.34344,-49.92264c3.79625,-19.59354 14.85671,-24.95569 21.17174,-27.08651c9.16545,-3.09262 26.91198,-2.8064 40.2159,3.81391c13.30391,6.62031 14.5294,23.42852 14.5294,23.42852c0,0 6.7253,32.63694 -2.31629,51.56919c-0.35996,0.01784 -26.50049,-0.30246 -31.20304,-0.30246c-3.78503,0 -10.49279,0.95565 -13.89837,-0.26418c-3.35469,-1.14018 -10.33934,-1.23582 -14.09834,-1.23582c-0.68975,0 -17.74444,-0.00001 -17.74444,-0.00001z" data-paper-data="{&quot;index&quot;:null}" stroke-linecap="butt"/><path d="M305.79067,273.97326c0,8.42234 -17.14404,15.25 -38.29228,15.25c-21.14825,0 -38.29229,-6.82766 -38.29229,-15.25c0,-8.42234 17.14404,-15.25 38.29229,-15.25c21.14825,0 38.29228,6.82766 38.29228,15.25z" data-paper-data="{&quot;index&quot;:null}" stroke-linecap="butt"/></g><path d="M257.52498,165.26079l-22.35121,-45.48578l17.36213,-3.96821c0,0 14.51971,10.28627 19.77361,16.53702c4.75848,5.66133 19.69504,17.63384 19.69504,17.63384z" data-paper-data="{&quot;index&quot;:null}" fill="#0004ff" fill-rule="nonzero" stroke="#000000" stroke-width="1.5" stroke-linecap="butt" stroke-linejoin="miter"/><path d="M189.29672,149.99003c0,0 14.93656,-11.97252 19.69505,-17.63384c5.25391,-6.25074 19.77362,-16.53702 19.77362,-16.53702l17.36213,3.96822l-22.35121,45.48579z" fill="#0004ff" fill-rule="nonzero" stroke="#000000" stroke-width="1.5" stroke-linecap="butt" stroke-linejoin="miter"/><g fill-rule="nonzero"><g stroke-width="1.5"><path d="M205.51681,188.58355c0.28303,-6.44699 5.05911,-34.68627 11.89691,-61.48204c1.71803,-6.73255 4.63816,-11.83215 12.80718,-13.88016c0.68225,-0.17104 2.40896,-0.19845 2.40896,-0.19845c0,0 -0.33676,-6.80515 1.625,-10.09076c1.4928,-2.50019 5.15846,-1.69955 6.39563,-1.69249c2.15492,0.01229 6.02607,-0.32498 6.97611,3.19109c0.62973,2.33061 -1.0354,8.51727 -1.0354,8.51727c0,0 3.92194,0.94099 4.57857,1.19258c9.02455,3.45779 11.3233,10.62107 11.74727,12.82209c1.72224,8.94069 10.13003,51.9194 10.21589,62.55249c0.04719,5.84466 -1.41038,22.2869 -35.04451,22.10792c-31.24615,-0.16626 -32.78556,-18.16579 -32.5716,-23.03952z" data-paper-data="{&quot;index&quot;:null}" fill="#ffffff" stroke="#000000" stroke-linecap="butt" stroke-linejoin="miter"/><path d="M211.11546,183.56133c0.218,-5.28133 3.89666,-28.4148 9.16331,-50.36572c1.75012,-7.29434 5.11979,-14.09195 17.31989,-14.01792c14.30894,0.0868 17.2939,11.50769 17.72794,13.90419c1.32651,7.32415 7.80241,42.53207 7.86854,51.24265c0.03635,4.78791 -1.08631,18.25727 -26.99218,18.11066c-24.06659,-0.13621 -25.25229,-14.8813 -25.08749,-18.87383z" data-paper-data="{&quot;index&quot;:null}" fill="#0004ff" stroke="#000000" stroke-linecap="butt" stroke-linejoin="miter"/><path d="M235.11352,202.04071c0,0 -1.19105,-29.96832 -0.60946,-51.7485c0.56685,-21.22877 2.77801,-30.67277 2.77801,-30.67277" fill="none" stroke="#000000" stroke-linecap="round" stroke-linejoin="miter"/><path d="M235.35914,134.63002c1.08996,-1.89426 3.2781,-3.15497 5.7298,-3.05921c3.37998,0.13202 5.97531,2.78433 5.79316,5.92037c-0.35874,6.17618 -7.66404,7.8103 -12.49674,13.90417c-4.36017,-6.49184 -11.19916,-8.43545 -10.8286,-14.81524c0.18215,-3.13603 3.07314,-5.57407 6.45312,-5.44204c2.45172,0.09576 4.48384,1.5213 5.34926,3.49196z" fill="#ff007c" stroke="#000000" stroke-linecap="butt" stroke-linejoin="round"/><path d="M240.37263,133.30893c1.04627,-0.59132 2.74466,-0.05899 3.79349,1.18898c1.04882,1.24796 1.05092,2.73899 0.00466,3.3303c-1.04627,0.59131 -2.74466,0.05898 -3.79349,-1.18899c-1.04882,-1.24796 -1.05092,-2.73899 -0.00466,-3.33029z" fill="url(#color-1)" stroke="none" stroke-linecap="butt" stroke-linejoin="miter"/><path d="M228.76564,143.06896c-1.16243,-1.17827 -1.68745,-2.41764 -1.17266,-2.76821c0.51479,-0.35057 1.87446,0.32044 3.0369,1.4987c1.16244,1.17826 1.68745,2.41763 1.17266,2.7682c-0.5148,0.35057 -1.87446,-0.32043 -3.0369,-1.49869z" fill="url(#color-2)" stroke="none" stroke-linecap="butt" stroke-linejoin="miter"/></g><g fill="none" stroke="none" stroke-width="1" stroke-linecap="butt" stroke-linejoin="miter" font-family="sans-serif" font-weight="normal" font-size="12" text-anchor="start"><g/><g data-paper-data="{&quot;index&quot;:null}"/></g></g><path d="M240.3134,18.14812c27.4596,0 49.71999,22.57393 49.71999,50.42027c0,27.84635 -22.26039,42.08694 -49.71999,42.08694c-27.45959,0 -49.72,-14.24059 -49.72,-42.08693c0,-27.84634 22.26041,-50.42027 49.72,-50.42027z" fill="#ffffff" fill-rule="nonzero" stroke="#000000" stroke-width="1.5" stroke-linecap="butt" stroke-linejoin="miter"/><path d="M227.16959,81.16614c0,0 3.48965,-3.65481 9.22758,-3.65481c6.65559,0 10.56705,3.65481 10.56705,3.65481" fill="none" fill-rule="nonzero" stroke="#000000" stroke-width="1.5" stroke-linecap="round" stroke-linejoin="miter"/><path d="M215.95915,36.27772c9.19618,0 16.65115,11.70499 16.65115,26.14385c0,14.43886 -7.45498,26.14385 -16.65115,26.14385c-9.19617,0 -16.65113,-11.705 -16.65113,-26.14385c0,-14.43886 7.45496,-26.14384 16.65113,-26.14384z" fill="#ffffff" fill-rule="nonzero" stroke="#000000" stroke-width="1.5" stroke-linecap="butt" stroke-linejoin="miter"/><path d="M275.5609,63.04404c0,14.43885 -7.45497,26.14385 -16.65114,26.14385c-9.19617,0 -16.65115,-11.705 -16.65115,-26.14384c0,-14.43886 7.45497,-26.14384 16.65115,-26.14384c9.19617,0 16.65114,11.70499 16.65114,26.14385z" data-paper-data="{&quot;index&quot;:null}" fill="#ffffff" fill-rule="nonzero" stroke="#000000" stroke-width="1.5" stroke-linecap="butt" stroke-linejoin="miter"/><path d="M248.71205,95.18633c0,0 -0.97564,2.76168 -4.81808,2.76168c-3.32157,0 -5.72961,-2.07126 -5.72961,-2.07126c0,0 -2.29262,2.19403 -5.07851,2.20934c-3.56714,0.0196 -4.9483,-2.76168 -4.9483,-2.76168" fill="none" fill-rule="nonzero" stroke="#000000" stroke-width="1.5" stroke-linecap="round" stroke-linejoin="miter"/><g fill-rule="nonzero" stroke-width="1.5" stroke-linecap="butt" stroke-linejoin="miter"><path d="M258.10317,44.05752c5.93024,0 10.73765,8.26317 10.73765,18.45631c0,10.19314 -4.80741,18.4563 -10.73765,18.4563c-5.93024,0 -10.73763,-8.26316 -10.73763,-18.4563c0,-10.19315 4.8074,-18.45631 10.73763,-18.45631z" fill="#0004ff" stroke="#000000"/><path d="M250.33018,62.16514c0,-7.88162 3.48298,-14.27093 7.77947,-14.27093c4.29648,0 7.77948,6.38931 7.77948,14.27093c0,7.88162 -3.48299,14.27093 -7.77948,14.27093c-4.29648,0 -7.77946,-6.3893 -7.77946,-14.27093z" fill="#000000" stroke="none"/><path d="M261.55188,75.69016c0,1.65177 -1.2173,2.99079 -2.71891,2.99079c-1.50161,0 -2.71891,-1.33902 -2.71891,-2.99079c0,-1.65177 1.2173,-2.9908 2.71891,-2.9908c1.50161,0 2.71891,1.33902 2.71891,2.9908z" fill="#ffffff" stroke="none"/><path d="M264.98042,71.91873c0,1.13105 -0.83354,2.04793 -1.86177,2.04793c-1.02823,0 -1.86177,-0.91689 -1.86177,-2.04793c0,-1.13105 0.83354,-2.04794 1.86177,-2.04794c1.02823,0 1.86177,0.91689 1.86177,2.04794z" fill="#ffffff" stroke="none"/><path d="M256.14908,47.25934c3.64354,0 6.59722,4.2428 6.59722,9.47656c0,5.23376 -2.95367,9.47657 -6.5972,9.47657c-3.64354,0 -6.59722,-4.24282 -6.59722,-9.47657c0,-5.23376 2.95369,-9.47656 6.59722,-9.47656z" fill="#ffffff" stroke="none"/></g><g fill-rule="nonzero" stroke-width="1.5" stroke-linecap="butt" stroke-linejoin="miter"><path d="M221.26574,43.68507c5.93024,0 10.73763,8.26316 10.73763,18.45631c0,10.19313 -4.80739,18.4563 -10.73763,18.4563c-5.93024,0 -10.73765,-8.26317 -10.73765,-18.45631c0,-10.19314 4.80741,-18.45631 10.73765,-18.45631z" fill="#0004ff" stroke="#000000"/><path d="M221.25926,76.06362c-4.29649,0 -7.77947,-6.38931 -7.77947,-14.27094c0,-7.88162 3.48298,-14.27093 7.77947,-14.27093c4.29649,0 7.77947,6.38931 7.77947,14.27093c0,7.88163 -3.48298,14.27094 -7.77947,14.27094z" fill="#000000" stroke="none"/><path d="M222.64908,47.36648c3.64354,0 6.59722,4.2428 6.59722,9.47656c0,5.23376 -2.95367,9.47657 -6.5972,9.47657c-3.64354,0 -6.59722,-4.24282 -6.59722,-9.47657c0,-5.23376 2.95369,-9.47656 6.59722,-9.47656z" fill="#ffffff" stroke="none"/><path d="M222.76616,75.08302c0,1.65177 -1.2173,2.99079 -2.71891,2.99079c-1.50161,0 -2.71891,-1.33902 -2.71891,-2.99079c0,-1.65177 1.2173,-2.9908 2.71891,-2.9908c1.50161,0 2.71891,1.33902 2.71891,2.9908z" fill="#ffffff" stroke="none"/><path d="M218.19474,71.02587c0,1.13105 -0.83355,2.04793 -1.86177,2.04793c-1.02822,0 -1.86176,-0.91689 -1.86176,-2.04793c0,-1.13105 0.83354,-2.04794 1.86176,-2.04794c1.02822,0 1.86177,0.91689 1.86177,2.04794z" fill="#ffffff" stroke="none"/></g><g fill="none" fill-rule="nonzero" stroke="#000000" stroke-width="1.5" stroke-linejoin="miter"><path d="M239.01965,79.35306c0,-3.10793 0,-7.02389 0,-8.46154c0,-1.07371 2.02283,-2.2951 4.06993,-2.2951c4.95046,0 25.91032,0 34.61538,0c2.35628,0 3.81468,1.1064 3.81468,2.67972c0,3.19131 0,8.30365 0,10c0,1.0834 -1.8596,2.32028 -4.77622,2.32028c-9.37308,0 -29.66273,0 -34.23077,0c-1.79233,0 -3.49301,-1.89004 -3.49301,-4.24336z" stroke-linecap="butt"/><path d="M289.62802,75.89153h-7.5" stroke-linecap="round"/><path d="M238.48701,75.89153h-5.39743" stroke-linecap="round"/><path d="M233.08957,79.35306c0,2.35332 -1.70068,4.24336 -3.49301,4.24336c-4.56804,0 -24.85769,0 -34.23077,0c-2.91662,0 -4.77622,-1.23688 -4.77622,-2.32028c0,-1.69635 0,-6.80869 0,-10c0,-1.57332 1.4584,-2.67972 3.81468,-2.67972c8.70506,0 29.66492,0 34.61538,0c2.0471,0 4.06993,1.22139 4.06993,2.2951c0,1.43765 0,5.35361 0,8.46154z" data-paper-data="{&quot;index&quot;:null}" stroke-linecap="butt"/></g><g fill-rule="nonzero" stroke-width="1.5" stroke-linecap="butt" stroke-linejoin="miter"><g><path d="M257.09337,31.19287c-6.83169,4.10476 -13.75106,8.13198 -19.04473,14.02452c-1.32433,1.47414 -2.38865,1.46487 -3.5425,3.12567c-1.43894,2.07117 -1.09536,6.94893 -0.7618,9.27042c0.22872,1.59177 1.53889,3.03973 1.34157,4.63564c-0.0117,0.09455 -0.02525,0.1887 -0.04054,0.28248h0.06344v3.02314c0,0.97395 -0.79399,1.76351 -1.77341,1.76351c-0.90321,0 -1.64871,-0.67145 -1.75927,-1.53977l-0.30329,-2.11113c-1.51831,-2.93538 -3.0713,-6.0111 -3.99084,-9.2231c-1.42819,9.91237 -1.75137,21.11967 2.06008,30.39787l1.03487,0.82325c0.41308,0.32287 0.67834,0.82424 0.67834,1.38724c0,0.97395 -0.79398,1.76351 -1.7734,1.76351c-0.24705,0 -0.48229,-0.05022 -0.69596,-0.14097l-1.65163,-0.65697l0.04475,-0.11126l-0.27899,-0.00244c-0.87427,-0.68624 -2.34898,-1.58968 -3.48205,-2.57173c-0.61558,3.88907 -2.10912,5.96146 -4.90078,8.73242c-5.94229,4.93095 -11.31922,6.89585 -19.09893,6.84345c-1.48182,-0.00998 -2.9324,-0.43219 -4.38888,-0.70363c-0.7468,-0.13919 -1.64544,0.35037 -2.27841,-0.06759c-1.21799,-0.80427 -2.8457,-1.86345 -2.84781,-3.31735c-0.00165,-1.1277 1.94058,-1.1758 2.8403,-1.86227c0.8173,-0.62365 1.64187,-1.30763 2.17283,-2.18548c0.56358,-0.93181 1.07993,-2.33637 1.7119,-3.6233c-0.01696,-0.0006 -0.03394,-0.00138 -0.05098,-0.00238c-3.01054,-0.17967 -5.97417,-5.01179 -7.42464,-7.17332c-4.61856,-6.88272 -6.58122,-15.30087 -4.63771,-23.52667c0.12292,-0.52044 0.26979,-1.0309 0.43658,-1.53303c-0.84879,0.45271 -1.75,0.56807 -2.67958,0.06419c-1.16,-0.62877 -0.66887,-2.54889 -0.84107,-3.85145c-0.34758,-2.629 0.39536,-5.70069 1.07912,-8.20148c2.49675,-9.13179 7.29512,-15.23612 14.43287,-21.04231c1.60977,-1.30948 3.06093,-2.60966 4.745,-3.63132c-2.53622,0.36239 -5.97233,0.69443 -7.67176,0.00874c-0.10428,-0.04209 -0.20589,-0.08879 -0.30508,-0.13952l-0.01818,0.04521l-1.65061,-0.65654c-0.67353,-0.25008 -1.15313,-0.89564 -1.15313,-1.65261c0,-0.79328 0.52676,-1.46425 1.25141,-1.68587l1.86325,-0.6176c7.65564,-4.3368 17.97588,-6.18652 26.6956,-6.17809c1.27066,0.00123 2.83133,-0.10103 4.30159,0.03628c-0.69453,-0.67542 -1.38878,-1.3536 -2.11957,-2.00915c-1.23072,-1.10401 -2.99203,-1.63959 -3.98196,-2.96155c-0.03532,-0.04714 -0.06972,-0.09487 -0.10325,-0.14306l-0.0264,0.02627l-1.144,-1.1376c-0.38402,-0.24348 -0.7266,-0.67789 -0.7266,-1.45298c0,-1.04999 0.62869,-1.4748 1.13741,-1.64669c0.19744,-0.07544 0.41183,-0.11682 0.63599,-0.11682c0.00807,0 0.01615,0.00005 0.0242,0.00015c4.21793,0.03125 7.52436,1.73089 11.39516,3.13057c7.90585,2.85878 15.35327,5.95381 21.56413,11.53959c0.18862,0.10027 0.37871,0.19811 0.57048,0.29314c2.4847,1.23098 4.87797,2.50377 6.95003,4.10201l1.3654,0.5431c2.58976,1.05773 5.53731,2.79533 7.61777,4.69009c0.09164,0.08346 0.18878,0.16446 0.28853,0.24452c0.68111,0.20137 1.06282,0.83401 1.06282,0.83401c0.33899,0.56184 0.6776,1.12391 1.01582,1.68621c1.38664,1.55073 -9.88497,2.34558 -13.2335,4.15983z" fill="#0004ff" stroke="none"/><path d="M228.83423,85.30865l1.01918,0.81077c0.40682,0.31798 0.66808,0.81176 0.66808,1.3662c0,0.95919 -0.78195,1.73677 -1.74654,1.73677c-0.24331,0 -0.47498,-0.04947 -0.68542,-0.13884l-1.62658,-0.647l0.04406,-0.10957l-0.27476,-0.0024c-0.861,-0.67584 -2.31337,-1.56558 -3.42926,-2.53274c-0.60625,3.83012 -2.07714,5.87107 -4.82647,8.60004c-5.85221,4.8562 -11.14763,6.7913 -18.80938,6.73971c-1.45937,-0.00983 -2.88796,-0.42563 -4.32235,-0.69295c-0.73548,-0.13707 -1.6205,0.34505 -2.24386,-0.06656c-1.19952,-0.79208 -2.80255,-1.83519 -2.80464,-3.26705c-0.00162,-1.11059 1.91117,-1.15797 2.79723,-1.83403c0.80491,-0.61417 1.61697,-1.28779 2.13989,-2.15236c0.55506,-0.91768 1.06356,-2.30094 1.68594,-3.56836c-0.01669,-0.00059 -0.03343,-0.00136 -0.05021,-0.00236c-2.9649,-0.17695 -5.88359,-4.93581 -7.31208,-7.06456c-4.54853,-6.7784 -6.48146,-15.0689 -4.5674,-23.17001c0.12108,-0.51255 0.26569,-1.01527 0.42996,-1.50979c-0.83592,0.44585 -1.72347,0.55946 -2.63894,0.06323c-1.14241,-0.61924 -0.65873,-2.51026 -0.82831,-3.79306c-0.29989,-2.26815 0.22444,-4.87089 0.8118,-7.13712c1.76619,4.0568 4.30412,8.68626 8.79257,9.80839c3.59505,0.89876 7.78406,-2.24249 10.61293,-3.49404c1.58723,-0.70223 3.27555,-2.50133 4.87537,-1.82826c2.55183,1.07359 1.34198,8.64085 4.9378,9.74318c5.96603,1.82893 6.84182,-3.42378 12.65298,-4.83221c0.05787,-0.01402 1.38247,0.54176 2.41003,0.95621c-1.17114,9.27022 -1.22135,19.47501 2.28843,28.01881z" fill="#3573ff" stroke="none"/><path d="M256.80052,31.21378c-6.83169,4.10476 -13.75106,8.13198 -19.04473,14.02452c-1.32433,1.47414 -2.38865,1.46487 -3.5425,3.12567c-1.43894,2.07117 -1.09536,6.94893 -0.7618,9.27042c0.22872,1.59177 1.53889,3.03973 1.34157,4.63564c-0.0117,0.09455 -0.02525,0.1887 -0.04054,0.28248h0.06344v3.02314c0,0.97395 -0.79399,1.76351 -1.77341,1.76351c-0.90321,0 -1.64871,-0.67146 -1.75927,-1.53978l-0.30329,-2.11113c-1.51831,-2.93538 -3.0713,-6.0111 -3.99084,-9.2231c-1.42819,9.91237 -1.75137,21.11967 2.06008,30.39787l1.03487,0.82325c0.41308,0.32287 0.67834,0.82425 0.67834,1.38724c0,0.97395 -0.79398,1.76351 -1.7734,1.76351c-0.24705,0 -0.4823,-0.05023 -0.69596,-0.14098l-2.75065,-1.63386l1.14378,0.86565l-0.27899,-0.00243c-0.87427,-0.68624 -2.34898,-1.58968 -3.48205,-2.57173c-0.61558,3.88907 -2.1091,5.96146 -4.90077,8.73243c-5.94229,4.93094 -11.31922,6.89584 -19.09893,6.84345c-1.48182,-0.00998 -2.93241,-0.43219 -4.38888,-0.70363c-0.7468,-0.13919 -1.64544,0.35037 -2.27841,-0.06759c-1.21799,-0.80427 -2.8457,-1.86345 -2.84781,-3.31734c-0.00165,-1.1277 1.94058,-1.17579 2.8403,-1.86227c0.8173,-0.62365 1.64187,-1.30763 2.17283,-2.18549c0.56358,-0.93181 1.07994,-2.33636 1.71191,-3.6233c-0.01696,-0.0006 -0.03394,-0.00139 -0.05099,-0.0024c-3.01054,-0.17967 -5.97417,-5.01179 -7.42464,-7.17332c-4.61856,-6.88272 -6.58122,-15.30087 -4.63771,-23.52667c0.12292,-0.52044 0.26979,-1.03091 0.43658,-1.53303c-0.84879,0.45271 -1.75,0.56807 -2.67957,0.0642c-1.16,-0.62877 -0.66888,-2.5489 -0.84107,-3.85145c-0.34758,-2.629 0.39536,-5.70069 1.07912,-8.20148c2.49675,-9.13179 7.29512,-15.23612 14.43287,-21.04232c1.60977,-1.30948 3.06093,-2.60966 4.745,-3.63132c-2.53622,0.36239 -5.97233,0.69443 -7.67177,0.00874c-0.10428,-0.04209 -0.20589,-0.08879 -0.30508,-0.13952l-0.01818,0.04521l-1.65061,-0.65655c-0.67353,-0.25008 -1.15313,-0.89564 -1.15313,-1.65261c0,-0.79328 0.52676,-1.46425 1.2514,-1.68587l1.86326,-0.61761c7.65564,-4.3368 17.97588,-6.18652 26.6956,-6.17809c1.27066,0.00123 2.83133,-0.10103 4.3016,0.03628c-0.69453,-0.67542 -1.38878,-1.3536 -2.11957,-2.00915c-1.23072,-1.10401 -2.99203,-1.63959 -3.98196,-2.96155c-0.03532,-0.04714 -0.06972,-0.09487 -0.10325,-0.14305l-0.0264,0.02626l-1.144,-1.1376c-0.38402,-0.24348 -0.7266,-0.67789 -0.7266,-1.45298c0,-1.04999 0.6287,-1.4748 1.13742,-1.64669c0.19744,-0.07544 0.41183,-0.11682 0.63598,-0.11682c0.00807,0 0.01615,0.00005 0.0242,0.00015c4.21793,0.03125 7.52436,1.73089 11.39516,3.13057c7.90585,2.85878 15.35327,5.95381 21.56413,11.53959c0.18862,0.10027 0.37871,0.19812 0.57048,0.29314c2.4847,1.23098 4.87797,2.50377 6.95003,4.10201l1.3654,0.5431c2.58976,1.05773 5.53731,2.79533 7.61776,4.69009c0.09164,0.08346 0.18878,0.16446 0.28853,0.24452c0.68111,0.20137 1.06282,0.83401 1.06282,0.83401c0.33899,0.56184 0.6776,1.12391 1.01582,1.68621c1.38664,1.55073 -9.88499,2.3456 -13.23352,4.15985z" fill="none" stroke="#000000"/></g><g fill="#00039b" stroke="#000000"><path d="M201.95931,54.16112l-5.44287,-5.18542l7.42652,-1.16567l3.25009,-6.77811l3.40308,6.70232l7.4516,0.99483l-5.32286,5.31011l1.35447,7.39256l-6.69276,-3.42063l-6.61419,3.57102z"/><path d="M220.80743,59.08539l-5.44287,-5.18542l7.42652,-1.16567l3.25009,-6.77811l3.40309,6.70233l7.4516,0.99483l-5.32286,5.31011l1.35447,7.39256l-6.69276,-3.42063l-6.61419,3.57102z"/><path d="M181.58298,50.25565l-5.44287,-5.18543l7.42652,-1.16566l3.25009,-6.77811l3.40309,6.70233l7.45159,0.99482l-5.32286,5.31011l1.35447,7.39256l-6.69276,-3.42063l-6.61419,3.57102z"/></g></g><g data-paper-data="{&quot;index&quot;:null}" fill="#ffffff" fill-rule="nonzero" stroke="#000000" stroke-width="1.5" stroke-linejoin="miter"><g><path d="M262.10031,29.52357l6.16735,-3.61211c0,0 5.29351,2.04815 11.5023,10.78518c5.555,7.81702 6.66318,15.3171 6.66318,15.3171l-2.00133,5.90562l-6.95751,-3.15965c0,0 -1.52401,-6.9668 -5.299,-13.37167c-4.25246,-7.21497 -10.075,-11.86448 -10.075,-11.86448z" stroke-linecap="butt"/><path d="M265.92791,27.596c0,0 6.62919,5.88216 10.89457,13.17583c4.01867,6.87182 6.93377,17.07518 6.93377,17.07518" stroke-linecap="round"/></g><g><path d="M266.28722,27.35099l5.60531,-4.29566c0,0 5.61461,1.36191 13.18867,9.17156c6.77653,6.9873 9.05554,14.20699 9.05554,14.20699l-1.0802,6.03593l-6.40401,-0.294c0,0 -3.66026,-8.60056 -8.43588,-14.42046c-5.37967,-6.55602 -11.92944,-10.40434 -11.92944,-10.40434z" stroke-linecap="butt"/><path d="M269.48359,25.13755c0,0 7.66613,4.82204 13.22204,11.35105c5.23457,6.15139 9.95871,15.7094 9.95871,15.7094" stroke-linecap="round"/></g></g><path d="M272.10364,15.30381l-0.32411,8.17818l6.4728,4.7826l-7.77258,2.35498l-2.61768,7.78669l-4.48512,-6.71908l-8.07846,0.02702l5.00128,-6.51705l-2.38256,-7.76417l7.58053,2.70299z" fill="#0004ff" fill-rule="evenodd" stroke="#000000" stroke-width="1.5" stroke-linecap="round" stroke-linejoin="round"/><g fill-rule="nonzero" stroke="#000000" stroke-width="1.5" stroke-linecap="butt" stroke-linejoin="miter"><path d="M204.85393,185.86209l11.61621,-69.66181l11.39748,-2.49268c0,0 0.64902,14.43686 5.67108,14.46194c5.02206,0.02508 15.31567,-14.35711 15.31567,-14.35711l12.23368,2.38785l12.69302,70.70532z" fill="#0004ff"/><path d="M232.20101,159.6045l-10.75048,5.74445l1.98021,-12.0269l-8.78401,-8.44944l12.04917,-1.83281l5.31941,-10.96733l5.47018,10.8946l12.07059,1.67225l-8.66863,8.56592l2.13616,11.99885z" fill="#00039b"/><g fill="#00039b"><path d="M215.62759,180.13939l-4.56148,2.41018l0.86182,-5.08652l-3.70122,-3.59356l5.10346,-0.752l2.27307,-4.63148l2.2938,4.62196l5.10562,0.73157l-3.68589,3.60848l0.8805,5.08276z"/><path d="M230.70935,180.45359l-4.56148,2.41018l0.86181,-5.08652l-3.70121,-3.59356l5.10346,-0.752l2.27307,-4.63149l2.2938,4.62196l5.10562,0.73157l-3.68589,3.60848l0.88049,5.08275z"/><path d="M246.73372,180.45359l-4.56149,2.41018l0.86182,-5.08652l-3.70121,-3.59356l5.10346,-0.752l2.27307,-4.63149l2.29381,4.62196l5.10562,0.73157l-3.6859,3.60848l0.88049,5.08275z"/><path d="M262.44388,180.13939l-4.56149,2.41018l0.86182,-5.08652l-3.70121,-3.59356l5.10346,-0.752l2.27307,-4.63149l2.2938,4.62196l5.10562,0.73157l-3.6859,3.60848l0.8805,5.08275z"/></g></g><g fill-rule="nonzero" stroke-linecap="butt" stroke-linejoin="miter"><g fill="#00039b" stroke="#000000" stroke-width="1.5"><g data-paper-data="{&quot;index&quot;:null}"><path d="M217.47463,123.53941c0,0 -2.95588,-0.78142 -2.95588,-3.94678c0,-2.48016 2.95588,-4.11124 2.95588,-4.11124c0,0 -2.95588,-1.3156 -2.95588,-3.94678c0,-3.28898 2.95588,-3.94678 2.95588,-3.94678c0,0 9.59315,-1.28903 21.29645,-1.21536c17.06032,0.10738 23.04181,1.06344 23.04181,1.06344c0,0 2.95589,1.44126 2.95589,4.26314c0,2.27375 -2.95589,3.78233 -2.95589,3.78233c0,0 3.05374,1.90293 2.95589,4.44012c-0.12611,3.27008 -2.95589,3.61789 -2.95589,3.61789c0,0 -11.30208,1.26461 -24.54181,1.06344c-11.4521,-0.174 -19.79645,-1.06344 -19.79645,-1.06344z" data-paper-data="{&quot;index&quot;:null}"/><path d="M274.86652,176.91644l-6.54664,9.10093c0,0 -9.98025,-16.17176 -12.61024,-32.70519c-1.44197,-9.06497 -4.27599,-28.77958 -4.27599,-28.77958c0,0 4.1124,-0.44546 5.97434,-0.67506c1.93934,-0.23915 5.43896,-0.73235 5.43896,-0.73235c0,0 1.71106,9.72245 8.00241,24.45568c7.66085,17.94035 20.77482,31.34255 20.77482,31.34255z" data-paper-data="{&quot;index&quot;:null}"/></g></g><g fill="none" stroke="none" stroke-width="1" font-family="sans-serif" font-weight="normal" font-size="12" text-anchor="start"/><g fill="none" stroke="none" stroke-width="1" font-family="sans-serif" font-weight="normal" font-size="12" text-anchor="start"/></g></g></g></svg>