<svg version="1.1" xmlns="http://www.w3.org/2000/svg" xmlns:xlink="http://www.w3.org/1999/xlink" width="817" height="749.19909" viewBox="0,0,817,749.19909"><g transform="translate(189,122.19909)"><g data-paper-data="{&quot;isPaintingLayer&quot;:true}" fill-rule="nonzero" stroke-linecap="butt" stroke-linejoin="miter" stroke-miterlimit="10" stroke-dasharray="" stroke-dashoffset="0" style="mix-blend-mode: normal"><path d="M-189,396.50001v-433h817v433z" fill="#5ac3ff" stroke="none" stroke-width="0"/><path d="M-42.99406,124.70556l7.76114,-31.04456c0,0 276.03778,38.08615 377.8705,63.54433c104.41936,26.10484 241.08041,91.1934 241.08041,91.1934l-7.76114,31.04456c0,0 -140.20591,-69.0671 -235.50209,-92.89114c-109.13781,-27.28445 -383.44882,-61.84658 -383.44882,-61.84658z" fill="#ff66e6" stroke="none" stroke-width="0"/><path d="M-53.99406,200.15343l7.76114,-31.04456c0,0 276.03778,38.08615 377.8705,63.54433c104.41936,26.10484 241.08041,91.1934 241.08041,91.1934l-7.76114,31.04456c0,0 -140.20591,-69.0671 -235.50209,-92.89114c-109.13781,-27.28445 -383.44882,-61.84658 -383.44882,-61.84658z" fill="#c766ff" stroke="none" stroke-width="0"/><path d="M-23.99406,5.15343l7.76114,-31.04455c0,0 276.03778,38.08615 377.8705,63.54433c104.41936,26.10484 241.08041,91.19339 241.08041,91.19339l-7.76114,31.04456c0,0 -140.20591,-69.06709 -235.50209,-92.89114c-109.13781,-27.28445 -383.44882,-61.84659 -383.44882,-61.84659z" fill="#ffca66" stroke="none" stroke-width="0"/><path d="M302.10391,156.12281c49.32451,-84.94727 97.49858,-233.63225 97.49858,-233.63225l27.67321,16.06841c0,0 -48.55703,143.37007 -102.60363,236.44978c-52.70777,90.77396 -217.76024,315.28475 -217.76024,315.28475l-27.67321,-16.06841c0,0 166.37646,-220.81654 222.86529,-318.10228z" data-paper-data="{&quot;index&quot;:null}" fill="#ff66e6" stroke="none" stroke-width="0"/><path d="M240.32838,111.43317c49.32451,-84.94727 97.49858,-233.63225 97.49858,-233.63225l27.67321,16.06841c0,0 -48.55703,143.37008 -102.60363,236.44978c-52.70777,90.77396 -217.76024,315.28475 -217.76024,315.28475l-27.67321,-16.06841c0,0 166.37646,-220.81654 222.86529,-318.10228z" data-paper-data="{&quot;index&quot;:null}" fill="#c766ff" stroke="none" stroke-width="0"/><path d="M401.08528,225.8107c49.32451,-84.94727 97.49858,-233.63225 97.49858,-233.63225l27.67321,16.06841c0,0 -48.55703,143.37007 -102.60363,236.44978c-52.70777,90.77396 -217.76024,315.28475 -217.76024,315.28475l-27.6732,-16.0684c0,0 166.37646,-220.81654 222.86529,-318.10228z" data-paper-data="{&quot;index&quot;:null}" fill="#ffca66" stroke="none" stroke-width="0"/><path d="M358.7716,184.69437c49.32451,-84.94727 97.49858,-233.63225 97.49858,-233.63225l27.67321,16.06841c0,0 -48.55703,143.37007 -102.60363,236.44978c-52.70777,90.77396 -217.76024,315.28475 -217.76024,315.28475l-27.6732,-16.0684c0,0 166.37646,-220.81654 222.86529,-318.10228z" data-paper-data="{&quot;index&quot;:null}" fill="#ff6666" stroke="none" stroke-width="0"/><path d="M-23.99406,64.15343l7.76114,-31.04455c0,0 276.03778,38.08615 377.8705,63.54433c104.41936,26.10484 241.08041,91.1934 241.08041,91.1934l-7.76114,31.04456c0,0 -140.20591,-69.06709 -235.50209,-92.89114c-109.13781,-27.28445 -383.44882,-61.84659 -383.44882,-61.84659z" fill="#ff6666" stroke="none" stroke-width="0"/><path d="M608.5,414.00001c0,117.08437 -164.98307,212 -368.5,212c-203.51693,0 -368.5,-94.91563 -368.5,-212c0,-117.08437 164.98307,-212 368.5,-212c203.51693,0 368.5,94.91563 368.5,212z" fill="#4bbd5f" stroke="#000000" stroke-width="2"/><g><path d="M90.63458,90.7816c-3.284,1.9833 -12.9326,-8.2681 -12.9326,-8.2681c0,0 -11.243,8.4819 -14.1459,5.9705c-2.9054,-2.5113 3.8662,-14.8593 3.8662,-14.8593c0,0 -11.5392,-8.0723 -10.0479,-11.6087c1.4913,-3.5391 15.3255,-0.9144 15.3255,-0.9144c0,0 4.1083,-13.4684 7.9332,-13.1464c3.8301,0.3245 5.6099,14.2952 5.6099,14.2952c0,0 14.0789,-0.255 14.9495,3.4849c0.8783,3.7374 -11.8586,9.7491 -11.8586,9.7491c0,0 4.5925,13.3139 1.3007,15.2972z" fill="#ffff00" stroke="#000000" stroke-width="1.28786"/><path d="M84.23908,81.0119c-1.6536,0.9968 -6.5037,-4.1572 -6.5037,-4.1572c0,0 -5.6485,4.2628 -7.1064,3.0007c-1.4578,-1.2621 1.9421,-7.4644 1.9421,-7.4644c0,0 -5.7953,-4.0594 -5.0484,-5.834c0.7496,-1.7773 7.6988,-0.4585 7.6988,-0.4585c0,0 2.0658,-6.769 3.9898,-6.6041c1.9215,0.1622 2.8127,7.1811 2.8127,7.1811c0,0 7.0781,-0.1263 7.5159,1.7514c0.4431,1.8803 -5.955,4.899 -5.955,4.899c0,0 2.3027,6.6892 0.6542,7.686z" fill="#ffffff" stroke="none" stroke-width="2.57572"/></g><g><path d="M405.63458,114.9497c-3.284,1.9833 -12.9326,-8.2681 -12.9326,-8.2681c0,0 -11.243,8.4819 -14.1459,5.9705c-2.9054,-2.5113 3.8662,-14.8593 3.8662,-14.8593c0,0 -11.5392,-8.0723 -10.0479,-11.6087c1.4913,-3.5391 15.3255,-0.9144 15.3255,-0.9144c0,0 4.1083,-13.4684 7.9332,-13.1464c3.8301,0.3245 5.6099,14.2952 5.6099,14.2952c0,0 14.0789,-0.255 14.9495,3.4849c0.8783,3.7374 -11.8586,9.7491 -11.8586,9.7491c0,0 4.5925,13.3139 1.3007,15.2972z" fill="#ffff00" stroke="#000000" stroke-width="1.28786"/><path d="M399.23908,105.18c-1.6536,0.9968 -6.5037,-4.1572 -6.5037,-4.1572c0,0 -5.6485,4.2628 -7.1064,3.0007c-1.4578,-1.2621 1.9421,-7.4644 1.9421,-7.4644c0,0 -5.7953,-4.0594 -5.0484,-5.834c0.7496,-1.7773 7.6988,-0.4585 7.6988,-0.4585c0,0 2.0658,-6.769 3.9898,-6.6041c1.9215,0.1622 2.8127,7.1811 2.8127,7.1811c0,0 7.0781,-0.1263 7.5159,1.7514c0.4431,1.8803 -5.955,4.899 -5.955,4.899c0,0 2.3027,6.6892 0.6542,7.686z" fill="#ffffff" stroke="none" stroke-width="2.57572"/></g><g><path d="M162.63458,147.28872c-3.284,1.9833 -12.9326,-8.2681 -12.9326,-8.2681c0,0 -11.243,8.4819 -14.1459,5.9705c-2.9054,-2.5113 3.8662,-14.8593 3.8662,-14.8593c0,0 -11.5392,-8.0723 -10.0479,-11.6087c1.4913,-3.5391 15.3255,-0.9144 15.3255,-0.9144c0,0 4.1083,-13.4684 7.9332,-13.1464c3.8301,0.3245 5.6099,14.2952 5.6099,14.2952c0,0 14.0789,-0.255 14.9495,3.4849c0.8783,3.7374 -11.8586,9.7491 -11.8586,9.7491c0,0 4.5925,13.3139 1.3007,15.2972z" fill="#ffff00" stroke="#000000" stroke-width="1.28786"/><path d="M156.23908,137.51902c-1.6536,0.9968 -6.5037,-4.1572 -6.5037,-4.1572c0,0 -5.6485,4.2628 -7.1064,3.0007c-1.4578,-1.2621 1.9421,-7.4644 1.9421,-7.4644c0,0 -5.7953,-4.0594 -5.0484,-5.834c0.7496,-1.7773 7.6988,-0.4585 7.6988,-0.4585c0,0 2.0658,-6.769 3.9898,-6.6041c1.9215,0.1622 2.8127,7.1811 2.8127,7.1811c0,0 7.0781,-0.1263 7.5159,1.7514c0.4431,1.8803 -5.955,4.899 -5.955,4.899c0,0 2.3027,6.6892 0.6542,7.686z" fill="#ffffff" stroke="none" stroke-width="2.57572"/></g><g><path d="M255.63458,54.39758c-3.284,1.9833 -12.9326,-8.2681 -12.9326,-8.2681c0,0 -11.243,8.4819 -14.1459,5.9705c-2.9054,-2.5113 3.8662,-14.8593 3.8662,-14.8593c0,0 -11.5392,-8.0723 -10.0479,-11.6087c1.4913,-3.5391 15.3255,-0.9144 15.3255,-0.9144c0,0 4.1083,-13.4684 7.9332,-13.1464c3.8301,0.3245 5.6099,14.2952 5.6099,14.2952c0,0 14.0789,-0.255 14.9495,3.4849c0.8783,3.7374 -11.8586,9.7491 -11.8586,9.7491c0,0 4.5925,13.3139 1.3007,15.2972z" fill="#ffff00" stroke="#000000" stroke-width="1.28786"/><path d="M249.23908,44.62788c-1.6536,0.9968 -6.5037,-4.1572 -6.5037,-4.1572c0,0 -5.6485,4.2628 -7.1064,3.0007c-1.4578,-1.2621 1.9421,-7.4644 1.9421,-7.4644c0,0 -5.7953,-4.0594 -5.0484,-5.834c0.7496,-1.7773 7.6988,-0.4585 7.6988,-0.4585c0,0 2.0658,-6.769 3.9898,-6.6041c1.9215,0.1622 2.8127,7.1811 2.8127,7.1811c0,0 7.0781,-0.1263 7.5159,1.7514c0.4431,1.8803 -5.955,4.899 -5.955,4.899c0,0 2.3027,6.6892 0.6542,7.686z" fill="#ffffff" stroke="none" stroke-width="2.57572"/></g><g><path d="M321.32081,164.39757c-3.284,1.9833 -12.9326,-8.2681 -12.9326,-8.2681c0,0 -11.243,8.4819 -14.1459,5.9705c-2.9054,-2.5113 3.8662,-14.8593 3.8662,-14.8593c0,0 -11.5392,-8.0723 -10.0479,-11.6087c1.4913,-3.5391 15.3255,-0.9144 15.3255,-0.9144c0,0 4.1083,-13.4684 7.9332,-13.1464c3.8301,0.3245 5.6099,14.2952 5.6099,14.2952c0,0 14.0789,-0.255 14.9495,3.4849c0.8783,3.7374 -11.8586,9.7491 -11.8586,9.7491c0,0 4.5925,13.3139 1.3007,15.2972z" fill="#ffff00" stroke="#000000" stroke-width="1.28786"/><path d="M314.92531,154.62787c-1.6536,0.9968 -6.5037,-4.1572 -6.5037,-4.1572c0,0 -5.6485,4.2628 -7.1064,3.0007c-1.4578,-1.2621 1.9421,-7.4644 1.9421,-7.4644c0,0 -5.7953,-4.0594 -5.0484,-5.834c0.7496,-1.7773 7.6988,-0.4585 7.6988,-0.4585c0,0 2.0658,-6.769 3.9898,-6.6041c1.9215,0.1622 2.8127,7.1811 2.8127,7.1811c0,0 7.0781,-0.1263 7.5159,1.7514c0.4431,1.8803 -5.955,4.899 -5.955,4.899c0,0 2.3027,6.6892 0.6542,7.686z" fill="#ffffff" stroke="none" stroke-width="2.57572"/></g><g><path d="M189.61596,74.39758c-3.284,1.9833 -12.9326,-8.2681 -12.9326,-8.2681c0,0 -11.243,8.4819 -14.1459,5.9705c-2.9054,-2.5113 3.8662,-14.8593 3.8662,-14.8593c0,0 -11.5392,-8.0723 -10.0479,-11.6087c1.4913,-3.5391 15.3255,-0.9144 15.3255,-0.9144c0,0 4.1083,-13.4684 7.9332,-13.1464c3.8301,0.3245 5.6099,14.2952 5.6099,14.2952c0,0 14.0789,-0.255 14.9495,3.4849c0.8783,3.7374 -11.8586,9.7491 -11.8586,9.7491c0,0 4.5925,13.3139 1.3007,15.2972z" fill="#ffff00" stroke="#000000" stroke-width="1.28786"/><path d="M183.22046,64.62788c-1.6536,0.9968 -6.5037,-4.1572 -6.5037,-4.1572c0,0 -5.6485,4.2628 -7.1064,3.0007c-1.4578,-1.2621 1.9421,-7.4644 1.9421,-7.4644c0,0 -5.7953,-4.0594 -5.0484,-5.834c0.7496,-1.7773 7.6988,-0.4585 7.6988,-0.4585c0,0 2.0658,-6.769 3.9898,-6.6041c1.9215,0.1622 2.8127,7.1811 2.8127,7.1811c0,0 7.0781,-0.1263 7.5159,1.7514c0.4431,1.8803 -5.955,4.899 -5.955,4.899c0,0 2.3027,6.6892 0.6542,7.686z" fill="#ffffff" stroke="none" stroke-width="2.57572"/></g><g><path d="M255.63458,144.39757c-3.284,1.9833 -12.9326,-8.2681 -12.9326,-8.2681c0,0 -11.243,8.4819 -14.1459,5.9705c-2.9054,-2.5113 3.8662,-14.8593 3.8662,-14.8593c0,0 -11.5392,-8.0723 -10.0479,-11.6087c1.4913,-3.5391 15.3255,-0.9144 15.3255,-0.9144c0,0 4.1083,-13.4684 7.9332,-13.1464c3.8301,0.3245 5.6099,14.2952 5.6099,14.2952c0,0 14.0789,-0.255 14.9495,3.4849c0.8783,3.7374 -11.8586,9.7491 -11.8586,9.7491c0,0 4.5925,13.3139 1.3007,15.2972z" fill="#ffff00" stroke="#000000" stroke-width="1.28786"/><path d="M249.23908,134.62787c-1.6536,0.9968 -6.5037,-4.1572 -6.5037,-4.1572c0,0 -5.6485,4.2628 -7.1064,3.0007c-1.4578,-1.2621 1.9421,-7.4644 1.9421,-7.4644c0,0 -5.7953,-4.0594 -5.0484,-5.834c0.7496,-1.7773 7.6988,-0.4585 7.6988,-0.4585c0,0 2.0658,-6.769 3.9898,-6.6041c1.9215,0.1622 2.8127,7.1811 2.8127,7.1811c0,0 7.0781,-0.1263 7.5159,1.7514c0.4431,1.8803 -5.955,4.899 -5.955,4.899c0,0 2.3027,6.6892 0.6542,7.686z" fill="#ffffff" stroke="none" stroke-width="2.57572"/></g><g><path d="M341.63458,90.7816c-3.284,1.9833 -12.9326,-8.2681 -12.9326,-8.2681c0,0 -11.243,8.4819 -14.1459,5.9705c-2.9054,-2.5113 3.8662,-14.8593 3.8662,-14.8593c0,0 -11.5392,-8.0723 -10.0479,-11.6087c1.4913,-3.5391 15.3255,-0.9144 15.3255,-0.9144c0,0 4.1083,-13.4684 7.9332,-13.1464c3.8301,0.3245 5.6099,14.2952 5.6099,14.2952c0,0 14.0789,-0.255 14.9495,3.4849c0.8783,3.7374 -11.8586,9.7491 -11.8586,9.7491c0,0 4.5925,13.3139 1.3007,15.2972z" fill="#ffff00" stroke="#000000" stroke-width="1.28786"/><path d="M335.23908,81.0119c-1.6536,0.9968 -6.5037,-4.1572 -6.5037,-4.1572c0,0 -5.6485,4.2628 -7.1064,3.0007c-1.4578,-1.2621 1.9421,-7.4644 1.9421,-7.4644c0,0 -5.7953,-4.0594 -5.0484,-5.834c0.7496,-1.7773 7.6988,-0.4585 7.6988,-0.4585c0,0 2.0658,-6.769 3.9898,-6.6041c1.9215,0.1622 2.8127,7.1811 2.8127,7.1811c0,0 7.0781,-0.1263 7.5159,1.7514c0.4431,1.8803 -5.955,4.899 -5.955,4.899c0,0 2.3027,6.6892 0.6542,7.686z" fill="#ffffff" stroke="none" stroke-width="2.57572"/></g><g><path d="M90.63458,188.7816c-3.284,1.9833 -12.9326,-8.2681 -12.9326,-8.2681c0,0 -11.243,8.4819 -14.1459,5.9705c-2.9054,-2.5113 3.8662,-14.8593 3.8662,-14.8593c0,0 -11.5392,-8.0723 -10.0479,-11.6087c1.4913,-3.5391 15.3255,-0.9144 15.3255,-0.9144c0,0 4.1083,-13.4684 7.9332,-13.1464c3.8301,0.3245 5.6099,14.2952 5.6099,14.2952c0,0 14.0789,-0.255 14.9495,3.4849c0.8783,3.7374 -11.8586,9.7491 -11.8586,9.7491c0,0 4.5925,13.3139 1.3007,15.2972z" fill="#ffff00" stroke="#000000" stroke-width="1.28786"/><path d="M84.23908,179.0119c-1.6536,0.9968 -6.5037,-4.1572 -6.5037,-4.1572c0,0 -5.6485,4.2628 -7.1064,3.0007c-1.4578,-1.2621 1.9421,-7.4644 1.9421,-7.4644c0,0 -5.7953,-4.0594 -5.0484,-5.834c0.7496,-1.7773 7.6988,-0.4585 7.6988,-0.4585c0,0 2.0658,-6.769 3.9898,-6.6041c1.9215,0.1622 2.8127,7.1811 2.8127,7.1811c0,0 7.0781,-0.1263 7.5159,1.7514c0.4431,1.8803 -5.955,4.899 -5.955,4.899c0,0 2.3027,6.6892 0.6542,7.686z" fill="#ffffff" stroke="none" stroke-width="2.57572"/></g><path d="M312.73862,300.5v-30h35v30z" fill="#0071ff" stroke="#000000" stroke-width="1"/><path d="M302.73862,215.25001v-26.5h35v26.5z" fill="#ff0008" stroke="#000000" stroke-width="1"/><path d="M303.23862,269.75v-29.5h34v29.5z" fill="#ffbd00" stroke="#000000" stroke-width="1"/><path d="M355.01877,301.03119l8.79036,-22.33226l31.17211,12.26987l-8.79036,22.33226z" fill="#00ff1e" stroke="#000000" stroke-width="1"/><path d="M315.73862,241.75v-26.5h35.5v26.5z" fill="#ff00e1" stroke="#000000" stroke-width="1"/></g></g></svg>