<svg version="1.1" xmlns="http://www.w3.org/2000/svg" xmlns:xlink="http://www.w3.org/1999/xlink" width="274.85924" height="364.0094" viewBox="0,0,274.85924,364.0094"><defs><radialGradient cx="251.8461" cy="132.32927" r="2.6824" gradientUnits="userSpaceOnUse" id="color-1"><stop offset="0" stop-color="#ff84c0"/><stop offset="1" stop-color="#ff84c0" stop-opacity="0"/></radialGradient><radialGradient cx="239.27216" cy="139.19487" r="2.30252" gradientUnits="userSpaceOnUse" id="color-2"><stop offset="0" stop-color="#ff84c0"/><stop offset="1" stop-color="#ff84c0" stop-opacity="0"/></radialGradient><linearGradient x1="255.74802" y1="11.09144" x2="255.74802" y2="22.35309" gradientUnits="userSpaceOnUse" id="color-3"><stop offset="0" stop-color="#35ff00"/><stop offset="1" stop-color="#1db300"/></linearGradient><linearGradient x1="255.74802" y1="11.09144" x2="255.74802" y2="22.35309" gradientUnits="userSpaceOnUse" id="color-4"><stop offset="0" stop-color="#00ff21"/><stop offset="1" stop-color="#00b317"/></linearGradient></defs><g transform="translate(-129.61424,3.42806)"><g data-paper-data="{&quot;isPaintingLayer&quot;:true}" stroke-miterlimit="10" stroke-dasharray="" stroke-dashoffset="0" style="mix-blend-mode: normal"><g fill="#006bff" fill-rule="nonzero" stroke="#000000" stroke-width="1.5" stroke-linecap="butt" stroke-linejoin="miter"><g><path d="M203.12599,211.92953c-1.5649,-7.33316 1.51627,-14.20611 6.882,-15.35116c5.36573,-1.14505 10.98412,3.8714 12.54901,11.20456c1.5649,7.33316 -1.51628,14.20611 -6.88201,15.35116c-5.36573,1.14505 -10.9841,-3.87141 -12.549,-11.20456z"/><path d="M185.15966,207.44983c1.89205,-7.25564 7.72966,-12.0152 13.03866,-10.63076c5.30901,1.38443 8.07899,8.38858 6.18694,15.64422c-1.89205,7.25564 -7.72967,12.0152 -13.03867,10.63076c-5.30901,-1.38443 -8.07898,-8.38858 -6.18693,-15.64422z"/><path d="M171.11158,194.1177c4.98438,-5.60179 12.34781,-7.18637 16.44669,-3.53927c4.09887,3.64711 3.38103,11.14483 -1.60335,16.74662c-4.98438,5.60179 -12.34782,7.18637 -16.4467,3.53927c-4.09887,-3.64711 -3.38102,-11.14482 1.60336,-16.74661z"/><path d="M174.7352,177.65851c5.31125,-1.95873 10.77872,-0.39614 12.21194,3.49014c1.43322,3.88628 -1.71054,8.62459 -7.02179,10.58333c-5.31125,1.95873 -10.77872,0.39614 -12.21194,-3.49014c-1.43322,-3.88628 1.71054,-8.62459 7.02179,-10.58333z"/><path d="M199.52131,154.24514c0.27991,0.06837 0.56003,0.13748 0.84035,0.20766c3.27042,0.81768 6.95697,1.47826 9.91307,3.16484c3.0773,1.74785 6.20629,2.87847 9.45991,4.37677c2.47406,1.1393 5.52214,3.12184 8.25592,3.6825c-1.74221,14.42409 -3.44827,27.06615 -4.52622,31.3568c-2.99418,11.91798 -16.05985,18.90669 -29.18302,15.60973c-13.12316,-3.29695 -21.33433,-15.63109 -18.34016,-27.54907c0.00262,-0.01042 11.07912,-14.49924 23.58015,-30.84923z"/></g><path d="M233.59009,115.56002c-1.10621,10.51174 -3.34444,31.40121 -5.53674,49.5963c-2.71884,-0.60583 -5.60089,-2.46087 -8.10958,-3.61612c-3.24381,-1.49377 -6.3572,-2.61657 -9.42211,-4.35737c-3.00881,-1.70189 -6.71581,-2.38434 -10.03873,-3.21515c-0.21024,-0.05249 -0.42036,-0.10441 -0.63035,-0.15586c10.656,-13.93686 22.28143,-29.1402 28.93466,-37.84092c3.40818,-4.45703 5.24951,-4.65526 4.80285,-0.41088z"/><path d="M211.53171,149.0501c8.97463,0 16.25,6.82766 16.25,15.25c0,8.42234 -7.27537,15.25 -16.25,15.25c-8.97463,0 -16.25,-6.82766 -16.25,-15.25c0,-8.42234 7.27537,-15.25 16.25,-15.25z"/></g><g fill-rule="nonzero" stroke="#000000" stroke-width="1.5" stroke-linejoin="miter"><path d="M219.78692,95.86829c0,0 -34.86994,-3.0825 -58.8347,-30.0874c-24.26225,-27.34014 -30.43723,-68.26611 -30.43723,-68.26611l104.47361,20.67904c0,0 -7.98279,22.84537 -11.24019,37.54057c-4.15613,18.74962 -3.96149,40.13391 -3.96149,40.13391z" fill="#004db8" stroke-linecap="butt"/><g fill="#0043ff" stroke-linecap="butt"><path d="M219.33244,95.82632c0,0 -34.75948,-3.06063 -58.63317,-30.04752c-13.61604,-15.3916 -21.50724,-35.09781 -25.80255,-49.37277c1.057,0.20922 18.73823,8.89575 42.89612,13.67746c32.95655,6.52327 51.21121,4.94974 51.21121,4.94974c0,0 -4.32175,14.45047 -5.698,20.66158c-4.15462,18.7499 -3.9736,40.13151 -3.9736,40.13151z"/></g><path d="M174.22467,77.5329c0,0 -0.87123,-17.71422 3.36306,-37.82211c3.12537,-14.84183 10.26884,-30.17369 10.26884,-30.17369" fill="none" stroke-linecap="round"/></g><g fill-rule="nonzero" stroke="#000000" stroke-width="1.5" stroke-linecap="butt" stroke-linejoin="miter"><path d="M381.12121,237.804c19.11577,8.99157 27.79947,30.76424 19.39558,48.63061c-8.40389,17.86637 -30.82766,20.85299 -49.82875,16.06925c-93.52615,-23.54627 -88.09463,-147.33007 -77.50463,-130.66621c40.32629,63.45527 88.82202,56.97477 107.93779,65.96634z" fill="#006bff"/><g><path d="M381.12121,237.804c19.11577,8.99157 27.79947,30.76423 19.39558,48.63061c-8.40389,17.86638 -30.82766,20.853 -49.82874,16.06925c-6.12701,-1.54255 -15.86592,-4.17803 -18.59746,-7.27808c-6.22905,-7.06941 31.13493,-25.09507 31.13493,-25.09507c0,0 -9.19043,-29.29213 -6.15177,-37.76658c0.31715,-0.88448 19.30451,3.2089 24.04747,5.43987z" fill="#ff0000"/><path d="M381.12121,237.804c19.11577,8.99157 27.79947,30.76423 19.39558,48.63061c-8.40389,17.86638 -30.82766,20.853 -49.82874,16.06925c-6.12701,-1.54255 -15.86592,-4.17803 -18.59746,-7.27808c-6.22905,-7.06941 31.13493,-25.09507 31.13493,-25.09507c0,0 -9.19043,-29.29213 -6.15177,-37.76658c0.31715,-0.88448 19.30451,3.2089 24.04747,5.43987z" fill="#004db8"/></g></g><g fill-rule="nonzero" stroke="#000000" stroke-width="1.5" stroke-linejoin="miter"><path d="M278.21666,96.36829c0,0 0.19464,-21.38429 -3.9615,-40.13391c-3.25741,-14.6952 -11.24019,-37.54057 -11.24019,-37.54057l104.47361,-20.67903c0,0 -6.17499,40.92597 -30.43723,68.26611c-23.96476,27.0049 -58.8347,30.0874 -58.8347,30.0874z" fill="#004db8" stroke-linecap="butt"/><g fill="#0043ff" stroke-linecap="butt"><path d="M278.67114,96.32632c0,0 0.18101,-21.38161 -3.97361,-40.13151c-1.37626,-6.21111 -5.698,-20.66158 -5.698,-20.66158c0,0 18.25467,1.57353 51.21121,-4.94974c24.15789,-4.78171 41.83912,-13.46823 42.89612,-13.67746c-4.29531,14.27496 -12.18651,33.98117 -25.80255,49.37277c-23.87369,26.98689 -58.63317,30.04752 -58.63317,30.04752z"/></g><path d="M310.147,10.03702c0,0 7.14346,15.33187 10.26883,30.1737c4.23429,20.1079 3.36307,37.82211 3.36307,37.82211" fill="none" stroke-linecap="round"/></g><g fill="#006bff" fill-rule="nonzero" stroke="#000000" stroke-width="1.5" stroke-linecap="butt" stroke-linejoin="miter"><g><path d="M281.82939,225.1341c-5.36573,-1.14505 -8.44691,-8.018 -6.88201,-15.35116c1.5649,-7.33316 7.18329,-12.34961 12.54901,-11.20456c5.36573,1.14505 8.4469,8.018 6.882,15.35116c-1.5649,7.33316 -7.18328,12.34961 -12.54901,11.20456z"/><path d="M306.15782,225.09405c-5.30901,1.38443 -11.14663,-3.37513 -13.03868,-10.63076c-1.89205,-7.25564 0.87794,-14.25979 6.18695,-15.64422c5.30901,-1.38443 11.14661,3.37513 13.03866,10.63076c1.89205,7.25564 -0.87793,14.25979 -6.18693,15.64422z"/><path d="M327.99613,212.86432c-4.09888,3.64711 -11.46231,2.06252 -16.44669,-3.53927c-4.98438,-5.60179 -5.70222,-13.09951 -1.60335,-16.74662c4.09888,-3.64711 11.46231,-2.06252 16.44669,3.53927c4.98438,5.60179 5.70223,13.09951 1.60336,16.74661z"/><path d="M329.79098,190.24184c-1.43322,3.88628 -6.90069,5.44887 -12.21194,3.49014c-5.31125,-1.95873 -8.45502,-6.69705 -7.02179,-10.58333c1.43322,-3.88628 6.90069,-5.44887 12.21194,-3.49014c5.31125,1.95873 8.45502,6.69705 7.02179,10.58333z"/><path d="M322.17526,192.46654c-0.19821,10.05069 -7.80224,19.37568 -18.95216,22.17689c-13.12316,3.29695 -26.18885,-3.69176 -29.18302,-15.60973c-1.07795,-4.29065 -2.78401,-16.93271 -4.52622,-31.3568c2.73377,-0.56066 5.78186,-2.5432 8.25592,-3.6825c3.25362,-1.4983 6.3826,-2.62892 9.45991,-4.37677c2.9561,-1.68658 6.64265,-2.34716 9.91307,-3.16484c0.28032,-0.07018 0.56043,-0.13929 0.84035,-0.20766c8.99506,11.76455 17.25256,22.56548 21.17775,27.70238c1.52991,2.0022 2.40166,3.14392 2.4024,3.14685c0,0 0.64707,3.59347 0.612,5.37218z"/></g><path d="M268.71717,117.97084c6.65323,8.70073 18.27866,23.90407 28.93466,37.84093c-0.20999,0.05145 -0.4201,0.10336 -0.63035,0.15586c-3.32292,0.8308 -7.02992,1.51326 -10.03873,3.21515c-3.06491,1.7408 -6.1783,2.8636 -9.42211,4.35737c-2.50869,1.15525 -5.39074,3.01029 -8.10958,3.61612c-2.1923,-18.19509 -4.43054,-39.08455 -5.53674,-49.59629c-0.44666,-4.24438 1.39467,-4.04615 4.80285,0.41088z"/><path d="M302.22267,166.3001c0,8.42234 -7.27537,15.25 -16.25,15.25c-8.97463,0 -16.25,-6.82766 -16.25,-15.25c0,-8.42234 7.27537,-15.25 16.25,-15.25c8.97463,0 16.25,6.82766 16.25,15.25z"/></g><g fill-rule="nonzero" stroke="#000000" stroke-linejoin="miter"><g stroke-width="1.5"><g><path d="M200.13071,262.92243c0.39417,0.0217 0.73749,0.03829 0.9965,0.03829c4.70256,0 9.40513,0 14.10769,0c3.97619,0 10.56854,0.92557 14.18386,-0.31158c1.08813,-0.39324 2.6393,-0.21072 3.85692,-0.33155c3.27914,-0.32541 6.64754,-0.85687 9.95592,-0.85687c0.72893,0 17.58095,-8.33334 18.3099,-8.33334c5.47644,23.28997 2.05435,71.54998 -2.32563,81.50006c-4.37998,9.95009 -8.00602,24.28604 -30.06314,25.05194c-22.05712,0.7659 -27.63532,-3.24075 -31.77832,-10.52589c-17.16324,-30.18027 -16.783,-69.27987 -15.60609,-93.23105z" fill="#006bff" stroke-linecap="butt"/><path d="M239.78103,347.74392l0.46041,9.43876" fill="#ffffff" stroke-linecap="round"/><path d="M219.23828,350.40028l0.83423,7.91303" fill="#ffffff" stroke-linecap="round"/></g><path d="M243.23145,260.96077c-3.759,0 -10.74365,0.09564 -14.09834,1.23582c-3.40558,1.21983 -10.11334,0.26418 -13.89837,0.26418c-4.70255,0 -30.84308,0.3203 -31.20304,0.30246c-9.04159,-18.93225 -2.31629,-51.56919 -2.31629,-51.56919c0,0 1.22549,-16.80821 14.5294,-23.42852c13.30392,-6.62031 31.05045,-6.90653 40.2159,-3.81391c6.31503,2.13082 17.37549,7.49297 21.17174,27.08651c3.79625,19.59354 7.34416,28.70752 3.34344,49.92264c0,0 -17.05469,0.00001 -17.74444,0.00001z" fill="#006bff" stroke-linecap="butt"/><path d="M222.62985,247.71076c21.14825,0 38.29229,6.82766 38.29229,15.25c0,8.42234 -17.14404,15.25 -38.29229,15.25c-21.14824,0 -38.29228,-6.82766 -38.29228,-15.25c0,-8.42234 17.14403,-15.25 38.29228,-15.25z" fill="#006bff" stroke-linecap="butt"/></g><path d="M188.24255,190.69931c0,0 4.87326,-5.34189 12.47276,-8.02861c6.50561,-2.29999 15.40054,-2.00178 20.56928,-2.03607c4.63529,-0.03074 13.13378,0.8254 18.79713,3.75048c7.45092,3.84834 11.60083,10.02848 11.60083,10.02848c0,0 5.34443,11.64305 8.19412,26.52271c0.82873,4.3272 2.82465,8.71004 3.18827,13.33304c0.68527,8.71217 -0.68822,17.65425 -0.3148,24.30437c0.48392,8.61802 2.22914,20.56445 2.09438,31.89292c-0.20819,17.50155 -2.533,33.52819 -2.533,33.52819c-5.62083,-0.1749 -16.64966,1.19633 -22.34052,1.05843c-2.43923,-0.0591 -51.43961,0.32413 -54.21928,-0.32985c0,0 -6.26338,-31.59545 -7.63445,-64.88027c-0.98743,-23.97146 1.70204,-47.38946 2.63759,-51.2959c1.62659,-6.79189 7.4877,-17.84791 7.4877,-17.84791z" fill="#003a8b" stroke-width="1" stroke-linecap="butt"/><g stroke-width="1"><path d="M187.07027,333.09423l-1.212,-12.41187l74.39695,-1.79961l1.21197,12.41187z" fill="#003a8b" stroke-linecap="butt"/><path d="M221.54876,319.81904l1.13118,11.58442" fill="none" stroke-linecap="round"/><path d="M245.38666,331.103l-1.13926,-11.66715" fill="none" stroke-linecap="round"/><path d="M199.88769,320.50889l1.11499,11.41892" fill="none" stroke-linecap="round"/></g></g><g fill-rule="nonzero" stroke="#000000" stroke-linejoin="miter"><g stroke-width="1.5"><g><path d="M315.69311,255.98143c1.17691,23.95118 1.55715,63.05078 -15.60609,93.23105c-4.143,7.28514 -9.7212,11.29179 -31.77832,10.52589c-22.05712,-0.7659 -25.68316,-15.10185 -30.06314,-25.05194c-4.37998,-9.95008 -7.80207,-58.21009 -2.32563,-81.50006c0.72895,0 17.58097,8.33334 18.3099,8.33334c3.30838,0 6.67678,0.53146 9.95592,0.85687c1.21762,0.12083 2.76879,-0.06169 3.85692,0.33155c3.61532,1.23715 10.20767,0.31158 14.18386,0.31158c4.70256,0 9.40513,0 14.10769,0c0.25901,0 0.60233,-0.01659 0.9965,-0.03829z" fill="#006bff" stroke-linecap="butt"/><path d="M257.6804,347.80291l-0.46041,9.43876" fill="#ffffff" stroke-linecap="round"/><path d="M277.38892,358.3723l0.83423,-7.91303" fill="#ffffff" stroke-linecap="round"/></g><path d="M236.48554,261.01975c-4.00072,-21.21512 -0.45281,-30.3291 3.34344,-49.92264c3.79625,-19.59354 14.85671,-24.95569 21.17174,-27.08651c9.16545,-3.09262 26.91198,-2.8064 40.2159,3.81391c13.30391,6.62031 14.5294,23.42852 14.5294,23.42852c0,0 6.7253,32.63694 -2.31629,51.56919c-0.35996,0.01784 -26.50049,-0.30246 -31.20304,-0.30246c-3.78503,0 -10.49279,0.95565 -13.89837,-0.26418c-3.35469,-1.14018 -10.33934,-1.23582 -14.09834,-1.23582c-0.68975,0 -17.74444,-0.00001 -17.74444,-0.00001z" fill="#006bff" stroke-linecap="butt"/><path d="M313.12386,263.01975c0,8.42234 -17.14404,15.25 -38.29228,15.25c-21.14825,0 -38.29229,-6.82766 -38.29229,-15.25c0,-8.42234 17.14404,-15.25 38.29229,-15.25c21.14825,0 38.29228,6.82766 38.29228,15.25z" fill="#006bff" stroke-linecap="butt"/></g><path d="M316.70658,208.60621c0.93555,3.90644 3.62502,27.32444 2.63759,51.2959c-1.37107,33.28482 -7.63445,64.88027 -7.63445,64.88027c-2.77967,0.65398 -51.78005,0.27075 -54.21928,0.32985c-5.69086,0.1379 -16.71969,-1.23333 -22.34052,-1.05843c0,0 -2.32481,-16.02663 -2.533,-33.52819c-0.13476,-11.32847 1.61046,-23.2749 2.09438,-31.89292c0.37342,-6.65012 -1.00007,-15.5922 -0.3148,-24.30437c0.36363,-4.623 2.35954,-9.00584 3.18827,-13.33304c2.84969,-14.87966 8.19413,-26.52271 8.19413,-26.52271c0,0 4.1499,-6.18013 11.60082,-10.02847c5.66335,-2.92508 14.16183,-3.78123 18.79713,-3.75048c5.16874,0.03428 14.06367,-0.26393 20.56928,2.03607c7.5995,2.68672 12.47276,8.02861 12.47276,8.02861c0,0 5.86111,11.05603 7.4877,17.84792z" fill="#003a8b" stroke-width="1" stroke-linecap="butt"/><g stroke-width="1"><path d="M235.99424,331.35361l1.21197,-12.41187l74.39695,1.79961l-1.212,12.41187z" fill="#003a8b" stroke-linecap="butt"/><path d="M275.91267,319.87803l-1.13118,11.58442" fill="none" stroke-linecap="round"/><path d="M252.07477,331.16199l1.13926,-11.66715" fill="none" stroke-linecap="round"/><path d="M296.45875,331.9868l1.11499,-11.41892" fill="none" stroke-linecap="round"/></g></g><g fill-rule="nonzero"><g stroke-width="1.5"><path d="M215.09121,185.3442c0.28303,-6.44699 5.05911,-34.68627 11.89691,-61.48204c1.71803,-6.73255 4.63816,-11.83215 12.80718,-13.88016c0.68225,-0.17104 2.40896,-0.19845 2.40896,-0.19845c0,0 -0.33676,-6.80515 1.625,-10.09076c1.4928,-2.50019 5.15846,-1.69955 6.39563,-1.69249c2.15492,0.01229 6.02607,-0.32498 6.97611,3.19109c0.62973,2.33061 -1.0354,8.51727 -1.0354,8.51727c0,0 3.92194,0.94099 4.57857,1.19258c9.02455,3.45779 11.3233,10.62107 11.74727,12.82209c1.72224,8.94069 10.13003,51.9194 10.21589,62.55249c0.04719,5.84466 -1.41038,22.2869 -35.04451,22.10792c-31.24615,-0.16626 -32.78556,-18.16579 -32.5716,-23.03952z" fill="#006bff" stroke="#000000" stroke-linecap="butt" stroke-linejoin="miter"/><path d="M220.68986,180.32198c0.218,-5.28133 3.89666,-28.4148 9.16331,-50.36572c1.75012,-7.29434 5.11979,-14.09195 17.31989,-14.01792c14.30894,0.0868 17.2939,11.50769 17.72794,13.90419c1.32651,7.32415 7.80241,42.53207 7.86854,51.24265c0.03635,4.78791 -1.08631,18.25727 -26.99218,18.11066c-24.06659,-0.13621 -25.25229,-14.8813 -25.08749,-18.87383z" fill="#004db8" stroke="#000000" stroke-linecap="butt" stroke-linejoin="miter"/><path d="M244.68792,198.80136c0,0 -1.19105,-29.96832 -0.60946,-51.7485c0.56685,-21.22877 2.77801,-30.67277 2.77801,-30.67277" fill="none" stroke="#000000" stroke-linecap="round" stroke-linejoin="miter"/><path d="M244.93354,131.39069c1.08996,-1.89426 3.2781,-3.15497 5.7298,-3.05921c3.37998,0.13202 5.97531,2.78433 5.79316,5.92037c-0.35874,6.17618 -7.66404,7.8103 -12.49674,13.90417c-4.36017,-6.49184 -11.19916,-8.43545 -10.8286,-14.81524c0.18215,-3.13603 3.07314,-5.57407 6.45312,-5.44204c2.45172,0.09576 4.48384,1.5213 5.34926,3.49196z" fill="#ff007c" stroke="#000000" stroke-linecap="butt" stroke-linejoin="round"/><path d="M249.94703,130.0696c1.04627,-0.59132 2.74466,-0.05899 3.79349,1.18898c1.04882,1.24796 1.05092,2.73899 0.00466,3.3303c-1.04627,0.59131 -2.74466,0.05898 -3.79349,-1.18899c-1.04882,-1.24796 -1.05092,-2.73899 -0.00466,-3.33029z" fill="url(#color-1)" stroke="none" stroke-linecap="butt" stroke-linejoin="miter"/><path d="M238.34004,139.82963c-1.16243,-1.17827 -1.68745,-2.41764 -1.17266,-2.76821c0.51479,-0.35057 1.87446,0.32044 3.0369,1.4987c1.16244,1.17826 1.68745,2.41763 1.17266,2.7682c-0.5148,0.35057 -1.87446,-0.32043 -3.0369,-1.49869z" fill="url(#color-2)" stroke="none" stroke-linecap="butt" stroke-linejoin="miter"/></g><g fill="none" stroke="none" stroke-width="1" stroke-linecap="butt" stroke-linejoin="miter" font-family="sans-serif" font-weight="normal" font-size="12" text-anchor="start"><g/><g/></g></g><path d="M248.38782,13.97049c27.4596,0 49.71999,22.57393 49.71999,50.42027c0,27.84635 -22.26039,42.08694 -49.71999,42.08694c-27.45959,0 -49.72,-14.24059 -49.72,-42.08693c0,-27.84634 22.26041,-50.42027 49.72,-50.42027z" fill="#006bff" fill-rule="nonzero" stroke="#000000" stroke-width="1.5" stroke-linecap="butt" stroke-linejoin="miter"/><path d="M235.24401,76.98851c0,0 3.48965,-3.65481 9.22758,-3.65481c6.65559,0 10.56705,3.65481 10.56705,3.65481" fill="none" fill-rule="nonzero" stroke="#000000" stroke-width="1.5" stroke-linecap="round" stroke-linejoin="miter"/><path d="M224.03357,32.10009c9.19618,0 16.65115,11.70499 16.65115,26.14385c0,14.43886 -7.45498,26.14385 -16.65115,26.14385c-9.19617,0 -16.65113,-11.705 -16.65113,-26.14385c0,-14.43886 7.45496,-26.14384 16.65113,-26.14384z" fill="#ffffff" fill-rule="nonzero" stroke="#000000" stroke-width="1.5" stroke-linecap="butt" stroke-linejoin="miter"/><path d="M283.63532,58.86641c0,14.43885 -7.45497,26.14385 -16.65114,26.14385c-9.19617,0 -16.65115,-11.705 -16.65115,-26.14384c0,-14.43886 7.45497,-26.14384 16.65115,-26.14384c9.19617,0 16.65114,11.70499 16.65114,26.14385z" fill="#ffffff" fill-rule="nonzero" stroke="#000000" stroke-width="1.5" stroke-linecap="butt" stroke-linejoin="miter"/><path d="M256.78647,91.0087c0,0 -0.97564,2.76168 -4.81808,2.76168c-3.32157,0 -5.72961,-2.07126 -5.72961,-2.07126c0,0 -2.29262,2.19403 -5.07851,2.20934c-3.56714,0.0196 -4.9483,-2.76168 -4.9483,-2.76168" fill="none" fill-rule="nonzero" stroke="#000000" stroke-width="1.5" stroke-linecap="round" stroke-linejoin="miter"/><path d="M280.17807,11.12618l-0.32411,8.17818l6.4728,4.7826l-7.77258,2.35498l-2.61768,7.78669l-4.48512,-6.71908l-8.07846,0.02702l5.00128,-6.51705l-2.38256,-7.76417l7.58053,2.70299z" fill="#989898" fill-rule="evenodd" stroke="#000000" stroke-width="1.5" stroke-linecap="round" stroke-linejoin="round"/><g fill-rule="nonzero" stroke-width="1.5" stroke-linecap="butt" stroke-linejoin="miter"><path d="M261.6776,40.12989c5.93024,0 10.73765,8.26317 10.73765,18.45631c0,10.19314 -4.80741,18.4563 -10.73765,18.4563c-5.93024,0 -10.73763,-8.26316 -10.73763,-18.4563c0,-10.19315 4.8074,-18.45631 10.73763,-18.45631z" fill="#0043ff" stroke="#000000"/><path d="M253.9046,58.23751c0,-7.88162 3.48298,-14.27093 7.77947,-14.27093c4.29648,0 7.77948,6.38931 7.77948,14.27093c0,7.88162 -3.48299,14.27093 -7.77948,14.27093c-4.29648,0 -7.77946,-6.3893 -7.77946,-14.27093z" fill="#000000" stroke="none"/><path d="M265.1263,71.76253c0,1.65177 -1.2173,2.99079 -2.71891,2.99079c-1.50161,0 -2.71891,-1.33902 -2.71891,-2.99079c0,-1.65177 1.2173,-2.9908 2.71891,-2.9908c1.50161,0 2.71891,1.33902 2.71891,2.9908z" fill="#ffffff" stroke="none"/><path d="M268.55485,67.9911c0,1.13105 -0.83354,2.04793 -1.86177,2.04793c-1.02823,0 -1.86177,-0.91689 -1.86177,-2.04793c0,-1.13105 0.83354,-2.04794 1.86177,-2.04794c1.02823,0 1.86177,0.91689 1.86177,2.04794z" fill="#ffffff" stroke="none"/><path d="M259.7235,43.33171c3.64354,0 6.59722,4.2428 6.59722,9.47656c0,5.23376 -2.95367,9.47657 -6.5972,9.47657c-3.64354,0 -6.59722,-4.24282 -6.59722,-9.47657c0,-5.23376 2.95369,-9.47656 6.59722,-9.47656z" fill="#ffffff" stroke="none"/></g><g fill-rule="nonzero" stroke-width="1.5" stroke-linecap="butt" stroke-linejoin="miter"><path d="M229.34016,39.50744c5.93024,0 10.73763,8.26316 10.73763,18.45631c0,10.19313 -4.80739,18.4563 -10.73763,18.4563c-5.93024,0 -10.73765,-8.26317 -10.73765,-18.45631c0,-10.19314 4.80741,-18.45631 10.73765,-18.45631z" fill="#0043ff" stroke="#000000"/><path d="M229.33368,71.88599c-4.29649,0 -7.77947,-6.38931 -7.77947,-14.27094c0,-7.88162 3.48298,-14.27093 7.77947,-14.27093c4.29649,0 7.77947,6.38931 7.77947,14.27093c0,7.88163 -3.48298,14.27094 -7.77947,14.27094z" fill="#000000" stroke="none"/><path d="M230.7235,43.18885c3.64354,0 6.59722,4.2428 6.59722,9.47656c0,5.23376 -2.95367,9.47657 -6.5972,9.47657c-3.64354,0 -6.59722,-4.24282 -6.59722,-9.47657c0,-5.23376 2.95369,-9.47656 6.59722,-9.47656z" fill="#ffffff" stroke="none"/><path d="M230.84058,70.90539c0,1.65177 -1.2173,2.99079 -2.71891,2.99079c-1.50161,0 -2.71891,-1.33902 -2.71891,-2.99079c0,-1.65177 1.2173,-2.9908 2.71891,-2.9908c1.50161,0 2.71891,1.33902 2.71891,2.9908z" fill="#ffffff" stroke="none"/><path d="M226.26916,66.84824c0,1.13105 -0.83355,2.04793 -1.86177,2.04793c-1.02822,0 -1.86176,-0.91689 -1.86176,-2.04793c0,-1.13105 0.83354,-2.04794 1.86176,-2.04794c1.02822,0 1.86177,0.91689 1.86177,2.04794z" fill="#ffffff" stroke="none"/></g><path d="M224.03357,32.10009c4.90247,0 9.3101,3.32649 12.35724,8.62032c0.66305,1.15193 1.78699,3.72126 1.78699,3.72126l-28.09341,-0.47992c0,0 1.00724,-2.22478 1.58809,-3.2346c3.04727,-5.29774 7.45655,-8.62705 12.3611,-8.62705z" fill="#ffffff" fill-rule="nonzero" stroke="#000000" stroke-width="1.5" stroke-linecap="butt" stroke-linejoin="miter"/><path d="M249.87639,10.60412c9.08121,0.96432 18.24251,-5.32936 27.11503,-3.9411c2.77127,0.46455 -5.30949,5.29963 -3.80119,7.6503c2.16208,3.356 8.85216,2.27662 11.43996,5.2598c5.73113,6.56259 12.92495,13.30891 14.40802,21.63245c1.79914,10.06886 0.87977,30.03773 -4.0546,30.60157c-5.45644,0.53963 -7.74626,-22.81112 -17.73877,-28.2832c-5.6025,-3.0685 -9.89731,11.38742 -16.21829,10.20044c-6.62116,-1.71738 -4.28471,-15.49456 -10.64334,-16.22802c-6.85726,-0.7901 -8.20234,12.52151 -15.20464,14.37342c-6.21566,1.12485 -12.19828,-9.99381 -17.73877,-6.95489c-8.47715,4.64495 -10.87342,24.8985 -14.69793,24.11021c-3.32268,-0.79649 -4.1234,-18.76048 -2.02731,-27.81954c1.90778,-8.25129 7.201,-16.37088 14.40802,-21.63245c10.50639,-7.66618 24.03861,-12.26106 37.28794,-15.64574c3.13217,-0.84287 -5.02866,6.41155 -2.53414,6.67675z" fill="#383838" fill-rule="nonzero" stroke="#000000" stroke-width="2.5" stroke-linecap="round" stroke-linejoin="miter"/><g fill-rule="nonzero" stroke-linecap="butt" stroke-linejoin="miter"><g><path d="M281.26131,32.43364h-66.54505v-24.62168h66.54505z" fill="#00ff08" stroke="#00e61e" stroke-width="3.31828"/><path d="M282.11472,36.47533h-105.30606v-9.31632h105.30606z" fill="#00ff2d" stroke="#1ae600" stroke-width="2.84811"/></g><g><path d="M253.40202,12.74115c1.44879,1.0202 2.34601,2.42759 2.34601,3.98114c0,1.55347 -0.89722,2.96087 -2.34601,3.98114c-1.44879,1.01899 -3.45034,1.64965 -5.65886,1.64965c-2.20844,0 -4.20999,-0.63066 -5.65878,-1.64965c-1.44879,-1.02028 -2.34609,-2.42767 -2.34609,-3.98114c0,-1.55355 0.8973,-2.96095 2.34609,-3.98114c1.44879,-1.01907 3.45034,-1.64973 5.65878,-1.64973c2.20852,0 4.21007,0.63066 5.65886,1.64973z" fill="url(#color-3)" stroke="url(#color-4)" stroke-width="3.03547"/><path d="M250.37007,17.75148l-4.89769,1.19073l-1.0915,-4.48955l4.89769,-1.19073z" fill="none" stroke="#2900ff" stroke-width="3"/></g></g><g fill-rule="nonzero" stroke="#000000" stroke-width="2.5" stroke-linecap="round" stroke-linejoin="miter"><path d="M206.53988,59.38991h38.04c0,0 3.25474,26.68479 -18.73613,27.25254c-22.55111,0.58222 -19.30388,-27.25254 -19.30388,-27.25254z" fill="#000000"/><path d="M221.30167,59.38993h23.27822l-18.73613,27.25254c0,0 -5.14908,0.2278 -11.4359,-2.99985c-4.37542,-2.24635 -5.3506,-7.37304 -5.3506,-7.37304z" fill="#ffffff"/></g><g fill-rule="nonzero" stroke="#000000" stroke-width="2.5" stroke-linecap="round" stroke-linejoin="miter"><path d="M247.28983,59.57742h38.04c0,0 3.25474,26.68479 -18.73613,27.25254c-22.55112,0.58222 -19.30388,-27.25254 -19.30388,-27.25254z" fill="#000000"/><path d="M262.05162,59.57743h23.27823l-18.73613,27.25254c0,0 -5.14908,0.2278 -11.4359,-2.99985c-4.37543,-2.24635 -5.3506,-7.37304 -5.3506,-7.37304z" fill="#ffffff"/></g><path d="M215.56455,184.82881c0.12137,-2.76458 0.40228,-5.53643 1.98433,-14.48333c5.81228,3.52126 15.11178,7.97208 31.39182,8.12965c13.66604,0.13227 26.71215,-3.98706 32.25247,-8.10958c1.33083,8.3183 1.95875,11.83549 1.9875,15.39487c0.04719,5.84466 -1.41038,22.2869 -35.04451,22.10792c-31.24615,-0.16626 -32.78556,-18.16579 -32.5716,-23.03952z" fill="#003a8b" fill-rule="nonzero" stroke="#000000" stroke-width="1.5" stroke-linecap="butt" stroke-linejoin="miter"/><g fill="#003a8b" fill-rule="nonzero" stroke="#000000" stroke-width="1" stroke-linejoin="miter"><path d="M215.59594,177.6195l1.69129,-9.57718l64.25641,0.14094l1.26847,9.43624c0,0 -23.86405,1.83223 -35.34037,1.83223c-10.89928,0 -31.87579,-1.83223 -31.87579,-1.83223z" stroke-linecap="butt"/><path d="M248.28149,179.48977l-0.28188,-11.02463" stroke-linecap="round"/><path d="M268.23501,168.59847v9.4" stroke-linecap="round"/><path d="M228.66109,168.59847v9.2" stroke-linecap="round"/></g></g></g></svg>