<svg version="1.1" xmlns="http://www.w3.org/2000/svg" xmlns:xlink="http://www.w3.org/1999/xlink" width="243.58877" height="291.47575" viewBox="0,0,243.58877,291.47575"><defs><linearGradient x1="207.00822" y1="45.11768" x2="207.00822" y2="57.11874" gradientUnits="userSpaceOnUse" id="color-1"><stop offset="0" stop-color="#35ff00"/><stop offset="1" stop-color="#1db300"/></linearGradient><linearGradient x1="207.00822" y1="45.11768" x2="207.00822" y2="57.11874" gradientUnits="userSpaceOnUse" id="color-2"><stop offset="0" stop-color="#00ff21"/><stop offset="1" stop-color="#00b317"/></linearGradient></defs><g transform="translate(-152.88198,-21.93473)"><g data-paper-data="{&quot;isPaintingLayer&quot;:true}" fill-rule="nonzero" stroke-linejoin="miter" stroke-miterlimit="10" stroke-dasharray="" stroke-dashoffset="0" style="mix-blend-mode: normal"><path d="M295.73607,225.83981c0,0 23.79573,-15.12535 32.46265,-30.05839c8.66692,-14.93304 6.25843,-41.5987 17.30778,-52.29924c29.66532,-28.72884 39.55962,-11.2743 44.71063,-9.14083c6.80235,2.81743 9.85014,15.88382 -0.26645,24.17533c-10.11659,8.29151 -22.42809,-7.32188 -30.35375,0.92085c-3.77185,3.92274 -5.93649,36.43463 -16.54498,55.77679c-10.60849,19.34216 -38.96095,28.4285 -38.96095,28.4285z" fill="#006bff" stroke="none" stroke-width="0" stroke-linecap="butt"/><g><g data-paper-data="{&quot;origRot&quot;:0,&quot;index&quot;:null}" fill="#000000" stroke-width="0"><path d="M172.82238,232.53623l-6.13495,-1.7763l12.77196,-43.6691l3.23457,0.82961l-9.84841,44.72313z" stroke="#000000" stroke-linecap="round"/><path d="M176.31322,236.25642c1.43403,2.42366 1.94476,5.39366 1.1908,8.3333c-0.75396,2.93964 -2.63112,5.29718 -5.05464,6.73144c-2.42364,1.43401 -5.39364,1.94476 -8.33328,1.1908c-2.93964,-0.75396 -5.29717,-2.63114 -6.73143,-5.05463c-1.43401,-2.42364 -1.94477,-5.39364 -1.1908,-8.33328c0.75396,-2.93964 2.63114,-5.29718 5.05464,-6.73145c2.42364,-1.43401 5.39364,-1.94474 8.33328,-1.19078c2.93964,0.75396 5.29718,2.63111 6.73143,5.05461z" stroke="none" stroke-linecap="butt"/></g><path d="M154.13198,240.0183c0,-6.99561 5.67106,-12.66667 12.66667,-12.66667c6.99561,0 12.66667,5.67106 12.66667,12.66667c0,6.99561 -5.67106,12.66667 -12.66667,12.66667c-6.99561,0 -12.66667,-5.67106 -12.66667,-12.66667z" fill="#006bff" stroke="#0050c0" stroke-width="2.5" stroke-linecap="butt"/></g><g><g data-paper-data="{&quot;origRot&quot;:0,&quot;index&quot;:null}" fill="#000000" stroke-width="0"><path d="M341.04017,233.98783l-9.84841,-44.72313l3.23457,-0.82961l12.77196,43.6691l-6.13495,1.7763z" stroke="#000000" stroke-linecap="round"/><path d="M337.5725,237.60069c1.43425,-2.4235 3.79179,-4.30065 6.73143,-5.05461c2.93964,-0.75396 5.90964,-0.24323 8.33328,1.19078c2.4235,1.43427 4.30068,3.79181 5.05464,6.73145c0.75397,2.93964 0.24321,5.90964 -1.1908,8.33328c-1.43426,2.42349 -3.79179,4.30067 -6.73143,5.05463c-2.93964,0.75396 -5.90964,0.24321 -8.33328,-1.1908c-2.42352,-1.43426 -4.30068,-3.7918 -5.05464,-6.73144c-0.75396,-2.93964 -0.24323,-5.90964 1.1908,-8.3333z" stroke="none" stroke-linecap="butt"/></g><path d="M347.08709,254.0292c-6.99561,0 -12.66667,-5.67106 -12.66667,-12.66667c0,-6.99561 5.67106,-12.66667 12.66667,-12.66667c6.99561,0 12.66667,5.67106 12.66667,12.66667c0,6.99561 -5.67106,12.66667 -12.66667,12.66667z" data-paper-data="{&quot;index&quot;:null}" fill="#006bff" stroke="#0050c0" stroke-width="2.5" stroke-linecap="butt"/></g><g data-paper-data="{&quot;index&quot;:null}"><g data-paper-data="{&quot;origPos&quot;:null,&quot;index&quot;:null}" fill="#000000" stroke-linecap="round"><path d="M286.6821,297.37519c4.14546,-0.94191 8.6032,-0.4564 12.70108,0.50804c2.39306,0.67637 4.45842,2.48263 6.09652,4.23369c1.39323,1.52328 2.10076,3.6806 2.79424,5.5038c0.31702,0.83386 0.22235,1.80778 0.25402,2.66722c0.00796,0.2149 0.04403,0.10432 -0.12701,0.12701c-0.68484,0.09009 0.35749,0.09128 -2.07451,0.08467c-9.72784,-0.02642 -19.48498,-0.06689 -29.21248,-0.16935c-2.43184,0.0017 -0.98527,0.08214 -1.43946,-0.08467c-0.29924,-0.1099 -0.80186,-0.12515 -0.67739,-0.67739c0.49805,-2.20863 0.60643,-4.769 2.20152,-6.43521c2.55512,-2.66808 5.86553,-4.94614 9.48347,-5.75782z" stroke="none" stroke-width="1"/><path d="M274.48904,310.07637l1.86282,-58.08625l3.38695,0.16934l2.03217,48.09474l-0.33869,0.84674l1.01609,8.97542z" data-paper-data="{&quot;origPos&quot;:null}" stroke="#000000" stroke-width="0"/></g><g stroke-width="2.5" stroke-linecap="butt"><path d="M273.49271,304.46222v-15.87798h8.82737v15.87798z" data-paper-data="{&quot;index&quot;:null}" fill="#ffffff" stroke="#cccccc"/><path d="M272.51054,311.99194c0,0 0.03426,-1.30014 0.10106,-1.93651c0.96739,-9.21493 8.76112,-16.39684 18.23228,-16.39684c9.41021,0 17.16451,7.08978 18.21275,16.2192c0.07965,0.69368 0.12058,2.11414 0.12058,2.11414z" data-paper-data="{&quot;index&quot;:null}" fill="#006bff" stroke="#0057d0"/></g></g><g><g data-paper-data="{&quot;origPos&quot;:null,&quot;index&quot;:null}" fill="#000000" stroke-linecap="round"><path d="M220.8525,297.54371c3.61794,0.81168 6.92835,3.08974 9.48347,5.75782c1.59509,1.66621 1.70347,4.22658 2.20152,6.43521c0.12447,0.55224 -0.37815,0.56749 -0.67739,0.67739c-0.45419,0.16681 0.99238,0.08637 -1.43946,0.08467c-9.7275,0.10246 -19.48464,0.14293 -29.21248,0.16935c-2.432,0.00661 -1.38967,0.00542 -2.07451,-0.08467c-0.17104,-0.02269 -0.13497,0.08789 -0.12701,-0.12701c0.03167,-0.85944 -0.063,-1.83336 0.25402,-2.66722c0.69348,-1.8232 1.40101,-3.98052 2.79424,-5.5038c1.6381,-1.75106 3.70346,-3.55732 6.09652,-4.23369c4.09788,-0.96444 8.55562,-1.44995 12.70108,-0.50804z" stroke="none" stroke-width="1"/><path d="M225.0862,310.24487l1.01609,-8.97542l-0.33869,-0.84674l2.03217,-48.09474l3.38695,-0.16934l1.86282,58.08625z" data-paper-data="{&quot;origPos&quot;:null}" stroke="#000000" stroke-width="0"/></g><g stroke-width="2.5" stroke-linecap="butt"><path d="M225.2145,304.63075v-15.87798h8.82737v15.87798z" data-paper-data="{&quot;index&quot;:null}" fill="#ffffff" stroke="#cccccc"/><path d="M198.35736,312.16047c0,0 0.04093,-1.42046 0.12058,-2.11414c1.04824,-9.12942 8.80254,-16.2192 18.21275,-16.2192c9.47116,0 17.26489,7.18191 18.23228,16.39684c0.0668,0.63637 0.10106,1.93651 0.10106,1.93651z" data-paper-data="{&quot;index&quot;:null}" fill="#006bff" stroke="#0057d0"/></g></g><path d="M181.75132,250.9283v-184.63831h89.77648c13.97911,0 25.21686,2.46937 33.71325,7.4081c8.4964,4.89686 14.46056,10.92382 17.89248,18.08089c3.47385,7.15698 5.21078,14.43954 5.21078,21.84773c0,11.50981 -2.17639,19.8806 -6.52914,25.11233c-4.35283,5.23173 -9.71014,9.45896 -16.07182,12.68168c19.00164,7.11517 28.50245,22.03605 28.50245,44.76268c0,7.28256 -1.40206,14.2303 -4.20628,20.84323c-2.80422,6.57108 -6.71754,12.30505 -11.74007,17.20193c-4.1435,3.97611 -8.26614,7.11517 -12.3677,9.41708c-4.10169,2.26012 -9.77288,4.03891 -17.01359,5.33638c-7.24078,1.2975 -16.90906,1.9462 -29.00478,1.9462zM218.79198,169.69001v49.3457h47.33672c19.71315,0 29.56969,-8.99857 29.56969,-26.99571c0,-7.5337 -2.67861,-13.14209 -8.03594,-16.82527c-5.35727,-3.68311 -11.94925,-5.5247 -19.77588,-5.5247zM218.79198,98.18265v40.36806h45.26485c8.11967,0 14.69075,-1.69506 19.71321,-5.08526c5.0224,-3.39012 7.53364,-8.55911 7.53364,-15.50685c0,-7.19883 -2.36471,-12.28412 -7.09418,-15.25573c-4.72947,-3.01348 -11.78186,-4.52022 -21.15715,-4.52022z" data-paper-data="{&quot;origPos&quot;:null}" fill="#006bff" stroke="#0057d0" stroke-width="3.5" stroke-linecap="butt"/><path d="M249.65024,59.83512l-0.07588,1.06227l-0.45526,0.94847l-0.91053,0.56907l-0.9864,0.18969l-0.9864,-0.03793l-0.64496,-0.03794l-0.56908,-0.41733l-0.75877,-1.74518l-1.36578,-2.35219l-0.91053,-1.51754l-1.82106,-2.20043l-1.25197,-1.21404l-1.21404,-0.75876l-1.02434,-0.6829l-0.83465,-0.41732l-1.44166,-0.60702l-1.63136,-0.4932l-1.63136,-0.30352h-1.97281l-2.35219,0.26557l-2.27632,0.41733l-1.28991,-0.18969l-0.68289,-0.60702l-0.07588,-0.72083l0.41733,-0.4932l0.91053,-0.64496l1.51754,-0.53113l2.99715,-0.45527l5.34933,-0.07587l2.23838,0.34144l2.23838,0.64496l1.06228,0.37938l1.63136,0.79671l1.32785,1.02434l1.44167,1.1761l1.1761,1.06229l0.94846,0.9864l1.59342,2.12456l1.6693,2.57982z" data-paper-data="{&quot;index&quot;:null,&quot;origPos&quot;:null}" fill="#000000" stroke="#000000" stroke-width="0" stroke-linecap="round"/><path d="M224.58524,29.82963c8.94666,0.95003 17.97223,-5.2504 26.7133,-3.88271c2.73021,0.45767 -5.23083,5.22111 -3.74487,7.53695c2.13005,3.30628 8.72101,2.24289 11.27047,5.18187c5.64622,6.46536 12.73346,13.11173 14.19455,21.31195c0.7724,4.32272 6.13507,-1.92435 13.9655,0.31441c1.23705,0.35367 5.18478,2.94507 8.42004,6.01846c0.48909,0.46462 2.08032,1.94807 2.62404,2.27305c5.92849,3.54334 11.08765,4.73966 14.4534,7.79718c1.72124,1.56361 3.08904,5.39542 4.61863,7.11977c8.26238,9.31442 13.67007,17.74288 12.14621,17.91701c-2.31641,0.22908 -5.82616,-14.07437 -20.56833,-21.67982c-19.46942,-10.04423 -37.27856,-13.60152 -42.88093,-16.66948c-5.51949,-3.02304 -10.55722,9.06791 -16.78455,7.89851c-6.52306,-1.69194 -7.71628,-14.45844 -13.9807,-15.18104c-6.75566,-0.77839 -5.12347,13.41139 -12.02202,15.23587c-6.12357,1.10818 -14.4372,-17.37353 -19.8956,-14.37964c-8.35155,4.57613 -19.31551,57.59813 -23.08336,56.82152c-3.27345,-0.78469 -5.94426,-44.56096 -3.87922,-53.48579c1.87951,-8.12904 7.09431,-16.12833 14.19455,-21.31195c10.35073,-7.5526 23.68246,-12.0794 36.73549,-15.41393c3.08576,-0.83038 -4.95416,6.31656 -2.49659,6.57783z" data-paper-data="{&quot;index&quot;:null}" fill="#383838" stroke="#000000" stroke-width="2.5" stroke-linecap="round"/><path d="M190.63116,57.90025l1.6693,-2.57982l1.59342,-2.12456l0.94846,-0.9864l1.1761,-1.06229l1.44167,-1.1761l1.32785,-1.02434l1.63136,-0.79671l1.06228,-0.37938l2.23838,-0.64496l2.23838,-0.34144l5.34933,0.07587l2.99715,0.45527l1.51754,0.53113l0.91053,0.64496l0.41733,0.4932l-0.07588,0.72083l-0.68289,0.60702l-1.28991,0.18969l-2.27632,-0.41733l-2.35219,-0.26557h-1.9728l-1.63136,0.30352l-1.63137,0.4932l-1.44166,0.60702l-0.83465,0.41732l-1.02434,0.6829l-1.21404,0.75876l-1.25197,1.21404l-1.82106,2.20043l-0.91053,1.51754l-1.36579,2.35219l-0.75877,1.74518l-0.56908,0.41733l-0.64496,0.03794l-0.9864,0.03793l-0.9864,-0.18969l-0.91053,-0.56907l-0.45526,-0.94847l-0.07588,-1.06227z" data-paper-data="{&quot;index&quot;:null,&quot;origPos&quot;:null}" fill="#000000" stroke="#000000" stroke-width="0" stroke-linecap="round"/><path d="M205.76252,116.446c0,0 -4.44528,1.5706 -6.746,1.88003c-2.10918,0.28599 -4.30438,0.29173 -6.35893,-0.11059c-1.68208,-0.32956 -3.23809,-1.14925 -4.73326,-2.02381c-1.17579,-0.68787 -2.21202,-1.63341 -3.14076,-2.62098c-0.9513,-0.99265 -2.46616,-3.28452 -2.46616,-3.28452" data-paper-data="{&quot;origPos&quot;:null}" fill="none" stroke="#000000" stroke-width="2" stroke-linecap="round"/><path d="M235.65316,65.815c3.41222,0 6.50411,1.92418 8.74282,5.03297c2.239,3.10879 3.62477,7.40197 3.62477,12.13978c0,4.73782 -1.38576,9.03101 -3.62477,12.1398c-2.23871,3.10878 -5.33059,5.03297 -8.74282,5.03297c-3.41222,0 -6.50415,-1.92419 -8.74282,-5.03297c-2.239,-3.10879 -3.62477,-7.40198 -3.62477,-12.1398c0,-4.73781 1.38576,-9.03098 3.62477,-12.13978c2.23867,-3.10879 5.33059,-5.03297 8.74282,-5.03297z" data-paper-data="{&quot;origPos&quot;:null}" fill="#ffffff" stroke="#000000" stroke-width="2" stroke-linecap="butt"/><path d="M215.57458,70.3484c2.23898,3.10879 3.62475,7.40198 3.62475,12.13978c0,4.73784 -1.38576,9.03102 -3.62475,12.13982c-2.23869,3.10878 -5.33059,5.03296 -8.74282,5.03296c-3.41222,0 -6.50411,-1.92418 -8.74282,-5.03296c-2.23898,-3.10879 -3.62477,-7.40198 -3.62477,-12.13982c0,-4.7378 1.38576,-9.03098 3.62477,-12.13978c2.23871,-3.10879 5.33059,-5.03297 8.74282,-5.03297c3.41222,0 6.50415,1.92418 8.74282,5.03297z" data-paper-data="{&quot;origPos&quot;:null}" fill="#ffffff" stroke="#000000" stroke-width="2" stroke-linecap="butt"/><path d="M230.28506,74.54978c1.6006,0 3.05094,0.90259 4.10107,2.36086c1.05027,1.45827 1.7003,3.4721 1.7003,5.69451c0,2.22241 -0.65003,4.23625 -1.7003,5.69452c-1.05013,1.45826 -2.50047,2.36086 -4.10107,2.36086c-1.6006,0 -3.05096,-0.9026 -4.10107,-2.36086c-1.05027,-1.45827 -1.7003,-3.47211 -1.7003,-5.69452c0,-2.22241 0.65003,-4.23624 1.7003,-5.69451c1.05011,-1.45827 2.50047,-2.36086 4.10107,-2.36086z" data-paper-data="{&quot;origPos&quot;:null}" fill="#000000" stroke="#000000" stroke-width="2" stroke-linecap="butt"/><path d="M215.86662,77.1763c1.05026,1.45827 1.70029,3.47211 1.70029,5.69451c0,2.22242 -0.65003,4.23626 -1.70029,5.69453c-1.05012,1.45826 -2.50047,2.36085 -4.10107,2.36085c-1.6006,0 -3.05094,-0.90259 -4.10107,-2.36085c-1.05026,-1.45827 -1.7003,-3.47211 -1.7003,-5.69453c0,-2.2224 0.65003,-4.23624 1.7003,-5.69451c1.05013,-1.45827 2.50047,-2.36086 4.10107,-2.36086c1.6006,0 3.05096,0.90259 4.10107,2.36086z" data-paper-data="{&quot;origPos&quot;:null}" fill="#000000" stroke="#000000" stroke-width="2" stroke-linecap="butt"/><g stroke="#000000" stroke-width="2.5" stroke-linecap="round"><g><path d="M177.27922,70.18312h44.10417c0,0 3.7736,30.93876 -21.72295,31.59703c-26.14611,0.67504 -22.38122,-31.59703 -22.38122,-31.59703z" fill="#000000"/><path d="M194.39428,70.18314h26.98914l-21.72296,31.59703c0,0 -5.96993,0.26412 -13.25896,-3.47808c-5.07293,-2.60446 -6.20356,-8.54842 -6.20356,-8.54842z" fill="#ffffff"/></g><g><path d="M222.90898,71.00302h44.10419c0,0 3.77361,30.93875 -21.72295,31.59702c-26.14611,0.67504 -22.38123,-31.59702 -22.38123,-31.59702z" fill="#000000"/><path d="M240.02403,71.00302h26.98914l-21.72295,31.59702c0,0 -5.96993,0.26413 -13.25896,-3.47807c-5.07293,-2.60446 -6.20357,-8.54842 -6.20357,-8.54842z" fill="#ffffff"/></g></g><g data-paper-data="{&quot;index&quot;:null}" stroke-linecap="butt"><g data-paper-data="{&quot;origPos&quot;:null}"><path d="M179.8198,41.62288h70.91419v26.23826h-70.91419z" fill="#00ff08" stroke="#00e61e" stroke-width="3.31828"/><path d="M178.91038,62.2402h112.22013v9.928h-112.22013z" fill="#00ff2d" stroke="#1ae600" stroke-width="2.84811"/></g><g data-paper-data="{&quot;origPos&quot;:null}"><path d="M215.53865,45.11768c2.35344,0 4.4864,0.67207 6.03032,1.75805c1.54391,1.08718 2.50013,2.58698 2.50013,4.24253c0,1.65546 -0.95622,3.15526 -2.50013,4.24253c-1.54391,1.0859 -3.67687,1.75796 -6.03032,1.75796c-2.35352,0 -4.48649,-0.67206 -6.03041,-1.75796c-1.54391,-1.08726 -2.50004,-2.58707 -2.50004,-4.24253c0,-1.65555 0.95612,-3.15534 2.50004,-4.24253c1.54391,-1.08598 3.67688,-1.75805 6.03041,-1.75805z" data-paper-data="{&quot;origPos&quot;:null}" fill="url(#color-1)" stroke="url(#color-2)" stroke-width="3.03547"/><path d="M213.90244,47.43068l5.21926,1.26891l-1.16316,4.78432l-5.21926,-1.26891z" data-paper-data="{&quot;origPos&quot;:null}" fill="none" stroke="#2900ff" stroke-width="3"/></g></g></g></g></svg>