<svg version="1.1" xmlns="http://www.w3.org/2000/svg" xmlns:xlink="http://www.w3.org/1999/xlink" width="289.99581" height="337.05985" viewBox="0,0,289.99581,337.05985"><defs><linearGradient x1="280.70851" y1="179.00355" x2="227.7502" y2="295.13235" gradientUnits="userSpaceOnUse" id="color-1"><stop offset="0" stop-color="#000000"/><stop offset="1" stop-color="#a20076"/></linearGradient><linearGradient x1="280.70851" y1="179.00355" x2="227.7502" y2="295.13235" gradientUnits="userSpaceOnUse" id="color-2"><stop offset="0" stop-color="#a8007b"/><stop offset="1" stop-color="#000000"/></linearGradient><linearGradient x1="315.36797" y1="170.11377" x2="297.26889" y2="335.55645" gradientUnits="userSpaceOnUse" id="color-3"><stop offset="0" stop-color="#a8007b"/><stop offset="1" stop-color="#000000"/></linearGradient><linearGradient x1="363.4952" y1="298.92168" x2="365.63529" y2="328.60655" gradientUnits="userSpaceOnUse" id="color-4"><stop offset="0" stop-color="#60003f"/><stop offset="1" stop-color="#050003"/></linearGradient><linearGradient x1="363.4952" y1="298.92168" x2="365.63529" y2="328.60655" gradientUnits="userSpaceOnUse" id="color-5"><stop offset="0" stop-color="#93005f"/><stop offset="1" stop-color="#47002e"/></linearGradient><linearGradient x1="353.4952" y1="305.51259" x2="355.63529" y2="335.19746" gradientUnits="userSpaceOnUse" id="color-6"><stop offset="0" stop-color="#60003f"/><stop offset="1" stop-color="#050003"/></linearGradient><linearGradient x1="353.4952" y1="305.51259" x2="355.63529" y2="335.19746" gradientUnits="userSpaceOnUse" id="color-7"><stop offset="0" stop-color="#93005f"/><stop offset="1" stop-color="#47002e"/></linearGradient><linearGradient x1="342.58612" y1="312.55805" x2="344.7262" y2="342.24292" gradientUnits="userSpaceOnUse" id="color-8"><stop offset="0" stop-color="#60003f"/><stop offset="1" stop-color="#050003"/></linearGradient><linearGradient x1="342.58612" y1="312.55805" x2="344.7262" y2="342.24292" gradientUnits="userSpaceOnUse" id="color-9"><stop offset="0" stop-color="#93005f"/><stop offset="1" stop-color="#47002e"/></linearGradient><linearGradient x1="235.44913" y1="170.11377" x2="253.54823" y2="335.55645" gradientUnits="userSpaceOnUse" id="color-10"><stop offset="0" stop-color="#a8007b"/><stop offset="1" stop-color="#000000"/></linearGradient><linearGradient x1="187.32191" y1="298.92168" x2="185.18183" y2="328.60655" gradientUnits="userSpaceOnUse" id="color-11"><stop offset="0" stop-color="#60003f"/><stop offset="1" stop-color="#050003"/></linearGradient><linearGradient x1="187.32191" y1="298.92168" x2="185.18183" y2="328.60655" gradientUnits="userSpaceOnUse" id="color-12"><stop offset="0" stop-color="#93005f"/><stop offset="1" stop-color="#47002e"/></linearGradient><linearGradient x1="197.32191" y1="305.51259" x2="195.18183" y2="335.19746" gradientUnits="userSpaceOnUse" id="color-13"><stop offset="0" stop-color="#60003f"/><stop offset="1" stop-color="#050003"/></linearGradient><linearGradient x1="197.32191" y1="305.51259" x2="195.18183" y2="335.19746" gradientUnits="userSpaceOnUse" id="color-14"><stop offset="0" stop-color="#93005f"/><stop offset="1" stop-color="#47002e"/></linearGradient><linearGradient x1="208.23099" y1="312.55805" x2="206.09092" y2="342.24292" gradientUnits="userSpaceOnUse" id="color-15"><stop offset="0" stop-color="#60003f"/><stop offset="1" stop-color="#050003"/></linearGradient><linearGradient x1="208.23099" y1="312.55805" x2="206.09092" y2="342.24292" gradientUnits="userSpaceOnUse" id="color-16"><stop offset="0" stop-color="#93005f"/><stop offset="1" stop-color="#47002e"/></linearGradient><linearGradient x1="282.21457" y1="88.83907" x2="282.21457" y2="195.27439" gradientUnits="userSpaceOnUse" id="color-17"><stop offset="0" stop-color="#0b0008"/><stop offset="1" stop-color="#780058"/></linearGradient><linearGradient x1="282.21457" y1="88.83907" x2="282.21457" y2="195.27439" gradientUnits="userSpaceOnUse" id="color-18"><stop offset="0" stop-color="#ad007f"/><stop offset="1" stop-color="#0b0008"/></linearGradient><linearGradient x1="238.99523" y1="10.02068" x2="246.29575" y2="77.24498" gradientUnits="userSpaceOnUse" id="color-19"><stop offset="0" stop-color="#000000"/><stop offset="1" stop-color="#bd008b"/></linearGradient><linearGradient x1="305.60167" y1="34.44494" x2="305.60167" y2="64.67469" gradientUnits="userSpaceOnUse" id="color-20"><stop offset="0" stop-color="#000000"/><stop offset="1" stop-color="#b70087"/></linearGradient><linearGradient x1="255.06309" y1="23.96173" x2="251.08598" y2="39.43014" gradientUnits="userSpaceOnUse" id="color-21"><stop offset="0" stop-color="#2f0022"/><stop offset="1" stop-color="#5c0044"/></linearGradient><linearGradient x1="290.61706" y1="32.97319" x2="286.25862" y2="48.33854" gradientUnits="userSpaceOnUse" id="color-22"><stop offset="0" stop-color="#2f0022"/><stop offset="1" stop-color="#350027"/></linearGradient><linearGradient x1="276.21614" y1="65.62929" x2="276.21614" y2="116.31138" gradientUnits="userSpaceOnUse" id="color-23"><stop offset="0" stop-color="#b40084"/><stop offset="1" stop-color="#000000"/></linearGradient><radialGradient cx="265.80485" cy="89.30349" r="12.40667" gradientUnits="userSpaceOnUse" id="color-24"><stop offset="0" stop-color="#190010"/><stop offset="1" stop-color="#190010" stop-opacity="0"/></radialGradient></defs><g transform="translate(-95.00209,-11.47008)"><g data-paper-data="{&quot;isPaintingLayer&quot;:true}" fill-rule="nonzero" stroke-miterlimit="10" stroke-dasharray="" stroke-dashoffset="0" style="mix-blend-mode: normal"><path d="M95.0021,342.30703c0,0 15.40442,-12.19971 36.53253,-25.60377c21.70288,-13.76872 49.31012,-28.92701 62.12825,-42.5351c20.41277,-21.67077 41.63524,-80.80329 41.63524,-80.80329c0,0 14.53357,-41.97465 51.43125,-25.19597c35.43043,16.11148 13.26821,53.75309 13.26821,53.75309c0,0 -48.08845,54.99474 -79.41194,73.38968c-18.32152,10.75944 -52.6428,17.15856 -79.68014,26.28123c-26.49884,8.94096 -45.90339,20.71415 -45.90339,20.71415z" fill="url(#color-1)" stroke="url(#color-2)" stroke-width="0" stroke-linecap="round" stroke-linejoin="miter"/><g data-paper-data="{&quot;index&quot;:null}" stroke-width="0" stroke-linecap="round" stroke-linejoin="miter"><path d="M305.13234,159.27718l2.87003,35.0941l17.17352,35.46354c0,0 2.88246,6.77419 3.4065,10.05384c0.4592,2.87382 -0.43102,8.56787 -0.43102,8.56787l-5.97877,-4.91483c0,0 0.96491,7.61302 0.25424,11.75027c-0.66698,3.88291 -4.39551,12.3587 -4.39551,12.3587l-0.21905,-10.21637c0,0 -2.41127,5.5323 -4.27177,8.27138c-2.14779,3.16201 -7.87734,9.61472 -7.87734,9.61472l1.68884,21.01512c0,0 14.35236,-2.43842 20.53558,-0.54493c9.90561,3.03338 17.64654,10.95995 17.64654,10.95995l-28.09733,27.22492l-13.72825,-8.40816l-21.77146,-10.23492l3.13459,-1.16088l-6.00588,-4.66715l3.40554,-3.63756l-3.41317,-0.87466c0,0 -0.86165,-16.49315 -1.53467,-24.27093c-0.65477,-7.56679 -2.4502,-21.78018 -2.4502,-21.78018c0,0 2.40839,-5.49954 4.22329,-8.10562c1.75089,-2.51419 6.48101,-7.2651 6.48101,-7.2651l-19.27088,-39.20187l2.723,-24.8907" fill="url(#color-3)" stroke="#000000"/><path d="M349.6027,299.92323c0,0 15.46234,7.3031 21.20844,12.98022c6.03785,5.96537 14.18677,21.99011 14.18677,21.99011c0,0 -12.12722,-6.4608 -19.49866,-8.23775c-7.65652,-1.84566 -25.61771,-2.63786 -25.61771,-2.63786c0,0 -13.81533,-5.373 -8.85476,-18.97845c3.83267,-10.51193 18.57592,-5.11627 18.57592,-5.11627z" data-paper-data="{&quot;index&quot;:null}" fill="url(#color-4)" stroke="url(#color-5)"/><path d="M339.6027,306.51415c0,0 15.46235,7.3031 21.20844,12.98022c6.03785,5.96537 14.18677,21.99011 14.18677,21.99011c0,0 -12.12721,-6.4608 -19.49865,-8.23775c-7.65653,-1.84566 -25.61772,-2.63786 -25.61772,-2.63786c0,0 -13.81534,-5.373 -8.85476,-18.97845c3.83267,-10.51193 18.57593,-5.11627 18.57593,-5.11627z" data-paper-data="{&quot;index&quot;:null}" fill="url(#color-6)" stroke="url(#color-7)"/><path d="M328.6936,313.5596c0,0 15.46234,7.3031 21.20844,12.98022c6.03785,5.96537 14.18677,21.99011 14.18677,21.99011c0,0 -12.12722,-6.4608 -19.49866,-8.23775c-7.65652,-1.84566 -25.61771,-2.63786 -25.61771,-2.63786c0,0 -13.81534,-5.373 -8.85476,-18.97845c3.83267,-10.51193 18.57592,-5.11627 18.57592,-5.11627z" data-paper-data="{&quot;index&quot;:null}" fill="url(#color-8)" stroke="url(#color-9)"/></g><g stroke-width="0" stroke-linecap="round" stroke-linejoin="miter"><path d="M281.5874,179.47773l2.723,24.8907l-19.27088,39.20187c0,0 4.73012,4.75091 6.48101,7.2651c1.8149,2.60608 4.22329,8.10562 4.22329,8.10562c0,0 -1.79543,14.21339 -2.4502,21.78018c-0.67302,7.77778 -1.53467,24.27093 -1.53467,24.27093l-3.41317,0.87466l3.40554,3.63756l-6.00588,4.66715l3.13459,1.16088l-21.77146,10.23492l-13.72825,8.40816l-28.09733,-27.22492c0,0 7.74093,-7.92657 17.64654,-10.95995c6.18322,-1.89349 20.53558,0.54493 20.53558,0.54493l1.68884,-21.01512c0,0 -5.72955,-6.45271 -7.87734,-9.61472c-1.8605,-2.73908 -4.27177,-8.27138 -4.27177,-8.27138l-0.21905,10.21637c0,0 -3.72853,-8.47579 -4.39551,-12.3587c-0.71067,-4.13725 0.25424,-11.75027 0.25424,-11.75027l-5.97877,4.91483c0,0 -0.89022,-5.69405 -0.43102,-8.56787c0.52404,-3.27965 3.4065,-10.05384 3.4065,-10.05384l17.17352,-35.46354l2.87003,-35.0941" fill="url(#color-10)" stroke="#000000"/><path d="M219.79035,305.03952c4.96058,13.60545 -8.85476,18.97845 -8.85476,18.97845c0,0 -17.96119,0.7922 -25.61771,2.63786c-7.37144,1.77694 -19.49866,8.23775 -19.49866,8.23775c0,0 8.14892,-16.02473 14.18677,-21.99011c5.7461,-5.67712 21.20844,-12.98022 21.20844,-12.98022c0,0 14.74326,-5.39566 18.57593,5.11627z" data-paper-data="{&quot;index&quot;:null}" fill="url(#color-11)" stroke="url(#color-12)"/><path d="M229.79035,311.63041c4.96058,13.60545 -8.85476,18.97845 -8.85476,18.97845c0,0 -17.96119,0.7922 -25.61771,2.63786c-7.37144,1.77694 -19.49866,8.23775 -19.49866,8.23775c0,0 8.14892,-16.02473 14.18677,-21.9901c5.7461,-5.67712 21.20844,-12.98022 21.20844,-12.98022c0,0 14.74325,-5.39566 18.57592,5.11627z" data-paper-data="{&quot;index&quot;:null}" fill="url(#color-13)" stroke="url(#color-14)"/><path d="M240.69944,318.67588c4.96058,13.60545 -8.85476,18.97844 -8.85476,18.97844c0,0 -17.96119,0.7922 -25.61771,2.63786c-7.37144,1.77694 -19.49866,8.23775 -19.49866,8.23775c0,0 8.14892,-16.02474 14.18677,-21.99011c5.7461,-5.67712 21.20844,-12.98022 21.20844,-12.98022c0,0 14.74325,-5.39566 18.57592,5.11627z" data-paper-data="{&quot;index&quot;:null}" fill="url(#color-15)" stroke="url(#color-16)"/></g><path d="M252.04883,94.15417c0,0 3.19259,-1.91897 6.76701,-2.2275c2.59749,-0.22421 3.30524,1.84278 9.41763,1.48712c7.13698,-0.41527 16.43082,0.4579 24.19729,0.14007c4.72914,-0.19352 8.60706,-1.74835 11.91199,-1.64095c4.01665,0.13053 6.33964,1.70974 6.33964,1.70974c0,0 1.09061,2.98081 3.60737,4.2771c2.53027,1.30324 8.62994,3.52159 8.62994,3.52159c0,0 -5.42924,-0.0596 -3.88466,1.17121c2.50009,1.9922 6.6277,5.28128 6.6277,5.28128c0,0 -8.3222,5.07073 -11.90724,7.91667c-3.29522,2.61587 -5.90291,8.52699 -5.90291,8.52699l6.21739,7.33071c0,0 1.14081,3.48666 3.07377,6.20752c0.95818,1.34874 1.40654,3.13457 1.40654,3.13457c0,0 1.99019,0.90382 2.82862,1.57597c0.92951,0.74518 2.50342,2.69867 2.50342,2.69867c0,0 -1.78133,-0.62968 -3.41242,-0.65136c-0.92103,-0.01224 -1.69501,0.69624 -2.31768,0.95364c-0.52969,0.21897 0.82556,2.79922 1.53678,4.09696c0.91747,1.67412 2.50736,4.0009 2.50736,4.0009c0,0 -5.10477,0.05501 -6.97736,-0.46785c-1.66996,-0.46628 -3.72012,-2.51907 -3.72012,-2.51907l-12.35102,52.97615c0,0 -1.71608,5.76646 -10.12032,9.01062c-5.37711,2.07565 -10.4509,2.56701 -16.67931,2.54741c-7.50937,-0.02364 -8.0263,-0.61978 -12.24783,-2.30303c-5.95771,-2.37552 -7.40542,-8.41483 -7.40542,-8.41483c0,0 -13.28995,-52.64048 -16.01345,-60.40502c-0.04348,-0.12395 -1.47912,-0.10746 -2.43608,0.69096c-1.20796,1.00784 -1.98903,2.86731 -1.98903,2.86731c0,0 -0.15961,-1.8221 0.09114,-3.38054c0.19618,-1.21921 0.90702,-2.2255 0.39673,-2.41319c-0.83168,-0.30589 -1.92292,-0.06003 -2.71544,-0.30731c-1.69556,-0.52903 -2.83364,-1.41392 -2.83364,-1.41392c0,0 2.93049,-0.17294 4.2373,-0.62636c1.03665,-0.35968 2.98251,-1.87867 2.98251,-1.87867c0,0 7.32407,-6.75528 9.21733,-10.79622c0.10908,-0.23282 -1.13814,0.65874 -2.0785,0.63592c-1.28,-0.03106 -2.38638,-0.92186 -2.38638,-0.92186c0,0 1.67008,0.0283 2.47258,-0.37602c0.76131,-0.38359 2.22538,-1.99099 2.22538,-1.99099c0,0 -1.01457,0.16062 -1.42192,-0.01282c-0.56512,-0.24063 -1.65324,-1.29653 -1.65324,-1.29653c0,0 1.69386,0.32098 2.51242,0.36609c0.68383,0.03768 2.06784,-0.1137 2.06784,-0.1137c0,0 -2.84834,-4.44033 -4.36059,-5.94928c-1.50618,-1.50293 -4.69478,-3.08643 -4.69478,-3.08643c0,0 -1.28436,-1.07025 -2.11624,-1.36692c-0.94819,-0.33814 -3.26979,-0.55379 -3.26979,-0.55379c0,0 1.5331,-1.67227 3.57886,-2.94953c1.54628,-0.96541 3.67659,-1.53425 4.00545,-1.95543c0.67711,-0.86714 2.7717,-2.36574 2.7717,-2.36574c0,0 -2.20542,0.55442 -3.02501,0.35267c-0.90247,-0.22217 -2.16517,-1.63032 -2.16517,-1.63032c0,0 3.97118,-1.18873 7.19521,-5.58891c1.48111,-2.02144 2.26672,-1.73351 4.4841,-2.49459c3.62776,-1.24516 4.27463,-1.37917 4.27463,-1.37917z" fill="url(#color-17)" stroke="url(#color-18)" stroke-width="0" stroke-linecap="round" stroke-linejoin="miter"/><g fill="#000000" stroke="none" stroke-width="0.5" stroke-linecap="butt" stroke-linejoin="miter"><path d="M265.72265,101.17697c0,-0.21526 0.17452,-0.38978 0.38978,-0.38978c0.21526,0 0.38978,0.17452 0.38978,0.38978c0,0.21526 -0.17452,0.38978 -0.38978,0.38978c-0.21526,0 -0.38978,-0.17452 -0.38978,-0.38978z"/><path d="M268.12129,103.42571c0,-0.21526 0.17451,-0.38978 0.38978,-0.38978c0.21526,0 0.38978,0.17452 0.38978,0.38978c0,0.21526 -0.17452,0.38978 -0.38978,0.38978c-0.21527,0 -0.38978,-0.17452 -0.38978,-0.38978z"/><path d="M271.41946,101.47681c0,-0.21526 0.17452,-0.38978 0.38978,-0.38978c0.21526,0 0.38978,0.17452 0.38978,0.38978c0,0.21526 -0.17452,0.38978 -0.38978,0.38978c-0.21526,0 -0.38978,-0.17452 -0.38978,-0.38978z"/></g><g fill="#000000" stroke="none" stroke-width="0.5" stroke-linecap="butt" stroke-linejoin="miter"><path d="M285.38606,100.37205c0,-0.21526 0.17452,-0.38978 0.38978,-0.38978c0.21528,0 0.38978,0.17452 0.38978,0.38978c0,0.21526 -0.1745,0.38978 -0.38978,0.38978c-0.21526,0 -0.38978,-0.17452 -0.38978,-0.38978z"/><path d="M287.7847,102.62078c0,-0.21526 0.17452,-0.38979 0.38978,-0.38979c0.21528,0 0.38978,0.17453 0.38978,0.38979c0,0.21526 -0.17451,0.38978 -0.38978,0.38978c-0.21526,0 -0.38978,-0.17452 -0.38978,-0.38978z"/><path d="M291.08286,100.67187c0,-0.21526 0.17452,-0.38978 0.38978,-0.38978c0.21528,0 0.38978,0.17452 0.38978,0.38978c0,0.21526 -0.17451,0.38978 -0.38978,0.38978c-0.21526,0 -0.38978,-0.17452 -0.38978,-0.38978z"/></g><g stroke-linecap="round"><path d="M269.50723,71.19522l-5.55059,4.13179c0,0 -5.57967,-9.34043 -9.45558,-13.52046c-2.3545,-2.53924 -6.77862,-7.01137 -10.10198,-9.6544c-2.38554,-1.89719 -4.22546,-2.4743 -4.22546,-2.4743c-2.36092,-2.02888 -4.40157,-4.60441 -6.71773,-6.66574c-2.7384,-2.43713 -4.82151,-5.45704 -7.41166,-7.91211c-1.81936,-1.72448 -4.24146,-2.80511 -5.79488,-4.78527c-3.56731,-3.04718 -4.4042,-7.21039 -3.26299,-12.17358c1.35234,-2.22798 2.51092,-4.51518 5.49771,-6.24344c4.6969,-0.89267 8.21601,-0.32059 11.05858,1.09289c3.37846,1.5594 5.9666,3.90523 8.29434,6.51015c0.99576,0.8363 1.57133,0.92317 2.60141,1.77024c1.6722,1.37513 3.78058,3.5703 5.15115,5.40513c1.64296,2.1995 2.63927,5.23898 4.17188,7.58734c1.40243,2.68568 2.54325,5.48756 3.96334,8.22135c1.07005,2.05995 2.45802,4.00813 3.34233,6.24856c1.54467,3.04853 4.32755,4.92042 5.52299,7.95656c0.8793,2.2332 0.18966,5.64718 1.13217,7.81762c0.73965,2.21353 1.27323,4.44942 1.78498,6.6877z" fill="url(#color-19)" stroke="none" stroke-width="0.9" stroke-linejoin="round"/><path d="M278.43285,71.72197c0,0 -1.97233,-7.78253 -2.5746,-11.38267c-1.70758,-10.20726 3.50001,-12.70147 3.50001,-12.70147l17.74871,-11.48446l7.45773,2.23752c0,0 5.34125,-2.27401 8.69049,-2.67749c0.25403,-0.03061 2.7634,0.07714 5.06919,-0.37078c4.08161,-0.79288 8.85662,-2.32845 8.85662,-2.32845l-2.95267,2.30871c0,0 13.23748,1.01573 18.6673,10.95505c0.25104,1.08648 2.49185,10.98168 2.49185,10.98168c0,0 -2.1708,-4.21035 -2.7178,-2.81318c-2.3329,5.95887 -9.4958,6.52666 -9.4958,6.52666c0,0 -10.84352,-0.57282 -15.5854,-1.25024c-4.42723,-0.63246 -19.47853,-8.86982 -25.57321,-4.64048c-1.50014,1.041 -2.06564,4.09192 -2.06564,4.09192c0,0 0.15736,3.21127 0.55696,5.01309c0.41185,1.85705 1.87847,5.96854 1.87847,5.96854" fill="url(#color-20)" stroke="#000000" stroke-width="0" stroke-linejoin="miter"/><path d="M249.13118,28.04032l1.35144,-5.25627c0,0 0.12435,3.26827 0.68523,4.24958c0.67086,1.17375 2.03808,3.78059 2.03808,3.78059c0,0 0.54004,-1.54216 1.16486,-1.99709c0.78784,-0.57361 3.18751,-1.17182 3.18751,-1.17182c0,0 -2.12961,1.84472 -2.4292,3.89745c-0.05707,0.39104 1.29706,-1.74434 1.30131,-1.13727c0.00248,0.3533 -0.47913,1.26316 -0.83271,2.37649c-0.29662,0.93393 -0.47768,2.08745 -0.45525,2.43206c0.16916,2.60044 0.52401,5.39382 0.52401,5.39382" data-paper-data="{&quot;index&quot;:null}" fill="url(#color-21)" stroke="#000000" stroke-width="0" stroke-linejoin="miter"/><path d="M281.70868,47.04794c0,0 1.71395,-2.2341 3.17032,-4.3951c0.19301,-0.28637 0.6178,-1.374 0.83216,-2.33017c0.25554,-1.13985 0.29798,-2.16842 0.47813,-2.47235c0.30955,-0.52225 0.4033,2.00457 0.55104,1.63803c0.77549,-1.92407 -0.13457,-4.59054 -0.13457,-4.59054c0,0 1.77139,1.72581 2.1629,2.61824c0.3105,0.70779 -0.00005,2.31199 -0.00005,2.31199c0,0 2.49446,-1.56288 3.66534,-2.23874c0.97891,-0.56504 2.73305,-3.32549 2.73305,-3.32549l-1.48103,5.22124" data-paper-data="{&quot;index&quot;:null}" fill="url(#color-22)" stroke="#000000" stroke-width="0" stroke-linejoin="miter"/></g><path d="M248.75904,91.27765c0.02238,-1.00662 -0.15758,-2.64565 -0.35748,-4.11667c-0.05364,-0.39467 -0.57583,-0.99851 -1.17592,-0.93131c-0.873,0.09776 -1.91087,1.00885 -1.91087,1.00885c0,0 0.74564,-1.4393 1.1897,-1.99866c0.41967,-0.52863 1.40561,-1.27056 1.40561,-1.27056c0,0 -1.16099,-0.11245 -2.16571,0.28432c-1.07753,0.42554 -2.00252,1.35515 -1.95945,1.12743c0.02263,-0.11959 3.24094,-5.14465 3.24094,-5.14465c0,0 -1.23187,-0.01866 -1.96083,0.18475c-0.91895,0.25641 -3.1161,1.23189 -3.1161,1.23189c0,0 1.43367,-1.58071 2.80432,-2.68837c1.11012,-0.89712 2.27241,-1.32807 1.85925,-1.58903c-0.51328,-0.3242 -1.0337,-0.66492 -1.52577,-1.01704c-2.45718,-1.75837 -4.30139,-3.75385 -4.30139,-3.75385c0,0 3.17487,1.38818 6.39781,1.88604c2.03199,0.3139 4.57436,-0.05361 4.80398,-0.3139c1.15364,-1.30782 6.04198,-2.81079 11.60218,-3.88489c4.91248,-0.94898 7.13356,-0.99507 9.15572,-1.17318c0.16179,-0.01425 3.09289,-0.46589 5.14421,-1.30403c2.1971,-0.89772 3.51829,-2.18549 3.51829,-2.18549l-1.4556,2.92734c0,0 5.25319,0.34897 8.10607,0.75082c6.06099,0.85375 12.03961,2.31618 13.60107,3.64634c2.77816,2.36663 2.22654,5.26646 2.24718,6.31255c0.00207,0.10461 1.07412,1.43513 2.68807,2.62259c1.81522,1.33555 4.19593,2.53815 4.19593,2.53815c0,0 -1.89643,0.56925 -3.8057,0.53415c-1.17944,-0.02168 -2.71815,-0.36356 -2.71815,-0.36356c0,0 3.26725,1.9948 3.97058,2.3159c1.37935,0.62972 3.00546,0.8679 3.00546,0.8679c0,0 -1.3175,1.26763 -2.02127,1.6748c-0.7034,0.40694 -2.20022,0.7675 -2.20022,0.7675c0,0 0.80695,1.28498 1.48547,1.76776c0.83197,0.59195 3.1405,1.52364 3.1405,1.52364c0,0 -2.13198,0.41855 -3.03343,0.36568c-0.72503,-0.04252 -1.96224,-0.65868 -1.96224,-0.65868c0,0 2.58378,2.43299 2.94861,3.85921c0.35489,1.38732 -0.45214,3.08605 -0.45214,3.08605c0,0 -0.68689,-1.98816 -1.90707,-3.11977c-1.04688,-0.97089 -2.6537,-1.12 -2.65397,-1.01579c-0.00854,3.19582 0.51767,10.57092 -2.16953,13.58922c-5.55917,6.24418 -20.02962,6.67208 -25.8967,6.69018c-2.80802,0.00867 -7.35225,-0.48832 -12.37861,-1.26526c-1.94208,-0.3002 -3.5251,-0.76175 -5.43838,-1.24912c-2.30026,-0.58594 -4.8724,-1.27812 -6.38834,-2.68808c-1.52004,-1.41377 -1.76558,-2.70512 -2.12785,-4.56594c-0.28295,-1.45337 -0.81717,-3.37929 -0.90211,-5.15978c-0.00376,-0.07896 -0.66797,-0.2235 -1.41749,0.04797c-0.97407,0.35279 -2.09225,1.15852 -2.09225,1.15852c0,0 0.59573,-1.63202 1.02495,-2.20079c0.37168,-0.49252 1.40269,-1.01613 1.40269,-1.01613c0,0 -1.53199,0.75201 -2.19413,0.8243c-0.87929,0.09601 -2.61744,-0.29892 -2.61744,-0.29892c0,0 1.54941,-0.76787 2.354,-1.64564c1.00532,-1.09676 3.211,-4.42551 3.211,-4.42551c0,0 -1.45091,1.11871 -2.07032,1.39442c-0.73891,0.3289 -2.06818,0.4477 -2.06818,0.4477c0,0 1.60355,-0.82715 2.73928,-2.05097c0.75153,-0.80983 1.19637,-2.09892 1.20174,-2.34039z" fill="url(#color-23)" stroke="none" stroke-width="0" stroke-linecap="butt" stroke-linejoin="miter"/><g stroke-linejoin="miter"><path d="M278.10857,89.30349c0,6.85201 -5.50857,12.40668 -12.30371,12.40668c-6.79515,0 -12.3037,-5.55466 -12.3037,-12.40668c0,-6.85201 5.50856,-12.40666 12.3037,-12.40666c6.79515,0 12.30371,5.55466 12.30371,12.40666z" fill="url(#color-24)" stroke="none" stroke-width="0" stroke-linecap="butt"/><path d="M271.82939,88.50401c0,4.90648 -3.26627,8.88397 -7.29545,8.88397c-4.02918,0 -7.29545,-3.97747 -7.29545,-8.88397c0,-4.90648 3.26627,-8.88397 7.29545,-8.88397c4.02918,0 7.29545,3.97747 7.29545,8.88397z" fill="#000000" stroke="none" stroke-width="0" stroke-linecap="butt"/><path d="M264.90876,93.17588l-11.53152,-4.05738l11.21118,-4.59125l9.82314,3.95061z" fill="#000000" stroke="#000000" stroke-width="0.5" stroke-linecap="round"/></g><path d="M278.09657,105.05739l-5.05959,-5.63454l5.28957,1.49488l4.36965,-1.72487z" fill="#000000" stroke="#000000" stroke-width="0.5" stroke-linecap="round" stroke-linejoin="miter"/><g stroke="none" stroke-linecap="butt" stroke-linejoin="miter"><path d="M269.74355,88.5284c0,3.2929 -2.34674,5.96231 -5.2416,5.96231c-2.89485,0 -5.24159,-2.66942 -5.24159,-5.96231c0,-3.2929 2.34673,-5.9623 5.24159,-5.9623c2.89485,0 5.2416,2.6694 5.2416,5.9623z" fill="#ff00bb" stroke-width="NaN"/><path d="M264.81545,88.18941c0,4.31862 -0.16815,7.81955 -0.37556,7.81955c-0.20741,0 -0.37556,-3.50092 -0.37556,-7.81955c0,-4.31862 0.16815,-7.81956 0.37556,-7.81956c0.20741,0 0.37556,3.50093 0.37556,7.81956z" fill="#000000" stroke-width="NaN"/></g><g fill="#000000" stroke="none" stroke-width="0.5" stroke-linecap="butt" stroke-linejoin="miter"><path d="M264.89515,101.33505c0,-0.21526 0.17452,-0.38978 0.38978,-0.38978c0.21526,0 0.38978,0.17452 0.38978,0.38978c0,0.21526 -0.17452,0.38978 -0.38978,0.38978c-0.21526,0 -0.38978,-0.17452 -0.38978,-0.38978z"/><path d="M267.29379,103.58379c0,-0.21526 0.17451,-0.38978 0.38978,-0.38978c0.21526,0 0.38978,0.17452 0.38978,0.38978c0,0.21526 -0.17452,0.38978 -0.38978,0.38978c-0.21527,0 -0.38978,-0.17452 -0.38978,-0.38978z"/><path d="M270.59195,101.63489c0,-0.21526 0.17452,-0.38978 0.38978,-0.38978c0.21526,0 0.38978,0.17452 0.38978,0.38978c0,0.21526 -0.17452,0.38978 -0.38978,0.38978c-0.21526,0 -0.38978,-0.17452 -0.38978,-0.38978z"/></g><g fill="#000000" stroke="none" stroke-width="0.5" stroke-linecap="butt" stroke-linejoin="miter"><path d="M284.55854,100.53013c0,-0.21526 0.17452,-0.38978 0.38978,-0.38978c0.21528,0 0.38978,0.17452 0.38978,0.38978c0,0.21526 -0.1745,0.38978 -0.38978,0.38978c-0.21526,0 -0.38978,-0.17452 -0.38978,-0.38978z"/><path d="M286.95718,102.77886c0,-0.21526 0.17452,-0.38979 0.38978,-0.38979c0.21528,0 0.38978,0.17453 0.38978,0.38979c0,0.21526 -0.17451,0.38978 -0.38978,0.38978c-0.21526,0 -0.38978,-0.17452 -0.38978,-0.38978z"/><path d="M290.25534,100.82995c0,-0.21526 0.17452,-0.38978 0.38978,-0.38978c0.21528,0 0.38978,0.17452 0.38978,0.38978c0,0.21526 -0.17451,0.38978 -0.38978,0.38978c-0.21526,0 -0.38978,-0.17452 -0.38978,-0.38978z"/></g><path d="M278.30181,108.75075c0,0 -0.32807,-1.60151 -0.20503,-3.01031c0.06662,-0.76275 0.23895,-1.51322 0.16759,-2.14779" fill="none" stroke="#000000" stroke-width="0.5" stroke-linecap="round" stroke-linejoin="miter"/><path d="M288.34688,108.89022c0,0 1.10176,0.10197 1.58885,0.65554c0.04584,0.0521 0.59645,0.80466 0.94354,1.44513c0.3471,0.64047 0.77726,1.73019 0.77726,1.73019l-25.08099,-0.44293c0,0 2.66489,-4.07126 5.05397,-4.03585c2.22396,0.03297 2.92524,-0.11532 6.51066,0.5729c2.3233,0.44595 10.20671,0.07503 10.20671,0.07503z" fill="#000000" stroke="#000000" stroke-width="0.5" stroke-linecap="round" stroke-linejoin="miter"/><path d="M272.40461,108.11566c0.60786,-0.06636 0.58899,0.38976 0.58899,0.38976c0,0 -0.0957,0.4954 -0.17842,0.77859c-0.09514,0.32564 -0.24998,1.12472 -0.24998,1.12472l-0.52634,-1.75488c0,0 -0.14404,-0.48257 0.36575,-0.53821z" data-paper-data="{&quot;index&quot;:null}" fill="#ff00bb" stroke="#000000" stroke-width="0" stroke-linecap="round" stroke-linejoin="miter"/><path d="M273.5442,108.07507c0.60786,-0.06636 0.589,0.38976 0.589,0.38976c0,0 -0.0957,0.49541 -0.17843,0.7786c-0.09514,0.32564 -0.24998,1.12472 -0.24998,1.12472l-0.52634,-1.75488c0,0 -0.14404,-0.48257 0.36575,-0.53822z" data-paper-data="{&quot;index&quot;:null}" fill="#ff00bb" stroke="#000000" stroke-width="0" stroke-linecap="round" stroke-linejoin="miter"/><path d="M274.72319,108.11323c0.60786,-0.06636 0.589,0.38976 0.589,0.38976c0,0 -0.0957,0.4954 -0.17843,0.77859c-0.09514,0.32564 -0.24998,1.12472 -0.24998,1.12472l-0.52634,-1.75488c0,0 -0.14404,-0.48257 0.36575,-0.53821z" data-paper-data="{&quot;index&quot;:null}" fill="#ff00bb" stroke="#000000" stroke-width="0" stroke-linecap="round" stroke-linejoin="miter"/><path d="M275.84308,108.23016c0.60786,-0.06636 0.589,0.38976 0.589,0.38976c0,0 -0.0957,0.4954 -0.17843,0.77859c-0.09514,0.32564 -0.24998,1.12473 -0.24998,1.12473l-0.52634,-1.75488c0,0 -0.14404,-0.48257 0.36575,-0.53822z" data-paper-data="{&quot;index&quot;:null}" fill="#ff00bb" stroke="#000000" stroke-width="0" stroke-linecap="round" stroke-linejoin="miter"/><path d="M271.29886,108.13414c0.60786,-0.06636 0.589,0.38976 0.589,0.38976c0,0 -0.0957,0.4954 -0.17843,0.77859c-0.09514,0.32564 -0.24998,1.12472 -0.24998,1.12472l-0.52634,-1.75488c0,0 -0.14404,-0.48257 0.36575,-0.53821z" data-paper-data="{&quot;index&quot;:null}" fill="#ff00bb" stroke="#000000" stroke-width="0" stroke-linecap="round" stroke-linejoin="miter"/><path d="M270.37379,108.39415c0.50922,-0.0554 0.47761,0.40372 0.47761,0.40372l-0.11741,1.67013c0,0 -0.3309,-0.6793 -0.49696,-0.94953c-0.14441,-0.23501 -0.34927,-0.65621 -0.34927,-0.65621c0,0 -0.12114,-0.40205 0.48603,-0.4681z" data-paper-data="{&quot;index&quot;:null}" fill="#ff00bb" stroke="#000000" stroke-width="0" stroke-linecap="round" stroke-linejoin="miter"/><path d="M276.90083,108.38607c0.57189,-0.06243 0.55414,0.3667 0.55414,0.3667c0,0 -0.09004,0.46609 -0.16787,0.73252c-0.08951,0.30637 -0.23519,1.05817 -0.23519,1.05817l-0.49519,-1.65103c0,0 -0.13551,-0.45401 0.3441,-0.50636z" data-paper-data="{&quot;index&quot;:null}" fill="#ff00bb" stroke="#000000" stroke-width="0" stroke-linecap="round" stroke-linejoin="miter"/><path d="M278.88458,108.75737c0.57189,-0.05845 0.55414,0.34333 0.55414,0.34333c0,0 -0.09004,0.4364 -0.16787,0.68586c-0.08951,0.28686 -0.23519,0.99076 -0.23519,0.99076l-0.49519,-1.54586c0,0 -0.13551,-0.42509 0.3441,-0.47411z" data-paper-data="{&quot;index&quot;:null}" fill="#ff00bb" stroke="#000000" stroke-width="0" stroke-linecap="round" stroke-linejoin="miter"/><path d="M277.88286,108.56207c0.57189,-0.06243 0.55414,0.3667 0.55414,0.3667c0,0 -0.09004,0.46609 -0.16787,0.73252c-0.08951,0.30637 -0.23519,1.05817 -0.23519,1.05817l-0.49519,-1.65103c0,0 -0.13551,-0.45401 0.3441,-0.50637z" data-paper-data="{&quot;index&quot;:null}" fill="#ff00bb" stroke="#000000" stroke-width="0" stroke-linecap="round" stroke-linejoin="miter"/><path d="M279.93761,108.85461c0.55959,-0.05845 0.54222,0.34333 0.54222,0.34333c0,0 -0.0881,0.4364 -0.16425,0.68586c-0.08758,0.28686 -0.23013,0.99076 -0.23013,0.99076l-0.48454,-1.54586c0,0 -0.1326,-0.42509 0.3367,-0.47411z" data-paper-data="{&quot;index&quot;:null}" fill="#ff00bb" stroke="#000000" stroke-width="0" stroke-linecap="round" stroke-linejoin="miter"/><path d="M280.91963,108.87309c0.55959,-0.05845 0.54222,0.34334 0.54222,0.34334c0,0 -0.0881,0.4364 -0.16425,0.68585c-0.08758,0.28686 -0.23013,0.99076 -0.23013,0.99076l-0.48454,-1.54586c0,0 -0.1326,-0.42509 0.3367,-0.4741z" data-paper-data="{&quot;index&quot;:null}" fill="#ff00bb" stroke="#000000" stroke-width="0" stroke-linecap="round" stroke-linejoin="miter"/><path d="M281.8737,108.91379c0.55959,-0.05845 0.54222,0.34333 0.54222,0.34333c0,0 -0.0881,0.4364 -0.16425,0.68586c-0.08758,0.28686 -0.23012,0.99076 -0.23012,0.99076l-0.48455,-1.54586c0,0 -0.13259,-0.42509 0.33671,-0.47411z" data-paper-data="{&quot;index&quot;:null}" fill="#ff00bb" stroke="#000000" stroke-width="0" stroke-linecap="round" stroke-linejoin="miter"/><path d="M282.78711,108.8732c0.55959,-0.05845 0.54222,0.34333 0.54222,0.34333c0,0 -0.0881,0.4364 -0.16425,0.68586c-0.08758,0.28686 -0.23013,0.99075 -0.23013,0.99075l-0.48454,-1.54586c0,0 -0.1326,-0.42509 0.3367,-0.4741z" data-paper-data="{&quot;index&quot;:null}" fill="#ff00bb" stroke="#000000" stroke-width="0" stroke-linecap="round" stroke-linejoin="miter"/><path d="M283.74117,108.87326c0.55959,-0.05845 0.54222,0.34334 0.54222,0.34334c0,0 -0.0881,0.4364 -0.16425,0.68585c-0.08758,0.28686 -0.23012,0.99076 -0.23012,0.99076l-0.48454,-1.54586c0,0 -0.1326,-0.42509 0.3367,-0.4741z" data-paper-data="{&quot;index&quot;:null}" fill="#ff00bb" stroke="#000000" stroke-width="0" stroke-linecap="round" stroke-linejoin="miter"/><path d="M284.71789,108.85531c0.55959,-0.05845 0.54222,0.34333 0.54222,0.34333c0,0 -0.0881,0.4364 -0.16425,0.68586c-0.08758,0.28686 -0.23013,0.99076 -0.23013,0.99076l-0.48454,-1.54586c0,0 -0.13259,-0.42509 0.33671,-0.4741z" data-paper-data="{&quot;index&quot;:null}" fill="#ff00bb" stroke="#000000" stroke-width="0" stroke-linecap="round" stroke-linejoin="miter"/><path d="M285.66963,108.83272c0.55959,-0.05845 0.54222,0.34333 0.54222,0.34333c0,0 -0.0881,0.4364 -0.16425,0.68586c-0.08758,0.28686 -0.23012,0.99075 -0.23012,0.99075l-0.48454,-1.54585c0,0 -0.1326,-0.42509 0.3367,-0.47411z" data-paper-data="{&quot;index&quot;:null}" fill="#ff00bb" stroke="#000000" stroke-width="0" stroke-linecap="round" stroke-linejoin="miter"/><path d="M286.56271,108.79213c0.55959,-0.05845 0.54222,0.34333 0.54222,0.34333c0,0 -0.0881,0.4364 -0.16425,0.68586c-0.08758,0.28686 -0.23012,0.99075 -0.23012,0.99075l-0.48455,-1.54585c0,0 -0.13259,-0.42509 0.33671,-0.47411z" data-paper-data="{&quot;index&quot;:null}" fill="#ff00bb" stroke="#000000" stroke-width="0" stroke-linecap="round" stroke-linejoin="miter"/><path d="M287.52897,108.83555c0.55959,-0.05845 0.54222,0.34333 0.54222,0.34333c0,0 -0.0881,0.4364 -0.16425,0.68586c-0.08758,0.28686 -0.23013,0.99075 -0.23013,0.99075l-0.48454,-1.54586c0,0 -0.1326,-0.42509 0.3367,-0.4741z" data-paper-data="{&quot;index&quot;:null}" fill="#ff00bb" stroke="#000000" stroke-width="0" stroke-linecap="round" stroke-linejoin="miter"/><path d="M288.34688,108.89022c0,0 1.10176,0.10197 1.58885,0.65554c0.04584,0.0521 0.59645,0.80466 0.94354,1.44513c0.3471,0.64047 0.77726,1.73019 0.77726,1.73019l-25.08099,-0.44293c0,0 2.66489,-4.07126 5.05397,-4.03585c2.22396,0.03297 2.92524,-0.11532 6.51066,0.5729c2.3233,0.44595 10.20671,0.07503 10.20671,0.07503z" fill="none" stroke="#000000" stroke-width="0.5" stroke-linecap="round" stroke-linejoin="miter"/></g></g></svg>