<svg version="1.1" xmlns="http://www.w3.org/2000/svg" xmlns:xlink="http://www.w3.org/1999/xlink" width="1209" height="970" viewBox="0,0,1209,970"><g transform="translate(364.5,305)"><g data-paper-data="{&quot;isPaintingLayer&quot;:true}" fill-rule="nonzero" stroke-linejoin="miter" stroke-miterlimit="10" stroke-dasharray="" stroke-dashoffset="0" style="mix-blend-mode: normal"><g stroke="#101010" stroke-width="3.25"><path d="M392.3867,573.72621l-170.2507,-68.78434" fill="none" stroke-linecap="round"/><path d="M385.3491,585.69136c0,-17.48513 14.1745,-31.65966 31.65966,-31.65966c17.48516,0 31.65966,14.17453 31.65966,31.65966c0,17.48516 -14.1745,31.65966 -31.65966,31.65966c-17.48516,0 -31.65966,-14.1745 -31.65966,-31.65966z" fill="#00acff" stroke-linecap="butt"/></g><g data-paper-data="{&quot;index&quot;:null}" stroke="#101010" stroke-width="3.25"><path d="M252.53287,506.56125l-170.2507,68.78434" fill="none" stroke-linecap="round"/><path d="M57.66008,618.97038c-17.48516,0 -31.65966,-14.1745 -31.65966,-31.65966c0,-17.48513 14.1745,-31.65966 31.65966,-31.65966c17.48516,0 31.65966,14.17453 31.65966,31.65966c0,17.48516 -14.1745,31.65966 -31.65966,31.65966z" fill="#00acff" stroke-linecap="butt"/></g><g data-paper-data="{&quot;index&quot;:null}" stroke="#101010" stroke-width="3.25"><path d="M495.30494,353.20988l-53.00318,-84.59235" fill="none" stroke-linecap="round"/><path d="M528.41909,406.56619c-14.8606,9.21377 -34.37668,4.6361 -43.59045,-10.2245c-9.21374,-14.86057 -4.63613,-34.37668 10.22447,-43.59045c14.8606,-9.21377 34.37668,-4.6361 43.59045,10.22447c9.21377,14.8606 4.63613,34.37671 -10.22447,43.59045z" fill="#00acff" stroke-linecap="butt"/></g><g data-paper-data="{&quot;index&quot;:null}" stroke="#101010" stroke-width="3.25"><path d="M35.53564,263.79025l-53.00318,84.59235" fill="none" stroke-linecap="round"/><path d="M-60.80622,358.14843c9.21377,-14.86057 28.72985,-19.43824 43.59045,-10.22447c14.8606,9.21377 19.43824,28.72988 10.2245,43.59045c-9.21377,14.8606 -28.72988,19.43824 -43.59045,10.22447c-14.8606,-9.21377 -19.43824,-28.72988 -10.22447,-43.59045z" fill="#00acff" stroke-linecap="butt"/></g><g stroke="#101010" stroke-width="3.25"><path d="M354.10539,-8.04804c-35.12352,-21.4874 -6.80934,-57.69644 -6.80934,-57.69644l80.8512,-45.95847l-17.43268,103.73215c0,0 -21.48566,21.41014 -56.60918,-0.07723z" data-paper-data="{&quot;index&quot;:null}" fill="#00abff" stroke-linecap="round"/><path d="M60.38565,-8.58109l-17.43265,-103.73212l80.8512,45.95844c0,0 28.31417,36.20907 -6.80934,57.69644c-35.12352,21.48737 -56.60921,0.07723 -56.60921,0.07723z" fill="#00abff" stroke-linecap="round"/><path d="M37.216,515.54851v-432.04563c0,0 8.71652,-187.16269 200.02802,-190.48868c188.17641,-3.27149 204.57413,190.48871 204.57413,190.48871v432.04563z" fill="#fefe3a" stroke-linecap="butt"/></g><g stroke-width="3.25" stroke-linecap="butt"><path d="M152.59503,133.08782c0,-1.57026 38.85667,-1.12661 38.85667,0c0,10.72995 -8.69837,19.42835 -19.42832,19.42835c-10.72995,0 -19.42835,-8.69837 -19.42835,-19.42835z" fill="#db6f04" stroke="#101010"/><path d="M177.8326,138.07609c0,-3.11839 2.52792,-5.64634 5.64631,-5.64634c3.11839,0 5.64634,2.52795 5.64634,5.64634c0,3.11839 -2.52795,5.64634 -5.64634,5.64634c-3.11839,0 -5.64631,-2.52795 -5.64631,-5.64634z" fill="#ffffff" stroke="none"/></g><g stroke-width="3.25" stroke-linecap="butt"><path d="M274.85728,130.07663c0,-3.3013 43.47654,-2.7037 43.47654,0c0,12.00577 -9.73256,21.73827 -21.73827,21.73827c-12.00577,0 -21.73827,-9.73259 -21.73827,-21.73827z" fill="#18ab74" stroke="#101010"/><path d="M281.89455,135.52624c0,-3.48915 2.82853,-6.31765 6.31771,-6.31765c3.48915,0 6.31768,2.8285 6.31768,6.31765c0,3.48915 -2.82853,6.31768 -6.31768,6.31768c-3.48915,0 -6.31771,-2.82856 -6.31771,-6.31768z" fill="#ffffff" stroke="none"/></g><g stroke-width="3.25" stroke-linecap="butt"><path d="M215.60529,182.30491c0,-11.61462 9.41554,-21.03016 21.03019,-21.03016c11.61462,0 21.03019,9.41554 21.03019,21.03016c0,11.61462 -9.41557,21.03019 -21.03019,21.03019c-11.61462,0 -21.03019,-9.41554 -21.03019,-21.03019z" fill="#f90625" stroke="#101010"/><path d="M224.76029,175.78155c0,-2.97152 2.40888,-5.38043 5.3804,-5.38043c2.97152,0 5.3804,2.40888 5.3804,5.38043c0,2.97152 -2.40888,5.38037 -5.3804,5.38037c-2.97152,0 -5.3804,-2.40888 -5.3804,-5.38037z" fill="#ffffff" stroke="none"/></g><g stroke="#101010" stroke-width="3.25" stroke-linecap="round"><path d="M-95.02439,213.40015l96.27562,-22.88659l10.24212,42.06182" fill="#ffffff"/><path d="M609.63131,207.21457c0,0 -161.58246,42.24055 -368.90459,44.50909c-183.35262,2.00626 -348.04161,-39.56063 -348.04161,-39.56063" fill="none"/></g><path d="M130.90274,102.05818c0,0 0.54471,-31.47535 20.34356,-49.33312c19.79884,-17.85778 31.53251,2.54294 31.53251,2.54294" fill="none" stroke="#101010" stroke-width="3.25" stroke-linecap="round"/><path d="M-364.5,665v-970h1209v970z" fill-opacity="0.35484" fill="#ff0000" stroke="none" stroke-width="0" stroke-linecap="butt"/></g></g></svg>