<svg version="1.1" xmlns="http://www.w3.org/2000/svg" xmlns:xlink="http://www.w3.org/1999/xlink" width="441.40435" height="386.5036" viewBox="0,0,441.40435,386.5036"><defs><linearGradient x1="171.52865" y1="217.7153" x2="171.52865" y2="248.72537" gradientUnits="userSpaceOnUse" id="color-1"><stop offset="0" stop-color="#80d0ff"/><stop offset="1" stop-color="#dff5ff"/></linearGradient><linearGradient x1="182.94695" y1="215.05022" x2="182.94695" y2="247.26973" gradientUnits="userSpaceOnUse" id="color-2"><stop offset="0" stop-color="#80d0ff"/><stop offset="1" stop-color="#dff5ff"/></linearGradient><linearGradient x1="165.52986" y1="209.44467" x2="165.52986" y2="238.66637" gradientUnits="userSpaceOnUse" id="color-3"><stop offset="0" stop-color="#80d0ff"/><stop offset="1" stop-color="#dff5ff"/></linearGradient><linearGradient x1="192.57064" y1="205.86828" x2="192.57064" y2="237.91325" gradientUnits="userSpaceOnUse" id="color-4"><stop offset="0" stop-color="#80d0ff"/><stop offset="1" stop-color="#dff5ff"/></linearGradient><linearGradient x1="181.64246" y1="193.36153" x2="181.64246" y2="239.17085" gradientUnits="userSpaceOnUse" id="color-5"><stop offset="0" stop-color="#80d0ff"/><stop offset="1" stop-color="#dff5ff"/></linearGradient><linearGradient x1="306.52455" y1="217.42958" x2="306.52455" y2="248.43965" gradientUnits="userSpaceOnUse" id="color-6"><stop offset="0" stop-color="#80d0ff"/><stop offset="1" stop-color="#dff5ff"/></linearGradient><linearGradient x1="295.10625" y1="214.7645" x2="295.10625" y2="246.98401" gradientUnits="userSpaceOnUse" id="color-7"><stop offset="0" stop-color="#80d0ff"/><stop offset="1" stop-color="#dff5ff"/></linearGradient><linearGradient x1="312.52333" y1="209.15895" x2="312.52333" y2="238.38065" gradientUnits="userSpaceOnUse" id="color-8"><stop offset="0" stop-color="#80d0ff"/><stop offset="1" stop-color="#dff5ff"/></linearGradient><linearGradient x1="285.48256" y1="205.58256" x2="285.48256" y2="237.62753" gradientUnits="userSpaceOnUse" id="color-9"><stop offset="0" stop-color="#80d0ff"/><stop offset="1" stop-color="#dff5ff"/></linearGradient><linearGradient x1="296.41075" y1="193.07581" x2="296.41075" y2="238.88513" gradientUnits="userSpaceOnUse" id="color-10"><stop offset="0" stop-color="#80d0ff"/><stop offset="1" stop-color="#dff5ff"/></linearGradient></defs><g transform="translate(-12.25595,34.15664)"><g data-paper-data="{&quot;isPaintingLayer&quot;:true}" stroke-miterlimit="10" stroke-dasharray="" stroke-dashoffset="0" style="mix-blend-mode: normal"><g fill="#00aeff" fill-rule="nonzero" stroke="#000000" stroke-width="1" stroke-linecap="butt" stroke-linejoin="miter"><g><g><path d="M104.83562,323.30249c6.42472,-55.66904 129.62806,-111.03052 147.3905,-78.73632c60.84582,109.4927 -154.19314,134.09781 -147.3905,78.73632z"/><path d="M248.8248,240.26027c0,0 -0.75585,-0.30756 -1.88962,-0.61512c-1.13377,-0.61513 -3.02339,-0.92269 -4.91302,-1.53782c-2.26755,-0.61513 -4.91301,-1.23025 -8.31433,-1.53782c-3.02339,-0.30757 -6.80264,-0.30757 -10.95981,0c-3.77925,0.30757 -8.31434,0.9227 -12.4715,1.84539c-4.53509,1.23025 -9.07018,2.46051 -13.60528,3.99833c-4.53509,1.53782 -9.44811,3.3832 -13.9832,5.22858c-2.26755,0.92269 -4.53509,2.15295 -6.80264,3.07564c-2.26755,0.92269 -4.53509,2.15294 -6.80264,3.3832c-2.26755,1.23025 -4.53509,2.46051 -6.80264,3.69076c-2.26755,1.23025 -4.15716,2.46051 -6.42471,3.69076c-2.26755,1.23025 -4.15717,2.76808 -6.04679,3.99833c-1.88962,1.23025 -3.77925,2.76807 -5.66887,4.30589c-1.88962,1.53782 -3.40131,2.76807 -5.29094,4.30589c-1.5117,1.53782 -3.40132,2.76807 -4.91302,4.30589c-3.02339,2.76808 -5.66887,5.53615 -8.31434,7.99666c-4.91302,5.22859 -8.69226,9.53448 -11.33773,12.91768c-2.64547,3.07564 -3.77925,5.22858 -3.77925,5.22858c0,0 1.13377,-2.15295 3.02339,-5.53615c2.26755,-3.3832 5.29094,-8.30422 10.20396,-13.5328c2.26755,-2.76808 4.91301,-5.53614 7.93641,-8.61178c3.02339,-3.07564 6.04679,-6.15127 9.82604,-8.91935c1.88962,-1.53782 3.77924,-3.07564 5.66886,-4.3059c1.88962,-1.53782 3.77924,-2.76807 6.04679,-4.30589c1.88962,-1.53782 4.15717,-2.76808 6.42472,-3.99833c2.26755,-1.23025 4.53509,-2.76808 6.80264,-3.69076c4.53509,-2.15294 9.4481,-4.3059 14.36112,-6.45884c4.91302,-1.84539 9.44811,-3.69076 14.36113,-5.22859c4.53509,-1.53782 9.44811,-2.76808 13.9832,-3.69076c4.53509,-0.92269 9.07018,-1.53781 13.22735,-1.53781c4.15717,-0.30757 7.93641,-0.00001 11.33773,0.61512c3.40132,0.61513 6.04678,1.23025 8.31433,2.15294c2.26755,0.92269 3.77925,1.53782 4.91302,2.15295c1.13377,0.30757 1.88962,0.61512 1.88962,0.61512z"/><path d="M259.78461,261.78972c0,0 0.75585,1.53781 1.5117,4.61345c0.37793,1.53782 0.75585,3.3832 1.13377,5.22859c0.37793,2.15294 0.75585,4.30589 0.75585,7.07396c0.37793,2.46051 0,5.22858 0,8.30422c-0.37793,3.07564 -0.75585,6.15127 -1.5117,9.22691c-0.37793,0.92269 -0.37792,1.53782 -0.75585,2.46051c-0.37793,0.92269 -0.75585,1.53782 -0.75585,2.46051c-0.75585,1.53782 -1.13377,3.3832 -2.26754,4.92102c-0.75585,1.53782 -1.88962,3.07564 -2.64547,4.61346l-3.40132,4.61346c-1.13377,1.53782 -2.64548,2.76807 -3.77925,4.30589c-1.5117,1.23025 -2.64547,2.76808 -4.15717,3.99833c-3.02339,2.46051 -5.66886,4.92102 -9.07018,6.76641c-1.5117,0.92269 -3.02339,2.15294 -4.53509,3.07563c-1.5117,0.92269 -3.02339,1.53782 -4.91302,2.46051c-1.5117,0.92269 -3.02339,1.53782 -4.53509,2.15295c-1.5117,0.61513 -3.02339,1.23025 -4.53509,1.84538c-2.64547,1.23025 -5.29094,2.15295 -7.93641,3.07564c-2.26755,0.61513 -4.53509,1.23025 -6.04679,1.84538c-3.40132,0.92269 -5.29094,1.53782 -5.29094,1.53782c0,0 1.88962,-0.92269 5.29094,-2.15295c1.5117,-0.61513 3.77924,-1.53782 6.04679,-2.46051c2.26755,-0.92269 4.5351,-2.15295 7.18057,-3.3832c1.5117,-0.61513 2.64547,-1.23025 4.15717,-1.84538c1.5117,-0.92269 2.64547,-1.53782 4.15717,-2.46051c1.5117,-0.92269 3.02339,-1.84538 4.53509,-2.46051c1.5117,-0.92269 3.02339,-1.84539 4.15717,-3.07564c3.02339,-1.84539 5.66887,-4.30589 8.31434,-6.7664c1.5117,-1.23025 2.64548,-2.46051 3.77925,-3.69076c1.13377,-1.23025 2.64546,-2.46051 3.40131,-3.99833l3.02339,-4.3059c0.75585,-1.53782 1.88962,-3.07563 2.64548,-4.30589c1.13377,-1.53782 1.51169,-3.07564 2.26754,-4.61346l1.13377,-2.15295c0.37793,-0.61513 0.37793,-1.53781 0.75585,-2.15294c1.13377,-3.07564 1.51169,-6.15127 2.26754,-8.91935c0.37793,-2.76808 0.75585,-5.53615 0.37793,-7.99666c0,-4.92102 -0.37792,-9.22691 -0.75585,-12.30255c0,-3.99833 0,-5.53615 0,-5.53615z"/></g><g><path d="M143.38391,256.8687c-63.11337,-37.83035 -130.38391,-253.43254 -130.38391,-253.43254c140.96579,35.98496 234.31311,152.85919 246.40669,204.83747c17.38452,75.04556 -52.90941,86.42542 -116.02278,48.59508z"/><path d="M262.05215,230.72579c0,0 0,-1.23025 0.37793,-3.69076c0,-1.23025 -0.37793,-2.46051 -0.37793,-4.3059c-0.37793,-1.53782 -0.75585,-3.69076 -1.13377,-5.84371c-1.13377,-4.3059 -2.64547,-9.53447 -4.91302,-15.07063c-2.26755,-5.84371 -5.29094,-11.99499 -9.07018,-19.06895c-3.77925,-6.7664 -8.31433,-14.14793 -13.22735,-21.52946c-4.91302,-7.38153 -10.58188,-15.37819 -17.0066,-23.06728c-6.42472,-7.6891 -12.84943,-15.68575 -20.40792,-23.68241c-7.18056,-7.6891 -15.11697,-15.37819 -23.05339,-23.06728c-4.15717,-3.69076 -8.31434,-7.38153 -12.4715,-11.07229c-4.15717,-3.69076 -8.31433,-7.07397 -12.84942,-10.45717c-4.15717,-3.3832 -8.69226,-6.45884 -13.22736,-9.84204c-4.53509,-3.07564 -9.07018,-6.15127 -13.22735,-9.22691c-9.07018,-5.84371 -17.76244,-11.07229 -26.83263,-15.68575c-8.69226,-4.61346 -17.38452,-8.91935 -25.32094,-12.61012c-4.15717,-1.84538 -7.93641,-3.3832 -11.71565,-4.92102c-3.77925,-1.53782 -7.55849,-2.76807 -10.58188,-3.99833c-6.80264,-2.46051 -12.84943,-4.30589 -17.76245,-6.15127c-10.58188,-2.46051 -16.25075,-3.99833 -16.25075,-3.99833c0,0 1.5117,0.30756 4.15717,0.92269c2.64547,0.61513 6.80264,1.53782 12.09358,3.07564c4.91302,1.53782 11.33773,3.07564 18.14037,5.53615c3.40132,1.23025 7.18055,2.46051 10.9598,3.69076c3.77925,1.53782 7.55849,3.07564 11.71566,4.92102c8.31434,3.3832 17.0066,7.38153 25.69886,11.99499c4.53509,2.15295 9.07018,4.92102 13.60528,7.38153c4.53509,2.46051 9.07018,5.53615 13.60528,8.30423c4.53509,3.07564 9.07018,5.84371 13.60528,9.22691c4.53509,3.3832 9.07019,6.45884 13.22736,9.84204c4.53509,3.3832 8.69226,6.7664 13.22735,10.45717c4.53509,3.3832 8.31434,7.38153 12.4715,11.0723c7.93641,7.6891 15.87283,15.37819 23.05339,23.37484c7.18056,7.99666 13.9832,15.99331 20.02999,23.98997c12.4715,15.99331 22.29753,31.67907 29.10018,45.51944c3.77925,6.7664 6.42471,13.53281 8.69226,19.37652c2.26755,5.84371 3.40132,11.07229 4.53509,15.37819c0.37793,2.15294 0.75585,3.99832 0.75585,5.84371c0,1.84539 0,3.07563 0,4.30589c0.37793,1.53782 0.37793,3.07564 0.37793,3.07564z"/><path d="M222.3701,276.86036c0,0 -3.40132,0.30756 -9.44811,0.30756c-3.02339,0 -6.42472,0 -10.58188,0c-2.26755,0 -4.15717,-0.30756 -6.80264,-0.30756c-2.26755,0 -4.91302,-0.61513 -7.18057,-0.92269c-2.64547,-0.30757 -5.29094,-0.92269 -7.93641,-1.53782c-1.5117,-0.30757 -2.64548,-0.61513 -4.15717,-0.92269c-1.5117,-0.30757 -2.64547,-0.92269 -4.15717,-1.23025c-1.5117,-0.30757 -2.64547,-0.92269 -4.15717,-1.23025c-1.5117,-0.30757 -2.64548,-1.23025 -4.15717,-1.84538c-1.5117,-0.61513 -2.64547,-1.23025 -4.15717,-1.84538l-2.26754,-0.92269l-1.88962,-1.23025c-2.64547,-1.53782 -5.29094,-3.07563 -7.93641,-4.61345c-2.64547,-1.84539 -4.91302,-3.69076 -7.55849,-5.53615c-2.64547,-1.84539 -4.91301,-3.99832 -7.18056,-5.84371c-2.26755,-2.15294 -4.91302,-3.99833 -6.80264,-6.15127c-1.88962,-2.15294 -4.15717,-4.61346 -6.04679,-6.76641l-3.02339,-3.3832l-2.64547,-3.3832c-3.40132,-4.61345 -7.18057,-9.22692 -10.20396,-13.84037c-3.02339,-4.61345 -6.04678,-8.91934 -8.31433,-13.22524c-2.26755,-4.30589 -4.53509,-8.61179 -6.80264,-12.30255c-1.13377,-1.84538 -2.26754,-3.69076 -3.02339,-5.53615c-0.37793,-1.84538 -1.13377,-3.3832 -1.88962,-4.92102c-1.5117,-3.07564 -2.64548,-5.84371 -3.77925,-8.30422c-1.88962,-4.61345 -3.02339,-7.07397 -3.02339,-7.07397c0,0 1.5117,2.46052 3.77925,7.07397c1.13377,2.15294 2.64547,4.92102 4.15717,7.99666c1.5117,3.07564 3.40131,6.45884 5.66886,10.14961c2.26755,3.69076 4.53509,7.68909 7.18056,11.99498c2.64547,4.3059 5.66887,8.61178 8.69226,12.91768c3.02339,4.61345 6.80264,8.91935 10.20396,13.5328l2.64547,3.3832l3.02339,3.38321c1.88962,2.15294 4.15717,4.30589 6.04679,6.45884c1.88962,2.15294 4.53509,3.99833 6.42472,6.15127c2.26755,2.15294 4.53509,3.99833 6.80264,5.84371c2.26755,1.84539 4.91301,3.69076 7.18056,5.22859c2.64547,1.53782 5.29094,3.07563 7.55849,4.61345l1.88962,1.23025l1.88962,0.92269c1.5117,0.61513 2.64547,1.23025 3.77924,1.84539c1.13377,0.61513 2.64548,1.23025 3.77925,1.84538c1.5117,0.61513 2.64547,0.92269 4.15717,1.53782c1.13377,0.61513 2.64547,0.92269 3.77924,1.53782c1.13377,0.30757 2.64548,0.61512 3.77925,0.92269c2.64547,0.61513 4.91302,1.23025 7.55849,1.84538c4.91302,0.92269 9.44811,1.23025 13.60528,1.84538c4.15717,0.30757 7.55849,0.30756 10.58188,0.61513c7.55849,-0.30757 10.95981,-0.30756 10.95981,-0.30756z"/></g></g><g><g><path d="M279.8146,239.33758c12.09358,-32.29419 96.37071,23.06728 100.52788,78.73632c4.15717,55.66904 -142.09956,30.75638 -100.52788,-78.73632z"/><path d="M282.08215,234.72412c0,0 0.37792,-0.30757 1.13377,-0.9227c0.75585,-0.61513 1.88962,-1.23025 3.40132,-2.15294c1.5117,-0.92269 3.77925,-1.53781 6.42472,-2.15294c2.64547,-0.61513 5.66886,-0.61513 9.07018,0c6.42472,0.92269 13.60528,3.69076 20.40792,7.38153c3.40132,1.84539 6.80264,3.69076 10.20396,5.84371c1.88962,0.92269 3.40132,2.15295 4.91302,3.3832c1.5117,1.23025 3.02339,2.46051 4.53509,3.69077c1.5117,1.23025 3.02339,2.4605 4.53509,3.99832c1.5117,1.23025 2.64547,2.76808 4.15717,3.99833c2.64547,2.76808 4.91301,5.53614 7.18056,8.30422c4.15717,5.53615 7.55849,11.0723 10.20396,15.99332c5.29094,9.53447 7.55849,16.30088 7.55849,16.30088c0,0 -0.75585,-1.53782 -2.26755,-4.30589c-0.75585,-1.53782 -1.5117,-3.07563 -2.64547,-4.92102c-1.13377,-1.84539 -2.64548,-3.99833 -3.77925,-6.45884c-3.02339,-4.61345 -6.42471,-9.84204 -10.9598,-15.37819c-2.26755,-2.76808 -4.5351,-5.53615 -7.18057,-8.30422c-1.13377,-1.23025 -2.64547,-2.76808 -4.15717,-3.99833c-1.5117,-1.23025 -2.64547,-2.46051 -4.15717,-3.69076c-1.5117,-1.23025 -3.02339,-2.46051 -4.53509,-3.69076c-1.5117,-1.23025 -3.02339,-2.46051 -4.91302,-3.3832c-3.40132,-2.15294 -6.42472,-4.30589 -9.82604,-6.15127c-3.40132,-1.84539 -6.80264,-3.3832 -9.82603,-4.92102c-3.40132,-1.23025 -6.42472,-2.46051 -9.44811,-2.76808c-3.02339,-0.61513 -6.04679,-0.61513 -8.31434,-0.30757c-2.64547,0.30757 -4.53509,0.92269 -6.42471,1.53782c-1.5117,0.61513 -3.02339,1.23025 -3.77925,1.84539c-1.13377,1.23025 -1.5117,1.23025 -1.5117,1.23025z"/><path d="M274.90157,256.56113c0,0 0,1.53782 -0.37793,4.3059c-0.37793,2.76808 -0.37793,6.45884 -0.37793,11.07229c0,2.15294 0,4.61345 0.37793,7.38153c0,2.46051 0.75585,5.22858 0.75585,7.99665c0.75585,2.76808 1.13377,5.53615 1.88962,8.61179c0.75585,2.76808 1.88962,5.84371 3.02339,8.61178c1.5117,2.76808 2.64547,5.53615 4.53509,8.30422c1.5117,2.76808 3.40132,4.92102 5.29094,7.38153c1.88962,2.15294 4.15717,4.30589 6.04679,6.45884c2.26755,1.84539 4.15717,3.69076 6.42472,5.22859c2.26755,1.53782 4.15717,2.76807 5.66886,3.99833c1.88962,1.23025 3.40132,2.15294 4.91302,2.76808c2.64547,1.53782 4.15717,2.46051 4.15717,2.46051c0,0 -1.5117,-0.61512 -4.53509,-2.15294c-1.5117,-0.61513 -3.40132,-1.53782 -4.91302,-2.46051c-1.88962,-1.23025 -4.15717,-2.46051 -6.04679,-3.69076c-2.26755,-1.53782 -4.53509,-3.3832 -6.80264,-4.92102c-2.26755,-1.84539 -4.53509,-3.99833 -6.80264,-6.45884c-1.88962,-2.46051 -4.15717,-4.92102 -5.66886,-7.6891c-1.88962,-2.76808 -3.40132,-5.53614 -4.91302,-8.30422c-1.13377,-3.07564 -2.26754,-5.84371 -3.02339,-8.91935c-0.75585,-3.07564 -1.13377,-5.84371 -1.88962,-8.91935c-0.37793,-2.76808 -0.75585,-5.53614 -0.37793,-8.30422c0,-2.76808 0,-5.22859 0.37793,-7.38153c0.37793,-4.61345 1.13377,-8.30422 1.5117,-11.07229c0.37793,-2.76808 0.75585,-4.3059 0.75585,-4.3059z"/></g><g><path d="M274.90157,202.73749c8.31434,-51.97827 71.80563,-168.54494 167.79842,-204.83746c0,0 -45.72885,215.60219 -88.81223,253.43254c-43.08338,37.83035 -90.70184,26.75804 -78.98619,-48.59508z"/><path d="M273.01196,225.18964c0,0 0,-1.23025 -0.37793,-3.07563c0,-2.15294 0,-4.92102 0.37793,-8.91935c0.37793,-3.69076 1.13377,-8.30422 2.26754,-13.5328c1.13377,-5.22859 2.64547,-11.07229 4.91302,-17.22357c4.15717,-12.61012 9.82604,-27.06561 17.38452,-42.13624c7.55849,-15.07063 16.62867,-30.75638 26.83263,-45.827c5.29094,-7.38153 10.95981,-15.07063 16.62867,-22.14459c5.66886,-7.07397 12.09359,-13.84037 18.14037,-20.2992c6.42472,-6.45884 12.84942,-12.30255 19.27414,-17.53114c3.40132,-2.76807 6.42472,-5.22858 9.44811,-7.68909c1.5117,-1.23025 3.02339,-2.46052 4.53509,-3.38321c1.5117,-1.23025 3.02339,-2.15295 4.91302,-3.07564c3.02339,-2.15295 6.04679,-3.99833 9.07018,-5.84371c3.02339,-1.84538 5.66886,-3.3832 8.69226,-4.61346c2.64547,-1.53782 5.29094,-2.76807 7.55849,-3.99833c2.64547,-1.23025 4.91302,-2.15295 6.80264,-3.07564c4.15717,-1.84539 7.55848,-2.76807 9.82603,-3.69076c2.26755,-0.92269 3.40132,-1.23025 3.40132,-1.23025c0,0 -1.13377,0.61512 -3.40132,1.23025c-2.26755,0.92269 -5.66886,2.15295 -9.44811,3.99833c-1.88962,0.92269 -4.15717,2.15294 -6.80264,3.07563c-2.26755,1.23026 -4.91302,2.76808 -7.55849,3.99833c-2.64547,1.53782 -5.29094,3.07564 -8.31434,4.92102c-1.5117,0.92269 -3.02339,1.84538 -4.53509,2.76807c-1.5117,0.92269 -3.02339,2.15295 -4.53509,3.07564c-1.5117,0.92269 -3.02339,2.15295 -4.53509,3.07564c-1.5117,1.23025 -3.02339,2.46051 -4.53509,3.3832c-3.02339,2.46051 -6.04679,4.92102 -9.44811,7.6891c-5.66886,6.15127 -11.71565,12.30255 -18.14037,18.45382c-6.04679,6.45884 -12.09358,13.22524 -17.76244,20.29921c-5.66886,7.07396 -11.33773,14.4555 -16.62867,21.83703c-20.78584,30.14125 -36.65867,62.43544 -45.35093,87.34811c-2.26755,6.15127 -3.77924,11.99498 -5.29094,17.22357c-1.5117,5.22859 -2.26754,9.53448 -3.02339,13.53281c-0.37793,3.69076 -0.75585,6.7664 -0.75585,8.61178c0.37793,1.84539 0.37793,2.76807 0.37793,2.76807z"/><path d="M300.22251,271.63176c0,0 3.02339,0 7.93641,-0.30757c2.64547,0 5.66886,-0.30756 9.07018,-0.92269c1.88962,-0.30757 3.40132,-0.61512 5.29094,-1.23025c1.88962,-0.30757 3.77924,-0.92269 5.66886,-1.84538c1.13377,-0.30757 1.88962,-0.61513 3.02339,-1.23026c0.75585,-0.61513 1.88962,-0.92268 3.02339,-1.53781c1.13377,-0.61513 1.88962,-0.92269 3.02339,-1.53782c0.75585,-0.61513 1.88962,-1.23025 2.64547,-1.84539c0.75585,-0.61513 1.88962,-1.23025 2.64547,-1.84538c0.75585,-0.61513 1.88962,-1.53781 2.64548,-2.15294c1.5117,-1.53782 3.77924,-3.07563 5.29094,-4.92102c1.5117,-1.84539 3.40132,-3.3832 4.91302,-5.22859c1.5117,-1.84539 3.02339,-3.69077 4.53509,-5.84371c3.02339,-3.69076 5.66887,-7.99666 8.31434,-12.30255l1.88962,-3.07563l1.88962,-3.07564c1.13377,-2.15294 2.26755,-4.30589 3.40132,-6.45883c2.26755,-4.3059 4.15717,-8.61178 6.04679,-12.61012c1.13377,-2.15294 1.88962,-3.99833 2.64547,-6.15128c0.75585,-2.15294 1.5117,-3.99833 2.26755,-5.84372c1.5117,-3.69076 3.02339,-7.38153 4.53509,-10.76473c5.29094,-13.5328 8.69226,-22.45216 8.69226,-22.45216c0,0 -0.75585,2.15294 -1.88962,6.15127c-0.75585,2.15294 -1.13377,4.30589 -2.26754,7.07397c-0.75585,2.76808 -1.5117,5.84372 -3.02339,9.22691c-1.13377,3.3832 -2.64547,7.07396 -4.15717,11.07229c-0.75585,1.84538 -1.5117,3.99832 -2.26755,5.84371c-0.75585,2.15294 -1.88962,3.99833 -2.64547,6.15127c-1.88962,3.99833 -3.40132,8.61178 -6.04679,12.61012c-1.13377,2.15294 -2.26755,4.3059 -3.40132,6.45884l-1.88962,3.3832l-1.88962,3.07564c-2.64547,4.3059 -5.29094,8.61178 -8.31433,12.30255c-1.5117,1.84539 -3.02339,3.99832 -4.53509,5.84371c-1.88962,1.84539 -3.40132,3.69076 -4.91302,5.53615c-1.5117,1.84539 -3.77924,3.3832 -5.66886,4.92102c-1.13377,0.61513 -1.88962,1.53781 -2.64547,2.15294c-1.13377,0.61513 -1.88963,1.23025 -3.0234,1.84539c-1.13377,0.61513 -1.88962,1.23025 -3.02339,1.84538c-1.13377,0.61513 -2.26754,0.92269 -3.02339,1.53782c-1.13377,0.61513 -1.88962,0.92269 -3.02339,1.53782c-1.13377,0.61513 -2.26754,0.61512 -3.02339,1.23025c-1.88962,0.61513 -4.15717,1.23025 -6.04679,1.53782c-1.88962,0.30757 -3.77924,0.92269 -5.66886,0.92269c-3.40132,0.30757 -6.80264,0.30756 -9.07018,0.30756c-5.29094,0.92269 -7.93641,0.61513 -7.93641,0.61513z"/></g></g></g><g fill="#00aeff" stroke="#000000" stroke-width="3" stroke-linecap="butt" stroke-linejoin="miter"><path d="M279.5035,141.09859c4.54053,24.72522 12.99566,48.53709 25.04308,70.5254c20.41701,30.15443 43.36582,58.47982 68.59394,84.66635l-59.84214,18.60653c-25.4792,-19.97109 -46.29824,-45.33311 -60.99765,-74.31096c-14.75843,-31.00999 -25.40755,-63.85648 -31.67375,-97.69674z" fill-rule="nonzero"/><path d="M264.10094,141.29334c-4.85728,34.11143 -14.12524,67.45325 -27.56694,99.17374c-14.4913,31.27303 -35.0776,59.30455 -60.52735,82.4201l-70.63411,-10.93221c0,0 52.09329,-49.73314 76.0621,-96.96212c10.94671,-22.93583 18.99253,-47.15721 23.9462,-72.09345z" fill-rule="nonzero"/><path d="M383.49525,123.96139c0.85267,38.89128 -1.28871,89.41396 -11.69447,86.83446c-45.86602,-11.92801 -104.76048,-61.75172 -104.76048,-61.75172l-0.41295,-22.39665l-0.41318,-22.39579c0,0 56.80301,-52.68923 102.10016,-66.98716c10.53745,-3.2956 14.32829,47.80559 15.18095,86.69688z" fill-rule="nonzero"/><path d="M108.32701,43.82197c45.84018,12.0323 104.73463,61.85598 104.73463,61.85598l0.30872,22.3708l0.41318,22.39579c0,0 -57.2454,52.69121 -102.10104,66.98695c-10.43315,3.32146 -14.4578,-47.27958 -15.20681,-86.14609c-0.74837,-38.86542 1.26304,-90.19985 11.85132,-87.46348z" fill-rule="nonzero"/><path d="M178.45817,111.14522l25.80761,7.73518" fill-rule="evenodd"/><path d="M178.86945,145.58017l25.75746,-8.55218" fill-rule="evenodd"/><path d="M279.29836,116.97031l27.00741,-10.02555" fill-rule="evenodd"/><path d="M306.30032,142.16754l-26.63997,-7.04941" fill-rule="evenodd"/><path d="M220.09148,156.32118c-11.39109,0.24487 -20.62547,0.44338 -20.62547,0.44338l-1.37376,-63.90516c0,0 9.23437,-0.19848 20.62547,-0.44335l33.26821,-0.71519c11.3911,-0.24487 20.62546,-0.44341 20.62546,-0.44341l1.37379,63.90513c0,0 -9.23438,0.19855 -20.62548,0.44342z" fill-rule="nonzero"/></g><path d="M281.31982,3.71856c5.44189,15.19111 -3.92583,30.02079 -12.92718,40.31475" fill="none" fill-rule="nonzero" stroke="#000000" stroke-width="2.5" stroke-linecap="round" stroke-linejoin="miter"/><path d="M260.03107,1.84749c8.78754,12.9253 9.13205,28.61106 7.96965,40.02148" fill="none" fill-rule="nonzero" stroke="#000000" stroke-width="2.5" stroke-linecap="round" stroke-linejoin="miter"/><g fill-rule="nonzero" stroke-linecap="butt" stroke-linejoin="miter"><path d="M281.78517,6.90922l-4.80697,2.56858l0.88543,-5.37771l-3.92768,-3.77808l5.38767,-0.81952l2.37852,-4.90393l2.44594,4.87141l5.39724,0.74773l-3.87609,3.83017l0.95516,5.36517z" fill="#00e1ff" stroke="#000000" stroke-width="0.5"/><path d="M281.83013,5.60564l-3.25885,1.74134l0.60026,-3.64577l-2.66273,-2.56132l3.65252,-0.55558l1.61249,-3.32456l1.6582,3.30253l3.65901,0.50692l-2.62775,2.59662l0.64754,3.63726z" fill="#002aea" stroke="none" stroke-width="0"/></g><g fill-rule="nonzero" stroke-linecap="butt" stroke-linejoin="miter"><path d="M262.24812,6.36283l-4.80697,2.56857l0.88543,-5.37771l-3.92768,-3.77808l5.38767,-0.81952l2.37852,-4.90393l2.44594,4.87141l5.39724,0.74773l-3.87609,3.83017l0.95516,5.36517z" fill="#00e1ff" stroke="#000000" stroke-width="0.5"/><path d="M262.29308,5.05925l-3.25885,1.74135l0.60026,-3.64577l-2.66274,-2.56131l3.65252,-0.55558l1.61249,-3.32456l1.6582,3.30253l3.65901,0.50692l-2.62776,2.59662l0.64755,3.63726z" fill="#002aea" stroke="none" stroke-width="0"/></g><g fill-rule="nonzero" stroke-linecap="butt" stroke-linejoin="miter"><g stroke="none" stroke-width="2"><path d="M152.26415,15.49304c0,0 0.2144,-0.08159 0.54592,-0.13255c0.27238,-0.08437 0.55276,-0.17356 0.8421,-0.26878c14.20925,-4.67708 27.2943,-5.67164 41.39115,-0.25992c3.52772,1.35429 6.32177,3.40789 9.7278,5.05203c1.37966,0.99644 4.23065,3.02747 5.43583,4.13182c1.66967,0.71178 5.58756,3.68286 7.29279,5.06176c14.23256,11.66876 26.68567,25.70478 34.41266,44.75273c1.77676,4.37993 2.43281,9.55876 3.49719,14.21271c1.16667,5.10127 1.87494,8.32497 1.78228,11.94132l0.1067,-0.03022l0.14588,0.71588l0.49628,-0.05542l0.33739,4.25139c0.04013,0.40314 0.02264,0.82126 -0.06025,1.23961c-0.38554,1.94536 -2.96081,3.24992 -4.61629,2.80073c-1.19661,-0.32467 -3.64892,-7.41737 -4.97473,-9.1201c-0.04201,2.90817 0.12842,4.66222 0.13633,4.95557c0.14299,5.30512 0.13597,5.55794 -0.29337,10.93011c-0.73998,9.259 -3.72085,18.9281 -5.51972,28.00433c-1.55211,7.83137 -4.17399,14.02589 -6.68094,21.37895c-0.77601,2.27615 -2.97212,8.86922 -4.5397,9.87881c-8.15137,5.24995 -8.1114,-3.29363 -8.87451,-9.17252c-0.00306,-0.02366 -0.10192,-0.58217 -0.22641,-1.38778c-0.05677,0.17556 -0.11215,0.34222 -0.16472,0.49769c-3.10967,9.1954 -8.06954,19.35598 -13.40579,26.98273c-4.99718,8.42938 -12.51359,23.85428 -23.04094,23.41336c-8.94842,-0.3748 -7.17484,-4.23893 -7.01799,-11.34427c0.03026,-1.37117 0.12018,-2.74037 0.22224,-4.10691c0.0017,-0.02268 0.00351,-0.04598 0.0054,-0.06988c-1.82987,2.00382 -4.82608,3.95096 -5.67002,4.64015c-6.8231,5.57202 -16.84835,9.928 -25.10498,10.49895c-7.34815,1.14736 -15.4607,4.55039 -22.90072,3.82319c-4.23555,-0.41397 -8.89306,-2.365 -13.05019,-3.49297c-16.62442,-4.51073 -35.38932,-11.19636 -44.89287,-29.27625c-0.18767,-3.31016 -2.14637,-7.17932 -0.56299,-9.93047c1.17842,-2.04749 4.21201,-0.25339 6.30671,-0.04919c3.5484,0.34593 5.77187,1.65806 9.38689,0.75166c2.73726,-0.68632 5.44532,-1.58536 8.22024,-2.0116c0.94173,-0.14465 3.77614,-0.29835 2.82989,-0.38885c-4.46398,-0.4269 -11.64467,-6.00478 -12.59711,-11.64137c-0.50146,-2.96789 -1.66598,-6.74135 -0.02666,-9.08047c1.34107,-1.91354 4.21634,0.16534 6.32377,0.09529c6.02576,-0.2003 11.4453,-0.05716 16.888,-3.34439c6.60005,-1.89855 10.86804,-4.67985 14.87758,-11.24541c0.65108,-1.06619 1.08759,-2.41455 1.47176,-3.79874c-2.70193,1.36735 -5.81205,2.08116 -6.19646,1.87035c-3.08752,-1.69309 -1.94647,-9.29384 -1.74413,-12.02144c0.78311,-10.55753 -0.09172,-21.37531 0.96657,-31.9216c-0.92971,-8.68931 0.89567,-17.09909 2.58333,-25.61437c3.35278,-16.91687 11.08882,-36.72364 23.8538,-47.04033c0.59835,-1.15776 1.71191,-1.5274 2.18228,-1.63505c0.83462,-0.57737 1.68914,-1.11483 2.56363,-1.60931c0,0 1.18273,-0.66675 2.37341,-0.22408c1.40293,-0.59197 2.82123,-0.94619 4.55805,-1.45535l0.39774,-0.15137z" fill="#00a3ff"/><path d="M112.78533,125.1443c0.06892,-0.92914 0.12499,-1.86027 0.17067,-2.79305c0.61413,1.14105 1.27008,2.24202 2.10153,3.27481l-0.06605,0.04758l1.0821,1.75437c0.2928,0.49001 0.80254,0.81436 1.38237,0.81436c0.73972,0 1.36535,-0.52792 1.57201,-1.25416l0.48379,-1.56864c1.32785,-2.14103 3.52831,-6.13864 5.93841,-6.27404c4.00165,10.04129 5.16096,20.56296 5.16096,31.60931c0,5.18603 0.17641,10.22739 -1.61474,15.06716c0.03854,6.78764 4.05953,6.94044 8.54841,3.93024c5.09318,-3.41545 9.6535,-7.9873 14.44348,-11.88822c1.27981,-1.04228 2.30356,-2.86157 3.8973,-3.04216c0.80437,-0.09113 0.28992,1.73603 0.61292,2.53744c1.66827,4.13951 0.97111,8.98558 0.97111,13.53827c0,3.88905 -3.34967,13.15574 -0.96148,16.25268c1.19581,1.55068 7.80256,-2.31316 8.76084,-2.78266c2.68007,-1.31307 6.45947,-1.15312 8.87241,-2.42405c0.66556,-0.35055 0.75285,-1.41557 1.31848,-1.93187c0.99846,-0.91138 2.62394,-0.48723 3.76859,-1.16885c3.74132,-2.22788 7.83602,-6.14505 10.97901,-9.21249c2.43237,-2.38708 4.51162,-5.71597 7.27581,-7.6192c0.46229,-0.31828 0.02951,1.18573 0,1.7773c-0.03936,0.78878 -0.00379,1.57982 0,2.36974c0.00863,1.79846 1.00759,8.5783 2.69584,9.35936c0.95701,0.44272 4.55031,-2.36677 5.34628,-2.94665c3.96784,-2.89079 5.19096,-6.93212 8.43566,-10.45349c1.39548,-1.51447 3.86027,-2.82091 5.42869,-4.0955c3.0319,-3.26589 5.98445,-6.00697 8.48696,-9.79508c0.1051,-0.15906 1.7244,-2.38905 2.18652,-3.71153c0.40505,0.48446 0.95244,1.04421 1.20445,1.40908c0.8895,1.28777 1.38011,2.85041 1.96943,4.32585c1.42198,3.5601 2.71765,7.28099 4.47795,10.68447c-0.4806,1.34392 -0.96532,2.7107 -1.44583,4.12005c-0.77601,2.27612 -2.97212,8.86922 -4.5397,9.87881c-8.15137,5.24995 -8.1114,-3.29363 -8.87451,-9.17252c-0.00306,-0.02366 -0.10192,-0.58217 -0.22641,-1.38778c-0.05677,0.17556 -0.11215,0.34222 -0.16472,0.49769c-3.10968,9.1954 -8.06954,19.35598 -13.40579,26.98273c-4.99717,8.42938 -12.51359,23.85428 -23.04094,23.41336c-8.94842,-0.3748 -7.17484,-4.23893 -7.01799,-11.34427c0.03026,-1.37119 0.12018,-2.74039 0.22224,-4.10693c0.0017,-0.02268 0.00351,-0.04598 0.0054,-0.06988c-1.82987,2.00383 -4.82608,3.95097 -5.67002,4.64016c-6.8231,5.57202 -16.84835,9.928 -25.10498,10.49895c-7.34816,1.14736 -15.4607,4.55039 -22.90072,3.82319c-4.23555,-0.41397 -8.89307,-2.365 -13.0502,-3.49297c-16.62442,-4.51071 -35.38931,-11.19636 -44.89286,-29.27625c-0.18767,-3.31016 -2.14637,-7.17932 -0.56299,-9.93047c1.1784,-2.04747 4.212,-0.25338 6.30669,-0.04918c3.5484,0.34593 5.77187,1.65806 9.38689,0.75166c2.73726,-0.68632 5.44532,-1.58536 8.22024,-2.0116c0.94173,-0.14465 3.77614,-0.29835 2.82989,-0.38885c-4.46398,-0.4269 -11.64469,-6.00478 -12.59713,-11.64137c-0.50146,-2.96789 -1.66598,-6.74135 -0.02666,-9.08047c1.34107,-1.91354 4.21634,0.16534 6.32377,0.09529c6.02576,-0.2003 11.4453,-0.05716 16.888,-3.34439c6.60005,-1.89853 10.86804,-4.67985 14.87758,-11.24541c0.65109,-1.06619 1.08758,-2.41455 1.47175,-3.79874c-2.70192,1.36735 -5.81204,2.08116 -6.19645,1.87035c-3.08751,-1.69309 -1.94646,-9.29384 -1.74412,-12.02144z" fill="#bae9ff"/></g><path d="M151.99011,14.90069c0,0 0.2144,-0.08159 0.54592,-0.13255c0.27238,-0.08437 0.55276,-0.17356 0.8421,-0.26878c14.20925,-4.67708 27.2943,-5.67164 41.39115,-0.25992c3.52772,1.35429 6.32177,3.40789 9.7278,5.05203c1.37965,0.99644 4.23064,3.02747 5.43582,4.13182c1.66967,0.71177 5.58756,3.68286 7.29279,5.06176c14.23256,11.66876 26.68567,25.70478 34.41266,44.75273c1.77676,4.37993 2.43281,9.55875 3.49719,14.2127c1.16667,5.10127 1.87494,8.32497 1.78228,11.94132l0.1067,-0.03022l0.14588,0.71587l0.49628,-0.05542l0.33741,4.25139c0.04014,0.40314 0.02264,0.82126 -0.06025,1.23961c-0.38554,1.94536 -2.96081,3.24992 -4.61629,2.80073c-1.19661,-0.32467 -3.64892,-7.41737 -4.97473,-9.1201c-0.04201,2.90818 0.12842,4.66222 0.13633,4.95557c0.14299,5.30513 0.13597,5.55795 -0.29337,10.93012c-0.73998,9.25897 -3.72085,18.92808 -5.51972,28.00431c-1.55211,7.83137 -4.17399,14.02589 -6.68094,21.37895c-0.77601,2.27615 -2.97212,8.86922 -4.5397,9.87881c-8.15137,5.24995 -8.1114,-3.29363 -8.87451,-9.17252c-0.00306,-0.02366 -0.10192,-0.58217 -0.22641,-1.38778c-0.05677,0.17556 -0.11215,0.34222 -0.16472,0.49769c-3.10967,9.1954 -8.06954,19.35598 -13.40579,26.98273c-4.99718,8.42936 -12.51359,23.85425 -23.04094,23.41334c-8.94842,-0.3748 -7.17484,-4.23893 -7.01799,-11.34427c0.03027,-1.37117 0.12019,-2.74037 0.22225,-4.10691c0.00169,-0.02268 0.00349,-0.04598 0.00539,-0.06988c-1.82987,2.00383 -4.82608,3.95097 -5.67002,4.64016c-6.82312,5.57202 -16.84835,9.928 -25.10498,10.49895c-7.34815,1.14736 -15.4607,4.55039 -22.90072,3.82319c-4.23555,-0.41397 -8.89307,-2.365 -13.0502,-3.49297c-16.62442,-4.51071 -35.38932,-11.19636 -44.89287,-29.27625c-0.18767,-3.31016 -2.14637,-7.17932 -0.56299,-9.93047c1.17842,-2.04747 4.21201,-0.25339 6.30671,-0.04919c3.5484,0.34593 5.77187,1.65806 9.38689,0.75166c2.73726,-0.68632 5.44532,-1.58536 8.22024,-2.0116c0.94173,-0.14465 3.77614,-0.29834 2.82989,-0.38884c-4.46398,-0.4269 -11.64467,-6.00479 -12.59711,-11.64138c-0.50146,-2.96789 -1.66598,-6.74135 -0.02666,-9.08047c1.34107,-1.91354 4.21634,0.16534 6.32377,0.09529c6.02576,-0.2003 11.4453,-0.05716 16.888,-3.34439c6.60005,-1.89853 10.86804,-4.67985 14.87758,-11.24541c0.65108,-1.06619 1.08759,-2.41455 1.47176,-3.79874c-2.70193,1.36735 -5.81205,2.08116 -6.19646,1.87035c-3.08752,-1.69309 -1.94647,-9.29384 -1.74413,-12.02144c0.78311,-10.55753 -0.09172,-21.37531 0.96657,-31.9216c-0.92969,-8.68931 0.89568,-17.09909 2.58335,-25.61437c3.35278,-16.91688 11.08882,-36.72364 23.8538,-47.04033c0.59835,-1.15776 1.71191,-1.5274 2.18228,-1.63505c0.83462,-0.57737 1.68914,-1.11483 2.56363,-1.60931c0,0 1.18273,-0.66678 2.37341,-0.22411c1.40293,-0.59197 2.82123,-0.94619 4.55805,-1.45535l0.39774,-0.15137z" fill="none" stroke="#000000" stroke-width="2.5"/></g><g stroke="#0084c1" stroke-width="3" stroke-linecap="butt" stroke-linejoin="miter"><path d="M308.86439,65.41133c0.39272,17.91237 -0.59355,41.18188 -5.38619,39.99383c-21.12477,-5.49375 -48.25011,-28.44133 -48.25011,-28.44133l-0.1902,-10.31535l-0.1903,-10.31495c0,0 26.16208,-24.26737 47.02483,-30.85265c4.85329,-1.51787 6.59926,22.01809 6.99198,39.93046z" fill="#00aeff" fill-rule="nonzero"/><path d="M182.12863,28.50112c21.11287,5.54178 48.23821,28.48935 48.23821,28.48935l0.14218,10.30345l0.1903,10.31495c0,0 -26.36583,24.26828 -47.02524,30.85255c-4.80525,1.52978 -6.6589,-21.77582 -7.00388,-39.67678c-0.34468,-17.90046 0.58173,-41.54384 5.45843,-40.28353z" fill="#00aeff" fill-rule="nonzero"/><path d="M226.31569,63.07119l-11.88635,-3.56263" fill="#ff96ec" fill-rule="evenodd"/><path d="M226.48201,71.42951l-11.86326,3.93892" fill="#ff96ec" fill-rule="evenodd"/><path d="M273.31281,57.57393l-12.43895,4.61752" fill="#ff96ec" fill-rule="evenodd"/><path d="M273.31028,73.79665l-12.26971,-3.24679" fill="#ff96ec" fill-rule="evenodd"/><path d="M233.60461,80.3155c-5.24646,0.11278 -9.49958,0.20421 -9.49958,0.20421l-0.63272,-29.43315c0,0 4.25312,-0.09142 9.49958,-0.2042l15.32252,-0.3294c5.24646,-0.11278 9.49958,-0.20422 9.49958,-0.20422l0.63273,29.43314c0,0 -4.25313,0.09145 -9.49959,0.20423z" fill="#00aeff" fill-rule="nonzero"/></g><g fill="#00c0ff" fill-rule="nonzero" stroke="#000000" stroke-width="3" stroke-linejoin="miter"><path d="M287.18755,276.63122l-12.19654,20.31071c0,0 -18.59344,-36.09082 -23.49317,-72.98876c-2.68642,-20.23046 -7.96627,-64.22791 -7.96627,-64.22791c0,0 7.66151,-0.99414 11.13034,-1.50655c3.61304,-0.53371 10.13291,-1.63439 10.13291,-1.63439c0,0 3.18773,21.69778 14.90868,54.57819c14.27234,40.0378 38.70398,69.94774 38.70398,69.94774z" stroke-linecap="butt"/><path d="M153.66359,279.72767c0,0 24.43164,-29.90993 38.70398,-69.94774c11.72093,-32.88041 14.90868,-54.57817 14.90868,-54.57817c0,0 6.51987,1.10068 10.13291,1.63439c3.46883,0.5124 11.13034,1.50653 11.13034,1.50653c0,0 -5.27985,43.99745 -7.96627,64.22791c-4.89973,36.89796 -23.49317,72.98876 -23.49317,72.98876l-12.19654,-20.3107z" stroke-linecap="butt"/><path d="M238.11764,158.80238c0,0 27.76309,-39.76431 39.75854,-28.0962c11.99546,11.66812 15.28247,40.43021 -3.05834,57.06135c-18.34082,16.63114 -36.70019,-28.96515 -36.70019,-28.96515z" stroke-linecap="round"/><path d="M238.96717,158.51271c0,0 7.59287,-2.65726 20.68098,-1.80524c9.57313,0.62321 17.7183,4.4121 17.7183,4.4121" stroke-linecap="round"/><path d="M237.77022,159.38171c0,0 -18.35936,45.5963 -36.70019,28.96515c-18.34081,-16.63114 -15.0538,-45.39324 -3.05834,-57.06135c11.99546,-11.66812 39.75854,28.0962 39.75854,28.0962z" stroke-linecap="round"/><path d="M198.52142,161.69887c0,0 8.14517,-3.78891 17.7183,-4.4121c13.08809,-0.85202 20.68098,1.80524 20.68098,1.80524" stroke-linecap="round"/></g><g fill-rule="nonzero" stroke="#000000" stroke-width="3" stroke-linejoin="miter"><path d="M249.09587,150.90356l13.26532,11.21586l-6.56655,42.60641c0,0 -8.87185,-11.40604 -10.90879,-27.15948c-1.44206,-11.15267 4.21003,-26.66279 4.21003,-26.66279z" fill="#232323" stroke-linecap="butt"/><path d="M254.55184,166.20595l18.95079,4.15878l2.44097,53.65858c0,0 -11.50971,-8.75794 -17.60847,-23.52295c-4.31763,-10.45291 -3.78328,-34.29441 -3.78328,-34.29441z" fill="#232323" stroke-linecap="butt"/><path d="M265.7702,180.98298l20.10041,0.59303l15.60238,54.29076c0,0 -13.7346,-6.72032 -23.49241,-20.61366c-6.90807,-9.83581 -12.21038,-34.27012 -12.21038,-34.27012z" fill="#232323" stroke-linecap="butt"/><path d="M273.31829,189.30022l19.82495,-8.08978l36.04814,58.43813c0,0 -16.80339,-4.51208 -31.71319,-17.13022c-10.55543,-8.93303 -24.1599,-33.21812 -24.1599,-33.21812z" fill="#232323" stroke-linecap="butt"/><path d="M288.22506,191.47626l19.86345,-9.59967l51.26799,59.94025c0,0 -19.19065,-3.8925 -38.00288,-16.4611c-13.31815,-8.89796 -33.12856,-33.87947 -33.12856,-33.87947z" fill="#232323" stroke-linecap="butt"/><path d="M298.88756,184.20558l20.10457,-10.27355l71.80463,68.71083c0,0 -22.51875,-4.87493 -46.65096,-19.49245c-17.08443,-10.3485 -45.25824,-38.94483 -45.25824,-38.94483z" fill="#2b2b2b" stroke-linecap="butt"/><path d="M310.87227,175.64567l18.74188,-12.14567l76.60424,63.42372c0,0 -22.49484,-2.99547 -47.46287,-15.72358c-17.67616,-9.01089 -47.88325,-35.55446 -47.88325,-35.55446z" fill="#343434" stroke-linecap="butt"/><g fill="#232323"><path d="M245.5984,164.32655l3.2287,-17.86774l34.60723,32.80467l44.39891,-28.98729l43.74459,47.81582l-46.29951,-28.71819l-43.14855,27.89579z" stroke-linecap="butt"/><path d="M283.55584,179.37418l-1.02261,16.27106" stroke-linecap="round"/><path d="M325.01115,168.58883l2.89229,-17.24966" stroke-linecap="round"/></g></g><g fill-rule="nonzero" stroke="#000000" stroke-width="3" stroke-linejoin="miter"><path d="M235.11418,177.09957c-2.03695,15.75343 -10.9088,27.15948 -10.9088,27.15948l-6.56655,-42.60641l13.26532,-11.21586c0,0 5.65209,15.51013 4.21003,26.66279z" fill="#232323" stroke-linecap="butt"/><path d="M221.66492,200.03357c-6.09876,14.76502 -17.60847,23.52295 -17.60847,23.52295l2.44098,-53.65858l18.95078,-4.15878c0,0 0.53436,23.84149 -3.78328,34.29441z" fill="#232323" stroke-linecap="butt"/><path d="M202.01943,214.78618c-9.75781,13.89335 -23.4924,20.61366 -23.4924,20.61366l15.60238,-54.29076l20.10041,-0.59303c0,0 -5.30233,24.4343 -12.21038,34.27012z" fill="#232323" stroke-linecap="butt"/><path d="M182.52184,222.05148c-14.90981,12.61814 -31.7132,17.13022 -31.7132,17.13022l36.04814,-58.43813l19.82496,8.08979c0,0 -13.60447,24.28509 -24.15989,33.21812z" fill="#232323" stroke-linecap="butt"/><path d="M158.64638,224.88888c-18.81223,12.5686 -38.00288,16.4611 -38.00288,16.4611l51.26799,-59.94025l19.86346,9.59967c0,0 -19.81042,24.98152 -33.12856,33.87948z" fill="#232323" stroke-linecap="butt"/><path d="M135.85423,222.68356c-24.13221,14.61752 -46.65096,19.49245 -46.65096,19.49245l71.80463,-68.71082l20.10458,10.27355c0,0 -28.1738,28.59634 -45.25824,38.94484z" fill="#2b2b2b" stroke-linecap="butt"/><path d="M121.24453,210.73325c-24.96805,12.72811 -47.46287,15.72358 -47.46287,15.72358l76.60424,-63.42372l18.74188,12.14568c0,0 -30.20708,26.54357 -47.88324,35.55445z" fill="#343434" stroke-linecap="butt"/><g fill="#232323"><path d="M197.87026,197.30274l-43.14854,-27.89579l-46.29951,28.71819l43.74459,-47.81583l44.39891,28.9873l34.60723,-32.80466l3.22871,17.86774z" stroke-linecap="butt"/><path d="M196.44418,178.90731l1.02261,16.27106" stroke-linecap="round"/><path d="M154.98881,168.12196l-2.89229,-17.24966" stroke-linecap="round"/></g></g><g fill-rule="nonzero" stroke-linejoin="miter"><path d="M273.24647,213.00796c0,0 41.30842,27.58027 51.42016,9.80811c10.11174,-17.77216 -24.26966,-82.94086 6.71782,-116.7223c30.98749,-33.78145 95.72908,5.03837 95.72908,5.03837c0,0 -10.30967,-0.78718 -16.55007,0.14224c-9.1622,1.36458 -22.91718,5.73585 -22.91718,5.73585c0,0 19.25448,-2.00176 31.93664,-1.13312c11.24103,0.76993 29.36355,5.33177 29.36355,5.33177c0,0 -12.60884,3.76327 -19.96251,6.88859c-5.75492,2.44584 -13.62664,7.38681 -13.62664,7.38681c0,0 8.65186,-1.97036 12.57709,-1.43992c8.20022,1.10814 18.49287,5.63856 18.49287,5.63856c0,0 -14.40978,2.77489 -23.4536,5.08843c-5.04791,1.29132 -12.65474,4.14859 -12.65474,4.14859c0,0 7.16521,0.14292 10.49722,1.13018c5.51629,1.63446 12.17545,5.58764 12.17545,5.58764c0,0 -41.40591,-0.11776 -55.42209,19.31376c-14.01618,19.43152 14.61637,57.94929 -18.47403,83.13313c-33.0904,25.18385 -103.79341,-31.08914 -103.79341,-31.08914" fill="#ff007b" stroke="#000000" stroke-width="2.5" stroke-linecap="round"/><g fill="none" stroke="none" stroke-width="1" stroke-linecap="butt" font-family="sans-serif" font-weight="normal" font-size="12" text-anchor="start"><g><g/></g></g></g><g fill-rule="nonzero" stroke="#000000" stroke-width="3" stroke-linejoin="miter"><path d="M178.0452,113.94566c-31.93843,-6.45102 -55.79465,-31.91901 -55.79465,-31.91901l92.59264,-40.29483c0,0 4.23441,20.2118 8.4501,32.22818c5.37879,15.33169 15.43472,30.22933 15.43472,30.22933c0,0 -29.13596,16.12827 -60.6828,9.75635z" fill="#ffffff" stroke-linecap="butt"/><path d="M178.14229,114.07684c-17.94629,-3.65417 -33.34116,-13.33763 -43.36388,-21.09758c0.9368,-0.40767 19.00884,-3.58901 40.41944,-12.90656c29.20865,-12.71114 42.9858,-23.39005 42.9858,-23.39005c0,0 3.25661,12.40299 5.03884,17.48158c5.38012,15.3311 15.42399,30.234 15.42399,30.234c0,0 -29.03806,16.08566 -60.50419,9.67861z" fill="#00a3ff" stroke-linecap="butt"/><path d="M194.0333,115.22709c0,0 -8.89429,-11.96841 -14.83987,-28.29385c-4.38848,-12.04997 -5.81097,-26.55128 -5.81097,-26.55128" fill="none" stroke-linecap="round"/></g><g fill-rule="nonzero" stroke="#000000" stroke-width="3" stroke-linejoin="miter"><path d="M239.89785,104.1893c0,0 10.05593,-14.89763 15.43472,-30.22932c4.21568,-12.01637 8.45009,-32.22818 8.45009,-32.22818l92.59264,40.29483c0,0 -23.85622,25.46799 -55.79466,31.91901c-31.54683,6.37192 -60.6828,-9.75634 -60.6828,-9.75634z" fill="#ffffff" stroke-linecap="butt"/><path d="M239.97938,104.39823c0,0 10.04385,-14.90289 15.42398,-30.234c1.78223,-5.07859 5.03884,-17.48158 5.03884,-17.48158c0,0 13.77715,10.67891 42.9858,23.39005c21.41062,9.31755 39.48264,12.49889 40.41944,12.90657c-10.02272,7.75995 -25.41759,17.44341 -43.36388,21.09758c-31.46611,6.40705 -60.50418,-9.67861 -60.50418,-9.67861z" fill="#00a3ff" stroke-linecap="butt"/><path d="M305.2434,60.38194c0,0 -1.42249,14.50131 -5.81098,26.55128c-5.94558,16.32544 -14.83986,28.29385 -14.83986,28.29385" fill="none" stroke-linecap="round"/></g><path d="M237.49588,33.84152c27.4596,0 49.71999,22.57393 49.71999,50.42027c0,27.84635 -22.26039,50.42027 -49.71999,50.42027c-27.45959,0 -49.72,-22.57393 -49.72,-50.42027c0,-27.84634 22.26041,-50.42027 49.72,-50.42027z" fill="#ffffff" fill-rule="nonzero" stroke="#000000" stroke-width="3" stroke-linecap="butt" stroke-linejoin="miter"/><path d="M224.35207,96.85952c0,0 3.48965,-3.65481 9.22758,-3.65481c6.65559,0 10.56705,3.65481 10.56705,3.65481" fill="none" fill-rule="nonzero" stroke="#000000" stroke-width="3" stroke-linecap="round" stroke-linejoin="miter"/><path d="M213.14163,51.97107c9.19618,0 16.65115,11.70499 16.65115,26.14385c0,14.43886 -7.45498,26.14385 -16.65115,26.14385c-9.19617,0 -16.65113,-11.705 -16.65113,-26.14385c0,-14.43886 7.45496,-26.14384 16.65113,-26.14384z" fill="#ffffff" fill-rule="nonzero" stroke="#000000" stroke-width="3" stroke-linecap="butt" stroke-linejoin="miter"/><path d="M247.97786,115.77455c0,0 -1.31943,3.73484 -6.51586,3.73484c-4.49201,0 -7.7486,-2.80113 -7.7486,-2.80113c0,0 -3.10049,2.96716 -6.86807,2.98787c-4.82412,0.02651 -6.69198,-3.73484 -6.69198,-3.73484" fill="none" fill-rule="nonzero" stroke="#000000" stroke-width="3" stroke-linecap="round" stroke-linejoin="miter"/><g fill-rule="nonzero" stroke-linecap="butt" stroke-linejoin="miter"><path d="M218.4482,59.37849c5.93024,0 10.73765,8.26317 10.73765,18.45631c0,10.19314 -4.80741,18.45631 -10.73765,18.45631c-5.93024,0 -10.73763,-8.26317 -10.73763,-18.4563c0,-10.19315 4.80739,-18.45631 10.73763,-18.45631z" fill="#ff55e0" stroke="#000000" stroke-width="2"/><path d="M210.67521,77.48601c0,-7.88162 3.48298,-14.27093 7.77947,-14.27093c4.29649,0 7.77947,6.38931 7.77947,14.27093c0,7.88163 -3.48298,14.27094 -7.77947,14.27094c-4.29649,0 -7.77947,-6.38931 -7.77947,-14.27094z" fill="#000000" stroke="none" stroke-width="0"/><path d="M215.49342,64.12771c2.69676,0 4.88293,2.40478 4.88293,5.37122c0,2.96644 -2.18616,5.37122 -4.88293,5.37122c-2.69676,0 -4.88292,-2.40478 -4.88292,-5.37122c0,-2.96644 2.18616,-5.37122 4.88293,-5.37122z" fill="#ffffff" stroke="none" stroke-width="NaN"/><path d="M223.09526,84.35701c1.50161,0 2.71891,1.33903 2.71891,2.9908c0,1.65177 -1.2173,2.99079 -2.71891,2.99079c-1.50161,0 -2.71891,-1.33902 -2.71891,-2.99079c0,-1.65178 1.2173,-2.9908 2.71891,-2.9908z" fill="#ffffff" stroke="none" stroke-width="NaN"/></g><g fill-rule="nonzero" stroke="#000000" stroke-width="3" stroke-linejoin="miter"><path d="M273.19453,319.57248c-18.36974,3.22718 -24.64949,-1.08492 -24.64949,-1.08492l-4.02185,-55.73523c0,0 7.5936,-0.72002 16.72202,-4.95198c8.31356,-3.85419 13.23178,-13.16507 13.23178,-13.16507l18.66618,65.56393c0,0 -2.42883,6.29542 -19.94863,9.37328z" fill="#ffffff" stroke-linecap="butt"/><path d="M246.4377,282.64174l36.69119,-6.33966" fill="none" stroke-linecap="round"/><path d="M295.26594,306.55413c2.45597,7.54797 0.42355,14.88836 -4.53951,16.39522c-4.96305,1.50687 -10.97735,-3.39042 -13.43332,-10.93839c-2.45597,-7.54797 -0.42356,-14.88836 4.53949,-16.39523c4.96305,-1.50687 10.97737,3.39042 13.43334,10.93839z" fill="#ffffff" stroke-linecap="butt"/><path d="M255.87382,299.878c5.17754,-0.15814 9.38185,6.15823 9.39057,14.10802c0.00872,7.94979 -4.18144,14.52256 -9.359,14.68069c-5.17755,0.15814 -9.38185,-6.15823 -9.39057,-14.10803c-0.00871,-7.94979 4.18145,-14.52256 9.359,-14.6807z" fill="#ffffff" stroke-linecap="butt"/><path d="M281.08726,313.49746c1.24079,7.84918 -1.91688,14.76668 -7.05285,15.45067c-5.13597,0.68399 -10.30533,-5.12457 -11.54613,-12.97375c-1.24079,-7.84918 1.91688,-14.76668 7.05284,-15.45066c5.13597,-0.68399 10.30534,5.12456 11.54613,12.97374z" fill="#ffffff" stroke-linecap="butt"/></g><g fill-rule="nonzero" stroke="#000000" stroke-width="3" stroke-linejoin="miter"><path d="M183.36321,309.73233l18.66618,-65.56393c0,0 4.91823,9.31088 13.23179,13.16507c9.12841,4.23196 16.722,4.95198 16.722,4.95198l-4.02184,55.73524c0,0 -6.27976,4.31209 -24.64949,1.08492c-17.51979,-3.07786 -19.94863,-9.37327 -19.94863,-9.37327z" fill="#ffffff" stroke-linecap="butt"/><path d="M193.3775,275.83528l36.6912,6.33966" fill="none" stroke-linecap="round"/><path d="M194.67378,295.14896c4.96305,1.50687 6.99546,8.84726 4.53949,16.39523c-2.45597,7.54797 -8.47026,12.44525 -13.43332,10.93839c-4.96305,-1.50687 -6.99548,-8.84725 -4.53951,-16.39522c2.45597,-7.54797 8.47028,-12.44526 13.43333,-10.93839z" fill="#ffffff" stroke-linecap="butt"/><path d="M229.99157,314.09182c-0.00871,7.94979 -4.21303,14.26617 -9.39058,14.10803c-5.17755,-0.15814 -9.36771,-6.73091 -9.35899,-14.6807c0.00871,-7.94979 4.21301,-14.26616 9.39056,-14.10802c5.17755,0.15814 9.36772,6.7309 9.359,14.68069z" fill="#ffffff" stroke-linecap="butt"/><path d="M206.96526,300.0569c5.13596,0.68398 8.29362,7.60147 7.05284,15.45065c-1.24078,7.84918 -6.41016,13.65775 -11.54613,12.97376c-5.13597,-0.68399 -8.29362,-7.60149 -7.05284,-15.45067c1.24078,-7.84918 6.41016,-13.65773 11.54613,-12.97374z" fill="#ffffff" stroke-linecap="butt"/></g><g fill-rule="nonzero" stroke="#000000" stroke-width="3" stroke-linejoin="miter"><path d="M177.91857,217.54512c0,0 1.66063,13.35833 -0.89663,20.40167c-2.55725,7.04333 -7.04056,11.69456 -10.01373,10.38879c-2.97318,-1.30576 -3.31035,-8.07406 -0.75311,-15.11739c2.55725,-7.04333 11.66346,-15.67307 11.66346,-15.67307z" fill="#ffffff" stroke-linecap="butt"/><path d="M186.65842,214.88001c0,0 3.62636,12.59682 2.10821,19.9687c-1.51815,7.37189 -5.31311,12.83438 -8.47627,12.20083c-3.16316,-0.63355 -4.49671,-7.12323 -2.97855,-14.49512c1.51815,-7.37188 9.34662,-17.67441 9.34662,-17.67441z" fill="#ffffff" stroke-linecap="butt"/><path d="M173.69591,209.27452c0,0 -0.138,13.68472 -3.55516,20.24848c-3.41716,6.56375 -8.39631,10.36777 -11.12125,8.4965c-2.72494,-1.87128 -2.16379,-8.70921 1.25338,-15.27296c3.41716,-6.56375 13.42303,-13.47201 13.42303,-13.47201z" fill="#ffffff" stroke-linecap="butt"/><path d="M190.79238,205.69815c0,0 7.02506,10.06629 7.60129,17.41964c0.57623,7.35334 -1.58949,13.87464 -4.83728,14.56576c-3.24778,0.69112 -6.34775,-4.70967 -6.92399,-12.063c-0.57623,-7.35334 4.15997,-19.92239 4.15997,-19.92239z" fill="#ffffff" stroke-linecap="butt"/><path d="M209.81192,158.50788c0,0 -3.68905,31.61182 -6.63599,43.06442c-4.33272,16.83809 -13.79004,46.87919 -33.66617,34.52588c-13.11461,-8.15092 -5.67995,-27.51721 6.81949,-46.52048c15.09488,-22.9492 33.48266,-31.06982 33.48266,-31.06982z" fill="#ffffff" stroke-linecap="butt"/><path d="M175.89361,190.22565c0,0 6.37375,-0.15894 13.35451,3.72915c8.92673,4.97192 12.56286,10.42892 12.56286,10.42892" fill="none" stroke-linecap="round"/></g><path d="M204.51488,227.36836c0.28303,-7.23989 5.05911,-38.95228 11.89691,-69.04362c2.27222,-9.99941 6.64713,-19.31787 22.48677,-19.21643c18.5776,0.11899 22.45303,15.77528 23.01655,19.06051c1.72224,10.04029 10.13003,58.30488 10.21589,70.24572c0.04719,6.56349 -1.41038,25.02793 -35.04451,24.82694c-31.24615,-0.18671 -32.78556,-20.39997 -32.5716,-25.87312z" fill="#ffffff" fill-rule="nonzero" stroke="#000000" stroke-width="3" stroke-linecap="butt" stroke-linejoin="miter"/><path d="M210.11353,221.7285c0.218,-5.93087 3.89666,-31.90949 9.16331,-56.56012c1.75012,-8.19146 5.11979,-15.8251 17.31989,-15.74197c14.30894,0.09748 17.2939,12.92301 17.72794,15.61425c1.32651,8.22494 7.80241,47.76302 7.86854,57.5449c0.03635,5.37677 -1.08631,20.50271 -26.99218,20.33807c-24.06659,-0.15296 -25.25229,-16.71153 -25.08749,-21.1951z" fill="#232323" fill-rule="nonzero" stroke="#000000" stroke-width="3" stroke-linecap="butt" stroke-linejoin="miter"/><path d="M232.11159,252.02605c0,0 0.80895,-43.19947 1.39054,-67.65836c0.56685,-23.83967 3.27801,-44.55206 3.27801,-44.55206" fill="none" fill-rule="nonzero" stroke="#000000" stroke-width="3" stroke-linecap="round" stroke-linejoin="miter"/><g fill="none" fill-rule="nonzero" stroke="none" stroke-width="1" stroke-linecap="butt" stroke-linejoin="miter" font-family="sans-serif" font-weight="normal" font-size="12" text-anchor="start"><g/><g/></g><g fill-rule="nonzero" stroke="#000000" stroke-width="3" stroke-linejoin="miter"><path d="M311.73487,233.2182c2.55725,7.04333 2.22007,13.81163 -0.75311,15.11739c-2.97317,1.30577 -7.45648,-3.34546 -10.01373,-10.38879c-2.55725,-7.04333 -0.89663,-20.40167 -0.89663,-20.40167c0,0 9.10622,8.62974 11.66347,15.67307z" fill="#ffffff" stroke-linecap="butt"/><path d="M300.67814,232.55443c1.51815,7.37188 0.1846,13.86157 -2.97856,14.49512c-3.16316,0.63355 -6.95812,-4.82894 -8.47627,-12.20082c-1.51815,-7.37188 2.10821,-19.9687 2.10821,-19.9687c0,0 7.82847,10.30252 9.34661,17.67441z" fill="#ffffff" stroke-linecap="butt"/><path d="M317.71709,222.7465c3.41716,6.56375 3.97832,13.40169 1.25338,15.27297c-2.72494,1.87127 -7.70409,-1.93274 -11.12125,-8.4965c-3.41716,-6.56375 -3.55516,-20.24848 -3.55516,-20.24848c0,0 10.00587,6.90826 13.42303,13.47201z" fill="#ffffff" stroke-linecap="butt"/><path d="M291.35758,225.62051c-0.57623,7.35334 -3.67621,12.75412 -6.92399,12.063c-3.24779,-0.69111 -5.4135,-7.21243 -4.83727,-14.56576c0.57623,-7.35334 7.60129,-17.41963 7.60129,-17.41963c0,0 4.7362,12.56905 4.15997,19.92239z" fill="#ffffff" stroke-linecap="butt"/><path d="M301.88678,189.5778c12.49944,19.00327 19.9341,38.36957 6.81949,46.52048c-19.87612,12.3533 -29.33345,-17.68779 -33.66617,-34.52588c-2.94693,-11.45261 -6.63599,-43.06441 -6.63599,-43.06441c0,0 18.38779,8.12062 33.48266,31.06982z" fill="#ffffff" stroke-linecap="butt"/><path d="M276.17895,204.38377c0,0 3.63614,-5.457 12.56288,-10.42892c6.98076,-3.88808 13.35452,-3.72915 13.35452,-3.72915" fill="none" stroke-linecap="round"/></g><path d="M272.74338,78.73735c0,14.43885 -7.45497,26.14385 -16.65114,26.14385c-9.19617,0 -16.65115,-11.705 -16.65115,-26.14384c0,-14.43886 7.45497,-26.14384 16.65115,-26.14384c9.19617,0 16.65114,11.70499 16.65114,26.14385z" fill="#ffffff" fill-rule="nonzero" stroke="#000000" stroke-width="3" stroke-linecap="butt" stroke-linejoin="miter"/><g fill-rule="nonzero" stroke-linecap="butt" stroke-linejoin="miter"><path d="M267.52331,78.45722c0,10.19314 -4.80739,18.4563 -10.73763,18.4563c-5.93024,0 -10.73765,-8.26316 -10.73765,-18.4563c0,-10.19314 4.80741,-18.45631 10.73765,-18.45631c5.93023,0 10.73763,8.26316 10.73763,18.45631z" fill="#00a3ff" stroke="#000000" stroke-width="2"/><path d="M264.55867,78.1085c0,7.88163 -3.48298,14.27093 -7.77946,14.27093c-4.29649,0 -7.77948,-6.38931 -7.77948,-14.27093c0,-7.88162 3.483,-14.27093 7.77948,-14.27093c4.29649,0 7.77947,6.38931 7.77947,14.27093z" fill="#000000" stroke="none" stroke-width="0"/><path d="M264.62334,70.12143c0,2.96644 -2.18616,5.37123 -4.88292,5.37123c-2.69676,0 -4.88294,-2.40478 -4.88294,-5.37123c0,-2.96644 2.18617,-5.37122 4.88294,-5.37122c2.69677,0 4.88293,2.40478 4.88293,5.37122z" fill="#ffffff" stroke="none" stroke-width="NaN"/><path d="M254.85752,87.97028c0,1.65177 -1.21729,2.9908 -2.7189,2.9908c-1.50161,0 -2.71891,-1.33902 -2.71891,-2.9908c0,-1.65177 1.2173,-2.9908 2.71891,-2.9908c1.50161,0 2.7189,1.33902 2.7189,2.9908z" fill="#ffffff" stroke="none" stroke-width="NaN"/></g><g fill="#ffffff" fill-rule="nonzero" stroke="#000000" stroke-width="2" stroke-linejoin="miter"><g><path d="M262.61614,50.21699l6.16735,-3.61211c0,0 5.29351,2.04815 11.5023,10.78518c5.555,7.81702 6.66318,15.3171 6.66318,15.3171l-2.00133,5.90562l-6.95751,-3.15965c0,0 -1.52401,-6.9668 -5.299,-13.37167c-4.25246,-7.21497 -10.075,-11.86448 -10.075,-11.86448z" stroke-linecap="butt"/><path d="M266.44374,48.28942c0,0 6.62919,5.88216 10.89457,13.17583c4.01867,6.87182 6.93377,17.07518 6.93377,17.07518" stroke-linecap="round"/></g><g><path d="M266.80305,48.04441l5.60531,-4.29566c0,0 5.61461,1.36191 13.18867,9.17156c6.77653,6.9873 9.05554,14.20699 9.05554,14.20699l-1.0802,6.03593l-6.40401,-0.294c0,0 -3.66026,-8.60056 -8.43588,-14.42046c-5.37967,-6.55602 -11.92944,-10.40434 -11.92944,-10.40434z" stroke-linecap="butt"/><path d="M269.99942,45.83097c0,0 7.66613,4.82204 13.22204,11.35105c5.23457,6.15139 9.95871,15.7094 9.95871,15.7094" stroke-linecap="round"/></g></g><path d="M228.5078,174.24023l-6.03637,-5.75087l8.23633,-1.29277l3.60449,-7.51722l3.77417,7.43318l8.26415,1.10331l-5.90329,5.88915l1.50215,8.19867l-7.42257,-3.79363l-7.33544,3.96041z" fill="#fff81d" fill-rule="nonzero" stroke="#000000" stroke-width="0.5" stroke-linecap="butt" stroke-linejoin="miter"/><g fill-rule="nonzero" stroke-linecap="butt" stroke-linejoin="miter"><path d="M333.72033,90.71854l-10.75048,5.74445l1.98021,-12.0269l-8.78401,-8.44944l12.04917,-1.83281l5.31941,-10.96733l5.47018,10.8946l12.07059,1.67225l-8.66863,8.56592l2.13616,11.99885z" fill="#002aea" stroke="#000000" stroke-width="0.5"/><path d="M333.82088,87.80316l-7.2882,3.89441l1.34245,-8.15353l-5.95504,-5.72821l8.16863,-1.24252l3.60623,-7.43517l3.70846,7.3859l8.18315,1.1337l-5.87681,5.80718l1.4482,8.1345z" fill="#00e1ff" stroke="none" stroke-width="0"/></g><g fill-rule="nonzero" stroke="#000000" stroke-linecap="butt" stroke-linejoin="miter"><g><g fill="#232323" stroke-width="3"><path d="M213.15712,146.73281c0,0 -2.95588,-0.78142 -2.95588,-3.94678c0,-2.48016 2.95588,-4.11124 2.95588,-4.11124c0,0 -2.95588,-1.3156 -2.95588,-3.94678c0,-3.28898 2.95588,-3.94678 2.95588,-3.94678c0,0 9.59315,-1.28903 21.29645,-1.21536c17.06032,0.10738 23.04181,1.06344 23.04181,1.06344c0,0 2.95589,1.44126 2.95589,4.26314c0,2.27375 -2.95589,3.78233 -2.95589,3.78233c0,0 3.05374,1.90293 2.95589,4.44012c-0.12611,3.27008 -2.95589,3.61789 -2.95589,3.61789c0,0 -11.30208,1.26461 -24.54181,1.06344c-11.4521,-0.174 -19.79645,-1.06344 -19.79645,-1.06344z"/><path d="M270.54902,200.10986l-6.54664,9.10093c0,0 -9.98025,-16.17176 -12.61024,-32.70519c-1.44197,-9.06497 -4.27599,-28.77958 -4.27599,-28.77958c0,0 4.1124,-0.44546 5.97434,-0.67506c1.93934,-0.23915 5.43896,-0.73235 5.43896,-0.73235c0,0 1.71106,9.72245 8.00241,24.45568c7.66085,17.94035 20.77482,31.34255 20.77482,31.34255z"/></g><path d="M262.11476,190.79726l-3.52155,-3.35499l4.80498,-0.75419l2.10282,-4.38546l2.20181,4.33643l4.82121,0.64366l-3.44391,3.43566l0.87634,4.78301l-4.33024,-2.21316l-4.27941,2.31046z" fill="#ff3535" stroke-width="0.5"/></g><path d="M232.32332,140.17352l-3.27546,-3.12053l4.4692,-0.70149l1.95587,-4.07899l2.04794,4.03339l4.48429,0.59868l-3.20324,3.19557l0.8151,4.44876l-4.02763,-2.0585l-3.98035,2.149z" fill="#ff9a0c" stroke-width="0.5"/><g fill="#ff003e" stroke-width="0.5"><path d="M257.68577,178.36047l-2.46262,-2.34614l3.36013,-0.52741l1.47051,-3.06675l1.53972,3.03247l3.37147,0.45012l-2.40832,2.40256l0.61282,3.34475l-3.02813,-1.54766l-2.99259,1.61571z"/><path d="M255.00013,166.64451l-2.00761,-1.91264l2.73927,-0.42996l1.1988,-2.50011l1.25523,2.47216l2.74853,0.36695l-1.96334,1.95863l0.49959,2.72675l-2.46863,-1.26171l-2.43964,1.31717z"/><path d="M253.12763,156.08802l-1.61032,-1.53415l2.1972,-0.34487l0.96157,-2.00536l1.00683,1.98294l2.20462,0.29433l-1.57482,1.57104l0.40073,2.18716l-1.98012,-1.01203l-1.95686,1.05652z"/></g><g fill="#ff003e" stroke-width="0.5"><path d="M246.92071,136.10253l2.51574,-2.92824l0.79379,3.77796l3.56195,1.48794l-3.34751,1.92216l-0.31356,3.84784l-2.86378,-2.58972l-3.75556,0.88973l1.57766,-3.52268l-2.00596,-3.29787z"/><path d="M228.29218,135.75661l-2.01638,3.31498l1.58586,3.54095l-3.77505,-0.89434l-2.87863,2.60316l-0.31519,-3.8678l-3.36487,-1.93213l3.58042,-1.49566l0.79791,-3.79755l2.52879,2.94342z"/></g></g><g fill-rule="nonzero" stroke-linecap="butt" stroke-linejoin="miter"><path d="M272.87607,50.75323c-1.01847,0.12142 -1.85804,-0.56175 -2.69933,-1.28462c0.04147,1.26907 -0.36251,2.34148 -1.61479,2.85165c-3.68881,1.50271 -4.60423,-6.24822 -7.95276,-4.43397c-6.83169,4.10476 -13.75106,8.13198 -19.04473,14.02452c-1.32433,1.47414 -2.38865,1.46487 -3.5425,3.12567c-1.43894,2.07117 -1.09536,6.94893 -0.7618,9.27042c0.22872,1.59177 1.53889,3.03973 1.34157,4.63564c-0.0117,0.09455 -0.02525,0.1887 -0.04054,0.28248h0.06344v3.02314c0,0.97395 -0.79399,1.76351 -1.77341,1.76351c-0.90321,0 -1.64871,-0.67145 -1.75927,-1.53977l-0.30329,-2.11113c-1.51831,-2.93538 -3.0713,-6.0111 -3.99084,-9.2231c-1.42819,9.91237 -1.75137,21.11967 2.06008,30.39787l1.03487,0.82325c0.41308,0.32287 0.67834,0.82424 0.67834,1.38724c0,0.97395 -0.79398,1.76351 -1.7734,1.76351c-0.24705,0 -0.48229,-0.05022 -0.69596,-0.14097l-1.65163,-0.65697l0.04475,-0.11126l-0.27899,-0.00244c-0.87427,-0.68624 -2.34898,-1.58968 -3.48205,-2.57173c-0.61558,3.88907 -2.10912,5.96146 -4.90078,8.73242c-5.94229,4.93095 -11.31922,6.89585 -19.09893,6.84345c-1.48182,-0.00998 -2.9324,-0.43219 -4.38888,-0.70363c-0.7468,-0.13919 -1.64544,0.35037 -2.27841,-0.06759c-1.21799,-0.80427 -2.8457,-1.86345 -2.84781,-3.31735c-0.00165,-1.1277 1.94058,-1.1758 2.8403,-1.86227c0.8173,-0.62365 1.64187,-1.30763 2.17283,-2.18548c0.56358,-0.93181 1.07993,-2.33637 1.7119,-3.6233c-0.01696,-0.0006 -0.03394,-0.00138 -0.05098,-0.00238c-3.01054,-0.17967 -5.97417,-5.01179 -7.42464,-7.17332c-4.61856,-6.88272 -6.58122,-15.30087 -4.63771,-23.52667c0.12292,-0.52044 0.26979,-1.0309 0.43658,-1.53303c-0.84879,0.45271 -1.75,0.56807 -2.67958,0.06419c-1.16,-0.62877 -0.66887,-2.54889 -0.84107,-3.85145c-0.34758,-2.629 0.39536,-5.70069 1.07912,-8.20148c2.49675,-9.13179 7.29512,-15.23612 14.43287,-21.04231c1.60977,-1.30948 3.06093,-2.60966 4.745,-3.63132c-2.53622,0.36239 -5.97233,0.69443 -7.67176,0.00874c-0.10428,-0.04209 -0.20589,-0.08879 -0.30508,-0.13952l-0.01818,0.04521l-1.65061,-0.65654c-0.67353,-0.25008 -1.15313,-0.89564 -1.15313,-1.65261c0,-0.79328 0.52676,-1.46425 1.25141,-1.68587l1.86325,-0.6176c7.65564,-4.3368 17.97588,-6.18652 26.6956,-6.17809c1.27066,0.00123 2.83133,-0.10103 4.30159,0.03628c-0.69453,-0.67542 -1.38878,-1.3536 -2.11957,-2.00915c-1.23072,-1.10401 -2.99203,-1.63959 -3.98196,-2.96155c-0.03532,-0.04714 -0.06972,-0.09487 -0.10325,-0.14306l-0.0264,0.02627l-1.144,-1.1376c-0.38402,-0.24348 -0.7266,-0.67789 -0.7266,-1.45298c0,-1.04999 0.62869,-1.4748 1.13741,-1.64669c0.19744,-0.07544 0.41183,-0.11682 0.63599,-0.11682c0.00807,0 0.01615,0.00005 0.0242,0.00015c4.21793,0.03125 7.52436,1.73089 11.39516,3.13057c7.90585,2.85878 15.35327,5.95381 21.56413,11.53959c0.18862,0.10027 0.37871,0.19811 0.57048,0.29314c2.4847,1.23098 4.87797,2.50377 6.95003,4.10201l1.3654,0.5431c2.58976,1.05773 5.53731,2.79533 7.61777,4.69009c0.09164,0.08346 0.18878,0.16446 0.28853,0.24452c0.68111,0.20137 1.06282,0.83401 1.06282,0.83401c0.33899,0.56184 0.6776,1.12391 1.01582,1.68621c1.38664,1.55073 2.81451,3.52229 2.50709,4.99971c-0.2055,0.98765 -1.18647,1.75446 -3.47365,2.02716z" fill="#00a3ff" stroke="none" stroke-width="0"/><path d="M232.35005,102.00207l1.01918,0.81077c0.40682,0.31798 0.66808,0.81176 0.66808,1.3662c0,0.95919 -0.78195,1.73677 -1.74654,1.73677c-0.24331,0 -0.47498,-0.04947 -0.68542,-0.13884l-1.62658,-0.647l0.04406,-0.10957l-0.27476,-0.0024c-0.861,-0.67584 -2.31337,-1.56558 -3.42926,-2.53274c-0.60625,3.83012 -2.07714,5.87107 -4.82647,8.60004c-5.85221,4.8562 -11.14763,6.7913 -18.80938,6.73971c-1.45937,-0.00983 -2.88796,-0.42563 -4.32235,-0.69295c-0.73548,-0.13707 -1.6205,0.34505 -2.24386,-0.06656c-1.19952,-0.79208 -2.80255,-1.83519 -2.80464,-3.26705c-0.00162,-1.11059 1.91117,-1.15797 2.79723,-1.83403c0.80491,-0.61417 1.61697,-1.28779 2.13989,-2.15236c0.55506,-0.91768 1.06356,-2.30094 1.68594,-3.56836c-0.01669,-0.00059 -0.03343,-0.00136 -0.05021,-0.00236c-2.9649,-0.17695 -5.88359,-4.93581 -7.31208,-7.06456c-4.54853,-6.7784 -6.48146,-15.0689 -4.5674,-23.17001c0.12108,-0.51255 0.26569,-1.01527 0.42996,-1.50979c-0.83592,0.44585 -1.72347,0.55946 -2.63894,0.06323c-1.14241,-0.61924 -0.65873,-2.51026 -0.82831,-3.79306c-0.29989,-2.26815 0.22444,-4.87089 0.8118,-7.13712c1.76619,4.0568 4.30412,8.68626 8.79257,9.80839c3.59505,0.89876 7.78406,-2.24249 10.61293,-3.49404c1.58723,-0.70223 3.27555,-2.50133 4.87537,-1.82826c2.55183,1.07359 1.34198,8.64085 4.9378,9.74318c5.96603,1.82893 6.84182,-3.42378 12.65298,-4.83221c0.05787,-0.01402 1.38247,0.54176 2.41003,0.95621c-1.17114,9.27022 -1.22135,19.47501 2.28843,28.01881z" fill="#bae9ff" stroke="none" stroke-width="0"/><path d="M272.58324,50.77412c-1.01847,0.12142 -1.85804,-0.56175 -2.69934,-1.28462c0.04147,1.26907 -0.36251,2.34148 -1.61479,2.85167c-3.68881,1.50271 -4.60423,-6.24822 -7.95276,-4.43397c-6.83169,4.10476 -13.75106,8.13198 -19.04473,14.02452c-1.32433,1.47414 -2.38865,1.46487 -3.5425,3.12567c-1.43894,2.07117 -1.09536,6.94893 -0.7618,9.27042c0.22872,1.59177 1.53889,3.03973 1.34157,4.63564c-0.0117,0.09455 -0.02525,0.1887 -0.04054,0.28248h0.06344v3.02314c0,0.97395 -0.79399,1.76351 -1.77341,1.76351c-0.90321,0 -1.64871,-0.67146 -1.75927,-1.53978l-0.30329,-2.11113c-1.51831,-2.93538 -3.0713,-6.0111 -3.99084,-9.2231c-1.42819,9.91237 -1.75137,21.11967 2.06008,30.39787l1.03487,0.82325c0.41308,0.32287 0.67834,0.82425 0.67834,1.38724c0,0.97395 -0.79398,1.76351 -1.7734,1.76351c-0.24705,0 -0.4823,-0.05023 -0.69596,-0.14098l-2.75065,-1.63386l1.14378,0.86565l-0.27899,-0.00243c-0.87427,-0.68624 -2.34898,-1.58968 -3.48205,-2.57173c-0.61558,3.88907 -2.1091,5.96146 -4.90077,8.73243c-5.94229,4.93094 -11.31922,6.89584 -19.09893,6.84345c-1.48182,-0.00998 -2.93241,-0.43219 -4.38888,-0.70363c-0.7468,-0.13919 -1.64544,0.35037 -2.27841,-0.06759c-1.21799,-0.80427 -2.8457,-1.86345 -2.84781,-3.31734c-0.00165,-1.1277 1.94058,-1.17579 2.8403,-1.86227c0.8173,-0.62365 1.64187,-1.30763 2.17283,-2.18549c0.56358,-0.93181 1.07994,-2.33636 1.71191,-3.6233c-0.01696,-0.0006 -0.03394,-0.00139 -0.05099,-0.0024c-3.01054,-0.17967 -5.97417,-5.01179 -7.42464,-7.17332c-4.61856,-6.88272 -6.58122,-15.30087 -4.63771,-23.52667c0.12292,-0.52044 0.26979,-1.03091 0.43658,-1.53303c-0.84879,0.45271 -1.75,0.56807 -2.67957,0.0642c-1.16,-0.62877 -0.66888,-2.5489 -0.84107,-3.85145c-0.34758,-2.629 0.39536,-5.70069 1.07912,-8.20148c2.49675,-9.13179 7.29512,-15.23612 14.43287,-21.04232c1.60977,-1.30948 3.06093,-2.60966 4.745,-3.63132c-2.53622,0.36239 -5.97233,0.69443 -7.67177,0.00874c-0.10428,-0.04209 -0.20589,-0.08879 -0.30508,-0.13952l-0.01818,0.04521l-1.65061,-0.65655c-0.67353,-0.25008 -1.15313,-0.89564 -1.15313,-1.65261c0,-0.79328 0.52676,-1.46425 1.2514,-1.68587l1.86326,-0.61761c7.65564,-4.3368 17.97588,-6.18652 26.6956,-6.17809c1.27066,0.00123 2.83133,-0.10103 4.3016,0.03628c-0.69453,-0.67542 -1.38878,-1.3536 -2.11957,-2.00915c-1.23072,-1.10401 -2.99203,-1.63959 -3.98196,-2.96155c-0.03532,-0.04714 -0.06972,-0.09487 -0.10325,-0.14305l-0.0264,0.02626l-1.144,-1.1376c-0.38402,-0.24348 -0.7266,-0.67789 -0.7266,-1.45298c0,-1.04999 0.6287,-1.4748 1.13742,-1.64669c0.19744,-0.07544 0.41183,-0.11682 0.63598,-0.11682c0.00807,0 0.01615,0.00005 0.0242,0.00015c4.21793,0.03125 7.52436,1.73089 11.39516,3.13057c7.90585,2.85878 15.35327,5.95381 21.56413,11.53959c0.18862,0.10027 0.37871,0.19812 0.57048,0.29314c2.4847,1.23098 4.87797,2.50377 6.95003,4.10201l1.3654,0.5431c2.58976,1.05773 5.53731,2.79533 7.61776,4.69009c0.09164,0.08346 0.18878,0.16446 0.28853,0.24452c0.68111,0.20137 1.06282,0.83401 1.06282,0.83401c0.33899,0.56184 0.6776,1.12391 1.01582,1.68621c1.38664,1.55073 2.81451,3.52229 2.50709,4.99971c-0.2055,0.98765 -1.18647,1.75447 -3.47365,2.02716z" fill="none" stroke="#000000" stroke-width="3"/></g><g fill="#002aea" fill-rule="nonzero" stroke="#000000" stroke-width="0.5" stroke-linecap="butt" stroke-linejoin="miter"><path d="M205.21749,72.7883l-3.56156,-3.3931l4.85957,-0.76276l2.12671,-4.43528l2.22682,4.38569l4.87598,0.65097l-3.48303,3.47469l0.8863,4.83735l-4.37943,-2.2383l-4.32802,2.33671z"/><path d="M217.55082,76.0105l-3.56156,-3.3931l4.85957,-0.76276l2.12671,-4.43528l2.22682,4.38569l4.87598,0.65097l-3.48303,3.47469l0.8863,4.83735l-4.37943,-2.2383l-4.32802,2.33671z"/><path d="M191.88416,70.23274l-3.56156,-3.3931l4.85957,-0.76276l2.12671,-4.43528l2.22682,4.38569l4.87598,0.65097l-3.48303,3.47469l0.8863,4.83735l-4.37943,-2.2383l-4.32802,2.33671z"/></g><path d="M266.56426,49.69231l-6.38448,0.78116l3.26368,-5.54248l-2.71512,-5.83047l6.27916,1.39124l4.70549,-4.38543l0.61874,6.40321l5.62259,3.12043l-5.89684,2.56606l-1.23235,6.31213z" fill="#00cba3" fill-rule="nonzero" stroke="#000000" stroke-width="0.5" stroke-linecap="butt" stroke-linejoin="miter"/><g fill-rule="nonzero" stroke="#000000" stroke-width="1.5" stroke-linecap="butt" stroke-linejoin="miter"><g fill="#ff007b"><path d="M357.83418,105.65869c0,0 -2.93489,-3.83095 0.23537,-12.79132c3.08617,-8.72269 8.23476,-10.91207 8.23476,-10.91207c0,0 4.27701,2.22206 7.91762,5.40132c4.41683,3.85711 7.78015,8.14834 7.78015,8.14834l-3.64382,10.18579c0,0 -6.77306,1.73725 -10.94281,1.61868c-5.02508,-0.14288 -9.58125,-1.65075 -9.58125,-1.65075z"/><path d="M394.68678,115.69214c-3.31615,-2.54482 -7.49577,-8.17889 -7.49577,-8.17889l3.53681,-10.22386c0,0 5.29858,-1.20944 11.14482,-1.41509c4.81879,-0.16952 9.53379,0.80766 9.53379,0.80766c0,0 2.63383,4.95828 -0.42158,13.69191c-3.13867,8.97159 -7.81631,10.09413 -7.81631,10.09413c0,0 -4.48543,-1.709 -8.48178,-4.77584z"/></g><path d="M383.05908,106.37668l-9.14794,1.82469l4.11645,-8.37059l-4.5612,-8.13623l9.23212,1.32841l6.3275,-6.85427l1.59184,9.19271l8.47085,3.90057l-8.24843,4.35286l-1.09504,9.2625z" fill="#ff004a"/></g><g fill-rule="nonzero" stroke="#002aea" stroke-width="2" stroke-linecap="butt" stroke-linejoin="miter"><g><path d="M187.75331,58.07545l-37.35127,-46.14496l34.59174,14.79091l-9.31255,-45.72729l32.65842,32.88961l7.56661,-36.51017l17.63639,56.54558z" fill="#00a3ff"/><path d="M188.86494,64.80562l-4.69706,-8.90349l50.2411,-26.50484l4.69706,8.90349z" fill="#004f7c"/><path d="M145.72251,3.83071c4.74164,-2.50146 10.61334,-0.68543 13.11482,4.0562c2.50146,4.74164 0.68543,10.61334 -4.0562,13.11482c-4.74164,2.50146 -10.61334,0.68543 -13.11482,-4.0562c-2.50146,-4.74164 -0.68543,-10.61334 4.0562,-13.11482z" fill="#004f7c"/></g><path d="M167.99127,-14.82737c-2.50148,-4.74165 -0.68545,-10.61335 4.05619,-13.11483c4.74164,-2.50146 10.61334,-0.68543 13.11482,4.0562c2.50146,4.74164 0.68543,10.61334 -4.0562,13.11482c-4.74164,2.50146 -10.61334,0.68543 -13.11482,-4.0562z" fill="#004f7c"/><path d="M212.16316,-32.03321c4.74164,-2.50146 10.61334,-0.68543 13.11482,4.0562c2.50146,4.74164 0.68543,10.61334 -4.0562,13.11482c-4.74164,2.50146 -10.61334,0.68543 -13.11482,-4.0562c-2.50146,-4.74164 -0.68543,-10.61334 4.0562,-13.11482z" fill="#004f7c"/></g><g fill="#ff007b" fill-rule="nonzero" stroke="#000000" stroke-width="3" stroke-linejoin="miter"><path d="M370.28166,184.33426l-0.61316,11.25699l-15.7664,-33.22207l7.84897,-2.81162l23.04828,28.85296z" stroke-linecap="butt"/><path d="M325.8669,187.31823l23.04827,-28.85295l7.84897,2.81162l-15.7664,33.22207l-0.61316,-11.25699z" stroke-linecap="butt"/><g><path d="M378.24827,176.76955c-6.60214,-2.77985 -21.36063,-16.77336 -21.36063,-16.77336l-0.55049,-6.88123c0,0 14.17368,-13.16531 20.87574,-16.29294c5.40129,-2.5206 17.10864,-4.90124 17.10864,-4.90124c0,0 3.38447,17.77719 3.42806,24.49099c0.04777,7.35676 -3.97856,21.75086 -3.97856,21.75086c0,0 -10.19982,0.84815 -15.52275,-1.39309z" stroke-linecap="butt"/><path d="M316.00103,179.26364c0,0 -4.02633,-14.39409 -3.97856,-21.75086c0.0436,-6.7138 3.42806,-24.49099 3.42806,-24.49099c0,0 11.70735,2.38064 17.10864,4.90124c6.70206,3.12763 20.87574,16.29294 20.87574,16.29294l-0.55049,6.88123c0,0 -14.75849,13.99351 -21.36063,16.77336c-5.32293,2.24124 -15.52275,1.39309 -15.52275,1.39309z" stroke-linecap="butt"/><path d="M354.81115,146.50896c5.16854,0 9.35847,4.4364 9.35847,9.90897c0,5.47257 -4.18993,9.90897 -9.35847,9.90897c-5.16854,0 -9.35847,-4.4364 -9.35847,-9.90897c0,-5.47257 4.18993,-9.90897 9.35847,-9.90897z" stroke-linecap="butt"/><path d="M338.02096,149.53671l7.43172,4.95448" stroke-linecap="round"/><path d="M345.72792,158.8952l-9.90897,0.82575" stroke-linecap="round"/><path d="M336.91995,167.97842l9.35847,-6.05548" stroke-linecap="round"/><path d="M371.75109,148.43573l-7.43172,4.95448" stroke-linecap="round"/><path d="M364.04412,157.7942l9.90897,0.82575" stroke-linecap="round"/><path d="M363.49362,160.82194l9.35847,6.05548" stroke-linecap="round"/></g></g><g fill-rule="nonzero" stroke-linecap="butt" stroke-linejoin="miter"><path d="M153.81855,164.83394l-8.41003,4.49386l1.5491,-9.40857l-6.87167,-6.60994l9.426,-1.43379l4.16134,-8.57967l4.27929,8.52277l9.44274,1.30819l-6.78141,6.70107l1.6711,9.38663z" fill="#00e1ff" stroke="#000000" stroke-width="0.5"/><path d="M153.89721,162.55326l-5.70152,3.04656l1.05018,-6.37846l-4.65858,-4.48116l6.39027,-0.97201l2.82113,-5.81648l2.9011,5.77794l6.40162,0.88688l-4.59738,4.54292l1.1329,6.36357z" fill="#002aea" stroke="none" stroke-width="0"/></g><path d="M189.5764,45.77955l-2.7475,3.87135l-1.40135,-4.53561l-4.53047,-1.41704l3.8803,-2.73402l-0.05342,-4.74703l3.80083,2.84542l4.49728,-1.51627l-1.53135,4.49258l2.83099,3.81001z" fill="#002aea" fill-rule="nonzero" stroke="#00e1ff" stroke-width="1.5" stroke-linecap="butt" stroke-linejoin="miter"/><path d="M206.2543,37.2223l-2.7475,3.87136l-1.40135,-4.53561l-4.53047,-1.41704l3.8803,-2.73402l-0.05341,-4.74703l3.80083,2.84542l4.49728,-1.51627l-1.53135,4.49258l2.83098,3.81001z" fill="#002aea" fill-rule="nonzero" stroke="#00e1ff" stroke-width="1.5" stroke-linecap="butt" stroke-linejoin="miter"/><path d="M222.58292,28.83969l-2.7475,3.87136l-1.40135,-4.53561l-4.53047,-1.41704l3.8803,-2.73402l-0.05341,-4.74703l3.80083,2.84542l4.49728,-1.51627l-1.53135,4.49258l2.83098,3.81001z" fill="#002aea" fill-rule="nonzero" stroke="#00e1ff" stroke-width="1.5" stroke-linecap="butt" stroke-linejoin="miter"/><g fill-rule="nonzero" stroke="#000000" stroke-width="3" stroke-linecap="butt" stroke-linejoin="miter"><path d="M177.95409,217.7153c0,0 1.66062,13.35834 -0.89663,20.40167c-2.55725,7.04333 -7.04056,11.69456 -10.01373,10.38879c-2.97318,-1.30576 -3.31036,-8.07406 -0.75311,-15.11739c2.55725,-7.04333 11.66347,-15.67307 11.66347,-15.67307z" fill="url(#color-1)"/><path d="M177.34732,232.72463c1.51814,-7.37189 9.34661,-17.67441 9.34661,-17.67441c0,0 3.62636,12.59682 2.10821,19.9687c-1.51815,7.37188 -5.31311,12.83437 -8.47627,12.20082c-3.16316,-0.63355 -4.49671,-7.12324 -2.97856,-14.49512z" fill="url(#color-2)"/><path d="M173.73141,209.44467c0,0 -0.138,13.68473 -3.55516,20.24848c-3.41716,6.56376 -8.39631,10.36777 -11.12125,8.4965c-2.72494,-1.87128 -2.16378,-8.70922 1.25338,-15.27297c3.41716,-6.56375 13.42303,-13.47201 13.42303,-13.47201z" fill="url(#color-3)"/><path d="M190.82787,205.86828c0,0 7.02506,10.06629 7.60129,17.41963c0.57623,7.35333 -1.58948,13.87465 -4.83727,14.56576c-3.24778,0.69112 -6.34776,-4.70966 -6.92399,-12.063c-0.57623,-7.35334 4.15997,-19.92239 4.15997,-19.92239z" fill="url(#color-4)"/><path d="M169.31918,236.26844c-12.28367,-7.63447 -6.53958,-25.10813 4.50853,-42.90691c4.4105,2.12253 9.62747,3.65667 13.97583,6.27603c4.43352,2.67067 7.99449,6.43146 12.07657,9.0949c0.33479,0.21844 0.66393,0.43381 0.98764,0.64627c-5.04507,16.73317 -14.43478,37.52617 -31.54856,26.88971z" fill="url(#color-5)"/></g><g fill-rule="nonzero" stroke="#000000" stroke-width="3" stroke-linecap="butt" stroke-linejoin="miter"><path d="M311.76259,233.10265c2.55725,7.04333 2.22007,13.81163 -0.75311,15.11739c-2.97317,1.30577 -7.45648,-3.34546 -10.01373,-10.38879c-2.55725,-7.04333 -0.89663,-20.40167 -0.89663,-20.40167c0,0 9.10622,8.62974 11.66347,15.67307z" fill="url(#color-6)"/><path d="M300.7059,232.4389c1.51815,7.37188 0.1846,13.86157 -2.97856,14.49512c-3.16316,0.63355 -6.95812,-4.82894 -8.47627,-12.20082c-1.51815,-7.37188 2.10821,-19.9687 2.10821,-19.9687c0,0 7.82847,10.30252 9.34661,17.67441z" fill="url(#color-7)"/><path d="M317.74483,222.63096c3.41716,6.56375 3.97832,13.40169 1.25338,15.27297c-2.72494,1.87127 -7.70409,-1.93274 -11.12125,-8.4965c-3.41716,-6.56375 -3.55516,-20.24848 -3.55516,-20.24848c0,0 10.00587,6.90826 13.42303,13.47201z" fill="url(#color-8)"/><path d="M291.38531,225.50495c-0.57623,7.35334 -3.67621,12.75412 -6.92399,12.063c-3.24779,-0.69111 -5.4135,-7.21243 -4.83727,-14.56576c0.57623,-7.35334 7.60129,-17.41963 7.60129,-17.41963c0,0 4.7362,12.56905 4.15997,19.92239z" fill="url(#color-9)"/><path d="M308.73402,235.98272c-17.11378,10.63646 -26.50349,-10.15654 -31.54856,-26.88971c0.32371,-0.21246 0.65285,-0.42783 0.98764,-0.64627c4.08208,-2.66344 7.64305,-6.42423 12.07657,-9.0949c4.34836,-2.61936 9.56533,-4.1535 13.97583,-6.27603c11.04811,17.79878 16.7922,35.27244 4.50853,42.90691z" fill="url(#color-10)"/></g><path d="M296.08468,212.53636c0.13292,-1.96645 1.31714,-3.72783 3.18827,-4.40413c2.5796,-0.93237 5.4809,0.54566 6.47613,3.29916c1.96002,5.42283 -2.92273,9.08885 -4.34388,15.82534c-5.60889,-4.23408 -11.43339,-3.78942 -13.45803,-9.39103c-0.99522,-2.7535 0.29064,-5.74494 2.87024,-6.67731c1.87115,-0.67631 3.90785,-0.07909 5.26727,1.34796z" fill="#002aea" fill-rule="nonzero" stroke="#000000" stroke-width="3" stroke-linecap="butt" stroke-linejoin="round"/><path d="M187.64902,212.4041c2.5087,1.10909 3.58393,4.18252 2.40007,6.86034c-2.40839,5.44765 -8.188,4.59997 -14.07713,8.43472c-0.95037,-6.81885 -5.56702,-10.8148 -3.2355,-16.08857c1.18386,-2.67782 4.18071,-3.951 6.68941,-2.84192c1.81971,0.80448 2.87887,2.64378 2.87504,4.61471c1.45515,-1.3293 3.52838,-1.78378 5.3481,-0.97929z" fill="#002aea" fill-rule="nonzero" stroke="#000000" stroke-width="3" stroke-linecap="butt" stroke-linejoin="round"/><g fill-rule="nonzero"><g stroke-linecap="butt" stroke-linejoin="miter"><path d="M168.84074,239.0864l-76.68137,-81.03576l4.16196,-3.93832l76.68137,81.03576z" fill="#6ba3ff" stroke="#000000" stroke-width="1.5"/><g><path d="M117.00827,151.041l-21.40263,5.84274l-7.31886,20.9508l-12.17639,-18.55325l-22.18553,-0.48846l13.88169,-17.31196l-6.39665,-21.25102l20.76114,7.85011l18.23206,-12.64283l-1.05105,22.16362z" fill="#9fe1ff" stroke="#000000" stroke-width="1.5"/><path d="M106.27548,149.17904l-14.3658,3.92174l-4.91253,14.06252l-8.173,-12.45325l-14.89129,-0.32787l9.31762,-11.62007l-4.29354,-14.26404l13.93521,5.26912l12.23766,-8.48608l-0.70548,14.87658z" fill="#00a3ff" stroke="none" stroke-width="0"/></g></g><g stroke="#002aea"><g fill="#00a3ff" stroke-width="1" stroke-linejoin="miter"><path d="M121.11863,180.75103l1.96545,4.46387l-12.58288,-9.73579l2.47881,-2.62036l14.53819,6.62534z" stroke-linecap="butt"/><path d="M104.56325,190.59081l3.24988,-15.64263l3.57882,-0.45043l0.41477,15.90415l-2.43867,-4.22398z" stroke-linecap="butt"/><g><path d="M122.71305,176.27349c-3.09147,0.21879 -11.52395,-2.29411 -11.52395,-2.29411l-1.55852,-2.54769c0,0 2.89407,-7.85295 4.86849,-10.3709c1.59122,-2.02925 5.64323,-5.23808 5.64323,-5.23808c0,0 4.78356,6.19792 6.11371,8.78017c1.45755,2.82954 2.71958,9.17166 2.71958,9.17166c0,0 -3.77006,2.32255 -6.26255,2.49894z" stroke-linecap="butt"/><path d="M99.18053,189.41259c0,0 -4.36945,-4.76688 -5.79013,-7.6151c-1.29652,-2.59929 -3.46802,-10.12135 -3.46802,-10.12135c0,0 4.98342,-1.37151 7.56077,-1.45543c3.19805,-0.10413 11.24287,2.20357 11.24287,2.20357l1.13367,2.76307c0,0 -2.95773,8.28694 -4.96163,10.65114c-1.61562,1.90612 -5.71752,3.5741 -5.71752,3.5741z" stroke-linecap="butt"/><path d="M107.74946,169.18104c1.99448,-1.01105 4.47915,-0.11873 5.54968,1.99306c1.07053,2.11179 0.32153,4.64337 -1.67295,5.65443c-1.99448,1.01105 -4.47915,0.11873 -5.54968,-1.99306c-1.07053,-2.11179 -0.32153,-4.64337 1.67295,-5.65443z" stroke-linecap="butt"/><path d="M101.86262,173.63386l3.83699,0.4581" stroke-linecap="round"/><path d="M103.00511,177.99459l3.66221,-2.25702" stroke-linecap="round"/><path d="M105.04528,180.96566l2.42676,-4.16742" stroke-linecap="round"/><path d="M114.66327,166.61081l-1.89862,3.36564" stroke-linecap="round"/><path d="M117.50521,170.11l-3.98528,1.61972" stroke-linecap="round"/><path d="M113.89978,173.00578l4.79587,0.50605" stroke-linecap="round"/></g></g><path d="M107.3483,169.16584c-0.10351,-1.88501 0.81641,-3.69796 2.51621,-4.55963c2.3434,-1.18794 5.2744,-0.12196 6.54242,2.37941c2.49728,4.92627 -1.71613,8.98228 -2.27972,15.55269c-5.82724,-3.36961 -11.31252,-2.26601 -13.89213,-7.3547c-1.26802,-2.50137 -0.39526,-5.4956 1.94813,-6.68354c1.69981,-0.86168 3.70589,-0.532 5.16509,0.66576z" fill="#00e1ff" stroke-width="0.5" stroke-linecap="butt" stroke-linejoin="round"/></g></g></g></g></svg>