<svg version="1.1" xmlns="http://www.w3.org/2000/svg" xmlns:xlink="http://www.w3.org/1999/xlink" width="342.38017" height="311.97206" viewBox="0,0,342.38017,311.97206"><g transform="translate(-68.80992,-23.98274)"><g data-paper-data="{&quot;isPaintingLayer&quot;:true}" fill-rule="nonzero" stroke-linejoin="miter" stroke-miterlimit="10" stroke-dasharray="" stroke-dashoffset="0" style="mix-blend-mode: normal"><g data-paper-data="{&quot;index&quot;:null}" fill="#ffffff" stroke="#000000" stroke-width="2.5"><g><path d="M94.71621,271.49539c0,0 -16.11237,8.04378 -22.93035,-9.0809c-0.88269,-2.217 -1.92009,-4.58045 -1.69467,-6.73605c0.50979,-4.87508 4.14756,-9.14421 6.96298,-11.50227c4.10333,-3.43674 19.98746,-8.70332 19.98746,-8.70332l38.83484,-13.13215c2.07681,5.50538 5.41679,18.26772 6.48434,19.72945z" stroke-linecap="butt"/><path d="M82.66784,272.49738l7.60043,-4.07846" data-paper-data="{&quot;index&quot;:null}" stroke-linecap="round"/><path d="M70.83095,255.86913l9.6322,-3.95959" data-paper-data="{&quot;index&quot;:null}" stroke-linecap="round"/></g><g stroke-linecap="round"><path d="" data-paper-data="{&quot;index&quot;:null}"/><path d="" data-paper-data="{&quot;index&quot;:null}"/></g></g><path d="M309.63717,192.72256c19.122,-7.10103 35.21611,-24.20133 48.33311,-39.01966c4.09646,-4.62779 8.01304,-9.74587 12.2164,-14.23751c1.89632,-2.02638 3.32809,-5.84617 6.09772,-5.66903c3.6198,0.23151 4.22739,3.52848 4.13362,6.56874c0.26406,-0.26622 0.52144,-0.53682 0.76452,-0.81683c4.88202,-5.62357 8.80667,-10.95469 15.47426,-14.35135l2.3816,-1.98467c0.56915,-0.48115 1.30503,-0.77121 2.10867,-0.77121c1.80491,0 3.2681,1.46317 3.2681,3.2681c0,0.22187 -0.02211,0.43858 -0.06425,0.64805l-0.85996,4.72977l-0.24038,-0.0437c0.12928,6.60538 -0.31285,13.01311 -1.0322,19.84646c-0.40665,3.86295 -0.76866,7.75419 -1.29419,11.60282c-0.11607,0.85 -0.62616,1.69973 -0.43649,2.53639c0.08003,0.35302 0.70314,0.18068 1.06242,0.22472c2.18075,0.26726 4.90433,-0.74365 6.55298,0.70859c3.4123,3.0058 1.28203,7.52905 -0.10015,10.42534c-3.58457,7.51126 -9.18686,14.6578 -14.58326,20.93209c-3.74355,3.1178 -7.84752,6.45338 -12.03415,9.29964c1.45924,0.3274 2.54954,1.6308 2.54954,3.18884c0,1.00032 -0.44943,1.89568 -1.15737,2.49515l-3.03409,2.60066l-0.31259,-0.36469c-2.10681,2.52079 -4.33805,4.81649 -6.80871,7.49486c-4.70651,5.10219 -9.52069,10.69566 -15.62999,14.15475c-10.29235,5.82751 -21.52907,7.0411 -33.06505,8.24305c-5.30664,0.5529 -10.21916,2.17433 -15.59416,2.19678c-5.10223,0 -14.84166,1.3729 -17.33918,-4.93214c-0.37434,-0.94501 -0.30855,-10.19478 -0.30855,-12.27984c0,-3.29165 0.58213,-6.62605 0.05244,-9.8748c-0.1997,-1.22483 -1.09906,-2.26255 -1.30723,-3.48597c-0.74067,-4.35294 -0.08912,-10.0753 0.88161,-14.29187c0.5535,-2.40427 0.53752,-5.14169 2.00553,-7.12457c2.95694,-3.99397 9.41701,-2.03803 13.4009,-2.04336h3.05023c0,0 0.37367,0 0.86832,0.12636z" data-paper-data="{&quot;index&quot;:null}" fill="#ffffff" stroke="#000000" stroke-width="2.5" stroke-linecap="butt"/><g data-paper-data="{&quot;index&quot;:null}" stroke-linecap="round"><path d="M265.87315,73.25544c0,0 -3.05608,-16.4356 7.78783,-28.95659c10.84392,-12.521 29.2746,-19.00365 29.2746,-19.00365c0,0 8.9931,2.62097 14.36018,5.48862c5.18211,2.76885 13.92993,11.93776 13.92993,11.93776l3.68835,-2.31186c0,0 13.3778,7.15971 19.68798,28.83208c1.61255,5.53832 3.24463,18.91245 -2.94307,28.60109c-4.40866,6.91808 -9.52519,13.55722 -17.01626,18.5854c-7.41429,4.97667 -12.43731,2.21527 -12.43731,2.21527z" fill="#e6ffff" stroke="#000000" stroke-width="2.5"/><path d="M268.53134,69.80044c0,0 -3.11359,-6.4157 0.82357,-14.09473c0.96442,-1.88097 2.03444,-3.99646 4.04478,-5.92809c3.76401,-3.61662 5.66551,-7.27378 8.91211,-9.59768c5.56641,-3.98438 11.1468,-4.68398 11.1468,-4.68398c0,0 15.98749,4.31769 26.64088,16.99815c7.83973,9.33142 11.25655,19.10602 12.83597,30.89842c0.76872,5.73945 -4.57542,15.08837 -8.88504,20.41245c-4.18571,5.17101 -11.382,6.90831 -11.382,6.90831z" fill="#fde6ff" stroke="none" stroke-width="0"/></g><g data-paper-data="{&quot;index&quot;:null}" stroke-linecap="round"><path d="M107.74415,119.7511c0,0 -5.02302,2.7614 -12.43731,-2.21527c-7.49107,-5.02818 -12.6076,-11.66733 -17.01626,-18.5854c-6.1877,-9.68864 -4.55562,-23.06276 -2.94307,-28.60109c6.31017,-21.67238 19.68798,-28.83208 19.68798,-28.83208l3.68835,2.31186c0,0 8.74782,-9.16892 13.92993,-11.93776c5.36709,-2.86765 14.36018,-5.48862 14.36018,-5.48862c0,0 18.43068,6.48265 29.2746,19.00365c10.84392,12.52099 7.78783,28.95659 7.78783,28.95659z" fill="#e6ffff" stroke="#000000" stroke-width="2.5"/><path d="M117.28107,111.82081c0,0 -7.19629,-1.7373 -11.382,-6.90831c-4.30961,-5.32408 -9.65375,-14.673 -8.88504,-20.41245c1.57942,-11.7924 4.99624,-21.56701 12.83597,-30.89842c10.65339,-12.68046 26.64088,-16.99815 26.64088,-16.99815c0,0 5.58039,0.69961 11.1468,4.68398c3.2466,2.32389 5.14811,5.98106 8.91211,9.59768c2.01034,1.93163 3.08036,4.04712 4.04478,5.92809c3.93716,7.67903 0.82357,14.09473 0.82357,14.09473z" fill="#fde6ff" stroke="none" stroke-width="0"/></g><g data-paper-data="{&quot;index&quot;:null}" fill="#ffffff" stroke="#000000" stroke-width="2.5"><g><path d="M367.43698,238.79558c0,0 16.36,7.5274 7.27578,23.56539c-1.17607,2.07632 -2.36944,4.36498 -4.19139,5.53882c-4.1205,2.65475 -9.72692,2.49108 -13.32833,1.77213c-5.24886,-1.04784 -19.30042,-10.13607 -19.30042,-10.13607l-34.55403,-22.05939c2.99253,-5.06628 10.85279,-15.66105 11.32419,-17.40864z" stroke-linecap="butt"/><path d="M367.82296,244.19l7.93874,3.37291" data-paper-data="{&quot;index&quot;:null}" stroke-linecap="round"/><path d="M361.08875,262.17195l9.11815,5.03161" data-paper-data="{&quot;index&quot;:null}" stroke-linecap="round"/></g><g stroke-linecap="round"><path d="" data-paper-data="{&quot;index&quot;:null}"/><path d="" data-paper-data="{&quot;index&quot;:null}"/></g></g><g data-paper-data="{&quot;index&quot;:null}" stroke-linecap="butt"><path d="M200.92641,226.87333c-0.18054,0 -0.36407,0.00246 -0.55019,0.00683l0.38652,0.7377c3.36309,0.42237 6.68342,0.20057 10.03291,0.95445c1.61477,0.36345 3.58501,0.16471 4.79345,1.29575c1.65384,1.54791 1.39432,5.45206 1.39656,7.52684c0.00528,4.87286 -0.81174,9.49483 -2.33875,14.10872c-0.35537,1.2438 -1.84438,6.75318 -2.50491,7.83632c-4.35269,7.13752 -11.27652,5.64613 -18.14171,6.2836c-3.71055,0.34455 -7.43012,0.86803 -11.17612,1.11565c-0.35254,0.0233 -7.34667,-0.02501 -7.82602,0.04718c-3.65454,0.5503 -7.18229,1.82698 -10.85001,2.28129c-9.46906,1.17289 -19.38199,0.45823 -28.90034,0.23646c-5.38635,-0.8918 -13.47345,-0.49214 -18.2883,-3.52686c-8.29718,-5.22956 -5.275,-19.69094 -3.46046,-27.32995c0.86229,-3.63019 0.15903,-5.6328 4.27046,-7.9781c1.20023,-0.68466 2.77528,-0.01771 4.13798,-0.2465c3.02924,-0.50861 5.88963,-1.88344 8.94219,-2.2253c0.09302,-0.01041 2.10553,-0.01448 4.17899,-0.01596c0.01867,-10.36914 0.55327,-20.70213 0.55327,-31.01152c0,-17.36868 0.55377,-34.66139 0.55377,-52.05409c0,-3.70384 0,-7.40768 0,-11.11152c-2.90967,2.72407 -6.23503,5.28329 -9.96485,6.07108c-6.77512,1.43099 -17.46111,-0.80325 -22.45019,-5.73833c-4.00686,-3.9635 -6.34968,-10.76203 -9.02472,-15.64512c-0.09699,-5.37528 -1.17149,-11.8624 1.29632,-16.87887c2.60909,-5.30366 8.06184,-9.0722 12.59155,-12.5823c13.13738,-10.18026 28.89817,-20.78998 45.15466,-24.88221c0,0 1.40119,-0.35029 2.43258,0.4671c4.77659,-0.05789 9.31182,-0.73092 14.06983,-1.09411c2.97279,-0.22692 6.30469,-1.83709 9.16182,0.60115c2.95434,2.52118 2.82766,8.77162 4.17622,12.2496c1.74949,4.51198 3.97596,9.40782 5.07689,14.13663c1.30968,5.62544 1.35179,11.42664 2.29338,17.07617c0.00992,9.66288 0.5632,19.32639 0.5632,29.02425c0,8.67374 -0.74262,17.70927 -0.00944,26.35244c0.82309,9.70286 1.11697,19.23235 1.11697,29.02425c-0.02684,6.07394 0.4928,12.19693 0.54888,18.33301c-0.34616,0.62335 -0.6194,1.28382 -0.79555,1.98842c-0.63675,2.547 -0.45603,4.86627 0.3443,6.89882c0.00731,0.71186 0.05463,1.38678 0.16383,1.99868c0.07988,0.4476 0.56608,0.45497 1.12768,0.36426c1.68262,2.35268 4.29873,4.16568 7.39611,5.30413z" fill="#e6ffff" stroke="none" stroke-width="0"/><path d="M200.92641,227.98087c-0.18054,0 -0.36407,0.00246 -0.55019,0.00683l0.38652,0.7377c3.36309,0.42236 6.68342,0.20057 10.03291,0.95445c1.61477,0.36344 3.58501,0.16471 4.79345,1.29575c1.65384,1.54791 1.39432,5.45206 1.39656,7.52684c0.00528,4.87286 -0.81174,9.49483 -2.33875,14.10872c-0.35537,1.2438 -1.84438,6.75318 -2.50491,7.83632c-4.35269,7.13752 -11.27652,5.64613 -18.14171,6.2836c-3.71055,0.34455 -7.43012,0.86803 -11.17612,1.11565c-0.35254,0.0233 -7.34667,-0.02501 -7.82602,0.04718c-3.65454,0.5503 -7.18229,1.82698 -10.85001,2.28129c-9.46906,1.17289 -19.38199,0.45823 -28.90034,0.23646c-5.38635,-0.8918 -13.47345,-0.49214 -18.2883,-3.52686c-3.95855,-2.495 -5.34058,-7.09134 -5.50649,-12.04562c3.7379,-0.00087 8.61193,-0.00744 8.98318,-0.03835c6.72225,-0.55973 15.07335,-1.80289 21.50893,-3.88433c1.57089,-0.50807 2.867,-1.68363 4.43014,-2.21507c3.30504,-1.12366 6.94546,-1.08313 10.216,-2.30354c1.13186,-0.42236 1.95774,-1.54023 3.13218,-1.8234c1.43557,-0.34614 2.99977,0.36705 4.43014,0c3.10197,-0.79601 5.8803,-2.64161 9.00185,-3.357c2.07484,-0.57454 4.23763,-0.89461 6.22454,-1.72363c1.45745,-0.6081 2.58498,-1.83678 3.99814,-2.5417c5.04087,-2.51454 10.81608,-4.33835 14.85821,-8.61567c0.38131,-0.4035 0.73391,-0.829 1.06342,-1.27197c0.67108,0.34181 1.37487,0.64785 2.10544,0.91637z" fill="#acbfbf" stroke="none" stroke-width="0"/><path d="M199.81888,227.98087c-0.18054,0 -0.36407,0.00246 -0.55019,0.00683l0.38652,0.7377c3.36309,0.42236 6.68342,0.20057 10.03291,0.95445c1.61477,0.36344 3.58501,0.16471 4.79345,1.29575c1.65384,1.54791 1.39432,5.45206 1.39656,7.52684c0.00528,4.87286 -0.81174,9.49483 -2.33875,14.10872c-0.35537,1.2438 -1.84438,6.75318 -2.50491,7.83632c-4.35269,7.13752 -11.27652,5.64613 -18.14171,6.2836c-3.71055,0.34455 -7.43012,0.86803 -11.17612,1.11565c-0.35254,0.0233 -7.34667,-0.02501 -7.82602,0.04718c-3.65454,0.5503 -7.18229,1.82698 -10.85001,2.28129c-9.46906,1.17289 -19.38199,0.45823 -28.90034,0.23646c-5.38635,-0.8918 -13.47345,-0.49214 -18.2883,-3.52686c-8.29718,-5.22956 -5.275,-19.69094 -3.46046,-27.32995c0.86229,-3.63019 0.15903,-5.6328 4.27046,-7.9781c1.20023,-0.68466 2.77528,-0.01771 4.13798,-0.2465c3.02924,-0.50861 5.88963,-1.88344 8.94219,-2.2253c0.09302,-0.01041 2.10553,-0.01448 4.17899,-0.01596c0.01867,-10.36914 0.55327,-20.70213 0.55327,-31.01152c0,-17.36868 0.55377,-34.66139 0.55377,-52.05409c0,-3.70384 0,-7.40768 0,-11.11152c-2.90967,2.72407 -6.23503,5.28329 -9.96485,6.07108c-6.77512,1.43099 -17.46111,-0.80325 -22.45019,-5.73833c-4.00686,-3.9635 -6.34968,-10.76203 -9.02472,-15.64512c-0.09699,-5.37528 -1.17149,-11.8624 1.29632,-16.87887c2.60909,-5.30366 8.06184,-9.0722 12.59155,-12.5823c13.13738,-10.18026 28.89817,-20.78998 45.15466,-24.88221c0,0 1.40119,-0.35029 2.43258,0.4671c4.77659,-0.05789 9.31182,-0.73092 14.06983,-1.09411c2.97279,-0.22692 6.30469,-1.83709 9.16182,0.60115c2.95434,2.52118 2.82766,8.77162 4.17622,12.2496c1.74949,4.51198 3.97596,9.40781 5.07689,14.13663c1.30968,5.62544 1.35179,11.42664 2.29338,17.07617c0.00992,9.66288 0.5632,19.32639 0.5632,29.02425c0,8.67374 -0.74262,17.70927 -0.00944,26.35244c0.82309,9.70286 1.11697,19.23235 1.11697,29.02425c-0.02684,6.07394 0.4928,12.19693 0.54888,18.33301c-0.34616,0.62335 -0.6194,1.28382 -0.79555,1.98842c-0.63675,2.547 -0.45603,4.86627 0.3443,6.89882c0.00731,0.71186 0.05463,1.38678 0.16383,1.99868c0.07988,0.4476 0.56608,0.45497 1.12768,0.36426c1.68262,2.35268 4.29873,4.16568 7.39611,5.30413z" fill="none" stroke="#000000" stroke-width="2.5"/></g><g data-paper-data="{&quot;index&quot;:null}" stroke-linecap="butt"><path d="M243.13936,63.63678l1.65923,-0.08272c3.58958,-0.17898 7.08383,-0.58241 10.65369,0.10503c3.59345,0.69198 6.37339,1.54067 10.12025,1.63684c6.21834,0.1596 12.23892,0.72103 18.33501,1.9345c7.64225,1.52125 15.2747,1.78029 22.2134,5.91631c0.1939,0.11557 6.84763,5.12782 7.17892,5.37702c6.49208,4.90878 10.61017,10.34429 14.35588,17.42384c3.54071,6.69212 6.96746,13.41963 7.96132,21.09957c0.61775,4.77359 0.49393,9.76645 0.73371,14.57577c0.22986,4.61016 0.94527,9.49395 0.68953,14.10016c-0.1809,3.25834 -1.46542,6.18863 -2.50963,9.22968c-1.2019,3.23622 -2.67218,6.81056 -3.22789,10.24792c-0.55911,3.45836 -0.99581,7.10936 -2.744,10.14525c-3.85124,6.688 -10.76998,10.20637 -15.3102,16.24377c-2.43498,3.23794 -3.06477,7.2803 -4.97196,10.68106c-2.79183,4.97814 -8.07415,10.62189 -12.96381,14.70774c2.32972,0.02878 4.63645,0.22057 6.72528,0.73885c4.5626,1.13209 8.61629,2.94302 13.24578,3.87975c1.3661,0.80777 3.08614,1.20091 4.0983,2.42331c2.72542,3.29155 0.28345,4.12356 1.3403,7.47204c1.02645,3.25215 3.61526,3.39781 5.50235,6.14425c6.15941,8.96428 0.95901,23.91887 -7.83066,29.25854c-3.33322,2.02492 -6.40363,1.78369 -10.13129,1.96955c-6.53468,0.32581 -13.02886,0.90283 -19.55746,0.4153c-17.46388,0.89603 -35.19017,2.64717 -52.62663,2.06537c-9.30466,-0.31046 -18.6321,0.0762 -27.80282,-2.03773c-4.02527,-0.94782 -7.07651,-2.35373 -10.75878,-4.13462c-2.53744,-1.2272 -5.86859,-2.1051 -7.49978,-4.73653c-0.3642,-0.58752 -0.55455,-5.60384 -0.60842,-6.71512c-0.22995,-4.74281 0.39567,-9.1673 1.01787,-13.85746c0.33048,-2.49119 0.30549,-5.12914 1.79774,-7.34061c1.79302,-2.6572 4.68286,-4.37876 7.01731,-6.57558c6.93594,-6.52706 14.0976,-12.52318 21.72483,-18.17619c5.37441,-4.76453 10.73383,-9.54003 16.90812,-13.27543c2.87731,-1.74074 5.54712,-3.00656 8.23178,-5.16611c1.91245,-1.53839 3.37873,-3.56964 5.21565,-5.19743c5.27637,-4.67569 11.01223,-8.75551 15.57853,-14.32243c3.16252,-3.85554 5.55597,-8.17068 8.48766,-12.17664c1.01777,-2.801 3.05679,-6.48747 3.64821,-9.37413c0.78307,-3.82221 -0.54475,-9.27199 -0.7317,-13.18795c-0.16538,-3.46411 -0.53697,-9.32318 -2.80048,-12.0354c-2.49811,-2.99333 -7.33448,-2.99932 -10.69249,-2.81659c-7.75497,0.42201 -15.04329,0.19719 -22.11771,3.69408c-7.84075,2.99402 -10.27961,12.44562 -18.1667,15.35083c-2.81314,1.03622 -6.75713,1.04568 -9.71651,1.19064c-10.62809,0.52061 -22.53834,-2.77283 -26.61577,-13.89351c-2.11535,-5.76933 -1.46718,-14.09903 -1.10469,-20.08033c0.95777,-6.32044 3.41011,-10.32431 6.98131,-15.47837c2.50413,-3.61404 4.34734,-7.38821 7.75932,-10.32152c5.90735,-5.0786 12.96327,-8.85439 20.07498,-11.92817c6.23625,-2.69541 12.34599,-4.72249 19.09269,-4.03394c0.76194,-1.01369 2.14046,-1.08243 2.14046,-1.08243z" fill="#e6ffff" stroke="none" stroke-width="0.5"/><path d="M322.38381,229.27738c1.02645,3.25215 3.61526,3.39781 5.50235,6.14425c6.15941,8.96428 0.95901,23.91887 -7.83066,29.25853c-3.33322,2.02492 -6.40362,1.78369 -10.13129,1.96955c-6.53468,0.32581 -13.02887,0.90283 -19.55747,0.4153c-17.46388,0.89603 -35.19017,2.64717 -52.62663,2.06537c-9.30466,-0.31046 -18.6321,0.0762 -27.80282,-2.03773c-4.02527,-0.94782 -7.07651,-2.35374 -10.75878,-4.13463c-2.53744,-1.2272 -5.86859,-2.10509 -7.49978,-4.73652c-0.3642,-0.58752 -0.55455,-5.60386 -0.60842,-6.71513c-0.22995,-4.74281 0.39567,-9.1673 1.01787,-13.85745c0.21494,-1.62023 0.27952,-3.30253 0.70893,-4.88922c9.77534,3.52939 22.62187,4.53039 29.31161,4.97246c31.64749,2.09132 70.30183,2.12057 99.81876,-12.14561c0.1435,-0.06935 0.28661,-0.13884 0.42931,-0.20844c-0.12176,1.08597 -0.52549,2.14874 0.02701,3.89926z" fill="#acbfbf" stroke="none" stroke-width="0.5"/><path d="M244.24689,60.86794l1.65924,-0.08272c3.58958,-0.17898 7.08383,-0.58241 10.65369,0.10503c3.59345,0.69198 6.37339,1.54067 10.12026,1.63684c6.21834,0.1596 12.23891,0.72103 18.335,1.9345c7.64225,1.52125 15.27471,1.78029 22.21341,5.91632c0.1939,0.11557 6.84763,5.12782 7.17892,5.37702c6.49208,4.90878 10.61017,10.34429 14.35588,17.42383c3.54071,6.69212 6.96746,13.41963 7.96132,21.09957c0.61775,4.77359 0.49393,9.76645 0.73371,14.57577c0.22986,4.61016 0.94527,9.49395 0.68953,14.10016c-0.1809,3.25834 -1.46542,6.18862 -2.50963,9.22968c-1.2019,3.23622 -2.67218,6.81056 -3.22789,10.24793c-0.55911,3.45836 -0.99581,7.10936 -2.744,10.14525c-3.85124,6.688 -10.76998,10.20637 -15.3102,16.24377c-2.43498,3.23794 -3.06477,7.2803 -4.97197,10.68106c-2.79183,4.97814 -8.07415,10.62189 -12.96381,14.70774c2.32972,0.02878 4.63645,0.22057 6.72528,0.73885c4.5626,1.13209 8.61629,2.94302 13.24577,3.87975c1.3661,0.80777 3.08614,1.20091 4.0983,2.42331c2.72542,3.29155 0.28345,4.12356 1.3403,7.47204c1.02645,3.25215 3.61526,3.39781 5.50235,6.14425c6.15941,8.96428 0.95901,23.91887 -7.83066,29.25853c-3.33322,2.02492 -6.40362,1.78369 -10.13129,1.96955c-6.53468,0.32581 -13.02887,0.90283 -19.55747,0.4153c-17.46388,0.89603 -35.19017,2.64717 -52.62663,2.06537c-9.30466,-0.31046 -18.6321,0.0762 -27.80282,-2.03773c-4.02527,-0.94782 -7.07651,-2.35374 -10.75878,-4.13463c-2.53744,-1.2272 -5.86859,-2.10509 -7.49978,-4.73652c-0.3642,-0.58752 -0.55455,-5.60386 -0.60842,-6.71513c-0.22995,-4.74281 0.39567,-9.1673 1.01787,-13.85745c0.33048,-2.49119 0.30549,-5.12914 1.79774,-7.34061c1.79302,-2.6572 4.68286,-4.37876 7.01731,-6.57558c6.93594,-6.52706 14.0976,-12.52318 21.72483,-18.17619c5.37441,-4.76453 10.73383,-9.54004 16.90812,-13.27543c2.87731,-1.74074 5.54712,-3.00656 8.23177,-5.16611c1.91245,-1.53839 3.37873,-3.56963 5.21565,-5.19743c5.27637,-4.67569 11.01224,-8.75551 15.57853,-14.32243c3.16252,-3.85554 5.55597,-8.17068 8.48766,-12.17664c1.01777,-2.801 3.0568,-6.48747 3.64821,-9.37413c0.78307,-3.82221 -0.54475,-9.27199 -0.7317,-13.18796c-0.16538,-3.46411 -0.53697,-9.32316 -2.80048,-12.03539c-2.49811,-2.99333 -7.33448,-2.99932 -10.69249,-2.81659c-7.75497,0.42201 -15.04329,0.19719 -22.11771,3.69408c-7.84075,2.99402 -10.27962,12.44561 -18.16671,15.35083c-2.81314,1.03622 -6.75713,1.04569 -9.71651,1.19064c-10.62809,0.52061 -22.53834,-2.77283 -26.61577,-13.89351c-2.11535,-5.76933 -1.46718,-14.09903 -1.10469,-20.08033c0.95777,-6.32044 3.41011,-10.32432 6.98131,-15.47837c2.50413,-3.61404 4.34734,-7.3882 7.75932,-10.32152c5.90735,-5.0786 12.96327,-8.85439 20.07498,-11.92817c6.23625,-2.69541 12.34599,-4.7225 19.09269,-4.03394c0.76194,-1.01369 2.14045,-1.08243 2.14045,-1.08243z" fill="none" stroke="#000000" stroke-width="2.5"/></g><g data-paper-data="{&quot;index&quot;:null}" fill="#000000" stroke="#000000" stroke-width="3" stroke-linecap="butt"><path d="M147.43978,163.42273c-5.33755,-7.60587 -7.95936,-16.78964 -9.06893,-25.96747c9.90861,3.21241 20.0279,6.57674 29.57518,10.7476c3.82289,1.67008 7.62982,3.37717 11.43192,5.09536c-0.01997,3.15463 -0.66822,6.33361 -2.01375,9.37175c-2.55974,5.77975 -7.19283,10.03328 -12.73799,12.34827c-2.62293,-1.16073 -5.20931,-2.41955 -7.68871,-3.85032c-1.87761,-1.36211 -3.7192,-2.82709 -5.55372,-4.37785c-1.30349,-1.10187 -2.62175,-2.22399 -3.94402,-3.36733z"/><path d="M154.16479,180.81659c-6.14965,-3.32699 -11.00118,-8.62902 -14.83257,-14.43524c7.75071,-1.16714 15.6943,-2.30281 23.52384,-2.70321c3.13507,-0.16034 6.27184,-0.29038 9.40909,-0.41135c1.04672,2.13062 1.67862,4.48876 1.79374,6.98642c0.21899,4.75155 -1.47085,9.17232 -4.42621,12.59445c-2.156,0.09999 -4.32037,0.12167 -6.47049,-0.00837c-1.72189,-0.28606 -3.4541,-0.65349 -5.21037,-1.08104c-1.24789,-0.30379 -2.51254,-0.61625 -3.78701,-0.94166z"/></g><g data-paper-data="{&quot;index&quot;:null}" fill="#000000" stroke="#000000" stroke-width="3" stroke-linecap="butt"><path d="M271.9499,166.42086c-1.83452,1.55075 -3.6761,3.01573 -5.55372,4.37784c-2.4794,1.43077 -5.06578,2.68959 -7.68871,3.85033c-5.54515,-2.31499 -10.17824,-6.56852 -12.73799,-12.34827c-1.34553,-3.03814 -1.99378,-6.21711 -2.01375,-9.37175c3.80211,-1.71819 7.60903,-3.42528 11.43192,-5.09536c9.5473,-4.17087 19.66658,-7.53518 29.57518,-10.7476c-1.10958,9.17783 -3.73139,18.36162 -9.06894,25.96747c-1.32227,1.14334 -2.64052,2.26546 -3.94402,3.36733z"/><path d="M265.38187,181.38908c-1.75627,0.42755 -3.48848,0.79498 -5.21037,1.08104c-2.15013,0.13005 -4.31449,0.10837 -6.47049,0.00837c-2.95537,-3.42214 -4.64521,-7.84291 -4.42621,-12.59445c0.11511,-2.49767 0.74702,-4.85579 1.79374,-6.98641c3.13724,0.12096 6.27401,0.25101 9.40909,0.41134c7.82954,0.40042 15.77313,1.53607 23.52383,2.70321c-3.83139,5.80622 -8.68291,11.10824 -14.83257,14.43524c-1.27447,0.3254 -2.53912,0.63786 -3.78701,0.94166z"/></g><path d="M208.58481,164.18289c0,16.20937 -12.64443,29.34965 -28.24211,29.34965c-15.59769,0 -28.24211,-13.14028 -28.24211,-29.34965c0,-16.20937 12.64443,-29.34965 28.24211,-29.34965c15.59769,0 28.24211,13.14028 28.24211,29.34965z" data-paper-data="{&quot;index&quot;:null}" fill="#000000" stroke="none" stroke-width="NaN" stroke-linecap="butt"/><path d="M243.10288,134.83324c15.59769,0 28.24211,13.14028 28.24211,29.34965c0,16.20937 -12.64443,29.34965 -28.24211,29.34965c-15.59769,0 -28.24211,-13.14028 -28.24211,-29.34965c0,-16.20937 12.64443,-29.34965 28.24211,-29.34965z" data-paper-data="{&quot;index&quot;:null}" fill="#000000" stroke="none" stroke-width="NaN" stroke-linecap="butt"/><g data-paper-data="{&quot;index&quot;:null}" stroke="#000000" stroke-width="3" stroke-linecap="round"><path d="M240.78216,196.8976c0,0 -3.90439,7.63679 -18.3491,7.67191c-13.29836,0.03233 -14.37692,-2.02457 -14.37692,-2.02457" fill="none"/><path d="M230.37187,204.03386c0,0 3.42816,-1.19517 5.683,-2.67005c1.99063,-1.30205 4.67827,-4.31408 4.67827,-4.31408l0.91044,12.81479l-11.27168,-5.83065z" fill="#ffffff"/></g><path d="M204.11362,185.5491h15.87466l-7.01438,9.9678z" data-paper-data="{&quot;index&quot;:null}" fill="#000000" stroke="#000000" stroke-width="3" stroke-linecap="butt"/><path d="M267.13129,28.61122z" data-paper-data="{&quot;index&quot;:null}" fill="#000000" stroke="#000000" stroke-width="3" stroke-linecap="butt"/><g data-paper-data="{&quot;index&quot;:null}" fill="#757575" stroke="none" stroke-width="0" stroke-linecap="butt"><path d="M167.28239,113.40957c0,9.66564 -8.00406,17.50119 -17.87756,17.50119c-9.8735,0 -17.87757,-7.83555 -17.87757,-17.50119c0,-9.66564 8.00406,-17.50119 17.87757,-17.50119c9.8735,0 17.87756,7.83555 17.87756,17.50119z"/><path d="M176.97391,90.45101c0,4.78086 -3.7914,8.65651 -8.46831,8.65651c-4.67693,0 -8.46831,-3.87565 -8.46831,-8.65651c0,-4.78086 3.7914,-8.65651 8.46831,-8.65651c4.67693,0 8.46831,3.87565 8.46831,8.65651z"/><path d="M155.14447,84.99365c0,4.78086 -3.7914,8.65651 -8.46831,8.65651c-4.67693,0 -8.46831,-3.87565 -8.46831,-8.65651c0,-4.78086 3.7914,-8.65651 8.46831,-8.65651c4.67693,0 8.46831,3.87565 8.46831,8.65651z"/><path d="M135.94961,91.39194c0,4.78086 -3.7914,8.65651 -8.46831,8.65651c-4.67693,0 -8.46831,-3.87565 -8.46831,-8.65651c0,-4.78086 3.7914,-8.65651 8.46831,-8.65651c4.67693,0 8.46831,3.87565 8.46831,8.65651z"/></g><path d="M261.00804,128.04959l-35.44108,6.36832" data-paper-data="{&quot;index&quot;:null}" fill="none" stroke="#000000" stroke-width="3" stroke-linecap="round"/><g data-paper-data="{&quot;index&quot;:null}" stroke="none" stroke-width="0" stroke-linecap="butt"><path d="M197.78636,164.32133c0,9.29745 -7.28915,16.83451 -16.28075,16.83451c-8.9916,0 -16.28075,-7.53707 -16.28075,-16.83451c0,-9.29745 7.28915,-16.83451 16.28075,-16.83451c8.9916,0 16.28075,7.53707 16.28075,16.83451z" fill="#bf6600"/><path d="M194.02074,163.76756c0,7.52359 -5.60321,13.62267 -12.51513,13.62267c-6.91192,0 -12.51513,-6.09908 -12.51513,-13.62267c0,-7.52359 5.60321,-13.62267 12.51513,-13.62267c6.91192,0 12.51513,6.09908 12.51513,13.62267z" fill="#7f4400"/><path d="M190.91965,164.32133c0,6.11673 -4.36357,11.07534 -9.7463,11.07534c-5.38274,0 -9.7463,-4.95861 -9.7463,-11.07534c0,-6.11673 4.36356,-11.07534 9.7463,-11.07534c5.38273,0 9.7463,4.95861 9.7463,11.07534z" fill="#000000"/><path d="M181.56777,156.169c0.2021,1.51577 -2.09161,3.07222 -5.12315,3.47643c-3.03154,0.40421 -5.65293,-0.4969 -5.85503,-2.01267c-0.2021,-1.51577 2.09161,-3.07222 5.12315,-3.47643c3.03154,-0.40421 5.65293,0.4969 5.85503,2.01267z" fill="#ffffff"/></g><g data-paper-data="{&quot;index&quot;:null}" stroke="none" stroke-width="0" stroke-linecap="butt"><path d="M258.22078,164.32133c0,9.29745 -7.28915,16.83451 -16.28075,16.83451c-8.9916,0 -16.28075,-7.53707 -16.28075,-16.83451c0,-9.29745 7.28913,-16.83451 16.28075,-16.83451c8.9916,0 16.28075,7.53707 16.28075,16.83451z" fill="#bf6600"/><path d="M254.4551,163.76756c0,7.52359 -5.60321,13.62267 -12.51513,13.62267c-6.91192,0 -12.51513,-6.09908 -12.51513,-13.62267c0,-7.52359 5.60321,-13.62267 12.51513,-13.62267c6.91192,0 12.51513,6.09908 12.51513,13.62267z" fill="#7f4400"/><path d="M251.35402,164.32133c0,6.11673 -4.36356,11.07534 -9.7463,11.07534c-5.38274,0 -9.7463,-4.95861 -9.7463,-11.07534c0,-6.11673 4.36356,-11.07534 9.7463,-11.07534c5.38273,0 9.7463,4.95861 9.7463,11.07534z" fill="#000000"/><path d="M242.00217,156.169c0.2021,1.51577 -2.09161,3.07222 -5.12315,3.47643c-3.03154,0.40421 -5.65293,-0.4969 -5.85503,-2.01267c-0.2021,-1.51577 2.09161,-3.07222 5.12315,-3.47643c3.03154,-0.40421 5.65293,0.4969 5.85503,2.01267z" fill="#ffffff"/></g><g data-paper-data="{&quot;index&quot;:null}"><path d="M276.72786,209.0058c29.7495,0 53.86622,28.0427 53.86622,62.63514c0,34.59244 -24.11673,62.63514 -53.86622,62.63514c-29.7495,0 -53.86622,-28.0427 -53.86622,-62.63514c0,-34.59244 24.11673,-62.63514 53.86622,-62.63514z" fill="#ffffff" stroke="#000000" stroke-width="2.5" stroke-linecap="butt"/><path d="M298.68541,214.80834c0,0 0.78209,13.02347 0.47411,19.3678c-0.28709,5.91382 -2.26367,17.49746 -2.26367,17.49746" fill="#ffffff" stroke="#000000" stroke-width="2.5" stroke-linecap="round"/><path d="M262.22144,212.35718c0,0 0.78209,13.02347 0.47412,19.3678c-0.28709,5.91383 -2.26368,17.49746 -2.26368,17.49746" fill="#ffffff" stroke="#000000" stroke-width="2.5" stroke-linecap="round"/><path d="M280.19838,243.78387c-6.58905,0 -11.93051,-5.34148 -11.93051,-11.93051c0,-6.58905 5.34148,-11.93051 11.93051,-11.93051c6.58905,0 11.93051,5.34148 11.93051,11.93051c0,6.58905 -5.34148,11.93051 -11.93051,11.93051z" fill="#a7a7a7" stroke="#4a004f" stroke-width="0" stroke-linecap="butt"/><path d="M246.95567,252.08098c-5.93015,0 -10.73746,-4.80733 -10.73746,-10.73746c0,-5.93015 4.80733,-10.73746 10.73746,-10.73746c5.93015,0 10.73746,4.80733 10.73746,10.73746c0,5.93015 -4.80733,10.73746 -10.73746,10.73746z" fill="#a7a7a7" stroke="none" stroke-width="0" stroke-linecap="butt"/><path d="M311.16349,254.35859c-4.61231,0 -8.35136,-3.73902 -8.35136,-8.35136c0,-4.61231 3.73902,-8.35136 8.35136,-8.35136c4.61231,0 8.35136,3.73902 8.35136,8.35136c0,4.61231 -3.73902,8.35136 -8.35136,8.35136z" fill="#a7a7a7" stroke="none" stroke-width="0" stroke-linecap="butt"/><path d="M223.22082,278.91313c3.35452,2.83299 6.63398,5.77455 10.26483,8.27894c21.78055,15.02316 51.24056,23.47635 77.44098,25.64477c2.00152,0.16566 4.01427,0.319 6.03463,0.45254c-9.86578,12.87696 -24.23512,20.98672 -40.2334,20.98672c-27.6341,0 -50.40802,-24.19644 -53.50706,-55.36296z" fill="#d4d4d4" stroke="#000000" stroke-width="0" stroke-linecap="butt"/><path d="M276.565,319.75947c-17.79041,0 -32.21236,-14.42196 -32.21236,-32.21236c0,-17.79041 14.42196,-32.21236 32.21236,-32.21236c17.79041,0 32.21236,14.42196 32.21236,32.21236c0,17.79041 -14.42196,32.21236 -32.21236,32.21236z" fill="#a7a7a7" stroke="none" stroke-width="0" stroke-linecap="butt"/><path d="M276.72786,209.0058c29.7495,0 53.86622,28.0427 53.86622,62.63514c0,34.59244 -24.11673,62.63514 -53.86622,62.63514c-29.7495,0 -53.86622,-28.0427 -53.86622,-62.63514c0,-34.59244 24.11673,-62.63514 53.86622,-62.63514z" fill="none" stroke="#000000" stroke-width="2.5" stroke-linecap="butt"/></g><g data-paper-data="{&quot;index&quot;:null}"><path d="M226.55833,272.06966c0,34.59244 -24.11673,62.63514 -53.86622,62.63514c-29.7495,0 -53.86622,-28.0427 -53.86622,-62.63514c0,-34.59244 24.11673,-62.63514 53.86622,-62.63514c29.7495,0 53.86622,28.0427 53.86622,62.63514z" fill="#ffffff" stroke="#000000" stroke-width="2.5" stroke-linecap="butt"/><path d="M152.52415,252.10232c0,0 -1.97658,-11.58362 -2.26367,-17.49746c-0.30798,-6.34432 0.47411,-19.3678 0.47411,-19.3678" fill="#ffffff" stroke="#000000" stroke-width="2.5" stroke-linecap="round"/><path d="M188.9881,249.65115c0,0 -1.9766,-11.58361 -2.26368,-17.49746c-0.30797,-6.34432 0.47412,-19.3678 0.47412,-19.3678" fill="#ffffff" stroke="#000000" stroke-width="2.5" stroke-linecap="round"/><path d="M157.29108,232.28208c0,-6.58903 5.34147,-11.93051 11.93051,-11.93051c6.58903,0 11.93051,5.34147 11.93051,11.93051c0,6.58903 -5.34147,11.93051 -11.93051,11.93051c-6.58903,0 -11.93051,-5.34147 -11.93051,-11.93051z" fill="#a7a7a7" stroke="#4a004f" stroke-width="0" stroke-linecap="butt"/><path d="M191.72684,241.77224c0,-5.93013 4.80731,-10.73746 10.73746,-10.73746c5.93013,0 10.73746,4.80731 10.73746,10.73746c0,5.93013 -4.80731,10.73746 -10.73746,10.73746c-5.93013,0 -10.73746,-4.80731 -10.73746,-10.73746z" fill="#a7a7a7" stroke="none" stroke-width="0" stroke-linecap="butt"/><path d="M129.90515,246.43596c0,-4.61233 3.73904,-8.35136 8.35136,-8.35136c4.61233,0 8.35136,3.73904 8.35136,8.35136c0,4.61233 -3.73904,8.35136 -8.35136,8.35136c-4.61233,0 -8.35136,-3.73904 -8.35136,-8.35136z" fill="#a7a7a7" stroke="none" stroke-width="0" stroke-linecap="butt"/><path d="M172.69212,334.7048c-15.99828,0 -30.36763,-8.10976 -40.2334,-20.98672c2.02036,-0.13355 4.03312,-0.2869 6.03463,-0.45254c26.20042,-2.16841 55.66043,-10.62161 77.44098,-25.64477c3.63084,-2.50438 6.91031,-5.44595 10.26483,-8.27894c-3.09903,31.16651 -25.87296,55.36296 -53.50706,55.36296z" fill="#d4d4d4" stroke="#000000" stroke-width="0" stroke-linecap="butt"/><path d="M140.64262,287.97583c0,-17.7904 14.42195,-32.21236 32.21236,-32.21236c17.7904,0 32.21236,14.42195 32.21236,32.21236c0,17.7904 -14.42195,32.21236 -32.21236,32.21236c-17.7904,0 -32.21236,-14.42195 -32.21236,-32.21236z" fill="#a7a7a7" stroke="none" stroke-width="0" stroke-linecap="butt"/><path d="M226.55833,272.06966c0,34.59244 -24.11673,62.63514 -53.86622,62.63514c-29.7495,0 -53.86622,-28.0427 -53.86622,-62.63514c0,-34.59244 24.11673,-62.63514 53.86622,-62.63514c29.7495,0 53.86622,28.0427 53.86622,62.63514z" fill="none" stroke="#000000" stroke-width="2.5" stroke-linecap="butt"/></g></g></g></svg>