<svg version="1.1" xmlns="http://www.w3.org/2000/svg" xmlns:xlink="http://www.w3.org/1999/xlink" width="378.37729" height="359.888" viewBox="0,0,378.37729,359.888"><g transform="translate(-50.92397,-7.96294)"><g data-paper-data="{&quot;isPaintingLayer&quot;:true}" stroke-width="1" stroke-miterlimit="10" stroke-dasharray="" stroke-dashoffset="0" style="mix-blend-mode: normal"><g data-paper-data="{&quot;index&quot;:null}" fill-rule="nonzero" stroke-linecap="butt" stroke-linejoin="miter"><g stroke="none"><path d="M266.47924,12.65334l0.25712,0.09785c1.12277,0.32915 2.03962,0.55813 2.94655,0.94081c0.76972,-0.28617 1.53429,0.14485 1.53429,0.14485c0.56531,0.31965 1.11771,0.6671 1.65725,1.04034c0.30407,0.06959 1.02393,0.30854 1.41074,1.05698c8.25191,6.66922 13.25286,19.47327 15.42026,30.40917c1.09098,5.50469 2.271,10.94119 1.66999,16.55839c0.68413,6.81764 0.1186,13.81078 0.62484,20.63568c0.1308,1.76326 0.86843,6.67676 -1.12749,7.77125c-0.2485,0.13628 -2.25903,-0.32516 -4.0057,-1.20909c0.24834,0.89481 0.53053,1.76645 0.95142,2.45569c2.59197,4.2443 5.351,6.04227 9.61759,7.26959c3.51843,2.12502 7.02188,2.03249 10.91723,2.16197c1.36235,0.04529 3.22106,-1.2986 4.08799,-0.0616c1.05973,1.51212 0.30693,3.95147 -0.01724,5.87006c-0.6157,3.64377 -5.25765,7.24959 -8.14339,7.52556c-0.6117,0.0585 1.2206,0.15786 1.82938,0.25137c1.79384,0.27554 3.54447,0.85672 5.31397,1.30039c2.33693,0.58594 3.77428,-0.26228 6.06814,-0.48591c1.35411,-0.13201 3.31518,-1.2918 4.07697,0.0318c1.02357,1.77848 -0.24262,4.2797 -0.36395,6.41954c-6.14356,11.68773 -18.27411,16.00965 -29.02095,18.9256c-2.68737,0.72917 -5.69821,1.99042 -8.43628,2.25803c-4.8096,0.4701 -10.05395,-1.72978 -14.80415,-2.4715c-5.33749,-0.36909 -11.81831,-3.18501 -16.22909,-6.78704c-0.54557,-0.44553 -2.48245,-1.70425 -3.66537,-2.99962c0.00122,0.01545 0.00239,0.03052 0.00349,0.04518c0.06598,0.8834 0.1241,1.76852 0.14366,2.65491c0.10139,4.59324 1.24792,7.09121 -4.53677,7.33349c-6.8054,0.28503 -11.66437,-9.68638 -14.89479,-15.13555c-3.44961,-4.93031 -6.65591,-11.4986 -8.66616,-17.44296c-0.03399,-0.1005 -0.06978,-0.20824 -0.10648,-0.32173c-0.08048,0.52079 -0.14438,0.88183 -0.14637,0.89713c-0.49331,3.8004 -0.46747,9.32339 -5.73692,5.92957c-1.01336,-0.65265 -2.43303,-4.91473 -2.93469,-6.38614c-1.62061,-4.75338 -3.31553,-8.75782 -4.31889,-13.8204c-1.16288,-5.86732 -3.08985,-12.1179 -3.56822,-18.10337c-0.27755,-3.47284 -0.28208,-3.63626 -0.18965,-7.06575c0.00511,-0.18963 0.11529,-1.32354 0.08813,-3.20352c-0.85707,1.10073 -2.44236,5.68579 -3.21591,5.89568c-1.07019,0.29038 -2.73496,-0.55295 -2.98419,-1.81053c-0.05358,-0.27044 -0.06489,-0.54073 -0.03895,-0.80134l0.21811,-2.74831l0.32082,0.03583l0.0943,-0.46278l0.06897,0.01954c-0.0599,-2.33778 0.39796,-4.42175 1.15216,-7.71946c0.68806,-3.00854 1.11217,-6.35639 2.26075,-9.18779c4.9951,-12.31353 13.0454,-21.38709 22.24603,-28.93035c1.10235,-0.89139 3.63506,-2.81204 4.71442,-3.27217c0.77909,-0.71391 2.62211,-2.02686 3.51399,-2.67101c2.20183,-1.06286 4.00804,-2.3904 6.28852,-3.26588c9.1129,-3.4984 17.57171,-2.85547 26.75727,0.16803c0.18705,0.06156 0.36829,0.11921 0.54438,0.17375c0.21431,0.03294 0.35291,0.08569 0.35291,0.08569z" fill="#0021ff"/><path d="M291.83865,83.53723c0.1308,1.76326 0.86844,6.67675 -1.12748,7.77125c-0.2485,0.13628 -2.25904,-0.32516 -4.00569,-1.20909c0.24834,0.89481 0.53052,1.76646 0.95141,2.45569c2.59197,4.2443 5.351,6.04228 9.61759,7.26958c3.51843,2.12502 7.02188,2.03249 10.91723,2.16198c1.36235,0.04529 3.22106,-1.2986 4.08799,-0.0616c1.05973,1.51212 0.30694,3.95147 -0.01723,5.87006c-0.6157,3.64377 -5.25767,7.24958 -8.1434,7.52555c-0.6117,0.0585 1.2206,0.15787 1.82938,0.25137c1.79384,0.27554 3.54447,0.85673 5.31396,1.3004c2.33693,0.58594 3.77429,-0.26229 6.06815,-0.48591c1.35411,-0.13201 3.31518,-1.29179 4.07695,0.03179c1.02357,1.77848 -0.24262,4.2797 -0.36395,6.41954c-6.14356,11.68773 -18.2741,16.00966 -29.02094,18.9256c-2.68737,0.72917 -5.69822,1.99042 -8.43628,2.25803c-4.8096,0.4701 -10.05394,-1.72979 -14.80415,-2.4715c-5.33749,-0.36909 -11.81831,-3.18501 -16.22909,-6.78704c-0.54557,-0.44553 -2.48246,-1.70425 -3.66538,-2.99963c0.00122,0.01545 0.00239,0.03052 0.00349,0.04518c0.06598,0.8834 0.1241,1.76852 0.14366,2.65492c0.10139,4.59324 1.24793,7.0912 -4.53677,7.33349c-6.8054,0.28503 -11.66438,-9.68638 -14.89479,-15.13555c-3.44961,-4.93031 -6.65591,-11.4986 -8.66616,-17.44295c-0.03399,-0.1005 -0.06978,-0.20824 -0.10648,-0.32173c-0.08048,0.52079 -0.14438,0.88183 -0.14637,0.89713c-0.49331,3.8004 -0.46747,9.3234 -5.73692,5.92957c-1.01336,-0.65265 -2.43303,-4.91475 -2.93469,-6.38615c-0.31062,-0.91107 -0.62397,-1.79462 -0.93465,-2.6634c1.13795,-2.20018 1.97553,-4.60554 2.89477,-6.90696c0.38097,-0.95379 0.69812,-1.96396 1.27313,-2.79644c0.16291,-0.23587 0.51677,-0.59772 0.77862,-0.9109c0.29873,0.85492 1.34553,2.29649 1.41347,2.39932c1.61775,2.44882 3.52642,4.22079 5.48639,6.33202c1.0139,0.82395 2.60727,1.6685 3.50938,2.64753c2.09753,2.27639 2.88821,4.8889 5.45322,6.75765c0.51456,0.37486 2.83744,2.19106 3.4561,1.90486c1.09137,-0.50491 1.73714,-4.88774 1.74272,-6.05035c0.00245,-0.51064 0.02544,-1.02201 0,-1.53191c-0.01907,-0.38242 -0.29885,-1.35468 0,-1.14893c1.78691,1.23034 3.13103,3.3823 4.70344,4.92542c2.03179,1.98295 4.67879,4.5152 7.09737,5.9554c0.73996,0.44064 1.79075,0.16644 2.43621,0.7556c0.36565,0.33376 0.42208,1.02224 0.85233,1.24886c1.55984,0.82159 4.00303,0.71819 5.73556,1.56703c0.61948,0.30351 4.8904,2.80129 5.66343,1.79885c1.54384,-2.00201 -0.62155,-7.99246 -0.62155,-10.50653c0,-2.94308 -0.45067,-6.07582 0.62777,-8.7518c0.2088,-0.51807 -0.12376,-1.69924 0.39622,-1.64033c1.03027,0.11674 1.69207,1.29282 2.51941,1.9666c3.09648,2.52174 6.04449,5.47721 9.33697,7.68512c2.90183,1.94594 5.50119,1.84717 5.52611,-2.5407c-1.15789,-3.12866 -1.04385,-6.38765 -1.04385,-9.74015c0,-7.1409 0.74943,-13.94262 3.3363,-20.4338c1.558,0.08753 2.9805,2.67178 3.83888,4.05584l0.31275,1.01405c0.1336,0.46948 0.53803,0.81075 1.01622,0.81075c0.37483,0 0.70435,-0.20968 0.89363,-0.52645l0.69952,-1.13411l-0.0427,-0.03075c0.53749,-0.66764 0.96153,-1.37937 1.35854,-2.117c0.02953,0.603 0.06577,1.20493 0.11033,1.80557z" fill="#5a98ff"/></g><path d="M266.65637,12.27037l0.25711,0.09786c1.12277,0.32915 2.03963,0.55813 2.94655,0.94081c0.76972,-0.28617 1.53429,0.14488 1.53429,0.14488c0.56531,0.31965 1.11772,0.66709 1.65726,1.04033c0.30407,0.06959 1.02393,0.30854 1.41073,1.05697c8.25191,6.66922 13.25286,19.47328 15.42026,30.40917c1.091,5.50469 2.271,10.94119 1.67001,16.55839c0.68413,6.81764 0.1186,13.81078 0.62484,20.63569c0.1308,1.76326 0.86843,6.67676 -1.12749,7.77125c-0.2485,0.13628 -2.25903,-0.32517 -4.0057,-1.20909c0.24834,0.89481 0.53053,1.76646 0.95142,2.45569c2.59197,4.2443 5.351,6.04228 9.61759,7.26958c3.51843,2.12502 7.02188,2.03249 10.91723,2.16198c1.36235,0.04529 3.22106,-1.2986 4.088,-0.0616c1.05973,1.51212 0.30693,3.95147 -0.01724,5.87006c-0.6157,3.64377 -5.25765,7.24959 -8.14339,7.52556c-0.6117,0.0585 1.2206,0.15786 1.82938,0.25137c1.79384,0.27554 3.54447,0.85672 5.31397,1.30039c2.33693,0.58594 3.77429,-0.26229 6.06815,-0.48591c1.35411,-0.13201 3.31518,-1.29178 4.07697,0.0318c1.02357,1.77848 -0.24262,4.27969 -0.36395,6.41954c-6.14356,11.68773 -18.27411,16.00966 -29.02095,18.9256c-2.68737,0.72917 -5.69822,1.99042 -8.43629,2.25803c-4.8096,0.4701 -10.05394,-1.72978 -14.80415,-2.4715c-5.33749,-0.36909 -11.81829,-3.18501 -16.22909,-6.78703c-0.54557,-0.44553 -2.48246,-1.70426 -3.66538,-2.99963c0.00123,0.01545 0.0024,0.03052 0.00349,0.04518c0.06598,0.8834 0.12411,1.76852 0.14368,2.65491c0.10139,4.59324 1.24792,7.0912 -4.53678,7.33349c-6.8054,0.28502 -11.66437,-9.68638 -14.89479,-15.13553c-3.44961,-4.93031 -6.65591,-11.4986 -8.66616,-17.44296c-0.03399,-0.1005 -0.06978,-0.20824 -0.10648,-0.32173c-0.08048,0.52079 -0.14438,0.88184 -0.14636,0.89713c-0.49331,3.8004 -0.46748,9.32339 -5.73692,5.92956c-1.01336,-0.65265 -2.43303,-4.91473 -2.93469,-6.38614c-1.62061,-4.75338 -3.31553,-8.75782 -4.31888,-13.8204c-1.16288,-5.86732 -3.08986,-12.11791 -3.56822,-18.10336c-0.27755,-3.47284 -0.28208,-3.63627 -0.18965,-7.06576c0.00511,-0.18963 0.11529,-1.32353 0.08813,-3.20352c-0.85707,1.10073 -2.44236,5.68579 -3.21591,5.89568c-1.07019,0.29038 -2.73496,-0.55295 -2.98419,-1.81052c-0.05358,-0.27044 -0.0649,-0.54073 -0.03895,-0.80134l0.21812,-2.74831l0.32082,0.03583l0.0943,-0.46277l0.06898,0.01954c-0.0599,-2.33778 0.39795,-4.42174 1.15215,-7.71945c0.68806,-3.00854 1.11217,-6.35639 2.26075,-9.18779c4.9951,-12.31353 13.0454,-21.38709 22.24603,-28.93035c1.10235,-0.89139 3.63506,-2.81205 4.71442,-3.27217c0.77909,-0.71391 2.62211,-2.02686 3.51399,-2.67101c2.20183,-1.06286 4.00804,-2.39039 6.28852,-3.26587c9.1129,-3.4984 17.57171,-2.85547 26.75727,0.16803c0.18705,0.06156 0.36829,0.11921 0.54438,0.17375c0.21431,0.03294 0.35291,0.08568 0.35291,0.08568z" fill="none" stroke="#000000"/></g><g data-paper-data="{&quot;index&quot;:null}" fill-rule="nonzero" stroke="#000000" stroke-linejoin="miter"><path d="M236.26962,96.6673l13.13988,11.1098l-6.50445,42.20349c0,0 -8.78795,-11.29819 -10.80564,-26.90264c-1.42843,-11.0472 4.17022,-26.41065 4.17022,-26.41065z" fill="#ff8eea" stroke-linecap="butt"/><path d="M245.42145,145.79507c-4.27681,-10.35407 -3.7475,-33.97009 -3.7475,-33.97009l18.77156,4.11945l2.41789,53.15114c0,0 -11.40087,-8.67511 -17.44195,-23.3005z" fill="#ff8eea" stroke-linecap="butt"/><path d="M264.88117,160.40815c-6.84272,-9.74281 -12.09491,-33.94603 -12.09491,-33.94603l19.91032,0.58742l15.45483,53.77735c0,0 -13.60471,-6.65676 -23.27024,-20.41872z" fill="#0021ff" stroke-linecap="butt"/><path d="M284.19436,167.60475c-10.4556,-8.84855 -23.93142,-32.90398 -23.93142,-32.90398l19.63748,-8.01328l35.70724,57.88549c0,0 -16.64449,-4.46941 -31.41329,-16.96823z" fill="#0021ff" stroke-linecap="butt"/><path d="M307.84405,170.41532c-13.19219,-8.81382 -32.81527,-33.55909 -32.81527,-33.55909l19.67562,-9.50889l50.78316,59.3734c0,0 -19.00916,-3.85568 -37.64349,-16.30542z" fill="#0021ff" stroke-linecap="butt"/><path d="M330.42065,168.23088c-16.92287,-10.25063 -44.83024,-38.57655 -44.83024,-38.57655l19.91445,-10.17639l71.12559,68.06104c0,0 -22.30579,-4.82883 -46.20979,-19.30812z" fill="#0021ff" stroke-linecap="butt"/><path d="M344.89219,156.39355c-17.509,-8.92567 -47.43042,-35.21822 -47.43042,-35.21822l18.56464,-12.03082l75.87981,62.82393c0,0 -22.28208,-2.96714 -47.01402,-15.57488z" fill="#0021ff" stroke-linecap="butt"/><g><path d="M232.80519,110.45855l3.19818,-17.69876l34.27996,32.49443l43.97904,-28.71317l43.3309,47.36365l-45.86166,-28.44661l-42.74049,27.63198z" fill="#0017ad" stroke-linecap="butt"/><path d="M269.39074,140.98577l1.01294,-16.11718" fill="#ff8eea" stroke-linecap="round"/><path d="M311.46703,114.18524l2.86494,-17.08653" fill="#ff8eea" stroke-linecap="round"/></g></g><g data-paper-data="{&quot;index&quot;:null}" stroke-linecap="butt" stroke-linejoin="miter"><path d="M262.99977,35.98196c0.27017,12.32318 -0.40835,28.33192 -3.70555,27.51458c-14.53322,-3.77954 -33.19465,-19.56679 -33.19465,-19.56679l-0.13085,-7.09666l-0.13092,-7.09638c0,0 17.99874,-16.69524 32.3517,-21.22571c3.33892,-1.04425 4.54009,15.14779 4.81028,27.47098z" fill="#0021ff" fill-rule="nonzero" stroke="#0017ad"/><path d="M175.80932,10.58879c14.52503,3.81258 33.18647,19.59983 33.18647,19.59983l0.09781,7.08846l0.13092,7.09638c0,0 -18.13891,16.69586 -32.35198,21.22564c-3.30587,1.05245 -4.58112,-14.98112 -4.81846,-27.29645c-0.23713,-12.31499 0.40021,-28.58094 3.75524,-27.71388z" fill="#0021ff" fill-rule="nonzero" stroke="#0017ad"/><path d="M206.20871,34.37197l-8.17746,-2.45098" fill="#ff96ec" fill-rule="evenodd" stroke="#d27cc3"/><path d="M198.16156,42.83214l8.16157,-2.70987" fill="#ff96ec" fill-rule="evenodd" stroke="#d27cc3"/><path d="M229.98371,33.76673l8.55764,-3.17671" fill="#ff96ec" fill-rule="evenodd" stroke="#d27cc3"/><path d="M230.0984,39.51709l8.44119,2.23369" fill="#ff96ec" fill-rule="evenodd" stroke="#d27cc3"/><path d="M211.22327,46.23555c-3.60941,0.07758 -6.53543,0.1405 -6.53543,0.1405l-0.43529,-20.24914c0,0 2.92602,-0.06289 6.53543,-0.14048l10.54144,-0.22662c3.60941,-0.07758 6.53544,-0.1405 6.53544,-0.1405l0.4353,20.24913c0,0 -2.92603,0.06291 -6.53544,0.1405z" fill="#ff96ec" fill-rule="nonzero" stroke="#d27cc3"/></g><g data-paper-data="{&quot;index&quot;:null}" fill-rule="nonzero" stroke="#000000" stroke-linejoin="miter"><path d="M212.3911,112.95023c-2.01769,15.60445 -10.80564,26.90264 -10.80564,26.90264l-6.50446,-42.20348l13.13987,-11.10979c0,0 5.59864,15.36345 4.17022,26.41065z" fill="#ff8eea" stroke-linecap="butt"/><path d="M199.06903,135.66736c-6.04109,14.62539 -17.44195,23.30049 -17.44195,23.30049l2.41789,-53.15113l18.77157,-4.11946c0,0 0.52931,23.61602 -3.7475,33.9701z" fill="#ff8eea" stroke-linecap="butt"/><path d="M179.60932,150.28046c-9.66553,13.76196 -23.27024,20.41872 -23.27024,20.41872l15.45483,-53.77734l19.91033,-0.58742c0,0 -5.25219,24.20324 -12.09491,33.94603z" fill="#0021ff" stroke-linecap="butt"/><path d="M160.29611,157.47706c-14.76881,12.49882 -31.41329,16.96822 -31.41329,16.96822l35.70724,-57.8855l19.63747,8.01328c0,0 -13.47582,24.05543 -23.93141,32.90398z" fill="#0021ff" stroke-linecap="butt"/><path d="M136.64644,160.28762c-18.63433,12.44974 -37.64349,16.30543 -37.64349,16.30543l50.78316,-59.37341l19.67561,9.50889c0,0 -19.62307,24.74527 -32.81527,33.55909z" fill="#0021ff" stroke-linecap="butt"/><path d="M114.06982,158.10315c-23.90399,14.47929 -46.20979,19.30811 -46.20979,19.30811c0,0 31.56417,-30.20417 44.50348,-42.58598c10.00773,-9.57654 26.6221,-25.47505 26.6221,-25.47505l19.91446,10.17639c0,0 -27.90737,28.3259 -44.83024,38.57654z" fill="#0021ff" stroke-linecap="butt"/><path d="M99.5983,146.26586c-24.73193,12.60774 -47.01402,15.57488 -47.01402,15.57488l75.87981,-62.82393l18.56464,12.03082c0,0 -29.92142,26.29255 -47.43042,35.21822z" fill="#0021ff" stroke-linecap="butt"/><g><path d="M175.49938,132.96236l-42.74049,-27.63198l-45.86166,28.44661l43.33091,-47.36364l43.97904,28.71317l34.27996,-32.49443l3.19817,17.69876z" fill="#0017ad" stroke-linecap="butt"/><path d="M175.09974,130.85808l-1.01294,-16.11719" fill="#ff8eea" stroke-linecap="round"/><path d="M130.15853,86.971l2.86494,17.08653" fill="#ff8eea" stroke-linecap="round"/></g></g><g data-paper-data="{&quot;index&quot;:null}" fill-rule="nonzero" stroke-linejoin="miter"><path d="M261.33889,168.63046c0,0 39.04594,26.06968 48.60386,9.27091c9.55791,-16.79877 -22.9404,-78.39815 6.34988,-110.32937c29.2903,-31.93122 90.48596,4.76242 90.48596,4.76242c0,0 -9.745,-0.74406 -15.64362,0.13445c-8.66038,1.28984 -21.66199,5.4217 -21.66199,5.4217c0,0 18.19991,-1.89212 30.18746,-1.07105c10.62535,0.72776 27.75529,5.03975 27.75529,5.03975c0,0 -11.91825,3.55715 -18.86915,6.5113c-5.43972,2.31189 -12.8803,6.98223 -12.8803,6.98223c0,0 8.178,-1.86244 11.88824,-1.36105c7.75109,1.04745 17.48001,5.32974 17.48001,5.32974c0,0 -13.62055,2.62291 -22.16904,4.80974c-4.77143,1.2206 -11.96163,3.92137 -11.96163,3.92137c0,0 6.77277,0.1351 9.92228,1.06828c5.21416,1.54494 11.5086,5.2816 11.5086,5.2816c0,0 -39.13809,-0.11132 -52.38659,18.25593c-13.24851,18.36724 13.81583,54.77538 -17.4622,78.57989c-31.27803,23.80452 -98.1086,-29.38637 -98.1086,-29.38637" fill="#0021ff" stroke="#000000" stroke-linecap="round"/><g fill="none" stroke="none" stroke-linecap="butt" font-family="sans-serif" font-weight="normal" font-size="12" text-anchor="start"><g><g/></g></g></g><g data-paper-data="{&quot;index&quot;:null}" fill-rule="nonzero" stroke="#000000" stroke-linejoin="miter"><path d="M186.73181,334.61008l35.68738,-124.03559l62.14592,-9.00483c0,0 26.75101,22.38876 7.50451,85.27314c-16.57399,46.71612 -53.36487,62.72087 -53.36487,62.72087z" fill="#ffffff" stroke-linecap="butt"/><path d="M293.01568,283.42389l-84.95138,-21.85224" fill="none" stroke-linecap="round"/><path d="M244.84262,307.52378c25.2876,7.27572 47.0412,29.26041 31.51379,53.78143c-6.73469,10.6355 -26.9026,5.23728 -49.29804,-0.96413c-21.79143,-6.03416 -45.96781,-12.55381 -42.27644,-25.38358c7.48505,-26.01515 34.77309,-34.70944 60.06069,-27.43372z" fill="#ffffff" stroke-linecap="butt"/><path d="M262.65158,343.35627c0,0 5.20921,4.53538 3.88129,11.49227c-0.50717,6.93551 -5.38954,11.75264 -5.38954,11.75264" fill="none" stroke-linecap="round"/><path d="M230.23243,337.72848c0,0 5.20921,4.53538 3.8813,11.49227c-0.50717,6.93551 -5.38955,11.75265 -5.38955,11.75265" fill="none" stroke-linecap="round"/></g><g fill-rule="nonzero" stroke="#000000" stroke-linejoin="miter"><path d="M163.22707,337.81253c0,0 -30.93118,-25.55351 -33.94192,-75.03107c-1.10852,-65.75441 30.7901,-79.87361 30.7901,-79.87361l57.23321,25.8372v129.06749z" fill="#ffffff" stroke-linecap="butt"/><path d="M129.3213,259.23425l87.68161,2.48891" fill="none" stroke-linecap="round"/><path d="M219.08624,338.68555c0,13.35025 -25.03653,12.93091 -47.64684,12.70445c-23.23702,-0.23273 -44.11126,-0.62144 -47.64266,-12.70445c-8.14194,-27.8584 18.84237,-42.97106 45.15585,-42.97106c26.31347,0 50.13366,15.90052 50.13366,42.97106z" fill="#ffffff" stroke-linecap="butt"/><path d="M136.95238,347.98149c0,0 -3.36008,-5.97931 -1.9298,-12.78466c0.64745,-7.05283 6.90761,-9.97103 6.90761,-9.97103" fill="none" stroke-linecap="round"/><path d="M169.66368,351.53706c0,0 -3.36008,-5.97932 -1.9298,-12.78467c0.64744,-7.05283 6.9076,-9.97104 6.9076,-9.97104" fill="none" stroke-linecap="round"/></g><path d="M158.92948,187.45035c0,-18.04636 25.9795,-32.67584 58.02687,-32.67584c32.04737,0 58.02688,14.62948 58.02688,32.67584c0,18.04636 -25.97951,32.67583 -58.02688,32.67583c-32.04737,0 -58.02687,-14.62948 -58.02687,-32.67583z" fill="#ffffff" fill-rule="nonzero" stroke="#000000" stroke-linecap="butt" stroke-linejoin="miter"/><path d="M265.71893,183.66681c0,14.81702 -21.85978,26.82859 -48.82521,26.82859c-26.96541,0 -48.82521,-12.01156 -48.82521,-26.82859c0,-14.81702 21.85978,-26.82858 48.82521,-26.82858c26.96541,0 48.82521,12.01156 48.82521,26.82859z" fill="#ff96ec" fill-rule="nonzero" stroke="#000000" stroke-linecap="butt" stroke-linejoin="miter"/><path d="M216.64337,203.8456l-5.88406,1.83443l2.12828,-5.04469l-5.2581,0.57326l5.3833,-8.94286l-4.75733,0.57326l7.76196,-8.25495" fill="none" fill-rule="nonzero" stroke="#000000" stroke-linecap="round" stroke-linejoin="miter"/><g data-paper-data="{&quot;index&quot;:null}" fill-rule="nonzero" stroke="#000000" stroke-linejoin="miter"><path d="M191.97208,96.02745c0,0 -4.81546,22.09959 -10.52322,40.94679c-5.18445,17.11921 -10.55369,31.4295 -24.19422,26.44375c-12.04339,-4.40196 -7.64507,-17.81897 -0.06289,-34.47215c8.55884,-18.79829 21.29575,-40.77326 21.29575,-40.77326z" fill="#ffffff" stroke-linecap="round"/><path d="M187.98433,125.68669l-27.52307,-11.93478c0,0 12.60024,-39.24813 30.39144,-31.45432c17.18215,7.5682 -2.86837,43.38912 -2.86837,43.38912z" fill="#0017ad" stroke-linecap="butt"/><path d="M151.8722,158.31843l4.26592,-9.56424" fill="none" stroke-linecap="round"/><path d="M163.98145,163.86106l3.36122,-10.39245" fill="none" stroke-linecap="round"/><path d="M182.79682,131.19872l-22.98845,-8.13" fill="none" stroke-linecap="round"/></g><path d="M239.42194,89.27578l34.50399,88.62976l-113.42571,-0.60539c0,0 4.57034,-11.34987 8.06213,-20.02127c6.4752,-16.08031 27.72429,-68.8496 27.72429,-68.8496z" fill="#0017ad" fill-rule="nonzero" stroke="#000000" stroke-linecap="round" stroke-linejoin="miter"/><g data-paper-data="{&quot;index&quot;:null}" fill-rule="nonzero" stroke="#000000" stroke-linejoin="miter"><path d="M186.84286,77.51562c-20.86662,2.87327 -40.85584,-7.58232 -40.85584,-7.58232l47.91465,-44.33401c0,0 6.89383,11.43179 12.02876,17.86613c6.55165,8.20958 15.86507,15.15698 15.86507,15.15698c0,0 -14.34185,16.05518 -34.95263,18.89322z" fill="#ffffff" stroke-linecap="butt"/><path d="M186.93009,77.57497c-11.73127,1.5966 -23.19107,-1.03034 -30.96228,-3.62889c0.48478,-0.44854 10.83526,-6.24346 21.91478,-16.49501c15.11483,-13.98531 21.24559,-23.43999 21.24559,-23.43999c0,0 4.63207,6.87479 6.80261,9.59409c6.55233,8.20894 15.85951,15.16212 15.85951,15.16212c0,0 -14.29119,16.00831 -34.86021,18.8077z" fill="#0017ad" stroke-linecap="butt"/><path d="M196.87318,74.88854c0,0 -7.97991,-5.40747 -15.08935,-14.10265c-5.24753,-6.41801 -9.20772,-14.96442 -9.20772,-14.96442" fill="none" stroke-linecap="round"/></g><g data-paper-data="{&quot;index&quot;:null}" fill-rule="nonzero" stroke="#000000" stroke-linejoin="miter"><path d="M214.45696,59.6321c0,0 8.87346,-7.50118 14.91348,-16.09417c4.73392,-6.73485 10.91944,-18.56489 10.91944,-18.56489l50.52329,41.33661c0,0 -19.31603,11.65242 -40.31883,10.05406c-20.74526,-1.57877 -36.0374,-16.7316 -36.0374,-16.7316z" fill="#ffffff" stroke-linecap="butt"/><path d="M214.47098,59.7764c0,0 8.86687,-7.50657 14.90762,-16.09896c2.00107,-2.84632 6.20627,-9.99019 6.20627,-9.99019c0,0 6.69465,9.06416 22.63238,22.10393c11.68273,9.55844 22.36662,14.71288 22.87779,15.1311c-7.5987,3.06656 -18.87746,6.38587 -30.68413,5.506c-20.70122,-1.54273 -35.93992,-16.65186 -35.93992,-16.65186z" fill="#0017ad" stroke-linecap="butt"/><path d="M262.80631,43.86023c0,0 -3.43285,8.77153 -8.28019,15.49692c-6.56723,9.11163 -14.20334,14.9946 -14.20334,14.9946" fill="none" stroke-linecap="round"/></g><path d="M217.02857,19.73084c17.75123,0 32.14144,14.5929 32.14144,32.59413c0,18.00124 -14.39021,32.59413 -32.14144,32.59413c-17.75123,0 -32.14145,-14.59289 -32.14145,-32.59413c0,-18.00124 14.39022,-32.59413 32.14145,-32.59413z" fill="#ffffff" fill-rule="nonzero" stroke="#000000" stroke-linecap="butt" stroke-linejoin="miter"/><g data-paper-data="{&quot;index&quot;:null}" fill="#ffffff" fill-rule="nonzero" stroke="#000000" stroke-linejoin="miter"><g><path d="M233.26752,30.31679l3.98687,-2.33505c0,0 3.42199,1.32402 7.43565,6.97207c3.59103,5.05331 4.3074,9.90172 4.3074,9.90172l-1.29375,3.81768l-4.49768,-2.04255c0,0 -0.9852,-4.50368 -3.42553,-8.6441c-2.749,-4.66411 -6.51298,-7.66978 -6.51298,-7.66978z" stroke-linecap="butt"/><path d="M235.74184,29.0707c0,0 4.28544,3.80252 7.04279,8.51751c2.59787,4.44228 4.48233,11.03823 4.48233,11.03823" stroke-linecap="round"/></g><g><path d="M235.97412,28.91232l3.62355,-2.77692c0,0 3.62956,0.8804 8.5258,5.92894c4.38068,4.51694 5.85394,9.18409 5.85394,9.18409l-0.6983,3.90192l-4.13986,-0.19006c0,0 -2.36617,-5.55982 -5.45336,-9.32209c-3.47768,-4.23813 -7.71178,-6.72587 -7.71178,-6.72587z" stroke-linecap="butt"/><path d="M238.04041,27.48144c0,0 4.95577,3.11721 8.54738,7.33788c3.38388,3.97656 6.4378,10.15532 6.4378,10.15532" stroke-linecap="round"/></g></g><path d="M212.30489,59.80854c0,1.5213 -1.09941,2.74312 -2.25806,2.74312c-2.953,0 -16.06922,0 -22.12844,0c-1.88545,0 -3.08758,-0.79958 -3.08758,-1.49994c0,-1.0966 0,-4.40147 0,-6.46449c0,-1.01707 0.94278,-1.7323 2.466,-1.7323c5.62738,0 19.17686,0 22.37708,0c1.32334,0 2.631,0.78957 2.631,1.48367c0,0.92936 0,3.46083 0,5.46995z" data-paper-data="{&quot;index&quot;:null}" fill="none" fill-rule="nonzero" stroke="#000000" stroke-linecap="butt" stroke-linejoin="miter"/><g fill-rule="nonzero" stroke-linecap="butt" stroke-linejoin="miter"><path d="M240.29304,32.51391c-0.69436,0.08279 -1.26675,-0.38299 -1.84031,-0.87582c0.02828,0.86521 -0.24715,1.59634 -1.10091,1.94416c-2.51492,1.02449 -3.13902,-4.25984 -5.42194,-3.02294c-4.65763,2.79849 -9.37503,5.54412 -12.98409,9.56147c-0.90287,1.00502 -1.6285,0.99871 -2.41517,2.13098c-0.98103,1.41206 -0.74678,4.73756 -0.51937,6.32028c0.15593,1.08521 1.04916,2.07238 0.91464,3.16043c-0.00797,0.06446 -0.01721,0.12865 -0.02763,0.19259h0.04325v2.06108c0,0.66401 -0.54132,1.20231 -1.20905,1.20231c-0.61578,0 -1.12403,-0.45778 -1.19941,-1.04977l-0.20677,-1.4393c-1.03513,-2.00124 -2.09392,-4.09817 -2.72082,-6.288c-0.97369,6.75794 -1.19403,14.39871 1.4045,20.72429l0.70555,0.56127c0.28162,0.22013 0.46248,0.56194 0.46248,0.94578c0,0.66401 -0.54132,1.20231 -1.20905,1.20231c-0.16843,0 -0.32881,-0.03423 -0.47449,-0.0961l-1.12603,-0.4479l0.03052,-0.07585l-0.1902,-0.00166c-0.59605,-0.46786 -1.60147,-1.0838 -2.37395,-1.75332c-0.41968,2.65144 -1.43793,4.06434 -3.34119,5.95349c-4.05127,3.36176 -7.71708,4.70137 -13.02104,4.66564c-1.01026,-0.0068 -1.99921,-0.29465 -2.9922,-0.47971c-0.50914,-0.09489 -1.12181,0.23887 -1.55335,-0.04608c-0.83039,-0.54833 -1.9401,-1.27044 -1.94153,-2.26166c-0.00113,-0.76883 1.32302,-0.80163 1.93642,-1.26964c0.55721,-0.42518 1.11938,-0.8915 1.48136,-1.48999c0.38423,-0.63528 0.73625,-1.59287 1.16712,-2.47025c-0.01156,-0.00042 -0.02313,-0.00094 -0.03476,-0.00162c-2.05249,-0.12249 -4.07299,-3.41688 -5.06187,-4.89053c-3.14878,-4.69241 -4.48688,-10.43164 -3.16184,-16.03974c0.0838,-0.35482 0.18393,-0.70283 0.29764,-1.04516c-0.57868,0.30864 -1.19309,0.38729 -1.82685,0.04377c-0.79084,-0.42867 -0.45602,-1.73775 -0.57342,-2.62579c-0.23697,-1.79237 0.26955,-3.88656 0.73571,-5.59151c1.70219,-6.22577 4.97358,-10.38749 9.83986,-14.34597c1.09749,-0.89276 2.08685,-1.77919 3.235,-2.47573c-1.72911,0.24706 -4.07174,0.47344 -5.23037,0.00596c-0.0711,-0.02869 -0.14037,-0.06053 -0.20799,-0.09512l-0.0124,0.03083l-1.12533,-0.44761c-0.45919,-0.17049 -0.78616,-0.61061 -0.78616,-1.12669c0,-0.54084 0.35912,-0.99828 0.85317,-1.14937l1.27031,-0.42107c5.21938,-2.95669 12.25538,-4.21777 18.2002,-4.21201c0.8663,0.00084 1.93031,-0.06888 2.93269,0.02473c-0.47351,-0.46049 -0.94683,-0.92284 -1.44506,-1.36978c-0.83906,-0.75268 -2.03987,-1.11782 -2.71478,-2.01909c-0.02408,-0.03214 -0.04753,-0.06468 -0.07039,-0.09754l-0.01801,0.0179l-0.77994,-0.77557c-0.26181,-0.166 -0.49537,-0.46217 -0.49537,-0.99059c0,-0.71585 0.42862,-1.00547 0.77545,-1.12266c0.1346,-0.05144 0.28078,-0.07965 0.4336,-0.07965c0.0055,0 0.01101,0.00003 0.0165,0.00009c2.87564,0.0213 5.12987,1.18008 7.76886,2.13433c5.38995,1.94903 10.46737,4.05912 14.70174,7.86732c0.1286,0.06837 0.25818,0.13506 0.38893,0.19984c1.694,0.83924 3.32565,1.70699 4.7383,2.79662l0.93089,0.37026c1.76561,0.72113 3.77515,1.90577 5.19355,3.19757c0.06248,0.0569 0.12871,0.11212 0.19671,0.16671c0.46437,0.1373 0.7246,0.56861 0.7246,0.56861c0.23111,0.38304 0.46197,0.76625 0.69256,1.1496c0.94537,1.05725 1.91884,2.4014 1.70926,3.40865c-0.1401,0.67335 -0.80891,1.19614 -2.36823,1.38205z" fill="#0021ff" stroke="none"/><path d="M212.50209,67.45374l0.69484,0.55275c0.27736,0.21679 0.45547,0.55343 0.45547,0.93143c0,0.65394 -0.5331,1.18407 -1.19073,1.18407c-0.16588,0 -0.32382,-0.03372 -0.4673,-0.09465l-1.10894,-0.4411l0.03004,-0.07469l-0.18732,-0.00164c-0.587,-0.46076 -1.57718,-1.06737 -2.33795,-1.72674c-0.41332,2.61126 -1.41613,4.00271 -3.29054,5.86323c-3.98986,3.31081 -7.60009,4.63009 -12.82362,4.59492c-0.99495,-0.00669 -1.96893,-0.29018 -2.94684,-0.47244c-0.50143,-0.09345 -1.1048,0.23525 -1.52979,-0.04538c-0.8178,-0.54001 -1.91069,-1.25117 -1.91212,-2.22737c-0.00111,-0.75717 1.30298,-0.78947 1.90706,-1.25038c0.54876,-0.41872 1.10241,-0.87797 1.45892,-1.46741c0.37842,-0.62565 0.7251,-1.56871 1.14941,-2.43279c-0.01138,-0.00041 -0.0228,-0.00093 -0.03422,-0.0016c-2.02138,-0.12064 -4.01123,-3.36509 -4.98514,-4.81639c-3.10104,-4.6213 -4.41885,-10.27349 -3.11391,-15.79657c0.08255,-0.34945 0.18115,-0.69217 0.29314,-1.02932c-0.5699,0.30398 -1.175,0.38143 -1.79915,0.04311c-0.77885,-0.42217 -0.44911,-1.71142 -0.56472,-2.58599c-0.20445,-1.54635 0.15302,-3.32082 0.55346,-4.86586c1.20414,2.76579 2.93441,5.92201 5.99449,6.68705c2.45099,0.61275 5.30693,-1.52886 7.23556,-2.38213c1.08212,-0.47875 2.23316,-1.70533 3.32387,-1.24645c1.73976,0.73195 0.91492,5.89106 3.36643,6.64259c4.06745,1.2469 4.66454,-2.33423 8.6264,-3.29444c0.03946,-0.00956 0.94252,0.36936 1.64309,0.65192c-0.79845,6.32014 -0.83268,13.27743 1.56017,19.10233z" fill="#5a98ff" stroke="none"/><path d="M240.09339,32.52815c-0.69436,0.08279 -1.26675,-0.38299 -1.84033,-0.87581c0.02828,0.86521 -0.24715,1.59634 -1.10091,1.94417c-2.51492,1.02449 -3.13903,-4.25984 -5.42194,-3.02294c-4.65763,2.79849 -9.37502,5.54412 -12.98408,9.56147c-0.90287,1.00502 -1.62851,0.99871 -2.41518,2.13098c-0.98103,1.41206 -0.74678,4.73756 -0.51936,6.32028c0.15593,1.08521 1.04916,2.07239 0.91464,3.16043c-0.00797,0.06446 -0.0172,0.12865 -0.02763,0.19259h0.04325v2.06108c0,0.66401 -0.54132,1.20231 -1.20905,1.20231c-0.61578,0 -1.12404,-0.45779 -1.19942,-1.04977l-0.20677,-1.43929c-1.03513,-2.00124 -2.09392,-4.09817 -2.72082,-6.28801c-0.97369,6.75794 -1.19403,14.39872 1.4045,20.72429l0.70554,0.56127c0.28162,0.22013 0.46247,0.56194 0.46247,0.94578c0,0.66401 -0.54131,1.2023 -1.20905,1.2023c-0.16843,0 -0.32882,-0.03424 -0.47449,-0.09611l-1.87531,-1.11392l0.77979,0.59018l-0.19021,-0.00166c-0.59605,-0.46786 -1.60146,-1.0838 -2.37395,-1.75332c-0.41968,2.65144 -1.43793,4.06434 -3.34118,5.9535c-4.05127,3.36176 -7.71708,4.70136 -13.02103,4.66564c-1.01026,-0.0068 -1.99922,-0.29465 -2.9922,-0.47971c-0.50914,-0.09489 -1.12182,0.23887 -1.55335,-0.04608c-0.83039,-0.54833 -1.94011,-1.27044 -1.94154,-2.26166c-0.00113,-0.76883 1.32302,-0.80161 1.93642,-1.26964c0.55721,-0.42518 1.11938,-0.8915 1.48137,-1.48999c0.38423,-0.63528 0.73626,-1.59286 1.16713,-2.47025c-0.01156,-0.00042 -0.02313,-0.00095 -0.03476,-0.00165c-2.05249,-0.12249 -4.07299,-3.41688 -5.06187,-4.89053c-3.14878,-4.69241 -4.48688,-10.43164 -3.16184,-16.03973c0.0838,-0.35482 0.18393,-0.70284 0.29764,-1.04516c-0.57868,0.30864 -1.1931,0.38728 -1.82684,0.04377c-0.79084,-0.42867 -0.45602,-1.73775 -0.57342,-2.62579c-0.23697,-1.79237 0.26955,-3.88655 0.73571,-5.5915c1.70219,-6.22577 4.97358,-10.3875 9.83987,-14.34599c1.09749,-0.89276 2.08685,-1.77919 3.235,-2.47573c-1.72911,0.24706 -4.07174,0.47344 -5.23037,0.00596c-0.0711,-0.02869 -0.14037,-0.06053 -0.208,-0.09512l-0.0124,0.03082l-1.12533,-0.44762c-0.45919,-0.17049 -0.78616,-0.61061 -0.78616,-1.12669c0,-0.54084 0.35913,-0.99828 0.85316,-1.14938l1.27031,-0.42107c5.21938,-2.95669 12.25539,-4.21777 18.20021,-4.21201c0.8663,0.00084 1.93031,-0.06888 2.93269,0.02474c-0.47351,-0.46049 -0.94683,-0.92284 -1.44506,-1.36978c-0.83906,-0.75268 -2.03987,-1.11782 -2.71478,-2.01909c-0.02408,-0.03214 -0.04753,-0.06468 -0.07039,-0.09753l-0.018,0.0179l-0.77994,-0.77558c-0.26181,-0.166 -0.49536,-0.46217 -0.49536,-0.99059c0,-0.71585 0.42863,-1.00547 0.77545,-1.12266c0.1346,-0.05144 0.28077,-0.07964 0.43359,-0.07964c0.0055,0 0.011,0.00003 0.01649,0.00009c2.87564,0.0213 5.12987,1.18007 7.76886,2.13433c5.38995,1.94903 10.46737,4.05911 14.70174,7.86732c0.1286,0.06837 0.25818,0.13507 0.38893,0.19985c1.69398,0.83924 3.32564,1.70699 4.7383,2.79662l0.93089,0.37027c1.76561,0.72113 3.77516,1.90576 5.19355,3.19756c0.06248,0.0569 0.12871,0.11213 0.19671,0.16671c0.46437,0.1373 0.72459,0.56861 0.72459,0.56861c0.23111,0.38304 0.46196,0.76625 0.69256,1.1496c0.94537,1.05725 1.91884,2.4014 1.70925,3.40865c-0.1401,0.67335 -0.8089,1.19615 -2.36823,1.38205z" fill="none" stroke="#000000"/></g><path d="M240.53913,48.24439c0,9.16213 -5.0784,16.58949 -11.34293,16.58949c-6.26453,0 -11.34293,-7.42736 -11.34293,-16.58949c0,-9.16213 5.0784,-16.58949 11.34293,-16.58949c6.26453,0 11.34293,7.42737 11.34293,16.5895z" fill="#ffffff" fill-rule="nonzero" stroke="#000000" stroke-linecap="butt" stroke-linejoin="miter"/><g fill-rule="nonzero" stroke-linecap="butt" stroke-linejoin="miter"><path d="M234.87475,48.01031c0,6.35135 -3.52044,11.50014 -7.86313,11.50014c-4.34267,0 -7.86312,-5.14879 -7.86312,-11.50013c0,-6.35135 3.52044,-11.50013 7.86312,-11.50013c4.34268,0 7.86313,5.1488 7.86313,11.50014z" fill="#003fa5" stroke="#000000"/><path d="M232.94493,47.77791c0,4.96794 -2.55079,8.99526 -5.69734,8.99526c-3.14655,0 -5.69732,-4.0273 -5.69732,-8.99525c0,-4.96794 2.55078,-8.99525 5.69732,-8.99525c3.14655,0 5.69734,4.0273 5.69734,8.99526z" fill="#000000" stroke="#000000"/><path d="M233.08429,40.71087c0,1.63538 -1.00389,2.96111 -2.24226,2.96111c-1.23836,0 -2.24227,-1.32573 -2.24227,-2.96111c0,-1.63538 1.0039,-2.96111 2.24227,-2.96111c1.23836,0 2.24226,1.32574 2.24226,2.96111z" fill="#ffffff" stroke="none"/><path d="M227.42598,48.54944c0,0.615 -0.37752,1.11356 -0.84322,1.11356c-0.46571,0 -0.84323,-0.49856 -0.84323,-1.11356c0,-0.615 0.37752,-1.11356 0.84323,-1.11356c0.46571,0 0.84322,0.49856 0.84322,1.11356z" fill="#ffffff" stroke="none"/></g><path d="M244.00571,57.57084h4.84837" fill="none" fill-rule="nonzero" stroke="#000000" stroke-linecap="round" stroke-linejoin="miter"/><path d="M226.47707,109.71412c6.00998,0 10.88762,5.20649 10.88762,11.62162c0,12.63414 -12.79186,16.55178 -20.73755,29.37462c-0.28909,-0.44382 -0.58283,-0.87641 -0.88056,-1.29857c1.57237,-2.68743 2.65013,-4.88875 4.08932,-7.95984c1.50919,-3.22045 4.62709,-7.39882 2.67463,-11.20972c-0.32614,-0.63658 -2.17325,-1.69044 -2.66801,-1.84879c-0.48798,-0.15617 -1.68669,-0.10339 -1.43535,-0.54986c1.72549,-3.06511 4.84383,-5.47758 5.49053,-8.86033c0.42207,-2.20773 -0.90606,-3.21728 -2.32276,-4.40475c-0.4786,-0.40117 -1.87872,-0.3294 -1.63968,-0.90634c0.35818,-0.86449 0.90898,-1.7335 1.47135,-2.61646c1.51326,-0.85622 3.23821,-1.34157 5.07046,-1.34157z" fill="#003fa5" fill-rule="nonzero" stroke="#0062ff" stroke-linecap="butt" stroke-linejoin="miter"/><path d="M195.88967,121.33574c0,-6.41514 4.87764,-11.62162 10.88762,-11.62162c1.78122,0 3.46103,0.45869 4.94352,1.27089c-1.11491,1.90329 -1.80002,3.58025 -1.08339,6.44676c0.18633,0.74528 2.84226,2.49798 2.79681,2.66163c-0.87581,3.15257 -5.78536,6.49813 -4.78628,10.49447c0.47735,1.90942 0.50614,2.12196 2.27322,3.3588c1.43085,1.0015 2.66735,0.84339 2.61677,1.13226c-0.40133,2.29211 -1.87089,4.26619 -2.96346,6.32074c-0.21332,0.40115 -0.42863,0.8013 -0.64597,1.20036c-7.04384,-7.06844 -14.03886,-11.43574 -14.03886,-21.26429z" fill="#003fa5" fill-rule="nonzero" stroke="#0062ff" stroke-linecap="butt" stroke-linejoin="miter"/><path d="M215.4439,57.57084h-3.13901" fill="none" fill-rule="nonzero" stroke="#000000" stroke-linecap="round" stroke-linejoin="miter"/><path d="M216.13838,59.80854c0,-2.00912 0,-4.54058 0,-5.46995c0,-0.6941 1.30766,-1.48367 2.631,-1.48367c3.20022,0 16.7497,0 22.37708,0c1.52321,0 2.466,0.71523 2.466,1.7323c0,2.06302 0,5.36789 0,6.46449c0,0.70036 -1.20214,1.49994 -3.08759,1.49994c-6.05922,0 -19.17544,0 -22.12844,0c-1.15865,0 -2.25805,-1.22181 -2.25805,-2.74312z" fill="none" fill-rule="nonzero" stroke="#000000" stroke-linecap="butt" stroke-linejoin="miter"/><g fill-rule="nonzero" stroke-linecap="butt" stroke-linejoin="miter"><g fill="#0021ff" stroke="#000000"><g data-paper-data="{&quot;index&quot;:null}"><path d="M199.07948,92.44854c0,0 -2.47523,-0.65436 -2.47523,-3.30501c0,-2.07688 2.47523,-3.44272 2.47523,-3.44272c0,0 -2.47523,-1.10168 -2.47523,-3.30501c0,-2.75417 2.47523,-3.30501 2.47523,-3.30501c0,0 8.03325,-1.07943 17.83352,-1.01774c14.2862,0.08992 19.29506,0.89052 19.29506,0.89052c0,0 2.47524,1.20691 2.47524,3.56992c0,1.90403 -2.47524,3.1673 -2.47524,3.1673c0,0 2.55719,1.5935 2.47524,3.71813c-0.1056,2.73834 -2.47524,3.0296 -2.47524,3.0296c0,0 -9.46429,1.05898 -20.55115,0.89052c-9.58991,-0.14571 -16.57743,-0.89052 -16.57743,-0.89052z" data-paper-data="{&quot;index&quot;:null}"/><path d="M247.13909,137.14615l-5.48211,7.62106c0,0 -8.35739,-13.54214 -10.55973,-27.38713c-1.20749,-7.59095 -3.58068,-24.09984 -3.58068,-24.09984c0,0 3.4437,-0.37302 5.00287,-0.56529c1.624,-0.20027 4.55455,-0.61326 4.55455,-0.61326c0,0 1.43283,8.14151 6.70117,20.47903c6.41514,15.02314 17.3967,26.24606 17.3967,26.24606z" data-paper-data="{&quot;index&quot;:null}"/></g></g><g fill="none" stroke="none" font-family="sans-serif" font-weight="normal" font-size="12" text-anchor="start"/><g fill="none" stroke="none" font-family="sans-serif" font-weight="normal" font-size="12" text-anchor="start"/></g><g fill-rule="nonzero" stroke="#000000" stroke-linecap="butt"><path d="M340.69647,66.87079c0,0 -2.8661,-3.74116 0.22985,-12.4915c3.01383,-8.51824 8.04174,-10.6563 8.04174,-10.6563c0,0 4.17676,2.16997 7.73203,5.27472c4.3133,3.76671 7.59779,7.95735 7.59779,7.95735l-3.55841,9.94705c0,0 -6.61431,1.69653 -10.68632,1.58074c-4.9073,-0.13953 -9.35667,-1.61206 -9.35667,-1.61206z" fill="#003fa5" stroke-linejoin="miter"/><path d="M376.68527,76.66907c-3.23843,-2.48517 -7.32007,-7.98718 -7.32007,-7.98718l3.45391,-9.98422c0,0 5.17439,-1.18109 10.8836,-1.38192c4.70584,-0.16555 9.31033,0.78872 9.31033,0.78872c0,0 2.5721,4.84206 -0.4117,13.37098c-3.0651,8.7613 -7.6331,9.85753 -7.6331,9.85753c0,0 -4.38029,-1.66894 -8.28298,-4.6639z" data-paper-data="{&quot;index&quot;:null}" fill="#003fa5" stroke-linejoin="miter"/><path d="M369.14749,55.95434c1.56193,-1.6023 3.94564,-2.25411 6.17029,-1.46261c3.06695,1.09119 4.66732,4.50284 3.57227,7.61531c-2.15661,6.12976 -9.35315,5.70799 -15.59674,10.48667c-2.08641,-7.78572 -7.7961,-11.68509 -5.56839,-18.01695c1.09505,-3.11246 4.47289,-4.75291 7.53985,-3.66173c2.22465,0.79151 3.67038,2.80578 3.88271,5.03934z" fill="#0062ff" stroke-linejoin="round"/></g><g><g fill-rule="nonzero" stroke-linecap="butt" stroke-linejoin="miter"><path d="M235.12414,16.61856c2.90195,4.08748 3.47143,9.74041 0.6284,11.7197c-2.84304,1.97928 -8.02199,-0.46462 -10.92395,-4.5521c-2.90195,-4.08747 -2.94971,-9.00554 -0.10667,-10.98482c2.84303,-1.97928 7.50027,-0.27024 10.40223,3.81724z" fill="#00ff12" stroke="#000000"/><path d="M218.35422,25.94223c-0.20835,-3.45789 3.68121,-6.46805 8.68755,-6.72341c5.00636,-0.25534 10.13377,2.29491 10.34211,5.75279c0.20836,3.4579 -4.58124,6.51397 -9.5876,6.76933c-5.00636,0.25534 -9.23371,-2.34082 -9.44207,-5.7987z" data-paper-data="{&quot;index&quot;:null}" fill="#0062ff" stroke="#000000"/><path d="M234.82946,17.02125c2.6924,3.7923 3.22075,9.03701 0.58302,10.87336c-2.63773,1.83635 -7.44269,-0.43107 -10.13509,-4.22338c-2.6924,-3.79231 -2.73671,-8.35523 -0.09897,-10.19156c2.63772,-1.83635 6.95865,-0.25072 9.65103,3.54159z" fill="#0062ff" stroke="none"/></g><g data-paper-data="{&quot;index&quot;:null}" fill-rule="nonzero" stroke-linecap="butt" stroke-linejoin="miter"><path d="M254.04672,27.10992c0.20836,3.4579 -3.6812,6.46807 -8.68755,6.72341c-5.00636,0.25534 -10.13376,-2.2949 -10.34211,-5.7528c-0.20836,-3.45789 4.58124,-6.51398 9.5876,-6.76933c5.00636,-0.25534 9.23372,2.34081 9.44207,5.79871z" fill="#00ff12" stroke="#000000"/><path d="M237.27681,36.43362c-2.90195,-4.08748 -3.47143,-9.74041 -0.6284,-11.71969c2.84304,-1.97928 8.02198,0.46463 10.92394,4.5521c2.90195,4.08748 2.94971,9.00555 0.10668,10.98483c-2.84304,1.97928 -7.50028,0.27023 -10.40223,-3.81723z" data-paper-data="{&quot;index&quot;:null}" fill="#0062ff" stroke="#000000"/><path d="M253.23142,27.17199c0.19332,3.20819 -3.41537,6.00097 -8.06019,6.23789c-4.64482,0.23691 -9.40197,-2.12918 -9.59527,-5.33737c-0.1933,-3.20818 4.25042,-6.04358 8.89524,-6.28048c4.64482,-0.23691 8.5669,2.17179 8.76022,5.37996z" fill="#0062ff" stroke="none"/></g><path d="M239.73508,19.76477l-0.20952,5.28677l4.18433,3.09171l-5.02458,1.52237l-1.69219,5.0337l-2.8994,-4.34354l-5.22231,0.01747l3.23307,-4.21294l-1.5402,-5.01914l4.90042,1.74734z" fill="#5a98ff" fill-rule="evenodd" stroke="#000000" stroke-linecap="round" stroke-linejoin="round"/></g><g data-paper-data="{&quot;index&quot;:null}" fill="#000000" fill-rule="nonzero" stroke="#000000" stroke-linecap="round" stroke-linejoin="miter"><path d="M239.61454,43.6161c0,0 3.11744,0.49405 4.66895,0.51738c1.66553,0.02505 4.89204,-1.22278 4.89204,-1.22278c0,0 -1.94414,2.92345 -4.39029,4.14294c-2.47361,1.23319 -5.19266,0.34043 -5.19266,0.34043z"/><path d="M239.66351,47.49743c0,0 1.85462,0.89729 2.81966,1.20482c1.03594,0.33012 3.2876,0.15962 3.2876,0.15962c0,0 -1.76674,1.45961 -3.52544,1.75975c-1.77844,0.30351 -3.30885,-0.7677 -3.30885,-0.7677z"/></g><path d="M337.32755,237.98367l-242.35249,-4.68859l59.23824,-45.48131c0,0 -0.05434,-5.11779 0.67446,-8.21192c0.83438,-3.54236 4.058,-11.88006 4.058,-11.88006l117.49217,0.60212c0,0 3.83809,5.20297 4.45205,8.03195c0.75959,3.50012 -0.23766,11.38721 -0.23766,11.38721z" fill="#0021ff" fill-rule="nonzero" stroke="#000000" stroke-linecap="butt" stroke-linejoin="miter"/><g fill="none" fill-rule="nonzero" stroke="#000000" stroke-linecap="round" stroke-linejoin="miter"><path d="M152.60618,187.80522l126.67388,-0.32732"/><path d="M169.31377,189.51598l-22.59806,33.39007"/><path d="M191.52891,189.73578l-6.02255,30.68395"/><path d="M227.8961,222.24667l-10.05768,-34.62391"/><path d="M274.41978,223.06576l-32.93981,-33.93961"/></g><path d="M214.62249,73.69339c0,0 1.93083,-4.66559 3.01563,-4.75433c1.53376,-0.12547 2.46479,4.31094 3.28299,4.29155c1.10291,-0.02613 2.25593,-3.98117 4.512,-4.82015c1.44283,-0.53656 3.00254,3.80906 4.45679,3.89615c0.95036,0.05692 2.79011,-4.39977 3.96424,-4.97855c1.58472,-0.78119 4.42804,5.58706 4.42804,5.58706" fill="none" fill-rule="nonzero" stroke="#000000" stroke-linecap="round" stroke-linejoin="miter"/><path d="M229.47227,31.50864c5.87846,0 10.71247,6.5401 11.28597,14.91664c-7.26743,-4.37929 -13.11886,-7.91662 -14.26182,-8.62199c-1.0246,-0.63233 -2.49078,-1.5673 -4.13145,-2.63498c1.94466,-2.28942 4.41657,-3.65966 7.1073,-3.65966z" fill="#ffffff" fill-rule="nonzero" stroke="#000000" stroke-linecap="butt" stroke-linejoin="miter"/><path d="M221.11842,64.20036c0.20261,-1.21563 1.17771,-1.34976 1.62933,-1.34492c0.12425,-0.23435 0.33412,-0.46179 0.67136,-0.65451c1.40319,-0.80183 2.20502,0.60137 2.20502,0.60137c-0.03555,0.2512 -0.34787,0.83218 -0.10664,0.75361c0.51395,-0.16739 0.66336,-0.96924 1.18648,-1.1053c0.71493,-0.18594 1.26777,-0.13891 1.76443,-0.05301c0.09962,-0.05286 0.19687,-0.10829 0.28997,-0.16824c0.72081,-0.46419 1.31288,-1.24204 2.15469,-1.40458c0.09769,-0.01886 0.19563,-0.03404 0.29378,-0.04595l-0.01005,-0.04525l1.90532,-0.4234c0.12327,-0.03009 0.25208,-0.04604 0.38461,-0.04604c0.89256,0 1.61613,0.72356 1.61613,1.61612c0,0.4049 -0.14891,0.77503 -0.39494,1.0586l-1.28704,1.50154l-0.07766,-0.06657l-0.11984,0.26056c-0.70771,0.39272 -1.34426,0.95803 -2.12312,1.17816c-0.6103,0.1725 -1.24916,0.06136 -1.89097,-0.06047c-0.30487,0.83781 -0.14141,2.75621 -0.13996,3.02363c0.00899,1.65202 0.17713,3.31359 0,4.9561c-0.21718,2.01384 -0.45185,6.95434 -4.52085,2.32207c-0.68194,-0.77632 -0.12688,-2.07892 0.03333,-3.09973c0.38973,-2.48336 1.8633,-5.56337 -1.29909,-6.82712l-0.83584,-0.06685c0,0 -1.59413,-0.2657 -1.32844,-1.85983z" fill="#00c5ff" fill-rule="nonzero" stroke="none" stroke-linecap="butt" stroke-linejoin="miter"/><g data-paper-data="{&quot;index&quot;:null}" fill-rule="nonzero" stroke="#000000" stroke-linejoin="miter"><path d="M236.11726,96.47978c0,0 -20.28513,15.28536 -37.91866,26.04119c-15.62135,9.52845 -28.41258,15.50724 -34.2299,4.08012c-6.58881,-12.94254 6.97255,-19.99255 23.34469,-27.19666c18.02471,-7.93128 39.38546,-15.36757 39.38546,-15.36757z" fill="#ffffff" stroke-linecap="round"/><path d="M197.73375,91.55988c0,0 33.15183,-24.20985 42.72998,-8.06169c9.87531,16.72568 -27.57421,33.95109 -27.57421,33.95109l-15.15576,-25.8894z" fill="#0017ad" stroke-linecap="butt"/><path d="M178.66041,125.94732l-8.98229,5.38435" fill="none" stroke-linecap="round"/><path d="M162.72048,119.97625l9.91323,-4.58573" fill="none" stroke-linecap="round"/><path d="M192.88507,97.37219l10.83363,21.84487" fill="none" stroke-linecap="round"/></g></g></g></svg>