<svg version="1.1" xmlns="http://www.w3.org/2000/svg" xmlns:xlink="http://www.w3.org/1999/xlink" width="335.11548" height="378.64011" viewBox="0,0,335.11548,378.64011"><defs><linearGradient x1="343.74914" y1="160.7007" x2="325.65007" y2="326.14339" gradientUnits="userSpaceOnUse" id="color-1"><stop offset="0" stop-color="#a8007b"/><stop offset="1" stop-color="#000000"/></linearGradient><linearGradient x1="391.87638" y1="289.50862" x2="394.01647" y2="319.19346" gradientUnits="userSpaceOnUse" id="color-2"><stop offset="0" stop-color="#60003f"/><stop offset="1" stop-color="#050003"/></linearGradient><linearGradient x1="391.87638" y1="289.50862" x2="394.01647" y2="319.19346" gradientUnits="userSpaceOnUse" id="color-3"><stop offset="0" stop-color="#93005f"/><stop offset="1" stop-color="#47002e"/></linearGradient><linearGradient x1="381.87638" y1="296.09952" x2="384.01647" y2="325.78439" gradientUnits="userSpaceOnUse" id="color-4"><stop offset="0" stop-color="#60003f"/><stop offset="1" stop-color="#050003"/></linearGradient><linearGradient x1="381.87638" y1="296.09952" x2="384.01647" y2="325.78439" gradientUnits="userSpaceOnUse" id="color-5"><stop offset="0" stop-color="#93005f"/><stop offset="1" stop-color="#47002e"/></linearGradient><linearGradient x1="370.9673" y1="303.14498" x2="373.10738" y2="332.82985" gradientUnits="userSpaceOnUse" id="color-6"><stop offset="0" stop-color="#60003f"/><stop offset="1" stop-color="#050003"/></linearGradient><linearGradient x1="370.9673" y1="303.14498" x2="373.10738" y2="332.82985" gradientUnits="userSpaceOnUse" id="color-7"><stop offset="0" stop-color="#93005f"/><stop offset="1" stop-color="#47002e"/></linearGradient><linearGradient x1="263.83031" y1="160.7007" x2="281.92939" y2="326.14339" gradientUnits="userSpaceOnUse" id="color-8"><stop offset="0" stop-color="#a8007b"/><stop offset="1" stop-color="#000000"/></linearGradient><linearGradient x1="215.70309" y1="289.50862" x2="213.56301" y2="319.19346" gradientUnits="userSpaceOnUse" id="color-9"><stop offset="0" stop-color="#60003f"/><stop offset="1" stop-color="#050003"/></linearGradient><linearGradient x1="215.70309" y1="289.50862" x2="213.56301" y2="319.19346" gradientUnits="userSpaceOnUse" id="color-10"><stop offset="0" stop-color="#93005f"/><stop offset="1" stop-color="#47002e"/></linearGradient><linearGradient x1="225.70309" y1="296.09952" x2="223.56301" y2="325.78439" gradientUnits="userSpaceOnUse" id="color-11"><stop offset="0" stop-color="#60003f"/><stop offset="1" stop-color="#050003"/></linearGradient><linearGradient x1="225.70309" y1="296.09952" x2="223.56301" y2="325.78439" gradientUnits="userSpaceOnUse" id="color-12"><stop offset="0" stop-color="#93005f"/><stop offset="1" stop-color="#47002e"/></linearGradient><linearGradient x1="236.61216" y1="303.14498" x2="234.4721" y2="332.82985" gradientUnits="userSpaceOnUse" id="color-13"><stop offset="0" stop-color="#60003f"/><stop offset="1" stop-color="#050003"/></linearGradient><linearGradient x1="236.61216" y1="303.14498" x2="234.4721" y2="332.82985" gradientUnits="userSpaceOnUse" id="color-14"><stop offset="0" stop-color="#93005f"/><stop offset="1" stop-color="#47002e"/></linearGradient><linearGradient x1="320.743" y1="6.16965" x2="322.6342" y2="23.68293" gradientUnits="userSpaceOnUse" id="color-15"><stop offset="0" stop-color="#240019"/><stop offset="1" stop-color="#5c0042"/></linearGradient><linearGradient x1="284.92537" y1="21.14876" x2="290.76486" y2="35.7485" gradientUnits="userSpaceOnUse" id="color-16"><stop offset="0" stop-color="#000000"/><stop offset="1" stop-color="#2b0020"/></linearGradient><linearGradient x1="301.97393" y1="52.11625" x2="301.97393" y2="102.79836" gradientUnits="userSpaceOnUse" id="color-17"><stop offset="0" stop-color="#b40084"/><stop offset="1" stop-color="#000000"/></linearGradient><linearGradient x1="310.53633" y1="77.95409" x2="310.53633" y2="184.38943" gradientUnits="userSpaceOnUse" id="color-18"><stop offset="0" stop-color="#0b0008"/><stop offset="1" stop-color="#780058"/></linearGradient><linearGradient x1="310.53633" y1="77.95409" x2="310.53633" y2="184.38943" gradientUnits="userSpaceOnUse" id="color-19"><stop offset="0" stop-color="#ad007f"/><stop offset="1" stop-color="#0b0008"/></linearGradient><linearGradient x1="333.70045" y1="-7.98119" x2="333.70045" y2="58.87709" gradientUnits="userSpaceOnUse" id="color-20"><stop offset="0" stop-color="#000000"/><stop offset="1" stop-color="#bd008b"/></linearGradient><linearGradient x1="268.03761" y1="25.0171" x2="268.03761" y2="59.00791" gradientUnits="userSpaceOnUse" id="color-21"><stop offset="0" stop-color="#000000"/><stop offset="1" stop-color="#b70087"/></linearGradient><linearGradient x1="313.85386" y1="163.48935" x2="246.67006" y2="310.81228" gradientUnits="userSpaceOnUse" id="color-22"><stop offset="0" stop-color="#000000"/><stop offset="1" stop-color="#a20076"/></linearGradient><linearGradient x1="313.85386" y1="163.48935" x2="246.67006" y2="310.81228" gradientUnits="userSpaceOnUse" id="color-23"><stop offset="0" stop-color="#a8007b"/><stop offset="1" stop-color="#000000"/></linearGradient></defs><g transform="translate(-78.26361,7.9812)"><g data-paper-data="{&quot;isPaintingLayer&quot;:true}" fill-rule="nonzero" stroke-miterlimit="10" stroke-dasharray="" stroke-dashoffset="0" style="mix-blend-mode: normal"><g stroke-width="0" stroke-linecap="round" stroke-linejoin="miter"><g data-paper-data="{&quot;index&quot;:null}"><path d="M333.51352,149.86411l2.87003,35.0941l17.17352,35.46354c0,0 2.88246,6.77419 3.4065,10.05384c0.4592,2.87382 -0.43102,8.56787 -0.43102,8.56787l-5.97877,-4.91483c0,0 0.96491,7.61302 0.25424,11.75027c-0.66698,3.88291 -4.39551,12.3587 -4.39551,12.3587l-0.21905,-10.21637c0,0 -2.41127,5.5323 -4.27177,8.27138c-2.14779,3.16201 -7.87734,9.61472 -7.87734,9.61472l1.68884,21.01512c0,0 14.35236,-2.43842 20.53558,-0.54493c9.90561,3.03338 17.64654,10.95995 17.64654,10.95995l-28.09733,27.22492l-13.72825,-8.40816l-21.77146,-10.23492l3.13459,-1.16088l-6.00588,-4.66715l3.40554,-3.63756l-3.41317,-0.87466c0,0 -0.86165,-16.49315 -1.53467,-24.27093c-0.65477,-7.56679 -2.4502,-21.78018 -2.4502,-21.78018c0,0 2.40839,-5.49954 4.22329,-8.10562c1.75089,-2.51419 6.48101,-7.2651 6.48101,-7.2651l-19.27088,-39.20187l2.723,-24.8907" fill="url(#color-1)" stroke="#000000"/><path d="M377.98388,290.51016c0,0 15.46234,7.3031 21.20844,12.98022c6.03785,5.96537 14.18677,21.99011 14.18677,21.99011c0,0 -12.12722,-6.4608 -19.49866,-8.23775c-7.65652,-1.84566 -25.61771,-2.63786 -25.61771,-2.63786c0,0 -13.81533,-5.373 -8.85476,-18.97845c3.83267,-10.51193 18.57592,-5.11627 18.57592,-5.11627z" data-paper-data="{&quot;index&quot;:null}" fill="url(#color-2)" stroke="url(#color-3)"/><path d="M367.98388,297.10106c0,0 15.46235,7.3031 21.20844,12.98022c6.03785,5.96537 14.18677,21.99011 14.18677,21.99011c0,0 -12.12721,-6.4608 -19.49865,-8.23775c-7.65653,-1.84566 -25.61772,-2.63786 -25.61772,-2.63786c0,0 -13.81534,-5.373 -8.85476,-18.97845c3.83267,-10.51193 18.57593,-5.11627 18.57593,-5.11627z" data-paper-data="{&quot;index&quot;:null}" fill="url(#color-4)" stroke="url(#color-5)"/><path d="M357.07478,304.14653c0,0 15.46234,7.3031 21.20844,12.98022c6.03785,5.96537 14.18677,21.99011 14.18677,21.99011c0,0 -12.12722,-6.4608 -19.49866,-8.23775c-7.65652,-1.84566 -25.61771,-2.63786 -25.61771,-2.63786c0,0 -13.81534,-5.373 -8.85476,-18.97845c3.83267,-10.51193 18.57592,-5.11627 18.57592,-5.11627z" data-paper-data="{&quot;index&quot;:null}" fill="url(#color-6)" stroke="url(#color-7)"/></g><g><path d="M309.96857,170.06466l2.723,24.8907l-19.27088,39.20187c0,0 4.73012,4.75091 6.48101,7.2651c1.8149,2.60608 4.22329,8.10562 4.22329,8.10562c0,0 -1.79543,14.21339 -2.4502,21.78018c-0.67302,7.77778 -1.53467,24.27093 -1.53467,24.27093l-3.41317,0.87466l3.40554,3.63756l-6.00588,4.66715l3.13459,1.16088l-21.77146,10.23492l-13.72825,8.40816l-28.09733,-27.22492c0,0 7.74093,-7.92657 17.64654,-10.95995c6.18322,-1.89349 20.53558,0.54493 20.53558,0.54493l1.68884,-21.01512c0,0 -5.72955,-6.45271 -7.87734,-9.61472c-1.8605,-2.73908 -4.27177,-8.27138 -4.27177,-8.27138l-0.21905,10.21637c0,0 -3.72853,-8.47579 -4.39551,-12.3587c-0.71067,-4.13725 0.25424,-11.75027 0.25424,-11.75027l-5.97877,4.91483c0,0 -0.89022,-5.69405 -0.43102,-8.56787c0.52404,-3.27965 3.4065,-10.05384 3.4065,-10.05384l17.17352,-35.46354l2.87003,-35.0941" fill="url(#color-8)" stroke="#000000"/><path d="M248.17153,295.62645c4.96058,13.60545 -8.85476,18.97845 -8.85476,18.97845c0,0 -17.96119,0.7922 -25.61771,2.63786c-7.37144,1.77694 -19.49866,8.23775 -19.49866,8.23775c0,0 8.14892,-16.02473 14.18677,-21.99011c5.7461,-5.67712 21.20844,-12.98022 21.20844,-12.98022c0,0 14.74326,-5.39566 18.57593,5.11627z" data-paper-data="{&quot;index&quot;:null}" fill="url(#color-9)" stroke="url(#color-10)"/><path d="M258.17152,302.21735c4.96058,13.60545 -8.85476,18.97845 -8.85476,18.97845c0,0 -17.96119,0.7922 -25.61771,2.63786c-7.37144,1.77694 -19.49866,8.23775 -19.49866,8.23775c0,0 8.14892,-16.02473 14.18677,-21.9901c5.7461,-5.67712 21.20844,-12.98022 21.20844,-12.98022c0,0 14.74325,-5.39566 18.57592,5.11627z" data-paper-data="{&quot;index&quot;:null}" fill="url(#color-11)" stroke="url(#color-12)"/><path d="M269.08062,309.26281c4.96058,13.60545 -8.85476,18.97844 -8.85476,18.97844c0,0 -17.96119,0.7922 -25.61771,2.63786c-7.37144,1.77694 -19.49866,8.23775 -19.49866,8.23775c0,0 8.14892,-16.02474 14.18677,-21.99011c5.7461,-5.67712 21.20844,-12.98022 21.20844,-12.98022c0,0 14.74325,-5.39566 18.57592,5.11627z" data-paper-data="{&quot;index&quot;:null}" fill="url(#color-13)" stroke="url(#color-14)"/></g></g><path d="M320.35292,23.92929c0,0 0.05228,-2.78236 -0.05743,-5.35545c-0.01452,-0.34099 -0.31482,-1.45521 -0.70537,-2.34139c-0.46554,-1.05642 -1.03531,-1.89933 -1.07036,-2.24674c-0.06024,-0.59695 1.49688,1.35756 1.39931,0.97938c-0.51217,-1.98519 -2.80042,-3.5718 -2.80042,-3.5718c0,0 2.42134,0.33318 3.25632,0.8132c0.66221,0.38071 1.35647,1.83871 1.35647,1.83871c0,0 1.0668,-2.7065 1.60143,-3.93098c0.44699,-1.02373 0.2224,-4.24826 0.2224,-4.24826l1.88561,5.0213" data-paper-data="{&quot;index&quot;:null}" fill="url(#color-15)" stroke="#000000" stroke-width="0" stroke-linecap="round" stroke-linejoin="miter"/><path d="M282.58644,27.83903l-1.9843,-4.96108c0,0 2.00001,2.52357 3.01635,2.97671c1.21565,0.54202 3.81807,1.81721 3.81807,1.81721c0,0 -0.46819,-1.53905 -0.23655,-2.26387c0.29208,-0.9139 1.85006,-2.785 1.85006,-2.785c0,0 -0.61836,2.70407 0.33781,4.50877c0.18216,0.3438 0.01549,-2.14002 0.37202,-1.66031c0.20749,0.27918 0.35426,1.28199 0.72108,2.37198c0.30771,0.91434 0.83492,1.93589 1.0532,2.19656c1.64712,1.96705 3.55393,3.97933 3.55393,3.97933" data-paper-data="{&quot;index&quot;:null}" fill="url(#color-16)" stroke="#000000" stroke-width="0" stroke-linecap="round" stroke-linejoin="miter"/><path d="M274.51683,77.76462c0.02238,-1.00662 -0.15758,-2.64565 -0.35748,-4.11667c-0.05364,-0.39467 -0.57583,-0.99851 -1.17592,-0.93131c-0.873,0.09776 -1.91087,1.00885 -1.91087,1.00885c0,0 0.74564,-1.4393 1.1897,-1.99866c0.41967,-0.52863 1.40561,-1.27056 1.40561,-1.27056c0,0 -1.16099,-0.11245 -2.16571,0.28432c-1.07753,0.42554 -2.00252,1.35515 -1.95945,1.12743c0.02263,-0.11959 3.24094,-5.14465 3.24094,-5.14465c0,0 -1.23187,-0.01866 -1.96083,0.18475c-0.91895,0.25641 -3.1161,1.23189 -3.1161,1.23189c0,0 1.43367,-1.58071 2.80432,-2.68837c1.11012,-0.89712 2.27241,-1.32807 1.85925,-1.58903c-0.51328,-0.3242 -1.0337,-0.66492 -1.52577,-1.01704c-2.45718,-1.75837 -4.30139,-3.75385 -4.30139,-3.75385c0,0 3.17487,1.38818 6.39781,1.88604c2.03199,0.3139 4.57436,-0.05361 4.80398,-0.3139c1.15364,-1.30782 6.04198,-2.81079 11.60218,-3.88489c4.91248,-0.94898 7.13356,-0.99507 9.15572,-1.17318c0.16179,-0.01425 3.09289,-0.46589 5.14421,-1.30403c2.1971,-0.89772 3.51829,-2.18549 3.51829,-2.18549l-1.4556,2.92734c0,0 5.25319,0.34897 8.10607,0.75082c6.06099,0.85375 12.03961,2.31618 13.60107,3.64634c2.77816,2.36663 2.22654,5.26646 2.24718,6.31255c0.00207,0.10461 1.07412,1.43513 2.68807,2.62259c1.81522,1.33555 4.19593,2.53815 4.19593,2.53815c0,0 -1.89643,0.56925 -3.8057,0.53415c-1.17944,-0.02168 -2.71815,-0.36356 -2.71815,-0.36356c0,0 3.26725,1.9948 3.97058,2.3159c1.37935,0.62972 3.00546,0.8679 3.00546,0.8679c0,0 -1.3175,1.26763 -2.02127,1.6748c-0.7034,0.40694 -2.20022,0.7675 -2.20022,0.7675c0,0 0.80695,1.28498 1.48547,1.76776c0.83197,0.59195 3.1405,1.52364 3.1405,1.52364c0,0 -2.13198,0.41855 -3.03343,0.36568c-0.72503,-0.04252 -1.96224,-0.65868 -1.96224,-0.65868c0,0 2.58378,2.43299 2.94861,3.85921c0.35489,1.38732 -0.45214,3.08605 -0.45214,3.08605c0,0 -0.68689,-1.98816 -1.90707,-3.11977c-1.04688,-0.97089 -2.6537,-1.12 -2.65397,-1.01579c-0.00854,3.19582 0.51767,10.57092 -2.16953,13.58922c-5.55917,6.24418 -20.02962,6.67208 -25.8967,6.69018c-2.80802,0.00867 -7.35225,-0.48832 -12.37861,-1.26526c-1.94208,-0.3002 -3.5251,-0.76175 -5.43838,-1.24912c-2.30026,-0.58594 -4.8724,-1.27812 -6.38834,-2.68808c-1.52004,-1.41377 -1.76558,-2.70512 -2.12785,-4.56594c-0.28295,-1.45337 -0.81717,-3.37929 -0.90211,-5.15978c-0.00376,-0.07896 -0.66797,-0.2235 -1.41749,0.04797c-0.97407,0.35279 -2.09225,1.15852 -2.09225,1.15852c0,0 0.59573,-1.63202 1.02495,-2.20079c0.37168,-0.49252 1.40269,-1.01613 1.40269,-1.01613c0,0 -1.53199,0.75201 -2.19413,0.8243c-0.87929,0.09601 -2.61744,-0.29892 -2.61744,-0.29892c0,0 1.54941,-0.76787 2.354,-1.64564c1.00532,-1.09676 3.211,-4.42551 3.211,-4.42551c0,0 -1.45091,1.11871 -2.07032,1.39442c-0.73891,0.3289 -2.06818,0.4477 -2.06818,0.4477c0,0 1.60355,-0.82715 2.73928,-2.05097c0.75153,-0.80983 1.19637,-2.09892 1.20174,-2.34039z" fill="url(#color-17)" stroke="none" stroke-width="0" stroke-linecap="butt" stroke-linejoin="miter"/><path d="M361.85475,118.54402c0,0 -4.9317,4.23305 -7.58576,6.15399c-2.18478,1.58129 -4.64006,4.4986 -6.9111,5.9854c-2.79817,1.8319 -3.11531,3.87634 -5.29167,5.49287c-2.89151,2.14772 -4.09849,4.85161 -4.09849,4.85161l-10.4981,51.74143c0,0 -1.71608,5.76646 -10.12032,9.01062c-5.37711,2.07565 -10.4509,2.56701 -16.67931,2.54741c-7.50937,-0.02364 -8.0263,-0.61978 -12.24783,-2.30303c-5.95771,-2.37552 -7.40542,-8.41483 -7.40542,-8.41483l-11.75074,-54.12692c0,0 -0.85129,-3.23877 -3.7924,-6.3523c-1.93758,-2.05117 -4.89013,-4.40308 -6.63969,-6.56177c-3.11582,-3.84445 -4.50048,-5.64457 -6.43228,-7.56963c-2.99437,-2.98391 -8.39853,-4.69095 -8.39853,-4.69095c0,0 7.91467,-4.76432 12.1404,-9.48028c7.0354,-7.85157 20.20531,-17.17665 19.72162,-17.65928c-0.45365,-0.45267 7.39585,-3.17189 24.65147,-3.60023c19.82824,-0.49221 29.21901,4.2523 29.21901,4.2523c0,0 16.03631,15.24964 19.43667,19.29586c5.24417,6.24026 12.68247,11.42773 12.68247,11.42773z" fill="url(#color-18)" stroke="url(#color-19)" stroke-width="0" stroke-linecap="round" stroke-linejoin="miter"/><path d="M310.318,57.24121c-0.46046,-3.26755 0.50728,-5.2697 0.97917,-7.55533c0.67843,-2.26691 -0.41127,-5.57499 0.19695,-7.89672c0.82689,-3.1565 3.36811,-5.34524 4.54029,-8.55547c0.61234,-2.3295 1.75944,-4.42855 2.57761,-6.60088c1.08582,-2.88293 1.88626,-5.80034 2.96025,-8.6334c1.24326,-2.51356 1.87203,-5.64976 3.24251,-8.0286c1.14327,-1.98444 2.9764,-4.41418 4.4737,-5.97794c0.92234,-0.96327 1.48354,-1.11779 2.37308,-2.06629c2.00235,-2.86262 4.29398,-5.49887 7.46364,-7.44797c2.65486,-1.74065 6.08127,-2.72609 10.85089,-2.39681c3.17069,1.3618 4.59237,3.49544 6.19942,5.5473c1.72183,4.7928 1.38463,9.02588 -1.79608,12.47467c-1.30759,2.15043 -3.58442,3.51071 -5.1864,5.43881c-2.28068,2.74495 -3.9909,5.99062 -6.4209,8.73534c-2.05532,2.32149 -3.77609,5.12088 -5.8797,7.41546c0,0 -1.75848,0.79127 -3.90216,2.95801c-2.98642,3.01855 -6.84888,7.98385 -8.88558,10.78443c-1.85859,2.55567 -3.58316,8.51169 -5.62853,11.43266c-1.64433,2.34825 -3.84417,1.98887 -3.84417,1.98887l-2.2046,-0.49116z" fill="url(#color-20)" stroke="none" stroke-width="0.9" stroke-linecap="round" stroke-linejoin="round"/><path d="M291.55653,58.3602c0,0 -2.37538,0.69358 -2.98868,-0.95546c-0.40091,-1.07798 -0.00674,-4.58616 0.06785,-5.33438c0.18307,-1.8365 -0.04156,-5.04376 -0.04156,-5.04376c0,0 -0.92337,-2.96231 -2.53639,-3.81803c-6.55329,-3.47661 -20.52133,6.48781 -24.8423,7.64091c-4.62806,1.23506 -15.3271,3.08997 -15.3271,3.08997c0,0 -7.17968,0.28579 -10.20288,-5.35431c-0.70885,-1.32243 -2.36495,3.11567 -2.36495,3.11567c0,0 1.05134,-10.09113 1.17175,-11.19972c4.21261,-10.51318 17.23618,-13.09181 17.23618,-13.09181l-3.20566,-1.9422c0,0 4.92343,0.95838 9.07028,1.26155c2.34264,0.17127 4.82152,-0.23335 5.07738,-0.23308c3.37345,0.00339 8.94672,1.62783 8.94672,1.62783l7.1397,-3.10627l18.98557,9.29826c0,0 5.46666,1.85894 4.9818,12.19668c-0.07625,1.62561 0.47734,7.82115 -2.31456,10.13629c-3.47019,2.8776 -5.36055,2.31515 -5.36055,2.31515" fill="url(#color-21)" stroke="#000000" stroke-width="0" stroke-linecap="round" stroke-linejoin="miter"/><path d="M78.26361,370.65888c0,0 19.5423,-15.47676 46.34577,-32.48137c27.53264,-17.46723 62.55563,-36.69729 78.81693,-53.96074c25.89598,-27.4919 66.6493,-102.5084 66.6493,-102.5084c0,0 20.90719,-34.97419 47.46493,-21.09748c24.20241,12.53636 8.92933,48.92865 8.92933,48.92865c0,0 -49.1514,78.16412 -88.8889,101.50025c-23.24299,13.64961 -66.78353,21.76764 -101.08355,33.3408c-33.61687,11.34265 -58.2338,26.27832 -58.2338,26.27832z" fill="url(#color-22)" stroke="url(#color-23)" stroke-width="0" stroke-linecap="round" stroke-linejoin="miter"/></g></g></svg>