<svg version="1.1" xmlns="http://www.w3.org/2000/svg" xmlns:xlink="http://www.w3.org/1999/xlink" width="187.43644" height="130.85518" viewBox="0,0,187.43644,130.85518"><defs><linearGradient x1="220.49095" y1="157.00177" x2="331.66611" y2="157.00177" gradientUnits="userSpaceOnUse" id="color-1"><stop offset="0" stop-color="#fcffd3"/><stop offset="1" stop-color="#c8caa8"/></linearGradient><linearGradient x1="220.49095" y1="157.00177" x2="331.66611" y2="157.00177" gradientUnits="userSpaceOnUse" id="color-2"><stop offset="0" stop-color="#ccceab"/><stop offset="1" stop-color="#a5a78b"/></linearGradient><linearGradient x1="257.77579" y1="187.38812" x2="300.60672" y2="187.38812" gradientUnits="userSpaceOnUse" id="color-3"><stop offset="0" stop-color="#fcffd3"/><stop offset="1" stop-color="#c8caa8"/></linearGradient><linearGradient x1="257.77579" y1="187.38812" x2="300.60672" y2="187.38812" gradientUnits="userSpaceOnUse" id="color-4"><stop offset="0" stop-color="#ccceab"/><stop offset="1" stop-color="#a5a78b"/></linearGradient><linearGradient x1="146.22967" y1="157.00176" x2="257.40482" y2="157.00176" gradientUnits="userSpaceOnUse" id="color-5"><stop offset="0" stop-color="#fcffd3"/><stop offset="1" stop-color="#c8caa8"/></linearGradient><linearGradient x1="146.22967" y1="157.00176" x2="257.40482" y2="157.00176" gradientUnits="userSpaceOnUse" id="color-6"><stop offset="0" stop-color="#ccceab"/><stop offset="1" stop-color="#a5a78b"/></linearGradient><linearGradient x1="177.56062" y1="187.84916" x2="220.39154" y2="187.84916" gradientUnits="userSpaceOnUse" id="color-7"><stop offset="0" stop-color="#fcffd3"/><stop offset="1" stop-color="#c8caa8"/></linearGradient><linearGradient x1="177.56062" y1="187.84916" x2="220.39154" y2="187.84916" gradientUnits="userSpaceOnUse" id="color-8"><stop offset="0" stop-color="#ccceab"/><stop offset="1" stop-color="#a5a78b"/></linearGradient><linearGradient x1="183.1435" y1="159.98101" x2="295.02378" y2="159.98101" gradientUnits="userSpaceOnUse" id="color-9"><stop offset="0" stop-color="#fcffd3"/><stop offset="1" stop-color="#c8caa8"/></linearGradient><linearGradient x1="183.1435" y1="159.981" x2="295.02378" y2="159.981" gradientUnits="userSpaceOnUse" id="color-10"><stop offset="0" stop-color="#ccceab"/><stop offset="1" stop-color="#a5a78b"/></linearGradient><linearGradient x1="171.88115" y1="214.61937" x2="204.46276" y2="214.61937" gradientUnits="userSpaceOnUse" id="color-11"><stop offset="0" stop-color="#fcffd3"/><stop offset="1" stop-color="#c8caa8"/></linearGradient><linearGradient x1="171.88115" y1="214.61937" x2="204.46276" y2="214.61937" gradientUnits="userSpaceOnUse" id="color-12"><stop offset="0" stop-color="#ccceab"/><stop offset="1" stop-color="#a5a78b"/></linearGradient><linearGradient x1="278.73298" y1="217.01168" x2="311.31458" y2="217.01168" gradientUnits="userSpaceOnUse" id="color-13"><stop offset="0" stop-color="#fcffd3"/><stop offset="1" stop-color="#c8caa8"/></linearGradient><linearGradient x1="278.73298" y1="217.01168" x2="311.31458" y2="217.01168" gradientUnits="userSpaceOnUse" id="color-14"><stop offset="0" stop-color="#ccceab"/><stop offset="1" stop-color="#a5a78b"/></linearGradient><linearGradient x1="202.89385" y1="166.37199" x2="202.89385" y2="179.91834" gradientUnits="userSpaceOnUse" id="color-15"><stop offset="0" stop-color="#f4f7cd"/><stop offset="1" stop-color="#f4f7cd" stop-opacity="0"/></linearGradient><linearGradient x1="274.72829" y1="166.37199" x2="274.72829" y2="179.91834" gradientUnits="userSpaceOnUse" id="color-16"><stop offset="0" stop-color="#f0f3c9"/><stop offset="1" stop-color="#f0f3c9" stop-opacity="0"/></linearGradient></defs><g transform="translate(-145.22967,-102.4448)"><g data-paper-data="{&quot;isPaintingLayer&quot;:true}" stroke-miterlimit="10" stroke-dasharray="" stroke-dashoffset="0" style="mix-blend-mode: normal"><path d="M244.05188,162.60958c-11.18447,-1.97234 -20.54667,-9.84182 -23.2691,-20.97872c-1.91029,-7.8146 5.18795,-39.49613 32.30138,-38.14405c26.15701,1.30438 68.91519,26.16028 78.58195,37.70539c-4.85543,15.24999 -27.43731,53.82858 -46.3871,64.68314c-23.43906,13.42605 -50.11853,-5.42806 -52.19387,-13.91786c-2.72241,-11.13682 1.95353,-22.43793 10.96671,-29.34787z" data-paper-data="{&quot;index&quot;:null}" fill="url(#color-1)" fill-rule="nonzero" stroke="url(#color-2)" stroke-width="2" stroke-linecap="butt" stroke-linejoin="round"/><path d="M264.95912,182.86851c-4.07139,-1.89226 -6.84624,-5.85154 -6.75213,-10.38281c0.06603,-3.17953 6.0034,-14.5584 16.22247,-11.2811c9.8586,3.1617 23.66035,17.00998 26.17726,22.40429c-2.04516,3.19949 -7.3852,8.95877 -13.13223,13.53182c-0.24131,0.19201 1.3207,3.53255 1.82086,6.93324c0.50172,3.4113 -0.05802,6.88249 -0.05802,6.88249c0,0 -31.96017,14.43516 -31.45562,-17.99435c0.07682,-4.93774 3.03096,-8.37189 7.17741,-10.09357z" data-paper-data="{&quot;index&quot;:null}" fill="url(#color-3)" fill-rule="nonzero" stroke="url(#color-4)" stroke-width="2" stroke-linecap="butt" stroke-linejoin="round"/><path d="M233.84393,162.6096c9.01318,6.90994 13.68912,18.21105 10.96671,29.34787c-2.07534,8.4898 -28.75481,27.34391 -52.19387,13.91786c-18.94979,-10.85456 -41.53167,-49.43315 -46.3871,-64.68314c9.66676,-11.54512 52.42494,-36.40101 78.58195,-37.70539c27.11343,-1.35207 34.21168,30.32945 32.30138,38.14405c-2.72243,11.1369 -12.08462,19.00638 -23.2691,20.97872z" data-paper-data="{&quot;index&quot;:null}" fill="url(#color-5)" fill-rule="nonzero" stroke="url(#color-6)" stroke-width="2" stroke-linecap="butt" stroke-linejoin="round"/><path d="M213.20822,183.32956c4.14645,1.72168 7.10058,5.15583 7.17741,10.09357c0.50455,32.42951 -31.45562,17.99435 -31.45562,17.99435c0,0 -0.55974,-3.47119 -0.05802,-6.88249c0.50016,-3.40069 2.06217,-6.74123 1.82086,-6.93324c-5.74704,-4.57305 -11.08707,-10.33233 -13.13223,-13.53182c2.51691,-5.39431 16.31865,-19.24259 26.17725,-22.40429c10.21907,-3.2773 16.15643,8.10158 16.22247,11.2811c0.09411,4.53127 -2.68073,8.49056 -6.75213,10.38281z" data-paper-data="{&quot;index&quot;:null}" fill="url(#color-7)" fill-rule="nonzero" stroke="url(#color-8)" stroke-width="2" stroke-linecap="butt" stroke-linejoin="round"/><path d="M295.02378,159.981c0,29.92131 -25.04525,54.17733 -55.94014,54.17733c-30.89489,0 -55.94014,-24.25601 -55.94014,-54.17732c0,-29.92131 25.04525,-54.17732 55.94015,-54.17732c30.89489,0 55.94014,24.25601 55.94014,54.17733z" fill="url(#color-9)" fill-rule="nonzero" stroke="url(#color-10)" stroke-width="2" stroke-linecap="butt" stroke-linejoin="miter"/><g data-paper-data="{&quot;index&quot;:null}" fill-rule="nonzero" stroke-linecap="butt" stroke-linejoin="miter"><path d="M286.5535,164.6216c0,12.69911 -10.36566,22.99377 -23.15234,22.99377c-12.78669,0 -23.15235,-10.29466 -23.15235,-22.99377c0,-12.69911 10.36566,-22.99377 23.15235,-22.99377c12.78669,0 23.15234,10.29466 23.15234,22.99377z" fill="#000000" stroke="#000000" stroke-width="0"/><path d="M263.50016,141.547c14.97749,0 25.63293,17.60721 23.08145,20.30841c-4.77591,5.05616 -41.64511,4.90748 -46.35534,-0.33342c-2.36205,-2.62816 8.2964,-19.975 23.27389,-19.975z" fill="#333333" stroke="none" stroke-width="0"/><path d="M286.5535,164.6216c0,12.69911 -10.36566,22.99377 -23.15234,22.99377c-12.78669,0 -23.15235,-10.29466 -23.15235,-22.99377c0,-12.69911 10.36566,-22.99377 23.15235,-22.99377c12.78669,0 23.15234,10.29466 23.15234,22.99377z" fill="none" stroke="#000000" stroke-width="2"/></g><path d="M188.17195,199.33107c8.99716,0 16.29081,6.84481 16.29081,15.2883c0,8.44349 -7.29364,15.2883 -16.29081,15.2883c-8.99716,0 -16.2908,-6.84481 -16.2908,-15.2883c0,-8.44349 7.29364,-15.2883 16.2908,-15.2883z" fill="url(#color-11)" fill-rule="nonzero" stroke="url(#color-12)" stroke-width="2" stroke-linecap="butt" stroke-linejoin="miter"/><path d="M295.02378,201.72339c8.99716,0 16.2908,6.84481 16.2908,15.2883c0,8.44349 -7.29364,15.28829 -16.2908,15.28829c-8.99716,0 -16.2908,-6.8448 -16.2908,-15.28829c0,-8.44349 7.29364,-15.2883 16.2908,-15.2883z" fill="url(#color-13)" fill-rule="nonzero" stroke="url(#color-14)" stroke-width="2" stroke-linecap="butt" stroke-linejoin="miter"/><g fill-rule="nonzero" stroke-linecap="butt" stroke-linejoin="miter"><path d="M214.22098,141.62784c12.78669,0 23.15235,10.29466 23.15235,22.99377c0,12.69911 -10.36566,22.99377 -23.15235,22.99377c-12.78668,0 -23.15234,-10.29466 -23.15234,-22.99377c0,-12.69911 10.36565,-22.99377 23.15234,-22.99377z" fill="#000000" stroke="#000000" stroke-width="0"/><path d="M237.39583,161.52199c-4.71023,5.24089 -41.57944,5.38958 -46.35534,0.33342c-2.55148,-2.7012 8.10396,-20.30841 23.08145,-20.30841c14.97749,0 25.63594,17.34683 23.27389,19.975z" fill="#333333" stroke="none" stroke-width="0"/><path d="M214.22098,141.62784c12.78669,0 23.15235,10.29466 23.15235,22.99377c0,12.69911 -10.36566,22.99377 -23.15235,22.99377c-12.78668,0 -23.15234,-10.29466 -23.15234,-22.99377c0,-12.69911 10.36565,-22.99377 23.15234,-22.99377z" fill="none" stroke="#000000" stroke-width="2"/></g><path d="M201.323,135.19417c-0.71481,-7.75164 5.78931,-12.54633 12.89797,-10.39023" data-paper-data="{&quot;index&quot;:null}" fill="none" fill-rule="nonzero" stroke="#000000" stroke-width="2" stroke-linecap="round" stroke-linejoin="miter"/><path d="M263.94633,124.80395c7.10866,-2.1561 13.61278,2.63859 12.89797,10.39023" data-paper-data="{&quot;index&quot;:null}" fill="none" fill-rule="nonzero" stroke="#000000" stroke-width="2" stroke-linecap="round" stroke-linejoin="miter"/><path d="M227.23328,176.54395c0,5.16781 -5.85228,9.35714 -13.07143,9.35714c-7.21915,0 -13.07143,-4.18934 -13.07143,-9.35714c0,-5.16781 5.85228,-9.35714 13.07143,-9.35714c7.21915,0 13.07143,4.18934 13.07143,9.35714z" fill="#1a1a1a" fill-rule="nonzero" stroke="#000000" stroke-width="0" stroke-linecap="butt" stroke-linejoin="miter"/><path d="M202.89385,166.37199l2.15361,4.46038l4.81796,0.71296l-3.48153,3.46919l0.81718,4.90381l-4.30722,-2.31279l-4.30722,2.31279l0.81718,-4.90381l-3.48153,-3.46919l4.81796,-0.71296z" fill="url(#color-15)" fill-rule="evenodd" stroke="#f93dbf" stroke-width="0" stroke-linecap="round" stroke-linejoin="round"/><path d="M220.06952,153.63768c5.72512,0 10.36624,5.02789 10.36624,11.23011c0,6.20221 -4.64112,11.23011 -10.36624,11.23011c-5.72512,0 -10.36626,-5.02789 -10.36626,-11.23011c0,-6.20221 4.64114,-11.23011 10.36626,-11.23011z" fill="#ffffff" fill-rule="nonzero" stroke="none" stroke-width="0" stroke-linecap="butt" stroke-linejoin="miter"/><path d="M263.46028,167.18678c7.21915,0 13.07143,4.18934 13.07143,9.35715c0,5.1678 -5.85228,9.35714 -13.07143,9.35714c-7.21915,0 -13.07143,-4.18934 -13.07143,-9.35714c0,-5.1678 5.85228,-9.35715 13.07143,-9.35715z" data-paper-data="{&quot;index&quot;:null}" fill="#1a1a1a" fill-rule="nonzero" stroke="#000000" stroke-width="0" stroke-linecap="butt" stroke-linejoin="miter"/><path d="M276.88187,170.83237l4.81795,0.71296l-3.48153,3.46919l0.81718,4.90382l-4.30722,-2.31279l-4.30722,2.31279l0.81717,-4.90382l-3.48152,-3.46919l4.81796,-0.71296l2.15361,-4.46038z" data-paper-data="{&quot;index&quot;:null}" fill="url(#color-16)" fill-rule="evenodd" stroke="#f93dbf" stroke-width="0" stroke-linecap="round" stroke-linejoin="round"/><path d="M268.46405,164.86779c0,6.20222 -4.64114,11.23011 -10.36626,11.23011c-5.72512,0 -10.36624,-5.0279 -10.36624,-11.23011c0,-6.20222 4.64112,-11.23011 10.36624,-11.23011c5.72512,0 10.36626,5.0279 10.36626,11.23011z" data-paper-data="{&quot;index&quot;:null}" fill="#ffffff" fill-rule="nonzero" stroke="none" stroke-width="0" stroke-linecap="butt" stroke-linejoin="miter"/><path d="M243.74051,198.48736c0,0 -7.07041,1.34903 -10.1676,0.61281c-3.39398,-0.80677 -9.38751,-5.26116 -9.38751,-5.26116" fill="none" fill-rule="nonzero" stroke="#000000" stroke-width="2" stroke-linecap="round" stroke-linejoin="miter"/><path d="M253.86489,180c0,7.9477 -6.20752,14.39058 -13.86489,14.39058c-7.65737,0 -13.86489,-6.44288 -13.86489,-14.39058c0,-7.9477 6.20752,-14.39058 13.86489,-14.39058c7.65737,0 13.86489,6.44288 13.86489,14.39058z" fill="#3fdbff" fill-rule="nonzero" stroke="#27879d" stroke-width="2" stroke-linecap="butt" stroke-linejoin="miter"/></g></g></svg>