<svg width="110" height="134" viewBox="0 0 110 134" fill="none" xmlns="http://www.w3.org/2000/svg">
<path d="M55.6186 32.2863C55.5492 32.2863 55.476 32.2805 55.4047 32.2689C54.6995 32.1495 54.2255 31.4847 54.3411 30.7814C54.4394 30.186 56.582 16.1566 43.8282 9.78071C43.1904 9.46086 42.9303 8.68241 43.2502 8.04463C43.57 7.40491 44.3465 7.14672 44.9862 7.46657C59.4703 14.7096 56.9211 31.0415 56.8942 31.2053C56.7882 31.8373 56.239 32.2863 55.6186 32.2863Z" fill="#97AFBA"/>
<path d="M72.5185 41.3925C72.5185 48.0593 64.9518 53.4642 55.6181 53.4642C46.2825 53.4642 38.7158 48.0593 38.7158 41.3925C38.7158 34.7236 46.2825 29.3188 55.6181 29.3188C64.9518 29.3188 72.5185 34.7236 72.5185 41.3925Z" fill="#59AADF"/>
<path d="M109.946 86.2341C109.946 112.428 85.4286 133.663 55.1868 133.663C24.943 133.663 0.427734 112.428 0.427734 86.2341C0.427734 60.0405 24.943 35.3557 55.1868 35.3557C85.4286 35.3557 109.946 60.0405 109.946 86.2341Z" fill="#A6C3CF"/>
<mask id="mask0_1388_21178" style="mask-type:luminance" maskUnits="userSpaceOnUse" x="0" y="71" width="14" height="49">
<path d="M0 71.2278H13.8116V119.075H0V71.2278Z" fill="white"/>
</mask>
<g mask="url(#mask0_1388_21178)">
<mask id="mask1_1388_21178" style="mask-type:luminance" maskUnits="userSpaceOnUse" x="0" y="35" width="110" height="99">
<path d="M0.427734 86.2341C0.427734 112.428 24.943 133.663 55.1868 133.663C85.4286 133.663 109.946 112.428 109.946 86.2341C109.946 60.0405 85.4286 35.3557 55.1868 35.3557C24.943 35.3557 0.427734 60.0405 0.427734 86.2341Z" fill="white"/>
</mask>
<g mask="url(#mask1_1388_21178)">
<path d="M13.3625 95.2884C13.3625 108.387 7.57041 119.004 0.42759 119.004C-6.71715 119.004 -12.5073 108.387 -12.5073 95.2884C-12.5073 82.1916 -6.71715 71.5747 0.42759 71.5747C7.57041 71.5747 13.3625 82.1916 13.3625 95.2884Z" fill="#CED6E7"/>
</g>
</g>
<mask id="mask2_1388_21178" style="mask-type:luminance" maskUnits="userSpaceOnUse" x="0" y="80" width="9" height="30">
<path d="M0 80.5999H8.38563V109.703H0V80.5999Z" fill="white"/>
</mask>
<g mask="url(#mask2_1388_21178)">
<mask id="mask3_1388_21178" style="mask-type:luminance" maskUnits="userSpaceOnUse" x="0" y="35" width="110" height="99">
<path d="M0.427734 86.2338C0.427734 112.427 24.943 133.663 55.1868 133.663C85.4286 133.663 109.946 112.427 109.946 86.2338C109.946 60.0403 85.4286 35.3555 55.1868 35.3555C24.943 35.3555 0.427734 60.0403 0.427734 86.2338Z" fill="white"/>
</mask>
<g mask="url(#mask3_1388_21178)">
<path d="M8.18917 95.2881C8.18917 103.148 4.71314 109.518 0.427838 109.518C-3.85939 109.518 -7.3335 103.148 -7.3335 95.2881C-7.3335 87.4305 -3.85939 81.0603 0.427838 81.0603C4.71314 81.0603 8.18917 87.4305 8.18917 95.2881Z" fill="#4DBBEB"/>
</g>
</g>
<mask id="mask4_1388_21178" style="mask-type:luminance" maskUnits="userSpaceOnUse" x="96" y="71" width="14" height="49">
<path d="M96.6816 71.2278H110V119.075H96.6816V71.2278Z" fill="white"/>
</mask>
<g mask="url(#mask4_1388_21178)">
<mask id="mask5_1388_21178" style="mask-type:luminance" maskUnits="userSpaceOnUse" x="0" y="35" width="110" height="99">
<path d="M0.428223 86.2341C0.428223 112.428 24.9435 133.663 55.1872 133.663C85.4291 133.663 109.946 112.428 109.946 86.2341C109.946 60.0405 85.4291 35.3557 55.1872 35.3557C24.9435 35.3557 0.428223 60.0405 0.428223 86.2341Z" fill="white"/>
</mask>
<g mask="url(#mask5_1388_21178)">
<path d="M122.881 95.2884C122.881 108.387 117.089 119.004 109.946 119.004C102.801 119.004 97.0112 108.387 97.0112 95.2884C97.0112 82.1916 102.801 71.5747 109.946 71.5747C117.089 71.5747 122.881 82.1916 122.881 95.2884Z" fill="#CED6E7"/>
</g>
</g>
<mask id="mask6_1388_21178" style="mask-type:luminance" maskUnits="userSpaceOnUse" x="101" y="80" width="9" height="30">
<path d="M101.121 80.5999H110V109.703H101.121V80.5999Z" fill="white"/>
</mask>
<g mask="url(#mask6_1388_21178)">
<mask id="mask7_1388_21178" style="mask-type:luminance" maskUnits="userSpaceOnUse" x="0" y="35" width="110" height="99">
<path d="M0.428223 86.2338C0.428223 112.427 24.9435 133.663 55.1872 133.663C85.4291 133.663 109.946 112.427 109.946 86.2338C109.946 60.0403 85.4291 35.3555 55.1872 35.3555C24.9435 35.3555 0.428223 60.0403 0.428223 86.2338Z" fill="white"/>
</mask>
<g mask="url(#mask7_1388_21178)">
<path d="M116.844 95.2881C116.844 103.148 113.37 109.518 109.083 109.518C104.798 109.518 101.322 103.148 101.322 95.2881C101.322 87.4305 104.798 81.0603 109.083 81.0603C113.37 81.0603 116.844 87.4305 116.844 95.2881Z" fill="#4DBBEB"/>
</g>
</g>
<mask id="mask8_1388_21178" style="mask-type:luminance" maskUnits="userSpaceOnUse" x="33" y="35" width="44" height="99">
<path d="M33.0493 35.219H76.4573V133.873H33.0493V35.219Z" fill="white"/>
</mask>
<g mask="url(#mask8_1388_21178)">
<mask id="mask9_1388_21178" style="mask-type:luminance" maskUnits="userSpaceOnUse" x="0" y="35" width="110" height="99">
<path d="M0.427734 86.2341C0.427734 112.428 24.943 133.663 55.1868 133.663C85.4286 133.663 109.946 112.428 109.946 86.2341C109.946 60.0405 85.4286 35.3557 55.1868 35.3557C24.943 35.3557 0.427734 60.0405 0.427734 86.2341Z" fill="white"/>
</mask>
<g mask="url(#mask9_1388_21178)">
<path d="M67.6902 137.976H40.9571L33.1958 35.3557H76.3128L67.6902 137.976Z" fill="#4DBBEB"/>
</g>
</g>
<path d="M93.5602 89.2514C93.5602 109.048 76.3804 125.096 55.1871 125.096C33.9937 125.096 16.812 109.048 16.812 89.2514C16.812 69.4569 33.9937 53.4082 55.1871 53.4082C76.3804 53.4082 93.5602 69.4569 93.5602 89.2514Z" fill="#231F20"/>
<path d="M46.994 6.03681C46.994 9.37025 44.2907 12.0717 40.9572 12.0717C37.6238 12.0717 34.9204 9.37025 34.9204 6.03681C34.9204 2.70144 37.6238 0 40.9572 0C44.2907 0 46.994 2.70144 46.994 6.03681Z" fill="#FAC022"/>
<path d="M54.2909 96.4193C54.2909 105.025 48.0306 112.002 40.3058 112.002C32.583 112.002 26.3208 105.025 26.3208 96.4193C26.3208 87.8121 32.583 80.8369 40.3058 80.8369C48.0306 80.8369 54.2909 87.8121 54.2909 96.4193Z" fill="#C3E7F3"/>
<path d="M53.2025 98.4098C53.2025 104.614 48.6879 109.645 43.1193 109.645C37.5527 109.645 33.0381 104.614 33.0381 98.4098C33.0381 92.2053 37.5527 87.1763 43.1193 87.1763C48.6879 87.1763 53.2025 92.2053 53.2025 98.4098Z" fill="#231F20"/>
<path d="M85.4554 95.7836C85.4554 104.389 79.1932 111.366 71.4704 111.366C63.7457 111.366 57.4854 104.389 57.4854 95.7836C57.4854 87.1764 63.7457 80.2012 71.4704 80.2012C79.1932 80.2012 85.4554 87.1764 85.4554 95.7836Z" fill="#C3E7F3"/>
<path d="M78.7387 98.4098C78.7387 104.614 74.2241 109.645 68.6574 109.645C63.0888 109.645 58.5742 104.614 58.5742 98.4098C58.5742 92.2053 63.0888 87.1763 68.6574 87.1763C74.2241 87.1763 78.7387 92.2053 78.7387 98.4098Z" fill="#231F20"/>
<path d="M30.3728 67.5898C30.1435 67.5089 29.9373 67.3605 29.7812 67.1524C29.3631 66.5879 29.4806 65.7902 30.0433 65.372C35.8392 61.0694 41.8298 63.8344 42.0822 63.9558C42.7161 64.2564 42.9859 65.0156 42.6853 65.6514C42.3847 66.2834 41.6313 66.559 40.9935 66.2545C40.7854 66.1582 36.0974 64.0464 31.5616 67.4145C31.2052 67.6785 30.7601 67.7286 30.3728 67.5898ZM79.9081 67.9791C79.5112 68.0908 79.0699 68.0099 78.7327 67.7228C74.3935 64.0194 69.453 65.9058 69.4049 65.925C68.7517 66.1871 68.0118 65.8615 67.7536 65.2083C67.4973 64.555 67.8171 63.8171 68.4703 63.5589C68.7305 63.4548 74.8945 61.1021 80.386 65.7882C80.9197 66.2449 80.9833 67.0465 80.5266 67.5821C80.3571 67.7806 80.1413 67.9135 79.9081 67.9791Z" fill="#C3E7F3"/>
<path d="M23.6055 102.976C23.6055 102.976 43.0127 101.317 53.2018 108.919C48.1824 110.578 43.0743 114.826 41.3806 114.826C39.6888 114.826 26.1451 113.133 23.6055 102.976ZM88.7521 102.976C88.7521 102.976 69.3449 101.317 59.1558 108.919C64.1752 110.578 69.2833 114.826 70.977 114.826C72.6707 114.826 86.2145 113.133 88.7521 102.976ZM88.7521 90.1262C88.7521 90.1262 69.3449 91.7833 59.1558 84.1838C64.1752 82.5248 69.2833 78.2761 70.977 78.2761C72.6707 78.2761 86.2145 79.9679 88.7521 90.1262ZM23.6055 90.1262C23.6055 90.1262 43.0127 91.7833 53.2018 84.1838C48.1824 82.5248 43.0743 78.2761 41.3806 78.2761C39.6888 78.2761 26.1451 79.9679 23.6055 90.1262Z" fill="#231F20"/>
<path d="M56.3714 118.387C56.1421 118.36 55.9167 118.266 55.7279 118.104C55.2172 117.669 55.1556 116.902 55.5911 116.391C60.0671 111.146 66.233 112.441 66.4951 112.499C67.1502 112.643 67.5625 113.293 67.418 113.948C67.2735 114.601 66.6319 115.017 65.9729 114.873C65.759 114.827 60.9419 113.863 57.4408 117.969C57.1672 118.289 56.7607 118.434 56.3714 118.387Z" fill="#C3E7F3"/>
</svg>
