<svg version="1.1" xmlns="http://www.w3.org/2000/svg" xmlns:xlink="http://www.w3.org/1999/xlink" width="532.26478" height="413.76516" viewBox="0,0,532.26478,413.76516"><defs><linearGradient x1="140.36787" y1="32.41519" x2="140.36787" y2="44.23942" gradientUnits="userSpaceOnUse" id="color-1"><stop offset="0" stop-color="#35ff00"/><stop offset="1" stop-color="#1db300"/></linearGradient><linearGradient x1="140.36787" y1="32.41519" x2="140.36787" y2="44.23942" gradientUnits="userSpaceOnUse" id="color-2"><stop offset="0" stop-color="#00ff21"/><stop offset="1" stop-color="#00b317"/></linearGradient></defs><g transform="translate(31.4341,21.14311)"><g data-paper-data="{&quot;isPaintingLayer&quot;:true}" fill-rule="nonzero" stroke-linejoin="miter" stroke-miterlimit="10" stroke-dasharray="" stroke-dashoffset="0" style="mix-blend-mode: normal"><path d="M132.43178,156.648c0,0 18.49313,-13.41972 36.9719,-26.851c25.42735,-18.48186 14.22608,-30.04855 28.12115,-44.68201c16.97983,-17.88208 34.02356,-35.02598 46.60972,-45.83256c15.29219,-13.12998 36.27153,-30.35669 56.30794,-40.87093c18.50075,-9.70836 36.72227,-13.23315 36.72227,-13.23315l-16.14071,17.60062c0,0 52.17521,-11.43044 78.46999,-7.46468c31.73408,4.78617 98.70262,34.18601 98.70262,34.18601c0,0 -51.67603,8.28517 -89.82693,30.29305c-33.75612,19.47269 -92.51267,114.14775 -153.67257,152.9254c-60.91693,38.62358 -126.18272,20.08599 -126.18272,20.08599z" data-paper-data="{&quot;index&quot;:null}" fill="#006bff" stroke="#001052" stroke-width="1.5" stroke-linecap="round"/><g fill="#006bff" stroke="#000000" stroke-width="1.5"><g stroke-linecap="butt"><g><path d="M398.50087,3.38887c0,0 -2.93489,-3.83095 0.23537,-12.79132c3.08617,-8.72269 8.23476,-10.91207 8.23476,-10.91207c0,0 4.27701,2.22206 7.91762,5.40132c4.41683,3.85711 7.78015,8.14834 7.78015,8.14834l-3.64382,10.18579c0,0 -6.77306,1.73725 -10.94281,1.61868c-5.02508,-0.14288 -9.58125,-1.65075 -9.58125,-1.65075z"/><path d="M435.35347,13.42232c-3.31615,-2.54482 -7.49577,-8.17889 -7.49577,-8.17889l3.53681,-10.22386c0,0 5.29858,-1.20944 11.14482,-1.41509c4.81879,-0.16952 9.53379,0.80766 9.53379,0.80766c0,0 2.63383,4.95828 -0.42158,13.69191c-3.13867,8.97159 -7.81631,10.09413 -7.81631,10.09413c0,0 -4.48543,-1.709 -8.48178,-4.77584z" data-paper-data="{&quot;index&quot;:null}"/></g></g><path d="M436.16931,-0.48118l-20,10l-1,-19" stroke-linecap="round"/><path d="M415.66931,-12.31451l20.66667,10.66667l-15.33333,3z" stroke-linecap="round"/></g><g data-paper-data="{&quot;index&quot;:null}" stroke="#000000" stroke-linecap="round"><path d="M232.69112,152.87377c0,0 -70.5383,-15.49978 -86.99992,-33.83195c-16.97062,-18.899 -13.34339,-77.91331 -13.34339,-77.91331c0,0 6.4997,-18.25805 27.37703,-31.09146c20.87733,-12.83346 56.35108,-12.47377 56.35108,-12.47377c0,0 16.82975,12.30386 23.56064,19.84534c6.49888,7.2816 16.15303,24.65126 16.15303,24.65126l6.32736,-1.38109c0,0 16.77247,18.81589 17.41377,55.73158c0.16393,9.43378 -3.25252,30.69063 -16.17632,41.91263c-18.33365,15.95502 -30.66329,14.55078 -30.66329,14.55078z" fill="#006bff" stroke-width="1"/><path d="M219.61253,130.99066c0,0 -59.01637,3.05992 -72.6952,-10.46422c-15.06482,-14.8944 -13.93764,-75.18869 -13.93764,-75.18869c0,0 11.14546,-20.51835 30.02983,-29.57536c18.88438,-9.05702 33.58849,-6.44613 33.58849,-6.44613c0,0 28.60363,17.75091 39.1871,43.43115c7.78828,18.89781 8.33631,31.13703 4.21749,51.05052c-2.68667,12.98941 -20.39005,27.19272 -20.39005,27.19272z" fill="#3287ff" stroke-width="0"/></g><g stroke="#000000" stroke-linecap="round"><path d="M30.70564,153.8119c0,0 -12.32965,1.40425 -30.66329,-14.55078c-12.92379,-11.22201 -16.34025,-32.47886 -16.17632,-41.91264c0.64131,-36.91567 17.41377,-55.73158 17.41377,-55.73158l6.32736,1.38108c0,0 9.65415,-17.36966 16.15303,-24.65126c6.7309,-7.54148 23.56064,-19.84534 23.56064,-19.84534c0,0 35.47376,-0.35969 56.35108,12.47377c20.87734,12.83342 27.37703,31.09146 27.37703,31.09146c0,0 9.76752,69.24814 -7.20311,88.14714c-16.46164,18.33216 -93.14022,23.59813 -93.14022,23.59813z" fill="#006bff" stroke-width="1"/><path d="M43.78419,131.92886c0,0 -17.70339,-14.20331 -20.39005,-27.19272c-4.11881,-19.91349 -3.57078,-32.15269 4.2175,-51.05052c10.58346,-25.68023 39.1871,-43.43115 39.1871,-43.43115c0,0 14.7041,-2.61089 33.58849,6.44613c18.88437,9.05702 30.02983,29.57536 30.02983,29.57536c0,0 6.58522,67.11685 -8.4796,82.01126c-13.67882,13.52412 -78.15324,3.64167 -78.15324,3.64167z" fill="#3287ff" stroke-width="0"/></g><g stroke-width="1"><path d="M120.39958,273.59445c-1.64108,-63.0587 24.81771,-76.43365 55.43194,-76.43365c22.8476,0 60.51854,6.79092 69.00254,37.28041c0.53622,1.92705 5.52958,15.06919 8.12322,27.01196c2.44001,11.23534 2.50461,21.36823 2.50461,21.36823c0,0 -1.63218,-5.00381 -2.62103,-7.0245c-0.7856,-1.60528 -2.84389,-4.14271 -2.84389,-4.14271c0,0 -0.68168,1.12243 -0.68168,3.3656c0,42.21314 -42.86957,75.00832 -73.48379,75.00832c-15.99722,0 -40.46468,7.4188 -40.46468,7.4188c0,0 -14.44291,-63.70401 -14.96726,-83.85247z" fill="#494949" stroke="#2c2c2c" stroke-linecap="butt"/><g fill="#ffffff"><path d="M134.65015,353.68805c0,-32.4343 37.67301,-58.72751 84.14506,-58.72751c46.47204,0 84.14506,26.29321 84.14506,58.72751c0,32.4343 -38.05463,35.98225 -84.52665,35.98225c-46.47204,0 -83.76346,-3.54795 -83.76346,-35.98225z" stroke="#888888" stroke-linecap="butt"/><path d="M272.41142,332.62074c0,0 9.75134,4.82116 12.50414,23.64337c1.95868,13.39225 -1.81903,25.20299 -1.81903,25.20299" stroke="#ffffff" stroke-linecap="round"/><path d="M204.48481,340.07821c0,0 9.75133,4.82114 12.50414,23.64335c1.95868,13.39225 -1.81902,25.203 -1.81902,25.203" stroke="#ffffff" stroke-linecap="round"/></g></g><g stroke-width="1"><path d="M156.43769,272.97409c-0.53824,20.68171 -15.36339,86.07171 -15.36339,86.07171c0,0 -25.11499,-7.61515 -41.53561,-7.61515c-31.42445,0 -75.4286,-33.66314 -75.4286,-76.99349c0,-2.30254 -0.69972,-3.45467 -0.69972,-3.45467c0,0 -2.11278,2.60457 -2.91914,4.25236c-1.01503,2.07414 -2.69041,7.21041 -2.69041,7.21041c0,0 0.06632,-10.40105 2.57091,-21.93376c2.66229,-12.25883 7.7878,-25.7488 8.33822,-27.72686c8.70853,-31.29643 47.37648,-38.26707 70.82875,-38.26707c31.42445,0 58.58352,13.72895 56.89899,78.45655z" fill="#494949" stroke="#2c2c2c" stroke-linecap="butt"/><g fill="#ffffff"><path d="M141.80996,355.18751c0,33.2927 -38.27836,36.93455 -85.98033,36.93455c-47.70196,0 -86.76373,-3.64184 -86.76373,-36.93455c0,-33.2927 38.67008,-60.28178 86.37204,-60.28178c47.70196,0 86.37204,26.98909 86.37204,60.28178z" stroke="#888888" stroke-linecap="butt"/><path d="M-10.56519,383.70179c0,0 -3.87768,-12.12332 -1.86718,-25.87c2.82565,-19.32038 12.83506,-24.26911 12.83506,-24.26911" stroke="#ffffff" stroke-linecap="round"/><path d="M59.15919,391.3566c0,0 -3.87768,-12.12332 -1.86715,-25.87001c2.82565,-19.32038 12.83506,-24.2691 12.83506,-24.2691" stroke="#ffffff" stroke-linecap="round"/></g></g><g stroke-width="1"><g><path d="M114.60951,133.87202l-6.96282,42.25162l-15.50936,-3.89486l11.85284,-40.81926z" fill="#ff0000" stroke="#ba0000" stroke-linecap="butt"/><g><path d="M109.76145,172.37335l-1.81418,6.06882c0,0 -5.28386,-2.32209 -8.25323,-3.01066c-2.98776,-0.69284 -9.23758,-0.77108 -9.23758,-0.77108l1.32293,-6.45694c0,0 6.25476,-0.06204 9.18242,0.75828c3.78395,1.06026 8.79966,3.41157 8.79966,3.41157z" fill="#ff0000" stroke="#ba0000" stroke-linecap="butt"/><path d="M107.78871,171.98213l-1.68832,5.27539" fill="#ff9ded" stroke="#000000" stroke-linecap="round"/><path d="M103.82908,176.27378l1.47026,-5.46305" fill="#ff9ded" stroke="#ba0000" stroke-linecap="round"/><path d="M102.52904,169.84845l-1.24216,5.60736" fill="#ff9ded" stroke="#ba0000" stroke-linecap="round"/><path d="M99.19447,168.93809l-0.79342,5.80281" fill="#ff9ded" stroke="#ba0000" stroke-linecap="round"/><path d="M96.8901,168.72364l-0.77589,5.85258" fill="#ff9ded" stroke="#ba0000" stroke-linecap="round"/><path d="M93.56908,174.39734l0.47998,-5.82979" fill="#ff9ded" stroke="#ba0000" stroke-linecap="round"/></g><g stroke="#000000" stroke-linecap="butt"><g fill="#006bff"><path d="M78.55798,184.43733c2.04883,-8.83539 11.73174,-14.13767 21.62737,-11.84298c9.89563,2.2947 16.25672,11.31741 14.2079,20.1528c-2.04883,8.83539 -11.73174,14.13767 -21.62737,11.84297c-9.89563,-2.2947 -16.25672,-11.31741 -14.2079,-20.1528z"/></g><path d="M84.21696,186.41638c1.314,-5.6665 7.89154,-8.98185 14.69133,-7.40505c6.79979,1.57681 11.24691,7.44865 9.93291,13.11515c-1.314,5.6665 -7.89153,8.98185 -14.69133,7.40505c-6.79979,-1.57681 -11.24691,-7.44865 -9.93291,-13.11515z" fill="#66a6ff"/></g></g><path d="M86.52108,197.41773l-0.49443,3.95547" fill="#ff9ded" stroke="#000000" stroke-linecap="round"/><path d="M100.36526,200.05468v4.2851" fill="#ff9ded" stroke="#000000" stroke-linecap="round"/></g><path d="M127.79679,312.14261v-104.69683h28.76009l3.02738,103.6877c0,0 -7.01724,6.89571 -10.05005,7.34317c-5.57799,0.82298 -21.73742,-6.33405 -21.73742,-6.33405z" fill="#494949" stroke="none" stroke-width="0" stroke-linecap="butt"/><g data-paper-data="{&quot;index&quot;:null}" stroke="#000000" stroke-width="1" stroke-linecap="butt"><path d="M106.14053,164.63276c0.76895,0 1.39232,0.65453 1.39232,1.46193c0,0.8074 -0.62336,1.46193 -1.39232,1.46193c-0.76895,0 -1.39232,-0.65453 -1.39232,-1.46193c0,-0.8074 0.62336,-1.46193 1.39232,-1.46193z" fill="#ffffff"/><path d="M103.80674,164.40074c0.76895,0 1.39232,0.65453 1.39232,1.46193c0,0.8074 -0.62336,1.46193 -1.39232,1.46193c-0.76895,0 -1.39232,-0.65453 -1.39232,-1.46193c0,-0.8074 0.62336,-1.46193 1.39232,-1.46193z" fill="#ffffff"/><path d="M95.46611,161.29123c0.76895,0 1.39232,0.65453 1.39232,1.46193c0,0.8074 -0.62336,1.46193 -1.39232,1.46193c-0.76895,0 -1.39232,-0.65453 -1.39232,-1.46193c0,-0.8074 0.62336,-1.46193 1.39232,-1.46193z" fill="#ffffff"/><path d="M97.72697,162.47134c0.76895,0 1.39232,0.65453 1.39232,1.46193c0,0.8074 -0.62336,1.46193 -1.39232,1.46193c-0.76895,0 -1.39232,-0.65453 -1.39232,-1.46193c0,-0.8074 0.62336,-1.46193 1.39232,-1.46193z" fill="#ffffff"/><g><path d="M100.73882,164.6025c-0.02075,0.02318 -0.04509,0.04308 -0.07214,0.05884l-0.00523,0.01918l-0.28893,0.0788l-0.13133,-0.0788l-0.07264,-0.07264l-0.0116,-0.00696l-0.00382,-0.00021l-0.00368,-0.00429l-0.01391,-0.00835l-0.02641,-0.02641l-0.00835,-0.01392l-0.00429,-0.00368l-0.00021,-0.00382l-0.00696,-0.01161l-0.04622,-0.04623l-0.02458,-0.04096l-0.03109,-0.03627l-0.01478,-0.02957l-0.01951,-0.01773l-0.0302,-0.04529l-0.02513,-0.01508l-0.05283,-0.05283l-0.01101,-0.01834l-0.0166,-0.01349l-0.03962,-0.05283l-0.00328,-0.00778l-0.00016,-0.00015l-0.02179,-0.01307l-0.05283,-0.05283l-0.01101,-0.01834l-0.0166,-0.01349l-0.03962,-0.05283l-0.01854,-0.04403l-0.01734,-0.02725l-0.00255,-0.00256l-0.03513,-0.05855l-0.02836,-0.04456l-0.00205,-0.00205l-0.00327,-0.00066l-0.00458,-0.0072l-0.00585,-0.00585l-0.03513,-0.05855l-0.03665,-0.05761l-0.0006,-0.00179l-0.03446,-0.04595l-0.00328,-0.00778l-0.00625,-0.00568l-0.02641,-0.03962l-0.00632,-0.01768l-0.01222,-0.01426l-0.01814,-0.03628l-0.01615,-0.02423l-0.01711,-0.0479l-0.02393,-0.04487l-0.01321,-0.05283v-0.00165l-0.01321,-0.02476l-0.01321,-0.05283v-0.00725l-0.0031,-0.00655l-0.01321,-0.06604l0.00024,-0.00492l-0.00196,-0.00452l-0.01321,-0.07925l0.00147,-0.01831l-0.01155,-0.05778l-0.0115,-0.04598v-0.03658l-0.00887,-0.0355v-0.26416l0.01158,-0.04634l0.00366,-0.04763l0.03962,-0.11887l0.01148,-0.01804l0.00165,-0.00744l0.00007,-0.00094l0.00041,-0.00122l0.0025,-0.01129l0.00376,-0.00753l0.00653,-0.01958l0.01148,-0.01805l0.00464,-0.02088l0.01321,-0.02641l0.01222,-0.01426l0.00632,-0.01768l0.02641,-0.03962l0.0219,-0.01991l0.01523,-0.02538l0.06604,-0.06604l0.04096,-0.02458l0.03627,-0.03109l0.02641,-0.01321l0.0177,-0.00394l0.00999,-0.00599l0.00105,0.00029l0.0102,-0.00648l0.03962,-0.01321l0.04763,-0.00367l0.04634,-0.01158h0.07924l0.0355,0.00888h0.03659l0.05283,0.01321l0.01028,0.00549l0.01162,0.00089l0.03962,0.01321l0.04826,0.03071l0.05116,0.02558l0.09245,0.07924l0.01744,0.02459l0.02373,0.0186l0.09246,0.11888l0.00448,0.01014l0.00821,0.00746l0.10566,0.15849l0.01336,0.03738l0.02131,0.03348l0.06604,0.19811l0.00089,0.01162l0.00549,0.01028l0.02365,0.09459l0.00029,0.00088l0.03823,0.06691l0.00468,0.01662l0.01045,0.01376l0.07924,0.1849l0.00383,0.02376l0.01133,0.02123l0.01044,0.04176l0.02281,0.06842l0.00051,0.0066l0.0033,0.00574l0.05283,0.18491l0.00138,0.04142l0.01006,0.04021v0.03172l0.01022,0.07155l-0.00049,0.00474l0.00166,0.00447l0.0127,0.11426l0.01255,0.08786l-0.0022,0.02128l0.00519,0.02075v0.26416l-0.00519,0.02075l0.0022,0.02128l-0.01321,0.09245l-0.00319,0.00782l0.0004,0.00844l-0.01213,0.06064c-0.00914,0.05092 -0.03126,0.09733 -0.06281,0.1357l-0.00384,0.00811l-0.00437,0.00146z" fill="#ff6666"/><path d="M100.60144,164.73869c-0.00812,0.03003 -0.02092,0.05875 -0.038,0.08499l0.00395,0.01948l-0.22269,0.20025l-0.15274,-0.01137l-0.09754,-0.03225l-0.01349,-0.001l-0.00351,0.00153l-0.00521,-0.00218l-0.01619,-0.0012l-0.03547,-0.01173l-0.01371,-0.00868l-0.00549,-0.00136l-0.00191,-0.00332l-0.01143,-0.00724l-0.06207,-0.02052l-0.04037,-0.02555l-0.04407,-0.01843l-0.02649,-0.01977l-0.02541,-0.00707l-0.04733,-0.02689l-0.02922,-0.00218l-0.07094,-0.02345l-0.01807,-0.01144l-0.02089,-0.00459l-0.05914,-0.02939l-0.00643,-0.00548l-0.00021,-0.00005l-0.02534,-0.00188l-0.07094,-0.02345l-0.01807,-0.01143l-0.02089,-0.00459l-0.05914,-0.02939l-0.03635,-0.031l-0.02774,-0.01655l-0.00342,-0.00113l-0.0577,-0.03652l-0.04536,-0.02706l-0.00275,-0.00091l-0.00322,0.00089l-0.00733,-0.00437l-0.00787,-0.00259l-0.0577,-0.03652l-0.05864,-0.03499l-0.00135,-0.00134l-0.05144,-0.02556l-0.00643,-0.00548l-0.00813,-0.00227l-0.04141,-0.02352l-0.01359,-0.01296l-0.01733,-0.00725l-0.03251,-0.02426l-0.02532,-0.01438l-0.03681,-0.0351l-0.04155,-0.02932l-0.03554,-0.04126l-0.00075,-0.00147l-0.02293,-0.01619l-0.03554,-0.04126l-0.00326,-0.00647l-0.00572,-0.00445l-0.04148,-0.05306l-0.00199,-0.0045l-0.00378,-0.00315l-0.04741,-0.06486l-0.00692,-0.01702l-0.0363,-0.04643l-0.03093,-0.0359l-0.01644,-0.03268l-0.02388,-0.02771l-0.11873,-0.23597l-0.01048,-0.0466l-0.01814,-0.04419l-0.01803,-0.124l0.00215,-0.02128l-0.00187,-0.00738l-0.00036,-0.00086l-0.00018,-0.00127l-0.00283,-0.01121l-0.00003,-0.00841l-0.00297,-0.02043l0.00215,-0.02129l-0.00523,-0.02074l-0.00007,-0.02953l0.00452,-0.01823l-0.0023,-0.01864l0.00579,-0.04727l0.01062,-0.02763l0.00219,-0.02952l0.02931,-0.08867l0.02555,-0.04037l0.01843,-0.04407l0.01766,-0.02367l0.01404,-0.01147l0.00623,-0.00984l0.00107,-0.00022l0.00618,-0.01038l0.02946,-0.02961l0.0409,-0.02468l0.0362,-0.03118l0.07079,-0.03561l0.0357,-0.00802l0.03268,-0.01644l0.05313,-0.01194l0.01165,0.00027l0.01078,-0.00442l0.04133,-0.00601l0.05691,0.00574l0.0572,-0.00015l0.11821,0.02924l0.02664,0.01412l0.02955,0.00595l0.13601,0.06464l0.00857,0.00705l0.01069,0.00298l0.16562,0.0941l0.02872,0.02739l0.03409,0.02034l0.14803,0.1473l0.00602,0.00998l0.00952,0.00672l0.06364,0.07387l0.00066,0.00066l0.06423,0.04259l0.01165,0.01275l0.01551,0.00758l0.15389,0.12957l0.0141,0.0195l0.01966,0.01387l0.0281,0.03261l0.05113,0.05087l0.00342,0.00567l0.00554,0.00363l0.13031,0.14144l0.01986,0.03639l0.02706,0.03141l0.01426,0.02833l0.04129,0.05932l0.00169,0.00445l0.0035,0.00325l0.06269,0.09636l0.0507,0.07285l0.00759,0.01999l0.01397,0.01621l0.11873,0.23597l0.00469,0.02087l0.01153,0.01802l0.02975,0.08853l0.00066,0.00842l0.00415,0.00736l0.01641,0.05962c0.01471,0.0496 0.01582,0.101 0.00489,0.14946l0.00021,0.00898l-0.00325,0.00326z" fill="#ff6666"/><path d="M100.41759,164.79786c0.00601,0.03053 0.00726,0.06194 0.00354,0.09302l0.01216,0.01572l-0.11103,0.27815l-0.14199,0.05743l-0.10174,0.01427l-0.01255,0.00507l-0.00248,0.00293l-0.00564,0.00036l-0.01504,0.00608l-0.037,0.00519l-0.01614,-0.00171l-0.00552,0.00121l-0.00319,-0.00213l-0.01345,-0.00143l-0.06474,0.00908l-0.0475,-0.00503l-0.04768,0.00299l-0.03251,-0.006l-0.02591,0.0049l-0.05434,-0.00316l-0.02717,0.01099l-0.07399,0.01038l-0.02127,-0.00226l-0.02077,0.00513l-0.06604,-0.00017l-0.00818,-0.00207l-0.00022,0.00004l-0.02355,0.00952l-0.07399,0.01038l-0.02127,-0.00226l-0.02077,0.00513l-0.06604,-0.00017l-0.04632,-0.0117l-0.0322,-0.00256l-0.00358,0.0005l-0.0679,-0.0072l-0.05265,-0.00419l-0.00288,0.0004l-0.00249,0.00221l-0.00851,-0.00067l-0.0082,0.00115l-0.0679,-0.0072l-0.06807,-0.00541l-0.00179,-0.0006l-0.05744,-0.00015l-0.00818,-0.00207l-0.0083,0.00157l-0.04754,-0.00276l-0.01793,-0.00561l-0.01874,0.00117l-0.03989,-0.00736l-0.02907,-0.00169l-0.04854,-0.01518l-0.05024,-0.0079l-0.05014,-0.02126l-0.00132,-0.00099l-0.02773,-0.00436l-0.05014,-0.02127l-0.00579,-0.00436l-0.0071,-0.00147l-0.06068,-0.02921l-0.00379,-0.00314l-0.00478,-0.00115l-0.07123,-0.03716l-0.01374,-0.01219l-0.0531,-0.02556l-0.04363,-0.0185l-0.02921,-0.02202l-0.03368,-0.01428l-0.21092,-0.15904l-0.03003,-0.03715l-0.03583,-0.0316l-0.07106,-0.1032l-0.00749,-0.02003l-0.00494,-0.0058l-0.00071,-0.00062l-0.00073,-0.00107l-0.0075,-0.00879l-0.00374,-0.00753l-0.01171,-0.01701l-0.0075,-0.02003l-0.01388,-0.01628l-0.01314,-0.02645l-0.00402,-0.01834l-0.01031,-0.0157l-0.01573,-0.04495l-0.00271,-0.02948l-0.0111,-0.02744l-0.01297,-0.09249l0.00503,-0.0475l-0.00299,-0.04768l0.00535,-0.02904l0.00751,-0.0165l0.00123,-0.01158l0.00086,-0.00066l0.00096,-0.01204l0.01331,-0.03959l0.02575,-0.04024l0.01865,-0.04398l0.04771,-0.06327l0.02845,-0.023l0.02202,-0.02921l0.04235,-0.03423l0.01057,-0.00491l0.0077,-0.00874l0.0344,-0.02368l0.05358,-0.02005l0.05123,-0.02545l0.11894,-0.02611l0.03013,0.00087l0.02913,-0.00775l0.15058,-0.00226l0.0108,0.00253l0.0109,-0.00207l0.19017,0.01105l0.03788,0.01184l0.03957,0.00315l0.19795,0.06654l0.00981,0.00628l0.01151,0.00181l0.08977,0.03806l0.00087,0.0003l0.07644,0.00975l0.0161,0.00627l0.01727,-0.00006l0.19535,0.04805l0.02128,0.01124l0.02377,0.00374l0.03963,0.01681l0.06836,0.02298l0.00557,0.00357l0.00657,0.00081l0.17945,0.06915l0.03391,0.02384l0.03816,0.01619l0.02532,0.01909l0.06328,0.03491l0.00349,0.00325l0.00457,0.00137l0.09887,0.05865l0.07771,0.04288l0.01566,0.01457l0.01969,0.00835l0.21092,0.15904l0.01345,0.01663l0.01832,0.01105l0.06587,0.06621l0.00432,0.00725l0.00697,0.00475l0.04112,0.04619c0.03515,0.03795 0.05889,0.08357 0.07055,0.13185l0.00416,0.00795l-0.00147,0.00436z" fill="#ff6666"/><path d="M100.36194,164.85151c0.02262,0.02136 0.04189,0.0462 0.05693,0.07366l0.01905,0.00574l0.0712,0.2909l-0.08222,0.12922l-0.07453,0.07071l-0.00727,0.01141l-0.00032,0.00381l-0.00438,0.00356l-0.00871,0.01369l-0.0271,0.02572l-0.01413,0.00798l-0.00379,0.0042l-0.00382,0.00011l-0.01178,0.00666l-0.04742,0.045l-0.0416,0.0235l-0.03707,0.03013l-0.02994,0.014l-0.01824,0.01904l-0.04608,0.029l-0.01572,0.02473l-0.05421,0.05143l-0.01863,0.01052l-0.01392,0.01624l-0.05385,0.03823l-0.00787,0.00307l-0.00015,0.00015l-0.01364,0.02144l-0.0542,0.05143l-0.01863,0.01052l-0.01392,0.01624l-0.05385,0.03823l-0.0445,0.01738l-0.02769,0.01662l-0.00262,0.00249l-0.05945,0.03358l-0.04528,0.02718l-0.0021,0.00199l-0.00075,0.00325l-0.00732,0.0044l-0.00601,0.0057l-0.05946,0.03358l-0.05855,0.03514l-0.00181,0.00056l-0.04684,0.03325l-0.00787,0.00307l-0.00584,0.0061l-0.0403,0.02536l-0.01784,0.00585l-0.01458,0.01184l-0.03674,0.01719l-0.02464,0.01551l-0.04832,0.01585l-0.04548,0.02275l-0.05316,0.01182l-0.00165,-0.00004l-0.0251,0.01255l-0.05316,0.01182l-0.00725,-0.00019l-0.00663,0.00293l-0.06636,0.01147l-0.00491,-0.00036l-0.00456,0.00185l-0.07957,0.01113l-0.01826,-0.00194l-0.05807,0.01004l-0.04626,0.01029l-0.03657,-0.00096l-0.03571,0.00794l-0.26407,-0.00692l-0.04602,-0.01279l-0.04751,-0.00492l-0.11779,-0.04273l-0.01773,-0.01195l-0.00738,-0.00185l-0.00093,-0.0001l-0.00121,-0.00044l-0.01122,-0.0028l-0.00742,-0.00396l-0.01941,-0.00704l-0.01773,-0.01195l-0.02075,-0.00519l-0.02606,-0.01389l-0.01394,-0.01259l-0.01752,-0.00677l-0.03892,-0.02745l-0.01933,-0.02241l-0.02497,-0.01589l-0.06429,-0.06774l-0.0235,-0.0416l-0.03013,-0.03707l-0.01251,-0.02675l-0.00347,-0.01779l-0.00574,-0.01014l0.00032,-0.00104l-0.00622,-0.01036l-0.01216,-0.03996l-0.00241,-0.04771l-0.01037,-0.04663l0.00208,-0.07922l0.00981,-0.03525l0.00096,-0.03657l0.01458,-0.05247l0.00575,-0.01013l0.0012,-0.01159l0.01424,-0.03927l0.03196,-0.04744l0.02691,-0.05047l0.08164,-0.09035l0.02504,-0.0168l0.01921,-0.02323l0.12126,-0.08931l0.01026,-0.00422l0.00767,-0.00801l0.16121,-0.10147l0.03772,-0.01236l0.03403,-0.02042l0.19978,-0.06082l0.01163,-0.00059l0.01042,-0.00522l0.09518,-0.02116l0.00089,-0.00027l0.06789,-0.03646l0.01674,-0.00423l0.01403,-0.01009l0.18692,-0.07438l0.02385,-0.0032l0.02152,-0.01077l0.04202,-0.00934l0.069,-0.021l0.00661,-0.00034l0.00582,-0.00316l0.18623,-0.04797l0.04145,-0.00029l0.04047,-0.00899l0.0317,0.00084l0.07179,-0.00834l0.00472,0.00061l0.00452,-0.00154l0.11455,-0.0097l0.08815,-0.01025l0.02121,0.00276l0.02088,-0.00464l0.26407,0.00692l0.02061,0.00573l0.02133,-0.00164l0.09208,0.01562l0.00773,0.0034l0.00845,-0.00018l0.06031,0.01371c0.05066,0.01047 0.09648,0.0338 0.13402,0.06633l0.00801,0.00405l0.00134,0.0044z" fill="#ff6666"/><path d="M100.51503,165.09093c0.02957,0.00969 0.05757,0.02398 0.08287,0.04242l0.01967,-0.00292l0.18827,0.23291l-0.01937,0.15193l-0.03733,0.09571l-0.00171,0.01342l0.00135,0.00359l-0.00245,0.00509l-0.00205,0.0161l-0.01357,0.0348l-0.00939,0.01324l-0.00164,0.00541l-0.00342,0.00173l-0.00782,0.01103l-0.02375,0.06091l-0.02763,0.03897l-0.02072,0.04304l-0.02114,0.02542l-0.0084,0.02499l-0.02934,0.04586l-0.00371,0.02907l-0.02715,0.06961l-0.01237,0.01745l-0.00568,0.02062l-0.03246,0.05751l-0.00581,0.00613l-0.00007,0.00021l-0.00321,0.02521l-0.02715,0.06961l-0.01237,0.01744l-0.00568,0.02062l-0.03246,0.05751l-0.03287,0.03467l-0.01799,0.02683l-0.00131,0.00336l-0.03949,0.0557l-0.02941,0.04387l-0.00106,0.0027l0.00072,0.00326l-0.00475,0.00709l-0.00301,0.00771l-0.03949,0.0557l-0.03802,0.05672l-0.0014,0.00127l-0.02823,0.05003l-0.00581,0.00613l-0.00269,0.008l-0.02566,0.04011l-0.01366,0.01289l-0.00814,0.01692l-0.02594,0.03119l-0.0157,0.02453l-0.03698,0.03491l-0.03147,0.03995l-0.04307,0.03332l-0.00151,0.00066l-0.01737,0.02204l-0.04307,0.03333l-0.00664,0.00291l-0.00474,0.00547l-0.05516,0.03864l-0.0046,0.00176l-0.00334,0.00361l-0.06726,0.04395l-0.01735,0.00602l-0.04828,0.0338l-0.03748,0.029l-0.0335,0.0147l-0.02893,0.02239l-0.24189,0.10615l-0.0471,0.00802l-0.04509,0.01579l-0.12477,0.01149l-0.02114,-0.00327l-0.00747,0.00147l-0.00088,0.00031l-0.00128,0.00012l-0.01134,0.00224l-0.0084,-0.00043l-0.02056,0.00189l-0.02114,-0.00327l-0.02098,0.00414l-0.0295,-0.00148l-0.01797,-0.00546l-0.01874,0.00132l-0.0469,-0.00827l-0.02703,-0.01205l-0.02936,-0.00374l-0.08701,-0.03394l-0.03897,-0.02763l-0.04304,-0.02072l-0.02271,-0.01888l-0.01072,-0.01463l-0.0095,-0.00674l-0.00016,-0.00107l-0.01003,-0.00673l-0.02802,-0.03098l-0.0225,-0.04214l-0.02923,-0.03778l-0.03185,-0.07257l-0.00614,-0.03607l-0.0147,-0.03349l-0.00913,-0.05369l0.00089,-0.01162l-0.00385,-0.011l-0.00382,-0.04159l0.00873,-0.05654l0.00287,-0.05713l0.03541,-0.11651l0.0155,-0.02586l0.00749,-0.02921l0.0717,-0.13243l0.00749,-0.00818l0.00353,-0.01052l0.10267,-0.16045l0.02886,-0.02725l0.0221,-0.03297l0.15488,-0.14008l0.01028,-0.00549l0.00721,-0.00915l0.07711,-0.05967l0.00069,-0.00063l0.0459,-0.0619l0.01335,-0.01096l0.00839,-0.01509l0.13747,-0.14688l0.02021,-0.01306l0.01489,-0.0189l0.03404,-0.02635l0.05349,-0.04838l0.00584,-0.00312l0.00392,-0.00533l0.14809,-0.12269l0.03738,-0.01792l0.03278,-0.02536l0.02904,-0.01275l0.06141,-0.03811l0.00454,-0.00146l0.00342,-0.00331l0.09953,-0.05754l0.07541,-0.0468l0.02037,-0.00654l0.01692,-0.01309l0.24189,-0.10615l0.02108,-0.00359l0.0186,-0.01057l0.08997,-0.02506l0.00845,-0.00023l0.00756,-0.00376l0.06041,-0.01326c0.0503,-0.01208 0.10169,-0.01049 0.14951,0.00298l0.00897,0.00025l0.00309,0.00341z" fill="#ff6666"/><path d="M100.74859,164.91323c0.0305,0.00706 0.05963,0.01888 0.08631,0.0349l0.0046,0.0001l0.00606,0.00662c0.04147,0.02735 0.07631,0.06516 0.10008,0.11111l0.0295,0.05435l0.0021,0.00818l0.00535,0.00653l0.03992,0.08443l0.00418,0.02098l0.01108,0.01829l0.07801,0.25238l0.00117,0.02136l0.00838,0.01967l0.01396,0.08765l0.02161,0.11291l-0.00026,0.00476l0.00187,0.00439l0.01136,0.07138l0.00937,0.0303l0.00227,0.04139l0.01092,0.03998l0.00414,0.19227l-0.00147,0.00645l0.00147,0.00645l-0.00158,0.0721l0.00236,0.04298l-0.00454,0.02362l0.00335,0.02383l-0.02109,0.20007l-0.00593,0.01622l0.00044,0.01726l-0.01676,0.07521l-0.00003,0.00093l0.00534,0.09735l-0.0022,0.01144l0.00258,0.01136l-0.00458,0.20878l-0.01047,0.03829l-0.00172,0.03966l-0.05414,0.18263l-0.00564,0.00955l-0.00129,0.01102l-0.05322,0.14088l-0.01718,0.02477l-0.0094,0.02864l-0.06493,0.10302l-0.04133,0.03955l-0.03704,0.0436l-0.03395,0.02432l-0.01083,0.00428l-0.0082,0.00828l-0.04658,0.02822l-0.03495,0.01081l-0.03129,0.01895l-0.07571,0.02341l-0.0477,0.00261l-0.04659,0.01057l-0.04176,-0.00092l-0.01165,-0.00319l-0.00092,0.00058l-0.01132,-0.00278l-0.01807,0.00147l-0.02914,-0.00482l-0.04384,-0.01899l-0.04639,-0.01138l-0.0826,-0.04359l-0.02204,-0.01975l-0.0268,-0.01255l-0.03694,-0.03005l-0.01126,-0.01503l-0.01589,-0.01001l-0.02042,-0.02133l-0.0106,-0.01858l-0.0163,-0.01385l-0.01202,-0.01679l-0.00582,-0.00608l-0.00574,-0.01004l-0.00075,-0.00105l-0.00035,-0.00086l-0.00378,-0.00662l-0.01631,-0.01386l-0.07296,-0.10187l-0.01756,-0.04443l-0.02475,-0.04086l-0.07801,-0.25237l-0.002,-0.03653l-0.01081,-0.03495l-0.00259,-0.04731l-0.00603,-0.05863l-0.00681,-0.01706l-0.01079,-0.07961l0.00055,-0.00489l-0.00168,-0.00462l-0.00689,-0.067l0.00103,-0.00717l-0.00214,-0.00693l-0.00299,-0.05438l0.00531,-0.02756l-0.00049,-0.00157l-0.00299,-0.05438l0.00961,-0.04994l0.00219,-0.05081l0.00828,-0.02792l0.00662,-0.04002l0.00747,-0.01723l0.00081,-0.01876l0.01354,-0.04566l0.00429,-0.00727l0.00084,-0.0084l0.01936,-0.05408l0.00004,-0.00189l0.01801,-0.06587l0.01627,-0.06631l0.00387,-0.00733l0.00226,-0.00823l0.00293,-0.00159l0.00136,-0.00257l0.01393,-0.05095l0.01627,-0.06632l0.00168,-0.0032l0.00851,-0.03115l0.00471,-0.04754l0.02225,-0.06217l0.01187,-0.01779l0.0051,-0.02078l0.03488,-0.06608l0.01695,-0.01892l0.00011,-0.00019l0.00084,-0.0084l0.02225,-0.06217l0.01188,-0.01779l0.0051,-0.02078l0.03487,-0.06608l0.01956,-0.02183l0.01547,-0.05219l0.0134,-0.02271l0.00539,-0.03262l0.01899,-0.04384l0.01138,-0.04639l0.03052,-0.05782l0.00322,-0.01314l-0.00093,-0.00371l0.00301,-0.00478l0.00387,-0.01576l0.01743,-0.03304l0.01083,-0.01209l0.00225,-0.00518l0.0036,-0.00133l0.00903,-0.01008l0.04795,-0.09086l0.1022,-0.11407l0.29932,-0.01005l0.01066,0.01679z" data-paper-data="{&quot;index&quot;:null}" fill="#ff6666"/><path d="M100.77138,165.00366c0.02076,-0.02318 0.04509,-0.04308 0.07215,-0.05884l0.00523,-0.01918l0.28893,-0.0788l0.13133,0.0788l0.07264,0.07264l0.01161,0.00696l0.00382,0.00021l0.00368,0.00429l0.01392,0.00835l0.02641,0.02641l0.00835,0.01392l0.00429,0.00368l0.00021,0.00382l0.00696,0.0116l0.04622,0.04622l0.02458,0.04096l0.03109,0.03627l0.01478,0.02957l0.01951,0.01773l0.0302,0.04529l0.02513,0.01508l0.05283,0.05283l0.01101,0.01834l0.0166,0.01349l0.03962,0.05283l0.00328,0.00778l0.00016,0.00015l0.02179,0.01307l0.05283,0.05283l0.01101,0.01834l0.0166,0.01349l0.03962,0.05283l0.01854,0.04403l0.01734,0.02725l0.00255,0.00256l0.03513,0.05855l0.02836,0.04456l0.00205,0.00205l0.00328,0.00066l0.00458,0.0072l0.00585,0.00585l0.03513,0.05855l0.03666,0.05761l0.0006,0.00179l0.03446,0.04595l0.00328,0.00778l0.00625,0.00568l0.02641,0.03962l0.00632,0.01768l0.01222,0.01426l0.01814,0.03628l0.01615,0.02423l0.01711,0.04789l0.02393,0.04487l0.01321,0.05283v0.00165l0.01321,0.02476l0.01321,0.05283v0.00725l0.0031,0.00655l0.01321,0.06604l-0.00024,0.00492l0.00197,0.00452l0.01321,0.07925l-0.00147,0.01831l0.01155,0.05779l0.0115,0.04598v0.03658l0.00888,0.0355v0.26416l-0.01159,0.04634l-0.00366,0.04763l-0.03962,0.11887l-0.01148,0.01805l-0.00165,0.00744l-0.00007,0.00093l-0.0004,0.00123l-0.00251,0.01129l-0.00376,0.00753l-0.00653,0.01959l-0.01148,0.01804l-0.00464,0.02088l-0.01321,0.02641l-0.01222,0.01426l-0.00632,0.01768l-0.02641,0.03962l-0.0219,0.01991l-0.01523,0.02538l-0.06604,0.06604l-0.04096,0.02457l-0.03627,0.03109l-0.02641,0.01321l-0.0177,0.00393l-0.00999,0.00599l-0.00105,-0.00029l-0.0102,0.00648l-0.03962,0.01321l-0.04763,0.00367l-0.04635,0.01158h-0.07924l-0.0355,-0.00888h-0.03658l-0.05283,-0.01321l-0.01028,-0.00549l-0.01162,-0.00089l-0.03962,-0.01321l-0.04826,-0.03072l-0.05116,-0.02558l-0.09245,-0.07924l-0.01745,-0.02459l-0.02373,-0.0186l-0.09245,-0.11887l-0.00448,-0.01014l-0.00821,-0.00746l-0.10566,-0.15849l-0.01336,-0.03738l-0.02131,-0.03348l-0.06604,-0.19811l-0.00089,-0.01162l-0.00549,-0.01028l-0.02365,-0.09459l-0.00029,-0.00088l-0.03823,-0.06691l-0.00468,-0.01662l-0.01045,-0.01376l-0.07924,-0.18491l-0.00383,-0.02375l-0.01133,-0.02123l-0.01043,-0.04176l-0.02281,-0.06842l-0.00051,-0.0066l-0.0033,-0.00574l-0.05283,-0.18491l-0.00138,-0.04142l-0.01005,-0.04021v-0.03171l-0.01022,-0.07155l0.00049,-0.00474l-0.00166,-0.00447l-0.0127,-0.11426l-0.01255,-0.08786l0.00219,-0.02128l-0.00519,-0.02075v-0.26416l0.00519,-0.02075l-0.00219,-0.02128l0.01321,-0.09245l0.00319,-0.00782l-0.0004,-0.00844l0.01213,-0.06064c0.00914,-0.05092 0.03126,-0.09733 0.0628,-0.1357l0.00384,-0.00811l0.00437,-0.00146z" data-paper-data="{&quot;index&quot;:null}" fill="#ff6666"/><path d="M100.71463,164.8609c0.00665,-0.03039 0.01804,-0.0597 0.03381,-0.08673l-0.00489,-0.01927l0.21266,-0.21088l0.15311,0.00391l0.099,0.02745l0.01353,0.00035l0.00343,-0.0017l0.00531,0.00192l0.01622,0.00041l0.036,0.00998l0.01412,0.008l0.00554,0.00109l0.00207,0.00322l0.01177,0.00666l0.063,0.01746l0.04156,0.02354l0.04492,0.01625l0.02743,0.01845l0.02572,0.00583l0.04859,0.02454l0.0293,0.00075l0.07199,0.01996l0.01861,0.01054l0.02109,0.00356l0.06051,0.02647l0.00669,0.00515l0.00022,0.00005l0.0254,0.00065l0.07199,0.01996l0.01861,0.01054l0.02109,0.00356l0.06051,0.02647l0.03782,0.02919l0.02851,0.01518l0.00348,0.00097l0.05941,0.03366l0.04662,0.02481l0.00279,0.00077l0.00317,-0.00104l0.00753,0.00401l0.00798,0.00221l0.05941,0.03366l0.06028,0.03208l0.00141,0.00127l0.05262,0.02302l0.00669,0.00516l0.00824,0.00187l0.04251,0.02148l0.0142,0.01228l0.01766,0.00639l0.03366,0.02265l0.02599,0.01314l0.03847,0.03326l0.04293,0.02728l0.03752,0.03948l0.00081,0.00144l0.02369,0.01505l0.03752,0.03948l0.00357,0.00631l0.00593,0.00417l0.04402,0.05097l0.00221,0.0044l0.00393,0.00296l0.05053,0.06247l0.00774,0.01665l0.03852,0.04461l0.03265,0.03435l0.01802,0.03185l0.0252,0.02652l0.1301,0.2299l0.01274,0.04604l0.02027,0.04325l0.02405,0.12297l-0.00111,0.02137l0.00222,0.00728l0.0004,0.00085l0.00025,0.00127l0.00338,0.01106l0.00043,0.0084l0.00397,0.02027l-0.00111,0.02137l0.00625,0.02046l0.00151,0.02949l-0.00361,0.01843l0.00321,0.01851l-0.00348,0.0475l-0.00926,0.02811l-0.00076,0.02959l-0.02495,0.09l-0.02354,0.04156l-0.01625,0.04492l-0.01649,0.02451l-0.01346,0.01214l-0.00574,0.01013l-0.00106,0.00026l-0.00568,0.01066l-0.02798,0.03101l-0.03965,0.02665l-0.03463,0.03291l-0.06897,0.03903l-0.03526,0.00975l-0.03185,0.01802l-0.05248,0.01452l-0.01165,0.00029l-0.01055,0.00494l-0.04099,0.00802l-0.05713,-0.00296l-0.05713,0.00293l-0.11949,-0.02344l-0.02729,-0.01281l-0.02981,-0.0045l-0.13901,-0.05792l-0.00889,-0.00662l-0.01082,-0.00246l-0.17002,-0.08591l-0.03003,-0.02596l-0.03503,-0.01865l-0.15505,-0.1399l-0.0065,-0.00967l-0.00983,-0.00625l-0.06717,-0.07067l-0.00069,-0.00063l-0.06622,-0.0394l-0.01225,-0.01216l-0.01587,-0.00682l-0.16003,-0.1219l-0.01504,-0.01879l-0.02031,-0.0129l-0.02965,-0.0312l-0.05355,-0.04832l-0.00369,-0.00549l-0.0057,-0.00336l-0.13704,-0.13491l-0.0216,-0.03538l-0.02856,-0.03004l-0.01561,-0.0276l-0.04413,-0.05724l-0.00191,-0.00437l-0.00365,-0.00307l-0.06732,-0.09319l-0.0542,-0.07028l-0.00857,-0.0196l-0.01474,-0.0155l-0.1301,-0.2299l-0.0057,-0.02062l-0.0124,-0.01743l-0.03404,-0.08697l-0.00107,-0.00838l-0.00451,-0.00715l-0.01931,-0.05875c-0.01712,-0.04882 -0.02072,-0.10011 -0.01217,-0.14904l-0.00066,-0.00895l0.00309,-0.00341z" data-paper-data="{&quot;index&quot;:null}" fill="#ff6666"/><path d="M100.754,164.61825c-0.00881,-0.02983 -0.01296,-0.06101 -0.01214,-0.0923l-0.01357,-0.01454l0.0848,-0.28723l0.13606,-0.07033l0.09998,-0.02362l0.01202,-0.00621l0.00218,-0.00314l0.00558,-0.00087l0.01442,-0.00745l0.03636,-0.00859l0.01623,0.00021l0.00538,-0.00172l0.00337,0.00183l0.01353,0.00017l0.06363,-0.01504l0.04777,0.00062l0.0472,-0.00738l0.03293,0.00296l0.02535,-0.00727l0.05441,-0.00188l0.02603,-0.01346l0.07271,-0.01719l0.02139,0.00027l0.0202,-0.00704l0.06577,-0.00595l0.00834,0.0013l0.00021,-0.00005l0.02257,-0.01167l0.07271,-0.01719l0.02139,0.00027l0.0202,-0.00704l0.06578,-0.00595l0.0472,0.00737l0.0323,-0.00044l0.00351,-0.00084l0.06828,0.00088l0.05281,-0.00071l0.00281,-0.00066l0.00228,-0.00244l0.00854,-0.00012l0.00806,-0.0019l0.06827,0.00088l0.06828,-0.00092l0.00184,0.00044l0.0572,-0.00517l0.00835,0.0013l0.00811,-0.00233l0.0476,-0.00165l0.01836,0.00391l0.01855,-0.0029l0.0404,0.00363l0.02911,-0.001l0.04974,0.01062l0.05075,0.00322l0.05189,0.01652l0.0014,0.00086l0.02801,0.00178l0.05189,0.01652l0.00616,0.00381l0.0072,0.0008l0.06313,0.02347l0.00406,0.00279l0.00487,0.0007l0.07436,0.03041l0.0148,0.01087l0.05524,0.02054l0.04516,0.01438l0.03113,0.01923l0.03486,0.0111l0.22473,0.13883l0.03334,0.03421l0.0386,0.02815l0.08031,0.09618l0.00932,0.01926l0.00546,0.00532l0.00076,0.00056l0.00083,0.00098l0.00828,0.00807l0.00442,0.00716l0.01323,0.01585l0.00932,0.01926l0.01532,0.01492l0.01553,0.02512l0.00571,0.01789l0.01173,0.01467l0.01983,0.0433l0.00544,0.0291l0.01359,0.02629l0.02148,0.09089l-0.00062,0.04777l0.00738,0.0472l-0.00264,0.02942l-0.00595,0.01712l-0.00015,0.01164l-0.00079,0.00075l0.00016,0.01208l-0.00959,0.04065l-0.02191,0.04245l-0.0145,0.04552l-0.04165,0.06742l-0.0262,0.02553l-0.01923,0.03113l-0.039,0.03801l-0.01007,0.00586l-0.00686,0.00941l-0.03206,0.02677l-0.05149,0.02492l-0.04865,0.03009l-0.116,0.03702l-0.03009,0.00193l-0.0283,0.01041l-0.14972,0.01619l-0.01099,-0.00152l-0.01066,0.00306l-0.19037,0.00661l-0.03882,-0.00828l-0.03969,0.00053l-0.20327,-0.04793l-0.01035,-0.00534l-0.01163,-0.00074l-0.09291,-0.02959l-0.0009,-0.00021l-0.07702,-0.00264l-0.0166,-0.00476l-0.01719,0.00167l-0.19896,-0.02975l-0.02223,-0.00922l-0.02402,-0.00152l-0.04101,-0.01306l-0.0702,-0.01655l-0.00589,-0.00304l-0.00662,-0.0002l-0.18508,-0.05222l-0.03597,-0.0206l-0.03949,-0.01258l-0.02698,-0.01666l-0.06624,-0.02891l-0.00378,-0.00291l-0.00468,-0.00094l-0.10388,-0.04924l-0.08134,-0.0355l-0.01694,-0.01306l-0.02037,-0.00649l-0.22473,-0.13883l-0.01493,-0.01531l-0.01926,-0.00931l-0.07172,-0.05982l-0.00498,-0.00682l-0.00738,-0.00409l-0.04522,-0.04219c-0.03851,-0.03454 -0.06639,-0.07774 -0.08246,-0.12474l-0.00488,-0.00753l0.00106,-0.00448z" data-paper-data="{&quot;index&quot;:null}" fill="#ff6666"/><path d="M100.72353,164.49671c-0.02506,-0.01844 -0.04721,-0.04076 -0.06549,-0.06617l-0.0196,-0.00337l-0.10616,-0.28005l0.06584,-0.13829l0.06534,-0.07928l0.00582,-0.01222l-0.00015,-0.00382l0.00391,-0.00407l0.00697,-0.01466l0.02376,-0.02883l0.01305,-0.00965l0.00325,-0.00462l0.00379,-0.00057l0.01088,-0.00804l0.04158,-0.05045l0.03842,-0.0284l0.03312,-0.03442l0.02801,-0.01755l0.01578,-0.02112l0.04219,-0.0344l0.0126,-0.02646l0.04752,-0.05766l0.0172,-0.01271l0.01184,-0.01782l0.04879,-0.04451l0.00744,-0.00401l0.00014,-0.00017l0.01092,-0.02294l0.04752,-0.05766l0.0172,-0.01271l0.01184,-0.01782l0.04879,-0.04451l0.04204,-0.02268l0.02546,-0.01988l0.0023,-0.00279l0.05492,-0.04059l0.04163,-0.0325l0.00185,-0.00224l0.00034,-0.00332l0.00673,-0.00525l0.00527,-0.00639l0.05491,-0.04059l0.05382,-0.04202l0.00173,-0.00077l0.04242,-0.03872l0.00744,-0.00401l0.00505,-0.00676l0.03691,-0.0301l0.017,-0.00798l0.01302,-0.01354l0.03438,-0.02154l0.02257,-0.01841l0.04603,-0.02162l0.04237,-0.02813l0.05132,-0.01822l0.00165,-0.00016l0.02339,-0.01552l0.05132,-0.01822l0.00721,-0.00069l0.00623,-0.00371l0.06447,-0.01948l0.00492,-0.00024l0.00431,-0.00239l0.07762,-0.02075l0.01836,-0.0003l0.05642,-0.01705l0.04466,-0.01585l0.03642,-0.00351l0.03448,-0.01224l0.26294,-0.02535l0.04725,0.00709l0.04776,-0.00092l0.12212,0.02803l0.01906,0.0097l0.00756,0.00093l0.00094,-0.00002l0.00126,0.00029l0.01147,0.00141l0.00785,0.00302l0.02012,0.00462l0.01906,0.0097l0.02123,0.00261l0.02756,0.01061l0.01537,0.0108l0.01821,0.00459l0.04198,0.0225l0.02192,0.01989l0.02673,0.01273l0.07207,0.05939l0.0284,0.03842l0.03442,0.03312l0.01569,0.02503l0.00561,0.01724l0.00693,0.00937l-0.00018,0.00107l0.00744,0.00952l0.01694,0.03817l0.00822,0.04706l0.01598,0.04502l0.0076,0.07889l-0.00543,0.03618l0.00351,0.03642l-0.00808,0.05386l-0.00448,0.01076l0.00023,0.01164l-0.00934,0.0407l-0.02594,0.05098l-0.02056,0.05339l-0.07001,0.09963l-0.0228,0.01973l-0.01624,0.02541l-0.10945,0.10344l-0.00967,0.00544l-0.00664,0.00889l-0.14762,0.12038l-0.03592,0.01687l-0.03129,0.02443l-0.19087,0.08474l-0.01148,0.002l-0.00971,0.00645l-0.09189,0.03261l-0.00085,0.00037l-0.06293,0.04447l-0.0161,0.00625l-0.01268,0.01173l-0.17645,0.09662l-0.02328,0.00609l-0.02005,0.01331l-0.04057,0.0144l-0.06591,0.02926l-0.00652,0.00114l-0.00539,0.00384l-0.17899,0.07033l-0.0411,0.00534l-0.03907,0.01387l-0.03156,0.00305l-0.07024,0.01704l-0.00477,-0.00004l-0.00429,0.00208l-0.11251,0.0236l-0.08625,0.02092l-0.02139,-0.00015l-0.02016,0.00716l-0.26294,0.02535l-0.02116,-0.00318l-0.02097,0.00423l-0.0933,-0.00428l-0.00809,-0.00242l-0.00836,0.00121l-0.06153,-0.00625c-0.05157,-0.00422 -0.09989,-0.02178 -0.1411,-0.04949l-0.00845,-0.00305l-0.00187,-0.00421z" data-paper-data="{&quot;index&quot;:null}" fill="#ff6666"/><path d="M100.95785,164.64583c-0.02972,0.00919 -0.06083,0.01371 -0.09214,0.01329l-0.01437,0.01376l-0.28827,-0.08121l-0.07202,-0.13518l-0.02487,-0.09968l-0.00635,-0.01194l-0.00317,-0.00216l-0.00095,-0.00557l-0.00764,-0.01432l-0.00905,-0.03624l0.00001,-0.01623l-0.00178,-0.00536l0.00178,-0.0034l0.00001,-0.01353l-0.01583,-0.06343l0.00003,-0.04777l-0.00798,-0.0471l0.00255,-0.03296l-0.00759,-0.02525l-0.00257,-0.05438l-0.01377,-0.02586l-0.01809,-0.07249l0.00001,-0.02139l-0.00729,-0.02011l-0.00676,-0.06569l0.00119,-0.00836l-0.00006,-0.00021l-0.01194,-0.02242l-0.01809,-0.0725l0.00001,-0.02139l-0.00729,-0.02011l-0.00676,-0.06569l0.00677,-0.04729l-0.00084,-0.03229l-0.00087,-0.00351l0.00003,-0.06828l-0.00137,-0.05279l-0.0007,-0.00281l-0.00247,-0.00225l-0.00022,-0.00854l-0.002,-0.00804l0.00004,-0.06828l-0.00177,-0.06826l0.00041,-0.00185l-0.00589,-0.05714l0.00119,-0.00836l-0.00243,-0.00808l-0.00224,-0.04757l0.00369,-0.01842l-0.00313,-0.01851l0.00313,-0.04045l-0.00137,-0.02909l0.01,-0.04986l0.00259,-0.05079l0.01588,-0.05209l0.00085,-0.00141l0.00143,-0.02803l0.01588,-0.05209l0.00373,-0.00621l0.00071,-0.00721l0.02268,-0.06342l0.00273,-0.00409l0.00064,-0.00488l0.02948,-0.07473l0.01068,-0.01494l0.01985,-0.05549l0.01382,-0.04533l0.01884,-0.03136l0.01066,-0.035l0.13601,-0.22645l0.03379,-0.03377l0.02767,-0.03895l0.09517,-0.08151l0.01914,-0.00956l0.00524,-0.00552l0.00055,-0.00076l0.00097,-0.00084l0.00797,-0.00838l0.0071,-0.00452l0.01569,-0.01343l0.01914,-0.00956l0.01473,-0.01551l0.02493,-0.01585l0.01782,-0.00593l0.01452,-0.01191l0.04304,-0.02037l0.02903,-0.00579l0.02613,-0.01392l0.09061,-0.02261l0.04777,0.00003l0.0471,-0.00798l0.02944,0.00228l0.0172,0.00574h0.01164l0.00076,0.00078l0.01207,-0.00031l0.04077,0.00908l0.04272,0.02139l0.04569,0.01393l0.06793,0.0408l0.02586,0.02587l0.03136,0.01884l0.03849,0.03853l0.00599,0.01l0.0095,0.00676l0.02717,0.03173l0.02556,0.05117l0.03069,0.04828l0.03846,0.11554l0.0023,0.03006l0.01077,0.02817l0.01805,0.14951l-0.00138,0.01101l0.0032,0.01062l0.00898,0.19027l-0.0078,0.03892l0.00103,0.03968l-0.04539,0.20384l-0.00522,0.01042l-0.00059,0.01163l-0.02843,0.09326l-0.0002,0.00091l-0.00168,0.07704l-0.00455,0.01666l0.00188,0.01717l-0.02728,0.19932l-0.00894,0.02233l-0.00123,0.02403l-0.01255,0.04117l-0.01568,0.0704l-0.00296,0.00592l-0.00012,0.00662l-0.04991,0.18571l-0.02015,0.03622l-0.01209,0.03965l-0.01632,0.02718l-0.02808,0.0666l-0.00286,0.00381l-0.00087,0.00469l-0.04794,0.10449l-0.03448,0.08178l-0.01284,0.01711l-0.00624,0.02047l-0.13601,0.22645l-0.01513,0.01512l-0.00907,0.01937l-0.05892,0.07246l-0.00676,0.00506l-0.004,0.00744l-0.04162,0.04574c-0.03406,0.03895 -0.07691,0.06734 -0.12371,0.084l-0.00747,0.00497l-0.00449,-0.001z" data-paper-data="{&quot;index&quot;:null}" fill="#ff6666"/><path d="M100.5834,163.54587c0.80969,0 1.46608,0.65638 1.46608,1.46608c0,0.80969 -0.65638,1.46608 -1.46608,1.46608c-0.80969,0 -1.46608,-0.65638 -1.46608,-1.46608c0,-0.80969 0.65638,-1.46608 1.46608,-1.46608z" fill="#fffe66"/></g></g><path d="M170.69522,195.55987c-23.63668,-2.64159 -34.08491,15.03442 -34.08491,15.03442c0,0 -10.44824,-17.67602 -34.08492,-15.03442" data-paper-data="{&quot;index&quot;:null}" fill="none" stroke="#0d0d0d" stroke-width="1" stroke-linecap="round"/><g stroke-width="1"><g data-paper-data="{&quot;index&quot;:null}"><path d="M163.09734,130.91893l11.85284,40.81926l-15.50936,3.89486l-6.96282,-42.25162z" fill="#ff0000" stroke="#000000" stroke-linecap="butt"/><g><path d="M166.12572,168.47119c2.92766,-0.82033 9.18241,-0.75828 9.18241,-0.75828l1.32293,6.45694c0,0 -6.24982,0.07824 -9.23759,0.77108c-2.96938,0.68857 -8.25323,3.01066 -8.25323,3.01066l-1.81418,-6.06882c0,0 5.0157,-2.35131 8.79966,-3.41157z" fill="#ff0000" stroke="#ba0000" stroke-linecap="butt"/><path d="M159.29881,171.49153l1.68832,5.27539" fill="#ff9ded" stroke="#000000" stroke-linecap="round"/><path d="M161.78817,170.32016l1.47026,5.46307" fill="#ff9ded" stroke="#000000" stroke-linecap="round"/><path d="M164.55847,169.35784l1.24216,5.60736" fill="#ff9ded" stroke="#000000" stroke-linecap="round"/><path d="M168.68648,174.25029l-0.79342,-5.80281" fill="#ff9ded" stroke="#ba0000" stroke-linecap="round"/><path d="M170.19742,168.23303l0.77589,5.85258" fill="#ff9ded" stroke="#ba0000" stroke-linecap="round"/><path d="M173.51843,173.90674l-0.47998,-5.82979" fill="#ff9ded" stroke="#ba0000" stroke-linecap="round"/></g><g stroke="#000000" stroke-linecap="butt"><g fill="#006bff"><path d="M174.32165,204.09953c-9.89563,2.29469 -19.57854,-3.00758 -21.62737,-11.84297c-2.04883,-8.83539 4.31225,-17.8581 14.2079,-20.1528c9.89563,-2.29469 19.57854,3.00759 21.62737,11.84298c2.04883,8.83539 -4.31225,17.8581 -14.2079,20.15279z"/></g><path d="M172.93765,199.04088c-6.79979,1.57681 -13.37732,-1.73855 -14.69133,-7.40505c-1.314,-5.6665 3.13312,-11.53835 9.93291,-13.11515c6.79979,-1.57681 13.37732,1.73855 14.69133,7.40505c1.314,5.6665 -3.13312,11.53835 -9.93291,13.11515z" fill="#66a6ff"/></g></g><path d="M165.13622,200.05471v3.62585" fill="#ff9ded" stroke="#000000" stroke-linecap="round"/><path d="M183.59512,194.78074l1.31849,2.30736" fill="#ff9ded" stroke="#000000" stroke-linecap="round"/></g><g stroke="#ba0000" stroke-width="1"><path d="M104.31027,202.35974c0,0 0.33885,-9.52372 0.73484,-20.65358c0.35204,-9.89468 0.74925,-21.05879 0.99369,-27.92907c0.4262,-11.97886 1.16389,-32.71258 1.16389,-32.71258h57.19521l1.22372,81.6239z" fill="#ff0000" stroke-linecap="butt"/><path d="M155.17446,201.89143l-3.152,-79.42638l12.05177,-0.36518l1.29788,80.15673z" fill="#ff0000" stroke-linecap="butt"/><g><path d="M102.34599,206.25873l1.36955,-7.65826c0,0 19.59774,1.29435 30.12998,1.29435c10.59748,0 31.69518,-1.61794 31.69518,-1.61794l0.58696,7.98185c0,0 -21.00486,1.78485 -31.49953,1.61794c-13.56421,-0.21573 -32.28212,-1.61794 -32.28212,-1.61794z" fill="#ff0000" stroke-linecap="butt"/><path d="M109.29153,206.18054l1.56519,-6.68748" fill="#c9c9c9" stroke-linecap="round"/><path d="M118.58486,206.88167l0.68477,-6.84929" fill="#c9c9c9" stroke-linecap="round"/><path d="M128.66081,207.25921l-0.19565,-6.95715" fill="#c9c9c9" stroke-linecap="round"/><path d="M138.73674,200.35597l1.85867,7.06501" fill="#c9c9c9" stroke-linecap="round"/><path d="M146.56271,199.92456l1.95649,7.11893" fill="#c9c9c9" stroke-linecap="round"/><path d="M158.20384,206.45026l-2.93474,-7.01109" fill="#c9c9c9" stroke-linecap="round"/></g><g><path d="M105.94826,130.92895l1.274,-13.18317c0,0 18.23044,2.22815 28.02789,2.22815c9.85811,0 29.48389,-2.78519 29.48389,-2.78519l0.546,13.7402c0,0 -19.5394,3.0725 -29.30189,2.78517c-12.61787,-0.37136 -30.02988,-2.78517 -30.02988,-2.78517z" fill="#ff0000" stroke-linecap="butt"/><path d="M112.40925,130.79437l1.456,-11.51207" fill="#c9c9c9" stroke-linecap="round"/><path d="M121.69119,120.21074l-0.637,11.79058" fill="#c9c9c9" stroke-linecap="round"/><path d="M130.42718,132.65119l-0.18201,-11.97626" fill="#c9c9c9" stroke-linecap="round"/><path d="M141.52912,132.92971l-1.72899,-12.16194" fill="#c9c9c9" stroke-linecap="round"/><path d="M147.08011,120.02508l1.82,12.25478" fill="#c9c9c9" stroke-linecap="round"/><path d="M155.17907,119.18947l2.72999,12.0691" fill="#c9c9c9" stroke-linecap="round"/></g></g><g stroke-width="1" stroke-linecap="butt"><path d="M183.15361,85.92182c0,23.4574 -22.55817,42.47338 -50.3851,42.47338c-27.82691,0 -50.3851,-19.01598 -50.3851,-42.47338c0,-23.4574 22.55817,-42.47338 50.3851,-42.47338c27.82691,0 50.3851,19.01598 50.3851,42.47338z" fill="#006bff" stroke="#000000"/><path d="M168.75075,60.82349c0.94136,0.45607 1.30445,-3.18418 3.17991,-0.73139c2.0209,2.643 6.16794,8.44382 8.10995,13.57604c1.66429,4.39828 2.26864,9.16293 2.21393,13.35522c-0.07546,5.78283 -1.91638,10.7855 -5.12885,17.73923c-3.39361,7.34583 -11.46783,13.086 -19.01495,16.55813c-9.08744,4.18077 -17.86784,6.22118 -20.06621,5.15611c-4.02411,-1.94959 20.53793,-8.84316 29.17842,-24.51799c8.64048,-15.67485 -2.4963,-43.08497 1.52781,-41.13536z" fill="#0047ab" stroke="none"/></g><path d="M178.305,103.40998c0,0 10.81135,-3.31655 23.99624,7.7463c5.21852,4.37863 8.05449,10.78129 8.55171,15.80852c0.77982,7.88441 -2.97334,13.77158 -2.97334,13.77158c0,0 -2.15026,-8.43534 -8.62292,-12.02709c-4.65269,-2.58183 -5.70115,-2.24137 -5.70115,-2.24137c0,0 4.99307,2.81966 9.52375,9.44109c4.97759,7.59786 -5.62005,19.4997 -5.62005,19.4997c0,0 -11.70745,-15.45248 -18.73124,-20.61834c-7.85505,-5.77721 -23.94231,-12.62298 -23.94231,-12.62298" fill="#0047ab" stroke="#000000" stroke-width="1" stroke-linecap="round"/><path d="M109.73739,123.25499c0,0 -16.46826,5.87037 -24.65508,11.16695c-7.32047,4.73608 -19.93203,19.45995 -19.93203,19.45995c0,0 -9.86608,-12.51495 -4.44255,-19.80119c4.91896,-6.33831 10.07189,-8.85399 10.07189,-8.85399c0,0 -1.02621,-0.40263 -5.82511,1.89603c-6.67608,3.1978 -9.32749,11.48928 -9.32749,11.48928c0,0 -3.39398,-6.1013 -2.14354,-13.92489c0.7973,-4.98845 4.01149,-11.20985 9.4828,-15.2682c13.82355,-10.25365 24.41697,-6.29579 24.41697,-6.29579" data-paper-data="{&quot;index&quot;:null}" fill="#0047ab" stroke="#000000" stroke-width="1" stroke-linecap="round"/><g fill="#4c96ff" stroke="none" stroke-linecap="butt"><path d="M170.99041,75.41844c0,1.85402 -0.16726,3.66432 -0.48583,5.41306c-2.23988,12.29566 -11.95966,21.54749 -23.61078,21.54749c-13.30819,0 -24.09661,-12.07065 -24.09661,-26.96055c0,-14.88991 10.78842,-26.96055 24.09661,-26.96055c13.30819,0 24.09661,12.07065 24.09661,26.96055z" stroke-width="NaN"/><path d="M139.58581,76.01098c0,14.88991 -10.78841,26.96055 -24.09661,26.96055c-13.30819,0 -24.09661,-12.07065 -24.09661,-26.96055c0,-14.88991 10.78841,-26.96055 24.09661,-26.96055c13.30819,0 24.09661,12.07065 24.09661,26.96055z" stroke-width="NaN"/></g><g stroke="none" stroke-width="0" stroke-linecap="butt"><path d="M134.23804,73.73352c0,7.77072 -5.22312,14.07013 -11.66618,14.07013c-6.44305,0 -11.66618,-6.29941 -11.66618,-14.07013c0,-7.77072 5.22312,-14.07013 11.66618,-14.07013c6.44305,0 11.66618,6.29941 11.66618,14.07013z" fill="#000000"/><path d="M130.42001,69.22815c0,3.77685 -2.53863,6.83858 -5.67018,6.83858c-3.13156,0 -5.67018,-3.06174 -5.67018,-6.83858c0,-3.77685 2.53863,-6.83859 5.67018,-6.83859c3.13156,0 5.67018,3.06174 5.67018,6.83859z" fill="#ffffff"/></g><g data-paper-data="{&quot;index&quot;:null}" fill="#4c96ff" stroke="#000000" stroke-width="0" stroke-linecap="round"><path d="M164.26536,63.64757c0,0 9.33453,1.47933 13.98018,1.54918c4.98706,0.07501 14.64819,-3.66137 14.64819,-3.66137c0,0 -5.82131,8.75364 -13.1458,12.40518c-7.40671,3.69254 -15.54833,1.01937 -15.54833,1.01937z"/><path d="M164.41199,75.2694c0,0 5.55326,2.68675 8.44287,3.60758c3.10191,0.98848 9.84403,0.47793 9.84403,0.47793c0,0 -5.29013,4.37048 -10.5562,5.26919c-5.32516,0.90881 -9.90768,-2.29871 -9.90768,-2.29871z"/></g><g data-paper-data="{&quot;index&quot;:null}" stroke="none" stroke-width="0" stroke-linecap="butt"><path d="M141.6648,59.53172c6.44305,0 11.66618,6.29942 11.66618,14.07014c0,7.77072 -5.22312,14.07013 -11.66618,14.07013c-6.44305,0 -11.66618,-6.29941 -11.66618,-14.07013c0,-7.77072 5.22312,-14.07013 11.66618,-14.07013z" fill="#000000"/><path d="M139.48683,62.25788c3.13156,0 5.67018,3.06174 5.67018,6.83858c0,3.77685 -2.53863,6.83859 -5.67018,6.83859c-3.13156,0 -5.67018,-3.06174 -5.67018,-6.83859c0,-3.77685 2.53863,-6.83858 5.67018,-6.83858z" fill="#ffffff"/></g><g data-paper-data="{&quot;index&quot;:null}" fill="#4c96ff" stroke="#000000" stroke-width="0" stroke-linecap="round"><path d="M93.92914,77.45994c0,0 -8.14162,2.67317 -15.54833,-1.01937c-7.32449,-3.65154 -13.1458,-12.40518 -13.1458,-12.40518c0,0 9.66113,3.73638 14.64819,3.66137c4.64565,-0.06985 13.98018,-1.54918 13.98018,-1.54918z"/><path d="M95.89373,84.82539c0,0 -4.58252,3.20752 -9.90768,2.29871c-5.26607,-0.89871 -10.5562,-5.26919 -10.5562,-5.26919c0,0 6.74212,0.51055 9.84403,-0.47793c2.88961,-0.92083 8.44287,-3.60758 8.44287,-3.60758z"/></g><g stroke="#000000" stroke-width="2.5" stroke-linecap="round"><path d="M131.80168,74.9028h39.42814c0,0 3.37351,27.65855 -19.41984,28.24702c-23.37403,0.60347 -20.0083,-28.24702 -20.0083,-28.24702z" fill="#000000"/><path d="M147.10215,74.90284h24.12768l-19.41983,28.24702c0,0 -5.33698,0.23612 -11.85321,-3.10932c-4.53509,-2.32833 -5.54584,-7.64209 -5.54584,-7.64209z" fill="#ffffff"/></g><g stroke="#000000" stroke-width="2.5" stroke-linecap="round"><path d="M92.96835,75.23613h39.42814c0,0 3.37351,27.65855 -19.41984,28.24702c-23.37403,0.60347 -20.0083,-28.24702 -20.0083,-28.24702z" fill="#000000"/><path d="M108.26882,75.23617h24.12768l-19.41983,28.24702c0,0 -5.33698,0.23612 -11.85321,-3.10932c-4.53509,-2.32833 -5.54584,-7.64209 -5.54584,-7.64209z" fill="#ffffff"/></g><path d="M164.81322,108.76877c0,12.20679 -14.11927,22.10234 -31.53627,22.10234c-17.417,0 -31.53627,-9.89555 -31.53627,-22.10234c0,-12.20679 14.11927,-22.10234 31.53627,-22.10234c17.417,0 31.53627,9.89555 31.53627,22.10234z" fill="#006bff" stroke="none" stroke-width="0" stroke-linecap="butt"/><path d="M147.82707,96.10879c0,4.25426 -7.19228,7.70302 -16.0644,7.70302c-8.87212,0 -16.0644,-3.44875 -16.0644,-7.70302c0,-4.25426 7.19228,-7.70302 16.0644,-7.70302c8.87212,0 16.0644,3.44875 16.0644,7.70302z" fill="#4c96ff" stroke="none" stroke-width="0" stroke-linecap="butt"/><path d="M157.22305,104.10532c0,0 6.11243,5.02388 -1.1295,10.55222c-5.6727,4.33043 -11.35745,1.48339 -11.35745,1.48339c0,0 -1.24783,5.61792 -7.7735,5.37496c-9.75184,-0.36311 -9.07636,-6.32777 -9.07636,-6.32777" fill="none" stroke="#000000" stroke-width="1" stroke-linecap="round"/><path d="M133.78319,28.52502c8.96066,0.95152 18.00034,-5.25861 26.75509,-3.88878c2.73448,0.45838 -5.23901,5.22928 -3.75073,7.54874c2.13338,3.31145 8.73465,2.2464 11.2881,5.18997c5.65505,6.47548 12.75337,13.13224 14.21675,21.34529c1.77525,9.9352 5.6417,30.43458 0.77283,30.99094c-5.38401,0.53246 -12.41703,-23.30391 -22.27689,-28.70335c-5.52812,-3.02777 -9.76593,11.23626 -16.00299,10.06503c-6.53326,-1.69458 -4.22783,-15.28887 -10.50205,-16.0126c-6.76623,-0.77961 -8.09346,12.35529 -15.0028,14.18263c-6.13315,1.10991 -12.03635,-9.86115 -17.50329,-6.86257c-8.36461,4.58329 -13.51368,24.17018 -17.28742,23.39235c-3.27857,-0.78591 -1.28406,-18.11364 0.78421,-27.05244c1.88245,-8.14175 7.10541,-16.15356 14.21675,-21.34529c10.36692,-7.56442 23.71951,-12.09829 36.79296,-15.43804c3.09059,-0.83168 -4.96191,6.32644 -2.5005,6.58812z" data-paper-data="{&quot;index&quot;:null}" fill="#383838" stroke="#000000" stroke-width="2" stroke-linecap="round"/><g data-paper-data="{&quot;index&quot;:null}" stroke-linecap="butt"><g data-paper-data="{&quot;origPos&quot;:null}"><path d="M167.15569,54.82355h-69.86931v-25.85166h69.86931z" fill="#00ff08" stroke="#00e61e" stroke-width="3.31828"/><path d="M168.05172,59.06712h-110.56663v-9.78172h110.56663z" fill="#00ff2d" stroke="#1ae600" stroke-width="2.84811"/></g><g data-paper-data="{&quot;origPos&quot;:null}"><path d="M137.90468,34.14734c1.52116,1.07116 2.4632,2.54886 2.4632,4.18002c0,1.63107 -0.94204,3.10878 -2.4632,4.18002c-1.52116,1.06989 -3.6227,1.73206 -5.94155,1.73206c-2.31876,0 -4.4203,-0.66216 -5.94147,-1.73206c-1.52116,-1.07125 -2.46329,-2.54895 -2.46329,-4.18002c0,-1.63116 0.94212,-3.10886 2.46329,-4.18002c1.52116,-1.06998 3.6227,-1.73214 5.94147,-1.73214c2.31884,0 4.42039,0.66216 5.94155,1.73214z" data-paper-data="{&quot;origPos&quot;:null}" fill="url(#color-1)" stroke="url(#color-2)" stroke-width="3.03547"/><path d="M134.72127,39.40794l-5.14235,1.25021l-1.14603,-4.71382l5.14235,-1.25021z" data-paper-data="{&quot;origPos&quot;:null}" fill="none" stroke="#2900ff" stroke-width="3"/></g></g></g></g></svg>