<svg version="1.1" xmlns="http://www.w3.org/2000/svg" xmlns:xlink="http://www.w3.org/1999/xlink" width="1856.47465" height="2074.98752" viewBox="0,0,1856.47465,2074.98752"><g transform="translate(967.63817,1713.72637)"><g data-paper-data="{&quot;isPaintingLayer&quot;:true}" fill-rule="nonzero" stroke-linejoin="miter" stroke-miterlimit="10" stroke-dasharray="" stroke-dashoffset="0" style="mix-blend-mode: normal"><path d="M222.25,281.25c0.541,0.416 -4.054,1.247 -6.25,0.75c-3.193,-0.766 -6.65,-2.2 -8.5,-4.75c-1.85,-2.55 -1.75,-7.8 -1.75,-9.25v-4.5l8.75,2.75l3.75,0.25l2.5,4.5l1.25,4.75l1,4.75z" fill="#8342c5" stroke="#000000" stroke-width="1" stroke-linecap="round"/><path d="M256.85,337.25l1,3c0.271,0.437 3.9,2.15 5.75,3.25c2.3,1.3 4.95,1.85 7,3.75c1.4,1.2 3.05,2.6 2.75,4.75c-0.35,2.4 -2.1,5.15 -4.5,5.75c-6.8,1.55 -14.35,1.2 -21,-0.25c-2.6,-0.6 -5.75,-5.75 -5.75,-5.75l-0.5,-3.25l0.4,-75.5l15.5,-3l-0.65,62.75z" fill="#8342c5" stroke="#000000" stroke-width="1" stroke-linecap="round"/><path d="M231.4,339.25l1,3c0.271,0.437 3.9,2.15 5.75,3.25c2.3,1.3 4.95,1.85 7,3.75c1.4,1.2 3.05,2.6 2.75,4.75c-0.35,2.4 -2.1,5.15 -4.5,5.75c-6.8,1.55 -14.35,1.2 -21,-0.25c-2.6,-0.6 -5.75,-5.75 -5.75,-5.75l-0.5,-3.25l0.4,-75.5l15.5,-3l-0.65,62.75z" fill="#8342c5" stroke="#000000" stroke-width="1" stroke-linecap="round"/><g stroke="#000000" stroke-width="1" stroke-linecap="round"><path d="M283,251.35c1.903,2.391 1.212,6.148 1,9c-0.168,2.313 -0.882,4.865 -2.308,6.539c-1.426,1.675 -3.394,2.711 -5.567,2.711c-2.173,0 -4.001,-1.366 -5.567,-2.711c-1.108,-0.97 -1.066,-2.471 -2.058,-3.289c-1.066,-0.889 -2.869,-0.301 -3.75,-1.25c-0.979,-1.11 -2.362,-2.577 -2,-4c0.553,-1.809 2.178,-2.828 3.5,-4c1.274,-1.131 2.529,-2.792 4.25,-3.5c1.778,-0.443 3.758,0.095 5.625,0.25c2.242,0.183 5.367,-1.366 6.875,0.25z" fill="#8342c5"/><path d="M251.75,182.85l9,-4.25l23.75,68.5l0.25,6.75l-19.5,1.75l-13.5,-72.25z" fill="#e80000"/></g><g stroke="#000000" stroke-width="1" stroke-linecap="round"><path d="M227.75,255c9.212,-0.76 19.204,-1.403 28.25,1.5c4.022,1.333 6.789,5.935 8,10.25c1.093,3.915 -0.311,8.46 -2.25,12c-1.468,2.681 -4.328,5.32 -7.5,6c-9.873,1.655 -20.198,1.645 -30.25,0.75c-2.616,-0.233 -4.838,-2.236 -6.5,-4.469c-2.294,-3.1 -4.25,-6.574 -4.25,-10.781c0,-4.207 1.625,-8.02 4.25,-10.781c2.625,-2.76 6.539,-4.162 10.25,-4.469z" fill="#8342c5"/><path d="M212.25,175.75h49.75l4,94.5h-53.75z" fill="#e80000"/></g><g stroke="#000000" stroke-width="1" stroke-linecap="round"><path d="M196.375,252.25c1.867,-0.155 3.847,-0.693 5.625,-0.25c1.721,0.708 2.976,2.369 4.25,3.5c1.322,1.172 2.947,2.191 3.5,4c0.362,1.423 -1.021,2.89 -2,4c-0.881,0.949 -2.684,0.361 -3.75,1.25c-0.992,0.818 -0.95,2.319 -2.058,3.289c-1.566,1.345 -3.394,2.711 -5.567,2.711c-2.173,0 -4.141,-1.036 -5.567,-2.711c-1.426,-1.674 -2.14,-4.226 -2.308,-6.539c-0.212,-2.852 -0.903,-6.609 1,-9c1.508,-1.616 4.633,-0.067 6.875,-0.25z" fill="#8342c5"/><path d="M220.75,184.5l-13.5,72.25l-19.5,-1.75l0.25,-6.75l23.75,-68.5l9,4.25z" fill="#e80000"/></g><path d="M-164.02326,-107.08667l-346.39021,-432.46284l-334.81079,-333.60515l-106.22576,-275.46838l-15.55108,-295.63828l81.00319,-171.59398l166.96557,-97.21102l274.9123,48.45331l283.67056,301.63292l220.9629,463.58657l108.97021,375.29921l79.9174,648.41383c0,0 -51.54089,44.57923 -52.50046,41.04033c-6.7312,-24.82464 -360.92382,-272.44652 -360.92382,-272.44652z" fill="#8241c3" stroke="#000000" stroke-width="1.25921" stroke-linecap="round"/><path d="M222.14786,-171.57897l-45.70886,-411.10648l-134.0178,-394.34976l6.83596,-250.47352l98.19375,-239.8193l140.07236,-112.6854l191.08795,-28.18034l235.25561,119.50937l146.95386,323.54777l27.4373,433.94652l-81.42984,452.98749l-538.96267,433.20898l-29.70874,4.58457z" fill="#8241c3" stroke="#000000" stroke-width="1.15048" stroke-linecap="round"/><path d="M181.0871,152.695l2.1597,-1.3977l-3.1766,-5.1453l4.3831,-2.2236l1.3652,-8.5442l8.4155,-23.2189l8.0983,-15.6595l12.3549,-11.2129l12.4823,-4.8605l15.4046,-2.0021l17.8188,1.4916l12.1657,10.5126l7.0523,13.9749l4.8615,28.1095l1.8112,11.0849l7.2422,5.2721l-5.1451,5.7811l3.7481,2.4772l-3.3664,6.1622l-9.1152,9.1164l-14.8961,6.5758l-10.4687,3.1897l-12.7175,1.7033l-18.7716,0.3507l-11.8793,-2.7308l-13.6902,-8.6067l-10.7682,-10.9573z" fill="#8241c3" stroke="#000000" stroke-width="1.15048" stroke-linecap="round"/><path d="M221.2884,151.1183c12.1252,-4.793 25.5547,-6.1518 38.4321,-5.7198c6.3067,0.3348 11.9364,4.639 17.0888,7.9394c2.7779,1.7783 5.5298,4.3535 6.607,7.3685c0.9515,2.883 1.2143,6.903 -1.0475,8.7982c-6.5361,5.4728 -15.0048,9.909 -23.5987,11.5949c-14.0487,2.7554 -29.424,5.4175 -43.5144,1.6546c-5.6785,-1.5981 -9.7441,-9.8569 -8.704,-15.8171c1.2395,-7.0925 8.0454,-13.1682 14.7367,-15.8187z" fill="#ffffff" stroke="#000000" stroke-width="1.15048" stroke-linecap="round"/><path d="M262.7742,160.6873l1.5183,0.1205l-0.1144,0.0128l-0.1901,6.0984l-2.8902,2.6364l-3.9067,1.3026l-4.5739,-2.096l-2.7001,-3.462l-2.9536,4.6693l-6.8606,0.7628l-3.8117,-3.049l-2.3572,-6.1045l1.3276,-0.5528l-3.8939,1.4169" fill="none" stroke="#000000" stroke-width="1.15048" stroke-linecap="round"/><path d="M251.4563,146.6593c1.9461,-0.2164 3.7777,0.2058 5.1653,1.0632c1.3887,0.8561 2.332,2.1475 2.5012,3.6697c0.1693,1.5222 -0.4673,2.9893 -1.6341,4.1295c-1.1653,1.1413 -2.8596,1.9554 -4.8056,2.1718c-1.946,0.2163 -3.7777,-0.2058 -5.1653,-1.0632c-1.3887,-0.8561 -2.3319,-2.1475 -2.5012,-3.6697c-0.1692,-1.5223 0.4674,-2.9894 1.6341,-4.1295c1.1654,-1.1413 2.8596,-1.9554 4.8056,-2.1718z" fill="#000000" stroke="none" stroke-width="1.26161" stroke-linecap="butt"/><path d="M233.7036,100.9427c3.8451,0.0286 7.312,2.4372 9.8068,6.3055c2.4937,3.8682 4.0163,9.1949 3.9727,15.0619c-0.0437,5.8671 -1.6454,11.1705 -4.1963,15.0012c-2.5521,3.8307 -6.0545,6.1876 -9.8995,6.159c-3.845,-0.0286 -7.312,-2.4373 -9.8068,-6.3056c-2.4936,-3.8682 -4.0163,-9.1949 -3.9726,-15.0619c0.0436,-5.867 1.6453,-11.1705 4.1962,-15.0012c2.5521,-3.8307 6.0545,-6.1875 9.8995,-6.1589z" fill="#ffffff" stroke="#000000" stroke-width="1.1817" stroke-linecap="butt"/><path d="M263.7826,101.5672c3.6095,0.0268 6.863,2.4339 9.2032,6.301c2.3391,3.8671 3.766,9.1931 3.7224,15.0601c-0.0436,5.867 -1.5497,11.1712 -3.946,15.003c-2.3975,3.8319 -5.6864,6.1903 -9.2959,6.1635c-3.6095,-0.0269 -6.8629,-2.434 -9.2031,-6.3011c-2.3392,-3.8671 -3.7661,-9.193 -3.7225,-15.0601c0.0437,-5.867 1.5497,-11.1711 3.9461,-15.003c2.3975,-3.8319 5.6864,-6.1903 9.2958,-6.1634z" fill="#ffffff" stroke="#000000" stroke-width="1.14656" stroke-linecap="butt"/><g stroke-linecap="butt"><path d="M232.58844,119.92344c0.619,0.0046 1.1772,0.3924 1.5789,1.0152c0.4015,0.6228 0.6466,1.4804 0.6396,2.425c-0.0071,0.9446 -0.2649,1.7984 -0.6756,2.4152c-0.4109,0.6167 -0.9748,0.9961 -1.5939,0.9915c-0.619,-0.0046 -1.1772,-0.3924 -1.5788,-1.0151c-0.4015,-0.6228 -0.6467,-1.4804 -0.6396,-2.425c0.007,-0.9446 0.2649,-1.7985 0.6756,-2.4152c0.4108,-0.6168 0.9747,-0.9962 1.5938,-0.9916z" fill="#000000" stroke="#000000" stroke-width="0.19025"/><path d="M232.71494,120.76584c0.2687,-0.0299 0.5236,0.0552 0.7198,0.2163c0.1963,0.1622 0.3328,0.4005 0.3634,0.6761c0.0306,0.2756 -0.0501,0.5381 -0.206,0.7395c-0.156,0.2002 -0.386,0.3392 -0.6547,0.3691c-0.2687,0.0299 -0.5236,-0.0553 -0.7197,-0.2163c-0.1963,-0.1623 -0.3328,-0.4006 -0.3634,-0.6762c-0.0307,-0.2755 0.0501,-0.538 0.206,-0.7394c0.156,-0.2003 0.3859,-0.3393 0.6546,-0.3691z" fill="#ffffff" stroke="none" stroke-width="1.15048"/><path d="M230.64844,123.10024c0.1362,-0.0723 0.5952,1.2245 1.0551,1.6934c0.2753,0.2594 0.5217,0.4991 0.8557,0.5618c0.3455,-0.0044 0.684,-0.1487 0.9762,-0.4046c0.5681,-0.5362 1.1815,-2.0599 1.2715,-1.9872c0.0854,0.0717 -0.2521,1.7793 -0.6756,2.4152c-0.3952,0.5933 -0.9748,0.9961 -1.5939,0.9915c-0.619,-0.0046 -1.2441,-0.4595 -1.5788,-1.0151c-0.3926,-0.653 -0.4542,-2.185 -0.3102,-2.255z" fill="#083a08" stroke="#000000" stroke-width="0.19025"/></g><g stroke-linecap="butt"><path d="M261.68842,120.89863c0.619,0.0046 1.1772,0.3924 1.5789,1.0152c0.4015,0.6228 0.6466,1.4804 0.6396,2.425c-0.0071,0.9446 -0.2649,1.7984 -0.6756,2.4152c-0.4109,0.6167 -0.9748,0.9961 -1.5939,0.9915c-0.619,-0.0046 -1.1772,-0.3924 -1.5788,-1.0151c-0.4015,-0.6228 -0.6467,-1.4804 -0.6396,-2.425c0.007,-0.9446 0.2649,-1.7985 0.6756,-2.4152c0.4108,-0.6168 0.9747,-0.9962 1.5938,-0.9916z" fill="#000000" stroke="#000000" stroke-width="0.19025"/><path d="M261.76492,121.74103c0.2687,-0.0299 0.5236,0.0552 0.7198,0.2163c0.1963,0.1622 0.3328,0.4005 0.3634,0.6761c0.0306,0.2756 -0.0501,0.5381 -0.206,0.7395c-0.156,0.2002 -0.386,0.3392 -0.6547,0.3691c-0.2687,0.0299 -0.5236,-0.0553 -0.7197,-0.2163c-0.1963,-0.1623 -0.3328,-0.4006 -0.3634,-0.6762c-0.0307,-0.2755 0.0501,-0.538 0.206,-0.7394c0.156,-0.2003 0.3859,-0.3393 0.6546,-0.3691z" fill="#ffffff" stroke="none" stroke-width="1.15048"/><path d="M259.69842,124.02543c0.1362,-0.0723 0.5952,1.2245 1.0551,1.6934c0.2753,0.2594 0.5217,0.4991 0.8557,0.5618c0.3455,-0.0044 0.684,-0.1487 0.9762,-0.4046c0.5681,-0.5362 1.1815,-2.0599 1.2715,-1.9872c0.0854,0.0717 -0.2521,1.7793 -0.6756,2.4152c-0.3952,0.5933 -0.9748,0.9961 -1.5939,0.9915c-0.619,-0.0046 -1.2441,-0.4595 -1.5788,-1.0151c-0.3926,-0.653 -0.4542,-2.185 -0.3102,-2.255z" fill="#083a08" stroke="#000000" stroke-width="0.19025"/></g></g></g></svg>