<svg version="1.1" xmlns="http://www.w3.org/2000/svg" xmlns:xlink="http://www.w3.org/1999/xlink" width="78.61482" height="144.74178" viewBox="0,0,78.61482,144.74178"><g transform="translate(-197.74578,-111.24439)"><g data-paper-data="{&quot;isPaintingLayer&quot;:true}" fill-rule="nonzero" stroke-linejoin="miter" stroke-miterlimit="10" stroke-dasharray="" stroke-dashoffset="0" style="mix-blend-mode: normal"><path d="M246.76833,205.95516c0,0 1.68505,0.65735 2.64215,2.96814c0.605,1.4607 2.454,4.76591 2.454,4.76591c0,0 -1.57698,1.52736 -2.04039,3.1975c-0.39578,1.4264 -0.28193,6.57109 -0.02506,8.76302c0.25687,2.19193 0.53345,4.76312 1.75,12.80985c1.34135,8.87216 2.92847,17.28703 2.92847,17.28703l-55.1823,0.23956c0,0 0.46056,-20.11361 1.67846,-26.21499c0.24927,-1.24879 0.69755,-3.52297 1.40376,-5.7042c0.70621,-2.18123 1.04492,-2.89852 1.94698,-4.64509c0.90206,-1.74658 1.39171,-2.38605 2.33602,-3.84448c0.9443,-1.45843 1.67189,-2.48259 2.21357,-3.18213c0.93208,-1.20371 0.98367,-1.10591 1.94678,-2.40586c0.96311,-1.29995 2.47029,-3.24782 2.47029,-3.24782z" fill="#ff00bb" stroke="#ff00bb" stroke-width="0" stroke-linecap="round"/><g fill="#ff00bb" stroke-width="0"><path d="M226.36735,172.84854c0,0 -5.90593,6.47556 -9.30994,-2.97815c-0.32947,-0.91498 -6.23633,-12.34494 -9.03828,-20.94438c-1.12129,-3.44131 -1.24226,-6.82612 -1.0813,-8.29373c0.47226,-4.30595 3.63552,-8.85189 4.59378,-10.23549c3.27108,-4.723 8.16712,-11.3094 13.78109,-15.22011c3.59644,-2.50529 8.35683,-3.76186 10.83785,-3.31006c0.56894,0.10361 3.02065,1.65812 2.69874,4.69228c-0.35034,3.30208 -3.58571,8.22015 -5.7769,11.40262c-3.87671,5.63055 -9.84452,10.88325 -12.60067,15.86178c-1.89647,3.42564 5.89564,29.02522 5.89564,29.02522z" data-paper-data="{&quot;index&quot;:null}" stroke="none" stroke-linecap="butt"/><path d="M220.85733,121.93329c0,0 -2.23147,-0.43904 -3.41714,-0.96053c-1.43831,-0.63263 -4.60211,-2.56663 -4.60211,-2.56663c0,0 2.57116,0.02626 3.69209,-0.24872c2.01811,-0.49507 2.60204,-1.58628 2.60204,-1.58628l-2.37377,-4.57545c0,0 2.57927,1.71684 4.07276,2.22373c1.66162,0.56396 5.44648,1.00706 5.44648,1.00706" data-paper-data="{&quot;index&quot;:null}" stroke="#7e1556" stroke-linecap="round"/></g><g fill="#ff00bb" stroke-width="0"><path d="M238.55349,169.88698c0,0 0.4155,-13.5447 3.81043,-27.60982c4.32009,-17.89794 12.81301,-36.64437 24.32066,-29.45959c3.63006,3.20234 5.13933,6.69103 3.17965,11.86988c-0.60906,1.60958 -3.83713,6.92005 -6.67275,11.40484c-2.46261,3.89482 -4.31237,7.89745 -6.81972,12.01647c-5.43416,8.92713 -9.21171,16.27529 -9.79808,17.50983c-4.32686,9.10983 -8.02016,4.26842 -8.02016,4.26842z" data-paper-data="{&quot;index&quot;:null}" stroke="none" stroke-linecap="butt"/><path d="M267.74364,120.94198c0,0 2.7633,2.56725 4.26742,3.45869c1.35193,0.80124 4.34954,1.64825 4.34954,1.64825l-5.11826,1.13115c0,0 -0.48708,1.13574 0.41025,2.97111c0.49841,1.01943 2.15916,2.93871 2.15916,2.93871c0,0 -3.54152,-1.14862 -4.95729,-1.8281c-1.16708,-0.56013 -2.9363,-1.96032 -2.9363,-1.96032" data-paper-data="{&quot;index&quot;:null}" stroke="#7e1556" stroke-linecap="round"/></g><path d="M204.53318,186.37012c-0.03096,-5.50514 0.46686,-10.2657 0.58809,-10.94599c0.3783,-2.12326 0.88361,-3.91907 2.33476,-5.49947c1.18341,-1.28883 6.31472,-2.89213 12.16963,-4.10886c5.17286,-1.07498 11.05557,-1.82942 13.19108,-2.06892c2.34186,-0.26264 7.58016,-0.19223 12.68277,0.28914c6.44079,0.6076 12.81195,1.79944 14.50337,3.01647c3.00935,2.16531 3.03732,6.61389 3.08942,7.61241c0.04923,0.94345 0.35686,5.66645 0.53834,10.16862c0.0539,1.33681 0.09967,2.73785 0.13859,4.16287c0.08336,3.05296 0.85361,10.07964 -1.90377,13.05493c-5.70436,6.15517 -21.01024,7.06025 -27.22056,7.2788c-2.97231,0.1046 -7.79713,-0.21424 -13.14045,-0.78396c-2.06456,-0.22014 -3.75367,-0.60671 -5.79313,-1.00662c-2.45198,-0.48079 -5.19483,-1.05373 -6.84035,-2.34853c-1.64996,-1.29831 -2.4203,-2.20809 -2.85759,-3.97315c-0.34154,-1.37856 -0.48969,-3.51517 -0.63108,-5.21299c-0.22126,-2.65671 -0.84678,-9.21726 -0.84913,-9.63473z" fill="#ff00bb" stroke="none" stroke-width="0" stroke-linecap="butt"/><path d="M232.6001,195.37736l8.16158,-0.19209l-4.52519,3.89113z" fill="#7e1556" stroke="#7e1556" stroke-width="0.5" stroke-linecap="round"/><path d="M208.58716,190.30492c0,0 -1.50779,1.67847 -2.5637,2.42737c-1.28092,0.90848 -4.57805,2.63783 -4.57805,2.63783c0,0 1.31333,-2.17185 1.6327,-3.26072c0.57498,-1.9604 -0.09662,-2.99776 -0.09662,-2.99776l-5.23571,-0.25191c0,0 2.81185,-1.34034 4.00933,-2.35807c1.33226,-1.1323 3.62309,-4.12874 3.62309,-4.12874" fill="#ff00bb" stroke="#7e1556" stroke-width="0" stroke-linecap="round"/><path d="M228.13056,187.94026c0.1314,4.34176 -3.31608,7.97663 -7.70017,8.11869c-4.38408,0.14205 -8.04463,-3.26247 -8.17605,-7.60424c-0.1314,-4.34176 3.31608,-7.97663 7.70017,-8.11869c4.38408,-0.14205 8.04463,3.26247 8.17605,7.60424z" fill="#721249" stroke="#000000" stroke-width="0" stroke-linecap="butt"/><path d="M224.7491,187.74173c0.20327,2.3937 -1.60432,4.50169 -4.03735,4.7083c-2.43303,0.20661 -4.57019,-1.5664 -4.77346,-3.9601c-0.20327,-2.3937 1.60432,-4.50169 4.03735,-4.7083c2.43303,-0.20661 4.57019,1.56639 4.77346,3.9601z" fill="#ff96d7" stroke="#ff96d7" stroke-width="0.5" stroke-linecap="butt"/><path d="M207.7388,185.52162v-8.9925h29.42912v8.9925z" fill="#ff00bb" stroke="none" stroke-width="0" stroke-linecap="butt"/><path d="M229.72736,182.46861v-1.66528h0.77738v1.66528z" fill="#ff00bb" stroke="none" stroke-width="0" stroke-linecap="butt"/><path d="M209.86725,198.77856v-8.56429h18.84733v8.56429z" fill="#ff00bb" stroke="none" stroke-width="0" stroke-linecap="butt"/></g></g></svg>