<svg version="1.1" xmlns="http://www.w3.org/2000/svg" xmlns:xlink="http://www.w3.org/1999/xlink" width="151.37798" height="165.96866" viewBox="0,0,151.37798,165.96866"><defs><linearGradient x1="234.71598" y1="192.13833" x2="278.18646" y2="243.92905" gradientUnits="userSpaceOnUse" id="color-1"><stop offset="0" stop-color="#6100d5"/><stop offset="1" stop-color="#8300ec"/></linearGradient><linearGradient x1="234.71598" y1="192.13833" x2="278.18646" y2="243.92905" gradientUnits="userSpaceOnUse" id="color-2"><stop offset="0" stop-color="#a8007b"/><stop offset="1" stop-color="#000000"/></linearGradient><linearGradient x1="267.90288" y1="137.92439" x2="255.89108" y2="205.52646" gradientUnits="userSpaceOnUse" id="color-3"><stop offset="0" stop-color="#9c00fd"/><stop offset="1" stop-color="#4e00c8"/></linearGradient><linearGradient x1="210.776" y1="132.80249" x2="222.7878" y2="200.40456" gradientUnits="userSpaceOnUse" id="color-4"><stop offset="0" stop-color="#9c00fd"/><stop offset="1" stop-color="#4e00c8"/></linearGradient><linearGradient x1="258.48008" y1="208.42051" x2="258.48008" y2="277.19926" gradientUnits="userSpaceOnUse" id="color-5"><stop offset="0" stop-color="#8600ee"/><stop offset="1" stop-color="#2700ae"/></linearGradient><linearGradient x1="258.48008" y1="208.42051" x2="258.48008" y2="277.19926" gradientUnits="userSpaceOnUse" id="color-6"><stop offset="0" stop-color="#2700ae"/><stop offset="1" stop-color="#8600ee"/></linearGradient><linearGradient x1="220.57074" y1="207.73188" x2="220.57074" y2="276.51062" gradientUnits="userSpaceOnUse" id="color-7"><stop offset="0" stop-color="#8600ee"/><stop offset="1" stop-color="#2700ae"/></linearGradient><linearGradient x1="220.57074" y1="207.73188" x2="220.57074" y2="276.51062" gradientUnits="userSpaceOnUse" id="color-8"><stop offset="0" stop-color="#2700ae"/><stop offset="1" stop-color="#8600ee"/></linearGradient><linearGradient x1="240.38165" y1="155.95095" x2="240.38165" y2="211.88122" gradientUnits="userSpaceOnUse" id="color-9"><stop offset="0" stop-color="#2700ae"/><stop offset="1" stop-color="#8600ee"/></linearGradient><linearGradient x1="240.38165" y1="155.95095" x2="240.38165" y2="211.88122" gradientUnits="userSpaceOnUse" id="color-10"><stop offset="0" stop-color="#2700ae"/><stop offset="1" stop-color="#8600ee"/></linearGradient><linearGradient x1="240.17582" y1="113.31763" x2="240.17582" y2="158.14996" gradientUnits="userSpaceOnUse" id="color-11"><stop offset="0" stop-color="#a000ff"/><stop offset="1" stop-color="#2200ab"/></linearGradient><radialGradient cx="228.64972" cy="134.9154" r="12.09274" gradientUnits="userSpaceOnUse" id="color-12"><stop offset="0" stop-color="#10009c"/><stop offset="1" stop-color="#10009c" stop-opacity="0"/></radialGradient><radialGradient cx="252.26057" cy="134.96035" r="12.09274" gradientUnits="userSpaceOnUse" id="color-13"><stop offset="0" stop-color="#10009c"/><stop offset="1" stop-color="#10009c" stop-opacity="0"/></radialGradient></defs><g transform="translate(-200.07849,-111.2306)"><g data-paper-data="{&quot;isPaintingLayer&quot;:true}" fill-rule="nonzero" stroke-miterlimit="10" stroke-dasharray="" stroke-dashoffset="0" style="mix-blend-mode: normal"><path d="M206.0935,173.53662l-4.18211,2.76176c0,0 1.93985,-2.31491 2.16381,-3.33435c0.26789,-1.21936 0.9469,-3.85144 0.9469,-3.85144c0,0 -1.32529,0.72135 -2.03499,0.64572c-0.89486,-0.09537 -2.90862,-1.17258 -2.90862,-1.17258c0,0 2.60117,0.05636 4.07816,-1.16357c0.28136,-0.2324 -1.96891,0.39074 -1.59568,-0.02757c0.2172,-0.24345 1.11072,-0.56805 2.04263,-1.1113c0.78176,-0.4557 1.62045,-1.13336 1.81861,-1.38322c1.49539,-1.88539 2.98317,-4.01795 2.98317,-4.01795" data-paper-data="{&quot;index&quot;:null}" fill="#7400e1" stroke="#000000" stroke-width="0" stroke-linecap="round" stroke-linejoin="miter"/><path d="M269.2735,166.00402c0,0 1.48778,2.13256 2.98317,4.01795c0.19816,0.24986 1.03685,0.92752 1.81861,1.38322c0.93191,0.54325 1.82543,0.86785 2.04263,1.1113c0.37323,0.41831 -1.87704,-0.20483 -1.59568,0.02757c1.47699,1.21993 4.07816,1.16357 4.07816,1.16357c0,0 -2.01376,1.0772 -2.90862,1.17258c-0.7097,0.07563 -2.03499,-0.64572 -2.03499,-0.64572c0,0 0.67901,2.63208 0.9469,3.85144c0.22397,1.01944 2.16381,3.33435 2.16381,3.33435l-4.18211,-2.76176" data-paper-data="{&quot;index&quot;:null}" fill="#7400e0" stroke="#000000" stroke-width="0" stroke-linecap="round" stroke-linejoin="miter"/><path d="M326.26656,245.1473c-15.09398,-0.83094 -33.52107,0.75936 -44.39713,-2.14063c-18.59432,-4.95799 -50.92698,-26.2281 -50.92698,-26.2281c0,0 -16.64114,-16.08017 -0.83351,-29.31941c16.46226,-13.7875 29.82209,5.58436 29.82209,5.58436c0,0 19.20278,27.18458 32.69062,35.359c8.46964,5.1331 24.70872,8.96465 37.73689,12.92239c12.68313,3.85291 21.09792,8.68469 21.09792,8.68469c0,0 -10.39655,-4.04791 -25.1899,-4.86229z" data-paper-data="{&quot;index&quot;:null}" fill="url(#color-1)" stroke="url(#color-2)" stroke-width="0" stroke-linecap="round" stroke-linejoin="miter"/><path d="M259.79891,136.48445c1.03641,1.84968 2.0564,3.71125 2.92143,5.68519c0.69943,2.07012 3.28691,3.98046 4.06851,6.0544c1.06262,2.8196 0.31692,5.82558 1.1481,8.87005c0.78264,2.08199 1.03935,4.27593 1.58299,6.34942c0.72147,2.75177 1.67633,5.37713 2.38008,8.08501c0.40561,2.55757 1.60665,5.25608 1.84447,7.7801c0.19838,2.10555 0.11483,4.91497 -0.17814,6.89264c-0.18049,1.21824 -0.52076,1.63434 -0.68442,2.82394c0.02013,3.2259 -0.29858,6.43574 -1.6457,9.59676c-1.0706,2.72908 -3.12576,5.30121 -6.89493,7.60014c-3.11595,0.66721 -5.32638,-0.18105 -7.6328,-0.8687c-3.85657,-2.69133 -5.86302,-6.06051 -5.3084,-10.35727c-0.16322,-2.31835 0.8257,-4.559 1.00298,-6.86705c0.2524,-3.28588 -0.19236,-6.64436 0.17266,-10.00982c0.30875,-2.84652 0.11025,-5.87442 0.46976,-8.72645c0,0 0.90226,-1.53516 1.36022,-4.31227c0.63798,-3.86888 0.89639,-9.6722 0.93528,-12.8697c0.06402,-5.26365 -1.9027,-15.11639 -1.9027,-15.11639l6.36065,-0.60996z" data-paper-data="{&quot;index&quot;:null}" fill="url(#color-3)" stroke="none" stroke-width="0.9" stroke-linecap="round" stroke-linejoin="round"/><path d="M218.87997,131.36257l6.36065,0.60996c0,0 -1.96672,9.85273 -1.9027,15.11639c0.03889,3.19751 0.2973,9.00083 0.93528,12.8697c0.45795,2.77711 1.36022,4.31227 1.36022,4.31227c0.3595,2.85203 0.16101,5.87993 0.46976,8.72645c0.36502,3.36545 -0.07973,6.72394 0.17266,10.00982c0.17728,2.30805 1.16621,4.5487 1.00298,6.86705c0.55462,4.29675 -1.45183,7.66594 -5.3084,10.35727c-2.30642,0.68765 -4.51686,1.53591 -7.6328,0.8687c-3.76917,-2.29893 -5.82434,-4.87106 -6.89493,-7.60014c-1.34712,-3.16102 -1.66583,-6.37086 -1.6457,-9.59676c-0.16366,-1.1896 -0.50393,-1.6057 -0.68442,-2.82394c-0.29298,-1.97766 -0.37653,-4.78709 -0.17814,-6.89264c0.23782,-2.52402 1.43886,-5.22253 1.84447,-7.7801c0.70375,-2.70788 1.65862,-5.33324 2.38008,-8.08501c0.54364,-2.07349 0.80034,-4.26743 1.58299,-6.34942c0.83117,-3.04447 0.08547,-6.05045 1.1481,-8.87005c0.78159,-2.07394 3.36908,-3.98427 4.06851,-6.0544c0.86503,-1.97394 1.88501,-3.83551 2.92143,-5.68519z" data-paper-data="{&quot;index&quot;:null}" fill="url(#color-4)" stroke="none" stroke-width="0.9" stroke-linecap="round" stroke-linejoin="round"/><path d="M258.82398,208.42051l4.81451,53.30353l12.38018,7.56566l-14.09965,-1.03168l2.06336,8.25345l-11.69239,-3.78283l-2.40725,4.47062l-7.90956,-7.90956l-1.03168,-58.46194c0,0 -2.83716,-12.48765 9.65488,-13.4173c9.20899,-0.68532 8.22758,11.01004 8.22758,11.01004z" data-paper-data="{&quot;index&quot;:null}" fill="url(#color-5)" stroke="url(#color-6)" stroke-width="0" stroke-linecap="round" stroke-linejoin="miter"/><path d="M220.22688,207.73187c0,0 -0.98141,-11.69536 8.22758,-11.01004c12.49204,0.92965 9.65488,13.4173 9.65488,13.4173l-1.03168,58.46194l-7.90956,7.90956l-2.40725,-4.47062l-11.69239,3.78283l2.06336,-8.25345l-14.09965,1.03168l12.38018,-7.56566l4.81451,-53.30353z" fill="url(#color-7)" stroke="url(#color-8)" stroke-width="0" stroke-linecap="round" stroke-linejoin="miter"/><path d="M221.86419,202.7918l-1.76356,-41.04627c0,0 4.12871,-10.66073 20.68027,-9.83795c16.60064,0.82523 19.12597,11.09764 19.12597,11.09764l-3.02326,40.29045c0,0 -4.68562,10.27852 -18.39043,9.98846c-10.958,-0.23192 -16.62898,-10.49233 -16.62898,-10.49233z" fill="url(#color-9)" stroke="url(#color-10)" stroke-width="0.5" stroke-linecap="round" stroke-linejoin="miter"/><path d="M211.71428,134.6843c0.05061,-2.13706 0.13552,-2.63145 0.39275,-4.3007c0.1704,-1.10579 -6.97243,0.70242 -6.97243,0.70242l8.06079,-6.94608c0,0 -1.8937,1.52471 -3.80841,1.45698c-2.81893,-0.09972 -5.95576,-0.87916 -5.95576,-0.87916c0,0 3.15859,0.0713 6.11717,-1.12155c2.66422,-1.07417 5.1405,-4.63125 5.44767,-4.95208c1.17493,-1.22716 6.15535,-2.63911 11.82054,-3.64917c2.49791,-0.44535 -4.9686,-3.08427 -4.9686,-3.08427c0,0 3.99601,-1.14283 8.51902,0.33209c3.69995,1.20652 8.72952,1.17391 9.19394,1.13604c1.29134,-0.1053 -3.74156,-2.14822 -3.74156,-2.14822c0,0 13.83289,2.5584 15.92956,2.82923c6.17633,0.79782 12.269,2.16656 13.86066,3.41336c2.8319,2.2183 2.95786,6.72269 2.97936,7.70381c0.02031,0.927 -0.04562,5.42972 -0.00007,9.8517c0.00241,0.23383 1.16223,2.21531 3.076,3.14306c2.45112,1.18825 5.79011,1.34587 5.79011,1.34587c0,0 -2.8575,0.63162 -5.11866,0.42788c-2.16219,-0.19482 -3.73244,-1.23511 -3.73343,-0.829c-0.00729,2.99733 0.53216,9.91411 -2.20468,12.74625c-5.66187,5.85901 -20.40659,6.26726 -26.38496,6.28706c-2.86129,0.00947 -7.49192,-0.45446 -12.61397,-1.18073c-1.97906,-0.28062 -3.5923,-0.71275 -5.54208,-1.16894c-2.34416,-0.54845 -4.96539,-1.1964 -6.5107,-2.51807c-1.5495,-1.32524 -1.80024,-2.53625 -2.17021,-4.28134c-0.28895,-1.36296 -0.83416,-3.16901 -0.9215,-4.83888c-0.16932,-3.23712 -0.59089,-7.35325 -0.54059,-9.47755z" fill="url(#color-11)" stroke="none" stroke-width="0" stroke-linecap="butt" stroke-linejoin="miter"/><path d="M240.36456,134.9154c0,6.67864 -5.24491,12.09274 -11.71484,12.09274c-6.46992,0 -11.71484,-5.4141 -11.71484,-12.09274c0,-6.67864 5.24491,-12.09274 11.71484,-12.09274c6.46992,0 11.71484,5.4141 11.71484,12.09274z" fill="url(#color-12)" stroke="none" stroke-width="0" stroke-linecap="butt" stroke-linejoin="miter"/><path d="M263.97539,134.96035c0,6.67863 -5.24491,12.09274 -11.71484,12.09274c-6.46992,0 -11.71483,-5.4141 -11.71483,-12.09274c0,-6.67863 5.24491,-12.09274 11.71483,-12.09274c6.46993,0 11.71484,5.41411 11.71484,12.09274z" fill="url(#color-13)" stroke="none" stroke-width="0" stroke-linecap="butt" stroke-linejoin="miter"/><g fill="#ff0000" stroke="none" stroke-width="0.5" stroke-linecap="butt" stroke-linejoin="miter"><path d="M219.88718,133.881c0.74197,-4.48969 4.98311,-7.52785 9.47281,-6.78586c4.48969,0.74197 7.52784,4.98311 6.78587,9.47281c-0.74197,4.48969 -4.98311,7.52783 -9.47281,6.78586c-4.48969,-0.74197 -7.52784,-4.9831 -6.78586,-9.4728z"/><path d="M218.05162,141.28543c0.36334,-2.19859 2.44022,-3.68637 4.63882,-3.32302c2.19859,0.36334 3.68637,2.44022 3.32303,4.63883c-0.36334,2.19859 -2.44022,3.68636 -4.63882,3.32301c-2.19859,-0.36334 -3.68636,-2.44022 -3.32301,-4.63882z"/><path d="M219.13476,148.44052c0.17639,-1.06732 1.18462,-1.78958 2.25195,-1.61319c1.06732,0.17639 1.78957,1.18462 1.61319,2.25195c-0.17639,1.06732 -1.18462,1.78957 -2.25195,1.61318c-1.06732,-0.17639 -1.78957,-1.18462 -1.61318,-2.25195z"/></g><g data-paper-data="{&quot;index&quot;:null}" fill="#1000ff" stroke="none" stroke-width="0.5" stroke-linecap="butt" stroke-linejoin="miter"><path d="M260.30586,134.07215c0.74197,4.4897 -2.29616,8.73082 -6.78586,9.4728c-4.4897,0.74197 -8.73083,-2.29616 -9.47281,-6.78586c-0.74197,-4.4897 2.29617,-8.73083 6.78587,-9.47281c4.4897,-0.74198 8.73083,2.29617 9.4728,6.78587z"/><path d="M262.14139,141.47658c0.36335,2.19859 -1.12442,4.27547 -3.32301,4.63881c-2.1986,0.36335 -4.27548,-1.12442 -4.63882,-3.32301c-0.36334,-2.1986 1.12444,-4.27548 3.32303,-4.63882c2.1986,-0.36334 4.27548,1.12443 4.63882,3.32302z"/><path d="M261.05827,148.63166c0.17639,1.06732 -0.54586,2.07556 -1.61318,2.25195c-1.06733,0.17639 -2.07556,-0.54586 -2.25195,-1.61318c-0.17638,-1.06733 0.54587,-2.07556 1.61319,-2.25195c1.06733,-0.17639 2.07556,0.54586 2.25195,1.61318z"/></g><path d="M239.3786,148.98256l-4.14736,-4.61865l4.33588,1.22536l3.58181,-1.41388z" fill="#140056" stroke="#000000" stroke-width="0" stroke-linecap="round" stroke-linejoin="miter"/><path d="M233.72915,136.21514c0.05396,-0.35124 0.06299,-0.69932 0.03605,-1.04773c-0.01133,0.044 -0.02299,0.0879 -0.03497,0.13165c-0.00191,0.04031 -0.00267,0.08092 -0.0021,0.1219c0,0.26472 0.001,0.52945 0.00101,0.79418zM234.00226,133.67687c0.44837,1.52279 0.46431,3.16184 -0.51215,4.53898c-0.89431,1.26128 -2.35578,0.28634 -2.36017,-0.95787c0,-1.62665 -0.20199,-3.9874 0.59622,-5.4501c0.72589,-1.33019 2.0421,0.86396 2.2817,1.58958c0.00074,0.09162 -0.00118,0.18488 -0.00559,0.27942zM233.206,135.45138c0.00001,-0.01014 0.00001,-0.02028 0.00001,-0.03042c0.03613,-3.48244 -1.28477,-2.85135 -1.27083,0.2831c0,3.26221 0.82096,1.63964 1.27082,-0.25268zM233.20561,136.72568c-0.49402,1.03397 -1.1007,1.64406 -1.46646,1.07319c0.24607,0.61296 0.9582,0.47165 1.41465,-0.07235c-0.2231,-0.118 -0.10897,-0.34625 -0.10897,-0.34625l0.16815,-0.32069c-0.00348,-0.11125 -0.00583,-0.22256 -0.00737,-0.33389z" fill="#f8f8f8" stroke="none" stroke-width="0.5" stroke-linecap="butt" stroke-linejoin="miter"/><path d="M245.95632,134.10339c-0.05395,0.35124 -0.06299,0.69932 -0.03605,1.04773c0.01133,-0.04401 0.023,-0.0879 0.03497,-0.13165c0.00191,-0.04031 0.00268,-0.08093 0.00211,-0.1219c0,-0.26472 -0.00101,-0.52945 -0.00102,-0.79418zM245.6832,136.64165c-0.44837,-1.5228 -0.46431,-3.16184 0.51215,-4.53898c0.89431,-1.26128 2.35578,-0.28635 2.36017,0.95787c0,1.62664 0.20199,3.98741 -0.59622,5.45011c-0.72589,1.33019 -2.0421,-0.86396 -2.2817,-1.58957c-0.00074,-0.09162 0.00118,-0.18489 0.00559,-0.27943zM246.47948,134.86715c-0.00001,0.01014 -0.00001,0.02028 -0.00001,0.03042c-0.03613,3.48244 1.28477,2.85134 1.27083,-0.2831c0,-3.26221 -0.82096,-1.63965 -1.27082,0.25268zM246.47985,133.59284c0.49402,-1.03397 1.10071,-1.64405 1.46646,-1.07318c-0.24607,-0.61296 -0.95821,-0.47165 -1.41465,0.07235c0.2231,0.11799 0.10897,0.34625 0.10897,0.34625l-0.16816,0.3207c0.00348,0.11125 0.00583,0.22255 0.00738,0.33389z" data-paper-data="{&quot;index&quot;:null}" fill="#f8f8f8" stroke="none" stroke-width="0.5" stroke-linecap="butt" stroke-linejoin="miter"/><path d="M237.02174,155.0602l2.24891,-1.92954l2.22728,1.90951" fill="none" stroke="#140056" stroke-width="0.5" stroke-linecap="round" stroke-linejoin="miter"/></g></g></svg>