<svg version="1.1" xmlns="http://www.w3.org/2000/svg" xmlns:xlink="http://www.w3.org/1999/xlink" width="159.6013" height="324.64139" viewBox="0,0,159.6013,324.64139"><defs><linearGradient x1="162.03658" y1="74.76556" x2="318.90998" y2="74.76556" gradientUnits="userSpaceOnUse" id="color-1"><stop offset="0" stop-color="#381b00"/><stop offset="1" stop-color="#02003c"/></linearGradient><linearGradient x1="230.01052" y1="227.91092" x2="247.62811" y2="227.91093" gradientTransform="translate(-1495.64104,-1237.36288) rotate(0.18825) scale(6.33066,5.35412) skewX(1.69793)" gradientUnits="userSpaceOnUse" id="color-2"><stop offset="0" stop-color="#0039ff"/><stop offset="1" stop-color="#ff8c00"/></linearGradient></defs><g transform="translate(-159.80599,-24.96741)"><g data-paper-data="{&quot;isPaintingLayer&quot;:true}" fill-rule="nonzero" stroke-linejoin="miter" stroke-miterlimit="10" stroke-dasharray="" stroke-dashoffset="0" style="mix-blend-mode: normal"><path d="M219.875,335.41123l4.94827,-67.5h15.55173v67.5z" data-paper-data="{&quot;index&quot;:null}" fill="#0021ff" stroke="#000000" stroke-width="2" stroke-linecap="butt"/><path d="M239.125,335.41123v-67.5l16.34616,0.00187l4.90384,67.49813z" data-paper-data="{&quot;index&quot;:null}" fill="#0021ff" stroke="#000000" stroke-width="2" stroke-linecap="butt"/><path d="M239.6575,247.4137c-24.49488,0.32337 -32.71931,-48.79669 -32.71931,-48.79669l66.40097,-0.87659c0,0 -9.18675,49.34991 -33.68164,49.67328z" fill="#ff7c00" stroke="#000000" stroke-width="3" stroke-linecap="round"/><path d="M225.5,268l3.33333,-65.66666h17l8.66667,65.66667z" data-paper-data="{&quot;index&quot;:null}" fill="#ff7c00" stroke="#000000" stroke-width="2" stroke-linecap="butt"/><path d="M314.25,131.97578c0,39.75112 -33.69057,71.97578 -75.25,71.97578c-41.55943,0 -75.25,-32.22465 -75.25,-71.97578c0,-39.75112 33.69057,-71.97578 75.25,-71.97578c41.55943,0 75.25,32.22465 75.25,71.97578z" data-paper-data="{&quot;index&quot;:null}" fill="#ffe7b1" stroke="#000000" stroke-width="2" stroke-linecap="butt"/><path d="M187.81563,258.2065l29.62089,-57.79568l11.08119,3.71601l-27.28755,66.46234z" data-paper-data="{&quot;index&quot;:null}" fill="#ff7c00" stroke="#000000" stroke-width="2" stroke-linecap="butt"/><path d="M273.83333,268l-26,-64.66666l14,-3l24.33333,60z" data-paper-data="{&quot;index&quot;:null}" fill="#ff7c00" stroke="#000000" stroke-width="2" stroke-linecap="butt"/><path d="M228.125,296.16123v-27h24.75v27z" data-paper-data="{&quot;index&quot;:null}" fill="#0021ff" stroke="none" stroke-width="0" stroke-linecap="butt"/><path d="M193.875,348.41124l5.5,-12.75h39v12.75z" data-paper-data="{&quot;index&quot;:null}" fill="#ffa204" stroke="#000000" stroke-width="2" stroke-linecap="butt"/><path d="M244.375,347.91124v-11.25h43.38202l9.11798,11.25z" data-paper-data="{&quot;index&quot;:null}" fill="#ffa204" stroke="#000000" stroke-width="2" stroke-linecap="butt"/><path d="M243.525,344.66124h51.75l3.325,3.94756l-55.2,0.4z" data-paper-data="{&quot;index&quot;:null}" fill="#0518ff" stroke="none" stroke-width="0.5" stroke-linecap="round"/><path d="M229.83334,164.33334l-48.66666,-0.33334c0,0 -1.25477,-39.1792 4.92441,-50.18301c5.21365,-9.28441 21.38292,-12.33918 30.70944,-12.55679c3.80951,-0.08889 7.03281,1.40646 7.03281,1.40646" data-paper-data="{&quot;index&quot;:null}" fill="#ffffff" stroke="#000000" stroke-width="2" stroke-linecap="round"/><path d="M238.83335,180.54907c0,0 -2.27593,1.32894 -7.46283,2.06322c-4.30841,0.60992 -11.3487,0.70811 -14.14373,0.22143c-2.72047,-0.4737 -7.68679,-2.07722 -10.77085,-3.50129c-5.29584,-2.44537 -8.28927,-4.99909 -8.28927,-4.99909" data-paper-data="{&quot;index&quot;:null}" fill="none" stroke="#000000" stroke-width="2" stroke-linecap="round"/><path d="M243.83334,103.66667c0,0 29.03791,-4.28385 43.89922,3.85078c4.05277,2.21836 8.28542,7.52007 9.10078,11.48256c2.41591,11.7408 4.81323,31.54709 1.9046,38.14431c-1.6422,3.72476 -3.89186,7.95047 -8.32225,8.66947c-4.6611,0.75644 -11.55785,-2.0836 -15.30729,-1.64303c-2.15375,0.25307 -6.91123,-0.93479 -8.91071,-0.87064c-11.53556,0.37009 -17.36435,-0.63343 -17.36435,-0.63343" data-paper-data="{&quot;index&quot;:null}" fill="#ffffff" stroke="#000000" stroke-width="2" stroke-linecap="round"/><path d="M215.3,152v-29.8" data-paper-data="{&quot;index&quot;:null}" fill="none" stroke="#000000" stroke-width="2" stroke-linecap="round"/><path d="M263.9,120.4v29.8" data-paper-data="{&quot;index&quot;:null}" fill="none" stroke="#000000" stroke-width="2" stroke-linecap="round"/><path d="M308.68521,278.17105c5.34078,12.5279 1.37931,25.78165 -8.84819,29.60307c-10.22751,3.82142 -22.8481,-3.23657 -28.18889,-15.76448c-5.34078,-12.5279 -1.3793,-25.78165 8.8482,-29.60308c10.22751,-3.82142 22.8481,3.23658 28.18888,15.76448z" data-paper-data="{&quot;index&quot;:null}" fill="#ffe7b1" stroke="#000000" stroke-width="2" stroke-linecap="butt"/><path d="M204.5,281.75701c0,13.48883 -8.35735,24.42368 -18.66666,24.42368c-10.30931,0 -18.66667,-10.93485 -18.66667,-24.42368c0,-13.48883 8.35736,-24.42368 18.66667,-24.42368c10.30931,0 18.66666,10.93485 18.66666,24.42368z" data-paper-data="{&quot;index&quot;:null}" fill="#ffe7b1" stroke="#000000" stroke-width="2" stroke-linecap="butt"/><path d="M239.6,349.6088l-47.13333,-0.4l1.76815,-3.94755h45.25694z" data-paper-data="{&quot;index&quot;:null}" fill="#0518ff" stroke="none" stroke-width="0.5" stroke-linecap="round"/><path d="M318.3908,110.39507c-0.83033,4.98941 -4.70784,13.17152 -4.70784,13.17152l-10.08819,-19.75732l-2.69018,1.79611c0,0 -6.97692,-7.62132 -12.10583,-11.37542c-5.12893,-3.75411 -14.79601,-7.18449 -14.79601,-7.18449l4.03528,7.18449c0,0 -12.29167,-4.29911 -21.52146,-4.78966c-9.22981,-0.49054 -23.53911,2.39483 -23.53911,2.39483l4.70782,-5.98707c0,0 -9.0577,0.4593 -20.17638,4.78966c-11.11869,4.33036 -22.86658,11.97413 -22.86658,11.97413l6.05291,-8.3819c0,0 -15.18419,7.10169 -22.86658,12.57285c-7.68238,5.47114 -12.77837,9.57931 -12.77837,9.57931c0,0 -3.13306,-13.07133 -3.0102,-19.74236c0.12286,-6.67105 6.37292,-18.57486 6.37292,-18.57486l-5.76989,0.66267c0,0 19.24634,-18.43167 27.29136,-24.01225c2.15567,-1.49534 -2.18498,-3.86004 -2.18498,-3.86004c0,0 24.07023,-5.22172 31.77702,-6.91669c9.69614,-2.13251 25.55674,-2.99354 25.55674,-2.99354c0,0 1.61251,-5.60224 6.37319,-9.72716c3.68777,-3.1953 10.52286,-5.13073 12.00228,-5.25047c1.63748,-0.13252 -1.66595,4.32107 -3.62105,9.17915c-0.64146,1.59395 -0.20203,4.8975 -0.63092,5.89695c-0.96957,2.25935 9.4156,3.49378 9.4156,3.49378c0,0 9.40925,0.28288 18.83128,5.38835c7.13995,3.86889 22.30943,14.28543 22.30943,14.28543c0,0 -3.06968,-0.00462 -1.46049,2.47837c6.64372,10.25144 8.03726,12.7105 9.41566,20.35602c1.37841,7.64554 1.50288,18.36014 0.67256,23.34956z" fill="url(#color-1)" stroke="#000000" stroke-width="2" stroke-linecap="round"/><g stroke="none" stroke-width="1" stroke-linecap="butt" font-weight="normal" font-size="40" text-anchor="start"><text transform="translate(230.07117,230.18557) rotate(-0.22256) scale(0.15798,0.18675) skewX(-2.08191)" font-size="40" xml:space="preserve" fill="url(#color-2)" fill-rule="nonzero" stroke="none" stroke-width="1" stroke-linecap="butt" stroke-linejoin="miter" stroke-miterlimit="10" stroke-dasharray="" stroke-dashoffset="0" font-family="Pixel" font-weight="normal" text-anchor="start" style="mix-blend-mode: normal"><tspan x="0" dy="0">REED</tspan></text><text transform="translate(233.24823,233.70013) rotate(-0.62629) scale(0.07518,0.11424) skewX(4.56629)" font-size="40" xml:space="preserve" fill="#ff0000" fill-rule="nonzero" stroke="none" stroke-width="1" stroke-linecap="butt" stroke-linejoin="miter" stroke-miterlimit="10" stroke-dasharray="" stroke-dashoffset="0" font-family="Handwriting" font-weight="normal" text-anchor="start" style="mix-blend-mode: normal"><tspan x="0" dy="0">FAILOR</tspan></text></g><path d="M230.92107,268.69832v-6.03971l19.16952,-0.13129l-0.53909,6.33778" fill="none" stroke="#000000" stroke-width="1" stroke-linecap="round"/><g fill="#ff7c00" stroke="#000000" stroke-width="1" stroke-linecap="butt"><path d="M231.59861,217.21708v-12.92177h4.04507v12.92177z"/><path d="M236.94316,217.21708c0,1.48935 -1.5092,2.69671 -3.3709,2.69671c-1.86169,0 -3.3709,-1.20737 -3.3709,-2.69671c0,-1.48935 1.5092,-2.69671 3.3709,-2.69671c1.86169,0 3.3709,1.20737 3.3709,2.69671z"/></g><g fill="#ff7c00" stroke="#000000" stroke-width="1" stroke-linecap="butt"><path d="M239.72823,216.65676v-12.28231h4.29285v12.28231z" data-paper-data="{&quot;index&quot;:null}"/><path d="M241.84871,214.07477c1.97573,0 3.57737,1.28131 3.57737,2.86189c0,1.58058 -1.60164,2.8619 -3.57737,2.8619c-1.97573,0 -3.57738,-1.28131 -3.57738,-2.8619c0,-1.58058 1.60164,-2.86189 3.57738,-2.86189z" data-paper-data="{&quot;index&quot;:null}"/></g></g></g></svg>