<svg version="1.1" xmlns="http://www.w3.org/2000/svg" xmlns:xlink="http://www.w3.org/1999/xlink" width="269.90905" height="277.87099" viewBox="0,0,269.90905,277.87099"><defs><linearGradient x1="153.74999" y1="43.66963" x2="153.74999" y2="160.19424" gradientUnits="userSpaceOnUse" id="color-1"><stop offset="0" stop-color="#ff2667"/><stop offset="1" stop-color="#800019"/></linearGradient><linearGradient x1="326.25" y1="43.66963" x2="326.25" y2="160.19425" gradientUnits="userSpaceOnUse" id="color-2"><stop offset="0" stop-color="#ff2667"/><stop offset="1" stop-color="#800019"/></linearGradient><linearGradient x1="242.06598" y1="213.47695" x2="242.06598" y2="256.55987" gradientUnits="userSpaceOnUse" id="color-3"><stop offset="0" stop-color="#ff2667"/><stop offset="1" stop-color="#800019"/></linearGradient><linearGradient x1="300.58896" y1="144.89208" x2="300.58896" y2="192.10135" gradientUnits="userSpaceOnUse" id="color-4"><stop offset="0" stop-color="#ff2667"/><stop offset="1" stop-color="#800019"/></linearGradient><linearGradient x1="175.75558" y1="144.22543" x2="175.75558" y2="191.43468" gradientUnits="userSpaceOnUse" id="color-5"><stop offset="0" stop-color="#ff2667"/><stop offset="1" stop-color="#800019"/></linearGradient></defs><g transform="translate(-105.04547,-41.16963)"><g data-paper-data="{&quot;isPaintingLayer&quot;:true}" fill-rule="nonzero" stroke-linejoin="miter" stroke-miterlimit="10" stroke-dasharray="" stroke-dashoffset="0" style="mix-blend-mode: normal"><path d="M162.38838,90.6269c18.15528,14.75382 37.56613,22.46026 37.56613,22.46026l-75.24227,47.10709c0,0 -37.78397,-34.12913 -1.24122,-112.80404c6.99516,-15.06026 8.94199,18.87734 38.91738,43.2367z" data-paper-data="{&quot;index&quot;:null}" fill="url(#color-1)" stroke="#000000" stroke-width="5" stroke-linecap="round"/><path d="M317.61158,90.6269c29.97539,-24.35936 31.92223,-58.29696 38.91738,-43.2367c36.54275,78.67492 -1.24122,112.80404 -1.24122,112.80404l-75.24227,-47.10708c0,0 19.41084,-7.70645 37.56613,-22.46026z" data-paper-data="{&quot;index&quot;:null}" fill="url(#color-2)" stroke="#000000" stroke-width="5" stroke-linecap="round"/><path d="M117.20852,193.74933c0,-67.81576 54.97553,-122.79129 122.79129,-122.79129c67.81576,0 122.79129,54.97553 122.79129,122.79129c0,67.81576 -54.97553,122.79129 -122.79129,122.79129c-67.81576,0 -122.79129,-54.97553 -122.79129,-122.79129z" data-paper-data="{&quot;index&quot;:null}" fill="#664242" stroke="none" stroke-width="0" stroke-linecap="butt"/><path d="M122.35275,197.86456c0,-64.97479 52.67247,-117.64726 117.64726,-117.64726c64.97479,0 117.64726,52.67247 117.64726,117.64726c0,64.97479 -52.67247,117.64726 -117.64726,117.64726c-64.97479,0 -117.64726,-52.67247 -117.64726,-117.64726z" data-paper-data="{&quot;index&quot;:null}" fill="#804a4a" stroke="none" stroke-width="0" stroke-linecap="butt"/><path d="M116.64255,193.74935c0,-25.56908 7.81517,-49.31283 21.18712,-68.97286c0.02148,-0.03158 2.87462,-4.70745 4.70371,-3.21491c10.24979,8.36388 42.69283,44.17694 71.62163,57.98025c3.56922,1.70305 9.50257,2.60533 12.83256,3.72476c4.56028,1.53301 8.57569,7.31075 12.44596,7.3104c5.95067,-0.00053 7.4984,-5.26657 14.99824,-8.53954c2.2697,-0.99051 11.4043,-3.18938 13.74954,-4.39467c29.45311,-15.13676 62.2848,-48.71665 70.6978,-55.52998c1.2337,-0.99913 2.21551,2.74696 2.236,2.77715c13.3249,19.63789 21.11004,43.33948 21.11004,68.8594c0,67.81576 -54.97553,122.79129 -122.79129,122.79129c-67.81576,0 -122.79129,-54.97553 -122.79129,-122.79129z" data-paper-data="{&quot;index&quot;:null}" fill="#613030" stroke="none" stroke-width="0" stroke-linecap="butt"/><path d="M117.20872,193.74933c0,-67.81576 54.97553,-122.79129 122.79129,-122.79129c67.81576,0 122.79129,54.97553 122.79129,122.79129c0,67.81576 -54.97553,122.79129 -122.79129,122.79129c-67.81576,0 -122.79129,-54.97553 -122.79129,-122.79129z" data-paper-data="{&quot;index&quot;:null}" fill="none" stroke="#000000" stroke-width="5" stroke-linecap="butt"/><path d="M168.40968,220.39934c0.40796,-0.00812 13.35289,33.50069 71.94511,32.73131c47.43375,-0.62285 73.74515,-32.3225 74.2007,-32.27732c21.63652,2.14617 26.08732,7.4446 26.08732,7.4446c0,0 -15.19922,65.18439 -98.97617,65.97917c-87.73497,0.83233 -98.34121,-65.69445 -98.34121,-65.69445c0,0 13.25711,-7.94782 25.08425,-8.18334z" data-paper-data="{&quot;index&quot;:null}" fill="#804a4a" stroke="none" stroke-width="0" stroke-linecap="round"/><path d="M164.4998,205.96362c0,4.69442 -8.05887,8.5 -18,8.5c-9.94113,0 -18,-3.80558 -18,-8.5c0,-4.69442 8.05887,-8.5 18,-8.5c9.94113,0 18,3.80558 18,8.5z" data-paper-data="{&quot;index&quot;:null}" fill="#800019" stroke="none" stroke-width="0" stroke-linecap="butt"/><path d="M351.49998,205.96362c0,4.69442 -8.05887,8.5 -18,8.5c-9.94112,0 -18,-3.80558 -18,-8.5c0,-4.69442 8.05888,-8.5 18,-8.5c9.94113,0 18,3.80558 18,8.5z" data-paper-data="{&quot;index&quot;:null}" fill="#800019" stroke="none" stroke-width="0" stroke-linecap="butt"/><path d="M178.27458,256.55987c0,0 7.69622,-29.02148 12.358,-30.93529c1.83691,-0.75412 14.45533,5.18162 14.45533,5.18162c0,0 13.44314,-15.30224 19.88897,-17.31656c1.84305,-0.57595 15.57309,16.13547 15.57309,16.13547c0,0 13.76206,-16.71142 15.60511,-16.13547c6.44583,2.01431 20.38897,16.31656 20.38897,16.31656c0,0 12.11842,-4.93574 13.95533,-4.18162c4.66178,1.91381 15.358,30.60196 15.358,30.60196c0,0 -30.81474,-4.52908 -65.66191,-4.49599c-35.66816,0.03388 -61.92089,4.82932 -61.92089,4.82932z" data-paper-data="{&quot;index&quot;:null}" fill="url(#color-3)" stroke="#000000" stroke-width="5" stroke-linecap="round"/><path d="M300.4735,168.46447c12.79868,6.53777 41.30729,8.75812 48.73291,9.33554c2.00216,0.15569 -6.4923,0.03738 -6.4923,0.03738c0,0 -0.56591,3.92773 -1.36163,5.97181c-0.94846,2.43644 -3.95181,7.67749 -3.95181,7.67749c0,0 11.74119,0.0599 9.4635,0.1423c-6.37568,0.23066 -33.30861,-2.69569 -43.7736,-2.93269c-10.52909,-0.23845 -50.6689,1.4963 -51.12873,0.75484c-0.63093,-1.01736 -0.30991,-10.15529 1.52014,-19.44036c2.35427,-11.94481 6.55097,-24.56976 7.5181,-25.07128c1.26864,-1.03798 23.22388,15.22444 39.47344,23.52497z" fill="url(#color-4)" stroke="#000000" stroke-width="5" stroke-linecap="round"/><path d="M215.34448,144.27283c0.96712,0.50152 5.16383,13.12647 7.5181,25.07127c1.83005,9.28508 2.15106,18.42301 1.52013,19.44037c-0.45983,0.74147 -38.93297,-1.65996 -49.46206,-1.42151c-10.465,0.237 -39.06459,3.83003 -45.44028,3.59937c-2.27769,-0.0824 9.46349,-0.1423 9.46349,-0.1423c0,0 -3.00334,-5.24105 -3.95181,-7.67749c-0.79573,-2.04408 -1.36164,-5.97181 -1.36164,-5.97181c0,0 -8.49445,0.1183 -6.4923,-0.03738c7.42563,-0.57742 35.93424,-2.79776 48.73292,-9.33553c16.24956,-8.30053 38.2048,-24.56295 39.47344,-23.52497z" fill="url(#color-5)" stroke="#000000" stroke-width="5" stroke-linecap="round"/><path d="M178.34698,175.60299c0,-5.71265 7.29103,-10.34368 7.29103,-10.34368c0,0 7.29103,4.63102 7.29103,10.34368c0,5.71265 -7.29103,10.34368 -7.29103,10.34368c0,0 -7.29103,-4.63102 -7.29103,-10.34368z" fill="#000000" stroke="none" stroke-width="0" stroke-linecap="butt"/><path d="M286.40391,177.60299c0,-5.71265 7.29103,-10.34367 7.29103,-10.34367c0,0 7.29103,4.63102 7.29103,10.34367c0,5.71265 -7.29103,10.34368 -7.29103,10.34368c0,0 -7.29103,-4.63103 -7.29103,-10.34368z" fill="#000000" stroke="none" stroke-width="0" stroke-linecap="butt"/><path d="M154.73334,195.03334c0,3.58985 -5.9173,6.5 -13.21667,6.5c-7.29937,0 -13.21667,-2.91015 -13.21667,-6.5c0,-3.58985 5.9173,-6.5 13.21667,-6.5c7.29937,0 13.21667,2.91015 13.21667,6.5z" fill="#00ffff" stroke="none" stroke-width="0" stroke-linecap="butt"/><path d="M348.06667,195.03334c0,3.58986 -5.9173,6.5 -13.21667,6.5c-7.29937,0 -13.21666,-2.91014 -13.21666,-6.5c0,-3.58985 5.9173,-6.5 13.21666,-6.5c7.29937,0 13.21667,2.91015 13.21667,6.5z" fill="#00ffff" stroke="none" stroke-width="0" stroke-linecap="butt"/><path d="M138.2,211.79999l-0.33333,-12.33333" fill="none" stroke="#00ffff" stroke-width="3" stroke-linecap="round"/><path d="M146.2,198.8l0.66667,6" fill="none" stroke="#00ffff" stroke-width="3" stroke-linecap="round"/><path d="M338.86667,211.13334l0.33333,-12.33334" data-paper-data="{&quot;index&quot;:null}" fill="none" stroke="#00ffff" stroke-width="3" stroke-linecap="round"/><path d="M330.6,205.6l0.66667,-6" data-paper-data="{&quot;index&quot;:null}" fill="none" stroke="#00ffff" stroke-width="3" stroke-linecap="round"/></g></g></svg>