<svg version="1.1" xmlns="http://www.w3.org/2000/svg" xmlns:xlink="http://www.w3.org/1999/xlink" width="308.88978" height="425.78193" viewBox="0,0,308.88978,425.78193"><g transform="translate(-85.55511,32.89097)"><g data-paper-data="{&quot;isPaintingLayer&quot;:true}" fill-rule="nonzero" stroke-linejoin="miter" stroke-miterlimit="10" stroke-dasharray="" stroke-dashoffset="0" style="mix-blend-mode: normal"><g stroke="#0d00ff" stroke-width="2"><g data-paper-data="{&quot;index&quot;:null}"><path d="M253.6694,261.20617c0,0 -68.39456,46.80675 -107.93202,20.63406c-39.53747,-26.17269 -16.5581,-99.53413 -24.33761,-120.6299c-7.77949,-21.09576 -33.86102,-40.20996 -33.86102,-40.20996c0,0 69.95236,-31.03495 97.87952,1.05815c27.92717,32.09309 -1.18521,77.73255 7.93618,95.76321c9.1214,18.03066 52.90786,11.63973 52.90786,11.63973z" fill="#2419ff" stroke-linecap="round"/><path d="M121.39978,161.2104c-7.77949,-21.09576 -33.86102,-40.20996 -33.86102,-40.20996c0,0 69.95236,-31.03495 97.87952,1.05815c27.92717,32.09309 -1.18521,77.73255 7.93618,95.76321c2.22524,4.39872 12.51276,10.26396 12.51276,10.26396c0,0 1.56295,17.819 -3.43228,31.38969c-4.06538,11.04451 -8.65878,21.85179 -23.75936,30.21591c-11.75999,0.60584 -23.22069,-1.41835 -32.93819,-7.85106c-39.53747,-26.17269 -16.5581,-99.53413 -24.33761,-120.6299z" fill="#3a30ff" stroke-linecap="butt"/><path d="M121.39981,161.21039c-7.77949,-21.09576 -33.86102,-40.20996 -33.86102,-40.20996c0,0 69.95236,-31.03495 97.87952,1.05815c6.04966,6.95209 10.7176,15.93054 12.05772,25.86848c3.18217,23.59805 -5.03715,50.15197 -5.03715,50.15197c0,0 -22.3708,18.66512 -32.77916,21.65354c-11.27197,3.23638 -38.00187,-0.34748 -38.00187,-0.34748c0,0 3.61908,-47.66109 -0.25803,-58.17469z" fill="#4c43ff" stroke-linecap="butt"/><path d="M121.39978,161.2104c-7.77949,-21.09576 -33.86102,-40.20996 -33.86102,-40.20996c0,0 47.09034,-20.89202 79.42309,-10.66755c0.07106,0.32293 0.15529,0.64093 0.25209,0.95339c0,27.26884 -1.63538,45.04029 -23.17883,61.75762c-4.30119,3.33764 -13.40514,11.16423 -18.88878,12.58759c-0.20255,0.05256 -1.03114,0.15 -2.24975,0.28385c0.47066,-10.53639 0.48825,-19.32212 -1.49677,-24.70495z" fill="#6d66ff" stroke-linecap="butt"/></g><path d="M88.45499,120.23826l46.02983,-8.46526l-13.22696,31.21564l33.86103,-1.05815l-16.93051,25.92486l20.10498,8.99433" data-paper-data="{&quot;index&quot;:null}" fill="none" stroke-linecap="round"/></g><g data-paper-data="{&quot;index&quot;:null}" stroke="#0d00ff" stroke-width="2" stroke-linecap="butt"><path d="M262.09378,207.565c-5.99731,-50.61987 -5.46954,-136.41192 11.83092,-138.46164c17.30045,-2.04973 57.98857,72.38853 63.98589,123.00839c5.99733,50.61983 -7.89157,73.28847 -30.41291,75.95675c-17.30046,2.04972 -39.4066,-9.88367 -45.40391,-60.50354z" fill="#ffffff"/><path d="M267.46162,203.2222c-4.72833,-39.90899 -5.15059,-107.44863 7.11357,-108.90165c12.2642,-1.45302 41.84403,57.53058 46.57236,97.43958c4.72832,39.90897 -4.92211,57.62706 -20.88734,59.51859c-12.26418,1.45302 -28.07024,-8.14754 -32.79857,-48.05654z" fill="#2419ff"/></g><g stroke="#0d00ff" stroke-width="2" stroke-linecap="butt"><path d="M230.41104,205.62917c-5.99731,50.61987 -28.10345,62.55326 -45.40391,60.50354c-22.52134,-2.66828 -36.41024,-25.33692 -30.41291,-75.95675c5.99732,-50.61986 46.68544,-125.05812 63.98589,-123.00839c17.30046,2.04972 17.82823,87.84177 11.83092,138.46164z" fill="#ffffff"/><path d="M225.04317,201.28639c-4.72833,39.909 -20.53439,49.50956 -32.79857,48.05654c-15.96523,-1.89153 -25.61566,-19.60962 -20.88734,-59.51859c4.72833,-39.909 34.30816,-98.8926 46.57236,-97.43958c12.26416,1.45302 11.8419,68.99266 7.11357,108.90165z" fill="#2419ff"/></g><g stroke="#0d00ff" stroke-width="2.5"><g><g stroke-linecap="butt"><path d="M199.30011,250.50522l27.36186,-93.68378l10.78597,3.15022l-27.36188,93.68378z" fill="#ffffff"/><path d="" fill="#000000"/></g><g><path d="M210.59817,244.40324c7.54341,4.58668 9.69448,14.82438 4.80455,22.86652c-4.88993,8.04215 -14.96915,10.84337 -22.51256,6.25669c-7.54341,-4.58668 -9.69448,-14.82438 -4.80455,-22.86652c4.88993,-8.04215 14.96915,-10.84337 22.51256,-6.25669z" fill="#ffffff" stroke-linecap="butt"/><path d="M204.97412,275.17572l1.94724,-7.40241" fill="none" stroke-linecap="round"/><path d="M200.38036,266.85211c0,0 -2.18236,6.6414 -2.73197,7.88706" fill="none" stroke-linecap="round"/><path d="M192.1242,271.47265l2.9524,-7.95381" fill="none" stroke-linecap="round"/></g></g><g fill="#000000" stroke-linecap="butt"><g><path d="M199.30011,250.50522l24.30256,-83.20909c3.53376,1.25591 7.08098,2.47273 10.67687,3.52376l-24.19347,82.83555z"/><path d=""/></g><g><path d="M210.59817,244.40324c7.54341,4.58668 9.69448,14.82438 4.80455,22.86652c-1.92333,3.16318 -4.64947,5.51556 -7.70835,6.92651c-0.85481,-4.65501 -4.93309,-8.18232 -9.83521,-8.18232c-3.54246,0 -6.6547,1.84198 -8.43119,4.62041c-4.61914,-5.21776 -5.37476,-13.34261 -1.34237,-19.97443c4.88993,-8.04215 14.96915,-10.84337 22.51256,-6.25669z"/></g></g></g><g data-paper-data="{&quot;index&quot;:null}" stroke="#0d00ff" stroke-width="2" stroke-linecap="butt"><path d="M255.23097,39.38073c-1.63612,-36.89977 27.97776,-68.18484 66.14448,-69.87714c38.16673,-1.69232 70.43331,26.84898 72.06944,63.74875c1.63612,36.89976 -27.97776,68.18483 -66.14448,69.87714c-38.16672,1.6923 -70.43331,-26.84901 -72.06943,-63.74877z" fill="#ffffff"/><path d="M285.85061,29.25763c9.51825,-32.5614 38.61621,-52.70735 64.99213,-44.99723c26.3759,7.71015 40.04174,40.35665 30.52349,72.91808c-9.51824,32.56143 -38.61621,52.70738 -64.99212,44.99727c-26.3759,-7.71013 -40.04174,-40.35666 -30.52349,-72.91808z" fill="#2419ff"/></g><g stroke="#0d00ff" stroke-width="2" stroke-linecap="butt"><path d="M230.443,38.05768c-1.63612,36.89977 -33.90271,65.44107 -72.06943,63.74877c-38.16672,-1.6923 -67.7806,-32.97738 -66.14448,-69.87714c1.63612,-36.89977 33.90271,-65.44106 72.06943,-63.74874c38.16672,1.6923 67.7806,32.97737 66.14448,69.87714z" fill="#ffffff"/><path d="M199.82336,27.93463c9.51824,32.56143 -4.14759,65.20795 -30.52349,72.91808c-26.37592,7.71012 -55.47388,-12.43584 -64.99213,-44.99726c-9.51824,-32.56143 4.14759,-65.20794 30.52349,-72.91808c26.37592,-7.71012 55.47388,12.43584 64.99213,44.99723z" fill="#2419ff"/></g><g stroke="#0d00ff" stroke-width="2.5" stroke-linecap="round"><g data-paper-data="{&quot;index&quot;:null}"><path d="M249.82134,265.76293l11.06327,-0.78825c0,0 0.07025,2.79761 0.1515,6.03338c0.33428,13.31278 2.56443,102.12728 2.56443,102.12728c0,0 21.72562,-1.28845 25.59954,1.88356c10.23917,8.38396 5.69383,16.54002 5.69383,16.54002l-45.07257,-0.30022z" fill="#ffffff"/><path d="M291.20618,383.15284v7.20526" fill="none"/><path d="M283.83065,384.65393l-0.81951,6.00439" fill="none"/></g><path d="M249.7826,275.39496c3.76266,-0.29508 7.53481,-0.46128 11.30731,-0.62464c0.53313,21.23187 2.47189,98.44219 2.47189,98.44219c0,0 21.72562,-1.28845 25.59954,1.88355c4.90562,4.01678 6.4176,7.98125 6.66172,11.02152c-1.51053,-0.52594 -3.13054,-0.81839 -4.76272,-1.07207c-8.29091,-1.28861 -19.44148,-1.51676 -23.82277,6.40661l-17.45497,-0.11626z" fill="#000000"/></g><g stroke="#0d00ff" stroke-width="2.5" stroke-linecap="round"><g><path d="M248.32306,391.33585l-45.07257,0.30022c0,0 -4.54534,-8.15606 5.69383,-16.54002c3.87392,-3.172 25.59954,-1.88355 25.59954,-1.88355c0,0 2.23015,-88.81451 2.56443,-102.12729c0.08125,-3.23577 0.1515,-6.03338 0.1515,-6.03338l11.06327,0.78825z" fill="#ffffff"/><path d="M206.93822,390.43519v-7.20526" fill="none"/><path d="M215.13325,390.73541l-0.81951,-6.00439" fill="none"/></g><path d="M248.32306,391.33585l-17.45497,0.11626c-4.38129,-7.92336 -15.53186,-7.69522 -23.82277,-6.40661c-1.63217,0.25368 -3.25219,0.54613 -4.76272,1.07207c0.24411,-3.04027 1.7561,-7.00475 6.66172,-11.02152c3.87392,-3.172 25.59954,-1.88355 25.59954,-1.88355c0,0 1.93877,-77.21032 2.4719,-98.44218c3.7725,0.16337 7.54464,0.32956 11.3073,0.62464z" fill="#000000"/></g><path d="M214.20697,269.3334l17.23046,-119.51443l31.57831,0.16387l16.91803,118.71461z" fill="#ffffff" stroke="#0d00ff" stroke-width="2" stroke-linecap="butt"/><g stroke="#0d00ff" stroke-width="2"><path d="M318.83852,100.28775c-1.04496,31.59223 -34.90156,56.11095 -75.62083,54.76409c-40.71926,-1.34686 -72.88164,-28.04926 -71.83667,-59.64149c1.04496,-31.59223 34.90156,-56.11095 75.62083,-54.76409c40.71926,1.34686 72.88164,28.04926 71.83667,59.64149z" fill="#ffffff" stroke-linecap="butt"/><path d="M288.46613,105.26225l-65.93036,34.53253l2.20783,-83.07176z" fill="#2419ff" stroke-linecap="round"/></g><path d="M245.5738,123.83603l-6.23993,-3.99611l10.97183,-0.11045z" fill="#0a00c2" stroke="#0d00ff" stroke-width="0" stroke-linecap="round"/><g stroke="#0d00ff" stroke-width="2" stroke-linecap="butt"><g><path d="M234.52586,250.91828v-21.4755c1.28919,1.00318 2.69528,1.56375 4.3879,1.85802c2.78883,0.48484 5.46725,0.89262 8.28658,1.10134c2.58461,0.19135 5.92466,0.65026 8.35171,-0.67879c1.55005,-0.85185 3.09314,-1.64948 4.64048,-2.45028v21.64521z" fill="#b550f8"/><path d="M234.52586,250.91828v-74.66667h25.66667v74.66667z" fill="#6d66ff"/><path d="M234.52586,176.25162h25.66667v57.17586c-1.60049,0.90256 -3.19594,1.79915 -4.79919,2.75905c-2.35699,1.41662 -5.65887,0.89752 -8.16971,0.695c-2.80975,-0.22663 -5.47643,-0.66931 -8.25561,-1.19569c-1.73182,-0.32801 -3.14318,-0.9591 -4.44215,-2.12794z" fill="#4c43ff"/><path d="M234.52586,176.25163h25.66667v39.42854c-1.98932,1.28899 -4.01833,2.50152 -6.20087,3.18148c-2.54022,0.79225 -5.60434,0.75514 -8.20742,0.31753c-1.45182,-0.24407 -3.28802,-0.18059 -4.64331,-0.87884c-1.11691,-0.57545 -2.07312,-1.50883 -3.31398,-1.69067c-1.28265,-0.46168 -2.3829,-1.09749 -3.3011,-2.03466z" fill="#3a30ff"/></g><path d="M234.52586,176.58497h25.66668v16.79548c-0.26928,0.50887 -0.45746,1.07216 -0.89631,1.42283c-2.37503,1.94119 -5.0689,2.18928 -7.8608,2.38979c-2.68659,0.19295 -5.61527,0.49724 -8.27867,-0.04276c-2.72613,-0.55272 -5.20852,-2.2672 -7.72267,-3.6549c-0.24007,-0.13119 -0.55434,-0.34026 -0.90822,-0.60499z" fill="#2419ff"/></g><g stroke="#0a01c5" stroke-width="2"><path d="M212.07961,121.27043l-38.55376,-14.9328l39.36827,4.8871z" fill="#1c13c1" stroke-linecap="round"/><path d="M240.85917,91.8121c0,16.71923 -11.36559,30.27285 -25.38575,30.27285c-14.02016,0 -25.38575,-13.55362 -25.38575,-30.27285c0,-16.71923 11.36559,-30.27285 25.38575,-30.27285c14.02016,0 25.38575,13.55362 25.38575,30.27285z" fill="#ffffff" stroke-linecap="butt"/></g><g stroke-width="0" stroke-linecap="butt"><path d="M236.24358,93.16963c0,13.12048 -6.13863,23.75672 -13.71103,23.75672c-7.57239,0 -13.71102,-10.63624 -13.71102,-23.75672c0,-13.12047 6.13862,-23.75673 13.71102,-23.75673c7.57239,0 13.71103,10.63625 13.71103,23.75673z" fill="#0a00c2" stroke="#0a01c5"/><path d="M231.94923,100.77177c0,8.17219 -3.82905,14.79704 -8.55242,14.79704c-4.72337,0 -8.55242,-6.62486 -8.55242,-14.79704c0,-8.17218 3.82905,-14.79704 8.55242,-14.79704c4.72337,0 8.55242,6.62486 8.55242,14.79704z" fill="#0d00ff" stroke="none"/></g><g data-paper-data="{&quot;index&quot;:null}" stroke="#0a01c5" stroke-width="2"><path d="M277.82423,111.22473l39.36827,-4.8871l-38.55376,14.9328z" fill="#1c13c1" stroke-linecap="round"/><path d="M275.24493,61.53923c14.02017,0 25.38575,13.55362 25.38575,30.27285c0,16.71923 -11.36559,30.27285 -25.38575,30.27285c-14.02016,0 -25.38575,-13.55362 -25.38575,-30.27285c0,-16.71923 11.36559,-30.27285 25.38575,-30.27285z" fill="#ffffff" stroke-linecap="butt"/></g><g data-paper-data="{&quot;index&quot;:null}" stroke-width="0" stroke-linecap="butt"><path d="M268.18579,69.4129c7.57239,0 13.71102,10.63625 13.71102,23.75673c0,13.12048 -6.13863,23.75672 -13.71102,23.75672c-7.57239,0 -13.71102,-10.63624 -13.71102,-23.75672c0,-13.12047 6.13863,-23.75673 13.71102,-23.75673z" fill="#0a00c2" stroke="#0a01c5"/><path d="M267.65487,85.97473c4.72337,0 8.55242,6.62486 8.55242,14.79704c0,8.17219 -3.82905,14.79704 -8.55242,14.79704c-4.72337,0 -8.55242,-6.62486 -8.55242,-14.79704c0,-8.17218 3.82905,-14.79704 8.55242,-14.79704z" fill="#0d00ff" stroke="none"/></g><g stroke="#0d00ff" stroke-width="2.5"><g data-paper-data="{&quot;index&quot;:null}"><g stroke-linecap="butt"><path d="M213.4844,161.15976l93.12762,29.19879l-3.3617,10.72194l-93.12761,-29.1988z" fill="#ffffff"/><path d="" fill="#000000"/></g><g><path d="M203.77341,181.12697c-9.40391,-0.39219 -16.72909,-7.86075 -16.36122,-16.68149c0.36787,-8.82073 8.28949,-15.65341 17.69341,-15.26122c9.40391,0.39219 16.72909,7.86075 16.36122,16.68149c-0.36787,8.82073 -8.28949,15.65341 -17.69341,15.26122z" fill="#ffffff" stroke-linecap="butt"/><path d="M199.98205,155.9619l-7.23934,-2.48583" fill="none" stroke-linecap="round"/><path d="M189.04249,159.81365c1.34132,0.23365 8.07788,2.10172 8.07788,2.10172" fill="none" stroke-linecap="round"/><path d="M188.69616,166.222l8.25569,1.95533" fill="none" stroke-linecap="round"/></g></g><g data-paper-data="{&quot;index&quot;:null}" fill="#000000" stroke-linecap="butt"><g><path d="M212.93994,161.04412l82.34379,25.81768c-1.12009,3.57498 -2.07523,7.20143 -2.99038,10.83836l-82.71511,-25.93411z"/><path d=""/></g><g><path d="M203.22895,181.01133c-7.75478,-0.32342 -14.09599,-5.45891 -15.87528,-12.19653c3.29722,0.06303 6.55617,-1.50481 8.52114,-4.45234c2.71916,-4.07884 2.04641,-9.42877 -1.35267,-12.72211c2.87072,-1.76252 6.3402,-2.72599 10.039,-2.57172c9.40391,0.39219 16.72909,7.86075 16.36122,16.68149c-0.36787,8.82073 -8.28949,15.65341 -17.69341,15.26122z"/></g></g></g></g></g></svg>