<svg version="1.1" xmlns="http://www.w3.org/2000/svg" xmlns:xlink="http://www.w3.org/1999/xlink" width="521.66137" height="397.13272" viewBox="0,0,521.66137,397.13272"><defs><linearGradient x1="140.36787" y1="29.83846" x2="140.36787" y2="41.66268" gradientUnits="userSpaceOnUse" id="color-1"><stop offset="0" stop-color="#35ff00"/><stop offset="1" stop-color="#1db300"/></linearGradient><linearGradient x1="140.36787" y1="29.83846" x2="140.36787" y2="41.66268" gradientUnits="userSpaceOnUse" id="color-2"><stop offset="0" stop-color="#00ff21"/><stop offset="1" stop-color="#00b317"/></linearGradient></defs><g transform="translate(20.83069,18.56633)"><g data-paper-data="{&quot;isPaintingLayer&quot;:true}" fill-rule="nonzero" stroke-linejoin="miter" stroke-miterlimit="10" stroke-dasharray="" stroke-dashoffset="0" style="mix-blend-mode: normal"><path d="M132.43178,154.07126c0,0 18.49313,-13.41972 36.9719,-26.851c25.42735,-18.48186 14.22608,-30.04855 28.12115,-44.68201c16.97983,-17.88208 34.02356,-35.02598 46.60972,-45.83256c15.29219,-13.12998 36.27153,-30.35669 56.30794,-40.87093c18.50075,-9.70836 36.72227,-13.23315 36.72227,-13.23315l-16.14071,17.60062c0,0 52.17521,-11.43044 78.46999,-7.46468c31.73408,4.78617 98.70262,34.18601 98.70262,34.18601c0,0 -51.67603,8.28517 -89.82693,30.29305c-33.75612,19.47269 -92.51267,114.14775 -153.67257,152.9254c-60.91693,38.62358 -126.18272,20.08599 -126.18272,20.08599z" data-paper-data="{&quot;index&quot;:null}" fill="#006bff" stroke="#001052" stroke-width="1.5" stroke-linecap="round"/><g data-paper-data="{&quot;index&quot;:null}" stroke-linecap="round"><path d="M232.69112,152.87375c0,0 -70.5383,-15.49978 -86.99992,-33.83195c-16.97062,-18.899 -13.34339,-77.91331 -13.34339,-77.91331c0,0 6.4997,-18.25805 27.37703,-31.09146c20.87733,-12.83346 56.35108,-12.47377 56.35108,-12.47377c0,0 16.82975,12.30386 23.56064,19.84534c6.49888,7.2816 16.15303,24.65126 16.15303,24.65126l6.32736,-1.38109c0,0 16.77247,18.81589 17.41377,55.73158c0.16393,9.43378 -3.25252,30.69063 -16.17632,41.91263c-18.33365,15.95502 -30.66329,14.55078 -30.66329,14.55078z" fill="#006bff" stroke="#001052" stroke-width="1"/><path d="M219.61253,130.99068c0,0 -59.01637,3.05992 -72.6952,-10.46422c-15.06482,-14.8944 -13.93764,-75.18869 -13.93764,-75.18869c0,0 11.14546,-20.51835 30.02983,-29.57536c18.88438,-9.05702 33.58849,-6.44613 33.58849,-6.44613c0,0 28.60363,17.75091 39.1871,43.43115c7.78828,18.89781 8.33631,31.13703 4.21749,51.05052c-2.68667,12.98941 -20.39005,27.19272 -20.39005,27.19272z" fill="#3287ff" stroke="#3287ff" stroke-width="0.5"/></g><g stroke-linecap="round"><path d="M30.70564,153.81188c0,0 -12.32965,1.40425 -30.66329,-14.55078c-12.92379,-11.22201 -16.34025,-32.47886 -16.17632,-41.91264c0.64131,-36.91567 17.41377,-55.73158 17.41377,-55.73158l6.32736,1.38108c0,0 9.65415,-17.36966 16.15303,-24.65126c6.7309,-7.54148 23.56064,-19.84534 23.56064,-19.84534c0,0 35.47376,-0.35969 56.35108,12.47377c20.87734,12.83342 27.37703,31.09146 27.37703,31.09146c0,0 9.76752,69.24814 -7.20311,88.14714c-16.46164,18.33216 -93.14022,23.59813 -93.14022,23.59813z" fill="#006bff" stroke="#001052" stroke-width="1"/><path d="M43.78419,131.92888c0,0 -17.70339,-14.20331 -20.39005,-27.19272c-4.11881,-19.91349 -3.57078,-32.15269 4.2175,-51.05052c10.58346,-25.68023 39.1871,-43.43115 39.1871,-43.43115c0,0 14.7041,-2.61089 33.58849,6.44613c18.88437,9.05702 30.02983,29.57536 30.02983,29.57536c0,0 6.58522,67.11685 -8.4796,82.01126c-13.67882,13.52412 -78.15324,3.64167 -78.15324,3.64167z" fill="#3287ff" stroke="#3287ff" stroke-width="0.5"/></g><g stroke-width="1"><path d="M117.75822,267.37802c-1.49745,-58.88807 22.64566,-71.37842 50.58052,-71.37842c20.84797,0 55.22194,6.34178 62.96342,34.81473c0.48929,1.7996 5.04563,14.07253 7.41227,25.22542c2.22646,10.49225 2.28541,19.95496 2.28541,19.95496c0,0 -1.48933,-4.67286 -2.39164,-6.55991c-0.71684,-1.49911 -2.59499,-3.86872 -2.59499,-3.86872c0,0 -0.62202,1.04819 -0.62202,3.143c0,39.42121 -39.11761,70.04736 -67.05247,70.04736c-14.59714,0 -36.9232,6.92813 -36.9232,6.92813c0,0 -13.17886,-59.4907 -13.65732,-78.30657z" fill="#494949" stroke="#2c2c2c" stroke-linecap="butt"/><g fill="#ffffff"><path d="M130.76158,342.17436c0,-30.28913 34.37586,-54.84334 76.78066,-54.84334c42.40479,0 76.78066,24.55421 76.78066,54.84334c0,30.28913 -34.72408,33.60243 -77.12885,33.60243c-42.40479,0 -76.43246,-3.31329 -76.43246,-33.60243z" stroke="#888888" stroke-linecap="butt"/><path d="M256.46594,322.50041c0,0 8.8979,4.50229 11.40977,22.07963c1.78726,12.5065 -1.65983,23.53609 -1.65983,23.53609" stroke="#ffffff" stroke-linecap="round"/><path d="M194.48429,329.46466c0,0 8.89789,4.50228 11.40977,22.07961c1.78726,12.5065 -1.65982,23.5361 -1.65982,23.5361" stroke="#ffffff" stroke-linecap="round"/></g></g><g stroke-width="1"><path d="M150.64227,266.79873c-0.49113,19.31385 -14.01878,80.37903 -14.01878,80.37903c0,0 -22.91692,-7.11149 -37.9004,-7.11149c-28.67417,0 -68.82707,-31.4367 -68.82707,-71.90123c0,-2.15025 -0.63848,-3.22618 -0.63848,-3.22618c0,0 -1.92787,2.43231 -2.66366,3.97111c-0.92619,1.93696 -2.45494,6.73352 -2.45494,6.73352c0,0 0.06052,-9.71314 2.3459,-20.48309c2.42929,-11.44805 7.10621,-24.04581 7.60846,-25.89304c7.94636,-29.22652 43.23008,-35.73613 64.6298,-35.73613c28.67417,0 53.45627,12.82093 51.91917,73.26753z" fill="#494949" stroke="#2c2c2c" stroke-linecap="butt"/><g fill="#ffffff"><path d="M137.29476,343.57465c0,31.09076 -34.92823,34.49174 -78.45531,34.49174c-43.52707,0 -79.17014,-3.40097 -79.17014,-34.49174c0,-31.09076 35.28566,-56.29482 78.81273,-56.29482c43.52707,0 78.81273,25.20406 78.81273,56.29482z" stroke="#888888" stroke-linecap="butt"/><path d="M-1.74447,370.20303c0,0 -3.5383,-11.3215 -1.70376,-24.15899c2.57835,-18.04255 11.71173,-22.66398 11.71173,-22.66398" stroke="#ffffff" stroke-linecap="round"/><path d="M61.87761,377.35156c0,0 -3.5383,-11.3215 -1.70374,-24.159c2.57835,-18.04255 11.71173,-22.66397 11.71173,-22.66397" stroke="#ffffff" stroke-linecap="round"/></g></g><g stroke-width="1"><g><path d="M114.60951,133.87204l-6.96282,42.25162l-15.50936,-3.89486l11.85284,-40.81926z" fill="#ff0000" stroke="#ba0000" stroke-linecap="butt"/><g><path d="M109.76145,172.37337l-1.81418,6.06882c0,0 -5.28386,-2.32209 -8.25323,-3.01066c-2.98776,-0.69284 -9.23758,-0.77108 -9.23758,-0.77108l1.32293,-6.45694c0,0 6.25476,-0.06204 9.18242,0.75828c3.78395,1.06026 8.79966,3.41157 8.79966,3.41157z" fill="#ff0000" stroke="#ba0000" stroke-linecap="butt"/><path d="M107.78871,171.98215l-1.68832,5.27539" fill="#ff9ded" stroke="#000000" stroke-linecap="round"/><path d="M105.29934,170.81075l-1.47026,5.46305" fill="#ff9ded" stroke="#000000" stroke-linecap="round"/><path d="M102.52904,169.84847l-1.24216,5.60736" fill="#ff9ded" stroke="#ba0000" stroke-linecap="round"/><path d="M98.40105,174.74092l0.79342,-5.80281" fill="#ff9ded" stroke="#ba0000" stroke-linecap="round"/><path d="M96.8901,168.72366l-0.77589,5.85258" fill="#ff9ded" stroke="#ba0000" stroke-linecap="round"/><path d="M93.56908,174.39736l0.47998,-5.82979" fill="#ff9ded" stroke="#ba0000" stroke-linecap="round"/></g><g stroke="#001052" stroke-linecap="butt"><g fill="#006bff"><path d="M78.55798,184.43735c2.04883,-8.83539 11.73174,-14.13767 21.62737,-11.84298c9.89563,2.2947 16.25672,11.31741 14.2079,20.1528c-2.04883,8.83539 -11.73174,14.13767 -21.62737,11.84297c-9.89563,-2.2947 -16.25672,-11.31741 -14.2079,-20.1528z"/></g><path d="M84.21696,186.4164c1.314,-5.6665 7.89154,-8.98185 14.69133,-7.40505c6.79979,1.57681 11.24691,7.44865 9.93291,13.11515c-1.314,5.6665 -7.89153,8.98185 -14.69133,7.40505c-6.79979,-1.57681 -11.24691,-7.44865 -9.93291,-13.11515z" fill="#66a6ff"/></g></g><path d="M86.52108,197.41775l-0.49443,3.95547" fill="#ff9ded" stroke="#001052" stroke-linecap="round"/><path d="M100.36526,200.0547v4.2851" fill="#ff9ded" stroke="#001052" stroke-linecap="round"/></g><g stroke-width="1"><g data-paper-data="{&quot;index&quot;:null}"><path d="M163.09734,130.91895l11.85284,40.81926l-15.50936,3.89486l-6.96282,-42.25162z" fill="#ff0000" stroke="#ba0000" stroke-linecap="butt"/><g><path d="M166.12572,168.47121c2.92766,-0.82033 9.18241,-0.75828 9.18241,-0.75828l1.32293,6.45694c0,0 -6.24982,0.07824 -9.23759,0.77108c-2.96938,0.68857 -8.25323,3.01066 -8.25323,3.01066l-1.81418,-6.06882c0,0 5.0157,-2.35131 8.79966,-3.41157z" fill="#ff0000" stroke="#ba0000" stroke-linecap="butt"/><path d="M159.29881,171.49155l1.68832,5.27539" fill="#ff9ded" stroke="#000000" stroke-linecap="round"/><path d="M161.78817,170.32018l1.47026,5.46307" fill="#ff9ded" stroke="#000000" stroke-linecap="round"/><path d="M165.80063,174.96522l-1.24216,-5.60736" fill="#ff9ded" stroke="#000000" stroke-linecap="round"/><path d="M167.89306,168.4475l0.79342,5.80281" fill="#ff9ded" stroke="#ba0000" stroke-linecap="round"/><path d="M170.19742,168.23305l0.77589,5.85258" fill="#ff9ded" stroke="#ba0000" stroke-linecap="round"/><path d="M173.51843,173.90676l-0.47998,-5.82979" fill="#ff9ded" stroke="#ba0000" stroke-linecap="round"/></g><g stroke="#001052" stroke-linecap="butt"><g fill="#006bff"><path d="M174.32165,204.09955c-9.89563,2.29469 -19.57854,-3.00758 -21.62737,-11.84297c-2.04883,-8.83539 4.31225,-17.8581 14.2079,-20.1528c9.89563,-2.29469 19.57854,3.00759 21.62737,11.84298c2.04883,8.83539 -4.31225,17.8581 -14.2079,20.15279z"/></g><path d="M172.93765,199.0409c-6.79979,1.57681 -13.37732,-1.73855 -14.69133,-7.40505c-1.314,-5.6665 3.13312,-11.53835 9.93291,-13.11515c6.79979,-1.57681 13.37732,1.73855 14.69133,7.40505c1.314,5.6665 -3.13312,11.53835 -9.93291,13.11515z" fill="#66a6ff"/></g></g><path d="M165.13622,203.68058v-3.62585" fill="#ff9ded" stroke="#000000" stroke-linecap="round"/><path d="M183.59512,194.78076l1.31849,2.30736" fill="#ff9ded" stroke="#001052" stroke-linecap="round"/></g><g stroke-width="1"><path d="M104.31027,202.35976c0,0 0.33885,-9.52372 0.73484,-20.65358c0.35204,-9.89468 0.74925,-21.05879 0.99369,-27.92907c0.4262,-11.97886 1.16389,-32.71258 1.16389,-32.71258h57.19521l1.22372,81.6239z" fill="#ff0000" stroke="#000000" stroke-linecap="butt"/><path d="M155.17446,201.89145l-3.152,-79.42638l12.05177,-0.36518l1.29788,80.15673z" fill="#ff3c3c" stroke="#ba0000" stroke-linecap="butt"/><g stroke="#000000"><path d="M102.34599,206.25875l1.36955,-7.65826c0,0 19.59774,1.29435 30.12998,1.29435c10.59748,0 31.69518,-1.61794 31.69518,-1.61794l0.58696,7.98185c0,0 -21.00486,1.78485 -31.49953,1.61794c-13.56421,-0.21573 -32.28212,-1.61794 -32.28212,-1.61794z" fill="#ff0000" stroke-linecap="butt"/><path d="M109.29153,206.18056l1.56519,-6.68748" fill="#c9c9c9" stroke-linecap="round"/><path d="M119.26963,200.0324l-0.68477,6.84929" fill="#c9c9c9" stroke-linecap="round"/><path d="M128.66081,207.25923l-0.19565,-6.95715" fill="#c9c9c9" stroke-linecap="round"/><path d="M138.73674,200.35599l1.85867,7.06501" fill="#c9c9c9" stroke-linecap="round"/><path d="M148.5192,207.04351l-1.95649,-7.11893" fill="#c9c9c9" stroke-linecap="round"/><path d="M158.20384,206.45028l-2.93474,-7.01109" fill="#c9c9c9" stroke-linecap="round"/></g><g stroke="#ba0000"><path d="M105.94826,130.92897l1.274,-13.18317c0,0 18.23044,2.22815 28.02789,2.22815c9.85811,0 29.48389,-2.78519 29.48389,-2.78519l0.546,13.7402c0,0 -19.5394,3.0725 -29.30189,2.78517c-12.61787,-0.37136 -30.02988,-2.78517 -30.02988,-2.78517z" fill="#ff0000" stroke-linecap="butt"/><path d="M113.86525,119.28232l-1.456,11.51207" fill="#c9c9c9" stroke-linecap="round"/><path d="M121.05419,132.00134l0.637,-11.79058" fill="#c9c9c9" stroke-linecap="round"/><path d="M130.24517,120.67495l0.18201,11.97626" fill="#c9c9c9" stroke-linecap="round"/><path d="M141.52912,132.92971l-1.72899,-12.16194" fill="#c9c9c9" stroke-linecap="round"/><path d="M147.08011,120.0251l1.82,12.25478" fill="#c9c9c9" stroke-linecap="round"/><path d="M155.17907,119.18949l2.72999,12.0691" fill="#c9c9c9" stroke-linecap="round"/></g></g><g stroke-width="1" stroke-linecap="butt"><path d="M183.15361,85.92184c0,23.4574 -22.55817,42.47338 -50.3851,42.47338c-27.82691,0 -50.3851,-19.01598 -50.3851,-42.47338c0,-23.4574 22.55817,-42.47338 50.3851,-42.47338c27.82691,0 50.3851,19.01598 50.3851,42.47338z" fill="#006bff" stroke="#001052"/><path d="M168.75075,60.82351c0.94136,0.45607 1.30445,-3.18418 3.17991,-0.73139c2.0209,2.643 6.16794,8.44382 8.10995,13.57604c1.66429,4.39828 2.26864,9.16293 2.21393,13.35522c-0.07546,5.78283 -1.91638,10.7855 -5.12885,17.73923c-3.39361,7.34583 -11.46783,13.086 -19.01495,16.55813c-9.08744,4.18077 -17.86784,6.22118 -20.06621,5.15611c-4.02411,-1.94959 20.53793,-8.84316 29.17842,-24.51799c8.64048,-15.67485 -2.4963,-43.08497 1.52781,-41.13536z" fill="#0047ab" stroke="none"/></g><path d="M178.305,103.41c0,0 10.81135,-3.31655 23.99624,7.7463c5.21852,4.37863 8.05449,10.78129 8.55171,15.80852c0.77982,7.88441 -2.97334,13.77158 -2.97334,13.77158c0,0 -2.15026,-8.43534 -8.62292,-12.02709c-4.65269,-2.58183 -5.70115,-2.24137 -5.70115,-2.24137c0,0 4.99307,2.81966 9.52375,9.44109c4.97759,7.59786 -5.62005,19.4997 -5.62005,19.4997c0,0 -11.70745,-15.45248 -18.73124,-20.61834c-7.85505,-5.77721 -23.94231,-12.62298 -23.94231,-12.62298" fill="#0047ab" stroke="#001052" stroke-width="1" stroke-linecap="round"/><path d="M109.73739,123.25501c0,0 -16.46826,5.87037 -24.65508,11.16695c-7.32047,4.73608 -19.93203,19.45995 -19.93203,19.45995c0,0 -9.86608,-12.51495 -4.44255,-19.80119c4.91896,-6.33831 10.07189,-8.85399 10.07189,-8.85399c0,0 -1.02621,-0.40263 -5.82511,1.89603c-6.67608,3.1978 -9.32749,11.48928 -9.32749,11.48928c0,0 -3.39398,-6.1013 -2.14354,-13.92489c0.7973,-4.98845 4.01149,-11.20985 9.4828,-15.2682c13.82355,-10.25365 24.41697,-6.29579 24.41697,-6.29579" data-paper-data="{&quot;index&quot;:null}" fill="#0047ab" stroke="#001052" stroke-width="1" stroke-linecap="round"/><g fill="#4c96ff" stroke="none" stroke-linecap="butt"><path d="M170.99041,75.41845c0,1.85402 -0.16726,3.66432 -0.48583,5.41306c-2.23988,12.29566 -11.95966,21.54749 -23.61078,21.54749c-13.30819,0 -24.09661,-12.07065 -24.09661,-26.96055c0,-14.88991 10.78842,-26.96055 24.09661,-26.96055c13.30819,0 24.09661,12.07065 24.09661,26.96055z" stroke-width="NaN"/><path d="M139.58581,76.01099c0,14.88991 -10.78841,26.96055 -24.09661,26.96055c-13.30819,0 -24.09661,-12.07065 -24.09661,-26.96055c0,-14.88991 10.78841,-26.96055 24.09661,-26.96055c13.30819,0 24.09661,12.07065 24.09661,26.96055z" stroke-width="NaN"/></g><g stroke="none" stroke-width="0" stroke-linecap="butt"><path d="M134.23804,73.7335c0,7.77072 -5.22312,14.07013 -11.66618,14.07013c-6.44305,0 -11.66618,-6.29941 -11.66618,-14.07013c0,-7.77072 5.22312,-14.07013 11.66618,-14.07013c6.44305,0 11.66618,6.29941 11.66618,14.07013z" fill="#000000"/><path d="M130.42001,69.22813c0,3.77685 -2.53863,6.83858 -5.67018,6.83858c-3.13156,0 -5.67018,-3.06174 -5.67018,-6.83858c0,-3.77685 2.53863,-6.83859 5.67018,-6.83859c3.13156,0 5.67018,3.06174 5.67018,6.83859z" fill="#ffffff"/></g><g data-paper-data="{&quot;index&quot;:null}" stroke="none" stroke-width="0" stroke-linecap="butt"><path d="M141.6648,59.53174c6.44305,0 11.66618,6.29942 11.66618,14.07014c0,7.77072 -5.22312,14.07013 -11.66618,14.07013c-6.44305,0 -11.66618,-6.29941 -11.66618,-14.07013c0,-7.77072 5.22312,-14.07013 11.66618,-14.07013z" fill="#000000"/><path d="M139.48683,62.2579c3.13156,0 5.67018,3.06174 5.67018,6.83858c0,3.77685 -2.53863,6.83859 -5.67018,6.83859c-3.13156,0 -5.67018,-3.06174 -5.67018,-6.83859c0,-3.77685 2.53863,-6.83858 5.67018,-6.83858z" fill="#ffffff"/></g><g stroke="#000000" stroke-width="2.5" stroke-linecap="round"><path d="M92.96835,72.65939h39.42814c0,0 3.37351,27.65855 -19.41984,28.24702c-23.37403,0.60347 -20.0083,-28.24702 -20.0083,-28.24702z" fill="#000000"/><path d="M108.26882,72.65943h24.12768l-19.41983,28.24702c0,0 -5.33698,0.23612 -11.85321,-3.10932c-4.53509,-2.32833 -5.54584,-7.64209 -5.54584,-7.64209z" fill="#ffffff"/></g><g stroke="#000000" stroke-width="2.5" stroke-linecap="round"><path d="M132.49199,73.56525h37.05336c0,0 3.17033,25.99267 -18.25016,26.54568c-21.96619,0.56713 -18.80319,-26.54568 -18.80319,-26.54568z" fill="#000000"/><path d="M146.87091,73.56527h22.67445l-18.25016,26.54568c0,0 -5.01553,0.22189 -11.13928,-2.92204c-4.26194,-2.18809 -5.21181,-7.1818 -5.21181,-7.1818z" fill="#ffffff"/></g><path d="M164.81322,108.76879c0,12.20679 -14.11927,22.10234 -31.53627,22.10234c-17.417,0 -31.53627,-9.89555 -31.53627,-22.10234c0,-12.20679 14.11927,-22.10234 31.53627,-22.10234c17.417,0 31.53627,9.89555 31.53627,22.10234z" fill="#006bff" stroke="none" stroke-width="0" stroke-linecap="butt"/><path d="M147.82707,96.10881c0,4.25426 -7.19228,7.70302 -16.0644,7.70302c-8.87212,0 -16.0644,-3.44875 -16.0644,-7.70302c0,-4.25426 7.19228,-7.70302 16.0644,-7.70302c8.87212,0 16.0644,3.44875 16.0644,7.70302z" fill="#4c96ff" stroke="none" stroke-width="0" stroke-linecap="butt"/><path d="M157.22305,104.10534c0,0 6.11243,5.02388 -1.1295,10.55222c-5.6727,4.33043 -11.35745,1.48339 -11.35745,1.48339c0,0 -1.24783,5.61792 -7.7735,5.37496c-9.75184,-0.36311 -9.07636,-6.32777 -9.07636,-6.32777" fill="none" stroke="#000000" stroke-width="1" stroke-linecap="round"/><path d="M133.78319,25.94828c8.96066,0.95152 18.00034,-5.25861 26.75509,-3.88878c2.73448,0.45838 -5.23901,5.22928 -3.75073,7.54874c2.13338,3.31145 8.73465,2.2464 11.2881,5.18997c5.65505,6.47548 12.75337,13.13224 14.21675,21.34529c1.77525,9.9352 5.6417,30.43458 0.77283,30.99094c-5.38401,0.53246 -12.41703,-23.30391 -22.27689,-28.70335c-5.52812,-3.02777 -9.76593,11.23626 -16.00299,10.06503c-6.53326,-1.69458 -4.22783,-15.28887 -10.50205,-16.0126c-6.76623,-0.77961 -8.09346,12.35529 -15.0028,14.18263c-6.13315,1.10991 -12.03635,-9.86115 -17.50329,-6.86257c-8.36461,4.58329 -13.51368,24.17018 -17.28742,23.39235c-3.27857,-0.78591 -1.28406,-18.11364 0.78421,-27.05244c1.88245,-8.14175 7.10541,-16.15356 14.21675,-21.34529c10.36692,-7.56442 23.71951,-12.09829 36.79296,-15.43804c3.09059,-0.83168 -4.96191,6.32644 -2.5005,6.58812z" data-paper-data="{&quot;index&quot;:null}" fill="#383838" stroke="#000000" stroke-width="2" stroke-linecap="round"/><g data-paper-data="{&quot;index&quot;:null}" stroke-linecap="butt"><g data-paper-data="{&quot;origPos&quot;:null}"><path d="M167.15569,52.24681h-69.86931v-25.85166h69.86931z" fill="#00ff08" stroke="#00e61e" stroke-width="3.31828"/><path d="M168.05172,56.49038h-110.56663v-9.78172h110.56663z" fill="#00ff2d" stroke="#1ae600" stroke-width="2.84811"/></g><g data-paper-data="{&quot;origPos&quot;:null}"><path d="M137.90468,31.5706c1.52116,1.07116 2.4632,2.54886 2.4632,4.18002c0,1.63107 -0.94204,3.10878 -2.4632,4.18002c-1.52116,1.06989 -3.6227,1.73206 -5.94155,1.73206c-2.31876,0 -4.4203,-0.66216 -5.94147,-1.73206c-1.52116,-1.07125 -2.46329,-2.54895 -2.46329,-4.18002c0,-1.63116 0.94212,-3.10886 2.46329,-4.18002c1.52116,-1.06998 3.6227,-1.73214 5.94147,-1.73214c2.31884,0 4.42039,0.66216 5.94155,1.73214z" data-paper-data="{&quot;origPos&quot;:null}" fill="url(#color-1)" stroke="url(#color-2)" stroke-width="3.03547"/><path d="M134.72127,36.8312l-5.14235,1.25021l-1.14603,-4.71382l5.14235,-1.25021z" data-paper-data="{&quot;origPos&quot;:null}" fill="none" stroke="#2900ff" stroke-width="3"/></g></g></g></g></svg>