<svg version="1.1" xmlns="http://www.w3.org/2000/svg" xmlns:xlink="http://www.w3.org/1999/xlink" width="123.23095" height="230.33084" viewBox="0,0,123.23095,230.33084"><defs><radialGradient cx="250" cy="286.25" r="54.75" gradientUnits="userSpaceOnUse" id="color-1"><stop offset="0" stop-color="#000000" stop-opacity="0.5"/><stop offset="1" stop-color="#000000" stop-opacity="0"/></radialGradient><linearGradient x1="261.88248" y1="76.35778" x2="261.88248" y2="87.61943" gradientUnits="userSpaceOnUse" id="color-2"><stop offset="0" stop-color="#35ff00"/><stop offset="1" stop-color="#1db300"/></linearGradient><linearGradient x1="261.88248" y1="76.35778" x2="261.88248" y2="87.61943" gradientUnits="userSpaceOnUse" id="color-3"><stop offset="0" stop-color="#00ff21"/><stop offset="1" stop-color="#00b317"/></linearGradient></defs><g transform="translate(-181.51905,-71.41916)"><g data-paper-data="{&quot;isPaintingLayer&quot;:true}" fill-rule="nonzero" stroke-linejoin="miter" stroke-miterlimit="10" stroke-dasharray="" stroke-dashoffset="0" style="mix-blend-mode: normal"><path d="M195.25,286.25c0,-8.56041 24.51241,-15.5 54.75,-15.5c30.23759,0 54.75,6.93959 54.75,15.5c0,8.56041 -24.51241,15.5 -54.75,15.5c-30.23759,0 -54.75,-6.93958 -54.75,-15.5z" fill="url(#color-1)" stroke="none" stroke-width="0" stroke-linecap="butt"/><path d="M250.50524,85.50369c12.6931,0 24.1954,5.1706 32.5243,13.5223c8.3289,8.353 13.4845,19.8884 13.4845,32.618c0,12.7296 -5.1556,24.2651 -13.4845,32.6181c-8.3289,8.3517 -19.8312,13.5223 -32.5243,13.5223c-12.6932,0 -24.1955,-5.1706 -32.5244,-13.5223c-8.3289,-8.353 -13.4845,-19.8885 -13.4845,-32.6181c0,-12.7296 5.1556,-24.265 13.4845,-32.618c8.3289,-8.3517 19.8312,-13.5223 32.5244,-13.5223z" data-paper-data="{&quot;index&quot;:null,&quot;origPos&quot;:null}" fill="#006bff" stroke="#0043ff" stroke-width="3.93385" stroke-linecap="butt"/><g stroke-linecap="round"><path d="M267.02353,229.02733c1.0531,1.5744 1.4934,1.8043 2.0714,5.6134c2.3091,15.2232 4.7975,30.4776 6.474,45.8141c0.4283,3.8331 0.8908,3.6879 -0.6925,4.2128c-6.1931,2.064 -12.6323,2.0401 -19.308,2.5091c-1.6692,0.1171 -2.3036,-0.0428 -3.119,-1.0847c-0.6687,-0.8663 -0.4053,0.4138 -0.6358,-3.7428c-0.922,-16.6274 -1.9756,-33.3222 -2.2045,-49.9402c-0.0573,-4.1539 0.2516,-2.4395 0.8783,-3.2238c1.0861,-1.2686 2.0537,-2.2878 3.3455,-2.6332c3.035,-0.8114 6.3066,-1.2044 9.5241,-0.6256c1.3708,0.2826 2.6593,1.5992 3.6665,3.1009z" data-paper-data="{&quot;index&quot;:null}" fill="#494949" stroke="#656565" stroke-width="2.97965"/><g data-paper-data="{&quot;index&quot;:null}" fill="#0040ff" stroke="#0033cd" stroke-width="2.82089"><path d="M283.35174,282.39213c1.0942,2.0244 0.8556,4.7763 0.0542,6.9616c-0.3608,0.9845 -1.5002,0.6731 -3.1367,0.7206c-6.5074,0.2052 -12.934,-0.0427 -19.5693,-0.1262c-2.5912,-0.0327 -5.1901,0.0543 -7.7856,-0.1482c-0.6605,-0.0812 -1.8234,0.4347 -2.0753,-0.5409c-0.6134,-4.1237 -0.3123,-8.203 -0.0969,-12.4612c0.0634,-1.0239 -0.4595,-1.9625 1.1939,-2.5853c6.6124,-2.4937 13.5938,-4.0003 20.3796,-5.8674c1.7637,-0.4064 1.9704,-0.8341 2.2841,-0.157c1.219,2.6388 0.0729,6.0522 1.5663,8.5511c1.5152,2.5335 5.6257,3.0515 7.1857,5.6529z"/><path d="M284.35093,285.68813c0.7196,1.2531 0.7949,3.0264 0.105,4.3156c-0.497,0.9256 -1.5002,0.6731 -3.1367,0.7206c-6.5074,0.2052 -13.0528,-0.0808 -19.5693,-0.1262c-2.7654,-0.0188 -5.4531,0.2193 -8.1421,-0.0759c-0.9907,-0.1064 -2.1634,-0.2936 -2.5795,-1.0938c-0.692,-0.9971 -0.7947,-2.4556 -0.2413,-3.4791c0.3224,-0.5957 -0.3611,-0.1462 2.0698,-0.1554c9.7239,-0.0339 19.404,-0.002 29.0661,-0.0869c2.4471,0.0436 2.0516,-0.669 2.428,-0.0189z"/></g><g data-paper-data="{&quot;index&quot;:null}"><path d="M234.99057,225.25976c3.2175,-0.5788 6.4891,-0.1858 9.5241,0.6256c1.2918,0.3454 2.2594,1.3646 3.3455,2.6332c0.6267,0.7843 0.9356,-0.9301 0.8783,3.2238c-0.2289,16.618 -1.2825,33.3128 -2.2045,49.9402c-0.2305,4.1566 0.0329,2.8765 -0.6358,3.7428c-0.8154,1.0419 -1.4498,1.2018 -3.119,1.0847c-6.6757,-0.469 -13.1149,-0.4451 -19.308,-2.5091c-1.5833,-0.5249 -1.1208,-0.3797 -0.6925,-4.2128c1.6765,-15.3365 4.1649,-30.5909 6.474,-45.8141c0.578,-3.8091 1.0183,-4.039 2.0714,-5.6134c1.0072,-1.5017 2.2957,-2.8183 3.6665,-3.1009z" data-paper-data="{&quot;origPos&quot;:null}" fill="#484848" stroke="#656565" stroke-width="2.97965"/><g data-paper-data="{&quot;origPos&quot;:null}" fill="#0040ff" stroke="#0033cd" stroke-width="2.82089"><path d="M222.18157,276.07256c1.4934,-2.4989 0.3473,-5.9123 1.5663,-8.5511c0.3137,-0.6771 0.5204,-0.2494 2.2841,0.157c6.7858,1.8671 13.7672,3.3737 20.3796,5.8674c1.6534,0.6228 1.1305,1.5614 1.1939,2.5853c0.2154,4.2582 0.5165,8.3375 -0.0969,12.4612c-0.2519,0.9756 -1.4148,0.4597 -2.0753,0.5409c-2.5955,0.2025 -5.1944,0.1155 -7.7856,0.1482c-6.6353,0.0835 -13.0619,0.3314 -19.5693,0.1262c-1.6365,-0.0475 -2.7759,0.2639 -3.1367,-0.7206c-0.8014,-2.1853 -1.04,-4.9372 0.0542,-6.9616c1.56,-2.6014 5.6705,-3.1194 7.1857,-5.6529z"/><path d="M216.42467,285.04035c9.6621,0.0849 19.3422,0.053 29.0661,0.0869c2.4309,0.0092 1.7474,-0.4403 2.0698,0.1554c0.5534,1.0235 0.4507,2.482 -0.2413,3.4791c-0.4161,0.8002 -1.5888,0.9874 -2.5795,1.0938c-2.689,0.2952 -5.3767,0.0571 -8.1421,0.0759c-6.5165,0.0454 -13.0619,0.3314 -19.5693,0.1262c-1.6365,-0.0475 -2.6397,0.205 -3.1367,-0.7206c-0.6899,-1.2892 -0.6146,-3.0625 0.105,-4.3156c0.3764,-0.6501 -0.0191,0.0625 2.428,0.0189z"/></g></g></g><path d="M266.47468,199.97975c0.813,-2.152 1.987,-3.22 3.206,-3.451c1.444,-0.267 3.015,0.403 4.436,2.12c0.955,1.022 1.701,3.439 2.307,5.65c1.568,5.735 2.581,12.358 4.267,17.878c0.539,1.758 1.638,1.436 2.168,3.268c0.8,2.696 1.74,6.392 1.505,9.232c-0.10962,1.32269 -0.58647,1.77621 -1.14028,2.00539c-0.4515,0.18684 -0.95415,0.22458 -1.35072,0.46261c-0.399,0.24 -0.943,-0.608 -1.367,-0.438c-0.36,0.135 -0.406,1.244 -0.719,1.372c-1.234,0.507 -2.541,1.036 -3.863,1.123c-0.487,0.018 -0.961,-0.919 -1.414,-0.886c-0.614,0.048 -0.914,1.042 -1.441,0.995c-0.974,-0.081 -2.114,0.404 -2.997,-1.43c-1.185,-2.237 -2.282,-5.931 -2.529,-9.448c-0.16,-2.323 1.75,-1.969 1.574,-4.248c-0.469,-6.001 -2.572,-11.47 -3.223,-17.471c-0.273,-2.521 0.016,-5.209 0.581,-6.734z" fill="#005fff" stroke="#0046ff" stroke-width="2.89662" stroke-linecap="round"/><path d="M270.91368,181.48977c2.505,6.205 4.776,12.897 6.304,19.144c0.195,1.604 -0.757,2.091 -1.574,2.404c-3.216,1.212 -6.833,1.531 -10.511,1.547c-0.92,0.003 -0.317,0.114 -0.522,-1.407c-1.568,-6.032 -3.149,-12.186 -4.031,-17.995c-0.307,-2.025 -0.364,-4.038 0.084,-5.368c0.507,-1.508 1.578,-2.268 2.655,-2.713c1.193,-0.473 2.485,-0.902 4.035,0.008c1.21,0.71 2.777,2.441 3.56,4.38z" fill="#005fff" stroke="#0044ff" stroke-width="2.49847" stroke-linecap="round"/><path d="M234.04568,206.83775c-0.648,6.002 -2.748,11.473 -3.213,17.473c-0.176,2.28 1.735,1.925 1.576,4.248c-0.245,3.517 -1.34,7.211 -2.524,9.449c-0.881,1.834 -2.021,1.35 -2.995,1.432c-0.528,0.047 -0.829,-0.946 -1.443,-0.994c-0.452,-0.033 -0.926,0.904 -1.413,0.887c-1.322,-0.087 -2.629,-0.615 -3.864,-1.122c-0.312,-0.127 -0.359,-1.236 -0.719,-1.371c-0.425,-0.169 -0.967,0.679 -1.366,0.439c-0.884,-0.529 -2.293,-0.065 -2.493,-2.466c-0.237,-2.841 0.701,-6.537 1.499,-9.234c0.529,-1.832 1.628,-1.511 2.166,-3.269c1.684,-5.521 2.692,-12.144 4.258,-17.881c0.604,-2.211 1.348,-4.628 2.304,-5.651c1.42,-1.717 2.99,-2.388 4.434,-2.122c1.219,0.23 2.393,1.298 3.208,3.449c0.566,1.525 0.856,4.212 0.585,6.733z" fill="#0069ff" stroke="#003aff" stroke-width="2.89662" stroke-linecap="round"/><path d="M232.42668,177.25375c1.551,-0.911 2.843,-0.483 4.036,-0.01c1.077,0.444 2.149,1.204 2.656,2.711c0.45,1.33 0.393,3.343 0.087,5.368c-0.878,5.81 -2.456,11.964 -4.021,17.997c-0.203,1.521 0.399,1.41 -0.521,1.407c-3.678,-0.014 -7.295,-0.331 -10.511,-1.54c-0.818,-0.313 -1.771,-0.799 -1.576,-2.404c1.525,-6.247 3.792,-12.94 6.293,-19.147c0.782,-1.94 2.348,-3.671 3.557,-4.382z" fill="#006aff" stroke="#2650ff" stroke-width="2.49847" stroke-linecap="round"/><g><g><path d="M238.95268,176.75177c6.57,-0.365 13.287,-0.765 19.98,-0.349c1.576,0.094 2.826,-1.989 3.57,1.804c2.994,15.189 4.064,30.688 5.643,46.152c0.395,3.867 0.433,2.987 -0.345,3.958c-0.952,1.169 -1.509,1.405 -4.031,1.455c-10.086,0.201 -20.259,0.875 -30.056,-0.698c-2.62,-0.404 -2.891,-1.055 -2.822,-4.54c0.26,-13.92 2.083,-27.805 3.513,-41.671c0.368,-3.475 0.461,-3.866 1.612,-5.296c0.762,-0.924 1.308,-0.728 2.936,-0.815z" fill="#ff0000" stroke="#003aff" stroke-width="2.31561" stroke-linecap="round"/><g fill="none" stroke="none" stroke-width="1" stroke-linecap="butt" font-family="sans-serif" font-weight="normal" font-size="12" text-anchor="start"/></g><path d="M231.81401,210.77269l1.58046,-15.80463h31.60927l1.80624,16.03041z" fill="#003aff" stroke="#000000" stroke-width="2.31561" stroke-linecap="butt"/></g><path d="M279.53972,149.69279c0,0 -3.5213,4.5357 -6.4324,5.9729c-2.9902,1.4574 -10.1081,1.1946 -10.1081,1.1946" data-paper-data="{&quot;index&quot;:null}" fill="none" stroke="#000000" stroke-width="3.67566" stroke-linecap="round"/><path d="M267.05791,122.82569c1.156,2.3563 1.8711,5.6094 1.8711,9.2004c0,3.591 -0.7151,6.8441 -1.8711,9.2005c-1.1561,2.3554 -2.7522,3.814 -4.5133,3.814c-1.7612,0 -3.3573,-1.4586 -4.5133,-3.814c-1.1561,-2.3564 -1.8712,-5.6095 -1.8712,-9.2005c0,-3.591 0.7151,-6.8441 1.8712,-9.2004c1.156,-2.3554 2.7521,-3.814 4.5133,-3.814c1.7611,0 3.3572,1.4586 4.5133,3.814z" data-paper-data="{&quot;index&quot;:null}" fill="#000000" stroke="none" stroke-width="0.98222" stroke-linecap="butt"/><path d="M239.50794,121.92569c1.156,2.3563 1.8711,5.6094 1.8711,9.2004c0,3.591 -0.7151,6.8441 -1.8711,9.2005c-1.1561,2.3554 -2.7522,3.814 -4.5133,3.814c-1.7612,0 -3.3573,-1.4586 -4.5133,-3.814c-1.1561,-2.3564 -1.8712,-5.6095 -1.8712,-9.2005c0,-3.591 0.7151,-6.8441 1.8712,-9.2004c1.156,-2.3554 2.7521,-3.814 4.5133,-3.814c1.7611,0 3.3572,1.4586 4.5133,3.814z" data-paper-data="{&quot;index&quot;:null}" fill="#000000" stroke="none" stroke-width="0.98222" stroke-linecap="butt"/><path d="M224.31254,115.90859c0,0 1.389,-4.7371 3.3048,-5.9429c1.8834,-1.1836 6.5414,-0.346 6.5414,-0.346" data-paper-data="{&quot;index&quot;:null}" fill="none" stroke="#000000" stroke-width="4.61595" stroke-linecap="round"/><path d="M264.16393,109.38879c0,0 3.4755,-0.4573 4.6894,0.6047c1.4646,1.4696 2.2728,5.9758 2.2728,5.9758" data-paper-data="{&quot;index&quot;:null}" fill="none" stroke="#000000" stroke-width="4.61595" stroke-linecap="round"/><g stroke="#000000" stroke-width="2.5" stroke-linecap="round"><path d="M222.05263,123.32463h28.12706c0,0 2.40658,19.73093 -13.85363,20.15073c-16.67446,0.4305 -14.27343,-20.15073 -14.27343,-20.15073z" fill="#000000"/><path d="M232.96761,123.32464h17.21209l-13.85363,20.15073c0,0 -3.80727,0.16844 -8.45579,-2.21811c-3.23522,-1.66097 -3.95627,-5.45168 -3.95627,-5.45168z" fill="#ffffff"/></g><g stroke="#000000" stroke-width="2.5" stroke-linecap="round"><path d="M251.41405,123.32464h28.12707c0,0 2.40659,19.73093 -13.85363,20.15073c-16.67446,0.4305 -14.27344,-20.15073 -14.27344,-20.15073z" fill="#000000"/><path d="M262.32903,123.32464h17.21209l-13.85363,20.15073c0,0 -3.80727,0.16844 -8.45579,-2.21811c-3.23522,-1.66097 -3.95627,-5.45168 -3.95627,-5.45168z" fill="#ffffff"/></g><path d="M249.31941,80.64223c8.94666,0.95003 17.97223,-5.2504 26.7133,-3.88271c2.73021,0.45767 -5.23083,5.22111 -3.74487,7.53695c2.13005,3.30628 8.72101,2.24289 11.27047,5.18187c5.64622,6.46536 12.73346,13.11173 14.19455,21.31195c1.77248,9.91968 0.86674,29.59269 -3.99453,30.14818c-5.3756,0.53163 -7.63149,-22.47315 -17.47595,-27.86416c-5.51949,-3.02304 -9.75067,11.21871 -15.978,10.04931c-6.52306,-1.69194 -4.22123,-15.26499 -10.48565,-15.98759c-6.75566,-0.77839 -8.08082,12.33599 -14.97937,14.16047c-6.12357,1.10818 -12.01755,-9.84574 -17.47595,-6.85185c-8.35155,4.57613 -10.71232,24.52961 -14.48017,23.753c-3.27345,-0.78469 -4.06231,-18.48253 -1.99727,-27.40737c1.87951,-8.12904 7.09431,-16.12833 14.19455,-21.31195c10.35073,-7.5526 23.68246,-12.0794 36.73549,-15.41393c3.08576,-0.83038 -4.95416,6.31656 -2.49659,6.57783z" data-paper-data="{&quot;index&quot;:null}" fill="#383838" stroke="#000000" stroke-width="3.64684" stroke-linecap="round"/><g data-paper-data="{&quot;origPos&quot;:null,&quot;index&quot;:null}" stroke-linecap="butt"><g data-paper-data="{&quot;origPos&quot;:null}"><path d="M287.39577,97.69998h-66.54505v-24.62168h66.54505z" fill="#00ff08" stroke="#00e61e" stroke-width="3.31828"/><path d="M288.24917,101.74167h-105.30606v-9.31632h105.30606z" fill="#00ff2d" stroke="#1ae600" stroke-width="2.84811"/></g><g data-paper-data="{&quot;origPos&quot;:null}"><path d="M259.53648,78.00751c1.44879,1.0202 2.34601,2.42759 2.34601,3.98114c0,1.55347 -0.89722,2.96087 -2.34601,3.98114c-1.44879,1.01899 -3.45034,1.64965 -5.65886,1.64965c-2.20844,0 -4.20999,-0.63066 -5.65878,-1.64965c-1.44879,-1.02028 -2.34609,-2.42767 -2.34609,-3.98114c0,-1.55355 0.8973,-2.96095 2.34609,-3.98114c1.44879,-1.01907 3.45034,-1.64973 5.65878,-1.64973c2.20852,0 4.21007,0.63066 5.65886,1.64973z" data-paper-data="{&quot;origPos&quot;:null}" fill="url(#color-2)" stroke="url(#color-3)" stroke-width="3.03547"/><path d="M256.50453,83.01782l-4.89769,1.19073l-1.0915,-4.48955l4.89769,-1.19073z" data-paper-data="{&quot;origPos&quot;:null}" fill="none" stroke="#2900ff" stroke-width="3"/></g></g></g></g></svg>