<svg version="1.1" xmlns="http://www.w3.org/2000/svg" xmlns:xlink="http://www.w3.org/1999/xlink" width="241.38676" height="322.91494" viewBox="0,0,241.38676,322.91494"><defs><radialGradient cx="237.30367" cy="162.01454" r="53.79784" gradientUnits="userSpaceOnUse" id="color-1"><stop offset="0" stop-color="#fff173"/><stop offset="1" stop-color="#ffe600"/></radialGradient></defs><g transform="translate(-119.48134,-18.54253)"><g data-paper-data="{&quot;isPaintingLayer&quot;:true}" fill-rule="nonzero" stroke="#000000" stroke-width="2" stroke-linejoin="miter" stroke-miterlimit="10" stroke-dasharray="" stroke-dashoffset="0" style="mix-blend-mode: normal"><path d="M201.37101,340.4299l16.6118,-169.23642c0,0 41.22565,-1.06767 41.67609,1.54515c7.83366,45.44033 17.306,165.82651 17.306,165.82651z" fill="#ffe600" stroke-linecap="butt"/><path d="M238.62988,192.33158c-44.80225,0 -81.12165,-35.90194 -81.12165,-80.18924c0,-40.72031 30.70453,-74.35161 70.47588,-79.50493l21.7759,0.06424c39.53601,5.36251 69.99152,38.88585 69.99152,79.4407v0.00001c-0.00001,44.2873 -36.31939,80.18923 -81.12165,80.18923z" fill="#ffe600" stroke-linecap="butt"/><path d="M335.74524,85.49876c0,36.42662 -191.00884,36.42662 -191.00884,0c0,-36.42661 42.75879,-65.95622 95.50442,-65.95622c52.74563,0 95.50443,29.52961 95.50443,65.95623z" fill="#233900" stroke-linecap="butt"/><path d="M139.46189,119.43648v-33.08172h200.93181v33.08172z" fill="#233900" stroke-linecap="butt"/><path d="M235.6741,91.66514c0,22.73676 -18.99372,41.16854 -42.42366,41.16854c-23.42994,0 -42.42365,-18.43178 -42.42365,-41.16854c0,-22.73675 18.99372,-41.16854 42.42366,-41.16854c23.42994,0 42.42366,18.43178 42.42366,41.16854z" fill="#ffffff" stroke-linecap="butt"/><path d="M330.12119,94.07047c0,22.73676 -18.99372,41.16854 -42.42366,41.16854c-23.42994,0 -42.42366,-18.43179 -42.42366,-41.16854c0,-22.73675 18.99372,-41.16854 42.42366,-41.16854c23.42994,0 42.42366,18.43178 42.42366,41.16854z" fill="#ffffff" stroke-linecap="butt"/><path d="M291.10152,162.01454c0,16.65842 -24.08612,30.16274 -53.79784,30.16274c-29.71173,0 -53.79784,-13.50432 -53.79784,-30.16274c0,-16.65842 24.08612,-30.16274 53.79784,-30.16274c29.71173,0 53.79784,13.50432 53.79784,30.16275z" fill="url(#color-1)" stroke-linecap="butt"/><path d="M289.09153,156.85528c0,0 -15.50216,9.29912 -48.8875,11.40329c-40.16235,2.53131 -53.48738,-11.42175 -53.48738,-11.42175" fill="none" stroke-linecap="round"/><path d="M141.56581,53.26502c0,0 11.3968,-15.37438 44.63373,-14.98011c45.44941,0.53914 52.33554,17.58277 52.33554,17.58277" fill="none" stroke-linecap="round"/><path d="M243.56884,55.43154c0,0 6.88613,-17.04363 52.33554,-17.58277c33.23693,-0.39427 44.63374,14.98011 44.63374,14.98011" fill="none" stroke-linecap="round"/><path d="M223.13683,121.18114l-2.48326,8.23186" fill="none" stroke-linecap="round"/><path d="M254.66963,120.55986l2.77372,9.3191" fill="none" stroke-linecap="round"/><path d="M326.31441,100.84026c0,18.97601 -14.98033,34.35908 -33.45952,34.35908c-18.47919,0 -33.45952,-15.38307 -33.45952,-34.35906c0,-18.97601 14.98033,-34.3591 33.45952,-34.3591c18.47919,0 33.45952,15.3831 33.45952,34.3591z" fill="#000000" stroke-linecap="butt"/><path d="M221.63304,96.82864c0,18.97601 -14.98033,34.35908 -33.45952,34.35908c-18.47919,0 -33.45952,-15.38306 -33.45952,-34.35906c0,-18.97601 14.98033,-34.3591 33.45952,-34.3591c18.47919,0 33.45952,15.3831 33.45952,34.3591z" fill="#000000" stroke-linecap="butt"/><path d="M359.8681,216.1443c0,-12.90637 -19.93635,-23.36905 -44.52908,-23.36905c-24.59273,0 -44.52908,10.46268 -44.52908,23.36905c0,12.90637 19.93635,23.36905 44.52908,23.36905c24.59273,0 44.52908,-10.46268 44.52908,-23.36905z" fill="#ffe600" stroke-linecap="butt"/><path d="M209.5395,216.02868c0,-12.90637 -19.93635,-23.36904 -44.52909,-23.36904c-24.59274,0 -44.52908,10.46267 -44.52908,23.36905c0,12.90637 19.93635,23.36905 44.52908,23.36905c24.59273,0 44.52909,-10.46268 44.52909,-23.36905z" fill="#ffe600" stroke-linecap="butt"/></g></g></svg>