<svg version="1.1" xmlns="http://www.w3.org/2000/svg" xmlns:xlink="http://www.w3.org/1999/xlink" width="221.16156" height="270.3029" viewBox="0,0,221.16156,270.3029"><defs><linearGradient x1="197.97944" y1="84.64711" x2="192.58841" y2="121.41985" gradientUnits="userSpaceOnUse" id="color-1"><stop offset="0" stop-color="#282828"/><stop offset="1" stop-color="#000000"/></linearGradient><linearGradient x1="231.02757" y1="84.62985" x2="236.25879" y2="121.42564" gradientUnits="userSpaceOnUse" id="color-2"><stop offset="0" stop-color="#282828"/><stop offset="1" stop-color="#000000"/></linearGradient><linearGradient x1="203.76073" y1="128.90375" x2="209.75372" y2="128.90375" gradientUnits="userSpaceOnUse" id="color-3"><stop offset="0" stop-color="#000000"/><stop offset="1" stop-color="#000000" stop-opacity="0"/></linearGradient></defs><g transform="translate(-129.41923,-44.84859)"><g data-paper-data="{&quot;isPaintingLayer&quot;:true}" stroke-miterlimit="10" stroke-dasharray="" stroke-dashoffset="0" style="mix-blend-mode: normal"><g data-paper-data="{&quot;index&quot;:null}"><g fill="none" fill-rule="nonzero" stroke="none" stroke-width="1" stroke-linecap="butt" stroke-linejoin="miter" font-family="sans-serif" font-weight="normal" font-size="12" text-anchor="start"/><g fill-rule="evenodd" stroke-linecap="round" stroke-linejoin="round"><path d="M237.21739,48.56636c0.51146,-0.0382 5.93268,0.09252 10.78725,1.27935c0.01263,0.00309 3.30603,0.77346 6.28415,2.02723c2.60456,1.09649 5.59162,2.50771 5.59162,2.50771c0,0 4.29802,69.41553 3.76735,73.46596c-0.05735,0.43778 0.13335,0.80799 -0.55317,1.34404c-2.40747,1.87976 -8.25459,4.18258 -8.67061,4.34892c-4.54315,1.8165 -10.2017,2.53982 -10.66444,2.5744c-14.0806,1.0522 -26.39069,-9.54603 -27.44289,-23.62664c-0.53429,-7.14976 1.89873,-13.86087 6.37039,-18.81694c-5.15858,-4.23644 -8.56199,-10.51146 -9.09627,-17.66117c-1.0522,-14.0806 9.54603,-26.39068 23.62664,-27.44288" fill="#ffffff" stroke="#a5a5a5" stroke-width="0"/><path d="M259.25421,54.00102c20.65064,10.79754 36.25442,34.51103 36.25442,34.51103c0,0 -12.62974,27.3353 -32.43115,40.71734" fill="#ffffff" stroke="#a5a5a5" stroke-width="0"/><path d="M237.30857,48.55803c0.95172,-0.07112 1.90885,-0.069 2.86604,-0.06688c29.32811,0.38495 55.32193,39.88848 55.32193,39.88848c0,0 -19.83406,42.9281 -48.77916,47.66761c-0.94625,0.14428 -1.89242,0.28868 -2.84414,0.35981c-14.12908,1.05582 -26.48156,-9.57891 -27.53737,-23.70799c-0.5361,-7.17437 1.90528,-13.90858 6.39234,-18.88171c-5.17634,-4.251 -8.59149,-10.54764 -9.1276,-17.72195c-1.05583,-14.12907 9.5789,-26.48155 23.70798,-27.53737" fill="#ffaf00" stroke="#b17900" stroke-width="3"/></g></g><path d="M221.86917,131.92108c0,0 0.88562,4.52868 1.96834,5.94724c1.03804,1.36002 2.85706,3.99586 2.85706,3.99586c0,0 -2.64378,0.30306 -4.58307,-0.01979c-1.75374,-0.29197 -5.00953,-3.434 -5.00953,-3.434c0,0 -1.86066,6.98948 -1.8283,10.05141c0.03058,2.89453 2.01742,7.84623 2.01742,7.84623c0,0 -8.79183,1.89103 -12.56258,1.35682c-3.58911,-0.50848 -9.5439,-4.48869 -9.5439,-4.48869c0,0 -5.19346,4.28779 -9.18221,5.10145c-3.98875,0.81366 -15.83876,-3.54146 -15.83876,-3.54146c0,0 3.81886,-2.23106 5.07718,-3.68548c1.44193,-1.66663 3.0988,-5.76463 3.0988,-5.76463c0,0 -9.68801,-7.01291 -12.43547,-10.88224c-2.53992,-3.57705 -3.47563,-11.52583 -3.47563,-11.52583c0,0 15.56651,-7.61642 21.15432,-12.48739c4.64953,-4.05306 4.29354,-16.93833 4.29354,-16.93833c0,0 5.70543,3.50242 9.4199,4.72478c3.25675,1.07173 9.16825,2.21708 9.16825,2.21708c0,0 -0.78956,-2.87886 -1.09133,-4.13239c-0.30636,-1.2726 0.80929,-4.24685 0.80929,-4.24685c0,0 5.45712,3.71495 8.84495,5.10559c3.49911,1.43633 11.82666,3.37976 11.82666,3.37976" fill="#ffaf00" fill-rule="nonzero" stroke="#b17900" stroke-width="3" stroke-linecap="round" stroke-linejoin="round"/><g fill-rule="nonzero" stroke-linejoin="miter"><g fill="none" stroke="none" stroke-width="1" stroke-linecap="butt" font-family="sans-serif" font-weight="normal" font-size="12" text-anchor="start"/><path d="M208.2092,183.09981c0,0 -1.39684,-1.77448 0.01595,-1.57093c2.76943,0.399 9.75733,2.88156 13.16053,2.59284c2.27404,-0.19294 5.47791,-1.44863 8.68391,-2.23868c5.38968,-1.3281 8.07101,-0.77427 8.07101,-0.77427c0,0 1.57134,-0.14137 1.0396,0.64711c-0.98243,1.45671 -6.46515,7.39759 -6.46515,7.39759c0,0 -0.36394,0.38302 0.37644,1.12273c1.33483,1.33367 2.62477,2.29672 4.30489,5.51479c1.25027,2.73364 2.13571,7.38178 2.13571,7.38178c0,0 -0.11165,0.40129 0.67888,0.88066c2.38006,1.44335 15.35055,8.14926 15.35055,8.14926l20.35538,6.45993c0,0 0.38289,0.3953 -0.70761,1.18952c-1.72314,1.25498 -8.63244,5.61284 -8.63244,5.61284c0,0 -1.1211,0.77813 0.13641,1.08211c3.33935,0.80726 11.97137,1.58113 16.58739,0.45024c6.41522,-1.57166 12.67686,-4.05717 21.3256,-11.00077c7.32158,-5.87807 31.36572,-34.56956 31.36572,-34.56956c0,0 0.60113,-0.43642 0.70715,1.37547c0.26454,4.5213 1.54749,16.05536 0.03683,26.1494c-1.28013,8.55391 -6.76661,23.45907 -8.27206,27.73423c-0.27108,0.76975 0.0276,0.95958 0.0276,0.95958c0,0 16.28808,-1.62073 19.89155,-1.6728c1.65963,-0.02399 0.88572,1.37263 0.88572,1.37263c0,0 -4.48546,6.3388 -7.99768,9.81363c-3.51219,3.4748 -9.58855,7.58526 -9.58855,7.58526c0,0 2.29763,5.98436 2.56907,10.0073c0.17366,2.57366 0.50771,9.82581 0.21246,13.72632c-0.16626,2.19652 -1.01872,2.39108 -1.01872,2.39108c0,0 -5.18938,-7.23211 -10.1574,-7.81956c-4.96806,-0.58741 -9.81518,0.59503 -16.41114,2.8348c-6.59596,2.23977 -9.00797,3.71952 -12.88575,7.11334c-3.87778,3.39379 -5.05674,9.59795 -5.05674,9.59795c0,0 0.54701,0.57677 -1.12625,-0.44831c-4.98333,-3.05281 -32.05583,-20.37554 -39.92163,-25.24655c-1.38484,-0.85756 -1.76004,-0.52964 -1.76004,-0.52964c0,0 -0.84372,0.28813 -1.84112,0.56782c-0.89509,0.25102 -1.91387,0.49517 -2.55774,0.51816c-1.3503,0.04826 -3.73634,-0.79529 -3.73634,-0.79529c0,0 -0.76121,-0.11076 -0.90684,-1.03461c-0.41274,-2.61831 -1.03179,-9.48248 -2.38115,-15.57779c-0.9429,-4.25931 -2.45874,-9.51398 -3.34622,-12.10447c-0.38256,-1.11663 -0.72926,-1.48326 -0.72926,-1.48326c0,0 -0.42156,-0.48116 -1.67893,-0.69019c-1.50896,-0.25085 -3.94936,-0.25094 -4.66082,-0.44804c-0.97447,-0.26998 -0.78918,-0.83696 -0.78918,-0.83696c0,0 1.48132,-7.1531 1.73448,-11.80128c0.25319,-4.64818 -0.36575,-13.32959 -0.36575,-13.32959c0,0 -0.01445,-0.34139 -0.61181,-1.2829c-2.20524,-3.4758 -16.0464,-24.97298 -16.0464,-24.97298z" fill="#ffaf00" stroke="#b17900" stroke-width="3" stroke-linecap="round"/></g><path d="M208.67036,146.4702c0,0 1.5,-4.671 1.5,-7.75c0,-3.24555 -1.5,-11.25 -1.5,-11.25h13.25c0,0 -1.25,6.93777 -1.25,10.125c0,3.14556 1.25,8.875 1.25,8.875z" fill="#ffaf00" fill-rule="nonzero" stroke="#b17900" stroke-width="3" stroke-linecap="butt" stroke-linejoin="miter"/><g><g fill="none" fill-rule="nonzero" stroke="none" stroke-width="1" stroke-linecap="butt" stroke-linejoin="miter" font-family="sans-serif" font-weight="normal" font-size="12" text-anchor="start"/><g fill-rule="evenodd" stroke-linecap="round" stroke-linejoin="round"><path d="M189.19836,48.56634c14.08061,1.0522 24.67884,13.36228 23.62664,27.44288c-0.53428,7.14971 -3.93769,13.42473 -9.09627,17.66117c4.47166,4.95607 6.90468,11.66718 6.37039,18.81694c-1.0522,14.08061 -13.36229,24.67884 -27.44289,23.62664c-0.46274,-0.03458 -6.12129,-0.7579 -10.66444,-2.5744c-0.41602,-0.16634 -6.26314,-2.46916 -8.67061,-4.34892c-0.68652,-0.53605 -0.49582,-0.90626 -0.55317,-1.34404c-0.53067,-4.05043 3.76735,-73.46596 3.76735,-73.46596c0,0 2.98706,-1.41122 5.59162,-2.50771c2.97812,-1.25377 6.27152,-2.02414 6.28415,-2.02723c4.85457,-1.18683 10.27579,-1.31755 10.78725,-1.27935" fill="#ffffff" stroke="#a5a5a5" stroke-width="0"/><path d="M163.33829,129.22939c-19.80141,-13.38204 -32.43115,-40.71734 -32.43115,-40.71734c0,0 15.60378,-23.71349 36.25442,-34.51103" fill="#ffffff" stroke="#a5a5a5" stroke-width="0"/><path d="M189.10718,48.55803c14.12908,1.05582 24.76381,13.4083 23.70798,27.53737c-0.53611,7.17431 -3.95126,13.47095 -9.1276,17.72195c4.48706,4.97313 6.92844,11.70734 6.39234,18.88171c-1.05581,14.12908 -13.40829,24.76381 -27.53737,23.70799c-0.95172,-0.07113 -1.89789,-0.21553 -2.84414,-0.35981c-28.9451,-4.73951 -48.77916,-47.66761 -48.77916,-47.66761c0,0 25.99382,-39.50353 55.32193,-39.88848c0.95719,-0.00212 1.91432,-0.00424 2.86604,0.06688" fill="#ffaf00" stroke="#b17900" stroke-width="3"/></g></g><g fill-rule="nonzero" stroke-linecap="butt" stroke-linejoin="miter"><path d="M173.04556,93.06255c0,-22.4968 18.23726,-40.73406 40.73406,-40.73406c22.4968,0 40.73406,18.23726 40.73406,40.73406c0,22.4968 -18.23726,40.73406 -40.73406,40.73406c-22.4968,0 -40.73406,-18.23726 -40.73406,-40.73406z" fill="#ffaf00" stroke="#b17900" stroke-width="3"/><g fill="none" stroke="none" stroke-width="1" font-family="sans-serif" font-weight="normal" font-size="12" text-anchor="start"/><g fill="none" stroke="none" stroke-width="1" font-family="sans-serif" font-weight="normal" font-size="12" text-anchor="start"/></g><g fill-rule="nonzero" stroke-linecap="butt" stroke-linejoin="miter"><path d="M188.58299,303.63392v-73.16341c0,0 -1.43247,-19.56133 14.19764,-19.56133c16.26638,0 14.29873,19.56134 14.29873,19.56134v73.16342z" fill="#5dc000" stroke="#469000" stroke-width="3"/><g fill="none" stroke="none" stroke-width="1" font-family="sans-serif" font-weight="normal" font-size="12" text-anchor="start"><g/></g></g><g fill="none" fill-rule="nonzero" stroke="none" stroke-width="1" stroke-linecap="butt" stroke-linejoin="miter" font-family="sans-serif" font-weight="normal" font-size="12" text-anchor="start"><g/><g/></g><g fill-rule="nonzero" stroke-linecap="butt" stroke-linejoin="miter"><path d="M214.20471,303.63397v-73.16342c0,0 -1.96765,-19.56134 14.29873,-19.56134c15.63011,0 14.19764,19.56133 14.19764,19.56133v73.16341z" fill="#5dc000" stroke="#469000" stroke-width="3"/><g fill="none" stroke="none" stroke-width="1" font-family="sans-serif" font-weight="normal" font-size="12" text-anchor="start"><g/></g></g><g fill="none" fill-rule="nonzero" stroke="none" stroke-width="1" stroke-linecap="butt" stroke-linejoin="miter" font-family="sans-serif" font-weight="normal" font-size="12" text-anchor="start"><g/><g/></g><path d="M188.82214,234.44589l-0.28871,-20.18842l11.32351,-11.90185l31.89703,-0.11415l10.34188,10.60545l0.55665,22.81225" fill="#5dc000" fill-rule="nonzero" stroke="#469000" stroke-width="3" stroke-linecap="butt" stroke-linejoin="miter"/><path d="M188.00768,141.9077l54.19532,-0.00996l-3.4406,23.90244l4.0601,59.49271l-54.6269,-0.25824l3.70428,-59.23936z" fill="#0062b0" fill-rule="nonzero" stroke="#00447c" stroke-width="3" stroke-linecap="butt" stroke-linejoin="miter"/><path d="M187.65125,76.37222c0,0 -0.08837,-7.76528 3.91251,-10.16419c3.84179,-2.30352 6.73135,0.55673 6.73135,0.55673" fill="none" fill-rule="nonzero" stroke="#000000" stroke-width="3" stroke-linecap="round" stroke-linejoin="miter"/><g fill="#5dc000" fill-rule="nonzero" stroke="#469000" stroke-width="3" stroke-linecap="butt" stroke-linejoin="miter"><path d="M215.55394,313.65147v-10.39272h28.04538c0,0 3.01807,2.41276 4.18273,4.49048c1.94861,3.47629 1.03379,5.82509 1.03379,5.82509l-5.21652,0.07713z"/><path d="M186.6218,313.65147l-5.21652,-0.07713c0,0 -0.91482,-2.3488 1.03379,-5.82509c1.16466,-2.07772 4.18273,-4.49048 4.18273,-4.49048h28.04537v10.39272z"/></g><g fill-rule="nonzero" stroke-linecap="butt" stroke-linejoin="miter"><g><g fill="none" stroke="none" stroke-width="1" font-family="sans-serif" font-weight="normal" font-size="12" text-anchor="start"/><path d="M176.91984,100.32136c0.00638,-0.04353 36.73903,5.3497 36.73381,5.38533c-1.48712,10.14375 -10.91582,17.16135 -21.05957,15.67424c-1.84818,-0.27095 -3.59258,-0.80553 -5.20067,-1.56003c-0.01201,-0.00563 -5.35928,0.05164 -5.35928,0.05164c0,0 -0.50567,-4.39086 -0.73343,-4.65208c-3.44011,-3.94537 -5.19968,-9.31383 -4.38086,-14.89909z" fill="url(#color-1)" stroke="#000000" stroke-width="3"/></g><g><g fill="none" stroke="none" stroke-width="1" font-family="sans-serif" font-weight="normal" font-size="12" text-anchor="start"/><path d="M252.01884,100.39541c0.79455,5.58876 -0.98834,10.94953 -4.44556,14.87991c-0.22889,0.26023 -0.75363,4.64886 -0.75363,4.64886c0,0 -5.34697,-0.08051 -5.359,-0.07493c-1.61136,0.7475 -3.35807,1.2745 -5.20741,1.53742c-10.15012,1.44303 -19.54824,-5.61547 -20.99127,-15.76559c-0.00507,-0.03565 36.75066,-5.26924 36.75685,-5.22568z" fill="url(#color-2)" stroke="#000000" stroke-width="3"/></g><path d="M199.09509,118.81198c-6.23289,-1.15716 -10.18621,-8.01729 -8.82997,-15.3225c0.11176,-0.602 0.2561,-1.18823 0.43036,-1.75657c0.00439,-0.01433 22.37152,4.12762 22.37098,4.13554c-0.04107,0.59873 -0.11716,1.20357 -0.23002,1.81149c-1.35624,7.30523 -7.50845,12.28923 -13.74135,11.13207z" fill="#ffffff" stroke="none" stroke-width="0.5"/><path d="M231.02921,116.57573c-6.2028,1.30896 -12.47484,-3.52337 -14.009,-10.79332c-0.12767,-0.60498 -0.2185,-1.20779 -0.27418,-1.80534c-0.00073,-0.0079 22.95137,-2.38544 22.95611,-2.37122c0.18809,0.56392 -0.34605,-1.16272 -0.21963,-0.56362c1.53415,7.26993 -2.25052,14.22451 -8.45331,15.53347z" fill="#ffffff" stroke="none" stroke-width="0.5"/></g><g fill-rule="nonzero" stroke-width="3" stroke-linejoin="miter"><g stroke="#b17900"><path d="M170.68549,216.96217c-3.77918,6.07402 -11.76678,7.9344 -17.84081,4.15524c-6.07403,-3.77916 -7.9344,-11.76679 -4.15523,-17.84082c3.77917,-6.07404 11.76679,-7.93439 17.84083,-4.15524c6.07403,3.77917 7.93439,11.76678 4.15524,17.84081z" fill="#ffaf00" stroke-linecap="butt"/><path d="M151.95274,219.89071l2.98945,-7.58789" fill="#ffffff" stroke-linecap="round"/><path d="M158.80865,222.59177l2.98946,-7.58787" fill="#ffffff" stroke-linecap="round"/></g><path d="M147.54275,201.52108l4.91537,-14.09652c0,0 1.27907,-4.78356 15.18747,-0.08305c15.52767,5.24777 12.27896,9.66043 12.27896,9.66043l-4.91538,14.09652z" fill="#0062b0" stroke="#00447c" stroke-linecap="butt"/><path d="M142.99304,202.89138l2.92693,-7.65984l33.44172,12.77854l-2.92693,7.65984z" fill="#0062b0" stroke="#00447c" stroke-linecap="butt"/></g><path d="M214.23112,83.47088c-1.26665,6.09687 2.12298,9.44419 2.12298,9.44419c0,0 -2.09063,1.1672 -5.46207,0.61228c-2.41067,-0.39677 -4.6362,-1.8097 -4.6362,-1.8097c0,0 -1.77191,3.15826 -1.72633,9.06194c0.03476,4.50262 2.03924,8.11005 2.03924,8.11005c0,0 -5.29206,1.98532 -11.33868,1.37149c-6.48173,-0.65799 -11.00695,-4.53726 -11.00695,-4.53726c0,0 -5.37581,2.93609 -11.32125,3.11693c-6.61794,0.20128 -12.20265,-3.17184 -12.20265,-3.17184c0,0 1.7449,-2.57362 2.40344,-3.97527c0.64554,-1.37399 1.50959,-4.35324 1.50959,-4.35324c0,0 -6.06571,-3.88622 -9.17048,-8.82427c-3.10477,-4.93805 -3.51323,-15.05003 -3.51323,-15.05003c0,0 11.99965,-2.91943 18.11281,-9.74514c5.4118,-6.04259 6.25055,-15.1036 6.25055,-15.1036c0,0 4.37873,-0.37868 9.97754,0.80682c3.82182,0.80924 9.35565,2.94659 9.35565,2.94659c0,0 -0.12065,-2.34122 0.10888,-3.3272c0.36374,-1.56246 1.23781,-2.69503 1.23781,-2.69503c0,0 8.69825,5.84602 19.26345,6.12949" fill="#ffae00" fill-rule="nonzero" stroke="#b17900" stroke-width="3" stroke-linecap="round" stroke-linejoin="round"/><path d="M218.43061,235.47991l-7.47541,-0.35598l-3.38173,-2.66978" fill="none" fill-rule="nonzero" stroke="#469000" stroke-width="3" stroke-linecap="round" stroke-linejoin="miter"/><g fill-rule="nonzero" stroke="#000000" stroke-linejoin="miter"><path d="M204.73557,131.70336c0,0 -0.0881,-0.79964 -0.00479,-2.36275c0.07685,-1.44197 0.31302,-2.91261 0.5905,-3.23766c2.1452,-2.51297 6.87081,-1.08518 6.87081,-1.08518c0,0 4.84175,-1.58251 6.79872,0.74154c0.2604,0.30925 0.56154,1.81293 0.68176,3.2859c0.14589,1.78755 0.06614,2.65815 0.06614,2.65815z" fill="#ffffff" stroke-width="1.5" stroke-linecap="butt"/><path d="M209.0057,128.97815l-1.06945,0.71195l-1.15321,-0.63728l-1.6587,0.11767l0.04546,-1.00766l1.63627,0.28286l1.10691,0.69452l1.12054,-0.58953l0.7202,0.2275z" fill="url(#color-3)" stroke-width="0" stroke-linecap="round"/></g><path d="M241.23701,68.35208l-17.08784,12.46951l-5.542,-7.15842" fill="none" fill-rule="nonzero" stroke="#000000" stroke-width="3" stroke-linecap="round" stroke-linejoin="miter"/><path d="M251.68789,210.10049v-50.99999h27v50.99999z" fill="#bfbfbf" fill-rule="nonzero" stroke="#ff0000" stroke-width="0" stroke-linecap="butt" stroke-linejoin="miter"/><g fill-rule="nonzero" stroke-width="3" stroke-linejoin="miter"><g stroke="#b17900"><path d="M272.66319,211.75044c-7.14347,-0.38301 -12.62393,-6.48443 -12.24094,-13.62791c0.38301,-7.14348 6.48443,-12.62395 13.62792,-12.24096c7.14348,0.38299 12.62395,6.48443 12.24095,13.62791c-0.383,7.14347 -6.48443,12.62392 -13.62791,12.24094z" fill="#ffaf00" stroke-linecap="butt"/><path d="M277.86512,196.17798l7.9317,1.89763" fill="#ffffff" stroke-linecap="round"/><path d="M284.08223,205.24216l-7.93169,-1.89761" fill="#ffffff" stroke-linecap="round"/></g><path d="M265.3801,211.93422l-14.3695,-4.0485c0,0 -5.47793,0.13419 -0.88183,-15.59869c4.11681,-14.09221 8.77016,-12.39962 8.77016,-12.39962l14.36949,4.04851z" fill="#0062b0" stroke="#00447c" stroke-linecap="butt"/><path d="M268.30992,215.72193l-7.95485,-1.9901l8.68846,-34.72967l7.95485,1.9901z" fill="#0062b0" stroke="#00447c" stroke-linecap="butt"/></g></g></g></svg>