<svg version="1.1" xmlns="http://www.w3.org/2000/svg" xmlns:xlink="http://www.w3.org/1999/xlink" width="222.36918" height="327.11329" viewBox="0,0,222.36918,327.11329"><defs><linearGradient x1="246.0394" y1="25.3396" x2="246.0394" y2="41.0213" gradientUnits="userSpaceOnUse" id="color-1"><stop offset="0" stop-color="#35ff00"/><stop offset="1" stop-color="#1db300"/></linearGradient><linearGradient x1="246.0394" y1="25.3396" x2="246.0394" y2="41.0213" gradientUnits="userSpaceOnUse" id="color-2"><stop offset="0" stop-color="#00ff21"/><stop offset="1" stop-color="#00b317"/></linearGradient></defs><g transform="translate(-128.81542,-19.11383)"><g data-paper-data="{&quot;isPaintingLayer&quot;:true}" fill-rule="nonzero" stroke-linejoin="miter" stroke-miterlimit="10" stroke-dasharray="" stroke-dashoffset="0" style="mix-blend-mode: normal"><g fill="#006bff" stroke="#0045a5" stroke-width="5" stroke-linecap="butt"><path d="M266.29646,37.60352c0,0 24.48407,7.31636 46.78429,19.29706c21.10793,11.34014 34.94835,30.38741 34.94835,30.38741c0,0 -16.39464,20.05857 -32.64128,31.75812c-21.09443,15.19056 -49.09136,17.92634 -49.09136,17.92634z"/><path d="M269.42801,51.11577c0,0 17.82537,5.32661 34.06079,14.04901c15.36741,8.25606 25.44378,22.12323 25.44378,22.12323c0,0 -11.93595,14.60343 -23.76413,23.12116c-15.35757,11.05931 -35.74044,13.05108 -35.74044,13.05108z"/></g><g fill="#006bff" stroke="#0045a5" stroke-width="5" stroke-linecap="butt"><path d="M213.70356,136.97248c0,0 -27.99692,-2.73577 -49.09136,-17.92633c-16.24663,-11.69955 -32.64129,-31.75812 -32.64129,-31.75812c0,0 13.84044,-19.04727 34.94835,-30.38742c22.30021,-11.98069 46.78429,-19.29705 46.78429,-19.29705z"/><path d="M210.57198,123.46025c0,0 -20.38286,-1.99175 -35.74043,-13.05108c-11.82818,-8.51774 -23.76414,-23.12116 -23.76414,-23.12116c0,0 10.07638,-13.86715 25.44378,-22.12323c16.23543,-8.72241 34.06079,-14.04901 34.06079,-14.04901z"/></g><g fill="#006bff" stroke="#0045a5" stroke-width="5"><path d="M179.86945,87.28801c0,-33.20919 26.92137,-60.13056 60.13056,-60.13056c33.20919,0 60.13056,26.92137 60.13056,60.13056c0,33.20919 -26.92137,60.13056 -60.13056,60.13056c-33.20919,0 -60.13056,-26.92137 -60.13056,-60.13056z" stroke-linecap="butt"/><path d="M285.47189,119.53748l20.07694,-3.23362l-13.1502,19.96883l-0.29223,14.70874l-37.69725,-7.30567" stroke-linecap="round"/><path d="M225.59085,143.67576l-37.69725,7.30567l-0.29223,-14.70874l-13.1502,-19.96883l20.07693,3.23362" stroke-linecap="round"/></g><path d="M315.95669,237.53039c0.88969,0.64281 2.30892,1.25414 2.30892,1.25414c0,0 -0.23567,0.29456 -0.35428,0.43938c-5.06115,6.17995 -11.06259,9.39668 -17.35091,10.78556c-5.42085,1.19728 -11.05488,1.03623 -16.48352,0.24415c-0.30265,-0.04416 -1.80734,-0.55064 -1.80734,-0.55064c0,0 -0.08374,1.0387 -0.05302,1.70289c0.04854,1.04975 0.31633,1.89426 0.31633,1.89426c0,0 -1.76702,0.6207 -5.05158,-0.0521c-5.20864,-1.06691 -11.68917,-3.39324 -17.00783,-7.11677c-4.27567,-2.99335 -7.00228,-7.64503 -7.73061,-8.86606c-1.40285,-2.35187 -3.2028,-6.14168 -3.32701,-10.76751c-0.09454,-3.52058 0.72355,-7.3964 3.76522,-12.24574c4.6614,-7.43168 8.39747,-9.19238 11.85138,-11.65232c3.60026,-2.56418 7.64959,-3.69034 9.7697,-6.48655c4.34442,-5.72986 7.18414,-10.44635 7.43403,-10.86449c0.01828,-0.00334 0.03656,-0.00669 0.05487,-0.01005c0.28924,0.15967 2.20951,1.2606 3.30378,2.92665c1.04337,1.58854 1.87663,3.42604 1.87663,3.42604c0,0 9.46331,-5.21807 14.32232,-8.61552c12.71771,-8.89231 17.98183,-13.37601 17.98183,-13.37601c0,0 17.1598,20.40265 9.30975,44.10593c-1.5809,4.77352 -4.1761,9.68091 -8.13004,14.58248c-1.57781,1.95595 -3.37198,3.91097 -5.4044,5.8562c-0.56017,0.53614 -1.73447,1.60523 -1.73784,1.60831c0.00069,0.00065 1.07376,1.00479 2.14361,1.77777z" fill="#006bff" stroke="#0045a5" stroke-width="5" stroke-linecap="butt"/><path d="M247.36476,131.67739c0,0 -10.23499,3.39112 -21.28278,0" fill="none" stroke="#171717" stroke-width="5" stroke-linecap="round"/><path d="M264.15492,114.85077c0,-3.87507 3.14137,-7.01643 7.01644,-7.01643c3.87507,0 7.01643,3.14136 7.01643,7.01643c0,3.87507 -3.14135,7.01643 -7.01643,7.01643c-3.87507,0 -7.01644,-3.14136 -7.01644,-7.01643z" fill="#171717" stroke="#171717" stroke-width="5" stroke-linecap="butt"/><path d="M203.9061,121.8672c-3.87508,0 -7.01643,-3.14136 -7.01643,-7.01643c0,-3.87507 3.14136,-7.01643 7.01643,-7.01643c3.87507,0 7.01644,3.14136 7.01644,7.01643c0,3.87507 -3.14137,7.01643 -7.01644,7.01643z" fill="#171717" stroke="#171717" stroke-width="5" stroke-linecap="butt"/><path d="M239.28394,29.3684c11.34525,1.20473 22.79057,-6.65803 33.87512,-4.92366c3.46218,0.58037 -6.63321,6.62089 -4.74887,9.5576c2.70112,4.19269 11.05911,2.84421 14.29208,6.57113c7.15997,8.19872 16.14729,16.62698 18.0001,27.02567c2.24768,12.57914 1.09911,37.52647 -5.06546,38.23089c-6.81679,0.67416 -9.67749,-28.49819 -22.16124,-35.33452c-6.99926,-3.83352 -12.36482,14.22644 -20.26169,12.74352c-8.27189,-2.14555 -5.35294,-19.35752 -13.29685,-20.27385c-8.56685,-0.98708 -10.24728,15.64326 -18.99533,17.95688c-7.7653,1.40528 -15.23945,-12.48538 -22.16124,-8.68883c-10.5906,5.80299 -13.58429,31.10598 -18.36229,30.12116c-4.15106,-0.99506 -5.15141,-23.43768 -2.53274,-34.75527c2.38341,-10.30843 8.99629,-20.45233 18.0001,-27.02567c13.12575,-9.57745 30.03171,-15.31788 46.58425,-19.54639c3.91305,-1.053 -6.28237,8.01003 -3.16592,8.34134z" data-paper-data="{&quot;index&quot;:null}" fill="#383838" stroke="#000000" stroke-width="3.64684" stroke-linecap="round"/><g fill="#484848" stroke="#090909"><path d="M219.53526,331.63129c-7.93273,-0.67387 -11.16638,-3.20797 -11.16638,-3.20797c0,0 -8.96464,-14.08906 -9.90246,-31.91373c-0.72543,-13.78806 -20.66939,-14.67888 -16.62126,-42.41576c4.04812,-27.73687 29.20179,-28.16638 29.20179,-28.16638h28.93776v104.31758c0,0 -12.51671,2.06012 -20.44945,1.38625z" stroke-width="5" stroke-linecap="butt"/><path d="M239.98473,330.24503v-104.31758h28.93778c0,0 24.99202,1.39937 29.04014,29.13624c4.04812,27.73687 -16.21912,27.81948 -16.94456,41.60755c-0.93779,17.82467 -7.66751,32.62709 -7.66751,32.62709c0,0 -4.98364,1.6591 -12.91638,2.33297c-7.93273,0.67387 -20.44946,-1.38625 -20.44946,-1.38625z" stroke-width="5" stroke-linecap="butt"/><path d="M211.44899,250.42106v-24.49358h57.07146v24.49358z" stroke-width="0" stroke-linecap="butt"/><path d="M235.27268,250.42106h9.42409" stroke-width="5" stroke-linecap="round"/><path d="M268.34715,225.92747h-55.83852" stroke-width="5" stroke-linecap="round"/></g><path d="M208.70739,213.86374c0,0 0.00908,-1.88073 0.01791,-3.70885c0.02505,-5.18583 0.14414,-29.84478 0.14414,-29.84478l0.64128,-21.18857c20.5607,0.01656 38.21182,0.0399 58.77166,-0.04094l2.16774,21.07526l-1.06918,33.70789c0,0 3.60762,4.46979 5.46567,6.99847c2.19864,2.99221 8.33195,9.79938 8.33195,9.79938l-87.45516,1.18894c0,0 5.39445,-7.76291 7.65552,-11.0167c1.79848,-2.58811 5.32847,-6.97011 5.32847,-6.97011z" fill="#ff0000" stroke="#e10000" stroke-width="5" stroke-linecap="butt"/><path d="M207.48824,207.09157l-0.7889,-25.11108l64.22218,1.75l0.31269,23.71267z" fill="#003aff" stroke="#000000" stroke-width="2.31561" stroke-linecap="butt"/><g data-paper-data="{&quot;index&quot;:null}" stroke-linecap="butt"><g data-paper-data="{&quot;origPos&quot;:null}"><path d="M281.56631,55.05834h-92.66312v-34.28537h92.66312z" fill="#00ff08" stroke="#00e61e" stroke-width="3.31828"/><path d="M282.75467,60.68634h-146.63732v-12.97285h146.63732z" fill="#00ff2d" stroke="#1ae600" stroke-width="2.84811"/></g><g data-paper-data="{&quot;origPos&quot;:null}"><path d="M242.77263,27.63683c2.01742,1.42062 3.26679,3.38039 3.26679,5.54369c0,2.16319 -1.24937,4.12297 -3.26679,5.54369c-2.01742,1.41893 -4.80455,2.29712 -7.87989,2.29712c-3.07522,0 -5.86236,-0.87819 -7.87978,-2.29712c-2.01742,-1.42073 -3.2669,-3.3805 -3.2669,-5.54369c0,-2.1633 1.24948,-4.12308 3.2669,-5.54369c2.01742,-1.41904 4.80455,-2.29723 7.87978,-2.29723c3.07534,0 5.86247,0.87819 7.87989,2.29723z" data-paper-data="{&quot;origPos&quot;:null}" fill="url(#color-1)" stroke="url(#color-2)" stroke-width="3.03547"/><path d="M238.55068,34.61359l-6.81997,1.65808l-1.5199,-6.25164l6.81997,-1.65808z" data-paper-data="{&quot;origPos&quot;:null}" fill="none" stroke="#2900ff" stroke-width="3"/></g></g><g stroke="#000000" stroke-width="2.5" stroke-linecap="round"><path d="M185.32418,91.92891h50.92798c0,0 4.35745,35.72561 -25.08394,36.48572c-30.19144,0.77948 -25.84404,-36.48572 -25.84404,-36.48572z" fill="#000000"/><path d="M205.08728,91.92894h31.1649l-25.08394,36.48572c0,0 -6.8936,0.30498 -15.31039,-4.0162c-5.85782,-3.00742 -7.16338,-9.87103 -7.16338,-9.87103z" fill="#ffffff"/></g><g stroke="#000000" stroke-width="2.5" stroke-linecap="round"><path d="M238.07418,91.67891h50.92798c0,0 4.35745,35.72561 -25.08393,36.48572c-30.19144,0.77948 -25.84404,-36.48572 -25.84404,-36.48572z" fill="#000000"/><path d="M257.83727,91.67894h31.1649l-25.08394,36.48572c0,0 -6.8936,0.30498 -15.31039,-4.0162c-5.85782,-3.00742 -7.16338,-9.87103 -7.16338,-9.87103z" fill="#ffffff"/></g><g stroke-width="5"><g stroke="#0045a5"><path d="M256.08767,279.86636c0,-7.64065 6.19397,-13.83461 13.83461,-13.83461c7.64065,0 13.8346,6.19396 13.8346,13.83461c0,7.64065 -6.19397,13.8346 -13.8346,13.8346c-7.64065,0 -13.83461,-6.19395 -13.83461,-13.8346z" fill="#006bff" stroke-linecap="butt"/><path d="M274.86461,283.55802v7.61753" fill="none" stroke-linecap="round"/><path d="M264.97995,283.55805v7.61753" fill="none" stroke-linecap="round"/></g><path d="M253.22004,275.54304l2.86764,-27.6692h27.66922l2.42711,27.6692z" fill="#ff0000" stroke="#e10000" stroke-linecap="butt"/></g><path d="M201.29494,343.72713c0,0 -2.22577,-15.77864 19.05418,-16.06145c3.59209,-0.04774 19.86638,0.33426 19.86638,0.33426l-0.81219,15.72719z" fill="#006bff" stroke="#0045a5" stroke-width="5" stroke-linecap="butt"/><path d="M241.02769,343.72713l-0.8122,-15.72719c0,0 16.27429,-0.382 19.86638,-0.33426c21.27995,0.28281 19.05418,16.06145 19.05418,16.06145z" fill="#006bff" stroke="#0045a5" stroke-width="5" stroke-linecap="butt"/></g></g></svg>