<svg version="1.1" xmlns="http://www.w3.org/2000/svg" xmlns:xlink="http://www.w3.org/1999/xlink" width="221.16156" height="270.3029" viewBox="0,0,221.16156,270.3029"><defs><linearGradient x1="194.46868" y1="86.73771" x2="194.46868" y2="123.90358" gradientUnits="userSpaceOnUse" id="color-1"><stop offset="0" stop-color="#282828"/><stop offset="1" stop-color="#000000"/></linearGradient><linearGradient x1="235.47652" y1="86.69384" x2="235.47652" y2="123.85971" gradientUnits="userSpaceOnUse" id="color-2"><stop offset="0" stop-color="#282828"/><stop offset="1" stop-color="#000000"/></linearGradient></defs><g transform="translate(-129.41923,-44.84856)"><g data-paper-data="{&quot;isPaintingLayer&quot;:true}" stroke-miterlimit="10" stroke-dasharray="" stroke-dashoffset="0" style="mix-blend-mode: normal"><g data-paper-data="{&quot;index&quot;:null}"><g fill="none" fill-rule="nonzero" stroke="none" stroke-width="1" stroke-linecap="butt" stroke-linejoin="miter" font-family="sans-serif" font-weight="normal" font-size="12" text-anchor="start"/><g fill-rule="evenodd" stroke-linecap="round" stroke-linejoin="round"><path d="M237.21739,48.56634c0.51146,-0.0382 5.93268,0.09252 10.78725,1.27935c0.01263,0.00309 3.30603,0.77346 6.28415,2.02723c2.60456,1.09649 5.59162,2.50771 5.59162,2.50771c0,0 4.29802,69.41553 3.76735,73.46596c-0.05735,0.43778 0.13335,0.80799 -0.55317,1.34404c-2.40747,1.87976 -8.25459,4.18258 -8.67061,4.34892c-4.54315,1.8165 -10.2017,2.53982 -10.66444,2.5744c-14.0806,1.0522 -26.39069,-9.54603 -27.44289,-23.62664c-0.53429,-7.14976 1.89873,-13.86087 6.37039,-18.81694c-5.15858,-4.23644 -8.56199,-10.51146 -9.09627,-17.66117c-1.0522,-14.0806 9.54603,-26.39068 23.62664,-27.44288" fill="#ffffff" stroke="#a5a5a5" stroke-width="0"/><path d="M259.25421,54.001c20.65064,10.79754 36.25442,34.51103 36.25442,34.51103c0,0 -12.62974,27.3353 -32.43115,40.71734" fill="#ffffff" stroke="#a5a5a5" stroke-width="0"/><path d="M237.30857,48.55801c0.95172,-0.07112 1.90885,-0.069 2.86604,-0.06688c29.32811,0.38495 55.32193,39.88848 55.32193,39.88848c0,0 -19.83406,42.9281 -48.77916,47.66761c-0.94625,0.14428 -1.89242,0.28868 -2.84414,0.35981c-14.12908,1.05582 -26.48156,-9.57891 -27.53737,-23.70799c-0.5361,-7.17437 1.90528,-13.90858 6.39234,-18.88171c-5.17634,-4.251 -8.59149,-10.54764 -9.1276,-17.72195c-1.05583,-14.12907 9.5789,-26.48155 23.70798,-27.53737" fill="#ffaf00" stroke="#b17900" stroke-width="3"/></g></g><path d="M221.86917,131.92106c0,0 0.88562,4.52868 1.96834,5.94724c1.03804,1.36002 2.85706,3.99586 2.85706,3.99586c0,0 -2.64378,0.30306 -4.58307,-0.01979c-1.75374,-0.29197 -5.00953,-3.434 -5.00953,-3.434c0,0 -1.86066,6.98948 -1.8283,10.05141c0.03058,2.89453 2.01742,7.84623 2.01742,7.84623c0,0 -8.79183,1.89103 -12.56258,1.35682c-3.58911,-0.50848 -9.5439,-4.48869 -9.5439,-4.48869c0,0 -5.19346,4.28779 -9.18221,5.10145c-3.98875,0.81366 -15.83876,-3.54146 -15.83876,-3.54146c0,0 3.81886,-2.23106 5.07718,-3.68548c1.44193,-1.66663 3.0988,-5.76463 3.0988,-5.76463c0,0 -9.68801,-7.01291 -12.43547,-10.88224c-2.53992,-3.57705 -3.47563,-11.52583 -3.47563,-11.52583c0,0 15.56651,-7.61642 21.15432,-12.48739c4.64953,-4.05306 4.29354,-16.93833 4.29354,-16.93833c0,0 5.70543,3.50242 9.4199,4.72478c3.25675,1.07173 9.16825,2.21708 9.16825,2.21708c0,0 -0.78956,-2.87886 -1.09133,-4.13239c-0.30636,-1.2726 0.80929,-4.24685 0.80929,-4.24685c0,0 5.45712,3.71495 8.84495,5.10559c3.49911,1.43633 11.82666,3.37976 11.82666,3.37976" fill="#ffaf00" fill-rule="nonzero" stroke="#b17900" stroke-width="3" stroke-linecap="round" stroke-linejoin="round"/><g fill-rule="nonzero" stroke-linejoin="miter"><g fill="none" stroke="none" stroke-width="1" stroke-linecap="butt" font-family="sans-serif" font-weight="normal" font-size="12" text-anchor="start"/><path d="M208.2092,183.09979c0,0 -1.39684,-1.77448 0.01595,-1.57093c2.76943,0.399 9.75733,2.88156 13.16053,2.59284c2.27404,-0.19294 5.47791,-1.44863 8.68391,-2.23868c5.38968,-1.3281 8.07101,-0.77427 8.07101,-0.77427c0,0 1.57134,-0.14137 1.0396,0.64711c-0.98243,1.45671 -6.46515,7.39759 -6.46515,7.39759c0,0 -0.36394,0.38302 0.37644,1.12273c1.33483,1.33367 2.62477,2.29672 4.30489,5.51479c1.25027,2.73364 2.13571,7.38178 2.13571,7.38178c0,0 -0.11165,0.40129 0.67888,0.88066c2.38006,1.44335 15.35055,8.14926 15.35055,8.14926l20.35538,6.45993c0,0 0.38289,0.3953 -0.70761,1.18952c-1.72314,1.25498 -8.63244,5.61284 -8.63244,5.61284c0,0 -1.1211,0.77813 0.13641,1.08211c3.33935,0.80726 11.97137,1.58113 16.58739,0.45024c6.41522,-1.57166 12.67686,-4.05717 21.3256,-11.00077c7.32158,-5.87807 31.36572,-34.56956 31.36572,-34.56956c0,0 0.60113,-0.43642 0.70715,1.37547c0.26454,4.5213 1.54749,16.05536 0.03683,26.1494c-1.28013,8.55391 -6.76661,23.45907 -8.27206,27.73423c-0.27108,0.76975 0.0276,0.95958 0.0276,0.95958c0,0 16.28808,-1.62073 19.89155,-1.6728c1.65963,-0.02399 0.88572,1.37263 0.88572,1.37263c0,0 -4.48546,6.3388 -7.99768,9.81363c-3.51219,3.4748 -9.58855,7.58526 -9.58855,7.58526c0,0 2.29763,5.98436 2.56907,10.0073c0.17366,2.57366 0.50771,9.82581 0.21246,13.72632c-0.16626,2.19652 -1.01872,2.39108 -1.01872,2.39108c0,0 -5.18938,-7.23211 -10.1574,-7.81956c-4.96806,-0.58741 -9.81518,0.59503 -16.41114,2.8348c-6.59596,2.23977 -9.00797,3.71952 -12.88575,7.11334c-3.87778,3.39379 -5.05674,9.59795 -5.05674,9.59795c0,0 0.54701,0.57677 -1.12625,-0.44831c-4.98333,-3.05281 -32.05583,-20.37554 -39.92163,-25.24655c-1.38484,-0.85756 -1.76004,-0.52964 -1.76004,-0.52964c0,0 -0.84372,0.28813 -1.84112,0.56782c-0.89509,0.25102 -1.91387,0.49517 -2.55774,0.51816c-1.3503,0.04826 -3.73634,-0.79529 -3.73634,-0.79529c0,0 -0.76121,-0.11076 -0.90684,-1.03461c-0.41274,-2.61831 -1.03179,-9.48248 -2.38115,-15.57779c-0.9429,-4.25931 -2.45874,-9.51398 -3.34622,-12.10447c-0.38256,-1.11663 -0.72926,-1.48326 -0.72926,-1.48326c0,0 -0.42156,-0.48116 -1.67893,-0.69019c-1.50896,-0.25085 -3.94936,-0.25094 -4.66082,-0.44804c-0.97447,-0.26998 -0.78918,-0.83696 -0.78918,-0.83696c0,0 1.48132,-7.1531 1.73448,-11.80128c0.25319,-4.64818 -0.36575,-13.32959 -0.36575,-13.32959c0,0 -0.01445,-0.34139 -0.61181,-1.2829c-2.20524,-3.4758 -16.0464,-24.97298 -16.0464,-24.97298z" fill="#ffaf00" stroke="#b17900" stroke-width="3" stroke-linecap="round"/></g><path d="M208.67036,146.47019c0,0 1.5,-4.671 1.5,-7.75c0,-3.24555 -1.5,-11.25 -1.5,-11.25h13.25c0,0 -1.25,6.93777 -1.25,10.125c0,3.14556 1.25,8.875 1.25,8.875z" fill="#ffaf00" fill-rule="nonzero" stroke="#b17900" stroke-width="3" stroke-linecap="butt" stroke-linejoin="miter"/><g><g fill="none" fill-rule="nonzero" stroke="none" stroke-width="1" stroke-linecap="butt" stroke-linejoin="miter" font-family="sans-serif" font-weight="normal" font-size="12" text-anchor="start"/><g fill-rule="evenodd" stroke-linecap="round" stroke-linejoin="round"><path d="M189.19836,48.56632c14.08061,1.0522 24.67884,13.36228 23.62664,27.44288c-0.53428,7.14971 -3.93769,13.42473 -9.09627,17.66117c4.47166,4.95607 6.90468,11.66718 6.37039,18.81694c-1.0522,14.08061 -13.36229,24.67884 -27.44289,23.62664c-0.46274,-0.03458 -6.12129,-0.7579 -10.66444,-2.5744c-0.41602,-0.16634 -6.26314,-2.46916 -8.67061,-4.34892c-0.68652,-0.53605 -0.49582,-0.90626 -0.55317,-1.34404c-0.53067,-4.05043 3.76735,-73.46596 3.76735,-73.46596c0,0 2.98706,-1.41122 5.59162,-2.50771c2.97812,-1.25377 6.27152,-2.02414 6.28415,-2.02723c4.85457,-1.18683 10.27579,-1.31755 10.78725,-1.27935" fill="#ffffff" stroke="#a5a5a5" stroke-width="0"/><path d="M163.33829,129.22937c-19.80141,-13.38204 -32.43115,-40.71734 -32.43115,-40.71734c0,0 15.60378,-23.71349 36.25442,-34.51103" fill="#ffffff" stroke="#a5a5a5" stroke-width="0"/><path d="M189.10718,48.55801c14.12908,1.05582 24.76381,13.4083 23.70798,27.53737c-0.53611,7.17431 -3.95126,13.47095 -9.1276,17.72195c4.48706,4.97313 6.92844,11.70734 6.39234,18.88171c-1.05581,14.12908 -13.40829,24.76381 -27.53737,23.70799c-0.95172,-0.07113 -1.89789,-0.21553 -2.84414,-0.35981c-28.9451,-4.73951 -48.77916,-47.66761 -48.77916,-47.66761c0,0 25.99382,-39.50353 55.32193,-39.88848c0.95719,-0.00212 1.91432,-0.00424 2.86604,0.06688" fill="#ffaf00" stroke="#b17900" stroke-width="3"/></g></g><g fill-rule="nonzero" stroke-linecap="butt" stroke-linejoin="miter"><path d="M173.04556,93.06253c0,-22.4968 18.23726,-40.73406 40.73406,-40.73406c22.4968,0 40.73406,18.23726 40.73406,40.73406c0,22.4968 -18.23726,40.73406 -40.73406,40.73406c-22.4968,0 -40.73406,-18.23726 -40.73406,-40.73406z" fill="#ffaf00" stroke="#b17900" stroke-width="3"/><g fill="none" stroke="none" stroke-width="1" font-family="sans-serif" font-weight="normal" font-size="12" text-anchor="start"/><g fill="none" stroke="none" stroke-width="1" font-family="sans-serif" font-weight="normal" font-size="12" text-anchor="start"/></g><path d="M230.85109,66.36475c0,0 2.88956,-2.86025 6.73135,-0.55673c4.00088,2.39891 3.91251,10.16419 3.91251,10.16419" fill="none" fill-rule="nonzero" stroke="#000000" stroke-width="3" stroke-linecap="round" stroke-linejoin="miter"/><g fill-rule="nonzero" stroke-linecap="butt" stroke-linejoin="miter"><path d="M188.58299,303.63392v-73.16341c0,0 -1.43247,-19.56133 14.19764,-19.56133c16.26638,0 14.29873,19.56134 14.29873,19.56134v73.16342z" fill="#5dc000" stroke="#469000" stroke-width="3"/><g fill="none" stroke="none" stroke-width="1" font-family="sans-serif" font-weight="normal" font-size="12" text-anchor="start"><g/></g></g><g fill="none" fill-rule="nonzero" stroke="none" stroke-width="1" stroke-linecap="butt" stroke-linejoin="miter" font-family="sans-serif" font-weight="normal" font-size="12" text-anchor="start"><g/><g/></g><g fill-rule="nonzero" stroke-linecap="butt" stroke-linejoin="miter"><path d="M214.20471,303.63395v-73.16342c0,0 -1.96765,-19.56134 14.29873,-19.56134c15.63011,0 14.19764,19.56133 14.19764,19.56133v73.16341z" fill="#5dc000" stroke="#469000" stroke-width="3"/><g fill="none" stroke="none" stroke-width="1" font-family="sans-serif" font-weight="normal" font-size="12" text-anchor="start"><g/></g></g><g fill="none" fill-rule="nonzero" stroke="none" stroke-width="1" stroke-linecap="butt" stroke-linejoin="miter" font-family="sans-serif" font-weight="normal" font-size="12" text-anchor="start"><g/><g/></g><path d="M188.82214,234.44587l-0.28871,-20.18842l11.32351,-11.90185l31.89703,-0.11415l10.34188,10.60545l0.55665,22.81225" fill="#5dc000" fill-rule="nonzero" stroke="#469000" stroke-width="3" stroke-linecap="butt" stroke-linejoin="miter"/><path d="M188.00768,141.90769l54.19532,-0.00996l-3.4406,23.90244l4.0601,59.49271l-54.6269,-0.25824l3.70428,-59.23936z" fill="#0062b0" fill-rule="nonzero" stroke="#00447c" stroke-width="3" stroke-linecap="butt" stroke-linejoin="miter"/><path d="M187.65125,76.37221c0,0 -0.08837,-7.76528 3.91251,-10.16419c3.84179,-2.30352 6.73135,0.55673 6.73135,0.55673" fill="none" fill-rule="nonzero" stroke="#000000" stroke-width="3" stroke-linecap="round" stroke-linejoin="miter"/><g fill="#5dc000" fill-rule="nonzero" stroke="#469000" stroke-width="3" stroke-linecap="butt" stroke-linejoin="miter"><path d="M215.55394,313.65147v-10.39272h28.04538c0,0 3.01807,2.41276 4.18273,4.49048c1.94861,3.47629 1.03379,5.82509 1.03379,5.82509l-5.21652,0.07713z"/><path d="M186.6218,313.65144l-5.21652,-0.07713c0,0 -0.91482,-2.3488 1.03379,-5.82509c1.16466,-2.07772 4.18273,-4.49048 4.18273,-4.49048h28.04537v10.39272z"/></g><g fill-rule="nonzero" stroke-width="3" stroke-linejoin="miter"><g stroke="#b17900"><path d="M258.5148,213.96214c-3.77915,-6.07403 -1.91879,-14.06164 4.15524,-17.84081c6.07404,-3.77915 14.06166,-1.9188 17.84083,4.15524c3.77917,6.07403 1.9188,14.06166 -4.15523,17.84082c-6.07403,3.77916 -14.06163,1.91878 -17.84081,-4.15524z" fill="#ffaf00" stroke-linecap="butt"/><path d="M274.25813,209.30279l2.98945,7.58789" fill="#ffffff" stroke-linecap="round"/><path d="M270.39166,219.59174l-2.98946,-7.58787" fill="#ffffff" stroke-linecap="round"/></g><path d="M254.19113,208.09844l-4.91538,-14.09652c0,0 -3.24871,-4.41266 12.27896,-9.66043c13.9084,-4.70051 15.18747,0.08305 15.18747,0.08305l4.91537,14.09652z" fill="#0062b0" stroke="#00447c" stroke-linecap="butt"/><path d="M252.76556,212.66991l-2.92693,-7.65984l33.44172,-12.77854l2.92693,7.65984z" fill="#0062b0" stroke="#00447c" stroke-linecap="butt"/></g><g fill-rule="nonzero" stroke-width="3" stroke-linejoin="miter"><g stroke="#b17900"><path d="M170.68549,216.96215c-3.77918,6.07402 -11.76678,7.9344 -17.84081,4.15524c-6.07403,-3.77916 -7.9344,-11.76679 -4.15523,-17.84082c3.77917,-6.07404 11.76679,-7.93439 17.84083,-4.15524c6.07403,3.77917 7.93439,11.76678 4.15524,17.84081z" fill="#ffaf00" stroke-linecap="butt"/><path d="M154.94219,212.30279l-2.98945,7.58789" fill="#ffffff" stroke-linecap="round"/><path d="M158.80865,222.59175l2.98946,-7.58787" fill="#ffffff" stroke-linecap="round"/></g><path d="M147.54275,201.52106l4.91537,-14.09652c0,0 1.27907,-4.78356 15.18747,-0.08305c15.52767,5.24777 12.27896,9.66043 12.27896,9.66043l-4.91538,14.09652z" fill="#0062b0" stroke="#00447c" stroke-linecap="butt"/><path d="M142.99304,202.89136l2.92693,-7.65984l33.44172,12.77854l-2.92693,7.65984z" fill="#0062b0" stroke="#00447c" stroke-linecap="butt"/></g><g data-paper-data="{&quot;index&quot;:null}" fill-rule="nonzero" stroke-linecap="butt" stroke-linejoin="miter"><g data-paper-data="{&quot;index&quot;:null}"><g fill="none" stroke="none" stroke-width="1" font-family="sans-serif" font-weight="normal" font-size="12" text-anchor="start"/><g><path d="M175.90547,105.301c0,-10.25218 8.31105,-18.56323 18.56323,-18.56323c10.25218,0 18.56323,8.31105 18.56323,18.56323c0,10.25218 -8.31105,18.56323 -18.56323,18.56323c-1.86793,0 -3.67143,-0.2759 -5.37196,-0.78916c-0.0127,-0.00383 -5.29511,0.82848 -5.29511,0.82848c0,0 -1.13723,-4.27108 -1.40047,-4.4965c-3.97602,-3.40464 -6.4957,-8.46109 -6.4957,-14.10605z" fill="url(#color-1)" stroke="#000000" stroke-width="3"/><g fill="none" stroke="none" stroke-width="1" font-family="sans-serif" font-weight="normal" font-size="12" text-anchor="start"/></g></g><path d="" fill-opacity="0.29026" fill="#ffccf1" stroke="#ffffff" stroke-width="0"/></g><g data-paper-data="{&quot;index&quot;:null}" fill-rule="nonzero" stroke-linecap="butt" stroke-linejoin="miter"><g data-paper-data="{&quot;index&quot;:null}"><g fill="none" stroke="none" stroke-width="1" font-family="sans-serif" font-weight="normal" font-size="12" text-anchor="start"/><g><path d="M254.03975,105.25713c0,5.64496 -2.51968,10.70141 -6.4957,14.10605c-0.26324,0.22542 -1.40047,4.4965 -1.40047,4.4965c0,0 -5.28241,-0.83231 -5.29511,-0.82848c-1.70053,0.51326 -3.50403,0.78916 -5.37196,0.78916c-10.25218,0 -18.56323,-8.31105 -18.56323,-18.56323c0,-10.25218 8.31105,-18.56323 18.56323,-18.56323c10.25218,0 18.56323,8.31105 18.56323,18.56323z" fill="url(#color-2)" stroke="#000000" stroke-width="3"/><g fill="none" stroke="none" stroke-width="1" font-family="sans-serif" font-weight="normal" font-size="12" text-anchor="start"/></g></g><path d="" fill-opacity="0.29026" fill="#ffccf1" stroke="#ffffff" stroke-width="0"/></g><g data-paper-data="{&quot;index&quot;:null}"><path d="" data-paper-data="{&quot;index&quot;:null}" fill-opacity="0.1032" fill="#ffccf1" fill-rule="evenodd" stroke="#deb1d3" stroke-width="0" stroke-linecap="round" stroke-linejoin="round"/><path d="M228.52666,119.34759c-6.3394,0 -11.4785,-6.02326 -11.4785,-13.4533c0,-7.43006 5.13909,-13.4533 11.4785,-13.4533c6.33941,0 11.47851,6.02326 11.47851,13.45331c0,7.43006 -5.1391,13.45331 -11.47851,13.45331z" data-paper-data="{&quot;index&quot;:null}" fill="#ffffff" fill-rule="nonzero" stroke="none" stroke-width="0.5" stroke-linecap="butt" stroke-linejoin="miter"/></g><g data-paper-data="{&quot;index&quot;:null}"><path d="" data-paper-data="{&quot;index&quot;:null}" fill-opacity="0.1032" fill="#ffccf1" fill-rule="evenodd" stroke="#deb1d3" stroke-width="0" stroke-linecap="round" stroke-linejoin="round"/><path d="M201.41854,119.39148c-6.33941,0 -11.47851,-6.02325 -11.47851,-13.45331c0,-7.43005 5.1391,-13.45331 11.47851,-13.45331c6.33941,0 11.4785,6.02324 11.4785,13.4533c0,7.43004 -5.1391,13.4533 -11.4785,13.4533z" data-paper-data="{&quot;index&quot;:null}" fill="#ffffff" fill-rule="nonzero" stroke="none" stroke-width="0.5" stroke-linecap="butt" stroke-linejoin="miter"/></g><path d="M214.23112,83.47086c-1.26665,6.09687 2.12298,9.44419 2.12298,9.44419c0,0 -2.09063,1.1672 -5.46207,0.61228c-2.41067,-0.39677 -4.6362,-1.8097 -4.6362,-1.8097c0,0 -1.77191,3.15826 -1.72633,9.06194c0.03476,4.50262 2.03924,8.11005 2.03924,8.11005c0,0 -5.29206,1.98532 -11.33868,1.37149c-6.48173,-0.65799 -11.00695,-4.53726 -11.00695,-4.53726c0,0 -5.37581,2.93609 -11.32125,3.11693c-6.61794,0.20128 -12.20265,-3.17184 -12.20265,-3.17184c0,0 1.7449,-2.57362 2.40344,-3.97527c0.64554,-1.37399 1.50959,-4.35324 1.50959,-4.35324c0,0 -6.06571,-3.88622 -9.17048,-8.82427c-3.10477,-4.93805 -3.51323,-15.05003 -3.51323,-15.05003c0,0 11.99965,-2.91943 18.11281,-9.74514c5.4118,-6.04259 6.25055,-15.1036 6.25055,-15.1036c0,0 4.37873,-0.37868 9.97754,0.80682c3.82182,0.80924 9.35565,2.94659 9.35565,2.94659c0,0 -0.12065,-2.34122 0.10888,-3.3272c0.36374,-1.56246 1.23781,-2.69503 1.23781,-2.69503c0,0 8.69825,5.84602 19.26345,6.12949" fill="#ffae00" fill-rule="nonzero" stroke="#b17900" stroke-width="3" stroke-linecap="round" stroke-linejoin="round"/><path d="M218.43061,235.47989l-7.47541,-0.35598l-3.38173,-2.66978" fill="none" fill-rule="nonzero" stroke="#469000" stroke-width="3" stroke-linecap="round" stroke-linejoin="miter"/><g fill-rule="nonzero" stroke-linejoin="miter"><path d="M212.27739,133.56658c-6.21793,-0.662 -5.08517,-9.55584 -5.08517,-9.55584c1.67961,1.87456 6.33226,0.25379 6.33226,0.25379c0,0 4.77853,2.01026 6.65743,0.15616c0,0 1.33116,10.35277 -7.90452,9.14589z" fill="#a16e00" stroke="#000000" stroke-width="0" stroke-linecap="round"/><path d="M211.82329,125.091l-1.79948,2.12406l-1.25982,-1.83289" fill="#ffffff" stroke="#000000" stroke-width="0" stroke-linecap="round"/><path d="M216.42576,133.00947c0,0.57889 -5.83465,0.41617 -5.84893,0.2248c-0.14915,-1.99684 1.15428,-2.71976 2.89336,-2.71976c1.99063,0 2.95557,0.83546 2.95557,2.49496z" fill="#ffe4a8" stroke="none" stroke-width="0" stroke-linecap="butt"/><path d="M213.8774,133.66984c-8.46607,0.02933 -6.68517,-9.96891 -6.68517,-9.96891c1.67961,2.0811 6.33226,0.56359 6.33226,0.56359c0,0 4.77853,1.70046 6.65743,-0.15364c0,0 1.77548,9.53096 -6.30452,9.55896z" fill="none" stroke="#000000" stroke-width="1.5" stroke-linecap="round"/></g></g></g></svg>