<svg version="1.1" xmlns="http://www.w3.org/2000/svg" xmlns:xlink="http://www.w3.org/1999/xlink" width="290.01444" height="337.39852" viewBox="0,0,290.01444,337.39852"><defs><linearGradient x1="286.74933" y1="179.28842" x2="233.79105" y2="295.41722" gradientUnits="userSpaceOnUse" id="color-1"><stop offset="0" stop-color="#000000"/><stop offset="1" stop-color="#a20076"/></linearGradient><linearGradient x1="286.74933" y1="179.28842" x2="233.79105" y2="295.41722" gradientUnits="userSpaceOnUse" id="color-2"><stop offset="0" stop-color="#a8007b"/><stop offset="1" stop-color="#000000"/></linearGradient><linearGradient x1="286.76795" y1="179.24906" x2="233.80966" y2="295.37786" gradientUnits="userSpaceOnUse" id="color-3"><stop offset="0" stop-color="#000000"/><stop offset="1" stop-color="#a20076"/></linearGradient><linearGradient x1="286.76795" y1="179.24906" x2="233.80966" y2="295.37786" gradientUnits="userSpaceOnUse" id="color-4"><stop offset="0" stop-color="#a8007b"/><stop offset="1" stop-color="#000000"/></linearGradient><linearGradient x1="321.42743" y1="170.35928" x2="303.32835" y2="335.80197" gradientUnits="userSpaceOnUse" id="color-5"><stop offset="0" stop-color="#a8007b"/><stop offset="1" stop-color="#000000"/></linearGradient><linearGradient x1="369.55466" y1="299.1672" x2="371.69475" y2="328.85204" gradientUnits="userSpaceOnUse" id="color-6"><stop offset="0" stop-color="#60003f"/><stop offset="1" stop-color="#050003"/></linearGradient><linearGradient x1="369.55466" y1="299.1672" x2="371.69475" y2="328.85204" gradientUnits="userSpaceOnUse" id="color-7"><stop offset="0" stop-color="#93005f"/><stop offset="1" stop-color="#47002e"/></linearGradient><linearGradient x1="359.55466" y1="305.7581" x2="361.69475" y2="335.44297" gradientUnits="userSpaceOnUse" id="color-8"><stop offset="0" stop-color="#60003f"/><stop offset="1" stop-color="#050003"/></linearGradient><linearGradient x1="359.55466" y1="305.7581" x2="361.69475" y2="335.44297" gradientUnits="userSpaceOnUse" id="color-9"><stop offset="0" stop-color="#93005f"/><stop offset="1" stop-color="#47002e"/></linearGradient><linearGradient x1="348.64558" y1="312.80356" x2="350.78566" y2="342.48843" gradientUnits="userSpaceOnUse" id="color-10"><stop offset="0" stop-color="#60003f"/><stop offset="1" stop-color="#050003"/></linearGradient><linearGradient x1="348.64558" y1="312.80356" x2="350.78566" y2="342.48843" gradientUnits="userSpaceOnUse" id="color-11"><stop offset="0" stop-color="#93005f"/><stop offset="1" stop-color="#47002e"/></linearGradient><linearGradient x1="241.50859" y1="170.35928" x2="259.60767" y2="335.80197" gradientUnits="userSpaceOnUse" id="color-12"><stop offset="0" stop-color="#a8007b"/><stop offset="1" stop-color="#000000"/></linearGradient><linearGradient x1="193.38137" y1="299.1672" x2="191.24129" y2="328.85204" gradientUnits="userSpaceOnUse" id="color-13"><stop offset="0" stop-color="#60003f"/><stop offset="1" stop-color="#050003"/></linearGradient><linearGradient x1="193.38137" y1="299.1672" x2="191.24129" y2="328.85204" gradientUnits="userSpaceOnUse" id="color-14"><stop offset="0" stop-color="#93005f"/><stop offset="1" stop-color="#47002e"/></linearGradient><linearGradient x1="203.38137" y1="305.7581" x2="201.24129" y2="335.44297" gradientUnits="userSpaceOnUse" id="color-15"><stop offset="0" stop-color="#60003f"/><stop offset="1" stop-color="#050003"/></linearGradient><linearGradient x1="203.38137" y1="305.7581" x2="201.24129" y2="335.44297" gradientUnits="userSpaceOnUse" id="color-16"><stop offset="0" stop-color="#93005f"/><stop offset="1" stop-color="#47002e"/></linearGradient><linearGradient x1="214.29045" y1="312.80356" x2="212.15038" y2="342.48843" gradientUnits="userSpaceOnUse" id="color-17"><stop offset="0" stop-color="#60003f"/><stop offset="1" stop-color="#050003"/></linearGradient><linearGradient x1="214.29045" y1="312.80356" x2="212.15038" y2="342.48843" gradientUnits="userSpaceOnUse" id="color-18"><stop offset="0" stop-color="#93005f"/><stop offset="1" stop-color="#47002e"/></linearGradient><linearGradient x1="260.04653" y1="22.53417" x2="260.04653" y2="40.35796" gradientUnits="userSpaceOnUse" id="color-19"><stop offset="0" stop-color="#240019"/><stop offset="1" stop-color="#5c0042"/></linearGradient><linearGradient x1="297.09081" y1="32.77316" x2="292.73237" y2="48.13851" gradientUnits="userSpaceOnUse" id="color-20"><stop offset="0" stop-color="#070005"/><stop offset="1" stop-color="#480035"/></linearGradient><linearGradient x1="245.54023" y1="9.9275" x2="252.84075" y2="77.1518" gradientUnits="userSpaceOnUse" id="color-21"><stop offset="0" stop-color="#000000"/><stop offset="1" stop-color="#bd008b"/></linearGradient><linearGradient x1="312.14668" y1="34.35177" x2="312.14668" y2="64.58152" gradientUnits="userSpaceOnUse" id="color-22"><stop offset="0" stop-color="#000000"/><stop offset="1" stop-color="#b70087"/></linearGradient><linearGradient x1="288.25536" y1="89.04488" x2="288.25536" y2="195.4802" gradientUnits="userSpaceOnUse" id="color-23"><stop offset="0" stop-color="#0b0008"/><stop offset="1" stop-color="#780058"/></linearGradient><linearGradient x1="288.25536" y1="89.04488" x2="288.25536" y2="195.4802" gradientUnits="userSpaceOnUse" id="color-24"><stop offset="0" stop-color="#ad007f"/><stop offset="1" stop-color="#0b0008"/></linearGradient><radialGradient cx="282.71504" cy="117.36789" r="30.81458" gradientUnits="userSpaceOnUse" id="color-25"><stop offset="0" stop-color="#000000"/><stop offset="1" stop-color="#000000" stop-opacity="0"/></radialGradient><linearGradient x1="282.78363" y1="65.61515" x2="282.78363" y2="116.29723" gradientUnits="userSpaceOnUse" id="color-26"><stop offset="0" stop-color="#b40084"/><stop offset="1" stop-color="#000000"/></linearGradient><radialGradient cx="272.37234" cy="89.28934" r="12.40667" gradientUnits="userSpaceOnUse" id="color-27"><stop offset="0" stop-color="#190010"/><stop offset="1" stop-color="#190010" stop-opacity="0"/></radialGradient><linearGradient x1="283.14626" y1="107.15361" x2="283.14626" y2="132.75326" gradientUnits="userSpaceOnUse" id="color-28"><stop offset="0" stop-color="#12000d"/><stop offset="1" stop-color="#490035"/></linearGradient></defs><g transform="translate(-101.04293,-11.37692)"><g data-paper-data="{&quot;isPaintingLayer&quot;:true}" fill-rule="nonzero" stroke-miterlimit="10" stroke-dasharray="" stroke-dashoffset="0" style="mix-blend-mode: normal"><g stroke-width="0" stroke-linecap="round" stroke-linejoin="miter"><path d="M101.04294,342.5919c0,0 15.40442,-12.19971 36.53253,-25.60377c21.70288,-13.76872 49.31012,-28.92701 62.12825,-42.5351c20.41277,-21.67077 41.63524,-80.80329 41.63524,-80.80329c0,0 14.53357,-41.97465 51.43125,-25.19597c35.43043,16.11148 13.26821,53.75309 13.26821,53.75309c0,0 -48.08845,54.99474 -79.41194,73.38968c-18.32152,10.75944 -52.6428,17.15856 -79.68014,26.28123c-26.49884,8.94096 -45.90339,20.71415 -45.90339,20.71415z" fill="url(#color-1)" stroke="url(#color-2)"/><path d="M101.06156,342.55254c0,0 15.40442,-12.19971 36.53253,-25.60377c21.70288,-13.76872 49.31012,-28.92701 62.12825,-42.5351c20.41277,-21.67077 41.63524,-80.80329 41.63524,-80.80329c0,0 14.53357,-41.97465 51.43125,-25.19597c35.43043,16.11148 13.26821,53.75309 13.26821,53.75309c0,0 -48.08845,54.99474 -79.41194,73.38968c-18.32152,10.75944 -52.6428,17.15856 -79.68014,26.28123c-26.49884,8.94096 -45.90339,20.71415 -45.90339,20.71415z" fill="url(#color-3)" stroke="url(#color-4)"/><g><g data-paper-data="{&quot;index&quot;:null}"><path d="M311.1918,159.52269l2.87003,35.0941l17.17352,35.46354c0,0 2.88246,6.77419 3.4065,10.05384c0.4592,2.87382 -0.43102,8.56787 -0.43102,8.56787l-5.97877,-4.91483c0,0 0.96491,7.61302 0.25424,11.75027c-0.66698,3.88291 -4.39551,12.3587 -4.39551,12.3587l-0.21905,-10.21637c0,0 -2.41127,5.5323 -4.27177,8.27138c-2.14779,3.16201 -7.87734,9.61472 -7.87734,9.61472l1.68884,21.01512c0,0 14.35236,-2.43842 20.53558,-0.54493c9.90561,3.03338 17.64654,10.95995 17.64654,10.95995l-28.09733,27.22492l-13.72825,-8.40816l-21.77146,-10.23492l3.13459,-1.16088l-6.00588,-4.66715l3.40554,-3.63756l-3.41317,-0.87466c0,0 -0.86165,-16.49315 -1.53467,-24.27093c-0.65477,-7.56679 -2.4502,-21.78018 -2.4502,-21.78018c0,0 2.40839,-5.49954 4.22329,-8.10562c1.75089,-2.51419 6.48101,-7.2651 6.48101,-7.2651l-19.27088,-39.20187l2.723,-24.8907" fill="url(#color-5)" stroke="#000000"/><path d="M355.66217,300.16874c0,0 15.46234,7.3031 21.20844,12.98022c6.03785,5.96537 14.18677,21.99011 14.18677,21.99011c0,0 -12.12722,-6.4608 -19.49866,-8.23775c-7.65652,-1.84566 -25.61771,-2.63786 -25.61771,-2.63786c0,0 -13.81533,-5.373 -8.85476,-18.97845c3.83267,-10.51193 18.57592,-5.11627 18.57592,-5.11627z" data-paper-data="{&quot;index&quot;:null}" fill="url(#color-6)" stroke="url(#color-7)"/><path d="M345.66217,306.75964c0,0 15.46235,7.3031 21.20844,12.98022c6.03785,5.96537 14.18677,21.99011 14.18677,21.99011c0,0 -12.12721,-6.4608 -19.49865,-8.23775c-7.65653,-1.84566 -25.61772,-2.63786 -25.61772,-2.63786c0,0 -13.81534,-5.373 -8.85476,-18.97845c3.83267,-10.51193 18.57593,-5.11627 18.57593,-5.11627z" data-paper-data="{&quot;index&quot;:null}" fill="url(#color-8)" stroke="url(#color-9)"/><path d="M334.75306,313.80511c0,0 15.46234,7.3031 21.20844,12.98022c6.03785,5.96537 14.18677,21.99011 14.18677,21.99011c0,0 -12.12722,-6.4608 -19.49866,-8.23775c-7.65652,-1.84566 -25.61771,-2.63786 -25.61771,-2.63786c0,0 -13.81534,-5.373 -8.85476,-18.97845c3.83267,-10.51193 18.57592,-5.11627 18.57592,-5.11627z" data-paper-data="{&quot;index&quot;:null}" fill="url(#color-10)" stroke="url(#color-11)"/></g><g><path d="M287.64686,179.72324l2.723,24.8907l-19.27088,39.20187c0,0 4.73012,4.75091 6.48101,7.2651c1.8149,2.60608 4.22329,8.10562 4.22329,8.10562c0,0 -1.79543,14.21339 -2.4502,21.78018c-0.67302,7.77778 -1.53467,24.27093 -1.53467,24.27093l-3.41317,0.87466l3.40554,3.63756l-6.00588,4.66715l3.13459,1.16088l-21.77146,10.23492l-13.72825,8.40816l-28.09733,-27.22492c0,0 7.74093,-7.92657 17.64654,-10.95995c6.18322,-1.89349 20.53558,0.54493 20.53558,0.54493l1.68884,-21.01512c0,0 -5.72955,-6.45271 -7.87734,-9.61472c-1.8605,-2.73908 -4.27177,-8.27138 -4.27177,-8.27138l-0.21905,10.21637c0,0 -3.72853,-8.47579 -4.39551,-12.3587c-0.71067,-4.13725 0.25424,-11.75027 0.25424,-11.75027l-5.97877,4.91483c0,0 -0.89022,-5.69405 -0.43102,-8.56787c0.52404,-3.27965 3.4065,-10.05384 3.4065,-10.05384l17.17352,-35.46354l2.87003,-35.0941" fill="url(#color-12)" stroke="#000000"/><path d="M225.84981,305.28503c4.96058,13.60545 -8.85476,18.97845 -8.85476,18.97845c0,0 -17.96119,0.7922 -25.61771,2.63786c-7.37144,1.77694 -19.49866,8.23775 -19.49866,8.23775c0,0 8.14892,-16.02473 14.18677,-21.99011c5.7461,-5.67712 21.20844,-12.98022 21.20844,-12.98022c0,0 14.74326,-5.39566 18.57593,5.11627z" data-paper-data="{&quot;index&quot;:null}" fill="url(#color-13)" stroke="url(#color-14)"/><path d="M235.84981,311.87593c4.96058,13.60545 -8.85476,18.97845 -8.85476,18.97845c0,0 -17.96119,0.7922 -25.61771,2.63786c-7.37144,1.77694 -19.49866,8.23775 -19.49866,8.23775c0,0 8.14892,-16.02473 14.18677,-21.9901c5.7461,-5.67712 21.20844,-12.98022 21.20844,-12.98022c0,0 14.74325,-5.39566 18.57592,5.11627z" data-paper-data="{&quot;index&quot;:null}" fill="url(#color-15)" stroke="url(#color-16)"/><path d="M246.7589,318.92139c4.96058,13.60545 -8.85476,18.97844 -8.85476,18.97844c0,0 -17.96119,0.7922 -25.61771,2.63786c-7.37144,1.77694 -19.49866,8.23775 -19.49866,8.23775c0,0 8.14892,-16.02474 14.18677,-21.99011c5.7461,-5.67712 21.20844,-12.98022 21.20844,-12.98022c0,0 14.74325,-5.39566 18.57592,5.11627z" data-paper-data="{&quot;index&quot;:null}" fill="url(#color-17)" stroke="url(#color-18)"/></g></g></g><path d="M255.83297,27.79044l1.35144,-5.25627c0,0 0.12435,3.26827 0.68523,4.24958c0.67086,1.17375 2.03808,3.78059 2.03808,3.78059c0,0 0.54004,-1.54216 1.16486,-1.99709c0.78784,-0.57361 3.18751,-1.17182 3.18751,-1.17182c0,0 -2.12961,1.84472 -2.4292,3.89745c-0.05707,0.39104 1.29706,-1.74434 1.30131,-1.13727c0.00248,0.3533 -0.47913,1.26316 -0.83271,2.37649c-0.29662,0.93393 -0.47768,2.08745 -0.45525,2.43206c0.16916,2.60044 0.52401,5.39382 0.52401,5.39382" data-paper-data="{&quot;index&quot;:null}" fill="url(#color-19)" stroke="#000000" stroke-width="0" stroke-linecap="round" stroke-linejoin="miter"/><path d="M288.18243,46.84791c0,0 1.71395,-2.2341 3.17032,-4.3951c0.19301,-0.28637 0.6178,-1.374 0.83216,-2.33017c0.25554,-1.13985 0.29798,-2.16842 0.47813,-2.47235c0.30955,-0.52225 0.4033,2.00457 0.55104,1.63803c0.77549,-1.92407 -0.13457,-4.59054 -0.13457,-4.59054c0,0 1.77139,1.72581 2.1629,2.61824c0.3105,0.70779 -0.00005,2.31199 -0.00005,2.31199c0,0 2.49446,-1.56288 3.66534,-2.23874c0.97891,-0.56504 2.73305,-3.32549 2.73305,-3.32549l-1.48103,5.22124" data-paper-data="{&quot;index&quot;:null}" fill="url(#color-20)" stroke="#000000" stroke-width="0" stroke-linecap="round" stroke-linejoin="miter"/><path d="M276.05224,71.10206l-5.55059,4.13179c0,0 -5.57967,-9.34043 -9.45558,-13.52046c-2.3545,-2.53924 -6.77862,-7.01137 -10.10198,-9.6544c-2.38554,-1.89719 -4.22546,-2.4743 -4.22546,-2.4743c-2.36092,-2.02888 -4.40157,-4.60441 -6.71773,-6.66574c-2.7384,-2.43713 -4.82151,-5.45704 -7.41166,-7.91211c-1.81936,-1.72448 -4.24146,-2.80511 -5.79488,-4.78527c-3.56731,-3.04718 -4.4042,-7.21039 -3.26299,-12.17358c1.35234,-2.22798 2.51092,-4.51518 5.49771,-6.24344c4.6969,-0.89267 8.21601,-0.32059 11.05858,1.09289c3.37846,1.5594 5.9666,3.90523 8.29434,6.51015c0.99576,0.8363 1.57133,0.92317 2.60141,1.77024c1.6722,1.37513 3.78058,3.5703 5.15115,5.40513c1.64296,2.1995 2.63927,5.23898 4.17188,7.58734c1.40243,2.68568 2.54325,5.48756 3.96334,8.22135c1.07005,2.05995 2.45802,4.00813 3.34233,6.24856c1.54467,3.04853 4.32755,4.92042 5.52299,7.95656c0.8793,2.2332 0.18966,5.64718 1.13217,7.81762c0.73965,2.21353 1.27323,4.44942 1.78498,6.6877z" fill="url(#color-21)" stroke="none" stroke-width="0.9" stroke-linecap="round" stroke-linejoin="round"/><path d="M284.97786,71.62879c0,0 -1.97233,-7.78253 -2.5746,-11.38267c-1.70758,-10.20726 3.50001,-12.70147 3.50001,-12.70147l17.74871,-11.48446l7.45773,2.23752c0,0 5.34125,-2.27401 8.69049,-2.67749c0.25403,-0.03061 2.7634,0.07714 5.06919,-0.37078c4.08161,-0.79288 8.85662,-2.32845 8.85662,-2.32845l-2.95267,2.30871c0,0 13.23748,1.01573 18.6673,10.95505c0.25104,1.08648 2.49185,10.98168 2.49185,10.98168c0,0 -2.1708,-4.21035 -2.7178,-2.81318c-2.3329,5.95887 -9.4958,6.52666 -9.4958,6.52666c0,0 -10.84352,-0.57282 -15.5854,-1.25024c-4.42723,-0.63246 -19.47853,-8.86982 -25.57321,-4.64048c-1.50014,1.041 -2.06564,4.09192 -2.06564,4.09192c0,0 0.15736,3.21127 0.55696,5.01309c0.41185,1.85705 1.87847,5.96854 1.87847,5.96854" fill="url(#color-22)" stroke="#000000" stroke-width="0" stroke-linecap="round" stroke-linejoin="miter"/><path d="M258.08961,94.35998c0,0 3.19259,-1.91897 6.76701,-2.2275c2.59749,-0.22421 3.30524,1.84278 9.41763,1.48712c7.13698,-0.41527 16.43082,0.4579 24.19729,0.14007c4.72914,-0.19352 8.60706,-1.74835 11.91199,-1.64095c4.01665,0.13053 6.33964,1.70974 6.33964,1.70974c0,0 1.09061,2.98081 3.60737,4.2771c2.53027,1.30324 8.62994,3.52159 8.62994,3.52159c0,0 -5.42924,-0.0596 -3.88466,1.17121c2.50009,1.9922 6.6277,5.28128 6.6277,5.28128c0,0 -8.3222,5.07073 -11.90724,7.91667c-3.29522,2.61587 -5.90291,8.52699 -5.90291,8.52699l6.21739,7.33071c0,0 1.14081,3.48666 3.07377,6.20752c0.95818,1.34874 1.40654,3.13457 1.40654,3.13457c0,0 1.99019,0.90382 2.82862,1.57597c0.92951,0.74518 2.50342,2.69867 2.50342,2.69867c0,0 -1.78133,-0.62968 -3.41242,-0.65136c-0.92103,-0.01224 -1.69501,0.69624 -2.31768,0.95364c-0.52969,0.21897 0.82556,2.79922 1.53678,4.09696c0.91747,1.67412 2.50736,4.0009 2.50736,4.0009c0,0 -5.10477,0.05501 -6.97736,-0.46785c-1.66996,-0.46628 -3.72012,-2.51907 -3.72012,-2.51907l-12.35102,52.97615c0,0 -1.71608,5.76646 -10.12032,9.01062c-5.37711,2.07565 -10.4509,2.56701 -16.67931,2.54741c-7.50937,-0.02364 -8.0263,-0.61978 -12.24783,-2.30303c-5.95771,-2.37552 -7.40542,-8.41483 -7.40542,-8.41483c0,0 -13.28995,-52.64048 -16.01345,-60.40502c-0.04348,-0.12395 -1.47912,-0.10746 -2.43608,0.69096c-1.20796,1.00784 -1.98903,2.86731 -1.98903,2.86731c0,0 -0.15961,-1.8221 0.09114,-3.38054c0.19618,-1.21921 0.90702,-2.2255 0.39673,-2.41319c-0.83168,-0.30589 -1.92292,-0.06003 -2.71544,-0.30731c-1.69556,-0.52903 -2.83364,-1.41392 -2.83364,-1.41392c0,0 2.93049,-0.17294 4.2373,-0.62636c1.03665,-0.35968 2.98251,-1.87867 2.98251,-1.87867c0,0 7.32407,-6.75528 9.21733,-10.79622c0.10908,-0.23282 -1.13814,0.65874 -2.0785,0.63592c-1.28,-0.03106 -2.38638,-0.92186 -2.38638,-0.92186c0,0 1.67008,0.0283 2.47258,-0.37602c0.76131,-0.38359 2.22538,-1.99099 2.22538,-1.99099c0,0 -1.01457,0.16062 -1.42192,-0.01282c-0.56512,-0.24063 -1.65324,-1.29653 -1.65324,-1.29653c0,0 1.69386,0.32098 2.51242,0.36609c0.68383,0.03768 2.06784,-0.1137 2.06784,-0.1137c0,0 -2.84834,-4.44033 -4.36059,-5.94928c-1.50618,-1.50293 -4.69478,-3.08643 -4.69478,-3.08643c0,0 -1.28436,-1.07025 -2.11624,-1.36692c-0.94819,-0.33814 -3.26979,-0.55379 -3.26979,-0.55379c0,0 1.5331,-1.67227 3.57886,-2.94953c1.54628,-0.96541 3.67659,-1.53425 4.00545,-1.95543c0.67711,-0.86714 2.7717,-2.36574 2.7717,-2.36574c0,0 -2.20542,0.55442 -3.02501,0.35267c-0.90247,-0.22217 -2.16517,-1.63032 -2.16517,-1.63032c0,0 3.97118,-1.18873 7.19521,-5.58891c1.48111,-2.02144 2.26672,-1.73351 4.4841,-2.49459c3.62776,-1.24516 4.27463,-1.37917 4.27463,-1.37917z" fill="url(#color-23)" stroke="url(#color-24)" stroke-width="0" stroke-linecap="round" stroke-linejoin="miter"/><g fill="#000000" stroke="none" stroke-width="0.5" stroke-linecap="butt" stroke-linejoin="miter"><path d="M272.26766,101.00474c0,-0.21526 0.17452,-0.38978 0.38978,-0.38978c0.21526,0 0.38978,0.17452 0.38978,0.38978c0,0.21526 -0.17452,0.38978 -0.38978,0.38978c-0.21526,0 -0.38978,-0.17452 -0.38978,-0.38978z"/><path d="M274.6663,103.25348c0,-0.21526 0.17451,-0.38978 0.38978,-0.38978c0.21526,0 0.38978,0.17452 0.38978,0.38978c0,0.21526 -0.17452,0.38978 -0.38978,0.38978c-0.21527,0 -0.38978,-0.17452 -0.38978,-0.38978z"/><path d="M277.96446,101.30458c0,-0.21526 0.17452,-0.38978 0.38978,-0.38978c0.21526,0 0.38978,0.17452 0.38978,0.38978c0,0.21526 -0.17452,0.38978 -0.38978,0.38978c-0.21526,0 -0.38978,-0.17452 -0.38978,-0.38978z"/></g><g fill="#000000" stroke="none" stroke-width="0.5" stroke-linecap="butt" stroke-linejoin="miter"><path d="M291.93106,100.19982c0,-0.21526 0.17452,-0.38978 0.38978,-0.38978c0.21528,0 0.38978,0.17452 0.38978,0.38978c0,0.21526 -0.1745,0.38978 -0.38978,0.38978c-0.21526,0 -0.38978,-0.17452 -0.38978,-0.38978z"/><path d="M294.3297,102.44855c0,-0.21526 0.17452,-0.38979 0.38978,-0.38979c0.21528,0 0.38978,0.17453 0.38978,0.38979c0,0.21526 -0.17451,0.38978 -0.38978,0.38978c-0.21526,0 -0.38978,-0.17452 -0.38978,-0.38978z"/><path d="M297.62786,100.49964c0,-0.21526 0.17452,-0.38978 0.38978,-0.38978c0.21528,0 0.38978,0.17452 0.38978,0.38978c0,0.21526 -0.17451,0.38978 -0.38978,0.38978c-0.21526,0 -0.38978,-0.17452 -0.38978,-0.38978z"/></g><path d="M307.90261,117.36789c0,17.01842 -11.27686,30.81458 -25.18757,30.81458c-13.91071,0 -25.18757,-13.79616 -25.18757,-30.81458c0,-17.01842 11.27686,-30.81458 25.18757,-30.81458c13.91071,0 25.18757,13.79616 25.18757,30.81458z" fill="url(#color-25)" stroke="none" stroke-width="NaN" stroke-linecap="butt" stroke-linejoin="miter"/><path d="M255.32653,91.2635c0.02238,-1.00662 -0.15758,-2.64565 -0.35748,-4.11667c-0.05364,-0.39467 -0.57583,-0.99851 -1.17592,-0.93131c-0.873,0.09776 -1.91087,1.00885 -1.91087,1.00885c0,0 0.74564,-1.4393 1.1897,-1.99866c0.41967,-0.52863 1.40561,-1.27056 1.40561,-1.27056c0,0 -1.16099,-0.11245 -2.16571,0.28432c-1.07753,0.42554 -2.00252,1.35515 -1.95945,1.12743c0.02263,-0.11959 3.24094,-5.14465 3.24094,-5.14465c0,0 -1.23187,-0.01866 -1.96083,0.18475c-0.91895,0.25641 -3.1161,1.23189 -3.1161,1.23189c0,0 1.43367,-1.58071 2.80432,-2.68837c1.11012,-0.89712 2.27241,-1.32807 1.85925,-1.58903c-0.51328,-0.3242 -1.0337,-0.66492 -1.52577,-1.01704c-2.45718,-1.75837 -4.30139,-3.75385 -4.30139,-3.75385c0,0 3.17487,1.38818 6.39781,1.88604c2.03199,0.3139 4.57436,-0.05361 4.80398,-0.3139c1.15364,-1.30782 6.04198,-2.81079 11.60218,-3.88489c4.91248,-0.94898 7.13356,-0.99507 9.15572,-1.17318c0.16179,-0.01425 3.09289,-0.46589 5.14421,-1.30403c2.1971,-0.89772 3.51829,-2.18549 3.51829,-2.18549l-1.4556,2.92734c0,0 5.25319,0.34897 8.10607,0.75082c6.06099,0.85375 12.03961,2.31618 13.60107,3.64634c2.77816,2.36663 2.22654,5.26646 2.24718,6.31255c0.00207,0.10461 1.07412,1.43513 2.68807,2.62259c1.81522,1.33555 4.19593,2.53815 4.19593,2.53815c0,0 -1.89643,0.56925 -3.8057,0.53415c-1.17944,-0.02168 -2.71815,-0.36356 -2.71815,-0.36356c0,0 3.26725,1.9948 3.97058,2.3159c1.37935,0.62972 3.00546,0.8679 3.00546,0.8679c0,0 -1.3175,1.26763 -2.02127,1.6748c-0.7034,0.40694 -2.20022,0.7675 -2.20022,0.7675c0,0 0.80695,1.28498 1.48547,1.76776c0.83197,0.59195 3.1405,1.52364 3.1405,1.52364c0,0 -2.13198,0.41855 -3.03343,0.36568c-0.72503,-0.04252 -1.96224,-0.65868 -1.96224,-0.65868c0,0 2.58378,2.43299 2.94861,3.85921c0.35489,1.38732 -0.45214,3.08605 -0.45214,3.08605c0,0 -0.68689,-1.98816 -1.90707,-3.11977c-1.04688,-0.97089 -2.6537,-1.12 -2.65397,-1.01579c-0.00854,3.19582 0.51767,10.57092 -2.16953,13.58922c-5.55917,6.24418 -20.02962,6.67208 -25.8967,6.69018c-2.80802,0.00867 -7.35225,-0.48832 -12.37861,-1.26526c-1.94208,-0.3002 -3.5251,-0.76175 -5.43838,-1.24912c-2.30026,-0.58594 -4.8724,-1.27812 -6.38834,-2.68808c-1.52004,-1.41377 -1.76558,-2.70512 -2.12785,-4.56594c-0.28295,-1.45337 -0.81717,-3.37929 -0.90211,-5.15978c-0.00376,-0.07896 -0.66797,-0.2235 -1.41749,0.04797c-0.97407,0.35279 -2.09225,1.15852 -2.09225,1.15852c0,0 0.59573,-1.63202 1.02495,-2.20079c0.37168,-0.49252 1.40269,-1.01613 1.40269,-1.01613c0,0 -1.53199,0.75201 -2.19413,0.8243c-0.87929,0.09601 -2.61744,-0.29892 -2.61744,-0.29892c0,0 1.54941,-0.76787 2.354,-1.64564c1.00532,-1.09676 3.211,-4.42551 3.211,-4.42551c0,0 -1.45091,1.11871 -2.07032,1.39442c-0.73891,0.3289 -2.06818,0.4477 -2.06818,0.4477c0,0 1.60355,-0.82715 2.73928,-2.05097c0.75153,-0.80983 1.19637,-2.09892 1.20174,-2.34039z" fill="url(#color-26)" stroke="none" stroke-width="0" stroke-linecap="butt" stroke-linejoin="miter"/><path d="M284.67606,89.28934c0,6.85201 -5.50857,12.40668 -12.30371,12.40668c-6.79515,0 -12.3037,-5.55466 -12.3037,-12.40668c0,-6.85201 5.50856,-12.40666 12.3037,-12.40666c6.79515,0 12.30371,5.55466 12.30371,12.40666z" fill="url(#color-27)" stroke="none" stroke-width="0" stroke-linecap="butt" stroke-linejoin="miter"/><path d="M278.39689,88.48986c0,4.90648 -3.26627,8.88397 -7.29545,8.88397c-4.02918,0 -7.29545,-3.97747 -7.29545,-8.88397c0,-4.90648 3.26627,-8.88397 7.29545,-8.88397c4.02918,0 7.29545,3.97747 7.29545,8.88397z" fill="#000000" stroke="none" stroke-width="0" stroke-linecap="butt" stroke-linejoin="miter"/><path d="M271.47625,93.16173l-11.53152,-4.05738l11.21118,-4.59125l9.82314,3.95061z" fill="#000000" stroke="#000000" stroke-width="0.5" stroke-linecap="round" stroke-linejoin="miter"/><path d="M284.66407,105.04324l-5.05959,-5.63454l5.28957,1.49488l4.36965,-1.72487z" fill="#000000" stroke="#000000" stroke-width="0.5" stroke-linecap="round" stroke-linejoin="miter"/><g fill="#000000" stroke="none" stroke-width="0.5" stroke-linecap="butt" stroke-linejoin="miter"><path d="M271.44015,101.16282c0,-0.21526 0.17452,-0.38978 0.38978,-0.38978c0.21526,0 0.38978,0.17452 0.38978,0.38978c0,0.21526 -0.17452,0.38978 -0.38978,0.38978c-0.21526,0 -0.38978,-0.17452 -0.38978,-0.38978z"/><path d="M273.83879,103.41156c0,-0.21526 0.17451,-0.38978 0.38978,-0.38978c0.21526,0 0.38978,0.17452 0.38978,0.38978c0,0.21526 -0.17452,0.38978 -0.38978,0.38978c-0.21527,0 -0.38978,-0.17452 -0.38978,-0.38978z"/><path d="M277.13695,101.46266c0,-0.21526 0.17452,-0.38978 0.38978,-0.38978c0.21526,0 0.38978,0.17452 0.38978,0.38978c0,0.21526 -0.17452,0.38978 -0.38978,0.38978c-0.21526,0 -0.38978,-0.17452 -0.38978,-0.38978z"/></g><g fill="#000000" stroke="none" stroke-width="0.5" stroke-linecap="butt" stroke-linejoin="miter"><path d="M291.10355,100.3579c0,-0.21526 0.17452,-0.38978 0.38978,-0.38978c0.21528,0 0.38978,0.17452 0.38978,0.38978c0,0.21526 -0.1745,0.38978 -0.38978,0.38978c-0.21526,0 -0.38978,-0.17452 -0.38978,-0.38978z"/><path d="M293.50219,102.60663c0,-0.21526 0.17452,-0.38979 0.38978,-0.38979c0.21528,0 0.38978,0.17453 0.38978,0.38979c0,0.21526 -0.17451,0.38978 -0.38978,0.38978c-0.21526,0 -0.38978,-0.17452 -0.38978,-0.38978z"/><path d="M296.80035,100.65772c0,-0.21526 0.17452,-0.38978 0.38978,-0.38978c0.21528,0 0.38978,0.17452 0.38978,0.38978c0,0.21526 -0.17451,0.38978 -0.38978,0.38978c-0.21526,0 -0.38978,-0.17452 -0.38978,-0.38978z"/></g><path d="M276.31103,88.51425c0,3.2929 -2.34674,5.96231 -5.2416,5.96231c-2.89485,0 -5.24159,-2.66942 -5.24159,-5.96231c0,-3.2929 2.34673,-5.9623 5.24159,-5.9623c2.89485,0 5.2416,2.6694 5.2416,5.9623z" fill="#ff00bb" stroke="none" stroke-width="NaN" stroke-linecap="butt" stroke-linejoin="miter"/><path d="M305.99109,109.18725c0,0 0.41225,1.49366 -2.38096,8.92787c-2.67174,7.1109 -6.5589,13.83497 -19.41526,14.58122c-18.19426,1.0561 -21.54105,-12.9343 -21.54105,-12.9343l-1.88676,-10.02153c1.05939,-0.14472 2.07207,-0.38913 3.09536,-0.64455c1.39819,0.20067 2.81812,0.22349 4.2644,0.11858c0.14419,0.00676 0.27512,0.0151 0.38968,0.02657l0.11235,-0.05081l0.00388,0.04656l1.24247,-0.10351c0.20743,-0.01509 0.40082,-0.0808 0.56787,-0.18483c0.49012,-0.07505 0.98341,-0.16127 1.48004,-0.25682l0.02035,-0.01407l0.0021,0.00911l1.3343,-0.30781c0.35727,-0.07451 0.65857,-0.30155 0.8327,-0.60992z" fill="url(#color-28)" stroke="#000000" stroke-width="0" stroke-linecap="round" stroke-linejoin="miter"/><path d="M283.61538,108.1072c18.18708,-0.19089 22.68508,-11.67881 22.68508,-11.67881c0,0 -1.04191,12.15811 -2.50056,16.784c-2.05834,6.5277 -7.07554,10.10191 -7.07554,10.10191c0,0 -5.86642,4.49748 -14.41302,4.37465c-12.36791,-0.17774 -14.3153,-4.15427 -14.3153,-4.15427c0,0 -3.11702,-2.38628 -3.91133,-9.89293c-0.47985,-4.53495 -0.16361,-15.67073 -0.16361,-15.67073c0,0 3.42667,10.30692 19.69428,10.13618z" fill="#000000" stroke="#000000" stroke-width="0.5" stroke-linecap="round" stroke-linejoin="miter"/><path d="M265.06848,103.36915c0,0 1.51271,-0.60512 2.4513,0.69195c0.39678,0.54833 1.37987,9.5678 1.37987,9.5678l-3.7013,-5.38961c0,0 -0.60271,-1.45137 -0.81746,-2.14802c-0.71764,-2.32794 0.68759,-2.72211 0.68759,-2.72211z" fill="#ff00bb" stroke="#000000" stroke-width="0" stroke-linecap="round" stroke-linejoin="miter"/><path d="M304.1567,105.59126c-0.21476,0.69665 -0.81747,2.14802 -0.81747,2.14802l-3.7013,5.38961c0,0 0.98309,-9.01947 1.37987,-9.5678c0.9386,-1.29707 2.4513,-0.69195 2.4513,-0.69195c0,0 1.40523,0.39417 0.68759,2.72211z" data-paper-data="{&quot;index&quot;:null}" fill="#ff00bb" stroke="#000000" stroke-width="0" stroke-linecap="round" stroke-linejoin="miter"/><path d="M295.79396,118.65703c-0.14229,-2.39347 -0.5373,-5.43527 -0.5373,-5.43527c0,0 1.81303,1.81342 2.89192,3.59125c0.32774,0.54005 1.81931,3.23804 0.10645,4.57828c-2.66177,2.08272 -2.45375,-2.6111 -2.46107,-2.73426z" data-paper-data="{&quot;index&quot;:null}" fill="#ff00bb" stroke="#000000" stroke-width="0" stroke-linecap="round" stroke-linejoin="miter"/><path d="M271.33169,124.14093c0,0 0.65213,-1.75108 1.19582,-2.57567c0.62519,-0.94819 2.3451,-2.79462 2.3451,-2.79462c0,0 -0.34709,2.23578 -0.41988,3.22668c-0.07011,0.95454 -0.00911,2.61371 -0.00911,2.61371c0,0 -0.04239,1.68722 -1.68006,1.36061c-1.95273,-0.38943 -1.43187,-1.83072 -1.43187,-1.83072z" data-paper-data="{&quot;index&quot;:null}" fill="#ff00bb" stroke="#000000" stroke-width="0" stroke-linecap="round" stroke-linejoin="miter"/><path d="M274.76485,125.20191c0,0 0.57516,-1.77784 1.08239,-2.62535c0.58326,-0.97455 2.22105,-2.89419 2.22105,-2.89419c0,0 -0.2493,2.24879 -0.27882,3.24192c-0.02843,0.95669 0.10485,2.61161 0.10485,2.61161c0,0 0.03121,1.68746 -1.61914,1.43257c-1.96785,-0.30393 -1.51032,-1.76656 -1.51032,-1.76656z" data-paper-data="{&quot;index&quot;:null}" fill="#ff00bb" stroke="#000000" stroke-width="0" stroke-linecap="round" stroke-linejoin="miter"/><path d="M278.46493,125.89048c0,0 0.36216,-1.61385 0.65831,-2.53307c0.34055,-1.05702 0.9262,-3.66014 0.9262,-3.66014l1.4702,5.82082c0,0 0.40208,1.60052 -1.22622,1.72188c-1.94156,0.14471 -1.82849,-1.34949 -1.82849,-1.34949z" data-paper-data="{&quot;index&quot;:null}" fill="#ff00bb" stroke="#000000" stroke-width="0" stroke-linecap="round" stroke-linejoin="miter"/><path d="M287.61463,126.5578c-1.66378,0.143 -1.51882,-1.53852 -1.51882,-1.53852c0,0 0.2732,-1.48685 0.34789,-2.35262c0.09204,-1.06677 0.16323,-3.57178 0.16323,-3.57178c0,0 1.27595,2.33204 1.74403,3.36326c0.39862,0.87817 0.88971,2.439 0.88971,2.439c0,0 0.35782,1.49016 -1.62605,1.66066z" data-paper-data="{&quot;index&quot;:null}" fill="#ff00bb" stroke="#000000" stroke-width="0" stroke-linecap="round" stroke-linejoin="miter"/><path d="M282.53887,125.83286c0,0 0.18509,-1.6436 0.37985,-2.58951c0.22396,-1.0877 0.52397,-3.73897 0.52397,-3.73897l2.09253,5.62714c0,0 0.57322,1.54751 -1.03234,1.84466c-1.91443,0.35433 -1.964,-1.14333 -1.964,-1.14333z" data-paper-data="{&quot;index&quot;:null}" fill="#ff00bb" stroke="#000000" stroke-width="0" stroke-linecap="round" stroke-linejoin="miter"/><path d="M289.53534,122.96483c-0.12396,-2.08527 -0.46812,-4.73537 -0.46812,-4.73537c0,0 1.57957,1.57989 2.51953,3.1288c0.28553,0.47051 1.58503,2.82108 0.09274,3.98873c-2.31901,1.81453 -2.13778,-2.27486 -2.14415,-2.38217z" data-paper-data="{&quot;index&quot;:null}" fill="#ff00bb" stroke="#000000" stroke-width="0" stroke-linecap="round" stroke-linejoin="miter"/><path d="M292.6919,121.24069c-0.12396,-2.08527 -0.46812,-4.73536 -0.46812,-4.73536c0,0 1.57957,1.57989 2.51952,3.1288c0.28553,0.47051 1.58504,2.82108 0.09274,3.98873c-2.31901,1.81453 -2.13777,-2.27487 -2.14415,-2.38217z" data-paper-data="{&quot;index&quot;:null}" fill="#ff00bb" stroke="#000000" stroke-width="0" stroke-linecap="round" stroke-linejoin="miter"/><path d="M268.40988,123.38192c-1.71286,-1.34024 -0.22128,-4.03823 0.10645,-4.57828c1.07889,-1.77783 2.89192,-3.59125 2.89192,-3.59125c0,0 -0.39502,3.04179 -0.5373,5.43527c-0.00732,0.12317 0.2007,4.81698 -2.46106,2.73426z" data-paper-data="{&quot;index&quot;:null}" fill="#ff00bb" stroke="#000000" stroke-width="0" stroke-linecap="round" stroke-linejoin="miter"/><path d="M270.28367,105.80604c1.65601,-0.21505 1.58415,1.47117 1.58415,1.47117c0,0 -0.17312,1.65124 -0.16775,2.60833c0.00557,0.99355 0.2006,3.24769 0.2006,3.24769c0,0 -1.59104,-1.95856 -2.15064,-2.94688c-0.48665,-0.85948 -1.01881,-2.65067 -1.01881,-2.65067c0,0 -0.42214,-1.47323 1.55246,-1.72964z" data-paper-data="{&quot;index&quot;:null}" fill="#ff00bb" stroke="#000000" stroke-width="0" stroke-linecap="round" stroke-linejoin="miter"/><path d="M274.07242,107.00702c1.65845,-0.1954 1.56659,1.48985 1.56659,1.48985c0,0 -0.19269,1.64906 -0.19867,2.60616c-0.0062,0.99355 0.16208,3.24984 0.16208,3.24984c0,0 -1.56771,-1.97729 -2.11555,-2.97217c-0.47643,-0.86519 -0.9873,-2.66256 -0.9873,-2.66256c0,0 -0.40464,-1.47813 1.57286,-1.71112z" data-paper-data="{&quot;index&quot;:null}" fill="#ff00bb" stroke="#000000" stroke-width="0" stroke-linecap="round" stroke-linejoin="miter"/><path d="M282.6062,107.98132c1.62831,0.12136 1.22622,1.72189 1.22622,1.72189l-1.4702,5.82082c0,0 -0.58564,-2.60313 -0.9262,-3.66014c-0.29615,-0.91922 -0.65831,-2.53307 -0.65831,-2.53307c0,0 -0.11308,-1.4942 1.82849,-1.34949z" data-paper-data="{&quot;index&quot;:null}" fill="#ff00bb" stroke="#000000" stroke-width="0" stroke-linecap="round" stroke-linejoin="miter"/><path d="M292.63745,108.7697c0,0 -0.49109,1.56082 -0.88971,2.439c-0.46809,1.03122 -1.74403,3.36326 -1.74403,3.36326c0,0 -0.07119,-2.50501 -0.16323,-3.57178c-0.07469,-0.86577 -0.34789,-2.35262 -0.34789,-2.35262c0,0 -0.14497,-1.68151 1.51882,-1.53852c1.98387,0.1705 1.62605,1.66066 1.62605,1.66066z" data-paper-data="{&quot;index&quot;:null}" fill="#ff00bb" stroke="#000000" stroke-width="0" stroke-linecap="round" stroke-linejoin="miter"/><path d="M287.07624,107.92733c1.60556,0.29716 1.03234,1.84466 1.03234,1.84466l-2.09253,5.62714c0,0 -0.3,-2.65127 -0.52397,-3.73898c-0.19476,-0.94591 -0.37985,-2.5895 -0.37985,-2.5895c0,0 0.04957,-1.49766 1.964,-1.14333z" data-paper-data="{&quot;index&quot;:null}" fill="#ff00bb" stroke="#000000" stroke-width="0" stroke-linecap="round" stroke-linejoin="miter"/><path d="M295.30066,106.78392c1.58559,1.03743 0.48928,3.48937 0.24451,3.98231c-0.80576,1.62277 -2.24624,3.33044 -2.24624,3.33044c0,0 0.11907,-2.6697 0.06646,-4.75798c-0.00271,-0.10746 -0.52872,-4.16693 1.93527,-2.55477z" data-paper-data="{&quot;index&quot;:null}" fill="#ff00bb" stroke="#000000" stroke-width="0" stroke-linecap="round" stroke-linejoin="miter"/><path d="M298.59373,105.3523c1.66808,0.89882 0.78427,3.43511 0.58232,3.94709c-0.66483,1.68542 -1.95485,3.50941 -1.95485,3.50941c0,0 -0.10842,-2.67015 -0.33845,-4.7464c-0.01184,-0.10684 -0.8812,-4.10687 1.71098,-2.7101z" data-paper-data="{&quot;index&quot;:null}" fill="#ff00bb" stroke="#000000" stroke-width="0" stroke-linecap="round" stroke-linejoin="miter"/><path d="M278.45977,107.66333c1.66986,0.01381 1.3677,1.67429 1.3677,1.67429c0,0 -0.39767,1.61195 -0.52345,2.56076c-0.13057,0.98495 -0.24613,3.24456 -0.24613,3.24456c0,0 -1.30778,-2.15803 -1.72673,-3.21369c-0.36434,-0.91804 -0.64613,-2.76523 -0.64613,-2.76523c0,0 -0.21637,-1.51717 1.77474,-1.5007z" data-paper-data="{&quot;index&quot;:null}" fill="#ff00bb" stroke="#000000" stroke-width="0" stroke-linecap="round" stroke-linejoin="miter"/><path d="M269.61471,88.46255c0,-0.82843 0.67157,-1.5 1.5,-1.5c0.82843,0 1.5,0.67157 1.5,1.5c0,0.82843 -0.67157,1.5 -1.5,1.5c-0.82843,0 -1.5,-0.67157 -1.5,-1.5z" fill="#000000" stroke="none" stroke-width="0.5" stroke-linecap="butt" stroke-linejoin="miter"/></g></g></svg>