<svg version="1.1" xmlns="http://www.w3.org/2000/svg" xmlns:xlink="http://www.w3.org/1999/xlink" width="477.83023" height="324.95226" viewBox="0,0,477.83023,324.95226"><defs><linearGradient x1="231.97257" y1="292.51762" x2="233.47751" y2="313.39255" gradientUnits="userSpaceOnUse" id="color-1"><stop offset="0" stop-color="#60003f"/><stop offset="1" stop-color="#050003"/></linearGradient><linearGradient x1="231.97257" y1="292.51762" x2="233.47751" y2="313.39255" gradientUnits="userSpaceOnUse" id="color-2"><stop offset="0" stop-color="#93005f"/><stop offset="1" stop-color="#47002e"/></linearGradient><linearGradient x1="212.2718" y1="170.61275" x2="178.83688" y2="326.23954" gradientUnits="userSpaceOnUse" id="color-3"><stop offset="0" stop-color="#a8007b"/><stop offset="1" stop-color="#000000"/></linearGradient><linearGradient x1="237.84214" y1="295.12632" x2="239.34708" y2="316.00125" gradientUnits="userSpaceOnUse" id="color-4"><stop offset="0" stop-color="#60003f"/><stop offset="1" stop-color="#050003"/></linearGradient><linearGradient x1="237.84214" y1="295.12632" x2="239.34708" y2="316.00125" gradientUnits="userSpaceOnUse" id="color-5"><stop offset="0" stop-color="#93005f"/><stop offset="1" stop-color="#47002e"/></linearGradient><linearGradient x1="-87.19782" y1="237.60775" x2="202.51819" y2="237.60775" gradientUnits="userSpaceOnUse" id="color-6"><stop offset="0" stop-color="#a20076"/><stop offset="1" stop-color="#000000"/></linearGradient><linearGradient x1="-87.19781" y1="235.75836" x2="176.93551" y2="235.75836" gradientUnits="userSpaceOnUse" id="color-7"><stop offset="0" stop-color="#a7007a"/><stop offset="1" stop-color="#000000"/></linearGradient><linearGradient x1="170.7258" y1="95.13383" x2="170.7258" y2="226.85381" gradientUnits="userSpaceOnUse" id="color-8"><stop offset="0" stop-color="#000000"/><stop offset="1" stop-color="#b40084"/></linearGradient><linearGradient x1="117.142" y1="160.99382" x2="224.3096" y2="160.99382" gradientUnits="userSpaceOnUse" id="color-9"><stop offset="0" stop-color="#000000"/><stop offset="1" stop-color="#b40084"/></linearGradient><linearGradient x1="213.23597" y1="53.80553" x2="213.23597" y2="74.16268" gradientUnits="userSpaceOnUse" id="color-10"><stop offset="0" stop-color="#000000"/><stop offset="1" stop-color="#b40084"/></linearGradient><linearGradient x1="213.23597" y1="53.80553" x2="213.23597" y2="74.16268" gradientUnits="userSpaceOnUse" id="color-11"><stop offset="0" stop-color="#000000"/><stop offset="1" stop-color="#b40084"/></linearGradient><linearGradient x1="207.64938" y1="49.21815" x2="207.64938" y2="59.69459" gradientUnits="userSpaceOnUse" id="color-12"><stop offset="0" stop-color="#2f0022"/><stop offset="1" stop-color="#080006"/></linearGradient><linearGradient x1="192.65862" y1="26.74409" x2="195.34647" y2="73.27366" gradientUnits="userSpaceOnUse" id="color-13"><stop offset="0" stop-color="#000000"/><stop offset="1" stop-color="#b40084"/></linearGradient><linearGradient x1="192.65862" y1="26.74409" x2="195.34647" y2="73.27366" gradientUnits="userSpaceOnUse" id="color-14"><stop offset="0" stop-color="#000000"/><stop offset="1" stop-color="#b40084"/></linearGradient><linearGradient x1="197.06936" y1="74.61793" x2="197.06936" y2="110.17564" gradientUnits="userSpaceOnUse" id="color-15"><stop offset="0" stop-color="#b40084"/><stop offset="1" stop-color="#000000"/></linearGradient><radialGradient cx="204.2604" cy="88.91185" r="12.40667" gradientUnits="userSpaceOnUse" id="color-16"><stop offset="0" stop-color="#190010"/><stop offset="1" stop-color="#190010" stop-opacity="0"/></radialGradient><linearGradient x1="166.46349" y1="85.6886" x2="166.46349" y2="95.776" gradientUnits="userSpaceOnUse" id="color-17"><stop offset="0" stop-color="#760056"/><stop offset="1" stop-color="#52003c"/></linearGradient><linearGradient x1="181.43063" y1="80.74023" x2="181.43063" y2="92.26052" gradientUnits="userSpaceOnUse" id="color-18"><stop offset="0" stop-color="#770057"/><stop offset="1" stop-color="#5b0043"/></linearGradient><linearGradient x1="186.06069" y1="92.67904" x2="186.06069" y2="104.47631" gradientUnits="userSpaceOnUse" id="color-19"><stop offset="0" stop-color="#4f003a"/><stop offset="1" stop-color="#340026"/></linearGradient><linearGradient x1="196.61347" y1="176.795" x2="161.65531" y2="339.5119" gradientUnits="userSpaceOnUse" id="color-20"><stop offset="0" stop-color="#a8007b"/><stop offset="1" stop-color="#000000"/></linearGradient><linearGradient x1="229.18272" y1="306.04419" x2="230.68766" y2="326.91912" gradientUnits="userSpaceOnUse" id="color-21"><stop offset="0" stop-color="#60003f"/><stop offset="1" stop-color="#050003"/></linearGradient><linearGradient x1="229.18272" y1="306.04419" x2="230.68766" y2="326.91912" gradientUnits="userSpaceOnUse" id="color-22"><stop offset="0" stop-color="#93005f"/><stop offset="1" stop-color="#47002e"/></linearGradient><linearGradient x1="216.28798" y1="312.88629" x2="217.79293" y2="333.76122" gradientUnits="userSpaceOnUse" id="color-23"><stop offset="0" stop-color="#60003f"/><stop offset="1" stop-color="#050003"/></linearGradient><linearGradient x1="216.28798" y1="312.88629" x2="217.79293" y2="333.76122" gradientUnits="userSpaceOnUse" id="color-24"><stop offset="0" stop-color="#93005f"/><stop offset="1" stop-color="#47002e"/></linearGradient><linearGradient x1="206.55114" y1="322.35998" x2="208.05608" y2="343.23491" gradientUnits="userSpaceOnUse" id="color-25"><stop offset="0" stop-color="#60003f"/><stop offset="1" stop-color="#050003"/></linearGradient><linearGradient x1="206.55114" y1="322.35998" x2="208.05608" y2="343.23491" gradientUnits="userSpaceOnUse" id="color-26"><stop offset="0" stop-color="#93005f"/><stop offset="1" stop-color="#47002e"/></linearGradient></defs><g transform="translate(88.72258,-22.70379)"><g data-paper-data="{&quot;isPaintingLayer&quot;:true}" fill-rule="nonzero" stroke-linejoin="miter" stroke-miterlimit="10" stroke-dasharray="" stroke-dashoffset="0" style="mix-blend-mode: normal"><g stroke-width="0" stroke-linecap="round"><path d="M222.2031,293.22193c0,0 10.87339,5.13567 14.91415,9.12792c4.24593,4.19495 9.97639,15.46384 9.97639,15.46384c0,0 -8.52808,-4.54334 -13.71181,-5.79293c-5.3842,-1.2979 -18.01483,-1.85499 -18.01483,-1.85499c0,0 -9.71519,-3.77839 -6.22682,-13.34599c2.6952,-7.39218 13.06292,-3.59785 13.06292,-3.59785z" data-paper-data="{&quot;index&quot;:null}" fill="url(#color-1)" stroke="url(#color-2)"/><path d="M166.86072,170.8555c0,0 13.32241,-18.37346 29.27985,-1.21473c3.04123,3.27018 6.74608,23.32843 6.74608,23.32843l12.86284,35.42294c0,0 2.07838,6.72743 2.2555,9.89902c0.15521,2.77914 -1.24983,8.10915 -1.24983,8.10915l-5.20643,-5.26193c0,0 0.17183,7.33753 -0.9098,11.20402c-1.01513,3.6288 -5.39317,11.32714 -5.39317,11.32714l0.79294,-9.74123c0,0 -2.8363,5.02705 -4.87483,7.45063c-2.35331,2.7978 -8.4368,8.37528 -8.4368,8.37528l-0.45301,20.15913c0,0 13.8937,-0.91317 19.59078,1.49432c9.1268,3.85681 15.71454,12.1568 15.71454,12.1568l-24.79352,18.38405l-20.8125,-2.37125l-22.20954,-5.7682l5.09969,-2.08741l-5.03884,-3.5099l4.66906,-2.64231l-8.12702,-0.18162c0,0 6.62831,-21.53574 6.75034,-29.00141c0.1187,-7.26315 2.11246,-25.21362 2.11246,-25.21362c0,0 2.83035,-4.99616 4.81246,-7.29768c1.9122,-2.22036 6.87806,-6.27673 6.87806,-6.27673l-14.49184,-39.18512l5.03026,-23.41391" fill="url(#color-3)" stroke="#000000"/><path d="M228.07267,295.83063c0,0 10.87339,5.13567 14.91415,9.12792c4.24593,4.19495 9.97639,15.46384 9.97639,15.46384c0,0 -8.52808,-4.54334 -13.71181,-5.79293c-5.3842,-1.2979 -18.01483,-1.85499 -18.01483,-1.85499c0,0 -9.7152,-3.77839 -6.22683,-13.34598c2.6952,-7.39218 13.06292,-3.59785 13.06292,-3.59785z" data-paper-data="{&quot;index&quot;:null}" fill="url(#color-4)" stroke="url(#color-5)"/></g><path d="M195.70185,186.76731c20.35822,26.88423 -11.37331,58.28067 -11.37331,58.28067c0,0 -73.72806,61.22249 -115.34712,65.1351c-61.20226,5.75364 -78.53783,-26.24531 -117.75628,-102.31051c-13.78425,-26.73491 -38.42296,-43.49504 -38.42296,-43.49504c0,0 43.943,13.63408 67.46062,30.84226c30.76519,22.51132 44.74073,61.48015 79.65285,59.32557c44.49232,-2.74581 89.46396,-71.8227 89.46396,-71.8227c0,0 28.22165,-19.85823 46.32223,4.04464z" fill="url(#color-6)" stroke="url(#color-7)" stroke-width="0.5" stroke-linecap="round"/><path d="M200.80481,108.86889c0,0 -3.32511,2.89519 -6.07449,5.44833c-0.35381,0.32855 -0.27235,1.98376 -0.50493,3.58772c-0.21266,1.46657 -0.75499,2.90708 -0.75499,2.90708c0,0 -0.25293,-1.5729 -0.68741,-2.64869c-0.30783,-0.76222 -0.80874,-1.17294 -0.92228,-1.05098c-1.8172,1.9518 -3.49962,5.12203 -3.49962,5.12203l6.87138,1.88616c0,0 -3.20129,-0.07609 -2.55877,0.262c4.13846,2.17765 23.55658,9.80505 23.55658,9.80505c0,0 4.62347,3.31312 6.94381,4.39884c2.01802,0.94426 6.1983,1.75054 6.1983,1.75054c0,0 -1.66357,2.40642 -4.00332,3.33597c-2.71507,1.07866 -6.15399,0.72863 -6.01348,1.16359c0.46903,1.45192 8.25617,1.90715 8.25617,1.90715c0,0 -0.88088,3.42193 -5.13748,3.55074c-3.69406,0.11179 -5.76439,1.42026 -5.76439,1.42026c0,0 -4.25051,11.58679 -5.76314,19.87339c-1.01241,5.54623 -1.20533,17.2897 -1.83707,25.25764c-0.56749,7.15757 -2.31347,10.65121 -2.31347,10.65121c0,0 -0.96819,11.03994 -13.46782,17.63587c-6.50701,3.43368 -23.86334,1.72103 -23.86334,1.72103c0,0 -13.30282,-4.95887 -17.45329,-9.66958c-8.34437,-9.47069 -7.43415,-21.67016 -7.43415,-21.67016l6.45229,-26.73095l-3.6018,-24.43435l-8.37172,-3.40808c0,0 0.83658,1.51321 1.02746,2.23463c0.17922,0.67737 0.08503,1.97008 0.08503,1.97008c0,0 -0.43077,-0.86002 -1.02566,-1.3547c-0.49853,-0.41456 -1.17726,-0.50763 -1.18627,-0.25096c-0.13133,3.73789 -0.72315,5.82914 -0.72315,5.82914c0,0 -1.35639,-2.58207 -2.98103,-5.01118c-0.53832,-0.80489 -0.24603,3.18792 -0.24603,3.18792c0,0 -2.17685,-6.31843 -2.53657,-6.63748c-1.3584,-1.20483 -3.68067,-3.92659 -6.31099,-5.50641c-3.84737,-2.3108 -8.01719,-3.35669 -8.01719,-3.35669c0,0 1.93963,-1.87293 4.62713,-4.44976c0.82436,-0.79041 -4.89093,0.69555 -4.89093,0.69555c0,0 2.70333,-0.90001 5.70538,-2.65359c2.2486,-1.31347 4.90123,-3.49989 5.4175,-3.98988c2.49007,-2.3633 4.93432,-4.6631 6.74531,-6.32318c0.22926,-0.21016 -1.0484,0.06412 -2.68525,0.60701c-1.91229,0.63424 -4.24931,1.57201 -4.24931,1.57201c0,0 2.36624,-1.90717 5.15262,-3.5409c2.80864,-1.64678 6.0384,-3.0215 6.24251,-3.34453c1.68407,-2.66538 1.55502,-4.58195 3.79568,-6.54047c3.46886,-3.03208 7.49308,-2.3671 7.49308,-2.3671c0,0 1.93981,-0.60813 3.75467,-1.29254c1.30923,-0.49372 2.88421,-2.54051 5.5386,-3.74649c3.80412,-1.72834 8.14535,-1.53733 8.14535,-1.53733z" fill="url(#color-8)" stroke="url(#color-9)" stroke-width="0" stroke-linecap="round"/><g stroke-linecap="round"><path d="M198.23597,72.19838l4.64286,-13.75c0,0 1.12015,-2.67364 2.36794,-3.40268c2.99394,-1.74926 6.3146,-0.79574 6.3146,-0.79574l5.99206,2.95635l9.40298,-1.998c0,0 -0.91884,0.53365 0.07037,1.47751c0.16508,0.15751 2.44588,0.34844 3.21063,4.77532c0.52721,3.05182 -0.65082,8.29286 -0.65082,8.29286l-1.00141,-2.86912c0,0 -1.4064,3.63249 -5.64901,5.26464c-3.83963,1.47712 -5.59306,-0.12972 -5.59306,-0.12972l-7.67858,-4.82143l0.53572,6.96429z" fill="url(#color-10)" stroke="url(#color-11)" stroke-width="0.5"/><path d="M203.68254,57.31364c0,0 -0.61925,0.07394 0.57423,-1.69697c0.15817,-0.23468 0.98247,-0.64979 1.15814,-1.43336c0.20941,-0.93409 0.24419,-1.77699 0.39182,-2.02606c0.25367,-0.42798 0.3305,1.64272 0.45157,1.34235c0.6355,-1.57675 -0.11028,-3.76189 -0.11028,-3.76189c0,0 1.45163,1.41428 1.77247,2.14562c0.25445,0.58003 -0.00004,1.89465 -0.00004,1.89465c0,0 2.04418,-1.28076 3.0037,-1.83462c0.8022,-0.46304 2.2397,-2.7252 2.2397,-2.7252l-1.21369,4.27874" data-paper-data="{&quot;index&quot;:null}" fill="url(#color-12)" stroke="#000000" stroke-width="0"/></g><path d="M184.87623,73.16301l-0.15837,-8.93431c0,0 -0.2421,-5.03758 -1.34254,-7.56268c-1.17452,-6.77163 -6.99146,-7.43355 -9.25272,-11.6022c-1.42776,-2.63208 -2.41399,-0.84168 -2.41399,-0.84168l0.84334,-7.90971c0,0 1.60165,-5.71447 4.94765,-7.25923c3.95174,-1.82441 -2.19227,-2.79231 -2.19227,-2.79231c0,0 4.99105,-3.63225 7.99719,-3.2835c2.96925,0.34446 9.39173,1.77249 9.39173,1.77249c0,0 5.42077,-0.20778 7.78621,-0.45729c3.70863,-0.39119 13.38702,2.28746 13.38702,2.28746c0,0 -6.21246,0.88594 -4.52582,1.97103c0.69434,0.44671 9.08623,9.30218 9.08623,9.30218l-4.6039,-2.31526c0,0 3.04226,3.87294 -2.28897,10.33922c-2.66616,3.2338 -7.86289,2.37757 -11.81927,9.4055c-1.53384,2.57765 -1.54372,6.55885 -1.54372,6.55885l1.36188,11.19008z" fill="url(#color-13)" stroke="url(#color-14)" stroke-width="0.5" stroke-linecap="round"/><path d="M170.71944,74.74037c0,0 6.55767,-3.9785 24.44544,-4.34118c10.94161,-0.22184 19.56088,4.0473 19.56088,4.0473c0,0 2.79211,11.04045 4.17067,15.05269c1.35563,3.94549 4.03306,8.82386 4.03306,8.82386l-9.1588,11.85257c0,0 -12.1083,2.07079 -18.68343,1.85273c-13.69005,-0.45401 -23.3393,-3.46899 -23.3393,-3.46899c0,0 -2.82434,-10.55079 -3.23251,-15.62383c-1.07751,-13.39154 2.20399,-18.19516 2.20399,-18.19516z" fill="url(#color-15)" stroke="#000000" stroke-width="0" stroke-linecap="round"/><path d="M216.56412,88.91185c0,6.85201 -5.50857,12.40668 -12.30371,12.40668c-6.79515,0 -12.3037,-5.55466 -12.3037,-12.40668c0,-6.85201 5.50856,-12.40666 12.3037,-12.40666c6.79515,0 12.30371,5.55466 12.30371,12.40666z" fill="url(#color-16)" stroke="none" stroke-width="0" stroke-linecap="butt"/><path d="M210.28495,88.11237c0,4.90648 -3.26627,8.88397 -7.29545,8.88397c-4.02918,0 -7.29545,-3.97747 -7.29545,-8.88397c0,-4.90648 3.26627,-8.88397 7.29545,-8.88397c4.02918,0 7.29545,3.97747 7.29545,8.88397z" fill="#000000" stroke="none" stroke-width="0" stroke-linecap="butt"/><path d="M203.36431,92.78424l-11.53152,-4.05738l11.21118,-4.59125l9.82314,3.95061z" fill="#000000" stroke="#000000" stroke-width="0.5" stroke-linecap="round"/><path d="M208.1991,88.13676c0,3.2929 -2.34674,5.96231 -5.2416,5.96231c-2.89485,0 -5.24159,-2.66942 -5.24159,-5.96231c0,-3.2929 2.34673,-5.9623 5.24159,-5.9623c2.89485,0 5.2416,2.6694 5.2416,5.9623z" fill="#ff00bb" stroke="none" stroke-width="NaN" stroke-linecap="butt"/><path d="M207.6868,87.79777c0,4.31862 -1.52213,7.81955 -1.52213,7.81955c0,0 0.74939,-3.60122 0.74939,-7.91985c0,-4.31862 -0.74939,-7.71926 -0.74939,-7.71926c0,0 1.52213,3.50093 1.52213,7.81956z" fill="#000000" stroke="none" stroke-width="NaN" stroke-linecap="butt"/><path d="M219.21111,103.05287l-2.98702,-6.9437l4.09198,2.32134l2.35011,0.05887z" fill="#000000" stroke="#000000" stroke-width="0.5" stroke-linecap="round"/><path d="M203.12164,58.35956l-4.77273,12.95455" fill="none" stroke="none" stroke-width="0.5" stroke-linecap="round"/><path d="M189.52987,74.55686c0,0 -1.08208,-2.04431 -1.86586,-2.78264c-0.84275,-0.79388 -3.02661,-1.82608 -3.02661,-1.82608l4.04421,0.09558c0,0 -0.29829,-1.42882 -0.81238,-1.99185c-0.65442,-0.71672 -2.79574,-1.95976 -2.79574,-1.95976c0,0 2.84437,0.33148 4.007,0.71974c0.96469,0.32215 2.48643,1.44871 2.48643,1.44871c0,0 -0.80645,-1.80633 -0.80645,-2.59152c0,-1.08898 0.80645,-3.33441 0.80645,-3.33441c0,0 0.35363,2.64274 1.18175,3.91449c0.89507,1.37457 4.00343,4.04847 4.00343,4.04847" fill="#b40084" stroke="#b40084" stroke-width="0.5" stroke-linecap="round"/><g fill="#000000" stroke="none" stroke-width="0.5" stroke-linecap="butt"><path d="M206.02513,98.06008c0,-0.20823 0.16881,-0.37705 0.37705,-0.37705c0.20823,0 0.37705,0.16882 0.37705,0.37705c0,0.20823 -0.16882,0.37705 -0.37705,0.37705c-0.20823,0 -0.37705,-0.16882 -0.37705,-0.37705z"/><path d="M208.34542,100.23537c0,-0.20823 0.16881,-0.37704 0.37705,-0.37704c0.20823,0 0.37705,0.16881 0.37705,0.37704c0,0.20823 -0.16881,0.37705 -0.37705,0.37705c-0.20824,0 -0.37705,-0.16882 -0.37705,-0.37705z"/><path d="M211.53584,98.35013c0,-0.20823 0.16882,-0.37704 0.37705,-0.37704c0.20823,0 0.37705,0.16881 0.37705,0.37704c0,0.20823 -0.16882,0.37705 -0.37705,0.37705c-0.20823,0 -0.37705,-0.16882 -0.37705,-0.37705z"/></g><path d="M170.68273,78.51303c0,0 -1.44224,-1.80833 -2.34928,-2.38859c-0.97529,-0.62392 -3.31263,-1.23347 -3.31263,-1.23347l3.99185,-0.65566c0,0 -0.55795,-1.34878 -1.16749,-1.80677c-0.77592,-0.58301 -3.11053,-1.40762 -3.11053,-1.40762c0,0 2.85652,-0.20146 4.07097,-0.03542c1.00768,0.13777 2.71186,0.96276 2.71186,0.96276c0,0 -1.12727,-1.62556 -1.27281,-2.39714c-0.20184,-1.07011 0.17445,-3.42611 0.17445,-3.42611c0,0 0.83733,2.53141 1.88681,3.62763c1.13433,1.18485 4.68444,3.2363 4.68444,3.2363" fill="#b40084" stroke="#b40084" stroke-width="0.5" stroke-linecap="round"/><path d="M171.12506,94.07043c0,0 -2.30706,-0.1661 -3.34859,0.10713c-1.11989,0.29379 -3.15276,1.59844 -3.15276,1.59844l2.2248,-3.37861c0,0 -1.36968,-0.50446 -2.11961,-0.36699c-0.95464,0.175 -3.14374,1.33181 -3.14374,1.33181c0,0 1.78882,-2.23616 2.73433,-3.0162c0.78453,-0.64724 2.54644,-1.34043 2.54644,-1.34043c0,0 -1.95916,-0.27367 -2.62496,-0.68988c-0.9234,-0.57725 -2.39992,-2.45133 -2.39992,-2.45133c0,0 2.42836,1.101 3.94571,1.07293c1.64002,-0.03034 5.55503,-1.24868 5.55503,-1.24868" fill="url(#color-17)" stroke="#b40084" stroke-width="0" stroke-linecap="round"/><path d="M186.63183,89.89435c0,0 -0.83765,1.61 -2.93401,2.25119c-1.48735,0.45492 -5.38791,-0.5868 -5.38791,-0.5868c0,0 2.92378,-1.0766 3.7852,-1.91536c0.8942,-0.87067 1.48535,-3.2165 1.48535,-3.2165c0,0 -1.84717,1.14445 -2.9221,1.16473c-1.32338,0.02497 -4.42893,-1.02603 -4.42893,-1.02603c0,0 3.02551,-0.36517 4.29539,-1.35285c1.22508,-0.95284 3.19434,-4.4725 3.19434,-4.4725" fill="url(#color-18)" stroke="#000000" stroke-width="0" stroke-linecap="round"/><path d="M191.50851,100.87746c0,0 -0.4306,1.76305 -2.31425,2.88453c-1.33643,0.79568 -5.37284,0.71176 -5.37284,0.71176c0,0 2.58374,-1.74122 3.2209,-2.76082c0.66141,-1.0584 0.67755,-3.47751 0.67755,-3.47751c0,0 -1.52189,1.55101 -2.56114,1.82642c-1.27945,0.33907 -4.54587,0.05702 -4.54587,0.05702c0,0 2.85179,-1.0744 3.85026,-2.33582c0.96324,-1.21693 2.03869,-5.104 2.03869,-5.104" fill="url(#color-19)" stroke="#000000" stroke-width="0" stroke-linecap="round"/><path d="M361.66423,288.5555c0,0 1.56269,0.60962 2.45029,2.75261c0.56107,1.35463 2.2758,4.41983 2.2758,4.41983c0,0 -1.74427,2.26381 -1.89223,2.96531c-0.18421,0.87337 -0.08014,3.20582 -0.08014,3.20582c0,0 -0.70439,3.11459 -0.46618,5.14735c0.3324,2.8364 1.01779,4.19076 2.146,11.65317c1.24395,8.2279 2.71582,16.03172 2.71582,16.03172l-51.1752,0.22216c0,0 0.42712,-18.65305 1.55658,-24.31137c0.23117,-1.15811 0.46617,-3.50596 1.30183,-5.28999c0.55116,-1.17667 1.59091,-2.16367 2.30189,-3.41473c0.786,-1.38305 0.9804,-3.17284 1.79717,-4.5219c1.16628,-1.92634 2.79605,-3.6669 3.85115,-5.03872c1.46087,-1.89941 2.17093,-3.09194 2.17093,-3.09194z" fill="#ff00bb" stroke="#ff00bb" stroke-width="0" stroke-linecap="round"/><g fill="#ff00bb" stroke-width="0"><path d="M342.74468,257.85294c0,0 -5.47707,6.00533 -8.63389,-2.76189c-0.30555,-0.84854 -5.78348,-11.4485 -8.38196,-19.42349c-1.03987,-3.19142 -1.15205,-6.33044 -1.00278,-7.69148c0.43797,-3.99327 3.37152,-8.2091 4.2602,-9.49223c3.03355,-4.38004 7.57406,-10.48816 12.78037,-14.11489c3.33528,-2.32337 7.74999,-3.48869 10.05085,-3.0697c0.52763,0.09609 2.8013,1.53771 2.50277,4.35155c-0.3249,3.0623 -3.32533,7.62324 -5.35741,10.57461c-3.5952,5.22168 -9.12965,10.09296 -11.68566,14.70997c-1.75876,3.17689 -0.61569,4.97081 -0.39712,6.54609c1.84048,13.2657 5.86465,20.37145 5.86465,20.37145z" data-paper-data="{&quot;index&quot;:null}" stroke="none" stroke-linecap="butt"/><path d="M337.63477,210.63493c0,0 -2.06943,-0.40716 -3.169,-0.89078c-1.33387,-0.58669 -4.26793,-2.38025 -4.26793,-2.38025c0,0 2.38445,0.02435 3.42399,-0.23066c1.87156,-0.45912 2.41309,-1.47109 2.41309,-1.47109l-2.2014,-4.2432c0,0 2.39197,1.59217 3.77701,2.06225c1.54096,0.52301 5.05098,0.93393 5.05098,0.93393" data-paper-data="{&quot;index&quot;:null}" stroke="#7e1556" stroke-linecap="round"/></g><g fill="#ff00bb" stroke-width="0"><path d="M354.04592,255.10644c0,0 0.38533,-12.56114 3.53373,-25.60492c4.00638,-16.59827 11.88259,-33.98342 22.5546,-27.32036c3.36646,2.9698 4.76613,6.20516 2.94876,11.00794c-0.56483,1.4927 -3.55849,6.41755 -6.1882,10.57667c-2.28379,3.612 -3.99922,7.32397 -6.3245,11.14389c-5.03956,8.27888 -8.5428,15.09345 -9.08659,16.23834c-4.01266,8.44831 -7.43777,3.95847 -7.43777,3.95847z" data-paper-data="{&quot;index&quot;:null}" stroke="none" stroke-linecap="butt"/><path d="M381.11641,209.71561c0,0 2.56264,2.38083 3.95754,3.20754c1.25376,0.74306 4.0337,1.52856 4.0337,1.52856l-4.74659,1.04901c0,0 -0.45171,1.05327 0.38046,2.75536c0.46222,0.9454 2.00237,2.72531 2.00237,2.72531c0,0 -3.28435,-1.06521 -4.59731,-1.69535c-1.08233,-0.51946 -2.72308,-1.81797 -2.72308,-1.81797" data-paper-data="{&quot;index&quot;:null}" stroke="#7e1556" stroke-linecap="round"/></g><path d="M322.49601,270.39263c-0.02871,-5.10538 1.01792,-9.37406 1.13035,-10.00495c0.35083,-1.96908 0.23448,-3.78068 1.58025,-5.24632c1.09748,-1.19524 5.85617,-2.68212 11.28593,-3.81049c4.79723,-0.99692 10.25276,-1.69658 12.2332,-1.91868c2.1718,-0.24357 7.02972,-0.17827 11.7618,0.26814c5.97309,0.56348 11.8816,1.66877 13.4502,2.79743c2.79082,2.00807 2.37805,6.27981 2.42636,7.20582c0.04566,0.87494 0.76966,5.10878 0.93797,9.28403c0.04999,1.23974 0.09243,2.53904 0.12853,3.86058c0.07731,2.83127 0.79162,9.3477 -1.76553,12.10694c-5.29013,5.70821 -19.48457,6.54757 -25.24392,6.75025c-2.75647,0.097 -7.23094,-0.19868 -12.18625,-0.72703c-1.91464,-0.20415 -3.4811,-0.56265 -5.37246,-0.93352c-2.27393,-0.44588 -4.8176,-0.97721 -6.34363,-2.17799c-1.53015,-1.20403 -1.80583,-2.34014 -2.21137,-3.97703c-0.31674,-1.27846 -0.89285,-2.96752 -1.02397,-4.54205c-0.20519,-2.46379 -0.78529,-8.54794 -0.78747,-8.9351z" fill="#ff00bb" stroke="none" stroke-width="0" stroke-linecap="butt"/><path d="M348.52484,278.74582l7.56892,-0.17814l-4.19659,3.60857z" fill="#7e1556" stroke="#7e1556" stroke-width="0.5" stroke-linecap="round"/><path d="M326.25561,274.04172c0,0 -1.3983,1.55659 -2.37754,2.25111c-1.18791,0.84251 -4.24561,2.44628 -4.24561,2.44628c0,0 1.21796,-2.01414 1.51414,-3.02394c0.53323,-1.81804 -0.0896,-2.78008 -0.0896,-2.78008l-4.85552,-0.23362c0,0 2.60767,-1.24301 3.71819,-2.18684c1.23552,-1.05008 3.36,-3.82893 3.36,-3.82893" fill="#ff00bb" stroke="#7e1556" stroke-width="0" stroke-linecap="round"/><path d="M344.37985,271.84877c0.12186,4.02648 -3.07528,7.3974 -7.14102,7.52915c-4.06573,0.13173 -7.46046,-3.02556 -7.58234,-7.05205c-0.12186,-4.02648 3.07528,-7.3974 7.14102,-7.52915c4.06573,-0.13173 7.46046,3.02556 7.58234,7.05205z" fill="#721249" stroke="#000000" stroke-width="0" stroke-linecap="butt"/><path d="M341.24394,271.66465c0.18851,2.21988 -1.48782,4.1748 -3.74418,4.3664c-2.25635,0.19161 -4.23832,-1.45265 -4.42683,-3.67253c-0.18851,-2.21988 1.48782,-4.1748 3.74418,-4.3664c2.25635,-0.19161 4.23832,1.45265 4.42683,3.67253z" fill="#ff96d7" stroke="#ff96d7" stroke-width="0.5" stroke-linecap="butt"/><g stroke-width="0" stroke-linecap="round"><path d="M149.13353,177.04881c0,0 13.92936,-19.21053 30.61379,-1.27007c3.17978,3.41916 7.05342,24.39124 7.05342,24.39124l13.44885,37.03675c0,0 2.17307,7.03392 2.35826,10.35c0.16228,2.90575 -1.30677,8.47859 -1.30677,8.47859l-5.44363,-5.50165c0,0 0.17966,7.67182 -0.95125,11.71446c-1.06138,3.79412 -5.63887,11.84319 -5.63887,11.84319l0.82906,-10.18503c0,0 -2.96552,5.25607 -5.09692,7.79007c-2.46052,2.92526 -8.82117,8.75684 -8.82117,8.75684l-0.47365,21.07755c0,0 14.52668,-0.95477 20.48331,1.5624c9.5426,4.03252 16.43047,12.71064 16.43047,12.71064l-25.92307,19.2216l-21.76068,-2.47928l-23.22137,-6.03099l5.33202,-2.18251l-5.2684,-3.66981l4.88178,-2.76269l-8.49727,-0.18989c0,0 6.93029,-22.51687 7.05787,-30.32267c0.12411,-7.59405 2.2087,-26.36231 2.2087,-26.36231c0,0 2.9593,-5.22378 5.03171,-7.63015c1.99932,-2.32152 7.19141,-6.56269 7.19141,-6.56269c0,0 -11.10753,-31.47235 -13.583,-39.41012c-1.1944,-3.82991 -0.48211,-5.69064 -0.48211,-5.69064l2.21595,-22.52409" fill="url(#color-20)" stroke="#000000"/><g><path d="M219.41325,306.7485c0,0 10.87339,5.13567 14.91415,9.12792c4.24592,4.19495 9.97639,15.46384 9.97639,15.46384c0,0 -8.52808,-4.54334 -13.71181,-5.79293c-5.3842,-1.2979 -18.01483,-1.85499 -18.01483,-1.85499c0,0 -9.7152,-3.77839 -6.22683,-13.34599c2.6952,-7.39218 13.06292,-3.59785 13.06292,-3.59785z" data-paper-data="{&quot;index&quot;:null}" fill="url(#color-21)" stroke="url(#color-22)"/><path d="M206.51852,313.59061c0,0 10.87339,5.13567 14.91415,9.12792c4.24593,4.19495 9.97639,15.46384 9.97639,15.46384c0,0 -8.52808,-4.54334 -13.71181,-5.79293c-5.3842,-1.2979 -18.01483,-1.85499 -18.01483,-1.85499c0,0 -9.71519,-3.77839 -6.22682,-13.34599c2.6952,-7.39218 13.06292,-3.59785 13.06292,-3.59785z" data-paper-data="{&quot;index&quot;:null}" fill="url(#color-23)" stroke="url(#color-24)"/><path d="M196.78167,323.06429c0,0 10.87339,5.13567 14.91415,9.12792c4.24593,4.19495 9.97639,15.46384 9.97639,15.46384c0,0 -8.52808,-4.54334 -13.7118,-5.79293c-5.3842,-1.2979 -18.01483,-1.85499 -18.01483,-1.85499c0,0 -9.71519,-3.77839 -6.22682,-13.34599c2.6952,-7.39218 13.06292,-3.59785 13.06292,-3.59785z" data-paper-data="{&quot;index&quot;:null}" fill="url(#color-25)" stroke="url(#color-26)"/></g></g></g></g></svg>