<svg version="1.1" xmlns="http://www.w3.org/2000/svg" xmlns:xlink="http://www.w3.org/1999/xlink" width="341.68579" height="326.35748" viewBox="0,0,341.68579,326.35748"><defs><linearGradient x1="364.76669" y1="43.91323" x2="364.76669" y2="54.38967" gradientUnits="userSpaceOnUse" id="color-1"><stop offset="0" stop-color="#1b0013"/><stop offset="1" stop-color="#080006"/></linearGradient><linearGradient x1="370.35328" y1="48.50061" x2="370.35328" y2="68.85776" gradientUnits="userSpaceOnUse" id="color-2"><stop offset="0" stop-color="#000000"/><stop offset="1" stop-color="#b40084"/></linearGradient><linearGradient x1="370.35328" y1="48.50061" x2="370.35328" y2="68.85776" gradientUnits="userSpaceOnUse" id="color-3"><stop offset="0" stop-color="#000000"/><stop offset="1" stop-color="#b40084"/></linearGradient><linearGradient x1="349.77593" y1="21.43917" x2="352.46378" y2="67.96873" gradientUnits="userSpaceOnUse" id="color-4"><stop offset="0" stop-color="#000000"/><stop offset="1" stop-color="#b40084"/></linearGradient><linearGradient x1="349.77593" y1="21.43917" x2="352.46378" y2="67.96873" gradientUnits="userSpaceOnUse" id="color-5"><stop offset="0" stop-color="#000000"/><stop offset="1" stop-color="#b40084"/></linearGradient><linearGradient x1="323.58079" y1="80.38368" x2="323.58079" y2="90.47108" gradientUnits="userSpaceOnUse" id="color-6"><stop offset="0" stop-color="#770057"/><stop offset="1" stop-color="#4e0039"/></linearGradient><linearGradient x1="389.08988" y1="287.2127" x2="390.59482" y2="308.08763" gradientUnits="userSpaceOnUse" id="color-7"><stop offset="0" stop-color="#60003f"/><stop offset="1" stop-color="#050003"/></linearGradient><linearGradient x1="389.08988" y1="287.2127" x2="390.59482" y2="308.08763" gradientUnits="userSpaceOnUse" id="color-8"><stop offset="0" stop-color="#93005f"/><stop offset="1" stop-color="#47002e"/></linearGradient><linearGradient x1="369.38911" y1="165.30783" x2="335.95419" y2="320.93462" gradientUnits="userSpaceOnUse" id="color-9"><stop offset="0" stop-color="#a8007b"/><stop offset="1" stop-color="#000000"/></linearGradient><linearGradient x1="394.95945" y1="289.8214" x2="396.46438" y2="310.69633" gradientUnits="userSpaceOnUse" id="color-10"><stop offset="0" stop-color="#60003f"/><stop offset="1" stop-color="#050003"/></linearGradient><linearGradient x1="394.95945" y1="289.8214" x2="396.46438" y2="310.69633" gradientUnits="userSpaceOnUse" id="color-11"><stop offset="0" stop-color="#93005f"/><stop offset="1" stop-color="#47002e"/></linearGradient><linearGradient x1="69.91949" y1="232.30283" x2="359.6355" y2="232.30283" gradientUnits="userSpaceOnUse" id="color-12"><stop offset="0" stop-color="#a20076"/><stop offset="1" stop-color="#000000"/></linearGradient><linearGradient x1="69.9195" y1="230.45344" x2="334.05282" y2="230.45344" gradientUnits="userSpaceOnUse" id="color-13"><stop offset="0" stop-color="#a7007a"/><stop offset="1" stop-color="#000000"/></linearGradient><linearGradient x1="327.84311" y1="89.82891" x2="327.84311" y2="221.54889" gradientUnits="userSpaceOnUse" id="color-14"><stop offset="0" stop-color="#000000"/><stop offset="1" stop-color="#b40084"/></linearGradient><linearGradient x1="274.25931" y1="155.68889" x2="381.42691" y2="155.68889" gradientUnits="userSpaceOnUse" id="color-15"><stop offset="0" stop-color="#000000"/><stop offset="1" stop-color="#b40084"/></linearGradient><linearGradient x1="354.18666" y1="69.31301" x2="354.18666" y2="104.87072" gradientUnits="userSpaceOnUse" id="color-16"><stop offset="0" stop-color="#b40084"/><stop offset="1" stop-color="#000000"/></linearGradient><radialGradient cx="361.37771" cy="83.60693" r="12.40667" gradientUnits="userSpaceOnUse" id="color-17"><stop offset="0" stop-color="#190010"/><stop offset="1" stop-color="#190010" stop-opacity="0"/></radialGradient><linearGradient x1="338.54794" y1="75.43531" x2="338.54794" y2="86.9556" gradientUnits="userSpaceOnUse" id="color-18"><stop offset="0" stop-color="#93006c"/><stop offset="1" stop-color="#5b0043"/></linearGradient><linearGradient x1="343.178" y1="87.37412" x2="343.178" y2="99.17139" gradientUnits="userSpaceOnUse" id="color-19"><stop offset="0" stop-color="#580041"/><stop offset="1" stop-color="#210018"/></linearGradient><linearGradient x1="353.73078" y1="171.49008" x2="318.77261" y2="334.20698" gradientUnits="userSpaceOnUse" id="color-20"><stop offset="0" stop-color="#a8007b"/><stop offset="1" stop-color="#000000"/></linearGradient><linearGradient x1="387.34372" y1="297.88602" x2="389.15926" y2="323.06928" gradientUnits="userSpaceOnUse" id="color-21"><stop offset="0" stop-color="#60003f"/><stop offset="1" stop-color="#050003"/></linearGradient><linearGradient x1="387.34372" y1="297.88602" x2="389.15926" y2="323.06928" gradientUnits="userSpaceOnUse" id="color-22"><stop offset="0" stop-color="#93005f"/><stop offset="1" stop-color="#47002e"/></linearGradient><linearGradient x1="375.45243" y1="304.80803" x2="377.26798" y2="329.99129" gradientUnits="userSpaceOnUse" id="color-23"><stop offset="0" stop-color="#60003f"/><stop offset="1" stop-color="#050003"/></linearGradient><linearGradient x1="375.45243" y1="304.80803" x2="377.26798" y2="329.99129" gradientUnits="userSpaceOnUse" id="color-24"><stop offset="0" stop-color="#93005f"/><stop offset="1" stop-color="#47002e"/></linearGradient><linearGradient x1="365.70502" y1="313.23948" x2="367.52056" y2="338.42274" gradientUnits="userSpaceOnUse" id="color-25"><stop offset="0" stop-color="#60003f"/><stop offset="1" stop-color="#050003"/></linearGradient><linearGradient x1="365.70502" y1="313.23948" x2="367.52056" y2="338.42274" gradientUnits="userSpaceOnUse" id="color-26"><stop offset="0" stop-color="#93005f"/><stop offset="1" stop-color="#47002e"/></linearGradient></defs><g transform="translate(-68.39472,-17.39888)"><g data-paper-data="{&quot;isPaintingLayer&quot;:true}" fill-rule="nonzero" stroke-linejoin="miter" stroke-miterlimit="10" stroke-dasharray="" stroke-dashoffset="0" style="mix-blend-mode: normal"><g stroke-linecap="round"><path d="M360.79985,52.00872c0,0 -0.61925,0.07394 0.57423,-1.69697c0.15817,-0.23468 0.98247,-0.64979 1.15814,-1.43336c0.20941,-0.93409 0.24419,-1.77699 0.39182,-2.02606c0.25367,-0.42798 0.3305,1.64272 0.45157,1.34235c0.6355,-1.57675 -0.11028,-3.76189 -0.11028,-3.76189c0,0 1.45163,1.41428 1.77247,2.14562c0.25445,0.58003 -0.00004,1.89465 -0.00004,1.89465c0,0 2.04418,-1.28076 3.0037,-1.83462c0.8022,-0.46304 2.2397,-2.7252 2.2397,-2.7252l-1.475,5.41069" data-paper-data="{&quot;index&quot;:null}" fill="url(#color-1)" stroke="#000000" stroke-width="0"/><path d="M355.35328,66.89346l4.64286,-13.75c0,0 1.12015,-2.67364 2.36794,-3.40268c0.96642,-0.56465 1.96689,-0.84768 2.87872,-0.97207c1.91299,-0.26096 3.43588,0.17633 3.43588,0.17633l5.99206,2.95635l9.40298,-1.998c0,0 -0.91884,0.53365 0.07037,1.47751c0.16508,0.15751 2.44588,0.34844 3.21063,4.77532c0.52721,3.05182 -0.65082,8.29286 -0.65082,8.29286l-1.00141,-2.86912c0,0 -1.4064,3.63249 -5.64901,5.26464c-3.83963,1.47712 -5.59306,-0.12972 -5.59306,-0.12972l-7.67858,-4.82143l0.53572,6.96429z" fill="url(#color-2)" stroke="url(#color-3)" stroke-width="0.5"/><path d="M341.99354,67.85809l-0.15837,-8.93431c0,0 -0.2421,-5.03758 -1.34254,-7.56268c-1.17452,-6.77163 -6.99146,-7.43355 -9.25272,-11.6022c-1.42776,-2.63208 -2.41399,-0.84168 -2.41399,-0.84168l0.84334,-7.90971c0,0 1.60165,-5.71447 4.94765,-7.25923c3.95174,-1.82441 -2.19227,-2.79231 -2.19227,-2.79231c0,0 4.99105,-3.63225 7.99719,-3.2835c2.96925,0.34446 9.39173,1.77249 9.39173,1.77249c0,0 5.42077,-0.20778 7.78621,-0.45729c3.70863,-0.39119 13.38702,2.28746 13.38702,2.28746c0,0 -6.21246,0.88594 -4.52582,1.97103c0.69434,0.44671 9.08623,9.30218 9.08623,9.30218l-4.6039,-2.31526c0,0 3.04226,3.87294 -2.28897,10.33922c-2.66616,3.2338 -7.86289,2.37757 -11.81927,9.4055c-1.53384,2.57765 -1.54372,6.55885 -1.54372,6.55885l1.36188,11.19008z" fill="url(#color-4)" stroke="url(#color-5)" stroke-width="0.5"/></g><path d="M327.80003,73.20811c0,0 -1.44224,-1.80833 -2.34928,-2.38859c-0.97529,-0.62392 -3.31263,-1.23347 -3.31263,-1.23347l3.99185,-0.65566c0,0 -0.55795,-1.34878 -1.16749,-1.80677c-0.77592,-0.58301 -3.11053,-1.40762 -3.11053,-1.40762c0,0 2.85652,-0.20146 4.07097,-0.03542c1.00768,0.13777 2.71186,0.96276 2.71186,0.96276c0,0 -1.12727,-1.62556 -1.27281,-2.39714c-0.20184,-1.07011 0.17445,-3.42611 0.17445,-3.42611c0,0 0.83733,2.53141 1.88681,3.62763c1.13433,1.18485 4.68444,3.2363 4.68444,3.2363" fill="#b30084" stroke="#b40084" stroke-width="0.5" stroke-linecap="round"/><path d="M328.24236,88.76551c0,0 -2.30706,-0.1661 -3.34859,0.10713c-1.11989,0.29379 -3.15276,1.59844 -3.15276,1.59844l2.2248,-3.37861c0,0 -1.36968,-0.50446 -2.11961,-0.36699c-0.95464,0.175 -3.14374,1.33181 -3.14374,1.33181c0,0 1.78882,-2.23616 2.73433,-3.0162c0.78453,-0.64724 2.54644,-1.34043 2.54644,-1.34043c0,0 -1.95916,-0.27367 -2.62496,-0.68988c-0.9234,-0.57725 -2.39992,-2.45133 -2.39992,-2.45133c0,0 2.42836,1.101 3.94571,1.07293c1.64002,-0.03034 5.55503,-1.24868 5.55503,-1.24868" fill="url(#color-6)" stroke="#b40084" stroke-width="0" stroke-linecap="round"/><g stroke-width="0" stroke-linecap="round"><path d="M379.32041,287.917c0,0 10.87339,5.13567 14.91415,9.12792c4.24593,4.19495 9.97639,15.46384 9.97639,15.46384c0,0 -8.52808,-4.54334 -13.71181,-5.79293c-5.3842,-1.2979 -18.01483,-1.85499 -18.01483,-1.85499c0,0 -9.71519,-3.77839 -6.22682,-13.34599c2.6952,-7.39218 13.06292,-3.59785 13.06292,-3.59785z" data-paper-data="{&quot;index&quot;:null}" fill="url(#color-7)" stroke="url(#color-8)"/><path d="M323.97803,165.55058c0,0 13.32241,-18.37346 29.27985,-1.21473c3.04123,3.27018 6.74608,23.32843 6.74608,23.32843l12.86284,35.42294c0,0 2.07838,6.72743 2.2555,9.89902c0.15521,2.77914 -1.24983,8.10915 -1.24983,8.10915l-5.20643,-5.26193c0,0 0.17183,7.33753 -0.9098,11.20402c-1.01513,3.6288 -5.39317,11.32714 -5.39317,11.32714l0.79294,-9.74123c0,0 -2.8363,5.02705 -4.87483,7.45063c-2.35331,2.7978 -8.4368,8.37528 -8.4368,8.37528l-0.45301,20.15913c0,0 13.8937,-0.91317 19.59078,1.49432c9.1268,3.85681 15.71454,12.1568 15.71454,12.1568l-24.79352,18.38405l-20.8125,-2.37125l-22.20954,-5.7682l5.09969,-2.08741l-5.03884,-3.5099l4.66906,-2.64231l-8.12702,-0.18162c0,0 6.62831,-21.53574 6.75034,-29.00141c0.1187,-7.26315 2.11246,-25.21362 2.11246,-25.21362c0,0 2.83035,-4.99616 4.81246,-7.29768c1.9122,-2.22036 6.87806,-6.27673 6.87806,-6.27673l-14.49184,-39.18512l5.03026,-23.41391" fill="url(#color-9)" stroke="#000000"/><path d="M385.18998,290.5257c0,0 10.87339,5.13567 14.91415,9.12792c4.24593,4.19495 9.97639,15.46384 9.97639,15.46384c0,0 -8.52808,-4.54334 -13.71181,-5.79293c-5.3842,-1.2979 -18.01483,-1.85499 -18.01483,-1.85499c0,0 -9.7152,-3.77839 -6.22683,-13.34598c2.6952,-7.39218 13.06292,-3.59785 13.06292,-3.59785z" data-paper-data="{&quot;index&quot;:null}" fill="url(#color-10)" stroke="url(#color-11)"/></g><path d="M352.81916,181.46239c20.35822,26.88423 -11.37331,58.28067 -11.37331,58.28067c0,0 -73.72806,61.22249 -115.34712,65.1351c-61.20226,5.75364 -78.53783,-26.24531 -117.75628,-102.31051c-13.78425,-26.73491 -38.42296,-43.49504 -38.42296,-43.49504c0,0 43.943,13.63408 67.46062,30.84226c30.76519,22.51132 44.74073,61.48015 79.65285,59.32557c44.49232,-2.74581 89.46396,-71.8227 89.46396,-71.8227c0,0 28.22165,-19.85823 46.32223,4.04464z" fill="url(#color-12)" stroke="url(#color-13)" stroke-width="0.5" stroke-linecap="round"/><path d="M357.92212,103.56397c0,0 -3.32511,2.89519 -6.07449,5.44833c-0.35381,0.32855 -0.27235,1.98376 -0.50493,3.58772c-0.21266,1.46657 -0.75499,2.90708 -0.75499,2.90708c0,0 -0.25293,-1.5729 -0.68741,-2.64869c-0.30783,-0.76222 -0.80874,-1.17294 -0.92228,-1.05098c-1.8172,1.9518 -3.49962,5.12203 -3.49962,5.12203l6.87138,1.88616c0,0 -3.20129,-0.07609 -2.55877,0.262c4.13846,2.17765 23.55658,9.80505 23.55658,9.80505c0,0 4.62347,3.31312 6.94381,4.39884c2.01802,0.94426 6.1983,1.75054 6.1983,1.75054c0,0 -1.66357,2.40642 -4.00332,3.33597c-2.71507,1.07866 -6.15399,0.72863 -6.01348,1.16359c0.46903,1.45192 8.25617,1.90715 8.25617,1.90715c0,0 -0.88088,3.42193 -5.13748,3.55074c-3.69406,0.11179 -5.76439,1.42026 -5.76439,1.42026c0,0 -4.25051,11.58679 -5.76314,19.87339c-1.01241,5.54623 -1.20533,17.2897 -1.83707,25.25764c-0.56749,7.15757 -2.31347,10.65121 -2.31347,10.65121c0,0 -0.96819,11.03994 -13.46782,17.63587c-6.50701,3.43368 -23.86334,1.72103 -23.86334,1.72103c0,0 -13.30282,-4.95887 -17.45329,-9.66958c-8.34437,-9.47069 -7.43415,-21.67016 -7.43415,-21.67016l6.45229,-26.73095l-3.6018,-24.43435l-8.37172,-3.40808c0,0 0.83658,1.51321 1.02746,2.23463c0.17922,0.67737 0.08503,1.97008 0.08503,1.97008c0,0 -0.43077,-0.86002 -1.02566,-1.3547c-0.49853,-0.41456 -1.17726,-0.50763 -1.18627,-0.25096c-0.13133,3.73789 -0.72315,5.82914 -0.72315,5.82914c0,0 -1.35639,-2.58207 -2.98103,-5.01118c-0.53832,-0.80489 -0.24603,3.18792 -0.24603,3.18792c0,0 -2.17685,-6.31843 -2.53657,-6.63748c-1.3584,-1.20483 -3.68067,-3.92659 -6.31099,-5.50641c-3.84737,-2.3108 -8.01719,-3.35669 -8.01719,-3.35669c0,0 1.93963,-1.87293 4.62713,-4.44976c0.82436,-0.79041 -4.89093,0.69555 -4.89093,0.69555c0,0 2.70333,-0.90001 5.70538,-2.65359c2.2486,-1.31347 4.90123,-3.49989 5.4175,-3.98988c2.49007,-2.3633 4.93432,-4.6631 6.74531,-6.32318c0.22926,-0.21016 -1.0484,0.06412 -2.68525,0.60701c-1.91229,0.63424 -4.24931,1.57201 -4.24931,1.57201c0,0 2.36624,-1.90717 5.15262,-3.5409c2.80864,-1.64678 6.0384,-3.0215 6.24251,-3.34453c1.68407,-2.66538 1.55502,-4.58195 3.79568,-6.54047c3.46886,-3.03208 7.49308,-2.3671 7.49308,-2.3671c0,0 1.93981,-0.60813 3.75467,-1.29254c1.30923,-0.49372 2.88421,-2.54051 5.5386,-3.74649c3.80412,-1.72834 9.86248,-1.4627 9.86248,-1.4627z" fill="url(#color-14)" stroke="url(#color-15)" stroke-width="0" stroke-linecap="round"/><path d="M327.83674,69.43545c0,0 6.55767,-3.9785 24.44544,-4.34118c10.94161,-0.22184 19.56088,4.0473 19.56088,4.0473c0,0 2.79211,11.04045 4.17067,15.05269c1.35563,3.94549 4.03306,8.82386 4.03306,8.82386l-9.1588,11.85257c0,0 -12.1083,2.07079 -18.68343,1.85273c-13.69005,-0.45401 -23.3393,-3.46899 -23.3393,-3.46899c0,0 -2.82434,-10.55079 -3.23251,-15.62383c-1.07751,-13.39154 2.20399,-18.19516 2.20399,-18.19516z" fill="url(#color-16)" stroke="#000000" stroke-width="0" stroke-linecap="round"/><path d="M373.68143,83.60693c0,6.85201 -5.50857,12.40668 -12.30371,12.40668c-6.79515,0 -12.3037,-5.55466 -12.3037,-12.40668c0,-6.85201 5.50856,-12.40666 12.3037,-12.40666c6.79515,0 12.30371,5.55466 12.30371,12.40666z" fill="url(#color-17)" stroke="none" stroke-width="0" stroke-linecap="butt"/><path d="M367.40226,82.80745c0,4.90648 -3.26627,8.88397 -7.29545,8.88397c-4.02918,0 -7.29545,-3.97747 -7.29545,-8.88397c0,-4.90648 3.26627,-8.88397 7.29545,-8.88397c4.02918,0 7.29545,3.97747 7.29545,8.88397z" fill="#000000" stroke="none" stroke-width="0" stroke-linecap="butt"/><path d="M360.48162,87.47932l-11.53152,-4.05738l11.21118,-4.59125l9.82314,3.95061z" fill="#000000" stroke="#000000" stroke-width="0.5" stroke-linecap="round"/><path d="M365.31641,82.83184c0,3.2929 -2.34674,5.96231 -5.2416,5.96231c-2.89485,0 -5.24159,-2.66942 -5.24159,-5.96231c0,-3.2929 2.34673,-5.9623 5.24159,-5.9623c2.89485,0 5.2416,2.6694 5.2416,5.9623z" fill="#ff00bb" stroke="none" stroke-width="NaN" stroke-linecap="butt"/><path d="M364.80411,82.49285c0,4.31862 -1.52213,7.81955 -1.52213,7.81955c0,0 0.74939,-3.60122 0.74939,-7.91985c0,-4.31862 -0.74939,-7.71926 -0.74939,-7.71926c0,0 1.52213,3.50093 1.52213,7.81956z" fill="#000000" stroke="none" stroke-width="NaN" stroke-linecap="butt"/><path d="M376.24765,97.74795l-2.90625,-6.9437l3.98133,2.32134l2.28656,0.05887z" fill="#000000" stroke="#000000" stroke-width="0.5" stroke-linecap="round"/><path d="M360.23894,53.05464l-4.77273,12.95455" fill="none" stroke="none" stroke-width="0.5" stroke-linecap="round"/><path d="M346.64717,69.25194c0,0 -1.08208,-2.04431 -1.86586,-2.78264c-0.84275,-0.79388 -3.02661,-1.82608 -3.02661,-1.82608l4.04421,0.09558c0,0 -0.29829,-1.42882 -0.81238,-1.99185c-0.65442,-0.71672 -2.79574,-1.95976 -2.79574,-1.95976c0,0 2.84437,0.33148 4.007,0.71974c0.96469,0.32215 2.48643,1.44871 2.48643,1.44871c0,0 -0.80645,-1.80633 -0.80645,-2.59152c0,-1.08898 0.80645,-3.33441 0.80645,-3.33441c0,0 0.35363,2.64274 1.18175,3.91449c0.89507,1.37457 4.00343,4.04847 4.00343,4.04847" fill="#b40084" stroke="#b40084" stroke-width="0.5" stroke-linecap="round"/><g fill="#000000" stroke="none" stroke-width="0.5" stroke-linecap="butt"><path d="M363.14244,92.75516c0,-0.20823 0.16881,-0.37705 0.37705,-0.37705c0.20823,0 0.37705,0.16882 0.37705,0.37705c0,0.20823 -0.16882,0.37705 -0.37705,0.37705c-0.20823,0 -0.37705,-0.16882 -0.37705,-0.37705z"/><path d="M365.46273,94.93045c0,-0.20823 0.16881,-0.37704 0.37705,-0.37704c0.20823,0 0.37705,0.16881 0.37705,0.37704c0,0.20823 -0.16881,0.37705 -0.37705,0.37705c-0.20824,0 -0.37705,-0.16882 -0.37705,-0.37705z"/><path d="M368.65315,93.04521c0,-0.20823 0.16882,-0.37704 0.37705,-0.37704c0.20823,0 0.37705,0.16881 0.37705,0.37704c0,0.20823 -0.16882,0.37705 -0.37705,0.37705c-0.20823,0 -0.37705,-0.16882 -0.37705,-0.37705z"/></g><path d="M343.74914,84.58943c0,0 -0.83765,1.61 -2.93401,2.25119c-1.48735,0.45492 -5.38791,-0.5868 -5.38791,-0.5868c0,0 2.92378,-1.0766 3.7852,-1.91536c0.8942,-0.87067 1.48535,-3.2165 1.48535,-3.2165c0,0 -1.84717,1.14445 -2.9221,1.16473c-1.32338,0.02497 -4.42893,-1.02603 -4.42893,-1.02603c0,0 3.02551,-0.36517 4.29539,-1.35285c1.22508,-0.95284 3.19434,-4.4725 3.19434,-4.4725" fill="url(#color-18)" stroke="#000000" stroke-width="0" stroke-linecap="round"/><path d="M348.62582,95.57254c0,0 -0.4306,1.76305 -2.31425,2.88453c-1.33643,0.79568 -5.37284,0.71176 -5.37284,0.71176c0,0 2.58374,-1.74122 3.2209,-2.76082c0.66141,-1.0584 0.67755,-3.47751 0.67755,-3.47751c0,0 -1.52189,1.55101 -2.56114,1.82642c-1.27945,0.33907 -4.54587,0.05702 -4.54587,0.05702c0,0 2.85179,-1.0744 3.85026,-2.33582c0.96324,-1.21693 2.03869,-5.104 2.03869,-5.104" fill="url(#color-19)" stroke="#000000" stroke-width="0" stroke-linecap="round"/><path d="M306.25084,171.74389c0,0 13.92936,-19.21053 30.61379,-1.27007c3.17978,3.41916 7.05342,24.39124 7.05342,24.39124l13.44885,37.03675c0,0 2.17307,7.03392 2.35826,10.35c0.16228,2.90575 -1.30677,8.47859 -1.30677,8.47859l-5.44363,-5.50165c0,0 0.17966,7.67182 -0.95125,11.71446c-1.06138,3.79412 -5.63887,11.84319 -5.63887,11.84319l0.82906,-10.18503c0,0 -2.96552,5.25607 -5.09692,7.79007c-2.46052,2.92526 -8.82117,8.75684 -8.82117,8.75684l-0.47365,21.07755c0,0 14.52668,-0.95477 20.48331,1.5624c9.5426,4.03252 16.43047,12.71064 16.43047,12.71064l-25.92307,19.2216l-21.76068,-2.47928l-23.22137,-6.03099l5.33202,-2.18251l-5.2684,-3.66981l4.88178,-2.76269l-8.49727,-0.18989c0,0 6.93029,-22.51687 7.05787,-30.32267c0.12411,-7.59405 2.2087,-26.36231 2.2087,-26.36231c0,0 2.9593,-5.22378 5.03171,-7.63015c1.99932,-2.32152 7.19141,-6.56269 7.19141,-6.56269c0,0 -11.10753,-31.47235 -13.583,-39.41012c-1.1944,-3.82991 -0.48211,-5.69064 -0.48211,-5.69064l2.21595,-22.52409" fill="url(#color-20)" stroke="#000000" stroke-width="0" stroke-linecap="round"/><path d="M375.55795,298.73569c0,0 13.11752,6.19561 17.99225,11.01181c5.12223,5.06074 12.03539,18.65539 12.03539,18.65539c0,0 -10.28817,-5.48103 -16.54176,-6.98852c-6.49543,-1.56577 -21.73287,-2.23784 -21.73287,-2.23784c0,0 -11.7203,-4.5582 -7.51197,-16.10044c3.25146,-8.91783 15.75895,-4.3404 15.75895,-4.3404z" data-paper-data="{&quot;index&quot;:null}" fill="url(#color-21)" stroke="url(#color-22)" stroke-width="0" stroke-linecap="round"/><path d="M363.66667,305.65772c0,0 13.11752,6.19561 17.99225,11.01181c5.12224,5.06074 12.03539,18.65539 12.03539,18.65539c0,0 -10.28817,-5.48103 -16.54176,-6.98852c-6.49543,-1.56577 -21.73287,-2.23784 -21.73287,-2.23784c0,0 -11.72029,-4.5582 -7.51196,-16.10044c3.25146,-8.91783 15.75895,-4.3404 15.75895,-4.3404z" data-paper-data="{&quot;index&quot;:null}" fill="url(#color-23)" stroke="url(#color-24)" stroke-width="0" stroke-linecap="round"/><path d="M353.91925,314.08915c0,0 13.11752,6.19561 17.99225,11.01181c5.12224,5.06074 12.03539,18.65539 12.03539,18.65539c0,0 -10.28817,-5.48103 -16.54175,-6.98852c-6.49543,-1.56577 -21.73287,-2.23784 -21.73287,-2.23784c0,0 -11.72029,-4.5582 -7.51196,-16.10044c3.25146,-8.91783 15.75895,-4.3404 15.75895,-4.3404z" data-paper-data="{&quot;index&quot;:null}" fill="url(#color-25)" stroke="url(#color-26)" stroke-width="0" stroke-linecap="round"/><path d="M366.09705,82.89482c0,4.48493 -4.21105,8.12068 -4.21105,8.12068c0,0 -4.21105,-3.63574 -4.21105,-8.12068c0,-4.48493 4.21105,-8.12068 4.21105,-8.12068c0,0 4.21105,3.63575 4.21105,8.12068z" fill="#000000" stroke="none" stroke-width="NaN" stroke-linecap="butt"/></g></g></svg>