<svg version="1.1" xmlns="http://www.w3.org/2000/svg" xmlns:xlink="http://www.w3.org/1999/xlink" width="175.85991" height="237.94066" viewBox="0,0,175.85991,237.94066"><defs><linearGradient x1="199.49608" y1="103.94437" x2="199.49608" y2="127.76079" gradientUnits="userSpaceOnUse" id="color-1"><stop offset="0" stop-color="#000000"/><stop offset="1" stop-color="#30004d"/></linearGradient><linearGradient x1="237.43826" y1="101.25887" x2="237.43826" y2="125.07528" gradientUnits="userSpaceOnUse" id="color-2"><stop offset="0" stop-color="#008682"/><stop offset="1" stop-color="#4fe3de"/></linearGradient></defs><g transform="translate(-146.85981,-60.60462)"><g data-paper-data="{&quot;isPaintingLayer&quot;:true}" fill-rule="nonzero" stroke-linejoin="miter" stroke-miterlimit="10" stroke-dasharray="" stroke-dashoffset="0" style="mix-blend-mode: normal"><path d="M290.27047,230.77487c0,0 11.14059,4.01454 7.62842,8.75977c-6.0455,8.16792 -19.72916,17.50522 -49.43406,7.8371c-14.07374,-4.58063 -24.15144,-13.06318 -31.26846,-21.50116c-6.80404,-8.06696 -12.08105,-18.83921 -14.6003,-26.94871c-1.76186,-5.67153 -2.56777,-10.70898 -2.88692,-14.79051c-0.53198,-6.80328 3.22095,-6.50938 4.79943,-4.11882c1.74383,2.64098 5.50553,8.33789 5.50553,8.33789c0,0 -1.04506,-32.18864 28.11214,-45.56419c42.37,-19.43681 81.66974,3.00832 81.66974,3.00832c0,0 6.1465,24.10476 -3.53405,50.67525c-9.68056,26.57048 -25.99155,34.3051 -25.99155,34.3051z" data-paper-data="{&quot;index&quot;:null}" fill="#f4e2ff" stroke="#000000" stroke-width="2" stroke-linecap="round"/><g data-paper-data="{&quot;index&quot;:null}" stroke-linecap="butt"><path d="M185.80216,274.88259c-17.39605,-2.35206 -29.53709,-18.76399 -27.11781,-36.65701c1.25286,-9.26649 34.55652,-113.11262 34.55652,-113.11262l36.59082,-1.16288c0,0 -6.753,112.45542 -8.15078,122.79306c-2.41924,17.89307 -18.48269,30.4915 -35.87869,28.13952z" fill="#4fe3de" stroke="none" stroke-width="0"/><path d="M221.58386,246.92515c-2.41924,17.89307 -18.48268,30.4915 -35.87875,28.13952c-17.39599,-2.35199 -29.53709,-18.76398 -27.1178,-36.657c0.17712,-1.31014 0.50986,-2.98351 0.9812,-4.95897c0.22827,0.1771 0.46309,0.34588 0.70596,0.50457c1.13215,0.7396 14.43797,8.27665 29.42899,10.93401c14.68486,2.60305 31.06143,0.33632 32.10421,0.19872c-0.07492,0.6771 -0.1497,1.29175 -0.22381,1.83933z" fill="#359794" stroke="none" stroke-width="0"/><path d="M219.12576,234.84953c-2.1472,15.88086 -13.72052,27.42537 -25.84976,25.78546c-12.12928,-1.63995 -20.22131,-15.84337 -18.07412,-31.72422c1.07198,-7.92863 26.14819,-103.95149 26.14819,-103.95149l27.5913,-0.91812c0,0 -8.6366,102.08874 -9.8155,110.8084z" fill="#a6fff3" stroke="none" stroke-width="0"/><path d="M185.97661,275.53667c-17.39605,-2.35206 -29.53709,-18.76398 -27.11781,-36.657c1.25286,-9.26649 34.55652,-113.11262 34.55652,-113.11262l36.59082,-1.16288c0,0 -6.753,112.45542 -8.15078,122.79306c-2.41924,17.89307 -18.48269,30.4915 -35.87869,28.13952z" fill="none" stroke="#000000" stroke-width="2"/></g><g data-paper-data="{&quot;index&quot;:null}" stroke-linecap="butt"><path d="M270.38817,278.08159c-17.18066,3.60246 -34.11221,-7.80271 -37.81764,-25.47428c-2.14088,-10.20966 -15.09717,-122.32786 -15.09717,-122.32786l36.57922,-1.48333c0,0 38.8157,101.61349 40.73465,110.76527c3.70546,17.67152 -7.21832,34.91757 -24.39902,38.52012z" fill="#c659ff" stroke="none" stroke-width="0"/><path d="M232.68046,252.78202c-0.11346,-0.5408 -0.23244,-1.14844 -0.35609,-1.81836c1.05,0.06191 17.54753,1.13974 32.00599,-2.51728c14.75989,-3.73331 27.48651,-12.21181 28.56228,-13.03128c0.23077,-0.17582 0.45279,-0.36111 0.66767,-0.55425c0.61281,1.93626 1.06556,3.58121 1.33685,4.87513c3.70548,17.67152 -7.21836,34.91766 -24.39901,38.52012c-17.18072,3.60247 -34.11227,-7.80271 -37.8177,-25.47427z" fill="#6b0096" stroke="none" stroke-width="0"/><path d="M234.25975,240.56026c-1.8057,-8.61173 -15.89182,-110.25426 -15.89182,-110.25426l27.58554,-1.07736c0,0 30.0446,94.40496 31.68653,102.23545c3.28875,15.68427 -3.75614,30.43511 -15.73527,32.94694c-11.97909,2.51179 -24.35612,-8.16655 -27.64487,-23.85081z" fill="#e5a6ff" stroke="none" stroke-width="0"/><path d="M270.26139,278.74654c-17.18066,3.60246 -34.11221,-7.8027 -37.81764,-25.47427c-2.14088,-10.20966 -15.09717,-122.32786 -15.09717,-122.32786l36.57923,-1.48333c0,0 38.8157,101.61348 40.73465,110.76526c3.70546,17.67152 -7.21832,34.91757 -24.39902,38.52012z" fill="none" stroke="#000000" stroke-width="2"/></g><g stroke-width="2"><g fill="#c659ff" stroke="#000000" stroke-linecap="butt"><path d="M206.99259,198.72172c-1.87331,0.79215 -4.37401,0.92527 -6.23392,0.57073c-2.58362,-0.49251 -5.17911,-1.50983 -6.68376,-3.73042c-1.49989,-2.21353 -2.03,-4.70215 -1.61655,-6.154c1.76758,-6.20691 6.67453,-25.52966 6.67453,-25.52966c0,0 -1.72865,-0.86278 -2.36117,-1.46227c-0.72329,-0.68553 -2.03415,-2.75419 -2.03415,-2.75419c0,0 2.72665,-1.20612 3.66484,-2.02254c0.6251,-0.54396 1.7082,-2.07298 1.7082,-2.07298c0,0 -2.05246,-0.34798 -3.49092,-1.18133c-1.88024,-1.08928 -3.30709,-2.86047 -3.76182,-4.27511c-0.44281,-1.37756 -0.549,-3.13375 0.15295,-5.36504c0.37118,-1.17988 1.22218,-2.87011 2.31505,-4.4273c0.83983,-1.19665 2.02199,-2.46128 2.02199,-2.46128c0,0 1.9409,2.1071 4.97307,3.60028c1.1319,0.55741 3.08582,1.00238 4.17973,1.25911c4.54676,1.06706 15.92112,3.75647 15.92112,3.75647l-7.67479,44.17103c0,0 -4.21534,6.58199 -7.75441,8.0785z"/><path d="M218.21191,170.98995c0,0 -3.54489,21.99169 -5.0386,30.92185c-1.30136,7.78018 -3.42646,19.68627 -3.42646,19.68627l-25.18998,-6.121c0,0 3.84464,-14.13286 6.06722,-21.89904c2.16126,-7.55194 7.08944,-24.07331 7.08944,-24.07331"/></g><g fill="#c659ff" stroke="#000000"><path d="M208.49931,219.43977c2.01847,3.22639 2.79332,7.15162 1.85315,11.04556c-1.91633,7.93696 -10.23224,12.73837 -18.57412,10.72426c-8.34189,-2.01411 -13.55083,-10.081 -11.6345,-18.01795c0.93002,-3.8519 3.3673,-6.96528 6.58334,-8.91953" stroke-linecap="butt"/><path d="M186.95434,228.71086l-5.30632,5.10191" stroke-linecap="round"/><path d="M200.77211,232.45404l1.23303,7.88595" stroke-linecap="round"/></g><g stroke-linecap="butt"><g fill="#fff7ff" stroke="none"><path d="M215.61689,188.26076c-0.33132,2.06325 -2.83243,4.65878 -6.43499,5.66986c-1.90694,0.5352 -4.48527,0.44968 -6.41903,-0.00646c-2.68616,-0.63364 -5.40323,-1.72244 -7.03622,-3.76501c-1.6278,-2.03611 -2.17641,-5.02506 -1.80085,-6.24838c2.3467,-7.64368 4.68423,-20.09635 4.68423,-20.09635l20.58426,3.10642c0,0 -2.72435,16.02782 -3.57743,21.33994z"/><path d="M216.93754,180.26382c0,0 -2.96792,19.47972 -4.19409,27.08847c-1.06824,6.62893 -2.84101,16.76253 -2.84101,16.76253l-26.23675,-7.31943c0,0 3.46998,-11.92274 5.49027,-18.46563c1.96456,-6.36237 6.46904,-20.26527 6.46904,-20.26527"/></g><path d="M218.41636,173.3239l-2.35774,10.42157c0,0 -1.55089,-1.69527 -3.98737,-3.17923c-1.86711,-1.13718 -4.51859,-2.07859 -5.79802,-2.46978c-0.88525,-0.27067 -3.95865,-1.08477 -5.89152,-1.27229c-3.0125,-0.29227 -4.99412,0.11183 -4.99412,0.11183l2.93083,-9.73063c0,0 1.5028,-0.46527 4.32007,-0.28c2.27121,0.14936 5.74537,0.887 7.28835,1.35674c1.24067,0.3777 3.02664,1.22863 4.45454,2.11058c2.28546,1.41164 4.03496,2.9312 4.03496,2.9312z" fill="#df82ff" stroke="none"/><path d="M185.40161,211.3171l3.05216,-10.24195c0,0 2.85016,-0.7085 6.88304,-0.46225c2.52689,0.1543 6.17442,1.01468 7.83978,1.63124c1.5871,0.58758 4.00624,1.85818 5.70769,3.0883c2.32874,1.68363 3.73949,3.32322 3.73949,3.32322l-1.89778,11.43222c0,0 -1.78318,-2.32527 -4.6711,-4.37083c-1.76578,-1.25074 -4.39918,-2.34762 -5.96113,-2.88858c-1.80337,-0.62458 -5.00988,-1.41529 -7.73056,-1.63034c-3.79007,-0.29958 -6.96161,0.11895 -6.96161,0.11895z" fill="#df82ff" stroke="none"/><path d="M213.84133,201.33086c0,0 -5.59802,-5.27375 -9.2122,-6.58884c-1.59707,-0.58112 -5.1228,-1.43807 -7.56153,-1.68948c-3.55276,-0.36626 -5.91621,0.02213 -5.91621,0.02213l2.50365,-9.6572c0,0 7.04656,-0.85882 12.19661,1.05537c5.17667,1.92408 8.91784,6.05806 9.51586,6.18952z" fill="#df82ff" stroke="none"/><g fill="none" stroke="#000000"><path d="M193.59223,183.45925l5.68128,-20.22421l20.09547,3.25347c0,0 -2.08284,10.89019 -3.73719,21.19176"/><path d="M216.86611,180.41469c0,0 -2.88156,18.74827 -4.10772,26.35703c-1.06824,6.62893 -2.84101,16.76253 -2.84101,16.76253l-26.23673,-7.31941l11.59764,-38.72545"/></g></g></g><path d="M199.44432,214.57623c0,0 -0.07173,-8.92483 0.53943,-13.31585c0.54349,-3.90482 3.19866,-11.65286 3.19866,-11.65286c0,0 -0.9139,-14.76339 -0.85469,-22.19464c0.05901,-7.40714 3.14958,-22.41111 3.14958,-22.41111c0,0 37.24289,0.19456 37.24312,0.73648c0.00141,3.36532 3.60081,15.94918 3.53772,22.46321c-0.07511,7.75715 -0.94803,21.89962 -0.94803,21.89962c0,0 2.95287,7.17686 3.67454,10.81347c0.8369,4.21724 1.61587,13.66173 1.61587,13.66173l-25.94827,9.06151z" fill="#c659ff" stroke="#000000" stroke-width="2" stroke-linecap="butt"/><g fill="#c659ff" stroke="#000000" stroke-width="2"><path d="M224.99645,222.07471c0,0 -0.16024,31.05441 -0.14148,35.28059c0.00295,0.66583 -0.5449,2.23458 -2.2177,3.68062c-0.64127,0.55435 -2.38376,1.27922 -5.94199,1.6248c-2.89169,0.28084 -7.60178,0.24808 -8.90924,0.17776c-4.84678,-0.26065 -7.94548,-2.20457 -7.94548,-2.20457l-0.41077,-46.92756" data-paper-data="{&quot;index&quot;:null}" stroke-linecap="butt"/><path d="M224.92731,239.17479c0,0 -0.12905,15.30189 -0.09235,22.88148c0.04069,8.40519 0.20041,25.91211 0.20041,25.91211l-14.84442,-2.48559l-10.23492,-8.0476l-0.17967,-36.82251" data-paper-data="{&quot;index&quot;:null}" stroke-linecap="butt"/><g><path d="M224.82418,282.82649c0,0 0.01954,6.03791 0.01954,6.2738c0,7.74505 -7.07922,8.38736 -15.81188,8.38736c-8.73266,0 -15.81186,-0.64231 -15.81186,-8.38736c0,-3.79922 1.70344,-7.24558 4.46989,-9.77107c0.43375,-0.39597 2.93281,-2.12713 2.93281,-2.12713" data-paper-data="{&quot;index&quot;:null}" stroke-linecap="butt"/><path d="M199.47985,296.15617l1.25259,-12.71454" stroke-linecap="round"/><path d="M207.96959,283.16526l-1.11341,13.82015" stroke-linecap="round"/></g></g><g stroke-linecap="butt"><g fill="#fff7ff" stroke="none" stroke-width="2"><path d="M224.91384,222.78934c0,0 -0.30412,35.3472 -0.28602,38.811c0.00285,0.54571 -0.52561,1.83147 -2.13918,3.01666c-0.61857,0.45434 -2.29936,1.04846 -5.73163,1.33168c-2.78931,0.23019 -7.33263,0.20334 -8.59381,0.1457c-4.67516,-0.21364 -7.66418,-1.80688 -7.66418,-1.80688c0,0 -0.73226,-8.7019 -0.7123,-12.69774c0.05049,-10.10925 -0.28237,-36.39351 -0.28237,-36.39351" data-paper-data="{&quot;index&quot;:null}"/><path d="M224.82227,255.7241c0,0 -0.12448,9.74868 -0.08907,14.57756c0.03925,5.35486 0.42587,14.03725 0.42587,14.03725c0,0 -0.80866,0.45416 -2.61371,-1.58845c-1.34232,-1.51898 -3.70911,-3.07358 -5.19114,-3.70972c-1.2194,-0.52342 -3.73278,-1.06551 -5.70677,-1.36782c-5.03443,-0.771 -11.90559,-0.54057 -11.90559,-0.54057l0.39905,-20.43473" data-paper-data="{&quot;index&quot;:null}"/></g><path d="M199.84975,276.46146v-12.19114c0,0 1.65542,-1.36978 5.4097,-2.28656c1.12059,-0.27365 4.17282,-0.74343 7.68627,-0.65996c2.90633,0.06905 6.33807,0.63419 7.38178,0.95375c2.72502,0.83435 4.28991,1.99277 4.28991,1.99277v12.19114c0,0 -1.34127,-0.63911 -3.24237,-1.27548c-2.14095,-0.71666 -4.9226,-1.44365 -5.97387,-1.51424c-3.68762,-0.24764 -8.49671,0.33976 -9.15497,0.47686c-3.87904,0.8079 -6.39644,2.31286 -6.39644,2.31286z" fill="#df82ff" stroke="none" stroke-width="0"/><path d="M199.57832,256.2867v-12.19114c0,0 1.65542,-1.36978 5.4097,-2.28656c1.12059,-0.27365 4.17282,-0.74343 7.68627,-0.65995c2.90633,0.06905 6.33807,0.63419 7.38178,0.95375c2.72502,0.83435 4.28991,1.99277 4.28991,1.99277v12.19114c0,0 -1.34127,-0.63911 -3.24237,-1.27548c-2.14095,-0.71666 -4.92259,-1.44365 -5.97387,-1.51424c-3.68762,-0.24764 -8.49671,0.33976 -9.15497,0.47686c-3.87904,0.8079 -6.39644,2.31286 -6.39644,2.31286z" fill="#df82ff" stroke="none" stroke-width="0"/><path d="M199.57833,236.6139v-12.19114c0,0 1.65542,-1.36978 5.4097,-2.28656c1.12059,-0.27365 4.17282,-0.74343 7.68627,-0.65995c2.90633,0.06905 6.33807,0.63419 7.38178,0.95375c2.72502,0.83435 4.28991,1.99277 4.28991,1.99277v12.19114c0,0 -1.34127,-0.63911 -3.24237,-1.27548c-2.14095,-0.71666 -4.92259,-1.44365 -5.97387,-1.51424c-3.68762,-0.24764 -8.49671,0.33976 -9.15497,0.47686c-3.87904,0.8079 -6.39644,2.31287 -6.39644,2.31287z" fill="#df82ff" stroke="none" stroke-width="0"/><g fill="none" stroke="#000000" stroke-width="2"><path d="M199.86837,264.46687c0,0 -0.04722,-8.85698 -0.02725,-12.85282c0.05049,-10.10925 -0.40697,-36.77494 -0.40697,-36.77494l25.5341,7.97452c0,0 -0.30412,35.3472 -0.28603,38.811" data-paper-data="{&quot;index&quot;:null}"/><path d="M224.75205,255.89143c0,0 -0.12448,9.74868 -0.08907,14.57756c0.03925,5.35486 0.34835,13.74708 0.34835,13.74708c0,0 -2.89019,-2.96441 -7.24875,-4.80973c-1.70529,-0.72198 -3.7622,-1.58531 -6.65943,-1.96064c-4.50782,-0.58399 -11.33813,-0.23043 -11.33813,-0.23043l0.19153,-20.3503" data-paper-data="{&quot;index&quot;:null}"/></g></g><g data-paper-data="{&quot;index&quot;:null}" fill="#c659ff" stroke="#000000" stroke-width="2"><path d="M250.41487,213.76398l-0.41077,46.92756c0,0 -3.0987,1.94392 -7.94548,2.20457c-1.30746,0.07032 -6.01755,0.10308 -8.90924,-0.17776c-3.55823,-0.34558 -5.30072,-1.07045 -5.94199,-1.6248c-1.6728,-1.44604 -2.22065,-3.01479 -2.2177,-3.68062c0.01875,-4.22618 -0.14148,-35.28059 -0.14148,-35.28059" data-paper-data="{&quot;index&quot;:null}" stroke-linecap="butt"/><path d="M250.06829,240.67031l-0.17967,36.82251l-10.23492,8.0476l-14.84442,2.48559c0,0 0.15972,-17.50692 0.20041,-25.91211c0.0367,-7.57959 -0.09235,-22.88148 -0.09235,-22.88148" data-paper-data="{&quot;index&quot;:null}" stroke-linecap="butt"/><g><path d="M249.22197,277.25973c0,0 2.49906,1.73116 2.93281,2.12713c2.76645,2.52549 4.46989,5.97185 4.46989,9.77107c0,7.74505 -7.0792,8.38736 -15.81186,8.38736c-8.73266,0 -15.81188,-0.64231 -15.81188,-8.38736c0,-0.23589 0.01954,-6.2738 0.01954,-6.2738" data-paper-data="{&quot;index&quot;:null}" stroke-linecap="butt"/><path d="M249.11221,283.49926l1.25259,12.71454" stroke-linecap="round"/><path d="M241.87506,283.2229l1.11341,13.82015" stroke-linecap="round"/></g></g><g stroke-linecap="butt"><g fill="#fff7ff" stroke="none" stroke-width="2"><path d="M250.22402,215.13802c0,0 -0.33286,26.28426 -0.28237,36.39351c0.01996,3.99584 -0.7123,12.69774 -0.7123,12.69774c0,0 -2.98902,1.59324 -7.66418,1.80688c-1.26118,0.05764 -5.8045,0.08449 -8.59381,-0.1457c-3.43227,-0.28322 -5.11306,-0.87734 -5.73163,-1.33168c-1.61357,-1.18519 -2.14203,-2.47095 -2.13918,-3.01666c0.0181,-3.4638 -0.28602,-38.811 -0.28602,-38.811" data-paper-data="{&quot;index&quot;:null}"/><path d="M249.58745,256.63939l0.39905,20.43473c0,0 -6.87116,-0.23043 -11.90559,0.54057c-1.97399,0.30231 -4.48737,0.8444 -5.70677,1.36782c-1.48203,0.63614 -3.84882,2.19074 -5.19114,3.70972c-1.80505,2.04261 -2.61371,2.12899 -2.61371,2.12899c0,0 0.38662,-9.22293 0.42587,-14.57779c0.03541,-4.82888 -0.08907,-14.57756 -0.08907,-14.57756" data-paper-data="{&quot;index&quot;:null}"/></g><path d="M249.95613,263.49527v12.19114l-0.5629,1.68764c0,0 -6.65375,-0.56409 -7.52007,-0.41009c-2.80312,0.49831 -7.57009,1.50506 -7.57009,1.50506c0,0 -4.07979,-0.56179 -4.8247,-0.78986c-2.72502,-0.83435 -4.2899,-1.99277 -4.2899,-1.99277v-12.19114c0,0 1.34128,0.63911 3.24237,1.27548c2.14095,0.71666 4.92259,1.44365 5.97387,1.51424c3.68763,0.24763 8.49671,-0.33977 9.15497,-0.47686z" data-paper-data="{&quot;index&quot;:null}" fill="#df82ff" stroke="none" stroke-width="0"/><path d="M250.15004,244.24714v12.19114c0,0 -1.65542,1.36977 -5.4097,2.28656c-1.12059,0.27365 -4.17281,0.74342 -7.68627,0.65995c-2.90633,-0.06905 -6.33806,-0.63419 -7.38178,-0.95375c-2.72503,-0.83435 -4.28991,-1.99277 -4.28991,-1.99277v-12.19114c0,0 1.34128,0.63911 3.24237,1.27548c2.14096,0.71666 4.92259,1.44365 5.97387,1.51424c3.68763,0.24763 8.49671,-0.33977 9.15497,-0.47686z" data-paper-data="{&quot;index&quot;:null}" fill="#df82ff" stroke="none" stroke-width="0"/><path d="M250.15004,224.34269v12.19114c0,0 -1.65542,1.36978 -5.4097,2.28657c-1.12059,0.27365 -4.17281,0.74342 -7.68627,0.65995c-2.90633,-0.06905 -6.33806,-0.63419 -7.38178,-0.95375c-2.72503,-0.83435 -4.28991,-1.99277 -4.28991,-1.99277v-12.19114c0,0 1.34128,0.63911 3.24237,1.27548c2.14095,0.71666 4.92259,1.44365 5.97387,1.51424c3.68763,0.24763 8.49671,-0.33977 9.15497,-0.47686z" data-paper-data="{&quot;index&quot;:null}" fill="#df82ff" stroke="none" stroke-width="0"/><g fill="none" stroke="#000000" stroke-width="2"><path d="M225.04615,261.56642c0.01809,-3.4638 -0.28603,-38.811 -0.28603,-38.811l25.5341,-7.97452c0,0 -0.45746,26.66569 -0.40697,36.77494c0.01997,3.99584 -0.02725,12.85282 -0.02725,12.85282" data-paper-data="{&quot;index&quot;:null}"/><path d="M249.77182,256.80674l0.19153,20.3503c0,0 -6.83031,-0.35356 -11.33813,0.23043c-2.89723,0.37533 -4.95414,1.23866 -6.65943,1.96064c-4.35856,1.84532 -7.24875,4.80973 -7.24875,4.80973c0,0 0.3091,-8.39222 0.34835,-13.74708c0.03541,-4.82888 -0.08907,-14.57756 -0.08907,-14.57756" data-paper-data="{&quot;index&quot;:null}"/></g></g><path d="M244.32779,141.87798c0,0 2.03937,32.05129 4.49763,49.59017c3.63956,25.9668 18.90027,41.62255 18.90027,41.62255c0,0 -19.49699,14.03291 -44.76644,12.77358c-27.35167,-1.36309 -43.01341,-13.14081 -43.01341,-13.14081c0,0 9.87033,-6.52838 17.18082,-35.29233c4.91017,-19.31962 6.22348,-55.13363 6.22348,-55.13363z" fill="#d792ff" stroke="#000000" stroke-width="2" stroke-linecap="round"/><path d="M243.99445,141.54465l4.49763,57.26993l-50.48763,-0.08993l5.01235,-56.70138z" fill="#d792ff" stroke="#000000" stroke-width="2" stroke-linecap="round"/><path d="M248.44584,198.5183l18.61318,37.17788c0,0 -19.20084,14.6456 -44.08646,13.33129c-26.93621,-1.42261 -42.36006,-13.71455 -42.36006,-13.71455l16.91985,-36.83323z" fill="#a130e3" stroke="#000000" stroke-width="2" stroke-linecap="round"/><g stroke="none" stroke-width="0.5" stroke-linecap="butt"><path d="M224.57261,157.24743c0.03117,-0.24995 0.15456,-0.52001 0.44566,-0.77907c0.94904,-0.84456 1.78257,0.11705 1.78257,0.11705l0.71602,0.87918c0.98999,1.90018 1.85309,3.86663 2.70497,5.83922c1.13304,-0.11298 3.71805,-0.37627 4.27554,-0.27453c0.02492,0.00455 0.04981,0.00927 0.07465,0.01415l0.00083,-0.01012l1.86814,0.15714c0.65435,0.04805 1.17048,0.60117 1.17048,1.27644c0,0.3927 -0.17456,0.7441 -0.44934,0.97887l-1.07353,0.92873c-1.07234,1.01876 -2.05698,2.11984 -3.00536,3.25603c0.23751,0.47296 0.48194,0.94234 0.73503,1.40724c0.87104,1.60002 3.18607,3.99791 3.2301,5.96359c0.09428,4.2082 -2.15022,2.98953 -4.60241,1.90851c-1.67514,-0.8449 -3.26953,-1.72135 -4.80712,-2.66079c-0.87425,0.95845 -1.86352,1.80257 -2.81466,2.68266c-0.51719,0.47856 -0.87495,1.16637 -1.49542,1.4956c-0.04881,0.0259 -0.09795,0.05107 -0.14737,0.07553l0.00977,0.01722l-2.01751,1.17481c-0.18956,0.11513 -0.41137,0.18131 -0.64846,0.18131c-0.6976,0 -1.2631,-0.57301 -1.2631,-1.27984c0,-0.11748 0.01561,-0.23127 0.04487,-0.33934l0.30085,-1.21489c0.49714,-2.51303 0.88884,-5.07067 1.34763,-7.60819c-0.32102,-0.27177 -0.64098,-0.5492 -0.96017,-0.83264c-1.03396,-0.91813 -4.04945,-3.56374 -3.8709,-5.06371c0.14165,-1.18992 3.04204,-1.06976 3.89099,-1.15901c0.87572,-0.09206 1.74985,-0.19019 2.62341,-0.28956c0.62067,-2.18356 1.29966,-4.35228 1.82879,-6.56518c0,0 0.02871,-0.12002 0.10506,-0.27645z" fill="#c45dff"/><g fill="#a130e3"><path d="M207.65415,168.91331c-0.24255,-0.20565 -0.44243,-0.52566 -0.51232,-1.0213c-0.22538,-1.59855 1.35226,-1.82691 1.35226,-1.82691l1.34094,-0.17771c1.67944,0 4.12604,-0.37357 5.63068,0.57163c0.64404,0.40457 0.96242,1.18623 1.44363,1.77935c0.71329,1.30284 1.78909,2.36201 2.11086,3.80768c0.0726,0.32614 0.11958,-0.66497 0.25862,-0.96819c0.53372,-1.16383 0.90245,-2.49368 1.81746,-3.38102c1.83747,-1.78188 3.87331,-1.61999 6.10886,-0.99403c0.98521,0.27587 2.46885,0.12814 2.87589,1.07817c0.6393,1.49211 -2.21062,4.48292 -2.94552,5.72378c-1.05587,1.7828 -2.63747,4.36901 -3.16786,6.3518c-0.34689,1.29682 0.05096,3.41247 0.05096,4.76223c0,1.75358 0.482,5.30371 -0.823,6.6688c-0.78272,0.81877 -5.9726,0.99656 -6.94109,0.4066c-0.79692,-0.48545 -1.26065,-1.41638 -1.67657,-2.25905c-1.56024,-3.16112 -0.0938,-7.31393 -1.70335,-10.54777c-0.51459,-1.03387 -1.43583,-1.81174 -2.01828,-2.80796c-1.10121,-1.88349 -2.03607,-3.94353 -3.06194,-5.87394c0,0 -0.34002,-0.63982 -0.14025,-1.29215z" data-paper-data="{&quot;index&quot;:null}"/><path d="M215.63869,164.01652c-0.54457,-0.21589 -0.54457,-0.87563 -0.54457,-0.87563c0.02131,-1.4228 0.50725,-2.81789 1.09041,-4.12266c0.19942,-0.44617 0.2671,-1.00781 0.64129,-1.31788c0.80063,-0.66347 2.52478,-0.40864 3.4806,-0.40667c0.78138,0.00161 3.38232,-0.00067 3.84142,0.79034c0.32545,0.56072 0.08158,1.33901 -0.15048,1.94553c-0.07606,0.19882 -1.39414,1.26865 -1.63664,1.51477c-1.18679,1.20449 -1.88867,2.09618 -3.54882,2.61599c-0.67821,0.07075 -1.36059,0.11147 -2.0424,0.11229h-0.46538c0,0 -0.39031,0.00001 -0.66543,-0.25609z"/></g></g><path d="M240.7529,147.5967c-2.69546,7.35521 -8.81779,8.09799 -12.44348,6.51522c-3.38336,-1.47699 -4.37093,-5.05749 -4.37093,-5.05749c0,0 -2.09951,3.84242 -6.50244,5.08459c-3.91887,1.1056 -10.1431,0.04038 -10.92946,-5.91866c-1.01904,-7.72235 7.40949,-14.24104 16.86635,-14.41326c9.45686,-0.17222 20.06019,6.47595 17.37996,13.78959z" fill="#ffffff" stroke="#000000" stroke-width="2" stroke-linecap="butt"/><path d="M185.06406,111.94192c0,-21.20267 17.18816,-38.39083 38.39084,-38.39083c21.20267,0 38.39084,17.18816 38.39084,38.39084c0,21.20267 -17.18816,38.39084 -38.39084,38.39084c-21.20267,0 -38.39083,-17.18817 -38.39083,-38.39084z" fill="#c659ff" stroke="#000000" stroke-width="2" stroke-linecap="butt"/><g stroke="#000000" stroke-width="2"><path d="M190.88066,124.77691c0,0 -2.87774,0.31122 -4.33906,-0.18199c-2.26085,-0.76306 -3.9632,-2.51569 -4.4581,-3.4289c-1.12503,-2.07591 -1.28823,-4.50191 -1.28823,-4.50191c0,0 1.4836,-0.41926 2.13729,-0.96762c0.23501,-0.19714 0.5469,-0.47468 0.8282,-0.88163c0.38195,-0.55258 0.70749,-1.23192 0.70749,-1.23192c0,0 -3.06636,-1.65655 -4.85551,-3.89327c-1.7524,-2.19079 -2.22786,-4.95164 -2.27278,-5.99059c-0.15748,-3.64221 0.8318,-7.94254 0.8318,-7.94254c0,0 2.23556,1.45626 5.17631,2.64455c2.02705,0.81909 4.87772,1.47342 5.57945,1.58768c2.43598,0.39665 4.95021,0.3765 4.95021,0.3765" fill="#000000" stroke-linecap="round"/><path d="M186.97205,114.06672c0,-9.72543 7.88402,-17.60945 17.60945,-17.60945c9.72543,0 17.60946,7.88403 17.60946,17.60946c0,9.72543 -7.88403,17.60946 -17.60946,17.60946c-9.72543,0 -17.60945,-7.88404 -17.60945,-17.60945z" fill="#ffffff" stroke-linecap="butt"/></g><g stroke-linecap="butt"><path d="M187.58787,115.85259c0,-6.57672 5.33148,-11.90819 11.90821,-11.90819c6.57671,0 11.9082,5.33148 11.9082,11.9082c0,6.57672 -5.33148,11.9082 -11.9082,11.9082c-6.57671,0 -11.90819,-5.33148 -11.90819,-11.9082z" fill="url(#color-1)" stroke="#000000" stroke-width="2"/><path d="M201.88163,111.40097c0,-1.89624 1.5372,-3.43342 3.43343,-3.43342c1.89623,0 3.43342,1.53719 3.43342,3.43343c0,1.89624 -1.53719,3.43343 -3.43342,3.43343c-1.89623,0 -3.43343,-1.53719 -3.43343,-3.43343z" fill="#ffffff" stroke="none" stroke-width="0"/></g><g data-paper-data="{&quot;index&quot;:null}" stroke="#008682" stroke-width="2"><path d="M252.89262,100.3187c0,0 2.51424,0.02015 4.95021,-0.3765c0.70173,-0.11426 3.5524,-0.7686 5.57945,-1.58768c2.94075,-1.18829 5.17631,-2.64455 5.17631,-2.64455c0,0 0.98928,4.30033 0.8318,7.94254c-0.04492,1.03896 -0.52038,3.7998 -2.27278,5.99059c-1.78915,2.23672 -4.85551,3.89327 -4.85551,3.89327c0,0 0.32554,0.67934 0.70749,1.23192c0.2813,0.40695 0.59319,0.68449 0.8282,0.88163c0.6537,0.54836 2.13729,0.96762 2.13729,0.96762c0,0 -0.16321,2.426 -1.28823,4.50191c-0.4949,0.91321 -2.19725,2.66583 -4.4581,3.4289c-1.46131,0.49321 -4.33906,0.18199 -4.33906,0.18199" fill="#008682" stroke-linecap="round"/><path d="M259.79831,114.02017c0,9.72541 -7.88402,17.60945 -17.60945,17.60945c-9.72543,0 -17.60946,-7.88403 -17.60946,-17.60946c0,-9.72543 7.88403,-17.60946 17.60946,-17.60946c9.72543,0 17.60945,7.88402 17.60945,17.60945z" fill="#99ffea" stroke-linecap="butt"/></g><g data-paper-data="{&quot;index&quot;:null}" stroke-linecap="butt"><path d="M249.34645,113.16708c0,6.57672 -5.33148,11.9082 -11.90819,11.9082c-6.57672,0 -11.9082,-5.33148 -11.9082,-11.9082c0,-6.57672 5.33149,-11.9082 11.9082,-11.9082c6.57673,0 11.90821,5.33147 11.90821,11.90819z" fill="url(#color-2)" stroke="#008682" stroke-width="2"/><path d="M235.0527,108.71548c0,1.89624 -1.5372,3.43343 -3.43343,3.43343c-1.89623,0 -3.43342,-1.53719 -3.43342,-3.43343c0,-1.89624 1.53719,-3.43343 3.43342,-3.43343c1.89623,0 3.43343,1.53718 3.43343,3.43342z" fill="#ffffff" stroke="none" stroke-width="0"/></g><path d="M217.30208,132.86189h10.66385l-5.33193,4.74214z" fill="#000000" stroke="none" stroke-width="0.5" stroke-linecap="butt"/><g data-paper-data="{&quot;index&quot;:null}" stroke="#000000" stroke-width="2"><path d="M234.44005,138.98834c0,0 -3.27023,2.84208 -11.27813,3.2481c-8.55208,0.4336 -12.18038,-3.2481 -12.18038,-3.2481" fill="none" stroke-linecap="round"/><path d="M218.98899,147.64996l-0.54135,-5.14283c0,0 3.12862,0 4.60148,0c1.36026,0 4.46614,-0.67669 4.46614,-0.67669l-0.67669,5.68418z" fill="#ffffff" stroke-linecap="butt"/></g><g data-paper-data="{&quot;index&quot;:null}" stroke-linecap="butt"><path d="M256.21112,87.38659c0.39844,10.39101 -0.23791,18.66296 -6.113,18.88825c-5.87509,0.22528 -7.13582,-7.7855 -7.53427,-18.1765c-0.39844,-10.39102 0.21627,-19.2274 6.09137,-19.45269c5.87509,-0.22528 7.15747,8.34996 7.55591,18.74097z" data-paper-data="{&quot;index&quot;:null}" fill="#4fe3de" stroke="#000000" stroke-width="2"/><path d="M253.1929,81.79c8.7835,5.56618 15.23484,10.78252 12.08771,15.74872c-3.14713,4.96619 -10.45952,1.46032 -19.243,-4.10584c-8.7835,-5.56618 -15.71196,-11.08487 -12.56483,-16.05107c3.14713,-4.96619 10.93663,-1.15798 19.72012,4.40821z" data-paper-data="{&quot;index&quot;:null}" fill="#4fe3de" stroke="#000000" stroke-width="2"/><path d="M264.5032,76.1919c3.51819,4.71061 -2.96732,10.74369 -11.29879,16.96614c-8.33145,6.22246 -15.3539,10.27799 -18.87207,5.56737c-3.51819,-4.7106 2.51477,-10.40567 10.84621,-16.62812c8.33146,-6.22245 15.80645,-10.616 19.32464,-5.90539z" data-paper-data="{&quot;index&quot;:null}" fill="#4fe3de" stroke="#000000" stroke-width="2"/><path d="M244.88288,100.59162l-2.86355,-7.7383l14.69818,0.33365l-1.80009,6.9631z" fill="#4fe3de" stroke="none" stroke-width="0"/><path d="M254.02762,74.95892l2.35783,6.80365l-14.84117,1.46635l2.29956,-7.93629z" data-paper-data="{&quot;index&quot;:null}" fill="#4fe3de" stroke="none" stroke-width="0"/><path d="M260.33887,87.21952c0.24211,6.31353 -4.53761,11.62246 -10.67577,11.85783c-6.13816,0.23538 -11.31036,-4.69196 -11.55246,-11.00549c-0.24211,-6.31353 4.5376,-11.62247 10.67576,-11.85784c6.13816,-0.23538 11.31036,4.69197 11.55247,11.0055z" fill="#c659ff" stroke="#000000" stroke-width="2"/></g><g data-paper-data="{&quot;index&quot;:null}" stroke="#000000" stroke-width="2" stroke-linecap="butt"><path d="M198.22876,89.35284l-14.31653,14.52239l-14.10561,-23.96233l24.54945,-0.64954l16.54856,-16.80865l9.06558,26.20624z" fill="#c659ff"/><path d="M201.7853,96.88862c-7.04907,2.99438 -15.19089,-0.29256 -18.18529,-7.34161c-2.99438,-7.04907 0.29256,-15.19089 7.34161,-18.18529c7.04907,-2.99438 15.19089,0.29256 18.18529,7.34161c2.99438,7.04907 -0.29256,15.19089 -7.34161,18.18529z" fill="#4fe3de"/></g><path d="M224.41272,119.53246c0,0 -0.41599,2.17009 -1.13562,3.7509c-0.3046,0.66909 -0.95686,1.86673 -1.74124,2.56945c-0.8828,0.79089 -1.91231,1.05866 -2.40649,1.23311c-0.48505,0.17123 -1.90064,0.39069 -3.05111,-0.01825c-1.35495,-0.48161 -2.44305,-1.64131 -2.68368,-1.95095c-1.34072,-1.72535 -1.16561,-3.86507 -1.16561,-3.86507c0,0 -0.46435,2.20625 -1.50207,3.86131c-0.28949,0.4617 -1.29689,1.50932 -2.43917,1.77008c-1.06294,0.24266 -2.25529,-0.27491 -2.7671,-0.53414c-1.163,-0.58908 -2.0491,-1.67943 -2.52138,-2.67275c-0.90901,-1.91188 0.62043,-4.22378 0.62043,-4.22378c0,0 -2.30806,2.53742 -4.30313,3.08724c-1.02116,0.28142 -2.96133,-0.09132 -3.92382,-0.87306c-1.1911,-0.96742 -1.27285,-2.48583 -0.87709,-3.2694c0.7462,-1.47741 2.91952,-3.17711 2.91952,-3.17711c0,0 -6.86625,1.08501 -11.03003,-0.56763c-8.82028,-3.50085 -18.41613,-12.3915 -15.56799,-21.4663c1.915,-6.10156 8.48052,-11.47204 15.57468,-12.00245c7.419,-0.55468 15.33532,3.87572 15.33532,3.87572c0,0 -5.45648,-3.74399 -5.33904,-7.25855c0.05116,-1.53109 0.37271,-3.18633 1.34154,-4.34786c0.61966,-0.74291 2.34659,-2.4605 4.31673,-2.38988c0.98825,0.03543 3.33621,0.80106 4.56846,1.99166c1.2868,1.24331 1.43741,2.91305 1.43741,2.91305c0,0 1.46775,-3.90338 4.50765,-5.51509c1.60974,-0.85344 4.05044,-0.90199 6.88626,0.63306c3.78834,2.05066 5.1132,4.95834 5.31638,7.19869c0.28151,3.10398 -1.95095,6.80021 -1.95095,6.80021" data-paper-data="{&quot;index&quot;:null}" fill="#c659ff" stroke="#000000" stroke-width="2" stroke-linecap="round"/><g data-paper-data="{&quot;index&quot;:null}" stroke-width="2"><g fill="#c659ff" stroke="#000000" stroke-linecap="butt"><path d="M199.92388,151.91827l44.60317,-4.53202c0,0 1.87834,11.53606 2.6212,16.14689c0.17873,1.10933 0.48441,3.08983 0.96038,4.25831c1.27502,3.13018 3.2396,5.21522 3.2396,5.21522c0,0 -1.34506,1.08977 -2.59811,1.84288c-1.63057,0.98002 -3.37675,1.70937 -4.57992,1.99617c-2.27534,0.5424 -4.01963,0.3123 -5.36242,-0.22681c-1.37894,-0.55363 -3.0448,-2.10216 -3.99839,-4.05472c-0.72954,-1.49379 -0.93151,-3.56572 -0.93151,-3.56572c0,0 -1.60178,0.97227 -2.18858,1.55733c-0.88072,0.87811 -2.27664,3.51265 -2.27664,3.51265c0,0 -1.97078,-1.45387 -2.60345,-2.22382c-0.55326,-0.67334 -1.29164,-2.45866 -1.29164,-2.45866c0,0 -19.62137,3.52826 -25.93773,4.85249c-1.47745,0.30975 -3.92236,-0.39502 -6.02429,-2.04767c-2.10863,-1.65792 -2.93987,-4.31885 -3.24844,-6.93082c-0.22213,-1.88033 0.0875,-4.36535 1.01014,-6.17796c1.74303,-3.42439 8.60663,-7.16372 8.60663,-7.16372z"/><path d="M219.80491,170.40392c0,0 -16.82851,3.74753 -24.51438,5.36934c-7.90391,1.66783 -22.27326,4.50344 -22.27326,4.50344l-4.32436,-25.55977c0,0 12.02656,-1.27783 19.87929,-2.02577c9.01343,-0.85847 31.20075,-2.83934 31.20075,-2.83934"/></g><g fill="#c659ff" stroke="#000000"><path d="M174.37266,178.19702c-2.17678,3.06979 -5.45472,5.28081 -9.36274,5.93611c-8.0526,1.35027 -15.73094,-4.41608 -17.15011,-12.87951c-1.41917,-8.46343 3.95828,-16.41899 12.01088,-17.76926c3.95067,-0.66245 7.81129,0.38802 10.88686,2.62959" stroke-linecap="butt"/><path d="M159.98615,176.94941l-5.46438,4.93225" stroke-linecap="round"/><path d="M157.22947,162.90152l-7.77902,-1.78761" stroke-linecap="round"/></g><g stroke-linecap="butt"><g fill="#fff7ff" stroke="none"><path d="M202.36185,151.21906c5.35914,-0.47529 21.53948,-2.05942 21.53948,-2.05942l1.64303,20.7524c0,0 -12.5868,1.45109 -20.37729,3.25139c-1.24681,0.28812 -4.1895,-0.47048 -6.10539,-2.23818c-1.92198,-1.77333 -2.81592,-4.56059 -3.25803,-7.28483c-0.31824,-1.96117 -0.22122,-4.5391 0.44749,-6.40341c1.26331,-3.52204 4.0292,-5.83334 6.11072,-6.01793z"/><path d="M211.11886,171.88189c0,0 -14.18663,3.51006 -20.67199,5.01978c-6.66938,1.55255 -18.80765,4.17073 -18.80765,4.17073l-5.44576,-26.68867c0,0 10.23358,-1.05175 16.92147,-1.64854c7.67642,-0.68504 27.31724,-2.26802 27.31724,-2.26802"/></g><path d="M220.09781,153.71496c0.77878,1.48669 1.50127,3.32837 1.79031,4.59265c0.35944,1.57234 0.84958,5.08997 0.83795,7.36604c-0.01442,2.82331 -0.5848,4.28946 -0.5848,4.28946l-9.91353,2.2354c0,0 0.54322,-1.94809 0.46471,-4.97371c-0.05036,-1.94129 -0.6451,-5.06456 -0.85249,-5.96674c-0.29973,-1.30388 -1.05128,-4.0153 -2.05358,-5.95816c-1.30795,-2.53531 -2.88931,-4.20221 -2.88931,-4.20221l10.56221,-1.61487c0,0 1.39203,1.85258 2.63853,4.23214z" fill="#df82ff" stroke="none"/><path d="M177.83748,172.79247c-0.02212,-2.72908 -0.5841,-5.98347 -1.0796,-7.82648c-0.42915,-1.59629 -1.33707,-4.30066 -2.4598,-6.15047c-1.83622,-3.02534 -4.02956,-4.96849 -4.02956,-4.96849l11.5378,-1.08459c0,0 1.53571,1.52316 3.05047,3.96512c1.10672,1.78419 2.20308,4.28712 2.67696,5.9118c0.49726,1.70479 1.09755,5.40404 1.07277,7.9355c-0.03955,4.0402 -0.94782,6.83313 -0.94782,6.83313l-10.43214,2.32026c0,0 0.64175,-3.134 0.61094,-6.93577z" fill="#df82ff" stroke="none"/><path d="M199.94864,151.29798c0.08885,0.60582 3.94791,4.62996 5.50111,9.92973c1.54522,5.27252 0.19025,12.24071 0.19025,12.24071l-9.81009,1.81447c0,0 0.55455,-2.33007 0.44045,-5.89984c-0.07833,-2.4504 -0.68381,-6.0279 -1.15054,-7.66207c-1.05622,-3.69813 -5.92089,-9.65507 -5.92089,-9.65507z" fill="#df82ff" stroke="none"/><g fill="none" stroke="#000000"><path d="M202.94195,151.24522c10.39278,-0.92174 21.40297,-2.22927 21.40297,-2.22927l1.82426,20.27524l-20.57534,4.2369"/><path d="M211.66801,172.26842l-39.44863,8.83014l-5.44575,-26.68863c0,0 10.23358,-1.05175 16.92147,-1.64854c7.67643,-0.68503 26.58152,-2.23359 26.58152,-2.23359"/></g></g></g></g></g></svg>